<svg width="96" height="96" viewBox="0 0 96 96" fill="none" xmlns="http://www.w3.org/2000/svg">
<path d="M48.0267 48.1803L43.2267 51.5779L38.5208 55.0791C37.3914 55.9544 36.375 56.9614 35.2267 57.8367C31.2079 60.905 27.1797 64.0014 23.3208 67.2485C21.5797 68.745 19.9797 70.345 18.4173 71.9261C16.5125 74.0424 14.4415 76.0032 12.2244 77.7897C11.4997 78.3073 10.7561 77.5355 10.4644 76.2367C10.3166 75.4974 10.3166 74.7361 10.4644 73.9967C10.5841 73.1895 10.9117 72.4273 11.415 71.785C12.3561 70.6367 13.382 69.545 14.3797 68.4438C15.3773 67.3426 16.4973 66.3638 17.5797 65.3567C19.77 63.3375 22.0666 61.4368 24.4597 59.6626C27.3397 57.545 29.8808 54.8344 32.6573 52.472C34.1726 51.1732 35.7256 49.9026 37.2879 48.6414C38.8503 47.3803 40.4126 46.1285 41.9938 44.8767C43.9232 43.3614 45.9279 41.9026 47.9326 40.3967C50.9067 38.1379 54.0126 36.0014 56.9961 33.752C58.1256 32.8108 59.2926 31.9732 60.4032 31.032C60.9679 30.5708 61.5138 30.0908 62.0879 29.6391L63.8761 28.3214C64.4126 27.9355 64.902 27.5026 65.4573 27.1544C66.2125 26.6265 67.1148 26.3499 68.0361 26.3638C68.7649 26.4902 69.407 26.9172 69.8056 27.5403C70.0784 27.8408 70.336 28.155 70.5773 28.4814C71.2738 29.6391 70.8879 31.1167 69.7208 32.2461C68.7797 32.9708 67.895 33.8461 66.9444 34.6179C66.4644 35.0132 66.0032 35.3803 65.495 35.7661C64.9867 36.152 64.5538 36.5755 64.0267 36.9614C63.4997 37.3473 62.9914 37.7803 62.4644 38.1379C61.9373 38.4955 61.4291 38.872 60.902 39.2579C59.8573 40.0108 58.7844 40.745 57.7114 41.4791C56.1303 42.6085 54.5334 43.7253 52.9208 44.8297L48.1303 48.3026L48.0267 48.1803Z" fill="black"/>
<path d="M79.6504 44.2284C80.7045 39.9648 87.1798 23.0237 84.648 18.8731C82.8692 15.9366 45.7586 20.2566 47.481 22.3648C50.6245 26.2237 55.1704 28.4354 59.2645 31.0989C63.7163 33.9978 67.8669 37.226 72.0833 40.4542C72.7704 40.9625 79.2739 45.7625 79.6504 44.2284Z" fill="black"/>
</svg>
