<svg width="96" height="96" viewBox="0 0 96 96" fill="none" xmlns="http://www.w3.org/2000/svg">
<path d="M37.7617 66.6386C35.277 66.4691 32.7734 66.3374 30.2323 66.2715C29.2911 66.2715 28.4064 66.375 27.4934 66.3374C24.2652 66.215 21.0276 66.1397 17.7805 65.9609C16.3405 65.9044 14.9005 65.9609 13.4699 66.0268C11.6261 66.213 9.76583 66.1592 7.9358 65.8668C7.35227 65.7538 7.43698 65.2174 7.9358 64.615C8.52922 63.8603 9.35162 63.3187 10.2793 63.0715C13.9366 62.3479 17.6571 61.9916 21.3852 62.008C23.6834 62.0146 25.9801 61.8952 28.2652 61.6503C30.797 61.5374 33.3382 61.4903 35.8793 61.4621H40.5852C42.957 61.4621 45.3476 61.5091 47.7099 61.4621C48.6511 61.4621 49.5923 61.3491 50.477 61.2456C51.3617 61.1421 52.3593 61.0197 53.3005 60.9727C53.7146 60.9727 54.1287 60.8691 54.5429 60.8691C54.7261 60.872 54.9088 60.8909 55.0887 60.9256C55.2392 60.9702 55.3869 61.0236 55.5311 61.0856C55.7792 61.1792 55.995 61.3427 56.1523 61.5562C56.4175 62.0481 56.5778 62.5897 56.6229 63.1468C56.6229 63.4197 56.7076 63.6833 56.7076 63.9186C56.6793 64.3503 56.5031 64.7591 56.2087 65.0762C56.0393 65.2833 55.8417 65.5186 55.6064 65.7633C55.4082 65.9789 55.1541 66.1353 54.8723 66.215C53.3299 66.6006 51.754 66.837 50.1664 66.9209C48.5664 66.9868 46.9099 67.1091 45.2629 67.015C42.797 66.9491 40.2934 66.7891 37.7805 66.7327L37.7617 66.6386Z" fill="black"/>
<path d="M51.2677 39.7579C48.1806 39.5791 45.0748 39.4285 41.9689 39.3532C40.8301 39.3532 39.7101 39.4756 38.5712 39.4379C34.5618 39.3061 30.5524 39.2308 26.5242 39.0332C24.7359 38.9767 22.9571 39.0332 21.1877 39.1273C18.9023 39.3591 16.5967 39.299 14.3265 38.9485C13.6112 38.8167 13.7148 38.1861 14.3265 37.4803C15.0742 36.5727 16.0937 35.9293 17.2348 35.645C19.4936 35.2591 21.7806 34.9391 24.0677 34.7038C26.371 34.4146 28.6933 34.3045 31.0136 34.3744C33.8371 34.5438 36.6606 34.0544 39.5595 33.9226C42.6936 33.7814 45.8465 33.7156 48.9712 33.6779H54.7971C57.743 33.6779 60.6983 33.7344 63.6348 33.6779C64.7736 33.6779 65.9124 33.5556 67.0606 33.4238L68.7736 33.2261L70.5242 33.0285C71.0324 33.0285 71.5406 32.9061 72.0583 32.9156C72.2854 32.9217 72.5119 32.9437 72.7359 32.9814C72.9223 33.0344 73.1047 33.1004 73.2818 33.1791C73.5838 33.2924 73.8502 33.484 74.0536 33.7344C74.393 34.3291 74.5986 34.9908 74.6559 35.6732C74.6559 36.0026 74.7689 36.3132 74.7689 36.6144C74.7403 37.1292 74.5224 37.6152 74.1571 37.9791C73.9267 38.2645 73.6817 38.5379 73.423 38.7979C73.305 38.9403 73.1528 39.0504 72.9806 39.1179C72.8288 39.1951 72.6715 39.2611 72.5101 39.3156C70.5858 39.7714 68.6223 40.0424 66.6465 40.125C64.6606 40.2097 62.6089 40.3508 60.5571 40.2379C57.4983 40.172 54.3924 39.9744 51.2771 39.9273L51.2677 39.7579Z" fill="black"/>
<path d="M45.0654 54.2528C45.0654 57.8293 46.129 70.874 47.3713 71.5799C48.6137 72.2857 68.5478 68.314 68.3219 67.8528C67.0231 65.4434 45.0654 53.114 45.0654 54.2528Z" fill="black"/>
<path d="M60.3311 24.559C60.3311 28.9919 61.6487 45.1707 63.1546 46.046C64.6605 46.9213 89.4511 42.0366 89.1687 41.5001C87.5593 38.4696 60.3311 23.1754 60.3311 24.559Z" fill="black"/>
</svg>
