<svg width="96" height="96" viewBox="0 0 96 96" fill="none" xmlns="http://www.w3.org/2000/svg">
<path d="M62.5001 79.2121L60.6178 79.8992L58.6695 80.4168L57.7284 80.6709L56.6837 80.8686C56.0248 80.9721 55.366 81.0945 54.7072 81.1792C52.0797 81.4663 49.4288 81.4663 46.8013 81.1792C44.2115 80.8894 41.6594 80.3279 39.1872 79.5039C37.9448 79.1368 36.7684 78.5627 35.5731 78.1298C34.9801 77.8757 34.406 77.5745 33.8319 77.3015C33.2478 77.0183 32.6791 76.7041 32.1284 76.3604C28.8327 74.5791 25.8091 72.3351 23.1495 69.6968C20.8234 67.3519 18.8399 64.6904 17.2578 61.7909C16.8719 61.0568 16.5331 60.3039 16.1754 59.5698C15.8178 58.8357 15.5731 58.0262 15.2343 57.2639C14.9138 56.5033 14.6403 55.7238 14.4154 54.9298C14.1566 54.1409 13.9492 53.3361 13.7943 52.5204C13.0876 49.2664 12.9855 45.9101 13.4931 42.6192C14.0586 39.3816 15.0822 36.2411 16.5331 33.2921C18.9782 28.0234 22.6433 23.413 27.2248 19.8427C30.1595 17.4932 33.5408 15.7642 37.1637 14.7604C40.7992 13.8332 44.6184 13.9113 48.2131 14.9862C49.2766 15.5321 49.6907 15.8145 49.6343 15.9274C49.5778 16.0404 49.0225 16.0874 48.0531 16.4357C47.5637 16.6804 47.0178 16.6992 46.3872 16.9439L44.3448 17.631C43.6107 17.8945 42.8578 18.271 42.0672 18.5251C41.2766 18.7792 40.4766 19.1557 39.6295 19.391C38.7825 19.6262 38.1801 20.0027 37.4554 20.2568L35.3095 21.198C34.6225 21.5839 33.926 21.9227 33.2484 22.318C32.5707 22.7133 31.9307 23.1651 31.2907 23.6168C28.7301 25.5314 26.4548 27.8004 24.5331 30.3557C22.5419 32.9405 20.9231 35.7918 19.7237 38.8262L18.9237 41.1039L18.3401 43.438C18.199 44.2286 18.1048 45.0286 17.9731 45.8286C17.8413 46.6286 17.8413 47.438 17.766 48.2568C17.6658 52.3142 18.7306 56.3153 20.8343 59.7862C23.0104 63.324 25.8291 66.4236 29.1448 68.9251C36.326 74.4968 45.8319 77.3015 54.726 75.758C55.4037 75.6074 56.1001 75.5321 56.759 75.3251L58.7543 74.751L60.6837 73.9886C61.3331 73.7439 61.926 73.3862 62.566 73.0474C65.0266 71.7466 67.2738 70.0771 69.2295 68.0968C72.2333 65.1096 74.4905 61.4563 75.8178 57.4333C76.4737 55.4553 76.8568 53.3972 76.9566 51.3157C76.9896 50.8017 76.9896 50.2861 76.9566 49.7721C76.9646 49.2619 76.93 48.7519 76.8531 48.2474C76.7778 47.7392 76.7495 47.2309 76.6648 46.7321L76.2978 45.2733C76.1095 44.5109 75.7895 43.7957 75.5448 43.0615C75.3001 42.3274 74.8766 41.6686 74.4625 41.0192L73.8225 40.078C73.6191 39.744 73.386 39.429 73.126 39.1368C72.6739 38.5763 72.1765 38.0537 71.639 37.5745C70.6506 36.6804 69.4632 36.0351 68.1754 35.6921C66.8887 35.3936 65.5574 35.3393 64.2507 35.5321C63.0545 35.6806 61.8853 35.9975 60.7778 36.4733C56.6272 38.4968 54.9237 39.2968 53.2484 39.2968C52.8579 39.3419 52.4649 39.3607 52.0719 39.3533C51.5448 39.278 51.5072 38.6945 51.8743 37.5462C52.1021 36.832 52.4182 36.1491 52.8154 35.5133C53.0611 35.0835 53.3412 34.6743 53.6531 34.2898C53.9792 33.8184 54.3582 33.3858 54.7825 33.0004C56.1633 31.7933 57.7022 30.7801 59.3566 29.9886C61.1707 29.1186 63.1235 28.5738 65.126 28.3792C69.5846 28.1421 73.925 29.8604 77.0131 33.0851C77.3725 33.443 77.7089 33.8233 78.0201 34.2239L78.9613 35.3721C79.5543 36.1533 80.0531 37.0192 80.5895 37.8568C81.126 38.6945 81.4743 39.6357 81.8978 40.5392C82.3213 41.4427 82.5754 42.4215 82.839 43.3627C83.831 47.1708 83.9148 51.1587 83.0837 55.0051C81.6386 61.8482 78.0795 68.0641 72.9095 72.7745C72.4013 73.2262 71.9025 73.7157 71.3848 74.1392L69.7095 75.3721L68.8813 75.9839C68.599 76.1815 68.3072 76.351 68.0154 76.5298L66.2554 77.6027C65.6531 77.9227 65.0319 78.2145 64.3731 78.5439C63.7661 78.8616 63.137 79.1352 62.4907 79.3627L62.5001 79.2121Z" fill="black"/>
<path d="M50.8858 24.755C51.4222 24.5385 53.9163 35.9926 55.3752 37.602C57.634 40.0867 64.2034 46.6562 63.6481 47.0138C61.0316 48.595 40.9563 48.2938 40.034 46.0444C38.3493 41.8844 49.0975 25.4797 50.8858 24.755Z" fill="black"/>
</svg>
