<svg width="96" height="96" viewBox="0 0 96 96" fill="none" xmlns="http://www.w3.org/2000/svg">
<path d="M41.4686 39.2282C43.6239 42.2588 45.7886 45.3553 47.9627 48.3765C48.7627 49.4776 49.6945 50.4753 50.4851 51.5859L54.6357 57.4776C56.0098 59.4541 57.3274 61.4776 58.7204 63.4353C59.9439 65.1765 61.2898 66.8329 62.6263 68.4706C64.447 70.4871 66.0907 72.6567 67.5392 74.9553C67.9627 75.7082 67.2662 76.1412 66.1651 76.1318C64.7607 76.1093 63.4163 75.5581 62.4004 74.5882C58.489 70.6658 54.895 66.4392 51.6521 61.9482C49.7698 59.1247 47.398 56.64 45.271 53.9765C42.9651 51.0494 40.6592 48.0753 38.3627 45.0823L34.1463 39.5859C32.0004 36.8282 29.911 33.9953 27.6427 31.3882C25.911 29.3176 23.9721 27.5012 22.1651 25.5529C21.7604 25.1294 21.3463 24.7247 20.9792 24.2635C20.6875 23.9021 20.4203 23.5217 20.1792 23.1247C20.0276 22.8112 19.932 22.4735 19.8968 22.127C19.8262 21.5467 19.945 20.959 20.2357 20.4518C20.341 20.1958 20.4636 19.9474 20.6027 19.7082C20.8828 19.3496 21.3447 19.1846 21.7886 19.2847C22.4936 19.3822 23.1737 19.6122 23.7933 19.9623C25.7918 21.4033 27.6794 22.9921 29.4404 24.7153C30.3815 25.5812 31.238 26.4565 32.1039 27.3694C32.9698 28.2823 33.7415 29.2518 34.5415 30.2588C36.9321 33.1482 39.2474 36.1506 41.5533 39.1059L41.4686 39.2282Z" fill="black"/>
<path d="M60.9886 45.7591C58.3157 48.8085 55.6239 51.8579 52.9886 54.9356C52.0474 56.0556 51.2004 57.2885 50.2215 58.3991L45.0545 64.2721C43.3227 66.2297 41.5345 68.1309 39.8215 70.0979C38.2592 71.8391 36.8662 73.6744 35.4357 75.4909C33.738 77.9121 31.8496 80.1939 29.7886 82.3144C29.1204 82.9544 28.5462 82.3144 28.3486 81.2321C28.1162 79.7542 28.4199 78.242 29.2051 76.9685C32.4443 71.8619 36.0523 66.9987 40.0004 62.4179C42.4851 59.7544 44.5557 56.5921 46.8427 53.6744C49.3745 50.4744 51.9439 47.3121 54.5039 44.1403L59.2662 38.305C61.6474 35.3403 64.1133 32.4226 66.3251 29.3638C68.0851 27.0203 69.5627 24.5262 71.1909 22.1262C71.5486 21.5991 71.878 21.0626 72.2733 20.5544C72.5818 20.1574 72.915 19.7802 73.2709 19.425C73.5535 19.1891 73.871 18.9986 74.2121 18.8603C74.7671 18.6414 75.378 18.6084 75.9533 18.7662C76.2271 18.8102 76.4976 18.8731 76.7627 18.9544C77.158 19.1144 77.3462 19.4909 77.3933 20.0744C77.4285 20.84 77.3233 21.6056 77.0827 22.3332C75.9933 24.798 74.7355 27.1849 73.318 29.4768C72.6121 30.6438 71.8968 31.8109 71.1251 32.9403C70.3533 34.0697 69.5062 35.1426 68.678 36.2344C66.2215 39.4815 63.6145 42.6532 61.0733 45.8532L60.9886 45.7591Z" fill="black"/>
<path d="M14.2782 25.3642C14.2042 23.7893 14.3052 22.211 14.5793 20.6583C14.6546 20.2536 14.7864 19.8019 14.8993 19.3689C15.0602 18.8207 15.2779 18.2908 15.5488 17.7878C15.6993 17.5336 15.8217 17.2607 15.9817 17.016L16.5182 16.3195C16.8928 15.8778 17.342 15.5051 17.8452 15.2183C18.2141 15.0126 18.6017 14.8424 19.0029 14.7101C19.3982 14.5972 19.8311 14.5501 20.2452 14.4654C20.6505 14.3593 21.0688 14.3117 21.4876 14.3242C21.9299 14.3242 22.1746 14.3242 22.5229 14.3807C24.4739 14.7218 26.3619 15.3565 28.1229 16.263C29.7888 17.0819 31.3229 17.9854 32.8288 18.9078C34.1652 19.7266 35.5582 20.4325 36.857 21.2325C38.5902 22.1094 40.2166 23.1832 41.704 24.4325C42.1464 24.8466 41.704 25.5525 40.8664 26.0889C39.9004 26.7264 38.7048 26.9119 37.5911 26.5972C36.6499 26.2207 35.7088 25.8348 34.8146 25.4489C33.9062 25.0864 33.0282 24.6521 32.1888 24.1501C30.5229 23.2089 28.904 22.1642 27.2946 21.176C26.8156 20.8847 26.3154 20.6299 25.7982 20.4136C25.2925 20.2121 24.7737 20.0454 24.2452 19.9148C23.7486 19.7817 23.2418 19.6904 22.7299 19.6419C22.5001 19.6012 22.2669 19.5823 22.0335 19.5854C21.877 19.6005 21.7194 19.6005 21.5629 19.5854C21.3256 19.5541 21.0843 19.59 20.8664 19.6889C20.6451 19.8133 20.4652 19.9998 20.3488 20.2254C20.3488 20.3007 20.3488 20.2913 20.264 20.4136C20.2247 20.5242 20.1932 20.6374 20.1699 20.7525C20.0951 21.0048 20.0416 21.2629 20.0099 21.5242C19.9346 22.0701 19.8499 22.6725 19.8123 23.2842C19.7324 24.8537 19.7733 26.4269 19.9346 27.9901C20.1423 30.4545 20.5229 32.9013 21.0735 35.3125C21.3088 36.2536 21.5911 37.1948 21.8735 38.0701C22.1558 38.9454 22.4946 39.896 22.7111 40.8372C22.7864 41.2607 22.8993 41.6654 22.9464 42.0983C23.144 43.7172 22.8052 44.3666 21.9582 44.8183C21.7811 44.9302 21.5954 45.0277 21.4029 45.1101C21.0726 45.1928 20.7227 45.1123 20.4617 44.8936C20.0481 44.6317 19.6978 44.2813 19.4358 43.8678L18.0335 41.5807C17.6476 40.7807 17.2805 39.9619 16.9417 39.1242C16.2569 37.4162 15.7308 35.6487 15.3699 33.8442C14.7407 31.0561 14.3223 28.2246 14.1182 25.3736L14.2782 25.3642Z" fill="black"/>
<path d="M75.9059 21.9572C75.8747 21.0064 75.7518 20.0609 75.5388 19.1337C75.5388 18.9925 75.5388 18.9643 75.4918 18.889C75.4302 18.6773 75.2624 18.5131 75.0494 18.456V18.456C75.0121 18.4629 74.9738 18.4629 74.9365 18.456C74.7622 18.4612 74.5889 18.4833 74.4188 18.5219L73.873 18.5972C73.6803 18.6416 73.4856 18.6762 73.2894 18.7007C71.7568 18.9483 70.2528 19.3488 68.8 19.896C67.2431 20.4587 65.7219 21.1156 64.2447 21.8631C62.9177 22.5219 61.6941 23.3784 60.48 24.1596C58.9494 25.3152 57.3029 26.3087 55.5671 27.1243C54.993 27.3502 54.56 26.6537 54.4471 25.6466C54.2861 24.5058 54.6297 23.3514 55.3883 22.4843C56.1318 21.7878 56.8847 21.1007 57.6659 20.4513C58.4274 19.7691 59.2569 19.1668 60.1412 18.6537C61.9302 17.5853 63.8221 16.6992 65.7883 16.009C66.9836 15.5949 68.16 15.0678 69.3836 14.569C69.9765 14.3055 70.6353 14.089 71.2659 13.8537C71.9427 13.6336 72.6347 13.4637 73.3365 13.3455C73.7506 13.289 74.1365 13.2137 74.5694 13.1949H75.36C75.645 13.1707 75.9315 13.1707 76.2165 13.1949C77.29 13.3277 78.2944 13.7953 79.0871 14.5313C79.2901 14.7015 79.4732 14.8941 79.633 15.1055C79.8136 15.3002 79.9715 15.515 80.1036 15.7455C80.2353 15.9807 80.4047 16.1972 80.5083 16.4231L80.8 17.0725C81.0772 17.8431 81.2697 18.6415 81.3741 19.4537C81.5717 21.2288 81.6063 23.0182 81.4777 24.7996C81.3459 27.3972 80.9318 29.9196 80.6965 32.4137C80.5271 34.3619 80.5083 36.2819 80.2918 38.1831C80.2165 38.5972 80.1694 39.0113 80.0659 39.4255C79.9531 39.9945 79.7152 40.5314 79.3694 40.9972C79.0699 41.3021 78.6808 41.5032 78.2588 41.5713C78.0572 41.623 77.853 41.6638 77.6471 41.6937C77.3014 41.7073 76.9762 41.5302 76.8 41.2325C76.4916 40.813 76.2883 40.3257 76.2071 39.8113C76.0377 38.936 75.8588 38.0325 75.7083 37.1478C75.5577 36.2631 75.5953 35.3878 75.5671 34.5031C75.5302 32.766 75.5931 31.0283 75.7553 29.2984C75.9843 26.8583 76.0378 24.405 75.9153 21.9572H75.9059Z" fill="black"/>
<path d="M64.7907 64.8456C64.1632 63.9985 63.5358 63.1608 62.9083 62.3326C62.6636 62.0314 62.3907 61.7679 62.1554 61.4667L59.7083 58.1914C59.3413 57.7114 58.946 57.2503 58.5601 56.7891C58.0191 56.2352 57.5681 55.6001 57.2236 54.9067C57.026 54.4644 58.3813 54.3044 58.9366 54.9067C59.8777 56.0267 60.9695 57.1467 61.8919 58.3985C62.5 59.1294 63.1538 59.821 63.8495 60.4691L66.0048 62.775L67.3224 64.215C68.0001 64.9208 68.6401 65.6926 69.2989 66.4173C69.826 66.9726 70.4472 67.4244 71.0024 67.9703C71.1248 68.0832 71.2566 68.1867 71.3695 68.3091C71.7836 68.8079 71.793 69.062 71.3695 69.5326C71.2848 69.6361 71.2001 69.7491 71.106 69.8432C70.7885 70.1452 70.3046 70.1881 69.9389 69.9467C68.7886 69.1937 67.7221 68.3197 66.7577 67.3397C66.0424 66.5961 65.4401 65.7208 64.753 64.9114L64.7907 64.8456Z" fill="black"/>
</svg>
