<svg width="96" height="96" viewBox="0 0 96 96" fill="none" xmlns="http://www.w3.org/2000/svg">
<path d="M37.5719 67.9972C37.4962 68.1787 37.4302 68.364 37.3742 68.5525C37.3742 68.7407 37.2801 68.9196 37.2237 69.1078C37.1243 69.4953 37.0738 69.8937 37.0731 70.2937C37.0528 70.5648 37.0718 70.8374 37.1295 71.1031C37.1996 71.3619 37.3396 71.5963 37.5342 71.7807C38.0208 72.1569 38.5684 72.4466 39.1531 72.6372C40.5207 73.164 41.9358 73.558 43.379 73.8137C44.9593 74.1032 46.5561 74.295 48.1601 74.3878C49.6095 74.4819 51.0778 74.3878 52.5366 74.3878L53.9578 74.3313C54.4284 74.3313 54.899 74.3313 55.3884 74.3972C56.3805 74.4783 57.358 74.6871 58.2966 75.0184C58.9084 75.2631 58.6825 75.7243 58.1272 76.2231C57.4444 76.8901 56.6117 77.3839 55.699 77.6631L54.3437 77.9549C53.8919 78.049 53.4025 78.0678 52.9601 78.1337C52.019 78.2278 51.0778 78.3313 50.1366 78.3972C48.1749 78.5583 46.2024 78.5362 44.2448 78.3313C41.8448 78.0396 39.2378 78.1525 36.4895 76.976C35.6937 76.6293 34.9519 76.1697 34.2872 75.6113C33.56 74.9765 32.9679 74.2019 32.546 73.3337C32.1836 72.5059 31.9732 71.6196 31.9248 70.7172C31.8651 69.9065 31.8998 69.0916 32.0284 68.289C32.4195 66.4185 33.2593 64.6711 34.4754 63.1972C36.1769 61.2685 38.1081 59.5554 40.226 58.096C41.7601 56.9478 43.1531 55.6584 44.6025 54.5572C44.9413 54.3313 45.2331 54.0866 45.5437 53.8796C46.786 53.1454 47.2284 53.1925 48.1601 53.7949C48.3672 53.936 48.6025 54.049 48.8001 54.1902C49.4872 54.6325 49.4025 55.7054 48.6119 56.7031C48.0378 57.4372 47.4542 58.1149 46.8519 58.7549C46.2495 59.3949 45.5625 59.856 44.9225 60.3737C43.6331 61.409 42.3531 62.3784 41.1578 63.3854C39.4919 64.9007 38.0801 66.5196 37.6095 68.0349L37.5719 67.9972Z" fill="black"/>
<path d="M60.763 46.8675C55.6806 52.5146 49.8641 56.5052 44.2265 60.4299C42.1747 61.851 40.2265 63.3852 38.2594 64.7969C36.5967 65.9614 35.0179 67.2415 33.5347 68.6275C33.3559 68.7969 33.1959 68.9569 33.0453 69.1169L32.8006 69.371C32.6782 69.5054 32.568 69.6502 32.4712 69.804C32.2444 70.1329 32.1984 70.5539 32.3488 70.924C32.6368 71.2021 32.9945 71.3972 33.3841 71.4887L33.8641 71.6299L34.6171 71.8087C35.1253 71.931 35.643 72.044 36.1606 72.1475C38.25 72.571 40.3865 72.891 42.5418 73.1734C44.4241 73.3899 46.3724 73.6252 48.2924 73.804C50.2124 73.9828 52.1512 74.1052 54.0712 74.2087C56.5277 74.3499 58.9936 74.3969 61.4594 74.4063C63.9253 74.4158 66.3912 74.4628 68.763 74.3028C70.1465 74.1616 70.2406 74.7358 69.0265 75.6581C67.043 76.9217 64.7819 77.684 62.4383 77.8793C57.2806 78.3122 52.1512 78.7075 46.9747 78.6887C44.3679 78.6969 41.7638 78.5208 39.1818 78.1616C37.883 78.0016 36.5841 77.804 35.2665 77.5593C34.5983 77.4369 33.9488 77.3146 33.2712 77.1546L32.1983 76.891C31.6461 76.7648 31.1023 76.6045 30.57 76.411C29.3853 76.0907 28.3172 75.4375 27.4924 74.5287C27.2816 74.3137 27.0982 74.0735 26.9465 73.8134C26.8189 73.5383 26.7088 73.2554 26.6171 72.9663C26.4402 72.3868 26.3514 71.784 26.3536 71.1781C26.4042 69.9221 26.7769 68.7003 27.4359 67.6299L27.963 66.811L28.5559 66.0205C28.763 65.7475 28.8947 65.6158 29.0453 65.4275C29.1959 65.2393 29.3465 65.0981 29.4971 64.9287C31.8138 62.5865 34.3334 60.4543 37.0265 58.5569C42.6736 54.491 48.3206 50.7546 53.083 46.1805C55.963 43.3569 58.5041 40.204 59.5771 36.7028C60.3898 34.0952 60.2225 31.2805 59.1065 28.7875C58.2407 26.434 55.966 24.8985 53.4594 24.9758C51.3432 25.0627 49.2782 25.6532 47.4359 26.6981C45.5132 27.7762 43.7115 29.0572 42.0618 30.5193C41.3088 31.1405 40.6406 31.8275 39.9253 32.4958C37.2994 34.9993 36.4618 35.7146 34.6171 35.5358C34.2244 35.5402 33.8317 35.5245 33.4406 35.4887C32.8477 35.3663 32.5653 34.8581 32.5465 33.8887C32.6301 32.58 33.0659 31.3183 33.8077 30.2369C35.1115 28.1023 36.673 26.1361 38.4571 24.3828C40.4078 22.6259 42.5896 21.1439 44.9418 19.9781C46.2104 19.3483 47.5375 18.844 48.9041 18.4722C49.6349 18.2705 50.3765 18.1103 51.1253 17.9922C51.9281 17.9004 52.7364 17.8658 53.5441 17.8887C55.3271 17.9293 57.0852 18.316 58.7206 19.0275C60.4507 19.7862 61.9763 20.9441 63.1724 22.4063C64.7205 24.3053 65.7977 26.5435 66.3159 28.9381C66.8437 31.2071 66.9173 33.5582 66.5324 35.8558C66.139 38.0229 65.3952 40.1114 64.33 42.0393C63.3542 43.7971 62.1999 45.4498 60.8853 46.971L60.763 46.8675Z" fill="black"/>
</svg>
