<svg width="96" height="96" viewBox="0 0 96 96" fill="none" xmlns="http://www.w3.org/2000/svg">
<path d="M36.485 63.0398C38.7157 63.8938 41.0896 64.3124 43.4779 64.2727C46.093 64.2471 48.6971 63.9315 51.2426 63.3316C53.125 62.8892 55.0073 62.2116 56.8897 61.5904C60.1273 60.5551 63.7226 59.0586 67.6379 58.268C69.6523 57.8321 71.7178 57.6801 73.7744 57.8163C75.8925 57.9972 77.9452 58.6397 79.7885 59.6986C81.4462 60.6256 82.8919 61.8887 84.0332 63.4068C85.1551 64.8895 85.9244 66.6083 86.2826 68.4327C87.2026 72.9677 85.8417 77.6657 82.6403 81.0069C81.6991 81.9951 81.4167 81.4398 81.5579 80.2069C81.652 79.6045 81.7367 78.7763 81.8873 77.8916C81.8873 77.4304 82.0097 76.9504 82.0755 76.4798C82.1414 76.0092 82.2355 75.5386 82.3014 74.9833C82.6271 73.2732 82.6271 71.517 82.3014 69.8068C81.984 68.2778 81.2171 66.8784 80.0991 65.788C78.9585 64.7267 77.5435 64.0062 76.0144 63.708C75.6271 63.6115 75.2342 63.5392 74.8379 63.4916C74.4332 63.4916 74.0379 63.4068 73.6144 63.3692C72.7439 63.2933 71.8684 63.2933 70.9979 63.3692C68.6281 63.6265 66.3148 64.262 64.1461 65.2516C62.9885 65.7316 61.7838 66.2586 60.4944 66.7574C59.205 67.2563 57.9532 67.6986 56.645 68.1127C53.7616 69.0046 50.8085 69.6531 47.8167 70.0516C44.7291 70.4778 41.5953 70.4429 38.5179 69.948C34.5484 69.3481 30.8746 67.4947 28.0332 64.6586C23.9426 60.3317 21.8385 54.4969 22.2261 48.5551C22.3296 46.3749 22.5875 44.2047 22.9979 42.061C23.4182 39.9427 24.0003 37.8597 24.7391 35.8304C25.0395 34.9394 25.4175 34.0765 25.8685 33.2516C27.6473 30.2116 28.692 29.5339 30.0097 29.4869C30.307 29.4588 30.6064 29.4588 30.9038 29.4869C31.7979 29.6657 31.6755 31.1998 31.045 33.5339C30.7908 34.3904 30.5838 35.2657 30.3673 36.1316C30.1508 36.9974 29.8497 37.8069 29.652 38.6539C29.1822 40.2986 28.7989 41.9668 28.5038 43.6516C28.2409 45.2793 28.1056 46.9251 28.0991 48.5739C28.1321 50.1288 28.3181 51.6766 28.6544 53.1951C28.7391 53.7504 28.9744 54.2586 29.1061 54.8045C29.2379 55.3504 29.5297 55.821 29.7179 56.348C29.9061 56.8751 30.2544 57.2892 30.5085 57.8257C30.7626 58.3621 31.1391 58.701 31.4497 59.1621C32.7565 60.8695 34.5179 62.1743 36.532 62.9269L36.485 63.0398Z" fill="black"/>
<path d="M23.5246 18.3146C25.8963 16.4322 29.2375 13.8817 33.7269 14.1358C35.2876 14.2272 36.7983 14.72 38.1128 15.5664C39.9923 16.9353 41.5343 18.7155 42.621 20.7711C43.6104 22.5809 44.4478 24.4697 45.1246 26.4181C45.7646 28.0652 46.4798 29.6652 47.1951 31.2087C48.1363 33.1758 48.974 35.1617 49.7175 37.1005C49.9434 37.7028 49.3881 38.0417 48.4281 38.0417C47.1816 37.9268 46.036 37.3081 45.2563 36.3287C44.8987 35.8393 44.5599 35.3499 44.2399 34.8605L43.7504 34.1264L43.3457 33.364C42.8187 32.3569 42.3199 31.3499 41.8399 30.3522C40.8987 28.3475 39.9575 26.3899 39.1669 24.4605C38.3428 22.3393 36.7687 20.5945 34.7434 19.5569C33.8183 19.1431 32.7735 19.0828 31.8069 19.3875C30.5819 19.7717 29.4278 20.3535 28.3904 21.1099C26.9131 22.1414 25.5162 23.2835 24.2116 24.5264C22.168 26.4082 20.3028 28.4751 18.6399 30.7005C17.4428 32.4664 16.3794 34.3194 15.4587 36.244C15.2328 36.6581 15.054 37.0817 14.8093 37.4864C14.6317 37.8165 14.4271 38.1313 14.1975 38.4275C14.013 38.6253 13.7967 38.7907 13.5575 38.9169C13.0959 39.1235 12.577 39.1634 12.0893 39.0299C11.8196 38.9929 11.5524 38.9395 11.2893 38.8699C10.4799 38.6158 10.1693 37.5993 10.461 36.1969C10.7713 35.1732 11.1389 34.1676 11.5622 33.1852C12.0004 32.2199 12.4873 31.2775 13.021 30.3617C14.1086 28.5281 15.3324 26.7788 16.6822 25.1287C18.7219 22.6034 20.9938 20.2748 23.4681 18.1734L23.5246 18.3146Z" fill="black"/>
</svg>
