<svg width="96" height="96" viewBox="0 0 96 96" fill="none" xmlns="http://www.w3.org/2000/svg">
<path d="M80.8848 32.0199C80.0565 33.6293 79.1812 34.7399 77.9106 34.4104C77.1765 34.2034 76.4142 34.6081 75.6612 34.6928L68.0565 35.5304L64.2918 35.9446L60.4706 36.1422C58.2777 36.2646 56.0942 36.5563 53.8824 36.754C50.193 37.0928 46.4942 37.4693 42.7859 37.6952C40.9036 37.8269 39.0212 37.6387 37.0824 37.761L34.2589 37.9587L31.4353 38.1093C29.553 38.2128 27.6236 38.2975 25.713 38.3352C23.8024 38.3728 21.7977 38.0716 19.8495 37.9681C19.1217 37.9998 18.396 38.0689 17.6753 38.1752C17.3522 38.2291 17.0228 38.124 16.7906 37.8928C16.0189 37.0552 15.7742 34.5422 16.2259 32.2457C16.5836 30.4763 17.0353 29.2716 17.6942 29.2528C19.2377 29.2528 20.7812 29.1963 22.3342 29.1304L26.9836 29.0175C28.2448 29.0175 29.4965 28.641 30.7483 28.6034C32.7153 28.5563 34.7012 28.6787 36.6777 28.754C39.5859 28.8293 42.4942 28.9422 45.4024 28.8763C48.7342 28.8104 52.0565 28.5752 55.3883 28.4246C56.4424 28.3775 57.4965 28.3493 58.5412 28.3304L63.4918 28.2363C65.1389 28.2363 66.7953 28.3775 68.4518 28.434C71.8965 28.5752 75.3318 28.7069 78.8048 28.9328C79.0653 28.9427 79.324 28.9806 79.5765 29.0457C80.5083 29.3563 80.6589 29.6763 80.8848 32.0199Z" fill="black"/>
<path d="M70.7674 63.9924C70.165 65.3477 69.3838 66.3265 68.3203 66.0442C67.6833 66.014 67.046 66.0969 66.4379 66.2889C62.2027 66.703 57.9674 66.9759 53.7791 67.2301C52.8379 67.3054 51.9721 67.3995 51.0591 67.5124C50.1462 67.6254 49.2521 67.6348 48.3485 67.663C45.2897 67.7854 42.2403 67.9265 39.1815 67.9548C37.6191 67.9548 36.0568 67.7006 34.4756 67.7101C32.8944 67.7195 31.3509 67.7571 29.7697 67.7948H27.4168C26.6366 67.8512 25.8534 67.8512 25.0732 67.7948C23.4732 67.6065 21.8921 67.183 20.2921 66.9477C19.7085 66.863 19.1156 66.9477 18.5227 66.9477C18.2519 66.9666 17.9877 66.8588 17.8074 66.6559C17.205 65.9312 17.0544 63.9548 17.4874 62.1383C17.8168 60.7454 18.2215 59.7665 18.7768 59.7477C21.3368 59.6818 23.9062 59.4842 26.4662 59.4183C27.5015 59.4183 28.5462 59.2018 29.5815 59.2489C31.2097 59.3054 32.8285 59.5312 34.4568 59.6442C36.8379 59.8136 39.2191 60.0112 41.6097 60.0583C44.3485 60.1148 47.0779 60.0112 49.8168 59.983C50.2497 59.983 50.6827 59.983 51.1156 59.983L52.405 60.0865L60.4991 60.8018C63.3226 61.0183 66.1462 61.2065 68.8756 61.3759C69.0825 61.3757 69.2884 61.4042 69.4874 61.4606C70.3344 61.7712 70.4662 62.0348 70.7674 63.9924Z" fill="black"/>
</svg>
