<svg width="96" height="96" viewBox="0 0 96 96" fill="none" xmlns="http://www.w3.org/2000/svg">
<path d="M79.3513 24.4886C79.3513 24.4415 79.4924 24.4321 79.5866 24.3757C79.6807 24.3192 79.8219 24.2439 79.7842 24.178C79.7466 24.1121 79.6713 23.9239 79.4924 23.8015C79.417 23.7581 79.3339 23.7293 79.2477 23.7168H79.1818H79.0595C78.89 23.6703 78.7234 23.6137 78.5607 23.5474C76.2058 22.6424 73.7905 21.9033 71.3324 21.3357C70.2339 21.1086 69.1204 20.9607 68.0007 20.8933C66.5749 20.8582 65.1562 20.6817 63.7654 20.3662C63.3324 20.2251 63.3607 19.5004 63.7654 18.738C64.1413 17.8849 64.8987 17.2601 65.8077 17.0533C68.8964 16.729 72.0184 17.112 74.9371 18.1733C75.8298 18.4683 76.7417 18.701 77.6666 18.8698L79.0689 19.171L79.7654 19.331C80.0289 19.3968 80.1513 19.4439 80.5842 19.5474C81.3824 19.7691 82.1652 20.0426 82.9277 20.3662C83.601 20.6286 84.2345 20.9834 84.8101 21.4204C85.2748 21.7906 85.6591 22.2518 85.9395 22.7757C86.0894 23.0652 86.1359 23.3973 86.0713 23.7168C85.9771 23.9804 85.8266 24.2157 85.7136 24.4604C85.5822 24.7052 85.4209 24.9328 85.2336 25.138L84.9607 25.4862C84.8762 25.6213 84.7639 25.7368 84.6313 25.8251C84.2077 26.2674 83.7654 26.6721 83.3607 27.1145C82.956 27.5568 82.523 28.0557 82.2877 28.2533C80.9217 29.5266 79.6272 30.8746 78.4101 32.291C77.5454 33.4429 76.7472 34.6433 76.0195 35.8862C75.8481 36.1441 75.6627 36.3923 75.4642 36.6298C74.683 37.4957 74.156 37.5239 73.1207 36.9968C72.8854 36.8839 72.6407 36.7804 72.4242 36.6486C71.6889 36.1676 71.3842 35.2417 71.6901 34.418C71.8947 33.7382 72.1334 33.0691 72.4054 32.4133C72.7348 31.8204 73.1018 31.2462 73.4877 30.6815C74.2902 29.5679 75.1576 28.5025 76.0854 27.491C76.7724 26.7286 77.4971 25.9945 78.2218 25.2698L78.7771 24.7239L78.9183 24.6015L78.9936 24.5357V24.5357C79.0467 24.5278 79.1006 24.5278 79.1536 24.5357L79.3513 24.4886Z" fill="black"/>
<path d="M36.3488 60.3855C36.0104 61.8647 35.8337 63.3763 35.8218 64.8937C35.8169 65.5102 35.896 66.1245 36.057 66.7196C36.094 66.8246 36.1254 66.9314 36.1512 67.0396C36.1869 67.102 36.2153 67.1684 36.2359 67.2373C36.3112 67.3878 36.5088 67.5855 36.6312 67.7831C37.4308 68.5165 38.494 68.8936 39.577 68.8278C41.0302 68.7622 42.4536 68.3935 43.7559 67.7455C44.7519 67.2727 45.6618 66.6365 46.4476 65.8631C46.7919 65.5233 47.1068 65.155 47.3888 64.762C47.6899 64.3464 47.9544 63.9055 48.1794 63.4443C48.5603 62.7459 48.779 61.9706 48.8194 61.1761C48.827 60.5015 48.6192 59.8422 48.2265 59.2937C47.7248 58.6107 47.0831 58.0427 46.3441 57.6278C45.5163 57.1648 44.6155 56.8464 43.6806 56.6867C41.608 56.3524 39.4883 56.4582 37.4594 56.9973C35.2893 57.5458 33.1893 58.3416 31.2006 59.369C27.5855 61.2352 24.2626 63.6196 21.337 66.4467C19.4272 68.186 17.6585 70.0743 16.0476 72.0937C14.3262 74.0382 12.8093 76.1544 11.5206 78.409C10.7959 79.8208 10.4288 79.5573 10.3535 77.9855C10.3675 75.3904 11.0411 72.8415 12.3112 70.5784C13.8675 68.1399 15.6681 65.8662 17.6853 63.7925C19.7242 61.7481 21.9522 59.9015 24.3394 58.2773C26.7372 56.5972 29.3127 55.1863 32.0194 54.0702C34.8307 52.8646 37.8384 52.1821 40.8947 52.0561C44.6594 51.9714 48.9794 52.9973 51.897 56.4702C52.6412 57.4005 53.1627 58.4886 53.4217 59.6514C53.6568 60.7939 53.6568 61.9724 53.4217 63.1149C53.0935 64.6505 52.4772 66.11 51.6053 67.4161C51.3192 67.8564 51.0048 68.2777 50.6641 68.6773C49.1899 70.2662 47.4142 71.546 45.4406 72.442C43.4506 73.3793 41.2779 73.8646 39.0782 73.8631C37.8849 73.8481 36.7032 73.6252 35.5865 73.2043C35.0063 72.9715 34.4538 72.6748 33.9394 72.3196L33.1865 71.7549C32.9512 71.5478 32.7441 71.3125 32.5276 71.0867C32.3042 70.8623 32.0996 70.6199 31.9159 70.362C31.7276 70.0702 31.5394 69.7784 31.3794 69.4961C31.1077 68.9486 30.8932 68.3746 30.7394 67.7831C30.4488 66.7212 30.2908 65.6274 30.2688 64.5267C30.2518 62.0386 30.6168 59.5627 31.3512 57.1855C32.042 54.8731 32.9528 52.6323 34.0712 50.4937C37.4722 44.1375 42.3055 38.6597 48.1888 34.4937C50.4189 32.8953 52.7379 31.4247 55.1347 30.089C57.5557 28.7771 60.0727 27.6507 62.6641 26.7196C63.7935 26.2678 64.9229 25.9196 66.09 25.562C67.6019 25.0464 69.2038 24.8478 70.7959 24.9784C71.259 25.0355 71.7101 25.1657 72.1323 25.3643C72.4787 25.5827 72.7951 25.8453 73.0735 26.1455C73.3276 26.3996 73.6382 26.6161 73.7982 26.8231C74.2876 27.4255 72.7253 28.9973 69.8453 30.0325C65.4983 31.3932 61.2834 33.1446 57.2523 35.2655C55.2753 36.3564 53.3645 37.5632 51.53 38.8796C49.6966 40.227 47.9605 41.702 46.3347 43.2937C43.9527 45.672 41.8756 48.3371 40.1512 51.2278C38.4391 54.0601 37.2023 57.1536 36.49 60.3855H36.3488Z" fill="black"/>
</svg>
