<svg width="96" height="96" viewBox="0 0 96 96" fill="none" xmlns="http://www.w3.org/2000/svg">
<path d="M62.7729 79.3135C62.6444 79.546 62.4827 79.7584 62.2929 79.9441C62.0961 80.1366 61.8624 80.2871 61.6058 80.3865C61.3768 80.4742 61.1354 80.5251 60.8905 80.5371C60.627 80.5371 60.3634 80.5371 60.1093 80.5371C59.7046 80.4147 59.3093 80.3018 58.9046 80.1606L57.6811 79.5677C57.2858 79.3982 56.8528 79.1065 56.5423 78.9371C56.2317 78.7677 56.0905 78.6641 55.874 78.5135C55.2999 78.1465 54.6976 77.8453 54.1611 77.4312C53.6246 77.0171 53.2199 76.7065 52.7776 76.3112L51.507 75.0688C51.1023 74.6265 50.6881 74.203 50.3023 73.7606C49.9164 73.3182 49.5117 72.8853 49.1446 72.4241C48.467 71.6335 47.7987 70.8335 47.1964 69.9771C46.3573 68.8821 45.8275 67.5819 45.6623 66.2124C45.6058 65.7982 45.8976 65.7982 46.3211 66.0147C46.8542 66.3172 47.3266 66.7162 47.714 67.1912C49.0228 69.264 50.6344 71.1294 52.4952 72.7253C53.0739 73.2412 53.7048 73.6954 54.3776 74.0806C54.7164 74.2782 55.0364 74.4947 55.3658 74.7018L56.307 75.3135C56.8623 75.6524 57.5023 76.0382 57.9823 76.3112C58.2267 76.4775 58.4813 76.6284 58.7446 76.763C58.9031 76.863 59.0785 76.9332 59.2623 76.97C59.3918 77.0095 59.5301 76.9444 59.5823 76.8194C59.6248 76.7073 59.6532 76.5903 59.667 76.4712C59.6754 76.2095 59.6564 75.9477 59.6105 75.69C59.6105 75.4359 59.347 74.4665 59.1399 73.7041C58.9328 72.9418 58.6787 72.123 58.4152 71.3418C57.9113 70.136 57.4715 68.9045 57.0976 67.6524C57.0044 67.3662 56.9321 67.0737 56.8811 66.7771C56.7923 66.3487 56.8556 65.9027 57.0599 65.5159C57.2269 65.2316 57.508 65.0327 57.8317 64.97C57.9883 64.9171 58.1488 64.8762 58.3117 64.8477C58.8481 64.8477 59.2528 65.1959 59.6481 65.7888C60.147 66.73 60.5893 67.6712 61.1352 68.6971C61.6811 69.723 61.8881 70.8618 62.2458 72.01L62.6034 73.3182L62.7729 73.9959L62.9799 74.9371C63.3752 76.6594 63.4411 78.3159 62.8387 79.3512L62.7729 79.3135Z" fill="black"/>
<path d="M22.8198 37.9775C24.078 39.5954 25.426 41.1413 26.8575 42.6081L29.0598 44.8387L29.8504 45.6293C30.1785 45.9438 30.4661 46.2979 30.7069 46.6834C30.9293 46.9971 31.0112 47.3893 30.9328 47.7658L30.4151 48.8011L29.5963 49.6293L29.0786 50.1846C28.7869 50.4858 28.5045 50.7964 28.2222 51.1258C27.0269 52.4717 25.9633 53.9493 24.8998 55.3987C23.0139 57.9715 21.3633 60.7089 19.9681 63.5775C19.6198 64.2928 19.2998 65.0175 19.0269 65.7517C18.7539 66.4858 18.5939 66.8622 18.4904 67.2105C18.3547 67.5574 18.3125 67.9339 18.3681 68.3022C18.4528 68.5187 18.6881 68.4246 18.8198 68.3022L19.2622 67.9917L22.0857 65.9964C23.2998 65.1681 24.5328 64.3681 25.7845 63.6152C27.4059 62.6367 29.0948 61.7749 30.8386 61.0364L32.1845 60.5281C32.6363 60.3681 33.1257 60.2458 33.5586 60.114C34.0236 59.9724 34.5039 59.8871 34.9892 59.8599C35.4698 59.7983 35.9541 59.77 36.4386 59.7752C37.6433 59.7752 37.4645 60.0199 36.5798 60.5752C36.3633 60.7258 36.0998 60.8764 35.8081 61.074L34.8669 61.7611C34.0836 62.2579 33.2658 62.6983 32.4198 63.0787C30.7741 63.8347 29.1772 64.6928 27.6386 65.6481C26.0575 66.6018 24.5045 67.5964 22.9798 68.6317C22.1328 69.2058 21.7563 69.4787 19.9681 70.8058C19.601 71.0693 19.2433 71.2669 18.8857 71.5022L18.6128 71.6811C18.545 71.7378 18.4641 71.7767 18.3775 71.794L17.9445 71.8975C17.7028 71.9515 17.4521 71.9515 17.2104 71.8975C16.9528 71.8735 16.7029 71.7966 16.4763 71.6717C15.9851 71.3601 15.6446 70.8594 15.5351 70.2881C15.465 69.9796 15.4366 69.663 15.4504 69.3469C15.4504 69.1587 15.4504 68.9987 15.4504 68.8011L15.5445 68.2175C15.6907 67.4267 15.9016 66.6491 16.1751 65.8928C16.3069 65.4787 16.3822 65.3375 16.4763 65.0834C16.5704 64.8293 16.6739 64.6222 16.7681 64.3964C18.6987 60.025 21.1273 55.891 24.0057 52.0764C24.6457 51.2669 25.2951 50.4669 25.9728 49.6952C26.3116 49.3093 26.6504 48.914 26.9986 48.5469L27.5069 48.0011L27.7045 47.8128L27.8739 47.6528L27.9492 47.5775C27.9492 47.5775 27.9492 47.5117 27.9492 47.4834C27.9492 47.4552 27.7516 47.2575 27.6481 47.1446L26.1798 45.6858C25.0692 44.5846 23.9681 43.4458 22.9139 42.2693C20.718 39.8933 18.8216 37.2572 17.2669 34.4199C16.6723 33.3202 16.1747 32.1707 15.7798 30.9846C15.6763 30.6834 15.601 30.3728 15.5163 30.0434C15.4164 29.64 15.3379 29.2316 15.281 28.8199C15.225 28.4081 15.1967 27.9931 15.1963 27.5775C15.2054 27.1916 15.2495 26.8073 15.3281 26.4293C15.3942 25.7431 15.7334 25.1124 16.2692 24.6787C16.9408 24.6902 17.5947 24.8961 18.1516 25.2717C18.8292 25.6764 19.5257 26.2128 20.2128 26.7022L21.6528 27.7375C24.5544 29.8109 27.6955 31.5269 31.0081 32.8481C31.7233 33.1211 32.4292 33.3375 33.1539 33.5634C34.4904 33.9775 35.3751 34.1469 35.9775 34.3822C36.4655 34.556 36.9091 34.8356 37.2763 35.2011C37.4312 35.3241 37.576 35.4595 37.7092 35.6058C37.8692 35.8222 37.6528 36.0481 37.0692 36.2834C36.2001 36.6015 35.2677 36.708 34.3492 36.594C32.5821 36.4149 30.8437 36.0198 29.1728 35.4175C27.4867 34.8265 25.858 34.0831 24.3069 33.1964C22.7822 32.3117 21.3045 31.314 19.8739 30.3728L18.8104 29.6199L18.3304 29.2717V29.2717V29.2717V29.2717V29.394C18.3963 29.6575 18.4622 29.9211 18.5469 30.194C18.7169 30.7402 18.9148 31.2774 19.1398 31.8034C20.1283 34.0096 21.3933 36.0812 22.9045 37.9681L22.8198 37.9775Z" fill="black"/>
<path d="M60.7675 18.7591C60.8032 18.6966 60.8316 18.6303 60.8522 18.5614C60.8824 18.506 60.9015 18.4453 60.9087 18.3826C60.9372 18.3331 60.9372 18.2721 60.9087 18.2226C60.8322 18.1774 60.7421 18.1607 60.6545 18.1755C60.5366 18.1865 60.42 18.2086 60.3063 18.2414H60.2122L59.8075 18.4391L58.9416 18.8908C58.0004 19.4085 57.0592 20.0767 56.1181 20.6602C52.7487 22.7335 49.5957 25.1392 46.7063 27.8414C45.4383 29.0517 44.2793 30.3713 43.2428 31.7849C41.8781 33.5449 40.7298 35.4273 39.4781 37.2344C39.0828 37.7991 38.5369 37.4791 38.1887 36.632C37.7642 35.4868 37.8288 34.2175 38.3675 33.1214C38.9304 32.015 39.5589 30.9433 40.2498 29.912C40.9599 28.9219 41.7332 27.9787 42.5651 27.0885C44.1913 25.2766 45.9878 23.6251 47.9298 22.1567C50.2545 20.4061 52.4569 18.3449 54.9322 16.6697C55.6192 16.2085 56.3157 15.7285 57.031 15.3426C57.3887 15.1355 57.7463 14.9285 58.1228 14.7308C58.6781 14.4297 59.2522 14.1191 59.8263 13.8744C60.8343 13.3965 61.9392 13.1582 63.0545 13.1779C63.5529 13.1913 64.034 13.3627 64.4287 13.6673C64.613 13.8308 64.7414 14.0481 64.7957 14.2885L65.0498 14.9661C65.1132 15.1136 65.1575 15.2686 65.1816 15.4273V16.3685C65.2231 16.6966 65.2231 17.0286 65.1816 17.3567C65.0592 18.0249 65.0028 18.6932 64.8239 19.3614C64.6451 20.0297 64.5039 20.4249 64.3439 20.9144L63.8545 22.2508C62.7722 25.0744 61.4545 27.7473 60.5134 30.4861C59.8261 32.5448 59.4054 34.6829 59.2616 36.8485C59.2616 37.3002 59.2616 37.7897 59.2616 38.1944C59.2145 39.832 59.0828 40.2649 57.9345 40.792C57.6804 40.9049 57.4263 41.0555 57.1722 41.1497C56.3157 41.4697 55.4687 40.7449 55.1957 39.1544C54.9112 36.8681 55.0872 34.548 55.7134 32.3308C56.2784 30.1948 56.9987 28.103 57.8687 26.072C58.4961 24.6289 59.1016 23.1889 59.6851 21.752C59.9957 21.0367 60.1934 20.3497 60.4475 19.6532L60.5887 19.1544L60.6545 18.9002V18.9002V18.8344L60.7675 18.7591Z" fill="black"/>
<path d="M11.8832 27.2582C11.6899 26.3674 11.5889 25.4591 11.582 24.5476C11.5991 24.1725 11.6368 23.7986 11.695 23.4276C11.7797 23.0982 11.855 22.7688 11.9491 22.4393C12.1706 21.9438 12.4908 21.4986 12.8903 21.1311C13.1141 20.933 13.3819 20.7911 13.6714 20.717C13.8988 20.6556 14.1325 20.6209 14.3679 20.6135C14.8832 20.6025 15.3972 20.6691 15.8926 20.8111C16.569 21.0271 17.2192 21.3175 17.8314 21.677L18.4526 22.0817L19.0738 22.5335L20.3256 23.4746L21.5585 24.4158C21.7561 24.5758 21.9632 24.7264 22.1609 24.8958L22.4997 25.1782C25.4624 27.8228 28.6814 30.1654 32.1091 32.1711C33.6269 32.9908 35.2387 33.6229 36.9091 34.0535C38.9941 34.6515 41.136 35.03 43.2997 35.1829C43.9867 35.2299 43.9961 35.7382 43.4503 36.3876C42.6047 37.2883 41.446 37.8306 40.2126 37.9029C38.9221 37.9474 37.6303 37.8717 36.3538 37.677C35.1008 37.4241 33.8749 37.0523 32.6926 36.5664C30.3855 35.6274 28.2016 34.4106 26.1891 32.9429C25.0032 32.077 23.7609 31.2676 22.5185 30.4582L20.6361 29.2346L19.695 28.6041L19.4597 28.4252L19.3185 28.3123C18.9797 28.0111 18.5844 27.6535 18.1232 27.2864C17.8897 27.0791 17.6223 26.9135 17.3326 26.797C17.1444 26.7405 17.0879 26.9005 17.0503 27.0041C17.0008 27.1201 16.9752 27.2449 16.975 27.3711C16.9516 27.5555 16.9516 27.742 16.975 27.9264C17.02 28.35 17.1019 28.7688 17.2197 29.1782C17.2856 29.3946 17.3609 29.6205 17.4361 29.8558L17.662 30.4205L17.935 31.0699C19.0654 33.7242 20.4791 36.2486 22.1514 38.5993C23.4806 40.3252 25.024 41.8749 26.7444 43.2111L27.8832 44.0205C29.0503 45.2346 29.2385 45.7993 28.9279 46.9664C28.8526 47.2393 28.815 47.5123 28.7303 47.757C28.5776 48.1594 28.2159 48.4452 27.7891 48.5005C27.1459 48.5757 26.4944 48.4714 25.9067 48.1993C24.8047 47.7812 23.7899 47.162 22.9138 46.3735C22.0413 45.6436 21.2235 44.8509 20.4667 44.0017C18.9679 42.2936 17.6349 40.4468 16.4856 38.4864C15.6239 37.0317 14.8447 35.5297 14.1514 33.9876C13.9726 33.6017 13.8032 33.2158 13.6338 32.8205L13.3891 32.2558L13.0973 31.5217C12.5513 30.1308 12.1047 28.7029 11.7609 27.2488L11.8832 27.2582Z" fill="black"/>
<path d="M57.5202 70.3548C56.3343 67.5312 55.2143 64.7924 54.1225 61.7147C53.8923 61.0766 53.6975 60.4262 53.539 59.7665C53.3673 59.1526 53.2663 58.521 53.2378 57.8842C53.2043 57.3184 53.2712 56.7513 53.4355 56.2089C53.5081 55.9521 53.6191 55.7077 53.7649 55.4842C53.7649 55.4842 53.7649 55.3618 53.8966 55.3336C53.9286 55.2684 53.9698 55.2081 54.019 55.1547C54.1068 55.057 54.2046 54.9686 54.3108 54.8912C55.296 54.2568 56.4671 53.9749 57.6331 54.0912C58.2825 54.0912 58.9978 54.0912 59.6002 54.1665L60.8613 54.2512C63.0261 54.4018 65.1437 54.383 67.2331 54.383C69.6057 54.4217 71.9755 54.204 74.3013 53.7336C74.8566 53.6112 75.4119 53.4606 75.9484 53.2912L76.739 53.0089L77.3037 52.7736C77.7718 52.5769 78.2018 52.2998 78.5743 51.9547C78.7958 51.7686 78.9836 51.5458 79.1296 51.2959C79.1296 51.1453 78.9508 51.1077 78.8378 51.0606C78.7156 51.015 78.5897 50.9804 78.4613 50.9571C78.2072 50.8912 77.9343 50.8442 77.6519 50.7971L76.6543 50.6371C73.2566 50.1571 69.7837 49.6959 66.3955 48.8677C64.2018 48.3048 62.0703 47.5229 60.0331 46.5336C57.9626 45.5316 56.1056 44.1381 54.5649 42.43C53.6237 41.31 54.1978 41.15 55.3931 41.4889C56.5884 41.8277 58.5555 42.5053 60.7013 43.3712C62.5427 44.1047 64.4492 44.6624 66.3955 45.0371C68.3625 45.4418 70.339 45.8842 72.3719 46.1759C73.3884 46.3359 74.4049 46.4677 75.4402 46.6089L77.0025 46.8065L78.2731 46.9571C78.7813 46.9571 79.2896 47.0606 79.7884 47.1265C80.7179 47.223 81.6354 47.4122 82.5272 47.6912C83.1345 47.8988 83.6765 48.2623 84.099 48.7453C84.2777 48.9317 84.4269 49.1444 84.5413 49.3759C84.6987 49.663 84.7612 49.9924 84.7202 50.3171C84.6741 50.9693 84.4458 51.5954 84.0613 52.1242C83.7037 52.6136 83.2802 53.0653 82.8566 53.5642C82.0785 54.3365 81.2131 55.0156 80.2778 55.5877L79.5343 56.0206C79.4098 56.0971 79.2809 56.1662 79.1484 56.2277L78.8096 56.3971C78.4613 56.5571 78.1037 56.7077 77.7461 56.8489C76.3481 57.3924 74.9059 57.8143 73.4355 58.11C70.5992 58.6647 67.7135 58.9264 64.8237 58.8912C63.2708 58.8912 61.7366 58.8159 60.2213 58.75C59.779 58.75 59.6096 58.75 59.4966 58.75H59.0731H58.6308C58.499 58.75 58.2919 58.75 58.2261 58.8818C58.1617 59.1605 58.1617 59.4502 58.2261 59.7289L58.3296 60.1712L58.3861 60.3971L58.5366 60.8865C58.979 62.2606 59.4778 63.6442 60.0802 65.0183C61.4919 68.4065 63.0355 71.7759 64.5508 75.183C65.2566 76.8395 66.3484 79.0418 66.5084 80.5853C66.5404 80.9454 66.5404 81.3076 66.5084 81.6677C66.5165 82.0215 66.3766 82.3626 66.1225 82.6089C65.4255 83.0181 64.6239 83.2144 63.8166 83.1736C61.9304 83.0478 60.0908 82.5319 58.4143 81.6583C57.0759 81.0137 55.7834 80.2779 54.5461 79.4559C50.6652 77.0413 47.3081 73.873 44.6731 70.1383C44.0844 69.2806 43.5651 68.3774 43.1202 67.4371C42.5557 66.145 42.2887 64.7427 42.339 63.3336C42.3547 62.5809 42.6985 61.8727 43.2802 61.3947C43.4953 61.1788 43.7355 60.9892 43.9955 60.83C44.8331 60.4536 45.5672 61.7712 46.6025 63.8418C46.8284 64.2183 47.0166 64.5948 47.2425 64.9524L47.5908 65.4983C47.6849 65.6865 47.7978 65.8653 47.9108 66.0442C48.3395 66.7831 48.8109 67.4964 49.3225 68.1806C50.379 69.592 51.5603 70.9055 52.8519 72.1053C54.1683 73.3463 55.5849 74.4764 57.0872 75.4842C57.8402 75.9736 58.6119 76.4253 59.3931 76.8865C59.5908 76.9995 59.7884 77.0936 59.9861 77.1971L60.2684 77.3383V77.3383C60.2684 77.3383 60.3249 77.4042 60.3437 77.3383V77.3383V77.3383C60.3437 77.3383 60.3437 77.3383 60.3437 77.2536L60.1272 76.7453L59.1861 74.6842L57.3037 70.5242L57.5202 70.3548Z" fill="black"/>
<path d="M17.2573 67.6248C16.9826 67.93 16.7742 68.289 16.6455 68.6789C16.6455 68.773 16.589 68.933 16.6455 68.9801C16.702 69.0272 16.8526 68.9801 16.9937 68.886C17.0882 68.8285 17.1794 68.7656 17.2667 68.6977C17.3955 68.5742 17.5413 68.4696 17.6996 68.3872C17.6337 68.4813 18.942 67.6248 19.789 67.0977C20.6361 66.5707 21.6714 65.9401 22.6126 65.4036C24.4949 64.293 26.4808 63.3236 28.4479 62.3448C30.2267 61.526 31.9773 60.6319 33.8126 59.8883C34.4055 59.653 34.989 59.4177 35.6008 59.2295C36.2126 59.0413 36.8432 58.8813 37.4832 58.7213C38.1279 58.6062 38.7782 58.5245 39.4314 58.4766C39.5974 58.4625 39.7642 58.4625 39.9302 58.4766L40.4385 58.5989L41.4361 58.8719C42.2455 59.1354 42.0667 59.446 41.4361 60.086C41.1255 60.4154 40.702 60.8483 40.269 61.3189C39.8447 61.761 39.3128 62.0853 38.7255 62.2601C37.6808 62.6366 36.6455 63.0413 35.5914 63.5213C34.5373 64.0013 33.4643 64.4624 32.382 64.8766C30.2361 65.8177 28.0808 66.9472 25.8785 68.0295C25.229 68.3683 24.5702 68.7072 23.9208 69.093C23.2714 69.4789 22.6596 69.893 22.0385 70.3072L20.062 71.6907L16.9467 73.9589L15.8926 74.7213L15.5161 74.9566C15.4126 74.9566 15.309 75.0319 15.2055 75.0695L14.5937 75.3048C14.4064 75.3845 14.2147 75.4536 14.0196 75.5119L13.5585 75.5872C13.2867 75.6491 13.0089 75.6807 12.7302 75.6813C12.5499 75.677 12.373 75.6319 12.2126 75.5495C12.0168 75.4413 11.8541 75.2819 11.742 75.0883C11.3932 74.3961 11.2433 73.6207 11.309 72.8483C11.376 71.8462 11.5689 70.8564 11.8832 69.9024C12.1185 69.1872 12.382 68.453 12.6926 67.7283L13.5867 65.6672C14.0479 64.726 14.5279 63.7848 15.0267 62.8436C16.5551 60.0319 18.2393 57.3076 20.0714 54.6836L22.0949 51.5966C22.7403 50.5439 23.4539 49.5346 24.2314 48.5754C24.5796 48.1613 24.8996 47.7283 25.2855 47.333C25.762 46.7679 26.365 46.3229 27.0455 46.0342C27.5421 45.9201 28.0626 45.9764 28.5232 46.1942C28.7429 46.2656 28.9569 46.3537 29.1632 46.4577C29.4643 46.6366 29.5585 46.9754 29.549 47.4554C29.5439 48.069 29.3749 48.6701 29.0596 49.1966L27.4502 51.9636C26.9232 52.9048 26.2737 53.7236 25.6808 54.6083C24.4761 56.3683 23.262 58.1566 22.0855 59.973C21.1757 61.297 20.2941 62.646 19.4408 64.0201C19.0173 64.7072 18.6126 65.4036 18.2173 66.1001L17.6432 67.1636L17.389 67.6436V67.6436L17.2573 67.6248Z" fill="black"/>
</svg>
