<svg width="96" height="96" viewBox="0 0 96 96" fill="none" xmlns="http://www.w3.org/2000/svg">
<path d="M68.8243 53.0381C69.1044 51.021 69.1738 48.9802 69.0314 46.9487C68.9571 45.9599 68.8251 44.9763 68.6361 44.0029C68.4606 43.0093 68.2089 42.0307 67.8831 41.0758C67.7702 40.7307 67.6478 40.3825 67.5161 40.0311C67.3655 39.7017 67.1773 39.3817 67.0078 39.0899L66.509 38.1487C66.3396 37.8287 66.1231 37.537 65.9537 37.2076C64.698 34.9387 62.9638 32.97 60.8714 31.4381C58.6806 29.9471 56.1425 29.046 53.502 28.8217C52.9027 28.7465 52.2985 28.7182 51.6949 28.737L49.8126 28.8593C49.4945 28.8706 49.1787 28.9179 48.8714 29.0005L47.9302 29.1981C47.3373 29.3581 46.7161 29.4334 46.1326 29.6499L43.8831 30.4781C43.5047 30.6107 43.1367 30.7712 42.782 30.9581L41.6902 31.4852C40.1843 32.1064 38.7914 32.9723 37.2855 33.6781C36.3443 34.1111 36.0996 33.5652 36.4667 32.5205C36.7155 31.8503 37.0543 31.2171 37.4737 30.6381C37.9939 29.8418 38.6772 29.1649 39.4784 28.6523L41.8031 27.1746L44.3255 25.9605C45.1842 25.5573 46.0752 25.2268 46.989 24.9723L48.4949 24.5393C48.9561 24.4264 49.4361 24.3605 49.9255 24.2758C53.8699 23.5726 57.936 24.1809 61.502 26.0076C65.8137 28.15 69.4344 31.4641 71.949 35.5699L72.8902 37.2734L73.6526 39.0523L74.0196 39.9464L74.3114 40.8876L74.8667 42.7699C75.4286 45.2388 75.6815 47.768 75.6196 50.2993C75.5546 53.3582 75.1378 56.3994 74.3773 59.3629C73.1709 63.9014 70.914 68.0927 67.789 71.5981C65.3637 74.4113 62.2924 76.5944 58.8384 77.9605C58.4526 78.1017 58.0667 78.2146 57.6714 78.3181C57.2825 78.4447 56.8821 78.5329 56.4761 78.5817C55.4138 78.7987 54.316 78.7697 53.2667 78.497C52.6434 78.2422 52.1392 77.7615 51.8549 77.1511C51.6986 76.894 51.5663 76.623 51.4596 76.3417C51.2055 75.4758 52.3067 74.5817 54.0008 73.857C54.6408 73.6311 55.2337 73.2923 55.8361 73.0193L56.6926 72.5205C56.9749 72.3793 57.2573 72.2381 57.5302 72.0781C58.6106 71.5116 59.6267 70.83 60.5608 70.0452C62.4548 68.4823 64.0247 66.5639 65.182 64.3981C66.0729 62.6709 66.8038 60.8657 67.3655 59.0052C67.9852 57.0769 68.4046 55.09 68.6173 53.0758L68.8243 53.0381Z" fill="black"/>
<path d="M70.2169 57.2819C72.1301 50.3298 71.9368 42.9663 69.6616 36.1242C69.4357 35.503 69.1722 34.9007 68.9181 34.2983L68.5228 33.3572L68.0522 32.5007C67.7322 31.936 67.4498 31.343 67.111 30.7877C66.7722 30.2325 66.4051 29.7054 66.0757 29.1501C65.7962 28.6636 65.4816 28.198 65.1345 27.7572C64.7863 27.3148 64.4569 26.816 64.0898 26.4113L62.9133 25.1877L62.3298 24.576L61.671 24.0395L60.3628 22.9666C59.9016 22.656 59.4216 22.3736 58.9322 22.0725C57.9469 21.4667 56.9146 20.941 55.8451 20.5007C55.3122 20.2583 54.7616 20.0569 54.1981 19.8983L52.5133 19.3525L50.791 19.0042C50.2154 18.8698 49.63 18.7817 49.0404 18.7407L47.2616 18.5901C46.6692 18.5525 46.0751 18.5525 45.4828 18.5901C44.8826 18.5821 44.2825 18.6072 43.6851 18.6654L41.8969 18.9007C37.5927 19.6125 33.5115 21.3101 29.9722 23.8607C27.7145 25.4953 25.613 27.3353 23.6945 29.3572C21.7223 31.3665 19.9156 33.532 18.2922 35.8325C17.2475 37.263 16.8333 36.8301 16.9651 35.136C17.0472 33.9778 17.2814 32.8354 17.6616 31.7383C17.9007 31.0032 18.1772 30.2807 18.4898 29.5736C18.8845 28.8127 19.3213 28.0743 19.7981 27.3619C20.7139 26.0481 21.7574 24.828 22.9133 23.7195L24.6545 22.063C25.2286 21.4983 25.8969 21.0466 26.5369 20.5289C27.7818 19.5314 29.0861 18.6105 30.4428 17.7713C31.1486 17.376 31.8733 17.0089 32.5981 16.623C32.9651 16.4442 33.3133 16.2372 33.6898 16.0772L34.8286 15.6066C40.9824 12.9594 47.8477 12.4588 54.3204 14.1854C55.2616 14.4866 56.2028 14.7501 57.1439 15.0701L59.9675 16.1995C61.8354 17.0394 63.6112 18.0708 65.2663 19.2772C68.5618 21.7078 71.3338 24.7775 73.4169 28.303C75.6114 32.0855 77.1993 36.1887 78.1228 40.463C79.0519 44.6939 79.3688 49.0362 79.0639 53.3572C78.8594 56.0424 78.3865 58.7003 77.6522 61.2913C75.8315 68.0636 71.5049 73.8908 65.5486 77.5925C63.8059 78.7157 61.9551 79.6616 60.0239 80.416C58.0963 81.1385 56.1047 81.6774 54.0757 82.0254C50.9378 82.5752 47.7389 82.6892 44.5698 82.3642C41.3963 82.0201 38.2841 81.2475 35.3181 80.0677C33.9993 79.5842 32.7189 79.0022 31.4875 78.3266C29.814 77.5092 28.3662 76.2941 27.271 74.7877C26.6609 73.7757 26.5768 72.5315 27.0451 71.4466C27.1832 70.8682 27.3754 70.3042 27.6192 69.7619C28.1222 68.9393 29.05 68.4754 30.0098 68.5666C31.3209 68.6734 32.5929 69.0653 33.7369 69.7148C37.6361 71.8684 41.9158 73.246 46.3392 73.7713C50.5428 74.2066 54.7838 73.4465 58.5745 71.5783C61.3667 70.1908 63.8161 68.2011 65.7463 65.7525C66.728 64.53 67.5944 63.2193 68.3345 61.8372C68.5228 61.4888 68.6925 61.1306 68.8428 60.7642L69.0875 60.2277L69.2945 59.6348C69.5699 58.8528 69.7962 58.0544 69.9722 57.2442L70.2169 57.2819Z" fill="black"/>
</svg>
