<svg width="96" height="96" viewBox="0 0 96 96" fill="none" xmlns="http://www.w3.org/2000/svg">
<path d="M35.9356 51.0059C35.3386 52.3599 34.8538 53.7607 34.4861 55.1941C34.3276 55.8112 34.2237 56.4411 34.1756 57.0765V57.5753C34.1728 57.6746 34.1887 57.7736 34.2226 57.8671C34.254 57.9533 34.3137 58.0263 34.392 58.0741C34.4786 58.1264 34.5745 58.1615 34.6744 58.1776H34.825C34.9031 58.1875 34.9821 58.1875 35.0603 58.1776C36.9577 58.3448 38.8689 58.2625 40.745 57.9329C42.8043 57.5773 44.8433 57.1124 46.8532 56.54C48.6444 55.9924 50.396 55.3225 52.0956 54.5353C54.221 53.4659 56.4467 52.6084 58.7403 51.9753C59.3708 51.8247 59.8603 52.5682 59.7379 53.7353C59.5963 55.1238 58.8708 56.3866 57.7426 57.2082C57.1873 57.5471 56.6414 57.8765 56.0767 58.1965C55.512 58.5165 54.9191 58.7329 54.345 58.9965C53.1685 59.4859 51.9826 59.9376 50.7779 60.3612C48.3283 61.2086 45.8087 61.8385 43.2485 62.2435C41.6956 62.4882 40.1426 62.8365 38.5426 63.1282C37.6925 63.2812 36.8348 63.388 35.9732 63.4482C35.5214 63.4482 35.0791 63.4482 34.5426 63.4482C33.9048 63.4036 33.2736 63.29 32.6603 63.1094C32.0808 62.9067 31.5278 62.6349 31.0132 62.3C30.071 61.5349 29.409 60.4791 29.1308 59.2976C29.0453 58.9894 28.9855 58.6746 28.952 58.3565L28.8956 57.9141C28.8869 57.7919 28.8869 57.6693 28.8956 57.5471C28.8668 57.0863 28.8668 56.6243 28.8956 56.1635C29.0468 54.5088 29.3847 52.8765 29.9026 51.2976C30.571 49.2724 31.3824 47.2972 32.3308 45.3871C33.7144 42.4694 35.3614 39.74 36.9332 36.9165C38.1567 34.78 39.192 32.5588 40.5097 30.4506C40.785 29.9851 41.0999 29.5443 41.4508 29.1329C42.8344 27.6365 43.625 27.4106 44.7073 27.8153C44.9663 27.8944 45.2182 27.9951 45.4603 28.1165C46.2132 28.54 46.232 29.6129 45.705 30.94L45.112 32.5212L44.8203 33.2741C44.7167 33.5188 44.585 33.7447 44.4626 33.98L42.9756 36.8035C41.9685 38.6859 40.9332 40.5682 39.9544 42.4506C38.4774 45.2254 37.1882 48.0961 36.0956 51.0435L35.9356 51.0059Z" fill="black"/>
<path d="M35.1541 48.4552C33.8677 50.6767 32.7174 52.9743 31.7094 55.3352C31.2171 56.4494 30.7959 57.5936 30.4483 58.7611C30.2977 59.2882 30.1847 59.9846 30.1753 59.947C30.1421 60.1053 30.1421 60.2687 30.1753 60.427C30.1811 60.546 30.2443 60.6547 30.3447 60.7187C30.4462 60.7741 30.5587 60.8063 30.6741 60.8129C30.8059 60.8129 30.9189 60.8129 31.0412 60.8129C31.0692 60.8081 31.0979 60.8081 31.1259 60.8129H31.3894H32.0389C35.2964 60.4995 38.5058 59.8045 41.6012 58.7423C44.8389 57.7164 48.0483 56.4552 51.2389 55.1376C54.0624 53.9517 56.8294 52.5587 59.5212 51.1187C61.2624 50.1776 62.9283 49.1611 64.7259 48.3423C66.5236 47.5235 68.3024 46.6952 70.1847 45.9987C71.3894 45.5658 71.5588 46.3093 71.0506 47.5329C70.275 49.2895 69.0594 50.8163 67.5212 51.9658C66.6741 52.5399 65.8741 53.1799 64.9894 53.6882L62.3353 55.194C60.5565 56.1352 58.7494 57.1329 56.9141 58.0176C53.2414 59.8603 49.4268 61.4057 45.5071 62.6387C43.1259 63.3917 40.7259 64.2482 38.213 64.9917C36.9316 65.3737 35.631 65.6879 34.3165 65.9329C33.6319 66.0688 32.9408 66.1693 32.2459 66.234H31.7094H31.0694C30.5522 66.3088 30.0288 66.3309 29.5071 66.2999C29.0714 66.2672 28.6378 66.2107 28.2083 66.1305C27.7278 65.9917 27.2589 65.8155 26.8059 65.6035C26.3635 65.3706 25.9729 65.0504 25.6577 64.6623C25.0315 63.8439 24.6497 62.865 24.5565 61.8387C24.4794 61.3218 24.4542 60.7984 24.4812 60.2764C24.4812 60.0129 24.4812 59.7587 24.5283 59.4858L24.5753 59.0905V58.8082C24.6876 58.0822 24.8384 57.3628 25.0271 56.6529C25.7522 54.0124 26.6966 51.4372 27.8506 48.954C29.2906 45.8011 30.9377 42.7799 32.6506 39.8152C35.3047 35.3446 38.2694 31.0811 41.2624 26.874C43.6341 23.6364 45.8083 20.2858 48.5094 17.2364C49.1024 16.5588 49.6577 15.8529 50.3259 15.2223C51.1539 14.3018 52.2037 13.6084 53.3753 13.2082C54.2231 13.0904 55.0836 13.3064 55.7753 13.8105C56.1285 14.0175 56.468 14.247 56.7918 14.4976C57.2541 14.98 57.426 15.6713 57.2436 16.314C57.1011 17.2511 56.6965 18.1288 56.0765 18.8458C53.9777 21.3776 51.973 24.0505 49.9306 26.7893L43.7565 35.2599C40.6553 39.5098 37.8261 43.9516 35.2859 48.5587L35.1541 48.4552Z" fill="black"/>
<path d="M55.5684 62.8074C55.7002 60.1815 55.8131 57.5462 55.8508 54.9015C55.8508 53.9603 55.6813 53.0191 55.7472 52.0215C55.9543 48.605 56.1802 45.1697 56.2178 41.7533C56.2178 40.2285 56.2178 38.7038 56.0955 37.2074C55.8297 35.2465 55.8646 33.2565 56.199 31.3062C56.359 30.6662 57.1966 30.7791 58.0813 31.2591C58.5746 31.5132 59.0333 31.8295 59.4461 32.2003C59.8866 32.5727 60.2129 33.0622 60.3872 33.6121C60.8484 35.4944 61.3284 37.4427 61.6108 39.3815C61.7724 40.358 61.8448 41.3472 61.8272 42.3368C61.8272 43.325 61.8272 44.3227 61.7331 45.3297C61.5449 47.7297 62.119 50.1674 62.279 52.605C62.3919 55.2874 62.3825 57.9791 62.3825 60.6803V65.6591C62.3825 68.1721 62.2602 70.7038 62.3825 73.1885C62.3825 74.1297 62.4672 75.1462 62.5802 76.125L62.7308 77.5933C62.7308 78.0921 62.7872 78.5909 62.7966 79.0897C62.8201 79.5318 62.8201 79.9747 62.7966 80.4168C62.4202 82.1015 61.8555 82.5627 60.3213 82.638C59.9891 82.6564 59.656 82.6564 59.3237 82.638C58.2111 82.5077 57.2749 81.7441 56.9237 80.6803C56.5891 79.8928 56.3367 79.0727 56.1708 78.2333C56.0013 77.4238 55.8225 76.5862 55.6719 75.7391C55.5213 74.8921 55.4084 74.0638 55.3143 73.198C55.2202 72.3321 55.3143 71.4756 55.3143 70.6097C55.3143 69.3109 55.3143 68.0121 55.3613 66.7038V62.7509L55.5684 62.8074Z" fill="black"/>
</svg>
