<svg width="96" height="96" viewBox="0 0 96 96" fill="none" xmlns="http://www.w3.org/2000/svg">
<path d="M54.2015 49.405C56.1066 47.8699 57.7886 46.077 59.1992 44.078C59.7262 43.3533 60.1403 42.5532 60.6109 41.7815C62.258 39.0136 63.5452 36.0469 64.4415 32.9532C64.8458 31.5703 65.1385 30.1571 65.3168 28.7274C65.4392 27.7862 65.4768 26.9015 65.5898 25.9885C65.6954 25.089 65.7457 24.1837 65.7403 23.278C65.7403 22.798 65.8815 22.7133 66.2768 23.165C66.7893 23.9176 67.1122 24.783 67.218 25.6874C67.3433 26.6769 67.3654 27.6768 67.2839 28.6709C67.2274 29.6591 67.1239 30.6474 66.9733 31.6262C66.8242 32.6087 66.6231 33.5826 66.3709 34.5438C66.0833 35.5027 65.744 36.4452 65.3545 37.3674C64.4835 39.631 63.4583 41.8322 62.2862 43.9556C60.9291 46.2805 59.2638 48.4111 57.3356 50.2897C56.1594 51.4527 54.884 52.5108 53.5239 53.4521C51.4571 54.858 49.249 56.044 46.9356 56.9909C46.0415 57.3674 45.138 57.7062 44.2345 58.0168C43.3176 58.3446 42.3724 58.5872 41.4109 58.7415C40.9968 58.8074 40.5827 58.8921 40.1592 58.9297C39.5912 59.0173 39.0106 58.9689 38.465 58.7885C38.1413 58.6735 37.8747 58.4373 37.7215 58.1297C37.6351 58.0063 37.5625 57.8737 37.505 57.7344C37.3733 57.3015 37.985 56.9156 39.0203 56.5485C40.5639 56.1721 42.0698 55.6074 43.5945 55.165C44.3474 54.9297 45.1003 54.6662 45.8156 54.365C46.5309 54.0638 47.2933 53.7062 48.0086 53.3391C50.1781 52.2556 52.2098 50.9159 54.0603 49.3485L54.2015 49.405Z" fill="black"/>
<path d="M60.2717 51.3438C56.4881 54.5529 52.0537 56.9033 47.2741 58.2332L44.7141 58.9014C43.8576 59.0991 42.9823 59.2403 42.1164 59.372C36.003 60.0379 29.8214 59.1038 24.1776 56.6615C21.7464 55.5951 19.4288 54.2865 17.26 52.7556C15.8609 51.7717 14.5621 50.6526 13.3823 49.4144C12.2528 48.0968 11.384 46.5765 10.8223 44.9344C10.5117 43.8991 10.8223 43.9932 11.4811 44.5862C11.9609 44.9784 12.4604 45.3459 12.9776 45.6873L13.9752 46.3179C14.3423 46.5344 14.6999 46.7697 15.0576 47.0144C16.2408 48.0107 17.4995 48.9138 18.8223 49.7156C19.4905 50.1109 20.1776 50.4873 20.8647 50.8638C21.5517 51.2403 22.2199 51.6356 22.9164 51.9838C24.2789 52.7167 25.6947 53.346 27.1517 53.8662L29.3729 54.5532L31.6599 55.1179C35.4676 55.752 39.3669 55.5627 43.0952 54.5626C47.1937 53.5988 51.0423 51.7803 54.3894 49.2262C56.4421 47.6364 58.2525 45.7563 59.7635 43.645C62.1106 40.421 63.7174 36.7189 64.4694 32.8026C64.7393 31.2969 64.8466 29.7666 64.7894 28.2379C64.7894 27.485 64.7047 26.7415 64.6011 25.9979C64.4976 25.2544 64.4411 24.5391 64.3752 23.805C64.3094 23.0709 64.1305 22.572 64.0082 21.9226C64.0082 21.6309 63.9141 21.3673 63.8858 21.1132C63.8576 20.8591 63.8858 20.6332 63.8858 20.4262C63.8782 20.0584 63.9193 19.6913 64.0082 19.3344C64.1462 18.7288 64.4764 18.1841 64.9494 17.7815C65.1658 17.565 65.3635 17.3109 65.5799 17.132C66.0025 16.8463 66.5653 16.8851 66.9447 17.2262C67.288 17.4376 67.6041 17.6905 67.8858 17.9791C68.2161 18.3602 68.5121 18.7696 68.7705 19.2026C69.5684 20.6764 70.1365 22.2633 70.4552 23.9085C70.8355 25.5456 70.9875 27.2274 70.907 28.9062C70.7556 32.3127 70.0761 35.6751 68.8929 38.8732C68.0408 41.2973 66.8833 43.603 65.4482 45.7344L64.3188 47.2873C63.9423 47.805 63.4811 48.2285 63.067 48.7556C62.2275 49.7206 61.3285 50.6321 60.3752 51.485L60.2717 51.3438Z" fill="black"/>
<path d="M15.5664 58.637C15.4629 58.3923 15.8582 58.3923 16.5641 58.4582C16.8956 58.5026 17.2153 58.6113 17.5053 58.7782C17.6386 58.9534 17.7522 59.1428 17.8441 59.3429C17.8441 59.4747 17.7405 60.8394 17.7217 61.3006C17.6884 61.7251 17.5867 62.1414 17.4205 62.5335C17.1549 63.3148 16.8405 64.0786 16.4794 64.8206C16.3934 64.984 16.2749 65.1281 16.1311 65.2441C15.649 65.6425 15.2873 66.1671 15.0864 66.7594C15.0276 66.8613 15.0276 66.9869 15.0864 67.0888C14.9576 67.7804 14.6674 68.4317 14.2394 68.99C13.8113 69.3338 13.4087 69.7081 13.0347 70.11C12.9782 70.11 13.0347 70.2512 12.8182 70.2418C12.4135 70.2418 12.4041 70.4018 12.31 70.5335C12.177 70.7206 12.0221 70.8913 11.8488 71.0418C11.6872 71.1173 11.5163 71.1711 11.3405 71.2018C11.1017 71.1949 10.8698 71.1197 10.6723 70.9853C10.5594 70.8441 10.3053 70.8441 10.0982 70.7876L9.89113 70.7218C9.639 70.1215 9.47724 69.4871 9.41113 68.8394C9.41113 68.8394 10.0135 66.8159 10.0511 66.59C10.0888 66.3641 10.2017 66.4018 10.3053 66.317C10.4088 66.2323 10.8041 64.7265 10.8417 64.6794C11.0205 64.4065 11.0488 64.0488 11.4911 63.917C11.5758 63.917 11.5853 63.8229 11.6135 63.7665C11.8706 63.2663 12.1866 62.7987 12.5547 62.3735C12.7147 62.1382 12.8276 61.8841 12.9876 61.6488C12.9876 61.6488 13.0817 61.5923 13.1288 61.5547C13.1891 61.524 13.2434 61.4825 13.2888 61.4323C13.6794 60.9085 14.0227 60.351 14.3147 59.7665C14.3711 59.6253 15.0111 59.1735 15.0488 59.0041C15.0864 58.8347 15.5947 58.7876 15.5664 58.637Z" fill="black"/>
<path d="M39.9238 67.1833C39.792 66.9951 40.0744 66.8068 40.5638 66.6374C40.7964 66.587 41.0371 66.587 41.2696 66.6374C41.4069 66.7371 41.5389 66.8439 41.6649 66.9574C41.7308 67.0233 42.1732 68.1151 42.3802 68.4821C42.5554 68.8195 42.6791 69.1811 42.7473 69.5551L43.2932 71.748C43.3307 71.9122 43.3307 72.0827 43.2932 72.2468C43.1568 72.8033 43.1568 73.3845 43.2932 73.941C43.2932 74.0351 43.2932 74.1292 43.4344 74.2139C43.7101 74.8005 43.8177 75.4521 43.7449 76.0962C43.5096 76.6045 43.4155 77.1033 43.1991 77.6115C43.1991 77.6868 43.1991 77.7621 43.0391 77.828C42.6438 78.0068 42.7002 78.1574 42.672 78.308C42.5972 78.5452 42.4827 78.768 42.3332 78.9668C42.2003 79.0976 42.0517 79.2114 41.8908 79.3057C41.674 79.3868 41.4376 79.3999 41.2132 79.3433C41.0626 79.2586 40.8367 79.3433 40.6485 79.3433H40.4414C39.9185 78.9782 39.4441 78.548 39.0296 78.0633C38.9449 78.0633 38.6626 76.2751 38.5779 76.0774C38.4932 75.8798 38.6249 75.861 38.6814 75.748C38.7379 75.6351 38.3896 74.2986 38.3896 74.2421C38.4367 73.9504 38.2955 73.6586 38.6155 73.301C38.6496 73.2462 38.6496 73.1769 38.6155 73.1221C38.6213 72.5969 38.7102 72.076 38.8791 71.5786C38.9228 71.3203 38.9479 71.0593 38.9544 70.7974C38.9544 70.7974 39.0108 70.7033 39.0296 70.6563C39.0667 70.599 39.0923 70.535 39.1049 70.468C39.202 69.845 39.2554 69.2161 39.2649 68.5857C39.2649 68.4445 39.5755 67.748 39.5473 67.588C39.5191 67.428 39.9896 67.268 39.9238 67.1833Z" fill="black"/>
<path d="M63.867 57.8469C63.5658 57.7716 63.7917 57.3669 64.3658 56.8022C64.6478 56.5582 64.9652 56.3583 65.307 56.2093C65.525 56.1765 65.7453 56.1608 65.9658 56.1622C66.0505 56.1622 67.0576 56.7834 67.434 56.9528C67.7894 57.1186 68.109 57.3519 68.3752 57.6398C68.8929 58.1763 69.4764 58.6751 70.0317 59.1928C70.1553 59.3155 70.2516 59.4631 70.314 59.6257C70.5336 60.1852 70.926 60.66 71.434 60.981C71.5187 61.0375 71.5658 61.1222 71.7446 61.0846C71.9235 61.0469 73.2129 62.0257 73.2882 62.2987C73.467 62.8351 73.7211 63.3057 73.947 63.814C73.947 63.8893 74.0693 63.8987 73.947 64.0775C73.7682 64.4916 73.947 64.5481 74.0317 64.6798C74.1726 64.8682 74.2749 65.0825 74.3329 65.3104C74.3379 65.516 74.3027 65.7206 74.2293 65.9128C74.0848 66.1773 73.8859 66.4082 73.6458 66.5904C73.4293 66.6657 73.2882 66.9481 73.1187 67.1551C73.0632 67.2332 73.0001 67.3057 72.9305 67.3716C72.2796 67.4724 71.6155 67.45 70.9729 67.3057L70.1258 66.694C69.7023 66.3928 69.2693 66.0728 69.1846 66.0163C69.0999 65.9598 69.0623 65.8093 69.0246 65.6775C68.987 65.5457 67.7258 64.7363 67.6882 64.6516C67.5093 64.3881 67.1893 64.2469 67.227 63.7104C67.227 63.6163 67.1799 63.5881 67.1329 63.541C66.7566 63.1291 66.4398 62.6666 66.1917 62.1669C66.0228 61.9398 65.8405 61.7229 65.6458 61.5175C65.6458 61.5175 65.6458 61.4046 65.6458 61.3481C65.6353 61.2789 65.613 61.2121 65.5799 61.1504C65.1695 60.6004 64.7264 60.0755 64.2529 59.5787C64.1399 59.4563 63.9799 58.6375 63.8387 58.4963C63.6976 58.3551 63.9893 57.8657 63.867 57.8469Z" fill="black"/>
<path d="M74.823 34.2335C74.5689 34.3088 74.503 33.9135 74.6065 33.2923C74.6762 33.0153 74.7906 32.7514 74.9453 32.5112C75.1053 32.3888 75.2653 32.2665 75.3971 32.1818C75.5289 32.0971 76.5359 31.9935 76.903 31.8523C77.2335 31.7588 77.576 31.7144 77.9194 31.7206C78.6159 31.7206 79.3406 31.6265 80.0559 31.6547C80.2191 31.6618 80.3764 31.7175 80.5077 31.8147C80.9918 32.1134 81.5603 32.2456 82.1265 32.1912C82.2206 32.1912 82.3147 32.1912 82.4277 32.0782C83.0656 31.9021 83.742 31.9251 84.3665 32.1441L85.7971 33.2265C85.863 33.2735 85.9571 33.2265 85.9759 33.4335C85.9759 33.9041 86.1924 33.8759 86.3524 33.9606C86.5826 34.0672 86.7854 34.2249 86.9453 34.4218C87.0359 34.6165 87.084 34.8282 87.0865 35.0429C87.0376 35.3527 86.922 35.6481 86.7477 35.9088C86.605 36.1373 86.503 36.3889 86.4465 36.6523L86.3336 36.9253C85.8892 37.2996 85.3989 37.6159 84.8747 37.8665C84.8747 37.8665 84.47 37.8665 84.0277 37.8665C83.5853 37.8665 83.1336 37.8665 83.0865 37.8665C83.0394 37.8665 82.9077 37.7629 82.823 37.6782C82.7383 37.5935 81.4112 37.6782 81.3547 37.6782C81.0912 37.5653 80.7806 37.6782 80.5641 37.2265C80.5171 37.1418 80.4606 37.1512 80.4041 37.1418C79.9009 37.0474 79.4152 36.876 78.9641 36.6335C78.7195 36.5336 78.4678 36.4519 78.2112 36.3888C78.2112 36.3888 78.1359 36.3041 78.0889 36.2665C78.0562 36.1785 77.997 36.1028 77.9194 36.05C77.3286 35.8027 76.7255 35.5859 76.1124 35.4006C75.9712 35.4006 75.3877 34.7982 75.1712 34.7606C74.9547 34.7229 74.9265 34.1676 74.823 34.2335Z" fill="black"/>
</svg>
