<svg width="96" height="96" viewBox="0 0 96 96" fill="none" xmlns="http://www.w3.org/2000/svg">
<path d="M79.2868 15.4616C80.6793 16.8 81.7953 18.3989 82.5715 20.1674C82.852 20.8137 83.0817 21.4808 83.2586 22.1627C83.7612 24.4852 83.7996 26.8842 83.3715 29.2216C83.2139 30.2413 82.9811 31.2479 82.675 32.2333C82.3044 33.4877 81.715 34.6666 80.9339 35.7157C80.6892 36.0451 80.5668 35.8945 80.5574 35.4992C80.5496 34.9228 80.6289 34.3484 80.7927 33.7957C81.5023 31.46 81.839 29.0269 81.7903 26.5863C81.7551 25.0933 81.4356 23.6208 80.8492 22.2474C80.2413 20.7671 79.3708 19.4088 78.2797 18.238C77.5886 17.4906 76.8257 16.8129 76.0021 16.2145C74.7476 15.2888 73.3653 14.5502 71.8986 14.0216C70.7588 13.6888 69.5835 13.493 68.3974 13.438C68.1433 13.438 67.8892 13.438 67.6256 13.3816C66.6845 13.2027 66.3833 13.0145 66.1668 12.4404C66.1131 12.3175 66.0659 12.1918 66.0256 12.0639C65.9315 11.6498 66.355 11.2921 67.1645 11.0663C67.7806 10.9108 68.4117 10.8224 69.0468 10.8027C69.6783 10.8064 70.3083 10.8662 70.9292 10.9816C72.1866 11.2129 73.4124 11.592 74.5809 12.111C76.3111 12.958 77.8987 14.0694 79.2868 15.4051V15.4616Z" fill="black"/>
<path d="M37.771 67.5656C31.0416 64.6856 27.6345 59.9138 27.4181 53.7774C27.2016 47.6409 32.1239 42.8974 32.4063 42.8691H36.971L40.4157 67.5656H37.771Z" fill="black"/>
<path d="M68.1623 42.6428C56.9435 44.3557 53.1882 31.7251 53.1035 31.3487C53.1035 31.3487 55.8706 30.2475 59.3435 32.4028C62.8165 34.5581 65.9318 37.0239 67.24 39.1698C68.5482 41.3157 68.1623 42.6428 68.1623 42.6428Z" fill="black"/>
<path d="M60.0869 62.483V68.2524C60.0869 68.2524 66.4963 63.9983 68.2375 61.1089C69.9787 58.2195 60.0869 62.483 60.0869 62.483Z" fill="black"/>
<path d="M86.4967 71.2251C86.619 72.1663 86.732 73.1075 86.8261 74.1051C86.934 75.1272 86.9686 76.1557 86.9296 77.1828C86.9288 77.8751 86.726 78.5522 86.3461 79.131L85.8473 79.5734L85.3014 79.9028C84.1104 80.3989 82.8793 80.7925 81.6214 81.0792L78.0543 81.9545C77.0096 82.1992 75.9837 82.5475 74.9579 82.8298C73.6308 83.1969 72.3132 83.5639 70.9579 83.8369C70.5343 83.9122 70.5249 83.7145 70.779 83.3663C71.1966 82.8371 71.723 82.4038 72.3226 82.0957C74.8585 80.846 77.5438 79.9256 80.3132 79.3569C81.1192 79.1646 81.9091 78.9097 82.6755 78.5945C83.0708 78.4345 83.4379 78.2651 83.7861 78.0957C83.9444 78.0161 84.0983 77.9281 84.2473 77.8322C84.3098 77.8046 84.3671 77.7664 84.4167 77.7192V77.7192C84.4711 77.6621 84.5071 77.59 84.5202 77.5122C84.538 77.3432 84.538 77.1729 84.5202 77.0039C84.5206 76.567 84.4986 76.1304 84.4543 75.6957C84.3696 74.7545 84.2379 73.8134 84.0967 72.9381C83.9084 71.7898 83.7202 70.6416 83.5037 69.4934C83.1743 67.7522 82.8826 65.9828 82.5626 64.2416C82.2614 62.8957 81.932 61.5687 81.7249 60.1663C81.6632 59.8565 81.6348 59.541 81.6402 59.2251C81.6873 58.0204 81.979 57.5875 82.5814 57.4369C82.7163 57.3931 82.8549 57.3616 82.9955 57.3428C83.4379 57.3428 83.7202 57.7945 83.9367 58.5098C84.71 60.809 85.2831 63.1707 85.6496 65.5687L86.5908 71.2157L86.4967 71.2251Z" fill="black"/>
<path d="M12.2185 56.2902C12.2185 57.4854 12.2749 58.6902 12.369 59.9137C12.369 60.356 12.5667 60.7796 12.5855 61.2313C12.642 62.0219 12.6608 62.8219 12.642 63.6407C12.6232 64.4596 12.642 65.269 12.642 66.069C12.6697 66.776 12.7451 67.4804 12.8679 68.1772C13.1002 69.0612 13.1546 69.9826 13.0279 70.8878C12.962 71.1702 12.4067 71.1984 11.7949 71.0384C11.1832 70.8784 10.4961 70.5396 10.3361 70.0972C9.71895 68.4355 9.3326 66.6969 9.18787 64.9302C9.15049 64.3822 9.04295 63.8413 8.86787 63.3207C8.72669 62.7843 8.55728 62.2478 8.45375 61.7019C8.22787 60.4972 8.03963 59.2737 7.86081 58.0313L7.56904 55.7254C7.38081 54.5678 7.4561 53.3631 7.27728 52.2149C7.20536 51.7463 7.09839 51.2839 6.95728 50.8313C6.85375 50.389 6.74081 49.9466 6.6561 49.5043C6.59372 49.3262 6.57437 49.1359 6.59963 48.949C6.75963 48.2054 7.08904 47.9607 7.92669 47.7913C8.11493 47.7913 8.30316 47.7066 8.4914 47.6878C9.11307 47.6374 9.71932 47.8983 10.1102 48.3843C11.3902 49.8431 11.5973 51.3207 11.9926 52.836C12.2159 53.9776 12.3387 55.1366 12.3596 56.2996L12.2185 56.2902Z" fill="black"/>
<path d="M67.7666 55.5364C68.753 51.5544 68.3922 47.3577 66.7407 43.6023C66.1138 42.2276 65.3306 40.9296 64.4066 39.7341C59.7004 33.1531 51.2765 30.3743 43.5784 32.8635C42.1599 33.3706 40.8317 34.1014 39.6443 35.0282C39.3431 35.2541 39.0419 35.4706 38.7596 35.7247C38.4772 35.9788 38.0819 36.1012 37.7431 36.3176C37.0748 36.7412 36.3219 37.127 35.6348 37.6164C34.6937 38.1623 34.5619 37.927 34.5807 36.7882C34.5953 35.9868 34.6708 35.1876 34.8066 34.3976C34.9147 33.9011 35.0691 33.4159 35.2678 32.9482C35.3713 32.6847 35.5219 32.4682 35.6348 32.1859C35.8216 31.9773 36.0229 31.7823 36.2372 31.6023C37.8266 30.3001 39.6244 29.2755 41.5548 28.5717C43.4349 27.9024 45.4055 27.5216 47.3996 27.4423C51.2919 27.1942 55.1824 27.9561 58.6937 29.6541C62.9607 31.6363 66.5936 34.7642 69.1878 38.6894C71.8941 43.0342 73.1528 48.1252 72.7831 53.2306C72.5471 56.344 71.6622 59.3736 70.1854 62.1247C67.8215 66.1896 64.3077 69.4643 60.0866 71.5364L59.5031 71.8659L58.8631 72.1764C58.4301 72.3647 57.9972 72.5435 57.5737 72.7035C56.7172 73.0235 55.8607 73.287 55.0043 73.5317C53.287 74.0183 51.5174 74.2964 49.7337 74.36C48.9347 74.4166 48.1327 74.4166 47.3337 74.36C46.2128 74.3262 45.1198 74.0019 44.1619 73.4188C43.8853 73.1909 43.658 72.9091 43.4937 72.5906C43.3631 72.273 43.2867 71.9358 43.2678 71.5929C43.2231 71.319 43.1979 71.0422 43.1925 70.7647C43.2396 70.36 43.5972 70.1341 44.1337 69.8235C44.7903 69.476 45.5279 69.3103 46.2701 69.3435C47.5932 69.2977 48.9111 69.1562 50.2137 68.92C50.8819 68.7976 51.5501 68.6659 52.209 68.5059C52.8678 68.3459 53.536 68.2612 54.176 68.0917C54.816 67.9223 55.456 67.7623 56.0584 67.5835C56.3407 67.48 56.6325 67.3859 56.8866 67.2823L57.2631 67.207L57.7054 66.9812C58.3075 66.6972 58.8949 66.383 59.4654 66.04L60.3219 65.5223C60.6043 65.3435 60.8584 65.1364 61.1313 64.9482C64.3476 62.6862 66.6479 59.3475 67.616 55.5364H67.7666Z" fill="black"/>
<path d="M72.322 14.8401C68.572 13.503 64.4325 13.8035 60.915 15.6684C59.679 16.4091 58.5674 17.3397 57.6208 18.426C54.1573 22.1437 52.5573 28.0166 54.5808 33.099C55.0326 34.2139 55.6689 35.2448 56.4632 36.1484C57.2393 37.0445 58.1431 37.8215 59.1456 38.4542C61.7526 40.1201 64.9056 40.9107 68.1432 41.6166C69.1503 41.8519 69.0091 42.4542 68.0491 43.066C67.4253 43.4505 66.7412 43.7273 66.0256 43.8848C65.5699 43.9869 65.1076 44.0561 64.642 44.0919C64.126 44.1096 63.6095 44.0813 63.0985 44.0072C61.1336 43.7073 59.2281 43.1007 57.4514 42.2095C55.6353 41.2023 54.036 39.8461 52.7456 38.219C50.1947 34.9338 49.0172 30.7874 49.4608 26.6519C49.6719 24.2343 50.3092 21.8732 51.3432 19.6778C52.37 17.458 53.8364 15.4697 55.6538 13.8331C59.746 10.3315 65.1664 8.7975 70.4867 9.63543C73.6714 10.0854 76.6757 11.386 79.1832 13.4001C81.069 14.9347 82.5978 16.8617 83.6632 19.0472C83.9521 19.5807 84.1946 20.138 84.3879 20.7131C84.5856 21.2778 84.8208 21.8331 84.9714 22.3978C85.2808 23.5444 85.5103 24.7112 85.6585 25.8895C85.8694 27.7387 85.8155 29.6085 85.4985 31.4425C85.1404 33.3374 84.4352 35.1498 83.4185 36.7884C83.1908 37.1595 82.9426 37.5178 82.675 37.8613C82.4406 38.2214 82.1727 38.5586 81.875 38.8684C81.6344 39.1448 81.3767 39.4057 81.1032 39.6495C80.8397 39.8472 80.5855 40.026 80.3597 40.1766C79.9721 40.4287 79.5462 40.6162 79.0985 40.7319C78.4214 40.8809 77.713 40.7261 77.1597 40.3084C76.8824 40.1518 76.6208 39.969 76.3785 39.7625C75.7008 39.0754 76.2185 37.7484 77.3197 36.346C78.9336 34.5253 80.0632 32.3275 80.6044 29.9554C80.8357 28.7718 80.8991 27.5615 80.7926 26.3601C80.755 25.7249 80.6574 25.0946 80.5008 24.4778L80.3126 23.5366L80.0208 22.5954C78.8481 18.9488 75.9772 16.099 72.322 14.9531V14.8401Z" fill="black"/>
<path d="M29.5358 54.7085C29.6474 56.118 29.9645 57.5036 30.4769 58.8214C30.685 59.2957 30.9371 59.7495 31.2299 60.1767C32.1093 61.8402 33.3625 63.277 34.891 64.3744C35.2396 64.6232 35.6154 64.8316 36.011 64.9956C36.389 65.1956 36.7906 65.3473 37.2063 65.4473C37.7428 65.5791 38.2793 65.7203 38.8158 65.8238C39.375 65.8861 39.9229 66.0254 40.444 66.2379C40.7828 66.3791 40.7263 66.9908 40.3687 67.5838C39.9831 68.2602 39.2739 68.6878 38.4958 68.7132C35.6889 68.5758 33.043 67.3624 31.1075 65.325C30.8346 65.005 30.5428 64.7038 30.2416 64.3838C29.9405 64.0638 29.7146 63.7438 29.4322 63.4426C28.8672 62.8207 28.3718 62.139 27.9546 61.4097C27.7263 61.037 27.5281 60.6467 27.3616 60.2426C27.1688 59.8288 26.9992 59.4046 26.8534 58.972C26.5754 58.1124 26.3708 57.2309 26.2416 56.3367C26.1118 55.2501 26.0709 54.1547 26.1193 53.0614C26.2134 52.2426 26.2981 51.4144 26.4487 50.6238L26.7405 49.4379C26.8171 49.0413 26.9241 48.6511 27.0605 48.2708C27.2675 47.6779 27.3805 47.0661 27.5781 46.4732C27.7758 45.8803 28.0299 45.3156 28.2746 44.732C28.3819 44.4779 28.5143 44.2351 28.6699 44.0073C29.244 43.1508 29.611 42.9908 30.251 43.2261C30.4037 43.2638 30.552 43.3174 30.6934 43.3861C31.1745 43.7113 31.3463 44.3389 31.0981 44.8638C30.5017 46.7104 30.0393 48.5977 29.7146 50.5108C29.4952 51.9027 29.4636 53.3177 29.6205 54.7179L29.5358 54.7085Z" fill="black"/>
<path d="M40.3216 45.4848C40.5474 49.513 40.7451 53.5036 41.1027 57.466C41.2251 58.906 41.498 60.2895 41.658 61.7483L41.9122 63.7436L42.0627 64.6848L42.2039 65.4471C42.2604 65.7389 42.3169 66.0213 42.3921 66.3036C42.4873 66.6625 42.5254 67.0341 42.5051 67.4048C42.4944 67.5599 42.4723 67.7141 42.4392 67.866C42.421 68.0241 42.3591 68.174 42.2604 68.2989C41.8053 68.8569 41.2065 69.2799 40.5286 69.5224C40.171 69.6824 39.8039 69.8142 39.4369 69.946L38.891 70.1436L38.5145 70.2566L37.1027 70.6707C35.2204 71.1789 33.338 71.6119 31.4557 71.9883C29.1592 72.4401 26.8533 72.9295 24.5474 73.2307C21.5671 73.808 18.5013 73.7824 15.531 73.1554C14.5898 72.9201 14.8345 72.2989 15.6533 71.6871C16.7631 70.8673 18.0547 70.3281 19.418 70.1154C20.1145 70.0401 20.8204 69.8989 21.5169 69.833C22.2133 69.7671 22.9286 69.673 23.6345 69.5695C25.0463 69.3719 26.458 69.1366 27.8792 68.8636C30.7027 68.3271 33.5263 67.6777 36.3498 66.9813C36.7357 66.8777 37.1498 66.7554 37.5074 66.6424L37.8933 66.5577C38.0297 66.5209 38.1598 66.4638 38.2792 66.3883C38.2718 66.2529 38.2432 66.1196 38.1945 65.993C38.199 65.9178 38.199 65.8424 38.1945 65.7671L38.0533 65.1366L37.7616 63.6589C37.5827 62.7177 37.4322 61.6919 37.3098 60.713C36.8016 56.6377 36.5004 52.5813 36.1992 48.5342L36.0674 46.6519L36.0016 45.7671V45.2966C36.0016 44.986 36.0016 44.666 35.9357 44.3554C35.9357 44.2424 35.8416 44.2707 35.7757 44.2801H35.5404H35.0698L29.9686 44.7413C28.0863 44.9013 26.2039 45.0707 24.3216 45.2966C21.498 45.6636 18.6745 46.2189 15.851 46.633C15.2204 46.7271 14.6086 46.8589 13.9686 46.9248C11.6157 47.2071 10.8251 46.9248 10.2039 45.8895C10.0447 45.6655 9.90311 45.4295 9.78039 45.1836C9.47921 44.4024 10.3733 43.6024 12.0674 43.0848C14.5804 42.3883 17.1874 41.8236 19.8416 41.3436C22.4957 40.8636 25.2063 40.666 27.9169 40.4024C29.9498 40.2142 31.9263 40.0542 34.0157 39.9036C34.9569 39.8283 36.0204 39.6871 36.9522 39.6777L38.0627 40.026L38.618 40.1954L38.891 40.2895H38.9569H39.0039L38.7216 40.6471V40.6471L38.8251 40.713C39.1483 40.885 39.4625 41.0735 39.7663 41.2777C39.967 41.6879 40.0913 42.1312 40.1333 42.586C40.1992 43.066 40.2463 43.5271 40.2933 44.0542L40.4157 45.4283L40.3216 45.4848Z" fill="black"/>
<path d="M82.9664 68.8924L81.9216 64.1865L81.3852 61.7771L81.1216 60.5536L81.0558 60.243V60.083C81.0558 60.0171 81.0558 60.083 81.0558 60.083V59.7348C81.0558 59.7348 81.0558 59.6501 81.0558 59.6124C81.0558 59.5748 80.9899 59.6124 80.9522 59.5654C80.7988 59.5512 80.6445 59.5512 80.4911 59.5654H80.3216L80.0205 59.6218L79.4087 59.7348L78.1852 59.9795C77.3664 60.1489 76.5381 60.3277 75.7099 60.4689L66.8064 62.0595C65.3193 62.3136 63.8228 62.5677 62.3169 62.7842L61.7522 62.8689H61.3569L60.8581 62.9254H60.7264C60.7264 62.9254 60.7264 63.0007 60.7264 63.0383L60.6699 63.283C60.6699 63.4524 60.6699 63.6218 60.604 63.7913C60.5381 63.9607 60.604 64.0642 60.604 64.196V64.676C60.604 64.9865 60.604 65.3065 60.604 65.6171C60.604 66.2571 60.6793 66.9065 60.7358 67.556C60.8769 68.8548 61.0464 70.163 61.2252 71.4618C61.6864 74.8124 62.4675 78.1348 62.3075 81.7207C62.1946 82.9065 61.6111 82.6618 60.9899 81.7771C60.0761 80.5213 59.4349 79.0883 59.1075 77.5701L57.9687 72.4783C57.6067 70.7292 57.3522 68.9597 57.2064 67.1795C57.2064 66.7371 57.1405 66.2383 57.1216 65.8054C57.1028 65.3724 57.1216 64.8642 57.1216 64.3842V63.5842L57.2722 62.3607C57.3475 61.5418 57.5358 60.7513 57.6769 59.9701C57.6769 59.9042 57.7334 59.9136 57.7805 59.9042H57.9311L58.2322 59.8571L58.844 59.763L60.0487 59.5842L61.6958 59.3018L64.2558 58.9254C68.3593 58.3136 72.5287 57.043 76.764 56.1018C77.3758 55.9795 77.9875 55.8477 78.6464 55.7348L79.5875 55.5748L80.2275 55.5371L80.9711 55.4336C81.8742 55.2597 82.8082 55.3479 83.6628 55.6877C83.8539 55.7691 84.0128 55.9114 84.1146 56.0924C84.1899 56.2242 84.284 56.4124 84.3781 56.5913C84.4722 56.7701 84.5287 57.0242 84.604 57.2313C84.6793 57.4383 84.6699 57.7489 84.7075 58.003L84.9522 59.2736L85.1216 60.0736L85.4981 61.6454L86.2605 64.9489C86.9193 67.7724 87.5687 70.596 88.0864 73.5513C88.284 74.6524 88.4534 75.7724 88.5569 76.9207C88.6158 77.5243 88.6441 78.1306 88.6416 78.7371C88.6618 79.5027 88.5536 80.2662 88.3216 80.996C88.2464 81.1654 88.1522 81.3254 88.0675 81.4948C87.9828 81.6642 87.8228 81.7677 87.6534 81.8618C87.3336 82.0607 86.9886 82.2158 86.6275 82.323C86.2511 82.436 85.8746 82.5395 85.4981 82.6148L84.5569 82.8313C83.4464 83.0289 82.364 83.1983 81.2816 83.3771C77.9216 83.9513 74.6934 84.5536 71.3899 85.156C70.6746 85.2877 69.9781 85.4571 69.2534 85.5795C66.5711 86.003 65.6581 85.7583 64.9146 85.1183C64.7362 84.9852 64.5693 84.8372 64.4158 84.676C64.2181 84.4218 64.3687 84.1207 64.8111 83.7348C65.4534 83.2274 66.1753 82.8299 66.9475 82.5583C69.8998 81.5629 72.9111 80.7519 75.964 80.1301C77.4887 79.763 79.0416 79.5371 80.5758 79.2924L82.8534 78.9254L83.9546 78.7277L84.4346 78.6242V78.4077C84.4346 78.2948 84.4346 78.1724 84.4346 78.0407C84.4346 77.9089 84.4346 77.5418 84.3781 77.2783C84.3781 76.7607 84.2558 76.2242 84.1805 75.6783C83.8605 73.4854 83.3711 71.2077 82.8534 68.9489L82.9664 68.8924Z" fill="black"/>
</svg>
