<svg width="96" height="96" viewBox="0 0 96 96" fill="none" xmlns="http://www.w3.org/2000/svg">
<path d="M53.8578 78.5975C54.6975 73.5018 55.1787 68.3535 55.2978 63.1905C55.1689 60.1548 54.6856 57.1445 53.8578 54.2211C52.9166 50.0705 50.0931 47.5763 45.7637 47.8022C41.4343 48.0281 37.1519 53.6281 37.1143 53.6846C38.366 52.0281 41.2178 51.5105 43.1754 51.614C49.4625 51.9528 51.646 58.9269 52.3519 64.1599C53.059 68.8319 53.1949 73.5727 52.7566 78.2775L53.8578 78.5975Z" fill="black"/>
<path d="M67.1562 47.8195C67.1562 47.8195 69.4245 38.6053 69.3586 31.3395C69.3586 28.4406 67.8621 23.3206 67.608 22.1442C66.6668 17.9842 63.6362 15.7159 59.2598 15.9512C54.8833 16.1865 50.6762 21.7677 50.6104 21.8336C51.8621 20.1771 54.7139 19.65 56.6715 19.763C62.9586 20.1018 65.1421 27.0759 65.848 32.3089C66.5109 37.0871 66.6057 41.9271 66.1304 46.7277L67.1562 47.8195Z" fill="black"/>
<path d="M50.7705 57.194C50.5735 55.6183 50.1945 54.0707 49.6411 52.5823C49.3927 51.9481 49.0772 51.3423 48.6999 50.7752C48.4133 50.3466 48.0417 49.9814 47.6082 49.7023L47.4011 49.5799L47.1188 49.4952C46.9341 49.4434 46.7451 49.4087 46.5541 49.3917C46.1714 49.3595 45.7864 49.369 45.4058 49.4199C43.9188 49.6458 42.0646 50.9164 40.4176 52.4317C38.7119 54.0274 37.0909 55.7113 35.5611 57.4764C34.1588 59.0858 32.7941 60.714 31.4482 62.3705C29.7877 64.5731 27.8448 66.5476 25.6693 68.2434C24.9541 68.7423 24.5211 68.1023 24.4741 67.0387C24.4286 65.6853 24.847 64.357 25.6599 63.274C27.3352 61.194 28.9446 59.0387 30.6105 56.8834C32.3431 54.6747 34.2068 52.5721 36.1917 50.587C37.4435 49.3917 38.6952 48.0834 40.2105 46.8223C41.018 46.1718 41.8994 45.619 42.8364 45.1752C43.8802 44.6811 45.014 44.4056 46.1682 44.3658C46.8012 44.3584 47.4329 44.4248 48.0505 44.5634C48.3686 44.6311 48.6828 44.716 48.9917 44.8175C49.3023 44.9399 49.6223 45.0623 49.9329 45.2034C51.0311 45.7938 51.993 46.6083 52.7564 47.594C54.0464 49.3086 55.004 51.2495 55.5799 53.3164C56.2592 55.6538 56.7254 58.0478 56.9729 60.4693C57.2283 64.0499 57.2535 67.6432 57.0482 71.227C56.9258 73.9846 57.0011 76.7328 56.6529 79.5281C56.587 80.1399 56.5305 80.7611 56.4082 81.4105C55.8999 83.6975 55.1941 84.3187 53.5846 84.234C53.2408 84.2282 52.8979 84.1967 52.5588 84.1399C51.3729 83.8764 50.7893 82.7658 50.8646 81.3164C51.0529 76.8646 51.3823 72.2246 51.3446 67.5281C51.3446 65.7964 51.2693 64.0552 51.1376 62.3423C51.0831 60.6312 50.9291 58.9248 50.6764 57.2317L50.7705 57.194Z" fill="black"/>
<path d="M64.6716 25.0535C64.4747 23.4778 64.0957 21.9302 63.5422 20.4418C63.292 19.8084 62.9766 19.2028 62.6011 18.6347C62.3119 18.2082 61.9407 17.8435 61.5093 17.5618L61.3022 17.4206L61.0293 17.3547C60.8415 17.3028 60.6493 17.2682 60.4552 17.2512C60.0733 17.2142 59.6888 17.2142 59.3069 17.2512C57.8387 17.4582 55.9846 18.7477 54.3469 20.2629C52.7093 21.7782 51.0811 23.5571 49.4999 25.3265C48.0975 26.9171 46.7516 28.5829 45.3775 30.2018C43.7064 32.3843 41.7609 34.3424 39.5893 36.0277C38.874 36.5265 38.4411 35.8865 38.394 34.8229C38.3482 33.468 38.7702 32.1386 39.5893 31.0582C41.274 28.9782 42.8834 26.8324 44.5493 24.6771C46.2832 22.478 48.1403 20.379 50.1116 18.39C51.3634 17.1853 52.5964 15.8677 54.1211 14.6253C54.9252 13.9651 55.8071 13.4057 56.7469 12.9594C58.3837 12.2149 60.2224 12.0393 61.9705 12.4606C62.2716 12.5359 62.5634 12.6018 62.9116 12.7053C63.2599 12.8088 63.5422 12.9594 63.8528 13.1006C64.9556 13.7047 65.9179 14.5354 66.6764 15.5382C67.9694 17.2509 68.9273 19.1924 69.4999 21.2606C70.1824 23.5967 70.6456 25.9914 70.8834 28.4135C71.1466 31.9937 71.1749 35.5873 70.9681 39.1712C70.8458 41.9288 70.9681 44.6771 70.5728 47.4724C70.5069 48.0841 70.4505 48.7053 70.3281 49.3547C69.8105 51.6512 69.114 52.2629 67.5046 52.1782C67.139 52.1789 66.7739 52.1505 66.4128 52.0935C65.2269 51.8394 64.6434 50.7194 64.7187 49.27C64.9069 44.8088 65.2364 40.1688 65.1987 35.4724C65.1987 33.7406 65.1234 31.9994 64.9916 30.2865C64.912 28.5873 64.7392 26.8938 64.474 25.2135L64.6716 25.0535Z" fill="black"/>
</svg>
