<svg width="96" height="96" viewBox="0 0 96 96" fill="none" xmlns="http://www.w3.org/2000/svg">
<path d="M59.1905 30.7428C58.842 33.5443 58.2114 36.3034 57.3081 38.9781C56.4705 41.5852 55.4822 44.1075 54.4093 46.5734C53.3364 49.0393 52.1505 51.4487 50.8987 53.8205C49.6469 56.1922 48.3669 58.5264 46.9269 60.8322C45.8822 62.4981 44.7905 64.1452 43.6046 65.7546C43.3222 66.1405 42.9834 66.5828 42.6634 67.0346L41.9105 67.9758C41.6469 68.3052 41.374 68.6158 41.0916 68.9169C40.5269 69.5381 39.9622 70.084 39.3881 70.6487C38.8457 71.2386 38.274 71.8008 37.6752 72.3334C36.804 73.0395 35.8336 73.6135 34.7952 74.0369C34.0131 74.3288 33.1827 74.4693 32.3481 74.4511C31.9553 74.4208 31.5688 74.3352 31.1999 74.1969C30.7343 74.0243 30.331 73.7162 30.0422 73.3122C29.5896 72.6231 29.3386 71.8212 29.3175 70.9969C29.2046 69.3781 29.9011 67.0158 31.0493 64.5499C31.6046 63.3169 32.2446 62.0746 32.9316 60.8605L33.3364 60.164L33.6846 59.5993L34.3717 58.4887C36.2322 55.5311 38.3385 52.7353 40.6681 50.1311C42.9943 47.5687 45.491 45.1663 48.1411 42.9405L51.6328 40.0416L53.374 38.6111L54.2493 37.8958L55.1905 37.1616C57.6573 35.271 60.2945 33.6137 63.0681 32.2111C66.6089 30.3877 70.3657 29.0185 74.2493 28.1358C75.1905 27.9475 76.2069 27.7311 77.214 27.6275C78.2098 27.469 79.2177 27.3997 80.2258 27.4205C81.2328 27.4205 82.2493 27.5428 83.2469 27.6087C84.2446 27.6746 85.2422 27.8911 86.2211 28.1452C88.6681 28.8228 88.1034 29.4064 86.0234 30.0275C85.5152 30.1687 84.9034 30.404 84.2258 30.6299C83.8869 30.7428 83.5293 30.8464 83.1622 30.9781L82.0234 31.4393C81.2328 31.684 80.3858 32.1075 79.5105 32.3805C78.6352 32.6534 77.694 32.8887 76.6869 33.1334C73.196 34.005 69.8146 35.2679 66.6069 36.8981C63.3532 38.4058 60.2941 40.3019 57.4964 42.5452C54.4658 44.9734 51.5011 47.3922 48.6869 49.8393C45.886 52.2839 43.3123 54.9772 40.9975 57.8864C40.3011 58.7711 39.6328 59.684 38.9928 60.6252C38.6728 61.0864 38.3717 61.5664 38.0517 62.0558L37.5999 62.7711L37.374 63.1287C36.9807 63.7832 36.6649 64.4813 36.4328 65.2087C36.3718 65.3947 36.3339 65.5876 36.3199 65.7828C36.3199 65.9616 36.3858 66.2064 36.6022 66.2064C36.9881 66.1483 37.3518 65.9892 37.6564 65.7452C37.9643 65.5173 38.2538 65.2655 38.5222 64.9922L38.9269 64.5687L39.1152 64.3522L39.3787 64.0416C39.7175 63.6369 40.1222 63.1005 40.5081 62.6205C40.894 62.1405 41.2705 61.5946 41.6375 61.0769C42.3811 60.0416 43.0964 58.9687 43.7834 57.8769C45.1575 55.7028 46.4375 53.4534 47.614 51.1475C49.937 46.5355 51.8275 41.718 53.2611 36.7569C53.6773 35.2574 54.0134 33.7369 54.2681 32.2016C54.5262 30.7516 54.5958 29.2743 54.4752 27.8064C54.4414 27.2127 54.2843 26.6325 54.014 26.1028C53.8526 25.7555 53.5401 25.502 53.1669 25.4158C51.9545 25.2587 50.7225 25.4547 49.6187 25.9805C48.6211 26.3664 47.6046 26.8746 46.5881 27.3734C45.5716 27.8722 44.5928 28.5122 43.6234 29.1711C41.6502 30.5019 39.764 31.9575 37.9764 33.5287C34.402 36.6943 31.1399 40.1958 28.2352 43.9852C23.8361 49.8783 20.1464 56.269 17.2422 63.0252C16.5646 64.4934 16.0564 65.9899 15.3128 67.4299C14.5172 69.4439 13.4569 71.3429 12.1599 73.0769C11.7297 73.549 11.2571 73.9806 10.7481 74.3664C10.3694 74.684 9.94806 74.9469 9.49636 75.1475C9.14109 75.3469 8.77326 75.5229 8.39518 75.6746C7.87753 75.8064 7.67047 75.2228 7.59518 73.9805C7.59518 73.3687 7.53871 72.5781 7.5293 71.6369C7.57988 70.5846 7.74076 69.5404 8.0093 68.5216C8.4893 66.8652 8.95047 65.1805 9.55283 63.5146C10.1552 61.8487 10.8422 60.2393 11.5481 58.6111C13.0324 55.335 14.7009 52.1455 16.5458 49.0581C20.3402 42.6921 24.8979 36.8133 30.1175 31.5522C32.0969 29.5345 34.2339 27.6776 36.5081 25.9993C38.8628 24.2381 41.3847 22.7124 44.0375 21.444C44.7562 21.0947 45.4984 20.7959 46.2587 20.5499C46.6512 20.4274 47.0503 20.3269 47.454 20.2487C47.8587 20.1546 48.2446 20.0605 48.6869 19.9946C50.6733 19.5933 52.7298 19.7166 54.654 20.3522C54.802 20.3989 54.9466 20.4555 55.0869 20.5216C55.2442 20.571 55.3957 20.6373 55.5387 20.7193C55.87 20.8765 56.1852 21.0657 56.4799 21.284C57.0402 21.6913 57.5271 22.191 57.9199 22.7616C58.5453 23.6742 58.9659 24.7113 59.1528 25.8016C59.4761 27.4249 59.5491 29.0881 59.3693 30.7334L59.1905 30.7428Z" fill="black"/>
</svg>
