<svg width="96" height="96" viewBox="0 0 96 96" fill="none" xmlns="http://www.w3.org/2000/svg">
<path d="M43.2374 13.4951C45.0068 14.9634 46.1456 15.7445 45.4868 16.9398C45.1103 17.6081 45.4868 18.4363 45.4868 19.1798C45.5762 21.8386 45.8119 24.4905 46.1927 27.1234C46.3621 28.4693 46.6068 29.8151 46.8044 31.161C47.0021 32.5069 47.1997 33.8622 47.4256 35.2175C47.8303 37.5422 48.4515 39.8293 49.0068 42.1257C49.948 46.0034 51.0491 49.8528 52.1315 53.6928C52.6774 55.6693 53.0162 57.6928 53.5527 59.6693C54.6727 63.6034 56.0374 67.4622 57.3644 71.2928C57.7221 72.234 57.995 73.2693 58.3056 74.2481C58.6162 75.2269 58.8233 76.2622 59.1338 77.2504C59.3691 77.9751 59.8021 78.6057 60.075 79.3022C60.2445 79.5848 60.2984 79.922 60.2256 80.2434C59.9338 81.2598 58.3433 82.361 56.4609 82.6716C55.0585 82.9069 53.9574 82.841 53.6374 82.154C52.8374 80.5634 52.0562 78.9634 51.3221 77.354C50.588 75.7445 50.0327 74.0787 49.4397 72.4316C48.9409 71.1045 48.2068 69.8622 47.755 68.5163C47.0303 66.4175 46.5033 64.2528 45.8727 62.1257C44.9785 59.001 44.3291 55.8104 43.5197 52.714C42.5785 49.1093 41.6374 45.514 40.828 41.8716C40.5738 40.714 40.348 39.5657 40.1315 38.3987C39.8115 36.5822 39.5009 34.7563 39.2374 32.9116C39.0962 31.9704 38.9927 31.0292 38.9174 30.1445C38.8421 29.2598 38.7668 28.2622 38.6915 27.321C38.3219 23.3075 38.3787 19.2661 38.8609 15.2645C38.9074 14.9417 38.9927 14.6257 39.115 14.3234C39.8397 13.081 40.2727 12.921 43.2374 13.4951Z" fill="black"/>
<path d="M16.9414 53.4286C17.6379 51.3203 18.4285 49.9556 19.6896 50.3886C20.4143 50.6427 21.1296 50.1721 21.8543 50.0874C26.7108 49.4662 31.4826 48.5627 36.2073 47.5556C38.2197 47.0483 40.205 46.4389 42.1555 45.7297C43.8214 45.2121 45.4402 44.5345 47.0779 43.9321C48.7155 43.3297 50.3249 42.6145 51.9438 41.9086C53.5626 41.2027 55.3696 40.7321 57.0355 40.0262C60.3767 38.5486 63.6238 36.638 67.1626 35.3203C68.9602 34.5956 70.9273 34.1627 72.7532 33.5415C73.4216 33.2619 74.075 32.9478 74.7108 32.6003C74.9977 32.433 75.3471 32.412 75.652 32.5439C76.6591 33.0239 77.6943 35.198 78.0332 37.438C78.2873 39.1415 78.2779 40.3745 77.6849 40.6097C74.8991 41.598 72.1508 42.8215 69.4214 44.1392C68.8674 44.4219 68.3301 44.7362 67.812 45.0803C67.2809 45.3962 66.7308 45.6791 66.1649 45.9274C64.3673 46.6709 62.4849 47.2733 60.6214 47.9603C57.892 48.9674 55.1061 49.8992 52.3202 50.878C50.7296 51.4333 49.1391 52.0262 47.5296 52.5439C45.9202 53.0615 44.292 53.5509 42.6638 54.0497C41.6379 54.3697 40.5838 54.5674 39.5391 54.8121C36.2742 55.5665 32.9637 56.1072 29.6285 56.4309C26.1838 56.798 22.7391 57.0521 19.2755 57.1462C19.02 57.1696 18.7624 57.1505 18.5132 57.0897C17.4967 56.8168 17.3367 56.4403 16.9414 53.4286Z" fill="black"/>
</svg>
