<svg width="96" height="96" viewBox="0 0 96 96" fill="none" xmlns="http://www.w3.org/2000/svg">
<path d="M53.5929 64.4086C54.4353 64.2174 55.1863 63.7422 55.7199 63.0628C56.3737 62.1482 56.7967 61.0891 56.9529 59.9757C57.3466 57.0673 57.2959 54.1159 56.8023 51.2228C56.4823 48.9734 55.8611 46.7428 55.4282 44.4557L54.1482 38.3286C53.9317 37.2839 53.734 36.2298 53.5646 35.1286C53.4517 34.5639 53.4517 34.0087 53.3388 33.4345C53.2258 32.8604 53.254 32.2298 53.2635 31.6651C53.2005 29.2763 53.6264 26.8998 54.5152 24.6816C55.0132 23.5372 55.6759 22.4718 56.4823 21.5192C57.293 20.5853 58.2459 19.7849 59.3058 19.1475C61.1306 18.0871 63.1505 17.4052 65.2446 17.1428C67.2309 16.8743 69.2443 16.8743 71.2305 17.1428C76.256 17.6685 81.0106 19.6804 84.887 22.9216C86.054 23.9945 85.2164 24.5875 83.6635 24.6722C81.5671 24.7588 79.4738 24.4392 77.4988 23.731C73.592 22.1572 69.3418 21.6316 65.1693 22.2063C63.4084 22.4537 61.7659 23.2356 60.4635 24.4463C59.8632 25.0614 59.3673 25.7704 58.9952 26.5451C58.6123 27.428 58.3373 28.3539 58.1764 29.3028C57.977 30.5481 57.9516 31.8151 58.1011 33.0675C58.3051 34.462 58.5848 35.8444 58.9388 37.2087C59.654 40.0322 60.4917 42.9592 61.1411 45.9239C61.9134 49.242 62.3952 52.6211 62.5811 56.0228C62.6722 57.8306 62.5585 59.6429 62.2423 61.4251C61.9146 63.4098 61.0997 65.2822 59.8705 66.8745C58.2033 68.8401 55.8448 70.0901 53.2823 70.3663C51.0101 70.6128 48.7117 70.4146 46.5152 69.7828C43.3435 68.9545 40.5293 67.6839 37.734 66.7428C36.417 66.2624 35.0636 65.8879 33.687 65.6228C32.361 65.4252 31.013 65.4252 29.687 65.6228C27.652 65.9365 25.7291 66.7588 24.0964 68.0134C22.4576 69.2923 21.0121 70.8012 19.8046 72.4934L19.014 73.651C18.7693 74.0463 18.5246 74.451 18.2517 74.8369C16.3693 77.8392 15.4752 78.7051 13.6399 78.6016C13.2296 78.6351 12.8173 78.6351 12.407 78.6016C11.0988 78.2816 10.8823 76.3804 12.087 73.6228C13.009 71.4988 14.1711 69.4873 15.5505 67.6275C17.0812 65.5916 18.9537 63.8369 21.0846 62.4416C23.3987 60.9603 26.0057 59.9971 28.727 59.6181C29.414 59.5334 30.0917 59.4863 30.7788 59.4298C31.4658 59.3734 32.2188 59.4298 32.9152 59.4769C34.2372 59.5959 35.5469 59.8258 36.8305 60.1639C40.4823 61.1051 43.5035 62.5075 46.3458 63.4769C49.1882 64.4463 51.6635 64.9075 53.5458 64.3239L53.5929 64.4086Z" fill="black"/>
</svg>
