<svg width="96" height="96" viewBox="0 0 96 96" fill="none" xmlns="http://www.w3.org/2000/svg">
<path d="M4.75354 36.5948C4.62519 35.8909 4.75911 35.1644 5.13001 34.5525C5.51537 33.9951 6.08005 33.5865 6.73001 33.3948L7.38884 33.2631C7.6049 33.2443 7.82218 33.2443 8.03825 33.2631C9.34408 33.5466 10.4767 34.3527 11.1724 35.4936C11.3418 35.7007 11.4547 35.936 11.6053 36.1525C11.7587 36.3588 11.8971 36.5758 12.0194 36.8019C12.4283 37.324 12.6943 37.9435 12.7912 38.5995C12.7912 38.8066 12.33 38.9289 11.85 38.9289C11.37 38.9289 10.8241 38.8348 10.7112 38.5431C10.2959 37.5528 9.7819 36.6068 9.17707 35.7195C8.81065 35.2851 8.26759 35.0396 7.69943 35.0513C7.20308 34.97 6.73052 35.2933 6.62648 35.7854C6.55642 36.0703 6.64235 36.3711 6.85237 36.576C7.11253 36.7328 7.40591 36.8263 7.70884 36.8489C8.09536 36.9108 8.48495 36.9516 8.8759 36.9713C9.546 36.9778 10.214 37.0472 10.8712 37.1783C11.0306 37.199 11.1861 37.2434 11.3324 37.3101C11.8877 37.536 11.9535 37.8183 11.7559 38.2513C11.7114 38.3605 11.6611 38.4674 11.6053 38.5713C11.4346 38.8717 11.1017 39.0418 10.7582 39.0042C9.81707 38.8819 9.07354 38.8348 7.85943 38.7407C7.29478 38.7374 6.73476 38.6387 6.20296 38.4489C5.42681 38.1056 4.87028 37.4011 4.7159 36.5666L4.75354 36.5948Z" fill="black"/>
<path d="M6.56085 34.5707C6.87467 34.3524 7.23043 34.2017 7.60556 34.1283C7.73506 34.0881 7.86712 34.0566 8.00085 34.0342C8.43541 34.047 8.8635 34.1428 9.26203 34.3165C9.41816 34.3735 9.5787 34.4176 9.74203 34.4483C9.95377 34.4604 10.1512 34.5591 10.2879 34.7212C10.2879 34.7777 10.2126 35.0224 10.0714 35.2577C9.93027 35.493 9.76086 35.7377 9.66674 35.7471C9.38771 35.7857 9.10347 35.7433 8.84791 35.6248C8.69733 35.5495 8.54674 35.6248 8.42438 35.7095L7.96321 35.8507C7.86369 35.9013 7.76915 35.9611 7.68085 36.0295C7.53589 36.1472 7.42266 36.2992 7.35144 36.4718C7.35144 36.613 7.35144 36.7824 7.35144 36.9142C7.35144 37.0459 7.35144 36.9801 7.35144 37.0083C7.35144 37.0365 7.13497 37.1307 6.80556 37.1212H6.55144C6.32404 37.115 6.108 37.0205 5.94909 36.8577C5.78084 36.6388 5.65623 36.3896 5.58203 36.1236C5.58881 35.8768 5.65328 35.6351 5.77027 35.4177C5.95934 35.0806 6.21561 34.7859 6.52321 34.5518L6.56085 34.5707Z" fill="black"/>
<path d="M87.7838 33.8089C87.7056 33.6241 87.5704 33.4691 87.3979 33.3666C87.3318 33.3265 87.2625 33.2919 87.1908 33.263C86.9216 33.1498 86.6353 33.083 86.3438 33.0654C86.219 33.0468 86.0921 33.0468 85.9673 33.0654C85.8181 33.1177 85.6634 33.1525 85.5061 33.1689C85.4591 33.1689 85.3932 33.0654 85.3838 32.9336C85.3552 32.799 85.4065 32.6599 85.5155 32.576C85.87 32.3863 86.2734 32.3076 86.6732 32.3501C86.9112 32.369 87.1504 32.369 87.3885 32.3501C87.6725 32.3563 87.9531 32.4137 88.2167 32.5195C88.3984 32.5896 88.5695 32.6846 88.7249 32.8019C88.9723 33.014 89.1658 33.2817 89.2897 33.583C89.4345 33.8105 89.5366 34.0624 89.5908 34.3266C89.5908 34.383 89.5908 34.4395 89.5908 34.4866C89.5908 34.5336 89.5249 34.6466 89.3932 34.656C89.2373 34.6811 89.0784 34.6811 88.9226 34.656L88.6685 34.5995C88.4083 34.5199 88.1562 34.4159 87.9155 34.2889L87.7085 34.1289C87.652 34.1289 87.5485 34.1289 87.5673 34.1289H87.6897H87.7649V34.1289V34.1289C87.7622 34.1102 87.7622 34.0912 87.7649 34.0725C87.7649 34.016 87.7649 33.9501 87.7649 33.8842L87.7838 33.8089Z" fill="black"/>
<path d="M71.0309 70.9094C71.2168 70.5894 71.3713 70.2521 71.4921 69.9023C71.6194 69.5523 71.7078 69.1893 71.7556 68.82C71.7556 68.5282 71.7556 68.2364 71.7556 67.9352C71.8263 66.8195 71.8263 65.7004 71.7556 64.5847C71.7556 64.0764 71.6803 63.5776 71.6332 63.06C71.536 62.3875 71.5939 61.7018 71.8026 61.0552C71.8874 60.8482 72.1697 60.9517 72.4426 61.1588C72.7358 61.3563 72.9467 61.6542 73.0356 61.9964C73.1674 63.1635 73.2897 64.4152 73.3179 65.7611C73.3179 66.5611 73.5438 67.3705 73.5909 68.2176C73.6235 68.6939 73.6235 69.1719 73.5909 69.6482C73.5353 70.1412 73.4281 70.627 73.2709 71.0976C73.0941 71.6825 72.8308 72.2377 72.4897 72.7447C71.9419 73.5484 71.1646 74.1683 70.2591 74.5235C69.6265 74.8211 68.9595 75.0392 68.2732 75.1729C68.1226 75.1729 67.9815 75.2294 67.8309 75.2388C67.6348 75.2684 67.435 75.2184 67.276 75.1C67.1169 74.9816 67.0117 74.8045 66.9838 74.6082C66.9838 74.5047 66.9274 74.4105 66.9179 74.3164C66.9015 73.9673 67.099 73.6432 67.4168 73.4976C68.4615 72.9894 69.2991 72.5564 69.9203 72.2458C70.3931 71.9105 70.7644 71.4513 70.9932 70.9188L71.0309 70.9094Z" fill="black"/>
<path d="M58.6642 15.0687C59.2977 15.4229 59.8569 15.8958 60.3113 16.4617C60.726 17.0081 61.0618 17.61 61.309 18.2499C61.5048 18.6872 61.6622 19.1407 61.7795 19.6052C61.969 20.4111 62.0763 21.2341 62.0995 22.0617C62.0995 22.8993 62.0995 23.624 62.1748 24.3958C62.2603 25.0615 62.3988 25.7192 62.589 26.3628C62.8006 27.1639 63.179 27.9112 63.6995 28.5558C63.869 28.7158 63.7937 28.857 63.4925 28.8476C63.0219 28.7861 62.6039 28.5166 62.3537 28.1134C61.3727 26.4473 60.9045 24.5289 61.0078 22.5981C60.986 21.533 60.7823 20.4794 60.4054 19.4828C60.0748 18.4145 59.4482 17.4616 58.5984 16.7346C58.0739 16.3126 57.4473 16.0366 56.7819 15.9346C55.7113 15.809 54.6263 15.9447 53.6195 16.3299C52.8483 16.6527 52.1235 17.0768 51.4642 17.5911C51.3137 17.6946 51.1819 17.8264 51.0407 17.9299C50.5042 18.344 50.2972 18.4099 49.9113 18.1934C49.8196 18.1541 49.7314 18.1068 49.6478 18.0523C49.3748 17.8734 49.4219 17.4593 49.8078 17.0358C51.0447 15.7435 52.6532 14.8685 54.4101 14.5323C55.8428 14.1885 57.3505 14.3549 58.6737 15.0028L58.6642 15.0687Z" fill="black"/>
<path d="M11.2763 56.2932C11.442 57.1455 11.8318 57.9382 12.4057 58.5897C12.6355 58.8288 12.8842 59.0491 13.1492 59.2485C14.0845 60.0557 15.1919 60.6384 16.3869 60.952C16.9308 61.0899 17.4926 61.1439 18.0528 61.112C18.4198 61.112 18.7681 61.0179 19.1257 60.9991C19.4892 60.9756 19.8539 60.9756 20.2175 60.9991C20.4622 60.9991 20.5375 61.3662 20.4245 61.7897C20.3223 62.2889 19.9911 62.7108 19.5304 62.9285C17.7704 63.3342 15.9232 63.0937 14.3257 62.2509C13.3404 61.7885 12.4119 61.2137 11.5586 60.5379C10.6545 59.7259 9.96848 58.7001 9.56335 57.5544C9.31974 56.8522 9.19566 56.1141 9.19629 55.3709C9.2154 54.2657 9.49943 53.1812 10.0245 52.2085C10.3846 51.4551 10.8333 50.7474 11.361 50.1003C11.4824 49.9617 11.6112 49.8297 11.7469 49.705C12.2739 49.2532 12.5845 49.3097 12.9233 49.5732C13.0039 49.6258 13.0795 49.6857 13.1492 49.752C13.2594 49.8675 13.3113 50.0267 13.2904 50.185C13.2854 50.3878 13.2199 50.5845 13.1022 50.7497C12.3799 51.6898 11.8171 52.7423 11.4363 53.865C11.1997 54.6466 11.1641 55.4753 11.3328 56.2744L11.2763 56.2932Z" fill="black"/>
<path d="M28.001 50.0905C27.761 49.1478 27.3937 48.2423 26.9092 47.3987C26.3968 46.5315 25.8111 45.7097 25.1586 44.9423C23.8316 43.3235 22.3351 41.7799 20.8386 40.1046C19.7059 38.8847 18.7029 37.5505 17.8457 36.1235C17.0674 34.801 16.5409 33.3459 16.2927 31.8317C16.2268 31.0788 16.1139 30.3258 16.1045 29.5729C16.1372 28.8132 16.2127 28.0559 16.3304 27.3046C16.9093 24.3231 18.5432 21.65 20.9327 19.7752C23.0073 18.1297 25.4953 17.0876 28.1233 16.7635C28.5377 16.7025 28.9563 16.6741 29.3751 16.6788C29.7951 16.6553 30.2162 16.6553 30.6363 16.6788L31.8974 16.8105L32.5186 16.8858L33.1304 17.0552C33.5445 17.1588 33.9398 17.2905 34.3445 17.4223C34.7328 17.582 35.1129 17.761 35.4833 17.9588C35.8609 18.1337 36.2257 18.3349 36.5751 18.5611L37.5163 19.3046C38.3351 19.9446 37.9774 20.1329 37.0457 20.0482C36.5751 20.0482 36.0104 19.8693 35.3139 19.7752C34.9563 19.7752 34.5892 19.6905 34.2221 19.6152C34.0339 19.6152 33.8457 19.5211 33.648 19.4929L33.0457 19.4082C32.688 19.3611 32.3492 19.2482 32.001 19.1729L30.928 19.0788C30.2138 19.0223 29.4963 19.0223 28.7821 19.0788C27.3646 19.2445 25.9825 19.6353 24.688 20.2364C22.0336 21.3801 19.9369 23.5241 18.8527 26.2035C18.2656 27.9024 18.123 29.7233 18.4386 31.4929C18.8191 33.2923 19.5973 34.9838 20.7163 36.4435C22.0105 38.1536 23.406 39.7847 24.8951 41.3282C26.4833 42.9494 27.8734 44.7534 29.0363 46.7023C30.1975 49.261 30.8374 52.0254 30.9186 54.834C31.0295 56.8322 31.2621 58.8218 31.6151 60.7917C31.9613 62.6788 32.8586 64.4211 34.1939 65.7987C36.3088 67.8175 39.305 68.6224 42.1468 67.9352C42.7482 67.7923 43.3369 67.6003 43.9068 67.3611C46.0245 66.3635 46.5892 65.8364 47.3892 65.9493C47.5662 65.9521 47.7426 65.971 47.9163 66.0058C48.161 66.0811 48.1421 66.354 47.9163 66.787C47.7445 67.0602 47.5458 67.3156 47.3233 67.5493C46.9947 67.858 46.6457 68.1441 46.2786 68.4058C44.98 69.29 43.5123 69.8956 41.968 70.1846C38.632 70.747 35.2263 69.7002 32.7821 67.3611C31.5546 66.1796 30.6172 64.73 30.0433 63.1258C29.6373 62.0051 29.3533 60.8439 29.1963 59.6623C29.0268 58.514 28.9233 57.394 28.8292 56.2929C28.7291 54.1947 28.4425 52.1096 27.9727 50.0623L28.001 50.0905Z" fill="black"/>
<path d="M32.8572 63.0695L33.1113 63.7189C33.196 63.9354 33.3184 64.1236 33.4125 64.3213C33.5032 64.5151 33.6103 64.7009 33.7325 64.8766C33.8345 65.0545 33.9544 65.2216 34.0902 65.3754C34.6623 66.0651 35.3463 66.6537 36.1137 67.1166C37.659 68.0914 39.4781 68.5404 41.2996 68.3966C41.6537 68.3543 42.0014 68.2689 42.3349 68.1424C42.7238 67.9598 43.0955 67.7425 43.4455 67.493C44.2455 66.9283 45.1113 66.1095 46.2031 65.253C46.7941 64.7834 47.4238 64.3646 48.0854 64.0013C48.4542 63.8031 48.8345 63.6271 49.2243 63.4742C49.6384 63.3424 50.0525 63.2389 50.4666 63.126C52.0042 62.852 53.5823 62.9065 55.0972 63.286C57.0643 63.766 58.7019 64.3966 60.0478 64.5566C60.5871 64.6556 61.1424 64.6233 61.6666 64.4624C61.9019 64.4624 62.0902 64.246 62.3255 64.1707C62.5607 64.0954 62.7584 63.8507 62.9749 63.6154L63.5207 62.9754C63.6458 62.8048 63.7472 62.618 63.8219 62.4201C64.0142 61.8079 64.1405 61.1768 64.1984 60.5377C64.2831 59.7942 64.3584 58.9754 64.5466 58.0436C64.7399 56.9656 65.1813 55.9474 65.836 55.0695C67.1217 53.5862 68.8236 52.5238 70.7207 52.0201C72.1408 51.7014 73.5298 51.2573 74.8713 50.693C75.9918 50.1171 76.9327 49.2446 77.5913 48.1707C78.2531 47.0427 78.6069 45.7607 78.6172 44.453C78.6768 41.675 77.4507 39.025 75.2949 37.2719C73.4125 35.7283 70.7302 35.2954 68.0572 34.9942C65.3843 34.693 62.5984 34.6836 59.8502 34.6366C58.0807 34.6366 56.2925 34.5801 54.4854 34.4671C52.595 34.3982 50.7218 34.0818 48.9137 33.526C48.3954 33.348 47.902 33.1044 47.4454 32.8013C47.1865 32.6294 46.9439 32.4341 46.7207 32.2177L46.2313 31.6813C45.6028 30.9806 45.0478 30.2174 44.5749 29.4036C43.6337 27.8036 42.909 26.1942 42.0807 24.6977C41.036 22.8154 41.516 22.7589 43.0972 23.9824C44.1159 24.8483 45.0867 25.7689 46.0055 26.7401L47.7654 28.5001C48.0478 28.8201 48.349 29.1213 48.6407 29.4413L49.1019 29.893C49.1723 29.9529 49.2479 30.0065 49.3278 30.053C49.8989 30.3573 50.5155 30.567 51.1537 30.6742C51.9621 30.8344 52.7792 30.9475 53.6007 31.013C55.2949 31.173 57.0737 31.2295 58.8619 31.2766C62.5608 31.2787 66.2564 31.4955 69.9302 31.926C71.9945 32.1636 73.9995 32.7693 75.8502 33.7142C79.7144 35.9294 82.1144 40.0273 82.156 44.4813C82.2045 46.7256 81.546 48.9283 80.2737 50.7777C79.8797 51.3317 79.432 51.8456 78.9372 52.3119C78.6831 52.5377 78.4384 52.773 78.1843 52.9895L77.3466 53.5542C76.2684 54.2469 75.0954 54.7795 73.8643 55.1354C72.7631 55.4836 71.7466 55.7848 70.9184 56.133C70.5258 56.2895 70.1531 56.4917 69.8078 56.7354C69.6384 56.8389 69.5066 56.9801 69.356 57.093C69.2055 57.206 69.0549 57.3848 69.0078 57.4695C68.6065 58.1434 68.3801 58.9069 68.349 59.6907C68.2538 60.9081 68.065 62.1164 67.7843 63.3048C67.5916 64.0526 67.2733 64.7623 66.8431 65.4036C66.4397 65.9871 65.9725 66.5238 65.4502 67.0036C64.3104 68.0745 62.8323 68.7137 61.2713 68.8107C59.8289 68.855 58.3889 68.6643 57.0078 68.246C55.7749 67.926 54.6643 67.606 53.6572 67.446C52.7791 67.2607 51.8679 67.3061 51.0125 67.5777C50.0984 67.9619 49.2626 68.5106 48.5466 69.1966C47.573 70.0944 46.5315 70.9156 45.4313 71.653C44.771 72.0668 44.0546 72.3838 43.3043 72.5942C42.5675 72.801 41.8098 72.9242 41.0454 72.9613C38.1436 73.0607 35.2854 72.2332 32.8854 70.5989C31.4016 69.6077 30.1704 68.2829 29.2902 66.7307C28.463 65.2647 27.8752 63.6761 27.549 62.0248C26.909 58.8248 26.909 55.7754 26.3913 53.0083C26.0818 50.9783 25.2912 49.0518 24.0855 47.3895C22.6996 45.6354 21.2198 43.9577 19.6525 42.3636C17.9199 40.6793 16.4082 38.7818 15.1537 36.7166C13.871 34.4485 13.3405 31.8322 13.6384 29.2436C13.8652 27.3219 14.4023 25.4497 15.229 23.7001C16.8941 20.1096 19.9541 17.3555 23.6996 16.0766C25.5358 15.4373 27.4683 15.119 29.4125 15.1354C31.1188 15.1013 32.821 15.3136 34.4666 15.766C36.696 16.3069 38.74 17.4345 40.3866 19.0319C41.4016 20.0954 41.8672 21.5688 41.6478 23.0224C41.4972 23.4742 40.9419 23.3142 40.0572 22.8624C39.1725 22.4107 37.8455 21.7519 36.2172 20.9801C33.7234 19.8664 30.9815 19.4251 28.2643 19.7001C25.6845 19.9065 23.2624 21.0241 21.4313 22.853C20.5745 23.7574 19.8889 24.8097 19.4078 25.9589C18.9135 27.142 18.5964 28.3915 18.4666 29.6671C18.2596 32.0766 19.069 33.8648 20.8855 36.0766C22.2031 37.6577 23.9631 39.3895 25.7043 41.3001C26.589 42.2413 27.4455 43.2766 28.2925 44.3683C29.2295 45.6392 29.9747 47.0408 30.5043 48.5283C31.3167 51.1515 31.785 53.8692 31.8972 56.613C31.9734 58.7772 32.3309 60.9223 32.9607 62.9942L32.8572 63.0695Z" fill="black"/>
<path d="M75.4453 70.3637C75.3158 70.9831 75.087 71.5775 74.7676 72.1237C74.4392 72.6743 74.0299 73.1724 73.5535 73.6014C72.6962 74.3493 71.6884 74.9045 70.5982 75.2296C69.9046 75.4653 69.1887 75.6293 68.4617 75.719C66.0545 75.9096 63.6337 75.6086 61.3464 74.8343C60.342 74.4843 59.3717 74.0433 58.4476 73.5167C57.2154 72.8637 56.2451 71.807 55.6994 70.5237C55.53 70.1285 56.01 69.9308 56.6406 69.8837C57.2886 69.8126 57.9432 69.9337 58.5229 70.232C58.9276 70.5708 59.4641 70.759 59.8311 71.079C60.2648 71.3752 60.7176 71.6425 61.1864 71.879C62.1911 72.3663 63.2449 72.7449 64.33 73.0084C65.0195 73.1762 65.7332 73.2208 66.4382 73.1402C67.1298 73.0344 67.8124 72.8771 68.4806 72.6696C69.7635 72.401 70.8701 71.5959 71.5206 70.4579C71.8812 69.6921 72.0338 68.8449 71.9629 68.0014C71.8486 66.4209 71.6348 64.8491 71.3229 63.2955C70.9721 61.9127 70.8733 60.478 71.0311 59.0602C71.0822 58.7068 71.1706 58.3598 71.2947 58.0249C71.4528 57.5652 71.7932 57.1908 72.2359 56.9896C72.5998 56.8984 72.9853 56.9632 73.2994 57.1685C73.4781 57.2544 73.651 57.3519 73.817 57.4602C74.266 57.8871 74.5066 58.4885 74.4759 59.1073C74.4759 59.5496 74.4759 59.8508 74.4759 60.2179C74.4759 60.5849 74.5417 60.9614 74.5982 61.3755C74.7206 62.2226 74.9182 63.2579 75.1441 64.3308C75.6423 66.3014 75.7605 68.3489 75.4923 70.3637H75.4453Z" fill="black"/>
<path d="M57.4308 12.425C58.5441 12.4978 59.6334 12.782 60.6402 13.2626C61.7182 13.7876 62.6398 14.5858 63.3132 15.5779C63.7991 16.2139 64.1688 16.9308 64.405 17.6955C64.9885 20.2367 64.6967 22.4014 64.8002 24.4155C64.8433 25.2543 65.0212 26.0806 65.3273 26.8626C65.51 27.3343 65.7174 27.7961 65.9485 28.2461C66.0241 28.5086 66.1153 28.7663 66.2214 29.0179C66.3195 29.2893 66.449 29.5483 66.6073 29.7897C66.7767 30.1285 66.6073 30.2979 66.1367 30.392C65.3592 30.5417 64.5545 30.4497 63.8308 30.1285C63.6496 30.0244 63.4737 29.9113 63.3038 29.7897C63.1603 29.6524 63.0311 29.501 62.9179 29.3379C62.6601 29.0463 62.43 28.7312 62.2308 28.3967C61.8509 27.7444 61.5985 27.0257 61.4873 26.2791C61.2605 24.9966 61.1973 23.6905 61.2991 22.392C61.3356 21.7021 61.269 21.0105 61.1014 20.3403C61.0355 20.0108 60.9226 19.7097 60.8379 19.3991C60.7532 19.0885 60.6214 18.8532 60.5273 18.6085C60.1975 17.4966 59.2951 16.648 58.165 16.3873C57.3292 16.1747 56.4621 16.1141 55.605 16.2085C54.2108 16.3562 52.8703 16.8267 51.6897 17.5826C50.7801 18.2232 49.9409 18.9583 49.1861 19.7755C49.0208 19.9676 48.838 20.1441 48.6402 20.3026C48.3951 20.5604 48.0549 20.7064 47.6991 20.7064C47.3433 20.7064 47.0031 20.5604 46.7579 20.3026C46.6081 20.2035 46.4636 20.0967 46.325 19.9826C46.1139 19.7924 45.9912 19.5231 45.9861 19.2391C45.9634 18.8935 46.0454 18.5491 46.2214 18.2508C46.7765 17.2479 47.5101 16.3548 48.3861 15.6155C49.3196 14.7803 50.3611 14.0744 51.4826 13.5167C53.324 12.6008 55.3665 12.1638 57.4214 12.2461L57.4308 12.425Z" fill="black"/>
<path d="M11.8498 53.9692C11.7136 54.2424 11.6185 54.5341 11.5674 54.8351L11.4545 55.268C11.4683 55.412 11.4683 55.557 11.4545 55.7009V56.1433L11.5109 56.5668V57.0186L11.6615 57.4421C11.7171 57.6614 11.8235 57.8645 11.9721 58.0351C12.1227 58.2139 12.2357 58.4209 12.3674 58.6092C14.0817 60.8669 16.9789 61.8821 19.7274 61.188L20.5462 60.9433L21.3368 60.5951C21.8827 60.4068 22.3627 60.0962 22.9462 59.8986C23.3039 59.7762 23.6051 60.1809 23.6427 60.8398C23.6508 61.1993 23.5901 61.5571 23.4639 61.8939C23.3342 62.2824 23.075 62.6147 22.7298 62.8351L21.7886 63.428C21.4426 63.5978 21.0875 63.7486 20.7251 63.8798C19.9998 64.1588 19.2451 64.3545 18.4757 64.4633C18.0855 64.512 17.692 64.5278 17.2992 64.5103C16.9098 64.5168 16.521 64.4757 16.1415 64.388C15.7557 64.3127 15.3698 64.2374 14.9933 64.1339C14.6168 64.0303 14.2592 63.8609 13.9015 63.7103C12.0946 63.0176 10.4807 61.9008 9.19565 60.4539C7.82573 58.6987 7.27093 56.4418 7.67095 54.2515C7.76409 53.6038 7.94127 52.9711 8.19801 52.3692C8.38076 51.7488 8.66027 51.1612 9.02624 50.628C10.1521 49.2514 11.4309 48.0073 12.838 46.9198C13.3368 46.4962 13.7792 46.0351 14.2404 45.5739L14.9086 44.8774C15.1345 44.6515 15.3886 44.4539 15.6239 44.2562C15.8592 44.0586 16.0286 43.8798 16.2451 43.7198C16.5107 43.4473 16.8792 43.3001 17.2594 43.3144C17.6396 43.3288 17.996 43.5034 18.2404 43.7951C18.4098 43.9362 18.598 44.0586 18.758 44.1998C19.2712 44.7226 19.3271 45.5414 18.8898 46.1292C18.2959 47.1743 17.5506 48.1258 16.678 48.9527C15.8498 49.7151 14.9933 50.4115 14.2121 51.108C13.6776 51.5728 13.1716 52.0694 12.6968 52.5951C12.6016 52.6987 12.5135 52.8088 12.4333 52.9245L12.3109 53.0845L12.2451 53.2068C12.2125 53.2444 12.1841 53.2854 12.1604 53.3292L12.0851 53.5551L11.9345 53.988L11.8498 53.9692Z" fill="black"/>
<path d="M76.7911 18.6645C77.3364 18.6681 77.8642 18.8574 78.2876 19.201C78.5971 19.4705 78.8389 19.809 78.9934 20.1892C79.2342 20.7863 79.2931 21.4411 79.1629 22.0716C79.0998 22.4717 78.966 22.8573 78.7676 23.2104C78.0874 24.1576 77.1307 24.8711 76.0287 25.2528C75.6052 25.4222 75.1911 25.6104 74.777 25.7422C74.2697 25.9853 73.7109 26.1016 73.1487 26.081C72.9605 26.081 72.904 25.7422 72.9417 25.3563C72.9481 24.985 73.0924 24.6295 73.3464 24.3586C73.7981 24.1045 74.2029 23.8222 74.6076 23.5775L75.8687 23.0692C76.3085 22.8746 76.6442 22.5013 76.7911 22.0433C76.8581 21.8756 76.8932 21.6969 76.8946 21.5163C76.9016 21.4474 76.9016 21.3781 76.8946 21.3092C76.8998 21.2876 76.8998 21.265 76.8946 21.2433C76.8946 21.2433 76.8946 21.2433 76.9699 21.121L77.0546 20.9516V20.8763V20.8292V20.8292C77.0546 20.4528 77.0546 21.3375 77.0546 21.2433V21.2433C77.0546 21.2433 77.0546 21.2433 76.9981 21.2433C76.9417 21.2433 76.9323 21.2433 76.8193 21.3092C76.3788 21.7244 76.0211 22.2194 75.7652 22.768C75.5273 23.3425 75.2106 23.881 74.824 24.368C74.7176 24.4773 74.5974 24.5723 74.4664 24.6504C73.9299 24.9422 73.657 24.801 73.4123 24.4151L73.2523 24.1516C73.1497 23.8462 73.1497 23.5157 73.2523 23.2104C73.2792 23.1149 73.2981 23.0173 73.3087 22.9186V22.6269C73.3087 22.4763 73.3934 22.3257 73.4499 22.1563C73.5871 21.7399 73.7474 21.3314 73.9299 20.9328C74.1224 20.4879 74.3723 20.0702 74.6734 19.6904C74.7823 19.5554 74.9019 19.4295 75.0311 19.3139L75.2381 19.1257L75.5299 18.9563C75.9144 18.735 76.3476 18.6121 76.7911 18.5986V18.6645Z" fill="black"/>
<path d="M89.0267 30.3925C89.4444 30.5455 89.8281 30.779 90.1561 31.0795C90.5569 31.4285 90.8478 31.8862 90.9938 32.3972C91.148 32.9193 91.148 33.475 90.9938 33.9972C90.8719 34.4269 90.6529 34.823 90.3538 35.1548C90.028 35.5435 89.628 35.8634 89.1773 36.096C87.9259 36.5392 86.5862 36.6748 85.2714 36.4913C84.7444 36.4913 84.2267 36.4913 83.7185 36.3877C83.0362 36.3741 82.3688 36.1862 81.7797 35.8419C81.5914 35.7101 81.7797 35.3995 81.9867 35.0795C82.1938 34.7595 82.5891 34.4113 82.9279 34.3736C83.502 34.3736 84.0761 34.1948 84.6408 34.2042C85.2055 34.2136 85.7608 34.2042 86.3255 34.2042C86.9076 34.2081 87.4707 33.997 87.9067 33.6113C87.9752 33.5616 88.0383 33.5048 88.0949 33.4419C88.1514 33.4419 88.0949 33.3666 88.1985 33.3948C88.302 33.423 88.3491 33.3948 88.2832 33.3948H88.1985C88.1985 33.3948 88.1985 33.3948 88.1985 33.3289C88.0489 33.1298 87.8064 33.0228 87.5585 33.0466C86.8699 33.1178 86.2165 33.3857 85.6761 33.8183C85.1961 34.176 84.8102 34.6936 84.2926 35.1266C84.184 35.2307 84.0641 35.3223 83.9349 35.3995C83.4361 35.6819 83.1538 35.5783 82.7773 35.0325C82.6926 34.9101 82.6079 34.7877 82.5326 34.656C82.3326 34.3129 82.2981 33.898 82.4385 33.5266C82.5702 33.2913 82.7114 33.0466 82.8526 32.8207C82.9938 32.5948 83.2008 32.4066 83.3985 32.1995C83.8392 31.7513 84.3285 31.3536 84.8573 31.0136C85.3719 30.6703 85.9372 30.4099 86.5326 30.2419C87.3525 30.0148 88.222 30.041 89.0267 30.3172V30.3925Z" fill="black"/>
<path d="M50.5412 82.5242C49.7313 82.925 48.8137 83.0538 47.9248 82.8913C47.5 82.8114 47.0963 82.6448 46.7389 82.4019C46.3914 82.1495 46.1183 81.8081 45.9483 81.4137C45.8636 81.169 45.76 80.9431 45.6848 80.7078L45.6377 80.529C45.6377 80.4442 45.6377 80.3972 45.6377 80.3313C45.6377 80.2654 45.6377 80.0772 45.6377 79.9454V79.6066C45.6377 79.3242 45.7506 79.0607 45.8071 78.7878V78.5901C45.868 78.5471 45.9115 78.4837 45.9295 78.4113C45.9953 78.289 46.0424 78.1854 46.0989 78.0913C46.3089 77.7416 46.5448 77.4081 46.8048 77.0937C47.2519 76.5407 47.771 76.0501 48.3483 75.6348C48.7879 75.3012 49.1973 74.9296 49.5718 74.5242C49.8259 74.3172 50.0518 74.0819 50.2589 73.8842L50.4283 73.7337L50.6824 73.6678C50.8644 73.6295 51.0436 73.5792 51.2189 73.5172C51.4636 73.4513 51.6612 73.5172 51.9059 73.9313C52.0657 74.1818 52.1952 74.4503 52.2918 74.7313C52.3436 74.9011 52.3844 75.074 52.4142 75.249C52.4142 75.3431 52.4142 75.4184 52.4142 75.5219C52.3957 75.5856 52.3671 75.646 52.3295 75.7007C52.0802 76.0576 51.8033 76.3943 51.5012 76.7078C51.2111 76.9459 50.8954 77.1511 50.56 77.3195L48.8377 78.2042C48.7038 78.2823 48.5804 78.3772 48.4706 78.4866C48.3916 78.5972 48.3341 78.7218 48.3012 78.8537C48.2876 78.9456 48.2687 79.0368 48.2448 79.1266V79.3242V79.3901C48.2115 79.5755 48.2713 79.7655 48.4048 79.8984C48.567 80.027 48.7728 80.0877 48.9789 80.0678C49.1531 80.0714 49.3271 80.0525 49.4965 80.0113C49.6866 79.9337 49.857 79.8147 49.9953 79.6631C50.5534 79.1242 50.909 78.4097 51.0024 77.6395C51.0583 76.9744 51.0393 76.3051 50.9459 75.6442C50.9459 75.4937 50.9459 75.3431 50.9459 75.1831C51.0077 74.7116 51.4116 74.3602 51.8871 74.3642C51.9999 74.3551 52.1132 74.3551 52.2259 74.3642C52.6414 74.3894 53.0064 74.6485 53.1671 75.0325C53.343 75.3175 53.4494 75.6399 53.4777 75.9737C53.5337 76.3129 53.5651 76.6558 53.5718 76.9995C53.5945 77.7762 53.4929 78.5515 53.2706 79.296C53.0384 79.9129 52.7182 80.493 52.32 81.0184C52.1207 81.3122 51.8938 81.5864 51.6424 81.8372C51.4879 81.9917 51.3211 82.1333 51.1436 82.2607C50.9702 82.3842 50.7877 82.4943 50.5977 82.5901L50.5412 82.5242Z" fill="black"/>
</svg>
