<svg width="96" height="96" viewBox="0 0 96 96" fill="none" xmlns="http://www.w3.org/2000/svg">
<path d="M61.3642 64.9891C62.1161 63.8114 62.6841 62.5261 63.0489 61.1774C63.4662 59.7836 63.6475 58.3298 63.5854 56.8762C63.5103 55.7929 63.337 54.7187 63.0678 53.6668C62.2012 49.7424 59.9824 46.2476 56.7995 43.7938C55.3604 42.7346 53.7159 41.9876 51.9713 41.6009C51.4192 41.4679 50.8598 41.3673 50.296 41.2997C49.7313 41.2997 49.1572 41.2056 48.583 41.215C48.2894 41.2219 47.9959 41.1967 47.7078 41.1397C47.4112 41.1019 47.1126 41.083 46.8136 41.0833C46.5125 41.0833 46.2019 41.0833 45.8725 41.0833C45.5745 41.1183 45.2791 41.1717 44.9878 41.2433C44.2348 41.375 44.2725 41.2433 44.8278 40.8197C45.1101 40.6127 45.5148 40.3491 46.0136 39.9444C46.5882 39.4657 47.2206 39.061 47.896 38.7397C49.2886 38.3912 50.7311 38.2861 52.1595 38.4291C52.8822 38.4784 53.5963 38.6143 54.2866 38.8338C54.9781 39.0402 55.6543 39.295 56.3101 39.5962C58.8898 40.8034 61.1281 42.6342 62.823 44.9233C63.827 46.2773 64.7419 47.6952 65.5619 49.168C66.387 50.6733 67.0194 52.2765 67.4442 53.9397C68.9673 59.9889 67.2712 66.3962 62.9548 70.8997C60.5298 73.4096 57.4891 75.2399 54.136 76.208C51.5655 77.0629 48.8616 77.4456 46.1548 77.3374C45.5447 77.3385 44.9372 77.2594 44.3478 77.1021C42.1548 76.415 41.6654 75.6244 41.7972 74.335C41.8098 74.0437 41.8476 73.754 41.9101 73.4691C42.183 72.528 43.2183 72.2174 44.5078 72.208C45.0066 72.208 45.4489 72.208 45.9572 72.1327C46.4654 72.0574 46.8983 72.1327 47.3313 72.1327C48.2725 72.1327 49.1478 72.0197 50.0419 71.8974C51.8393 71.6329 53.5852 71.0933 55.2183 70.2974C55.8278 70.0125 56.4132 69.6789 56.9689 69.2997C57.2513 69.1021 57.5525 68.9327 57.816 68.7162L58.616 68.0668C59.6471 67.1678 60.5357 66.1174 61.2513 64.9515L61.3642 64.9891Z" fill="black"/>
<path d="M65.0538 55.5777L64.9502 54.2601L64.7432 53.0554C64.6686 52.6429 64.5616 52.2369 64.4232 51.8412C64.3262 51.4297 64.1875 51.0292 64.009 50.646C63.3829 49.0424 62.485 47.5587 61.3549 46.2601C59.0176 43.5631 55.7456 41.8515 52.1973 41.4695L50.2114 41.3095L48.1596 41.4507C47.4683 41.4917 46.7818 41.5924 46.1079 41.7518C45.4208 41.893 44.7338 41.9871 44.0467 42.1377C42.83 42.4538 41.6327 42.8404 40.4608 43.2954L38.7196 44.0765L37.4961 44.6318C36.969 44.8577 36.4232 45.2624 35.9432 45.4789L31.2373 46.8718L30.6538 47.0507C30.5657 47.0853 30.4742 47.1105 30.3808 47.126C30.3079 47.1134 30.2377 47.0879 30.1738 47.0507C29.8509 46.8175 29.6104 46.488 29.4867 46.1095C29.2072 45.3856 29.036 44.6245 28.9785 43.8507C28.9785 43.6342 28.9785 43.3895 28.9785 43.1636C28.9785 42.9377 28.922 42.7212 28.9032 42.4954C28.8843 42.2695 28.9032 42.006 28.9502 41.7518L29.0726 40.9612C29.2608 39.9071 29.4961 38.853 29.7596 37.7989C30.0985 36.4624 30.4749 35.1448 30.8702 33.8271C31.6702 31.2107 32.5361 28.6318 33.5149 26.0624C34.1738 24.3307 34.8608 22.5895 35.6514 20.8483C36.0364 19.9664 36.4797 19.1112 36.9785 18.2883C37.596 17.1861 38.4711 16.2496 39.529 15.5589C40.3103 15.2111 41.1588 15.0408 42.0138 15.0601C42.4391 15.0579 42.864 15.0894 43.2843 15.1542C43.642 15.2012 43.9338 15.2483 44.2255 15.3142C45.7804 15.6546 47.3166 16.0755 48.8279 16.5754L53.1479 17.9683L55.2655 18.6365C55.962 18.8907 56.6585 19.1165 57.3549 19.3424C58.7472 19.7944 60.1644 20.1653 61.5996 20.453C63.3408 20.7636 63.209 21.3942 61.5149 22.213C60.3634 22.694 59.1499 23.0108 57.9102 23.1542C57.1051 23.2611 56.2941 23.3176 55.482 23.3236H54.1643C53.7314 23.2483 53.289 23.1824 52.8373 23.0883C50.5408 22.5989 48.3102 22.006 46.1926 21.5165C45.2122 21.2721 44.2194 21.0804 43.2185 20.9424L42.6161 20.886V20.886H42.5596C42.5596 20.7918 42.4749 21.0083 42.3996 21.1307L42.1455 21.6012C41.7785 22.2695 41.3455 23.0318 40.9596 23.8412C40.169 25.4601 39.4255 27.1918 38.7196 28.9518C38.0138 30.7118 37.3173 32.4812 36.6773 34.2883L35.7361 37.0083L35.2938 38.373L35.0773 39.0601C35.0527 39.1213 35.0244 39.1811 34.9926 39.2389C34.7365 39.75 34.583 40.3064 34.5408 40.8765C34.5408 40.9518 34.5408 41.0554 34.6349 41.0648C34.729 41.0742 34.7479 41.0177 34.8138 40.9895L35.1526 40.8765L35.9432 40.453C36.0813 40.4166 36.2119 40.356 36.329 40.2742L37.7126 39.7001L39.0961 39.126L40.5549 38.6742C41.4961 38.373 42.4373 37.9777 43.4538 37.733L46.4561 37.0836C47.5761 36.933 48.7243 36.8765 49.8632 36.773C51.002 36.6695 52.169 36.8671 53.3173 36.9236L55.0302 37.253C55.6084 37.34 56.1782 37.4753 56.7338 37.6577C57.867 37.9824 58.9669 38.4142 60.0185 38.9471C62.1421 39.9886 64.0562 41.4114 65.6655 43.1448C67.2503 44.8802 68.5496 46.8562 69.5149 48.9989C69.769 49.6765 70.0326 50.3542 70.2773 51.0318C70.522 51.7095 70.6538 52.453 70.8138 53.1589C70.9738 53.8648 71.049 54.5424 71.1338 55.2483C71.2185 55.9542 71.2655 56.6601 71.2749 57.366C71.3513 60.2514 70.8819 63.1253 69.8914 65.8365C69.1113 67.8812 68.0087 69.7877 66.6255 71.4836C65.2312 73.1588 63.6018 74.6234 61.7879 75.8318C58.2013 78.2251 54.0589 79.6545 49.7596 79.9824C43.0751 80.5468 36.4066 78.7263 30.9361 74.8436L29.1855 73.4789C28.6208 73.0083 28.1032 72.4718 27.5761 71.9354C26.7642 71.0831 26.0593 70.1349 25.4773 69.1118C25.1013 68.3976 24.8076 67.643 24.602 66.8624C24.4487 66.307 24.4293 65.7232 24.5455 65.1589C24.7073 64.6496 24.9385 64.1651 25.2326 63.7189C25.4359 63.3425 25.6655 62.9808 25.9196 62.6365C26.3243 62.2036 26.9549 62.3636 27.9902 62.7777C28.2684 62.8622 28.5319 62.9892 28.7714 63.1542C29.0161 63.3236 29.2138 63.5307 29.4867 63.7189C30.0589 64.1609 30.5998 64.6421 31.1055 65.1589C31.5667 65.5448 32.0467 65.9118 32.4232 66.3165C32.7996 66.7212 33.3643 67.0412 33.7502 67.4083C34.1958 67.7706 34.6642 68.1039 35.1526 68.406C35.6006 68.7477 36.0689 69.062 36.5549 69.3471C38.4486 70.5527 40.5146 71.4635 42.682 72.0483C46.9046 73.2786 51.4266 72.9718 55.4443 71.1824C56.9203 70.5164 58.2928 69.6416 59.5196 68.5848C59.8258 68.3378 60.1151 68.0705 60.3855 67.7848C60.6697 67.51 60.9399 67.221 61.1949 66.9189C61.4707 66.6258 61.7224 66.3111 61.9479 65.9777C62.1982 65.6801 62.4278 65.3657 62.6349 65.0365C64.3946 62.2118 65.1936 58.8938 64.9126 55.5777H65.0538Z" fill="black"/>
</svg>
