<svg width="96" height="96" viewBox="0 0 96 96" fill="none" xmlns="http://www.w3.org/2000/svg">
<path d="M37.1175 41.9987C39.0058 41.5912 40.8003 40.8313 42.4069 39.7587C43.9156 38.7966 45.1277 37.4347 45.9081 35.8245C46.0304 35.5328 46.1528 35.241 46.2563 34.8834L46.4257 33.9422C46.4885 33.6325 46.5169 33.3169 46.5104 33.001C46.5279 32.6875 46.5279 32.3733 46.5104 32.0598C46.4976 31.4756 46.4187 30.8946 46.2752 30.3281C46.1484 29.7325 45.9591 29.1521 45.7104 28.5963C45.1662 27.4045 44.4565 26.2955 43.6022 25.3022C41.7155 23.1576 39.4382 21.3913 36.8916 20.0975C34.5628 18.907 32.084 18.0364 29.5222 17.5092C27.8987 17.139 26.2504 16.8874 24.5904 16.7563C23.0136 16.5893 21.4196 16.7073 19.8846 17.1045C19.0563 17.4622 18.8399 17.2269 19.4234 16.3045C19.8928 15.7314 20.472 15.2578 21.1269 14.9116C22.0282 14.4548 23.0163 14.1949 24.0257 14.1492C25.894 14.0626 27.7663 14.1572 29.6163 14.4316C31.4524 14.6663 33.2678 15.0407 35.0469 15.5516C36.8584 16.0751 38.6143 16.7749 40.2893 17.641C42.0063 18.5108 43.6117 19.5852 45.0704 20.841C46.96 22.3969 48.5761 24.2578 49.8516 26.3469C51.1909 28.6211 51.8262 31.2412 51.6775 33.8763C51.6116 34.5822 51.4799 35.2881 51.3669 35.9845C51.254 36.681 50.9528 37.3304 50.7457 37.9892C50.4696 38.6531 50.1553 39.3004 49.8046 39.9281C49.4195 40.5671 48.9886 41.1773 48.5152 41.754C46.7287 43.8287 44.4689 45.4428 41.9269 46.4598C38.9425 47.6842 35.7405 48.2893 32.5152 48.2387C30.0466 48.2054 27.6079 47.694 25.334 46.7328L24.4681 46.3657L23.6493 45.8763L22.8304 45.3869C22.5669 45.2175 22.294 45.001 22.0399 44.8034C21.0003 43.9486 20.1208 42.9162 19.4422 41.754C18.9056 40.8204 18.5331 39.8017 18.341 38.7422C18.1351 37.5927 18.2126 36.4103 18.5669 35.2975C18.9274 34.1752 19.5464 33.1533 20.374 32.314C21.2222 31.457 22.2605 30.8121 23.4046 30.4316C24.3569 30.0943 25.359 29.9194 26.3693 29.914C27.5679 29.8532 28.7575 30.1514 29.7857 30.7704C30.3759 31.2167 30.724 31.9129 30.7269 32.6528C30.7781 33.0143 30.797 33.3797 30.7834 33.7445C30.6987 34.9304 29.2399 35.4575 27.5269 35.4575C26.5722 35.3914 25.6201 35.6179 24.7975 36.1069C24.3574 36.4418 24.0506 36.9221 23.9316 37.4622C23.9323 37.9803 24.0756 38.4883 24.3457 38.9304C24.5631 39.3028 24.8289 39.6446 25.1363 39.9469C25.2912 40.1067 25.458 40.2546 25.6352 40.3892L25.8987 40.5775L26.2563 40.7751C28.9575 42.4128 33.2963 42.8457 37.0799 41.8387L37.1175 41.9987Z" fill="black"/>
<path d="M71.5463 63.4484C68.858 63.7087 66.1454 63.3712 63.6028 62.4602C61.0168 61.5358 58.7167 59.9527 56.9298 57.8672C56.2527 57.0802 55.6538 56.2291 55.1416 55.326C54.6739 54.4099 54.332 53.4348 54.1251 52.4272C53.9491 51.5786 53.8545 50.715 53.8428 49.8484C53.8491 49.0203 53.9089 48.1935 54.0216 47.3731C54.244 45.8227 54.6256 44.2994 55.1604 42.8272C56.2054 40.0539 57.5498 37.403 59.1698 34.9213C59.8663 33.839 60.591 32.7566 61.3722 31.7025C62.1534 30.6484 62.9439 29.6602 63.791 28.6907C64.8826 27.3717 66.1239 26.1841 67.4898 25.1519C67.8621 24.8844 68.252 24.6423 68.6569 24.4272C69.1044 24.2221 69.5709 24.0613 70.0498 23.9472C71.1234 23.6498 72.2689 23.757 73.2687 24.2484C73.8992 24.5966 73.9557 24.9919 73.7769 25.1896C73.5981 25.3872 73.1463 25.566 72.6851 25.8484C72.2164 26.1464 71.8336 26.5617 71.5745 27.0531L71.1134 27.8249C71.0381 27.9566 70.9345 28.0884 70.8592 28.2296L70.4828 28.5496C68.336 30.4223 66.4579 32.5822 64.9016 34.9684C64.1204 36.1731 63.2639 37.4625 62.511 38.7331C61.7581 40.0037 61.0334 41.3496 60.3651 42.6955C58.8216 45.9049 58.5769 49.7355 59.7816 52.3425C60.0954 53.0824 60.542 53.7586 61.0992 54.3378C61.723 54.9705 62.4252 55.5209 63.1887 55.9755C64.7522 56.9189 66.523 57.465 68.3463 57.566C70.6939 57.7389 73.0477 57.3283 75.1981 56.3707C76.8276 55.65 78.294 54.6062 79.5087 53.3025C80.6774 52.0953 81.418 50.5381 81.6169 48.8696C81.7212 47.7104 81.3852 46.5545 80.6757 45.6319C80.0577 44.8405 79.1698 44.3044 78.1816 44.126C77.7635 44.0726 77.3414 44.0569 76.9204 44.079H76.3557C76.2722 44.0702 76.19 44.0512 76.111 44.0225H75.8663C75.562 43.9984 75.2666 43.9085 75.0004 43.759C74.4219 43.4431 73.918 43.0065 73.5228 42.479C73.2969 42.206 73.0334 41.9613 72.8451 41.7072C72.5203 41.2371 72.5203 40.615 72.8451 40.1449C73.0636 39.7671 73.3258 39.4165 73.6263 39.1002C74.0509 38.7252 74.5472 38.4402 75.0851 38.2625C75.5329 38.0666 76.0099 37.9458 76.4969 37.9049C76.994 37.8196 77.4992 37.7912 78.0028 37.8202C78.5335 37.8268 79.0626 37.8803 79.584 37.9802C80.1016 38.1119 80.6381 38.2437 81.1651 38.4225C83.3181 39.2599 85.1097 40.825 86.2287 42.846C87.3405 44.8328 87.8198 47.1115 87.6028 49.3778C87.5037 50.4622 87.273 51.5304 86.9157 52.559C86.5454 53.5274 86.0754 54.4548 85.5134 55.326C83.9426 57.7207 81.8101 59.6949 79.3016 61.0766C76.9162 62.422 74.2858 63.2764 71.5651 63.5896L71.5463 63.4484Z" fill="black"/>
<path d="M53.0804 69.2265C53.2249 68.5999 53.179 67.9445 52.9486 67.3442C52.6517 66.5458 52.2008 65.8135 51.6215 65.1889C50.0694 63.5786 48.2514 62.2478 46.2474 61.2548C44.7133 60.4265 43.0004 59.9183 41.3627 59.1936C38.5415 57.9651 35.5295 57.2328 32.4592 57.0289C29.336 56.8301 26.2049 57.2655 23.2545 58.3089C20.6348 59.3128 18.2204 60.7864 16.1298 62.6571C13.5039 65.123 10.9345 67.7018 9.87094 71.1277C9.57918 72.1818 9.18388 72.0689 8.77918 70.9771C8.54319 70.2097 8.44131 69.4074 8.478 68.6053C8.50436 67.4577 8.76373 66.3273 9.24035 65.283C9.7133 64.2995 10.2641 63.3553 10.8874 62.4595C11.5213 61.5986 12.2265 60.7926 12.9956 60.05C13.7385 59.3088 14.5208 58.6082 15.3392 57.9512L16.6098 57.01L17.9462 56.0689C21.6124 53.7681 25.8032 52.437 30.1251 52.2006C32.7154 52.0523 35.3139 52.1342 37.8898 52.4453C40.4593 52.769 42.9847 53.3782 45.4192 54.2618C48.0733 55.2761 50.6002 56.5964 52.9486 58.1959C54.1958 59.0483 55.3448 60.0363 56.3745 61.1418C57.4956 62.35 58.3856 63.7536 59.0004 65.283C59.1509 65.8006 59.3015 66.3089 59.4427 66.8265C59.5839 67.3442 59.5651 67.8901 59.6121 68.4265C59.6264 69.4876 59.4933 70.5455 59.2168 71.5701C58.6011 73.5062 57.4955 75.2504 56.0074 76.6336C53.9192 78.5982 51.3361 79.9581 48.5345 80.5677C45.8938 81.1502 43.176 81.2996 40.4874 81.01C38.1878 80.786 35.9858 79.9687 34.0968 78.6383C33.6024 78.2662 33.1396 77.8538 32.7133 77.4053C32.478 77.1324 32.2521 76.8501 32.0262 76.5677C31.8004 76.2853 31.6498 75.9465 31.4709 75.6265C30.7911 74.2985 30.5726 72.7819 30.8498 71.3159C31.068 70.0829 31.5425 68.9094 32.2427 67.8712C32.6939 67.2009 33.2319 66.5932 33.8427 66.0642C34.2343 65.721 34.688 65.4558 35.1792 65.283C35.9775 65.0354 36.8459 65.1784 37.5227 65.6689C37.9126 65.8732 38.287 66.106 38.6427 66.3653C39.7721 67.3065 39.3862 68.9724 38.3792 70.5724C38.0632 71.0862 37.7954 71.6281 37.5792 72.1912C37.4992 72.4054 37.5309 72.6453 37.6639 72.8312C37.7345 72.9438 37.8404 73.0298 37.9651 73.0759H38.0404C38.0886 73.088 38.1336 73.1105 38.1721 73.1418C38.3254 73.2711 38.4891 73.3876 38.6615 73.49C39.4935 73.9548 40.4137 74.2402 41.3627 74.3277C42.6727 74.4636 43.9948 74.432 45.2968 74.2336C45.8145 74.1583 46.3321 74.0736 46.8498 73.9606L47.5086 73.8006L48.1109 73.6312C48.945 73.3405 49.7387 72.9452 50.4733 72.4548C51.139 72.0112 51.7273 71.4611 52.2145 70.8265C52.5997 70.3629 52.8417 69.7971 52.9109 69.1983L53.0804 69.2265Z" fill="black"/>
</svg>
