<svg width="96" height="96" viewBox="0 0 96 96" fill="none" xmlns="http://www.w3.org/2000/svg">
<path d="M60.7081 58.379C60.7081 58.379 68.0681 52.0167 68.9905 53.852C70.4681 56.8167 64.9622 69.099 63.9928 69.7108C63.0234 70.3225 55.6634 65.9461 54.4775 63.3673C53.7434 61.7955 54.2799 58.0967 57.5175 57.7202C58.6248 57.578 59.7478 57.8099 60.7081 58.379Z" fill="black"/>
<path d="M58.0923 20.6375C57.1691 20.9169 56.2742 21.2824 55.4193 21.7292C54.6141 22.1606 53.8623 22.685 53.1793 23.2916C51.8211 24.432 50.7804 25.9038 50.1582 27.5645C49.7017 28.7865 50.1703 30.1608 51.2782 30.8493C51.7305 31.1653 52.2699 31.333 52.8217 31.3293C53.5656 31.3573 54.307 31.2257 54.9958 30.9434C57.4178 29.8863 59.4089 28.0378 60.6429 25.701C60.8568 25.2885 61.012 24.8482 61.104 24.3928V24.2422V24.0351V23.6116C61.1278 23.3298 61.1278 23.0464 61.104 22.7645C61.0365 21.6582 60.7144 20.5824 60.1629 19.621C58.8836 17.5967 56.9354 16.0848 54.657 15.3481C53.4582 14.9124 52.2144 14.6125 50.9487 14.454C49.6954 14.308 48.4275 14.3429 47.184 14.5575C44.543 15.0928 41.9854 15.9791 39.5793 17.1928C37.3393 18.2563 35.1276 19.4987 32.8311 20.7034C30.4938 22.0164 27.9983 23.0254 25.4052 23.7057C23.5781 24.1533 21.67 24.1533 19.8429 23.7057C19.3878 23.585 18.9414 23.4341 18.5064 23.254C18.0747 23.0958 17.6562 22.9038 17.2546 22.6798C16.3721 22.2374 15.5754 21.6415 14.9017 20.9198C13.4776 19.3779 12.8853 17.2434 13.3111 15.1881C13.7084 13.4684 14.4584 11.85 15.5135 10.4351C16.7746 8.71278 17.057 9.31513 16.8405 11.1128C16.7101 12.2658 16.6472 13.4254 16.6523 14.5857C16.6521 15.2189 16.7216 15.8501 16.8593 16.4681C16.9817 16.9424 17.1925 17.3895 17.4805 17.7857C17.7658 18.1699 18.128 18.4904 18.544 18.7269C18.7951 18.8709 19.0561 18.9967 19.3252 19.1034C19.6312 19.2315 19.9457 19.3384 20.2664 19.4234C20.8148 19.6108 21.3904 19.7062 21.9699 19.7057C22.5673 19.7465 23.1673 19.7181 23.7582 19.621C26.2899 19.1881 29.104 17.7387 31.937 16.1951C34.8989 14.4717 37.967 12.9376 41.1229 11.6022C42.8382 10.8894 44.6283 10.3716 46.4593 10.0587C48.3885 9.77296 50.3522 9.81752 52.2664 10.1904C54.5222 10.5931 56.6969 11.3625 58.704 12.4681C59.7469 13.0525 60.7222 13.7501 61.6123 14.5481C62.515 15.3788 63.3003 16.3287 63.9464 17.3716C65.2117 19.5452 65.8136 22.0414 65.6782 24.5528C65.5742 25.8972 65.1826 27.2035 64.5299 28.3834C63.9647 29.4417 63.2691 30.4251 62.4593 31.3104C60.7135 33.2828 58.4998 34.7846 56.0217 35.6775C54.6275 36.1668 53.135 36.309 51.6735 36.0916C50.8934 35.9316 50.1437 35.6489 49.4523 35.254C48.7889 34.8685 48.1941 34.3755 47.6923 33.7951C46.6402 32.6876 45.9791 31.2663 45.8099 29.7481C45.7365 29.0132 45.7682 28.2716 45.904 27.5457C45.9479 27.1998 46.0267 26.8592 46.1393 26.5293C46.2186 26.2069 46.3257 25.892 46.4593 25.5881C46.9449 24.3912 47.608 23.2744 48.4264 22.2751C49.1965 21.2981 50.0742 20.4109 51.0429 19.6304C51.6355 19.1378 52.2647 18.691 52.9252 18.294C53.5935 17.9363 54.2523 17.5693 54.9299 17.2775C56.2681 16.6555 57.6606 16.1577 59.0899 15.7904C61.939 15.0359 64.8957 14.7717 67.8335 15.0092C70.1343 15.1843 72.3757 15.8247 74.4217 16.8916C76.5239 18.0539 78.2486 19.795 79.3911 21.9081C80.4981 24.014 80.9967 26.3865 80.8311 28.7598C80.7702 29.9092 80.584 31.0485 80.2758 32.1575C79.9778 33.2517 79.5809 34.3164 79.0899 35.3387C77.528 38.3915 75.4231 41.1343 72.8782 43.4328C70.5252 45.7387 68.0593 47.7245 66.0076 49.8893C65.1481 50.798 64.3702 51.7806 63.6829 52.8257C62.8445 54.0998 62.1649 55.4715 61.6593 56.9104C61.3662 57.7191 60.9151 58.4613 60.3323 59.094C60.1152 59.3849 59.8761 59.6586 59.617 59.9128C59.2123 60.2328 58.7605 59.9128 58.2805 58.8681C57.6445 57.2272 57.5554 55.4249 58.0264 53.7293C58.4494 52.0545 59.1526 50.4635 60.1064 49.0234C61.008 47.6822 62.0252 46.4225 63.1464 45.2587C64.2287 44.1198 65.3393 43.0563 66.4311 42.0398L69.6405 39.1504C71.5884 37.489 73.2208 35.4899 74.4593 33.2492C75.5552 31.2158 76.0297 28.9053 75.824 26.6045C75.6281 25.0633 74.9494 23.6236 73.8852 22.4916C72.7285 21.297 71.2566 20.455 69.6405 20.0634C65.8235 19.1684 61.8291 19.3972 58.1393 20.7222L58.0923 20.6375Z" fill="black"/>
<path d="M63.551 65.9085C64.7434 63.6715 65.7386 61.3348 66.5251 58.925C66.66 58.4949 66.7731 58.0583 66.8639 57.6168L66.9298 57.2968V57.2121C66.9298 57.1556 66.9298 57.0991 66.9298 57.0332C67.0294 56.7853 67.0523 56.5132 66.9957 56.2521C66.8169 56.0168 66.5345 56.1579 66.2804 56.2521L65.8569 56.4403H65.791L65.678 56.5532L65.4145 56.7038L64.8875 57.0332L62.7416 58.3415L61.7345 58.9532L61.1698 59.2732L60.7839 59.4426C60.6481 59.4829 60.5097 59.5144 60.3698 59.5368C60.0824 59.5743 59.7913 59.5743 59.5039 59.5368C59.231 59.5368 59.071 59.4615 58.8545 59.4332L57.7157 59.1791L54.9486 58.5297C54.0784 58.2746 53.1869 58.0982 52.2851 58.0026C51.7486 58.0026 51.7016 57.6826 52.1722 57.2215C52.9702 56.5663 53.9636 56.1955 54.9957 56.1673C55.2686 56.1673 55.5322 56.1673 55.8051 56.1673L56.5769 56.2709L58.0639 56.4968C58.5439 56.5815 59.0051 56.6568 59.4286 56.7038H59.7298C59.8522 56.7038 59.7298 56.7038 59.7298 56.7038V56.7038V56.7038L59.8428 56.6379L60.078 56.4779L60.6239 56.0826L61.8004 55.2262C62.2051 54.9438 62.6098 54.6426 63.0428 54.3791L64.6239 53.4379C65.4442 52.9403 66.3317 52.5631 67.2592 52.3179C68.0436 52.1001 68.8843 52.2489 69.5463 52.7226C70.1239 53.3288 70.4588 54.1259 70.4875 54.9626C70.5822 55.9606 70.5474 56.9666 70.3839 57.9556C69.7665 60.6563 68.8903 63.2912 67.7675 65.8238C67.438 66.5956 67.0804 67.3673 66.6851 68.1391L66.2898 68.8732C66.1497 69.1434 65.9925 69.4043 65.8192 69.6544C65.5264 70.1404 65.1193 70.5475 64.6333 70.8403L64.4639 70.9344C64.0521 70.9956 63.6334 70.9956 63.2216 70.9344L62.6004 70.765C62.3933 70.6897 62.1957 70.5956 61.9886 70.5109C61.6178 70.3602 61.2564 70.1873 60.9063 69.9932C60.6145 69.8332 60.3416 69.6638 60.0686 69.5038C58.9675 68.8262 57.9228 68.1109 56.9063 67.3391C55.2226 66.1893 53.6475 64.8883 52.2004 63.4521C51.8898 63.1038 51.551 62.7932 51.2592 62.4168C50.2333 60.9768 50.318 60.2426 51.2122 59.4803C51.4123 59.292 51.6262 59.119 51.8522 58.9626C52.6589 58.5301 53.6598 58.7406 54.2239 59.4615C56.3628 61.7325 58.728 63.7792 61.2828 65.5697C61.5651 65.7673 61.8569 65.9556 62.1392 66.1344C62.4216 66.3132 62.7698 66.5015 62.9486 66.605C62.9486 66.605 62.9486 66.605 62.9486 66.6709C62.9486 66.7368 62.9486 66.6709 63.0051 66.6709V66.6709C63.0051 66.6709 63.0051 66.7368 63.0616 66.5768L63.4098 65.9085H63.551Z" fill="black"/>
<path d="M56.9817 75.2637C56.7746 75.0472 57.2358 74.9719 58.1017 74.9531C58.5038 74.968 58.9023 75.0345 59.2876 75.1508C59.4836 75.2763 59.6665 75.4214 59.8334 75.5837C59.9953 76.1327 60.118 76.6926 60.2005 77.259C60.2857 77.6338 60.2857 78.023 60.2005 78.3978C60.0499 79.1319 59.9087 79.8755 59.7205 80.6002C59.6767 80.7684 59.5927 80.9234 59.4758 81.0519C59.0983 81.4996 58.8537 82.0441 58.7699 82.6237C58.7699 82.7178 58.6946 82.8025 58.7699 82.9343C58.7625 83.601 58.5702 84.2526 58.2146 84.8167C57.7817 85.1837 57.4334 85.5884 57.0193 85.9461C56.9534 85.9461 57.0193 86.0872 56.7934 86.0778C56.3793 86.0778 56.3699 86.2096 56.2758 86.3319C56.1415 86.5204 55.9682 86.6777 55.7676 86.7931C55.5945 86.849 55.4125 86.8713 55.2311 86.859C54.9765 86.792 54.7412 86.6663 54.544 86.4919C54.4311 86.3225 54.1581 86.2661 53.9511 86.1531C53.8752 86.1231 53.8026 86.0853 53.7346 86.0402C53.5137 85.5253 53.3588 84.9845 53.2734 84.4308L53.3393 84.1672C53.3393 84.0167 53.4052 83.8096 53.4617 83.6025C53.5384 83.2923 53.5981 82.9781 53.6405 82.6614C53.6405 82.5578 53.7628 82.5014 53.8476 82.4355C53.9323 82.3696 54.0546 81.1084 54.0734 81.0614C54.2052 80.8261 54.1581 80.5343 54.5534 80.3931C54.6381 80.3931 54.6381 80.3084 54.6476 80.2519C54.7786 79.8053 54.9685 79.378 55.2123 78.9814C55.2936 78.7643 55.3565 78.5407 55.4005 78.3131C55.4005 78.3131 55.4758 78.2378 55.504 78.2096C55.5323 78.1814 55.6076 78.1249 55.617 78.0684C55.8106 77.5464 55.9402 77.0028 56.0028 76.4496C56.0028 76.3178 56.5111 75.8002 56.4828 75.6496C56.4546 75.499 57.0664 75.3767 56.9817 75.2637Z" fill="black"/>
<path d="M72.6893 70.7935C72.4352 70.8594 72.5387 70.4453 72.8116 69.7488C72.9642 69.4312 73.1606 69.1365 73.3952 68.8735C73.58 68.7632 73.7755 68.6718 73.9787 68.6006C74.0916 68.6006 75.2304 68.8359 75.6446 68.8924C76.0056 68.9522 76.3512 69.0834 76.661 69.2782C77.2822 69.6265 77.9128 69.9465 78.5434 70.2853C78.6815 70.3626 78.7955 70.4766 78.8728 70.6147C79.161 71.0592 79.5928 71.3914 80.0963 71.5559C80.1913 71.6156 80.312 71.6156 80.4069 71.5559C80.6704 71.4335 81.894 72.0735 81.9693 72.2524C82.0737 72.4718 82.19 72.6855 82.3175 72.8924C82.4399 73.09 82.5528 73.3159 82.6657 73.5229C82.7787 73.73 82.7787 73.5229 82.7316 73.7676C82.5999 74.2288 82.7316 74.2194 82.8446 74.3229C82.9701 74.4903 83.0657 74.6782 83.1269 74.8782C83.1509 75.0783 83.1509 75.2805 83.1269 75.4806C83.0675 75.7653 82.9558 76.0366 82.7975 76.2806C82.6498 76.4835 82.5442 76.7139 82.4869 76.9582C82.4869 77.0429 82.4116 77.1465 82.3834 77.2124C81.7655 77.5499 81.0878 77.7641 80.3881 77.8429L80.0869 77.73C79.9081 77.6641 79.6728 77.5888 79.4469 77.4947C78.9952 77.2971 78.5057 77.0712 78.4493 77.0429C78.3928 77.0147 78.3081 76.8641 78.2704 76.7418C78.2328 76.6194 76.9622 76.0924 76.934 76.0453C76.7363 75.8194 76.4352 75.7535 76.4352 75.2735C76.4352 75.1794 76.3787 75.1606 76.3316 75.1324C75.9495 74.817 75.6137 74.4495 75.334 74.0406C75.1679 73.8634 74.9851 73.7026 74.7881 73.5606C74.7881 73.5606 74.7881 73.4571 74.7316 73.41C74.6752 73.3629 74.7316 73.2782 74.6469 73.25C74.2482 72.8388 73.8135 72.464 73.3481 72.13C73.2352 72.0735 72.9622 71.3865 72.821 71.3394C72.6799 71.2924 72.8022 70.7653 72.6893 70.7935Z" fill="black"/>
</svg>
