<svg width="96" height="96" viewBox="0 0 96 96" fill="none" xmlns="http://www.w3.org/2000/svg">
<path d="M55.738 26.3473C55.4556 28.0697 51.8698 29.5944 51.8604 26.3473C51.8604 23.8532 56.0956 24.1544 55.738 26.3473Z" fill="black"/>
<path d="M52.1057 35.8819C51.861 37.3878 48.7081 38.7055 48.7081 35.8819C48.6893 33.689 52.4069 33.9619 52.1057 35.8819Z" fill="black"/>
<path d="M72.9066 33.8659C72.6525 35.4377 69.3584 36.8307 69.3584 33.8659C69.3584 31.6259 73.236 31.8518 72.9066 33.8659Z" fill="black"/>
<path d="M68.1811 21.01C67.9458 22.4312 64.9717 23.6923 64.9717 21.01C64.9717 18.9394 68.4729 19.1935 68.1811 21.01Z" fill="black"/>
<path d="M62.0829 43.0333C61.8287 44.5957 58.5723 45.9792 58.5723 43.0333C58.5723 40.7745 62.4593 41.0381 62.0829 43.0333Z" fill="black"/>
<path d="M79.5984 25.6599C79.3537 27.1375 76.2666 28.4834 76.2666 25.6599C76.2666 23.5046 79.909 23.7681 79.5984 25.6599Z" fill="black"/>
<path d="M78.035 47.7303C77.7527 49.4244 74.2139 50.9303 74.2139 47.7303C74.2139 45.2738 78.3833 45.575 78.035 47.7303Z" fill="black"/>
<path d="M65.8475 34.3927C65.5087 36.4633 61.1416 38.2986 61.1416 34.3927C61.1792 31.3904 66.271 31.7574 65.8475 34.3927Z" fill="black"/>
<path d="M51.8701 49.4423C51.6254 50.9294 48.5195 52.2658 48.5195 49.4423C48.5101 47.2776 52.1807 47.5411 51.8701 49.4423Z" fill="black"/>
<path d="M40.0212 32.7286C39.7859 34.1592 36.793 35.4298 36.793 32.7286C36.793 30.6862 40.3224 30.8933 40.0212 32.7286Z" fill="black"/>
<path d="M54.0543 14.1018C53.7532 15.9277 49.9414 17.5465 49.9414 14.1018C49.9414 11.4571 54.4308 11.7771 54.0543 14.1018Z" fill="black"/>
<path d="M43.4569 44.8785C43.1651 46.6855 39.4004 48.2761 39.4004 44.8785C39.391 42.262 43.8333 42.582 43.4569 44.8785Z" fill="black"/>
<path d="M45.1692 31.9373C44.3786 33.1985 41.0374 33.1891 42.1292 30.6385C42.9574 28.6809 46.1857 30.3373 45.1692 31.9373Z" fill="black"/>
<path d="M39.3623 40.5484C38.6376 41.6872 35.5976 41.6778 36.6141 39.3719C37.367 37.6119 40.2753 39.1555 39.3623 40.5484Z" fill="black"/>
<path d="M58.3089 45.7451C57.4336 47.1098 53.8007 47.1098 54.9865 44.3145C55.8712 42.1404 59.4195 43.9569 58.3089 45.7451Z" fill="black"/>
<path d="M59.7582 32.3123C58.5817 34.1946 53.6217 34.1946 55.2405 30.3734C56.4829 27.4746 61.2735 29.9311 59.7582 32.3123Z" fill="black"/>
<path d="M44.5774 49.8193C43.815 51.024 40.615 51.024 41.6597 48.5675C42.4409 46.6852 45.5185 48.2852 44.5774 49.8193Z" fill="black"/>
<path d="M67.7577 40.8112C66.9012 42.1665 63.2965 42.1571 64.4729 39.3995C65.3765 37.2724 68.8588 39.0795 67.7577 40.8112Z" fill="black"/>
<path d="M57.7529 60.5403C56.7365 62.1497 52.4541 62.1403 53.8565 58.865C54.9294 56.3521 59.0518 58.4791 57.7529 60.5403Z" fill="black"/>
<path d="M51.3436 43.315C50.3365 44.9056 46.1389 44.8962 47.5036 41.6774C48.5577 39.2115 52.6236 41.3009 51.3436 43.315Z" fill="black"/>
<path d="M32.9149 51.8048C32.0584 53.1601 28.4537 53.1601 29.6302 50.3931C30.5243 48.2848 34.0161 50.0731 32.9149 51.8048Z" fill="black"/>
<path d="M28.6712 31.8149C27.7865 33.1985 24.1159 33.1985 25.3112 30.3749C26.2335 28.2196 29.7912 30.0549 28.6712 31.8149Z" fill="black"/>
<path d="M48.445 20.0306C47.5791 21.4047 43.9462 21.3953 45.1321 18.6094C46.0356 16.473 49.5556 18.28 48.445 20.0306Z" fill="black"/>
<path d="M26.9391 45.5551C25.9979 47.0892 21.9132 47.0798 23.2402 43.9645C24.2473 41.5833 28.1814 43.6068 26.9391 45.5551Z" fill="black"/>
<path d="M60.2093 40.0022C59.2681 41.5928 55.0516 41.6681 56.3599 38.4399C57.3575 35.9646 61.4422 37.9693 60.2093 40.0022Z" fill="black"/>
<path d="M54.1761 48.5676C53.4797 49.7252 50.4114 49.7723 51.3526 47.4288C52.1056 45.6593 55.0797 47.1088 54.1761 48.5676Z" fill="black"/>
<path d="M73.0189 53.2746C72.2754 54.4982 69.0471 54.5641 70.0542 52.0699C70.826 50.1782 73.9695 51.7217 73.0189 53.2746Z" fill="black"/>
<path d="M73.6585 39.6835C72.8867 40.954 69.5362 41.0199 70.5809 38.4223C71.3809 36.4458 74.6938 38.0458 73.6585 39.6835Z" fill="black"/>
<path d="M59.7387 57.8196C58.9104 59.1938 55.3057 59.2502 56.4257 56.4738C57.2822 54.3373 60.8022 56.0973 59.7387 57.8196Z" fill="black"/>
<path d="M82.3926 48.2188C81.6491 49.4423 78.4585 49.5082 79.3997 47.0141C80.1997 45.1223 83.3338 46.6847 82.3926 48.2188Z" fill="black"/>
<path d="M72.8119 68.1347C71.8708 69.6124 68.0214 69.6877 69.2355 66.6853C70.1108 64.3889 73.9037 66.2524 72.8119 68.1347Z" fill="black"/>
<path d="M65.9317 51.0146C65.0941 52.3981 61.4705 52.464 62.5999 49.6593C63.4658 47.5228 67.0046 49.2546 65.9317 51.0146Z" fill="black"/>
<path d="M47.88 59.9366C47.08 61.2543 43.6164 61.3108 44.6988 58.6378C45.5176 56.5955 48.9059 58.2519 47.88 59.9366Z" fill="black"/>
<path d="M43.0334 39.9556C42.3181 41.1415 39.2687 41.1885 40.2099 38.8073C40.9252 36.9815 43.9464 38.4591 43.0334 39.9556Z" fill="black"/>
<path d="M62.8827 27.8608C62.0263 29.2632 58.3369 29.3291 59.4851 26.4773C60.3604 24.3408 63.9651 26.1008 62.8827 27.8608Z" fill="black"/>
<path d="M41.9695 53.8754C40.9718 55.5225 36.6518 55.5977 37.9977 52.2566C39.0236 49.706 43.2495 51.7766 41.9695 53.8754Z" fill="black"/>
<path d="M57.7529 69.9699C57.8282 68.4075 60.8682 66.6663 61.2165 69.5652C61.5176 71.7863 57.7529 71.9652 57.7529 69.9699Z" fill="black"/>
<path d="M58.5999 59.5975C58.6564 58.2328 61.3199 56.7175 61.6211 59.2493C61.847 61.1881 58.5246 61.3387 58.5999 59.5975Z" fill="black"/>
<path d="M39.5885 64.5682C39.6638 62.9117 42.9015 61.0576 43.2685 64.1353C43.5509 66.507 39.4944 66.6953 39.5885 64.5682Z" fill="black"/>
<path d="M45.81 76.8029C45.8759 75.297 48.803 73.6217 49.1418 76.417C49.3959 78.5346 45.7253 78.6852 45.81 76.8029Z" fill="black"/>
<path d="M49.3385 54.2141C49.4044 52.6423 52.4632 50.8917 52.8115 53.8094C53.0468 56.0023 49.282 56.1812 49.3385 54.2141Z" fill="black"/>
<path d="M33.8464 73.5276C33.9123 71.8993 37.0934 70.0829 37.4511 73.104C37.724 75.4193 33.7523 75.6076 33.8464 73.5276Z" fill="black"/>
<path d="M32.8775 51.3915C32.9528 49.6221 36.3975 47.6268 36.7928 50.9303C37.094 53.4621 32.7834 53.6597 32.8775 51.3915Z" fill="black"/>
<path d="M47.0426 63.1381C47.1179 61.4346 50.4402 59.5334 50.8073 62.6957C51.0991 65.1146 46.9485 65.3122 47.0426 63.1381Z" fill="black"/>
<path d="M58.5804 46.6858C58.6557 45.0575 61.8181 43.2411 62.1851 46.2622C62.4581 48.5681 58.4957 48.7093 58.5804 46.6858Z" fill="black"/>
<path d="M72.4827 61.8097C72.5485 60.3885 75.3062 58.7979 75.6356 61.4426C75.8803 63.4567 72.4074 63.6261 72.4827 61.8097Z" fill="black"/>
<path d="M61.3197 81.8654C61.3761 80.5666 63.9079 79.1172 64.1997 81.5266C64.4162 83.3901 61.2444 83.5219 61.3197 81.8654Z" fill="black"/>
<path d="M67.2682 49.0202C67.2682 47.4014 70.1671 45.632 70.5247 48.6437C70.7977 50.9402 67.2118 51.0814 67.2682 49.0202Z" fill="black"/>
<path d="M39.1745 61.0761C39.2498 59.4102 42.4968 57.5467 42.8639 60.6431C43.1462 63.0055 39.0803 63.2031 39.1745 61.0761Z" fill="black"/>
<path d="M40.1722 50.6757C40.2287 49.3769 42.751 47.9369 42.9958 50.3369C43.2593 52.1722 40.0969 52.3322 40.1722 50.6757Z" fill="black"/>
<path d="M21.1131 55.6546C21.179 54.017 24.3696 52.1911 24.7366 55.2311C25.0096 57.5558 21.0472 57.744 21.1131 55.6546Z" fill="black"/>
<path d="M27.1745 67.8897C27.2404 66.2615 30.4121 64.4544 30.7698 67.4662C31.0427 69.772 27.0804 69.9603 27.1745 67.8897Z" fill="black"/>
<path d="M30.7885 45.2743C30.8638 43.6649 33.9885 41.8767 34.3461 44.8508C34.6191 47.1378 30.7038 47.3167 30.7885 45.2743Z" fill="black"/>
<path d="M15.5133 64.5682C15.5792 63.1 18.4404 61.4529 18.7698 64.1917C19.0239 66.2906 15.4004 66.4506 15.5133 64.5682Z" fill="black"/>
<path d="M14.1201 42.535C14.2048 40.5303 18.1013 38.2997 18.553 42.0174C18.8919 44.8598 14.0072 45.0856 14.1201 42.535Z" fill="black"/>
<path d="M28.228 56.4258C28.2939 54.9294 31.2021 53.2635 31.5315 56.04C31.7857 58.1576 28.1433 58.327 28.228 56.4258Z" fill="black"/>
<path d="M40.115 37.7155C40.1808 36.1155 43.2961 34.3366 43.6444 37.3013C43.9173 39.5696 40.0208 39.7484 40.115 37.7155Z" fill="black"/>
<path d="M54.2427 52.8499C54.2427 51.6641 56.605 50.337 56.8685 52.5488C57.0662 54.2146 54.1674 54.3652 54.2427 52.8499Z" fill="black"/>
<path d="M42.5805 72.9818C42.6464 71.4759 45.5923 69.7912 45.9311 72.5959C46.1852 74.7418 42.4958 74.9206 42.5805 72.9818Z" fill="black"/>
<path d="M48.6899 40.0964C48.7558 38.5623 51.7581 36.8494 52.0969 39.7011C52.3605 41.8941 48.6052 42.0729 48.6899 40.0964Z" fill="black"/>
</svg>
