<svg width="96" height="96" viewBox="0 0 96 96" fill="none" xmlns="http://www.w3.org/2000/svg">
<path d="M31.1366 53.9676C31.1366 53.9676 33.9601 62.73 29.1225 64.8194C24.2848 66.9088 33.0001 71.2194 36.6519 67.4264C40.3036 63.6335 39.1742 54.8523 36.6519 53.9676C34.8469 53.4717 32.9416 53.4717 31.1366 53.9676V53.9676Z" fill="black"/>
<path d="M28.5197 64.8474C29.3498 65.2841 30.2467 65.5799 31.1738 65.7227C31.8259 65.852 32.5005 65.8099 33.1314 65.6003C33.4252 65.4725 33.6981 65.3012 33.9408 65.0921C34.2897 64.7807 34.6052 64.4337 34.882 64.0568C35.494 63.1652 35.9786 62.1927 36.322 61.1674C36.8389 59.4851 37.1549 57.7475 37.2632 55.9909C37.5545 52.7079 37.3578 49.3998 36.6797 46.1744C35.9777 42.8563 34.8912 39.6314 33.442 36.565C32.115 33.8164 30.4384 31.2509 28.4538 28.9321C27.842 28.1697 27.1644 27.4732 26.4961 26.7579L24.5008 24.6027C23.8138 23.9062 23.155 23.1721 22.4491 22.4756C21.7432 21.7791 21.0467 21.0356 20.3408 20.3203C19.4938 19.3791 20.0491 18.8709 21.442 18.8238C23.4918 18.8013 25.4969 19.4236 27.1738 20.6027C28.115 21.2332 28.9244 21.9297 29.7808 22.6262C30.207 22.9789 30.6095 23.3593 30.9855 23.765C31.3714 24.1603 31.7667 24.5462 32.1338 24.9603C33.6318 26.5967 35.0095 28.3393 36.2561 30.1744C37.5025 32.0319 38.5977 33.9864 39.5314 36.0191C40.4128 38.0858 41.1058 40.2278 41.602 42.4191C42.7597 47.6238 43.8985 53.1579 43.1079 58.805C42.7232 62.0457 41.5678 65.1471 39.7385 67.8497C39.2101 68.5868 38.6043 69.2652 37.9314 69.8732C37.1884 70.5184 36.3462 71.0396 35.4373 71.4168C34.5381 71.7882 33.5845 72.0107 32.6138 72.0756C31.7081 72.1578 30.7954 72.1103 29.9032 71.9344C27.9179 71.5362 26.0288 70.7562 24.3408 69.638C22.7247 68.5784 21.2535 67.3129 19.9644 65.8732C18.9731 64.787 18.1196 63.5826 17.4232 62.2874C16.6639 60.9096 16.1932 59.3917 16.0397 57.8262C15.9092 56.2696 16.1014 54.7027 16.6044 53.2238C17.1789 51.6401 18.2524 50.2859 19.6632 49.365C20.7119 48.7021 21.8729 48.2364 23.0891 47.9909C24.2333 47.7485 25.4024 47.6442 26.5714 47.6803C28.8993 47.7665 31.1841 48.3337 33.282 49.3462C34.247 49.7716 35.1571 50.312 35.9926 50.9556C36.3615 51.2456 36.7105 51.56 37.0373 51.8968C37.2924 52.1975 37.5312 52.5117 37.7526 52.8379C38.0945 53.3644 38.3192 53.9582 38.4114 54.5791C38.5048 55.443 38.2121 56.3041 37.6114 56.9321C37.3998 57.193 37.1599 57.4298 36.8961 57.638C36.482 57.9109 35.955 57.7603 35.362 57.4779L34.2985 57.0074C34.1036 56.943 33.9219 56.8442 33.762 56.7156C33.5832 56.6027 33.4138 56.4803 33.2444 56.3485C32.6891 55.9909 32.1808 55.5862 31.6067 55.2379C31.0159 54.8849 30.4029 54.5705 29.7714 54.2968C28.4949 53.7776 27.1455 53.46 25.7714 53.3556C25.1619 53.3124 24.5494 53.3377 23.9455 53.4309C23.4898 53.5261 23.0577 53.7117 22.675 53.9768C22.4216 54.1683 22.2209 54.4209 22.0914 54.7109C21.9276 55.0835 21.8289 55.4814 21.7997 55.8874C21.7997 56.0662 21.7997 56.2921 21.7997 56.4897C21.7997 56.6874 21.7997 56.9509 21.7997 57.1768C21.8093 57.3426 21.8377 57.5068 21.8844 57.6662C21.9231 57.8429 21.9766 58.0161 22.0444 58.1838C22.4019 59.0803 22.8973 59.9155 23.5126 60.6591C24.8742 62.3722 26.6051 63.7556 28.5761 64.7062L28.5197 64.8474Z" fill="black"/>
<path d="M70.3358 58.4482C72.8958 68.9329 64.124 70.58 64.124 70.58C64.124 70.58 69.4228 75.2859 72.5946 71.9165C75.7664 68.5471 76.1617 63.5965 74.9758 61.2153C73.7899 58.8341 70.3358 58.4482 70.3358 58.4482Z" fill="black"/>
<path d="M65.0752 70.5222C65.9034 70.9555 66.7967 71.2512 67.7199 71.3975C68.3752 71.5263 69.0527 71.4842 69.687 71.2751C69.9766 71.1448 70.246 70.9736 70.487 70.7669C70.8332 70.4528 71.1484 70.1061 71.4282 69.7316C72.0408 68.8303 72.5254 67.8484 72.8682 66.8139C73.3842 65.1314 73.7001 63.3939 73.8093 61.6375C74.1009 58.3544 73.9043 55.0463 73.2258 51.821C72.5178 48.5076 71.4315 45.2864 69.9882 42.221C68.6566 39.475 66.9804 36.91 64.9999 34.588C64.3882 33.8351 63.7105 33.1292 63.0423 32.4233L61.047 30.268C60.3599 29.5716 59.7011 28.828 59.0046 28.141C58.3082 27.4539 57.6305 26.7104 56.9246 25.9951C56.0776 25.0539 56.6423 24.5457 58.0258 24.4986C60.0756 24.4761 62.0807 25.0984 63.7576 26.2775C64.6988 26.908 65.5082 27.6045 66.374 28.301C66.7973 28.6536 67.1966 29.0341 67.5693 29.4398C67.9552 29.8351 68.3599 30.221 68.7176 30.6351C70.2079 32.2708 71.5762 34.0135 72.8117 35.8492C74.0545 37.7089 75.1496 39.6631 76.087 41.6939C76.9625 43.7619 77.6523 45.9037 78.1482 48.0939C79.3152 53.2986 80.454 58.8328 79.6635 64.4798C79.2692 67.7197 78.1111 70.8197 76.2846 73.5245C75.7647 74.2626 75.1615 74.9385 74.487 75.5386C73.0112 76.8372 71.1492 77.6144 69.1882 77.7504C68.2825 77.8326 67.3698 77.7851 66.4776 77.6092C64.4817 77.2017 62.5834 76.4123 60.887 75.2845C59.272 74.2273 57.8036 72.9614 56.5199 71.5198C55.5284 70.4496 54.6776 69.2573 53.9882 67.9716C52.4217 65.21 52.1199 61.9078 53.1599 58.908C53.7375 57.326 54.8103 55.9726 56.2188 55.0492C57.266 54.394 58.4236 53.9347 59.6352 53.6939C60.7825 53.4511 61.9548 53.3469 63.127 53.3833C65.442 53.4656 67.7159 54.0196 69.8093 55.0116C70.7746 55.446 71.6872 55.9891 72.5293 56.6304C72.8953 56.9204 73.2412 57.2349 73.5646 57.5716C73.847 57.901 74.0729 58.2398 74.2799 58.5128C74.6218 59.0308 74.8525 59.614 74.9576 60.2257C75.0525 61.0926 74.7597 61.9572 74.1576 62.588C73.9483 62.8512 73.7082 63.0882 73.4423 63.2939C73.0282 63.5669 72.5011 63.4069 71.9082 63.1339L70.8446 62.6633C70.6507 62.5969 70.4693 62.4983 70.3082 62.3716C70.1293 62.2586 69.9693 62.1363 69.7905 62.0045C69.2352 61.6375 68.727 61.2422 68.1529 60.8939C67.549 60.5351 66.9199 60.2206 66.2705 59.9528C64.994 59.4335 63.6446 59.116 62.2705 59.0116C61.6641 58.9685 61.0548 58.9938 60.454 59.0869C59.9948 59.1804 59.5594 59.3661 59.174 59.6328C58.9271 59.8308 58.7277 60.0816 58.5905 60.3669C58.4248 60.7383 58.3291 61.1371 58.3082 61.5433C58.3082 61.7222 58.3082 61.948 58.3082 62.1457C58.3082 62.3433 58.3082 62.6069 58.3082 62.8328C58.3178 62.9986 58.3462 63.1628 58.3929 63.3222C58.4372 63.4974 58.4907 63.6701 58.5529 63.8398C58.9141 64.7345 59.4091 65.5691 60.0211 66.3151C61.3841 68.0192 63.1067 69.4012 65.0658 70.3622L65.0752 70.5222Z" fill="black"/>
</svg>
