<svg width="96" height="96" viewBox="0 0 96 96" fill="none" xmlns="http://www.w3.org/2000/svg">
<path d="M24.4963 64.1573C24.1185 64.9374 23.8554 65.7679 23.7152 66.6232C23.5081 67.8091 23.4328 69.1173 23.2634 70.5855C23.2076 71.1828 23.1197 71.7766 22.9999 72.3644C22.9999 72.5244 22.9152 72.6938 22.8493 72.8914C22.7815 73.0975 22.6997 73.2988 22.6046 73.4938C22.4878 73.7341 22.3459 73.9612 22.181 74.1714C21.5876 74.8846 20.7088 75.2981 19.781 75.3008C19.2153 75.298 18.6615 75.1384 18.181 74.8397C17.5555 74.4082 17.0658 73.8075 16.7693 73.1079C16.3971 72.234 16.15 71.312 16.0352 70.3691L15.9505 69.7385C15.9505 69.6538 15.9505 69.5032 15.9505 69.4655V68.8632C15.9505 68.5244 15.9505 68.1291 15.9505 67.715C15.9596 67.5331 15.9596 67.3509 15.9505 67.1691C15.9505 66.7173 15.5081 66.3691 15.1881 66.6514C14.9017 66.9292 14.6855 67.2712 14.5575 67.6491C14.4032 68.0916 14.2805 68.5445 14.1905 69.0044L14.1152 69.2867V69.4373L13.9928 69.7667C13.8422 70.1714 13.6822 70.5761 13.5316 70.9903C13.4375 71.2161 13.221 71.2444 12.9105 71.2914C12.4936 71.3277 12.0806 71.1877 11.7716 70.9055C11.3615 70.5289 11.0401 70.0661 10.8305 69.5503C10.6824 69.2866 10.5685 69.0051 10.4916 68.7126C10.4816 68.1793 10.5257 67.6464 10.6234 67.122C10.7647 66.3387 10.9565 65.5653 11.1975 64.8067C11.4183 64.137 11.7354 63.5029 12.1387 62.9244C12.441 62.4544 12.8051 62.027 13.221 61.6538C13.5541 61.3667 13.9245 61.1261 14.3222 60.9385C14.7067 60.7679 15.1171 60.6629 15.5363 60.6279C16.0305 60.5828 16.5286 60.647 16.9952 60.8161C17.2188 60.9076 17.4358 61.0146 17.6446 61.1361C17.7896 61.2437 17.9279 61.36 18.0587 61.4844C18.3111 61.7522 18.5351 62.0456 18.7269 62.3597C18.8774 62.664 19.0063 62.9785 19.1128 63.3008C19.2348 63.7308 19.3105 64.1725 19.3387 64.6185C19.4328 65.5597 19.4328 66.642 19.4705 67.5832V68.402L19.5175 69.0703C19.5175 69.3526 19.5646 69.6255 19.6022 69.8985C19.6665 70.3874 19.7865 70.8674 19.9599 71.3291C20.0013 71.4583 20.065 71.5794 20.1481 71.6867C20.2046 71.6867 20.054 71.762 19.9693 71.8655L19.8375 72.035L19.7622 72.1291C19.7415 72.1658 19.7227 72.2034 19.7057 72.242V72.242V72.082V71.9691V71.9691C19.7057 71.9126 19.8093 72.4585 19.7528 72.2232V72.2232V72.2232C19.7528 72.2232 19.7528 72.2985 19.7528 72.2232C19.7528 72.1479 19.7528 72.2232 19.6493 72.1008L19.5363 71.9973H19.4799L19.3763 71.922C19.2957 71.8503 19.2034 71.793 19.1034 71.7526C19.1078 71.7056 19.1078 71.6584 19.1034 71.6114C19.2393 71.0971 19.3244 70.5706 19.3575 70.0397L19.5081 68.0444C19.5758 66.5644 19.8223 65.0981 20.2422 63.6773C20.6205 62.5942 21.3198 61.652 22.2469 60.9761C22.745 60.644 23.3053 60.4167 23.894 60.3079C24.4913 60.1669 25.1132 60.1669 25.7105 60.3079C26.558 60.5309 27.3208 60.9991 27.9034 61.6538C28.3973 62.1979 28.821 62.8019 29.1646 63.4514C29.7847 64.6308 30.3317 65.8472 30.8022 67.0938C31.5391 68.8969 32.3717 70.6594 33.2963 72.3738C33.4846 72.7408 33.7199 73.0703 33.8987 73.3997C34.2187 74.0303 34.3787 74.4067 34.2846 74.7455C34.0863 75.201 33.8055 75.6158 33.4563 75.9691C33.2681 76.195 33.1081 76.4585 32.9293 76.6938C32.6348 77.0994 32.1319 77.2976 31.6399 77.202C31.0057 77.1061 30.4363 76.7604 30.0587 76.242C29.0091 74.6537 28.2003 72.9189 27.6587 71.0938C27.1034 69.3997 26.661 67.7055 26.1152 66.2373C25.9286 65.7428 25.7149 65.2589 25.4752 64.7879C25.3261 64.5105 25.1495 64.2488 24.9481 64.0067C24.8728 63.9314 24.9481 63.8844 24.8257 64.0067C24.7034 64.1291 24.6469 64.1573 24.5716 64.2891L24.4963 64.1573Z" fill="black"/>
<path d="M68.6746 46.1239L70.7735 44.6745L72.8064 43.1403C73.5029 42.6509 74.1334 42.105 74.7923 41.5686C75.4511 41.0321 76.0911 40.4956 76.6746 39.9309C77.8756 38.8808 78.9927 37.7385 80.0158 36.5145C80.9108 35.4679 81.5919 34.256 82.0205 32.9474C82.2501 32.1453 82.2855 31.3001 82.124 30.4815C81.9207 29.6685 81.5523 28.906 81.0417 28.2415C79.8615 26.7896 78.3856 25.6057 76.7123 24.7686C74.8192 23.7881 72.8204 23.0271 70.7546 22.5003C66.4078 21.4158 61.9453 20.8627 57.4652 20.8533C53.4254 20.8594 49.3898 21.1108 45.3805 21.6062C40.2417 22.218 35.0935 23.065 29.9923 24.1192C28.4017 24.4203 28.5711 24.2133 29.8417 23.6298C30.4723 23.338 31.3852 22.9521 32.4958 22.5003C33.6064 22.0486 34.924 21.5592 36.3735 21.1356L40.2511 20.0062C41.5499 19.6674 42.8582 19.3098 44.1758 18.9898C46.8305 18.325 49.5245 17.8284 52.2417 17.5027C57.7253 16.7543 63.2851 16.7543 68.7687 17.5027C72.2323 17.9661 75.6326 18.8186 78.9052 20.0439C80.6823 20.7474 82.3397 21.7221 83.8182 22.9333C85.4679 24.2647 86.7319 26.0129 87.4793 27.9968C88.2539 30.2542 88.2934 32.699 87.5923 34.9803C86.9543 37.0286 85.9463 38.9426 84.6182 40.6274C82.1865 43.5654 79.4443 46.2319 76.4393 48.5803C72.8462 51.4103 69.0316 53.9471 65.0323 56.1662C58.9945 59.4907 52.6258 62.1751 46.0299 64.1756C44.7782 64.6462 43.4982 64.9662 42.2652 65.3615C41.0323 65.7568 39.7523 66.1803 38.5005 66.5003C35.9499 67.1027 33.4087 67.8933 30.7735 68.2603C29.6252 68.458 28.5052 68.7121 27.3287 68.8721C26.4149 68.9948 25.4908 69.0232 24.5711 68.9568C23.9338 68.9396 23.3013 68.8416 22.6887 68.665C21.7818 68.4233 21.0256 67.7977 20.6182 66.9521C20.3841 66.5746 20.1826 66.1779 20.0158 65.7662C19.6205 64.4298 21.3146 63.225 24.2605 62.6227C26.4535 62.2556 28.637 61.6815 30.8487 61.2956C31.9593 61.1168 33.0511 60.825 34.1523 60.5521L37.4558 59.7898C41.8866 58.6546 46.2457 57.256 50.5099 55.6015C56.8923 53.1387 62.956 49.9188 68.5711 46.0109L68.6746 46.1239Z" fill="black"/>
<path d="M25.512 79.0646C21.894 78.377 18.3466 77.3594 14.9143 76.0246C13.5527 75.5363 12.2466 74.9054 11.0178 74.1422C9.65606 73.288 8.57332 72.0548 7.90255 70.594C7.54012 69.6994 7.43895 68.7203 7.61079 67.7704C7.7744 66.9067 8.12803 66.0901 8.64608 65.3799C9.03527 64.8669 9.44991 64.3737 9.88843 63.9022C10.2931 63.4599 10.7355 63.0457 11.1496 62.6222C12.0343 61.8034 12.919 61.0128 13.8508 60.3069C15.479 59.0081 17.1449 57.841 18.679 56.6269C20.6649 55.0646 22.3684 53.4081 24.3261 51.921C24.9284 51.4599 25.6061 52.1187 25.8696 53.2575C26.1969 54.6714 25.8021 56.1555 24.8155 57.2199C22.8949 59.0647 20.8577 60.7843 18.7167 62.3681C16.7484 63.7768 14.8629 65.2977 13.0696 66.9234C12.6669 67.2608 12.3178 67.6575 12.0343 68.0999C11.9122 68.326 11.9122 68.5984 12.0343 68.8246C12.243 69.2064 12.5439 69.53 12.9096 69.7657C13.4392 70.1522 14.0031 70.4893 14.5943 70.7728C17.5905 72.1925 20.7522 73.2327 24.0061 73.8693C25.032 74.0857 26.0767 74.2834 27.112 74.4622L28.6837 74.7069L29.672 74.8481C30.0955 74.8481 30.5473 74.9516 31.0084 74.961C31.3096 75.0363 31.3567 74.7351 31.3567 74.5375C31.3751 74.3183 31.3751 74.0979 31.3567 73.8787C31.2926 73.4057 31.1982 72.9373 31.0743 72.4763C30.8673 71.714 30.632 70.9422 30.3778 70.1799C29.5873 67.8175 28.4955 65.5963 27.4602 63.3093C27.2343 62.801 26.9708 62.3681 26.7731 61.8034C26.0296 59.874 26.1237 59.1022 27.2249 58.2834C27.4612 58.0848 27.713 57.9054 27.9778 57.7469C28.919 57.2857 29.8602 57.7469 30.6508 59.0928C31.8273 61.0868 32.8589 63.1627 33.7378 65.3046C34.1896 66.3963 34.632 67.5163 35.0084 68.674C35.1967 69.2481 35.3755 69.841 35.5449 70.4434L35.8178 71.4316C35.959 71.9963 36.1096 72.561 36.2131 73.1351C36.5708 74.8293 36.712 76.5422 36.1284 77.681L35.9308 78.1234C35.8521 78.2692 35.7608 78.4077 35.6578 78.5375L35.5731 78.6316V78.6881V78.6881V78.6881C35.5731 78.641 35.6673 78.7822 35.4602 78.594V78.594L35.2814 78.7446L34.952 79.0175C34.7402 79.236 34.4957 79.4202 34.2273 79.5634C33.8827 79.6896 33.5209 79.7626 33.1543 79.7799C32.3148 79.845 31.4715 79.845 30.632 79.7799L29.3331 79.6481L28.3073 79.5257C27.3661 79.4034 26.4814 79.2622 25.5778 79.1116L25.512 79.0646Z" fill="black"/>
</svg>
