<svg width="96" height="96" viewBox="0 0 96 96" fill="none" xmlns="http://www.w3.org/2000/svg">
<path d="M51.234 41.022C46.5281 40.4856 47.1116 34.7067 50.3681 34.9138C50.3681 34.9138 46.9516 31.7326 45.1163 34.5561C43.6188 36.7708 44.0239 39.7571 46.0575 41.4926C48.1375 43.4973 51.234 41.022 51.234 41.022Z" fill="black"/>
<path d="M37.239 51.2249C41.5307 50.2837 39.7802 45.1919 37.1637 45.7849C37.1637 45.7849 36.006 45.2672 37.6343 44.9472C39.2625 44.6272 41.446 44.0719 42.0202 46.5002C42.5943 48.9284 42.4249 50.9237 41.079 51.6013C39.7331 52.279 37.239 51.2249 37.239 51.2249Z" fill="black"/>
<path d="M34.7169 56.8711C34.7169 56.8711 31.3475 54.3676 30.3028 58.8664C30.3028 58.8664 27.9875 56.5793 29.6911 54.7911C30.803 53.4519 32.7764 53.2354 34.1522 54.3017C34.8111 54.9699 34.7169 56.8711 34.7169 56.8711Z" fill="black"/>
<path d="M25.6809 63.4702C27.0739 63.4702 28.9186 65.1267 26.208 67.1691C24.7115 68.2985 29.9162 68.6844 30.0668 65.9455C30.2174 63.2067 28.8339 62.9808 28.0245 62.5855C27.2151 62.1902 25.0503 63.4702 25.6809 63.4702Z" fill="black"/>
<path d="M25.4925 72.8615C24.7584 72.6262 21.9161 73.2097 23.4125 75.3179C24.5984 76.9932 20.0149 74.0285 21.6902 72.3626C24.5796 69.492 26.3678 73.1344 25.4925 72.8615Z" fill="black"/>
<path d="M20.6084 81.0038C20.6084 81.0038 21.9825 80.3732 22.6508 81.192C22.999 81.5497 22.7355 79.912 22.0578 79.6673C21.3802 79.4226 20.6084 81.0038 20.6084 81.0038Z" fill="black"/>
<path d="M64.6179 49.6052C64.9849 48.4569 65.8979 28.7487 59.9591 25.8593C55.0649 23.4875 46.7826 23.5628 49.2014 22.2828C51.7991 20.9275 70.9426 17.4546 73.512 24.8616C73.512 24.8616 74.1143 18.0852 67.6579 16.824C61.2014 15.5628 47.2626 19.0546 43.7049 20.3158C40.1473 21.5769 36.5802 22.6781 38.9991 24.0052C41.4179 25.3322 53.5026 25.4075 57.6438 27.7699C63.2908 31.064 64.6179 49.6052 64.6179 49.6052Z" fill="black"/>
<path d="M42.0199 43.7234C42.8254 44.2113 43.4776 44.9157 43.9022 45.7563C44.2778 46.5272 44.471 47.3742 44.4669 48.2316C44.4976 48.8271 44.4373 49.4238 44.2881 50.0011C44.1133 50.5125 43.8627 50.9947 43.5446 51.4316C43.2117 51.8249 42.8289 52.1729 42.4058 52.4669C41.6134 52.9832 40.7106 53.3056 39.7705 53.4081C38.9449 53.5091 38.1075 53.3788 37.3516 53.0316C36.4214 52.6526 35.7239 51.8575 35.4693 50.8858C35.4034 50.594 35.7328 50.4999 36.1563 50.4905C36.5947 50.4606 37.035 50.4923 37.4646 50.5846C37.8906 50.7721 38.3724 50.789 38.8105 50.6316C38.9799 50.5658 39.1587 50.5658 39.3658 50.5093C39.6087 50.4452 39.8475 50.3666 40.081 50.274C40.3457 50.1635 40.5533 49.9491 40.6552 49.6811C40.7875 49.4177 40.8977 49.1438 40.9846 48.8622C41.1902 48.2276 41.093 47.5337 40.721 46.9799C40.4416 46.6327 40.0481 46.3959 39.6105 46.3116C38.83 46.1465 38.0167 46.3437 37.3987 46.8481C36.9231 47.2912 36.5947 47.8692 36.4575 48.5046C36.4105 48.6269 36.4575 48.7681 36.3822 48.8905C36.2316 49.3422 35.9963 49.4081 35.1681 49.3705C34.9799 49.3705 34.7916 49.3705 34.6034 49.3705C34.3072 49.373 34.0223 49.2571 33.812 49.0485C33.6017 48.84 33.4834 48.5561 33.4834 48.2599C33.5938 46.1357 34.9158 44.2643 36.881 43.4505C37.6913 43.0887 38.5729 42.915 39.4599 42.9422C40.3836 42.9745 41.2853 43.2331 42.0858 43.6952L42.0199 43.7234Z" fill="black"/>
<path d="M30.7348 52.2977C31.424 52.1265 32.1395 52.0882 32.843 52.1848L33.3418 52.2601L33.8595 52.4012L34.3771 52.5707L34.8665 52.8248C35.358 53.058 35.8042 53.3767 36.1842 53.7659C36.7869 54.4501 37.1358 55.3208 37.1724 56.2318C37.2504 57.0827 37.0838 57.9382 36.6924 58.6977C36.5701 59.0648 36.203 59.3001 35.9583 59.6389C35.8171 59.7707 35.6665 59.9118 35.516 60.0342C35.3497 60.1346 35.1729 60.2166 34.9889 60.2789C34.1613 60.5816 33.2361 60.4357 32.5418 59.893C32.3442 59.7424 32.5418 59.4507 32.796 59.1401C33.0755 58.8329 33.3916 58.5611 33.7371 58.3307C33.899 58.2858 34.0332 58.1723 34.1042 58.0201C34.1042 57.9542 34.1042 57.9165 34.1042 57.8977L34.0383 57.813C33.963 57.7565 34.1324 57.5871 34.2077 57.2295C34.2497 57.0161 34.1867 56.7956 34.0383 56.6365C33.963 56.5612 33.9348 56.4483 33.8595 56.3918C33.8072 56.3084 33.7439 56.2324 33.6713 56.1659C33.6102 56.0719 33.53 55.9917 33.436 55.9307C33.3375 55.8549 33.23 55.7917 33.116 55.7424C32.8357 55.6228 32.5358 55.5558 32.2313 55.5448C31.8679 55.5241 31.506 55.6056 31.1865 55.7801C30.7038 56.021 30.4166 56.5318 30.4618 57.0695C30.5897 57.4725 30.8948 57.7949 31.2901 57.9448C31.3842 57.9448 31.4971 58.0012 31.5724 58.0483C31.8642 58.2365 31.8642 58.4812 31.5724 59.2624L31.3748 59.7895C31.2163 60.3432 30.6748 60.6961 30.1042 60.6177C29.1729 60.3887 28.3726 59.7953 27.883 58.9707C27.2818 57.9727 27.1152 56.7722 27.4218 55.6483C27.89 54.0186 29.1684 52.7474 30.8007 52.2883L30.7348 52.2977Z" fill="black"/>
<path d="M30.4149 62.406C31.2547 63.4416 31.5485 64.8164 31.2055 66.1049C31.1381 66.5248 31.0047 66.9314 30.8102 67.3096C30.6172 67.6302 30.3795 67.9218 30.1043 68.1754C29.8121 68.3975 29.4965 68.5868 29.1631 68.7401C28.5455 69.02 27.8741 69.1613 27.1961 69.1543C26.9231 69.1543 26.6502 69.1543 26.3867 69.079L25.6337 68.9001C25.3345 68.8037 25.0421 68.6874 24.7584 68.5519C24.5015 68.3817 24.2701 68.1757 24.0714 67.9401C23.9584 67.7801 24.1467 67.5354 24.4384 67.2907C24.7024 67.036 25.026 66.8516 25.3796 66.7543C25.6243 66.7543 25.8408 66.6884 26.0384 66.679C26.2361 66.6696 26.3961 66.5754 26.5373 66.5096C26.7867 66.4499 27.0436 66.4277 27.2996 66.4437C27.3752 66.4253 27.4481 66.3968 27.5161 66.359C27.5714 66.2972 27.6218 66.2311 27.6667 66.1613C27.7074 66.0911 27.7547 66.025 27.8078 65.9637C27.845 65.8906 27.8891 65.8212 27.9396 65.7566C28.1556 65.4651 28.2408 65.0969 28.1749 64.7401C28.1236 64.4968 27.9781 64.2836 27.7702 64.1472C27.4141 63.88 26.9389 63.8328 26.5373 64.0249C26.181 64.2551 25.8972 64.5814 25.7184 64.966C25.6833 65.0503 25.6425 65.1321 25.5961 65.2107C25.4078 65.4649 25.1914 65.399 24.5231 65.0225L24.0714 64.7778C23.6035 64.5759 23.3267 64.0877 23.3937 63.5825C23.8699 62.1354 25.1457 61.0986 26.6596 60.9284C27.3624 60.8287 28.0791 60.913 28.7396 61.1731C29.3906 61.428 29.9714 61.8346 30.4337 62.359L30.4149 62.406Z" fill="black"/>
<path d="M20.2411 72.3635C20.5718 71.4643 21.2171 70.7153 22.0575 70.2553C22.3458 70.0588 22.6635 69.9095 22.9987 69.8129C24.2206 69.5124 25.4901 70.0831 26.0764 71.1965C26.3624 71.6344 26.5872 72.1094 26.7446 72.6082C26.7446 72.9847 26.8293 73.4365 26.8011 73.7941C26.7103 74.0937 26.5905 74.3837 26.4434 74.66C26.3493 74.8388 26.0764 74.7541 25.7564 74.66C25.4364 74.5659 25.0787 74.3965 25.0034 74.2459C24.9281 74.0953 25.0034 74.1612 25.0034 74.1612V74.1612C25.0064 74.1425 25.0064 74.1234 25.0034 74.1047C25.057 73.9171 25.057 73.7182 25.0034 73.5306C24.8811 73.1165 24.6646 73.2577 24.4764 73.2482C24.1922 73.2227 23.91 73.3145 23.6952 73.5024C23.5446 73.6216 23.4439 73.7928 23.4128 73.9824C23.3521 74.3024 23.504 74.6252 23.7893 74.7824C24.0622 74.8858 24.3635 74.8858 24.6364 74.7824C24.6847 74.7668 24.7318 74.748 24.7775 74.7259C24.8905 74.7259 24.947 74.8953 24.9658 75.6012V76.0812C24.9658 76.5988 24.8058 77.0882 24.3164 77.1918C23.5398 77.2903 22.7516 77.149 22.0575 76.7871C21.3805 76.4648 20.8187 75.9425 20.4481 75.2906C19.9563 74.3844 19.8576 73.3162 20.1752 72.3353L20.2411 72.3635Z" fill="black"/>
<path d="M20.6456 78.207C21.1568 77.9815 21.7235 77.9127 22.2738 78.0094C22.7726 78.1011 23.2375 78.3254 23.6197 78.6588C23.8932 78.8615 24.1263 79.1137 24.3068 79.4023C24.6093 79.9546 24.6541 80.6118 24.4291 81.2C24.2539 81.6903 23.9235 82.11 23.4879 82.3953C23.3394 82.5026 23.1782 82.5911 23.0079 82.6588C22.8667 82.7328 22.7186 82.7927 22.5656 82.8376C22.2151 83.0115 21.8124 83.0484 21.4362 82.9411C21.3138 82.9411 21.2762 82.6306 21.2762 82.3011C21.2619 81.9997 21.3099 81.6985 21.4174 81.4164C21.5701 81.2246 21.6822 81.0036 21.7468 80.767C21.7938 80.6917 21.7468 80.7011 21.8221 80.7011C21.9005 80.7757 21.9934 80.8334 22.095 80.8706V80.8706C22.0479 80.8706 21.9256 80.9647 21.9726 80.927C22.0216 80.8517 22.0447 80.7625 22.0385 80.6729C22.0385 80.6164 21.9068 80.5882 21.7938 80.6729C21.578 80.7992 21.44 81.0255 21.4268 81.2753C21.4268 81.4823 21.6903 81.5953 21.7185 81.5576L21.615 81.6329V81.6329V81.6329L21.5491 81.7647L21.4079 82.16L21.2762 82.5929C21.1538 83.0823 20.8338 83.4776 20.335 83.3553C19.6577 83.1329 19.1377 82.5846 18.9515 81.8964C18.7818 81.3381 18.7818 80.7419 18.9515 80.1835C19.215 79.2821 19.8427 78.5316 20.6832 78.1129L20.6456 78.207Z" fill="black"/>
<path d="M77.4644 25.6904C77.1881 28.8315 76.5985 31.9371 75.7044 34.961C74.813 37.9984 73.6015 40.9325 72.0903 43.7139C71.5152 44.7466 70.8869 45.7487 70.2079 46.7163L69.6338 47.5633C69.3828 47.9359 69.0994 48.2855 68.7867 48.608L66.9044 50.4904L66.4997 50.9045C66.3585 51.0363 66.2267 51.2151 66.1044 51.2339L65.3326 51.5727L63.8079 52.2504C63.6856 52.2974 63.5538 52.3916 63.4315 52.3727C63.2824 52.3562 63.1366 52.3181 62.9985 52.2598C62.7729 52.145 62.5665 51.9958 62.3867 51.8174C61.9954 51.4465 61.6762 51.0061 61.4456 50.5186C60.9128 49.1059 60.5955 47.621 60.5044 46.1139L60.3726 44.928L60.2973 44.1374L60.1562 42.7163C59.9773 40.8339 59.7609 38.9516 59.4691 37.1539C59.2261 35.3883 58.7874 33.6553 58.1609 31.9869C57.947 31.4129 57.6059 30.8949 57.1632 30.4716C56.5713 30.1506 55.9379 29.9131 55.2809 29.7657C53.7279 29.3516 52.0715 29.041 50.4432 28.7304C48.335 28.3351 46.1985 27.9774 44.0715 27.5069C41.8531 27.0853 39.7008 26.37 37.6715 25.3798C36.975 24.9563 36.815 24.5421 37.0315 24.2974C37.4299 23.9866 37.9044 23.7883 38.4056 23.7233C40.2843 23.2396 42.2442 23.1594 44.1562 23.488L50.5844 24.608C51.6762 24.8245 52.7585 25.0316 53.8691 25.2763C54.9797 25.521 56.0903 25.7845 57.3138 26.2174C57.6526 26.3398 57.9256 26.4151 58.3115 26.5845C58.7572 26.7752 59.1802 27.0151 59.5726 27.2998C60.2634 27.8542 60.8389 28.5384 61.2667 29.3139C61.897 30.472 62.3777 31.7054 62.6973 32.9845C63.2452 35.24 63.6227 37.5336 63.8267 39.8457C63.9585 41.1822 64.1091 42.528 64.2691 43.8645C64.3033 44.0479 64.3253 44.2334 64.335 44.4198V44.7398C64.335 44.9563 64.3915 45.1727 64.4385 45.3892C64.4629 45.6086 64.5334 45.8203 64.6456 46.0104C64.7303 46.1327 64.8338 46.0104 64.9091 45.9163L65.1444 45.6998C65.3114 45.5595 65.4628 45.4018 65.5962 45.2292C65.7546 45.0631 65.9024 44.887 66.0385 44.7021L66.5562 43.9398C66.7606 43.6653 66.9491 43.3793 67.1209 43.0833L68.1373 41.2669C68.7905 39.9812 69.3749 38.6617 69.8879 37.3139C70.8454 34.6262 71.5574 31.8572 72.015 29.041C72.2887 27.4844 72.4709 25.913 72.5609 24.3351C72.5609 23.5633 72.6267 22.7539 72.5609 22.0198C72.554 21.6608 72.5257 21.3025 72.4762 20.9469C72.4639 20.7263 72.4129 20.5097 72.3256 20.3069C72.2437 20.1433 72.132 19.9964 71.9962 19.8739C71.6449 19.5666 71.2396 19.3272 70.8009 19.168C70.2567 18.9479 69.6925 18.7808 69.1162 18.6692C67.8404 18.4285 66.5461 18.2994 65.2479 18.2833C62.5563 18.2501 59.8669 18.4517 57.2103 18.8857C53.1177 19.6373 49.0921 20.7168 45.1726 22.1139C44.3162 22.4057 43.4973 22.7539 42.6597 23.0551C41.822 23.3563 41.2479 23.5727 40.7209 23.7421C40.2867 23.8633 39.8426 23.9452 39.3938 23.9869C39.0974 24.0207 38.7972 23.9984 38.5091 23.921C38.3909 23.8878 38.2771 23.8404 38.1703 23.7798C38.1065 23.7589 38.0486 23.7234 38.0009 23.6763L37.8785 23.6104L37.7373 23.5539C37.6852 23.5254 37.6273 23.5093 37.5679 23.5069C37.5201 23.5082 37.474 23.5247 37.4362 23.5539C37.3451 23.6635 37.2893 23.798 37.2762 23.9398C37.2197 24.1751 37.1256 24.3727 36.7585 24.3069C36.6367 24.2869 36.5263 24.2234 36.4479 24.128C36.2944 23.9909 36.1861 23.8104 36.1373 23.6104C36.0857 23.3684 36.0857 23.1183 36.1373 22.8763C36.1785 22.6857 36.2384 22.4997 36.3162 22.321C36.5848 21.7504 36.9511 21.2313 37.3985 20.7869C37.8673 20.3123 38.3882 19.8924 38.9515 19.5351C46.1326 15.6669 54.0573 13.7845 62.6409 13.2292C64.8406 13.107 67.047 13.1984 69.2291 13.5022C70.4813 13.6904 71.7069 14.0252 72.8809 14.4998C73.2216 14.6457 73.5546 14.8091 73.8785 14.9892C74.2546 15.1845 74.6135 15.4112 74.9515 15.6669C75.7228 16.2571 76.3637 17.0005 76.8338 17.8504L77.342 19.2433C77.404 19.4685 77.4481 19.6982 77.4738 19.9304L77.5585 20.4857C77.6432 21.1727 77.6432 21.7092 77.6809 22.368V24.0621L77.5867 25.6904H77.4644Z" fill="black"/>
<path d="M43.9309 41.3607C43.4082 40.5476 43.0412 39.6444 42.8485 38.6972C42.7289 38.2013 42.6751 37.6919 42.6885 37.1819C42.71 36.6349 42.7921 36.092 42.9332 35.5631L43.3568 34.4243C43.5422 34.0696 43.7596 33.7325 44.0062 33.4172C44.8921 32.461 46.0529 31.8033 47.3285 31.5349C48.4648 31.2709 49.6464 31.2709 50.7827 31.5349L51.5168 31.7137C51.7615 31.789 51.9874 31.8925 52.2321 31.9678C52.707 32.1391 53.1667 32.35 53.6062 32.5984C54.736 33.2361 55.5176 34.3497 55.7332 35.629C55.7897 36.0337 55.0932 36.2407 54.2838 36.3631C53.6062 36.5046 52.9103 36.5364 52.2227 36.4572C52.0627 36.3913 51.9591 36.269 51.7897 36.2502C51.6505 36.2176 51.5171 36.1636 51.3944 36.0902C51.1591 35.9772 50.9615 35.8078 50.698 35.7043C50.1376 35.4258 49.5376 35.2353 48.9191 35.1396C48.5135 35.0919 48.1046 35.1959 47.7709 35.4313L47.5356 35.6007C47.4835 35.6702 47.4235 35.7334 47.3568 35.789C47.1968 35.8831 47.1403 36.0337 47.0085 36.1466C46.8953 36.2849 46.7946 36.433 46.7074 36.589C46.7074 36.7772 46.538 36.9372 46.5568 37.1631C46.5543 37.2744 46.5385 37.385 46.5097 37.4925C46.4963 37.6271 46.4963 37.7627 46.5097 37.8972C46.5118 38.1801 46.5497 38.4616 46.6227 38.7349L46.745 39.2243L46.9427 39.6384C47.0019 39.7743 47.0847 39.8986 47.1874 40.0055C47.269 40.1262 47.3747 40.2288 47.498 40.3066L47.7615 40.5043L48.0909 40.5984C48.3231 40.6671 48.564 40.7019 48.8062 40.7019C49.3343 40.6798 49.8499 40.5348 50.3121 40.2784C51.0244 39.8408 51.5707 39.1785 51.865 38.396L52.0156 37.9349C52.1285 37.3984 52.6085 37.4643 53.4744 37.4831H54.058C54.367 37.4937 54.6573 37.6337 54.858 37.869C55.1346 38.1666 55.2775 38.5645 55.2532 38.9702C55.0106 40.2235 54.3464 41.3561 53.3709 42.1796C52.3819 43.0719 51.1623 43.6686 49.8509 43.9019C48.7293 44.0911 47.577 43.9572 46.5285 43.516C45.4406 43.0983 44.503 42.364 43.8368 41.4078L43.9309 41.3607Z" fill="black"/>
</svg>
