<svg width="96" height="96" viewBox="0 0 96 96" fill="none" xmlns="http://www.w3.org/2000/svg">
<path d="M61.1153 45.8838L60.4659 46.3261C60.2683 46.4861 60.0895 46.6743 59.8918 46.8532L58.7247 47.9261L57.7271 49.1779L57.2189 49.8179C57.0654 50.0423 56.924 50.2748 56.7953 50.5143C56.4189 51.2296 56.0706 51.9355 55.7506 52.679L54.8847 54.6743C54.7323 55.007 54.6125 55.3538 54.5271 55.7096L54.2165 56.7732C53.7874 58.2144 53.4912 59.692 53.3318 61.1873C53.2377 62.5347 53.2377 63.887 53.3318 65.2343C53.2565 66.1002 53.3318 66.9661 53.3318 67.8508C53.3483 68.7406 53.3043 69.6305 53.2 70.5143C53.1247 71.079 52.6824 71.0885 52.0895 70.7026C51.2791 70.1704 50.6439 69.4108 50.2636 68.5191C48.6165 64.9049 49.0777 60.8579 50.0189 57.0649C50.2071 56.5002 50.3483 55.9261 50.48 55.3426C50.6118 54.759 50.6871 54.1661 50.8942 53.592L51.4024 51.8414C51.552 51.2469 51.7634 50.6696 52.033 50.119C52.5714 48.8839 53.2303 47.7049 54 46.599C54.3953 46.0438 54.7436 45.4696 55.1859 44.952L56.6071 43.4649L57.0306 43.0132C57.1812 42.8626 57.3506 42.7402 57.5012 42.6085L58.4424 41.8179C58.7718 41.5638 59.073 41.2814 59.3836 41.0555L60.4377 40.4061C61.497 39.751 62.6119 39.1904 63.7695 38.7308C64.3247 38.4767 64.9365 38.3355 65.5106 38.1285C66.0825 37.9111 66.6671 37.7288 67.2612 37.5826C68.2024 37.3567 69.0777 37.0085 70 36.8202L71.393 36.472C71.8636 36.359 72.3342 36.3308 72.8236 36.2555C73.2509 36.1935 73.6814 36.1558 74.113 36.1426C75.7036 36.2367 76.1742 36.6602 76.3153 37.959C76.3153 38.2508 76.3906 38.552 76.3906 38.8438C76.3611 39.8151 75.6742 40.6416 74.7247 40.8485C71.9618 41.4311 69.2316 42.1599 66.5459 43.032C64.6154 43.7331 62.8103 44.7405 61.2 46.0155L61.1153 45.8838Z" fill="black"/>
<path d="M74.1792 43.3906C74.6421 42.7258 75.0603 42.0309 75.431 41.3106C75.6331 40.943 75.8797 40.6016 76.1651 40.2941C76.2874 40.1341 76.4663 39.927 76.5416 39.8047C76.5777 39.7144 76.6251 39.629 76.6827 39.5506V39.4094C76.6827 39.2118 76.4663 39.127 76.3721 38.9859V38.9671L76.231 38.8259C76.118 38.7318 76.0239 38.6376 75.9016 38.5435C75.7792 38.4494 75.4498 38.1765 75.2051 37.9882C74.7063 37.6306 74.1886 37.2729 73.6521 36.9341C72.5596 36.2479 71.4318 35.6195 70.2733 35.0518C69.2332 34.5596 68.1572 34.1475 67.0545 33.8188C65.6804 33.367 64.2968 32.7459 63.0168 32.2094C62.6968 32.0682 62.6216 31.7294 63.0827 31.2682C63.7466 30.7411 64.5605 30.438 65.4074 30.4023C66.242 30.41 67.0752 30.4729 67.9016 30.5906C68.6639 30.7976 69.4168 31.0423 70.1604 31.3153C71.6464 31.8432 73.0775 32.5146 74.4333 33.32C75.2521 33.8188 76.1368 34.2612 77.031 34.7223C77.4827 34.967 77.9721 35.2023 78.3957 35.5035C78.5274 35.5788 78.5933 35.6353 78.7721 35.7294L79.2427 36.087C79.5474 36.3325 79.8307 36.6033 80.0898 36.8965C80.4449 37.2879 80.7199 37.7452 80.8992 38.2423C81.0263 38.7522 81.0263 39.2854 80.8992 39.7953L80.7392 40.5576L80.6639 40.9341V41.2165C80.598 41.6023 80.551 41.9882 80.4568 42.3741C80.1957 43.1022 79.8811 43.81 79.5157 44.4918C78.8749 45.6829 78.1712 46.839 77.4074 47.9553C76.2874 49.6306 75.0263 51.1459 73.9721 52.7647C73.5748 53.3947 73.2226 54.052 72.918 54.7318L72.4568 55.7576C72.2874 56.0871 72.1086 56.4071 71.9298 56.6988C71.751 56.9906 71.6474 57.2729 71.4592 57.5365C70.7345 58.4776 70.1227 58.5341 68.9463 58.0165C68.6733 57.9035 68.4004 57.8 68.1463 57.6682C67.3066 57.2109 66.8579 56.2641 67.0357 55.3247C67.1532 54.6108 67.3327 53.9086 67.5721 53.2259C67.777 52.5599 68.0749 51.9262 68.4568 51.3435C69.1545 50.1912 69.9116 49.076 70.7251 48.0023C71.9204 46.3929 73.1157 44.887 74.0663 43.2965L74.1792 43.3906Z" fill="black"/>
<path d="M37.1341 45.197C37.6894 45.6864 38.2636 46.1382 38.8 46.6558L40.2871 48.2746C40.5318 48.5476 40.7953 48.8017 41.0212 49.084L41.6612 49.9687L42.9224 51.7287C43.4494 52.6699 44.0612 53.4793 44.5506 54.4017C45.04 55.324 45.2471 56.0864 45.5953 56.924L46.0753 58.1946L46.4236 59.4935L47.0918 62.0723L47.5059 64.6793C47.6283 65.4417 47.8165 66.204 47.8824 66.9664C47.9483 67.7287 48.1459 68.4911 48.1647 69.2534C48.1647 69.7429 48.24 70.1946 48.2589 70.7217C48.2777 71.2487 48.2589 71.6629 48.2118 72.1899C48.1552 73.1713 48.0421 74.1486 47.873 75.117C47.7506 75.7193 47.3083 75.6346 46.7436 75.117C45.9936 74.4657 45.4287 73.6281 45.1059 72.6887C44.8518 71.7476 44.6541 70.8064 44.3153 69.9499L44.0894 69.2817C44.0412 69.0581 44.0067 68.8318 43.9859 68.604L43.8353 67.2299C43.7318 66.2887 43.5059 65.4417 43.393 64.5287L43.2047 63.1546L42.913 61.8087C42.711 60.7337 42.346 59.6959 41.8306 58.7311L41.0683 57.2346C40.8236 56.7264 40.4659 56.2935 40.193 55.8135C39.92 55.3335 39.5812 54.7593 39.2518 54.2699L38.1318 52.8393C37.9341 52.604 37.7741 52.3499 37.5577 52.1334L36.9177 51.484C36.4847 51.0605 36.0706 50.6087 35.6189 50.204L33.8118 48.7546C33.2 48.3029 32.5318 47.9452 31.9294 47.5311C31.4365 47.225 30.924 46.9515 30.3953 46.7123C29.8683 46.477 29.36 46.1852 28.8141 45.9782C27.7323 45.5446 26.6142 45.2076 25.473 44.9711C25.0306 44.8864 24.5789 44.8205 24.1365 44.764C23.6941 44.7076 23.1953 44.764 22.7812 44.764H21.4165L20.08 44.8582C19.6927 44.9033 19.303 44.9253 18.913 44.924C17.4541 44.924 17.0306 44.6135 16.6353 43.3335C16.56 43.0323 16.4471 42.7499 16.3906 42.4582C16.2024 41.517 16.8236 40.6417 18.0283 40.3029C21.7818 39.4548 25.6993 39.6931 29.3224 40.9899C30.7336 41.4472 32.1058 42.0169 33.4259 42.6935C34.0847 43.0511 34.7153 43.4558 35.3553 43.8417L36.2965 44.444L37.1718 45.1405L37.1341 45.197Z" fill="black"/>
<path d="M14.3579 49.3191C13.9215 48.4432 13.5319 47.5446 13.1909 46.6274C12.9864 46.1688 12.8623 45.6785 12.8238 45.1779L12.7673 44.3403L12.7014 43.2203L12.5979 42.6744C12.5979 42.5897 12.5226 42.4956 12.5979 42.4015V42.1285C12.6353 41.7624 12.7273 41.4039 12.8709 41.065C13.1711 40.4887 13.562 39.9644 14.0285 39.5121C14.5331 39.042 15.0924 38.6343 15.6944 38.2979C17.009 37.6252 18.3711 37.0495 19.7697 36.5756C21.1156 36.0956 22.4614 35.6344 23.7979 35.2485C24.9838 34.8721 26.1414 34.4297 27.2991 34.0062C28.834 33.4545 30.4596 33.199 32.0897 33.2532C32.7109 33.3285 32.5414 33.6956 32.2214 34.1944C31.8242 34.8829 31.2891 35.4821 30.6497 35.9544C29.9814 36.3497 29.332 36.8109 28.645 37.1779L26.4897 38.025C25.0497 38.5709 23.5909 39.0979 22.1132 39.5685C21.2291 39.8597 20.38 40.248 19.5814 40.7262C19.1862 40.9615 18.7909 41.2156 18.4332 41.4603L18.1603 41.6485C18.0996 41.6998 18.0333 41.744 17.9626 41.7803L17.765 41.9026C17.5014 42.0532 17.1532 42.3168 17.2003 42.6838C17.2263 42.7386 17.2483 42.7953 17.2662 42.8532C17.2804 42.942 17.3159 43.026 17.3697 43.0979C17.5143 43.3276 17.6372 43.5702 17.7367 43.8226C17.9344 44.3309 18.1226 44.8391 18.3673 45.3379C18.8881 46.4483 19.502 47.5125 20.2026 48.5191C21.2996 50.1408 22.5306 51.6677 23.8826 53.0838C24.4376 53.6224 25.0288 54.1224 25.652 54.5803L26.5932 55.2674C26.8944 55.5121 27.1767 55.7662 27.4685 56.0297C27.7603 56.2932 28.005 56.4532 28.2309 56.7074C29.0497 57.6485 28.9367 58.3262 28.1367 59.3803C27.9485 59.6344 27.7791 59.8885 27.5814 60.105C26.9167 60.8343 25.864 61.0644 24.9556 60.6791C22.132 59.6062 20.2026 57.4979 18.2544 55.2109C16.7485 53.3932 15.4098 51.4433 14.2544 49.385L14.3579 49.3191Z" fill="black"/>
<path d="M79.9115 30.5988C80.0151 30.7682 79.7233 30.9 79.2715 31.0223C79.0577 31.0705 78.8359 31.0705 78.6221 31.0223C78.4915 30.9255 78.3688 30.8185 78.2551 30.7023C78.1986 30.6459 77.7845 29.5823 77.6245 29.1776C77.4573 28.8226 77.3859 28.43 77.4174 28.0388C77.5104 27.2762 77.6583 26.5213 77.8598 25.78C77.9143 25.6123 78.0042 25.4582 78.1233 25.3282C78.4972 24.88 78.7844 24.3662 78.9704 23.8129C79.0191 23.7151 79.0191 23.6001 78.9704 23.5023C78.8574 23.2576 79.6668 21.8835 79.9115 21.8082C80.3915 21.5447 80.8527 21.2623 81.2574 21.027C81.3233 21.027 81.3327 20.9047 81.4927 20.9706C81.6715 21.0695 81.8928 21.047 82.048 20.9141C82.2462 20.8129 82.459 20.7431 82.6786 20.707C82.8452 20.7166 83.0098 20.7482 83.168 20.8011C83.3535 20.9203 83.5083 21.0815 83.6198 21.2717C83.6198 21.4317 83.8645 21.5447 83.9962 21.6859C84.0456 21.7305 84.0928 21.7776 84.1374 21.827C84.1797 22.0948 84.2017 22.3654 84.2033 22.6364C84.2033 23.0223 84.2786 23.4553 84.2033 23.4647C83.9089 23.8894 83.6478 24.3362 83.4221 24.8011C83.4221 24.8764 83.2809 24.8953 83.1962 24.9235C83.0244 25.2557 82.8735 25.5983 82.7445 25.9494C82.5939 26.1094 82.5845 26.3353 82.2268 26.3917C82.1609 26.3917 82.1515 26.4482 82.1327 26.4859C81.9635 26.8187 81.7618 27.134 81.5304 27.427C81.4425 27.597 81.3761 27.7772 81.3327 27.9635C81.3327 27.9635 81.2668 28.02 81.2386 28.0482C81.2104 28.0764 81.1539 28.1141 81.1445 28.1611C81.1445 28.387 80.9939 28.5941 80.9374 28.82C80.8271 29.0335 80.7479 29.2617 80.7021 29.4976C80.7021 29.6011 80.2409 30.1 80.2409 30.2317C80.2409 30.3635 79.8551 30.4953 79.9115 30.5988Z" fill="black"/>
<path d="M82.6684 45.4701C82.4895 45.5265 82.4895 45.2159 82.546 44.7548C82.5855 44.5409 82.6653 44.3364 82.7813 44.1524C82.8991 44.0584 83.0216 43.9705 83.1484 43.8889C83.2143 43.8889 84.1648 43.7477 84.5037 43.6536C84.7902 43.5751 85.0925 43.5751 85.379 43.6536C85.8778 43.8136 86.3766 43.9265 86.8472 44.0395C86.9547 44.0699 87.0521 44.1284 87.1295 44.2089C87.3699 44.4725 87.7142 44.6171 88.0707 44.6042C88.1272 44.6042 88.1837 44.6042 88.259 44.5289C88.3343 44.4536 89.266 44.4254 89.3601 44.5289C89.6017 44.7503 89.8706 44.9401 90.1601 45.0936C90.1601 45.0936 90.2448 45.0936 90.2825 45.2159C90.386 45.5642 90.4801 45.5265 90.5743 45.5736C90.7249 45.6413 90.8671 45.7266 90.9978 45.8277C91.0986 45.945 91.184 46.0747 91.2519 46.2136C91.3311 46.4173 91.3663 46.6353 91.3554 46.8536C91.3411 47.045 91.3667 47.2373 91.4307 47.4183V47.6159C91.31 47.8582 91.1616 48.0856 90.9884 48.2936C90.7437 48.6136 90.4519 48.9336 90.3954 48.9054C90.339 48.8771 88.786 49.0842 88.5978 49.0936C88.4095 49.103 88.419 49.0089 88.3343 48.943C88.2495 48.8771 87.0354 48.943 86.9978 48.8583C86.7719 48.7454 86.4895 48.7924 86.3484 48.4254C86.3484 48.3501 86.2731 48.3501 86.226 48.3406C85.8294 48.2146 85.4594 48.0168 85.1343 47.7571C84.9586 47.6622 84.7761 47.5804 84.5884 47.5124C84.5884 47.5124 84.5884 47.4465 84.5131 47.4089C84.4378 47.3712 84.4566 47.3148 84.419 47.3054C84.2055 47.2143 84.0007 47.104 83.8072 46.9759C83.6326 46.8356 83.4469 46.7097 83.2519 46.5995C83.1578 46.5995 82.866 46.0065 82.7625 45.9783C82.659 45.9501 82.7343 45.4418 82.6684 45.4701Z" fill="black"/>
<path d="M16.7953 31.0216C16.9929 31.0216 16.9458 31.3322 16.7953 31.7934C16.7233 31.9973 16.604 32.1811 16.447 32.3299C16.2939 32.3885 16.1366 32.4357 15.9764 32.471C15.4184 32.3931 14.8653 32.2831 14.32 32.1416C13.9302 32.0811 13.5633 31.9188 13.2564 31.671C12.6803 31.1827 12.1393 30.6544 11.6376 30.0899C11.5354 29.9568 11.4646 29.8024 11.4306 29.6381C11.2551 29.087 10.9738 28.5755 10.6023 28.1322C10.5364 28.0569 10.5082 27.9628 10.3482 27.944C10.1882 27.9251 9.33173 26.4757 9.40702 26.2404C9.40702 25.6757 9.40702 25.1393 9.46349 24.6028C9.46349 24.5275 9.39761 24.4616 9.53879 24.3581C9.72238 24.253 9.82873 24.0513 9.81173 23.8404C9.83241 23.6068 9.89961 23.3796 10.0094 23.1722C10.1147 23.0387 10.242 22.9241 10.3858 22.8334C10.5927 22.7544 10.8168 22.7316 11.0353 22.7675C11.1953 22.8428 11.4023 22.7675 11.6 22.7675H11.7976C12.0328 22.8932 12.2592 23.0347 12.4753 23.191C12.7953 23.3887 13.1717 23.5487 13.1341 23.6052C13.2918 24.0388 13.4936 24.4551 13.7364 24.8475C13.7929 24.9134 13.7364 25.0075 13.7364 25.1016C13.9319 25.4271 14.1456 25.7414 14.3764 26.0428C14.4329 26.2593 14.64 26.3816 14.4988 26.7299C14.4988 26.7957 14.4988 26.824 14.4988 26.8616C14.7055 27.1905 14.8759 27.5407 15.007 27.9063C15.1078 28.0793 15.2277 28.2403 15.3647 28.3863C15.3647 28.3863 15.3647 28.471 15.3647 28.5087C15.35 28.5578 15.35 28.6101 15.3647 28.6593C15.5247 28.8193 15.647 29.0263 15.807 29.2051C15.9219 29.417 16.0678 29.6105 16.24 29.7793C16.3058 29.864 16.4753 30.504 16.5976 30.5604C16.72 30.6169 16.7011 31.031 16.7953 31.0216Z" fill="black"/>
<path d="M12.7109 50.7018C12.8709 50.5512 13.0968 50.7865 13.3227 51.2006C13.408 51.3997 13.4498 51.6147 13.445 51.8312C13.3791 51.9912 13.3227 52.1418 13.2568 52.2642C12.9125 52.5938 12.5976 52.9528 12.3156 53.3371C12.1647 53.6006 11.9554 53.826 11.7038 53.9959C11.2321 54.2813 10.7851 54.6055 10.3674 54.9654C10.2643 55.0415 10.1452 55.093 10.0191 55.1159C9.58823 55.2027 9.21111 55.4609 8.97442 55.8312C8.90607 55.8886 8.87991 55.982 8.90854 56.0665C8.74792 56.503 8.47913 56.8916 8.12736 57.1959C7.75745 57.3527 7.40689 57.5516 7.08266 57.7889C7.02619 57.7889 7.08266 57.8924 6.89442 57.8548C6.54619 57.7701 6.50854 57.8548 6.40501 57.9583C6.25464 58.0706 6.09391 58.1683 5.92501 58.2501C5.76453 58.2873 5.60035 58.3062 5.4356 58.3065C5.21426 58.2619 5.00926 58.1578 4.84266 58.0054C4.73913 57.8736 4.50384 57.8454 4.32501 57.7701L4.13678 57.6948C4.02259 57.4236 3.94352 57.1389 3.90148 56.8477C3.79348 56.5463 3.74863 56.226 3.76972 55.9065C3.76972 55.9065 3.98619 55.4548 4.22148 54.9654L4.80501 54.0242C4.85207 53.9206 4.99325 53.8924 5.09678 53.8454C5.20031 53.7983 6.03795 52.6218 6.03795 52.603C6.29207 52.4336 6.47089 52.1606 6.88501 52.1983C6.96972 52.1983 7.00736 52.1983 7.05442 52.123C7.46607 51.8153 7.92338 51.5739 8.40972 51.4077C8.65442 51.3042 8.86148 51.1536 9.09678 51.0312C9.09678 51.0312 9.20031 51.0312 9.24736 51.0312C9.30657 51.0411 9.36699 51.0411 9.42619 51.0312C9.69842 50.8919 9.98174 50.7754 10.2732 50.683C10.565 50.5983 10.8756 50.5512 11.158 50.4477C11.2991 50.4006 12.0427 50.5512 12.1932 50.5042C12.3438 50.4571 12.6544 50.7677 12.7109 50.7018Z" fill="black"/>
</svg>
