<svg width="96" height="96" viewBox="0 0 96 96" fill="none" xmlns="http://www.w3.org/2000/svg">
<path d="M78.4481 55.9181C78.5987 55.5981 78.7493 55.2781 78.8716 54.9769C78.9281 54.8169 79.0034 54.6569 79.0504 54.5063L79.1352 54.271C79.1352 54.1957 79.1352 54.1016 79.1352 54.1299C79.2656 53.9825 79.3332 53.7899 79.3234 53.5934C79.3234 53.4522 79.1352 53.4616 79.0316 53.424H78.9563C78.8999 53.424 78.8528 53.3299 78.7869 53.311C78.721 53.2922 78.3634 53.1699 78.1375 53.104C77.6669 52.9628 77.1963 52.8499 76.6693 52.7369C75.6622 52.511 74.6081 52.3322 73.554 52.1816C72.617 52.0692 71.6742 52.0126 70.7304 52.0122C69.5163 52.0122 68.1987 52.1534 66.9657 51.3534C66.5799 51.1087 66.8716 50.4122 67.3422 49.7251C67.5732 49.3623 67.8379 49.0219 68.1328 48.7087C68.3555 48.4065 68.6995 48.2172 69.074 48.191C71.5028 48.1057 73.9336 48.2919 76.321 48.7463C77.0467 48.9012 77.7828 49.0019 78.5234 49.0475H79.0975L79.794 49.1322C80.3811 49.2118 80.9604 49.3409 81.5257 49.5181L81.9587 49.7534C82.5698 50.0082 83.0611 50.486 83.3328 51.0899C83.6028 51.6805 83.7409 52.3228 83.7375 52.9722C83.7261 53.6378 83.644 54.3004 83.4928 54.9487C83.3704 55.4193 83.2199 55.8899 83.0693 56.304C82.6733 57.3397 82.2176 58.3516 81.7046 59.3346C80.9422 60.7934 80.0199 62.1581 79.1352 63.5134C78.4575 64.5769 77.921 65.744 77.1399 66.8169C76.9847 67.0631 76.8015 67.2905 76.594 67.4946C75.7846 68.2381 75.2763 68.2099 74.4575 67.4946C74.2617 67.3373 74.0762 67.1675 73.9022 66.9863C73.3668 66.4588 73.1966 65.6632 73.4693 64.9628C73.6455 64.4913 73.8465 64.0295 74.0716 63.5793C74.3069 63.1557 74.5422 62.7416 74.7963 62.3275L76.3399 59.8146C77.1065 58.5688 77.7767 57.2662 78.3446 55.9181H78.4481Z" fill="black"/>
<path d="M31.4836 40.2936C31.7706 40.2056 32.0629 40.1364 32.3589 40.0866H32.5472H32.6036H32.7166C32.7969 40.0724 32.8667 40.023 32.9067 39.9519C32.9468 39.8809 32.953 39.7956 32.9236 39.7195V39.7195C32.8984 39.6492 32.8636 39.5827 32.8201 39.5219C32.7072 39.296 32.5942 39.0701 32.5001 38.8348C31.7748 37.0472 30.8531 35.3458 29.7519 33.7619C29.2536 33.0587 28.7097 32.389 28.1236 31.7572C27.3707 30.9572 26.5613 30.1948 25.8742 29.3478C25.6766 29.1031 25.8742 28.8301 26.3448 28.7078C26.953 28.565 27.5929 28.67 28.1236 28.9995C29.1255 29.6699 30.0699 30.4223 30.9472 31.2489C31.7981 32.0928 32.5382 33.0416 33.1495 34.0725C33.8836 35.3242 34.8719 36.4725 35.606 37.7807L35.9354 38.3831L36.3119 39.0983C36.4748 39.5382 36.5823 39.9966 36.6319 40.4631C36.614 40.6956 36.573 40.9257 36.5095 41.1501C36.4244 41.3673 36.3237 41.578 36.2083 41.7807C35.9616 42.192 35.6428 42.5555 35.2672 42.8536C35.0695 42.988 34.8837 43.1392 34.7119 43.3054L34.2319 43.6066C33.3001 44.1145 32.3069 44.5005 31.2766 44.7548C29.7989 45.1878 28.3025 45.4231 26.8436 45.7619C25.7142 46.016 24.6319 46.4772 23.4742 46.7783C23.2261 46.8612 22.9709 46.921 22.7119 46.9572C21.7707 47.0042 21.4036 46.6936 21.1966 45.6207C21.1495 45.376 21.093 45.1407 21.0648 44.896C20.953 44.1498 21.2975 43.409 21.9401 43.0136C22.7892 42.5379 23.702 42.1861 24.6507 41.9689C25.5919 41.7242 26.533 41.5266 27.4742 41.3101C28.8193 41.045 30.1435 40.6833 31.4366 40.2278L31.4836 40.2936Z" fill="black"/>
<path d="M30.8536 55.1834C30.8536 56.9622 30.5619 58.7599 30.4395 60.5481C30.3925 61.1975 30.5148 61.8375 30.4395 62.4963C30.2042 64.7928 29.9313 67.0987 29.7619 69.3951C29.6385 70.4099 29.585 71.4319 29.6019 72.454C29.7026 73.7736 29.5785 75.1007 29.2348 76.3787C29.1031 76.7834 28.4725 76.7269 27.776 76.3787C27.0105 76.0745 26.3907 75.4884 26.0442 74.741C25.3854 72.181 24.6136 69.6116 25.2348 66.9293C25.3269 65.3144 25.2639 63.6944 25.0466 62.0916C24.9807 60.3128 24.9807 58.5246 24.9807 56.7363C24.9807 55.6351 25.0466 54.534 25.0372 53.4422C25.0766 51.778 25.0264 50.1128 24.8866 48.454C24.7927 47.816 24.6479 47.1865 24.4536 46.5716L24.1619 45.6304C24.0866 45.3104 24.0395 44.9999 23.9925 44.6893C23.9454 44.3787 23.8795 44.1434 23.8701 43.861C23.8701 43.7293 23.8701 43.6069 23.8701 43.494C23.9097 43.3872 23.9568 43.2834 24.0113 43.1834C24.1135 43.0066 24.2439 42.8477 24.3972 42.7128C24.7559 42.423 25.1786 42.2229 25.6301 42.1293C25.8748 42.0634 26.1101 41.9787 26.3454 41.9316C27.2168 41.8459 28.0738 42.1986 28.6325 42.8728C30.5148 45.0093 30.6089 47.4093 30.8254 49.7999C30.9572 51.5787 30.9289 53.3857 30.976 55.174L30.8536 55.1834Z" fill="black"/>
<path d="M34.8063 41.367C34.8413 41.2971 34.8575 41.2192 34.8534 41.1411C34.8575 41.0816 34.8575 41.0218 34.8534 40.9623C34.807 40.8325 34.7504 40.7066 34.6839 40.5858L34.3922 40.0494C33.6694 38.6241 32.8551 37.2471 31.9545 35.927C31.3145 34.9858 30.5145 34.1388 29.8275 33.2635C29.3449 32.644 28.8231 32.0561 28.2651 31.5035C28.1616 31.3905 27.9545 31.2211 27.9451 31.2023C27.8997 31.1475 27.8493 31.0971 27.7945 31.0517C27.6769 30.9459 27.5345 30.8715 27.3804 30.8353C27.1577 30.8128 26.9331 30.8519 26.731 30.9482L26.5804 31.0235C26.4769 31.08 26.3734 31.1647 26.2604 31.2305C26.1475 31.2964 25.8369 31.5411 25.6204 31.7011C24.7344 32.4422 23.8922 33.2341 23.0981 34.0729C21.749 35.4048 20.4913 36.826 19.3334 38.327C18.5804 39.2682 17.8745 40.2753 17.0934 41.2164L16.491 41.9223L15.7945 42.5529C15.3114 42.967 14.8126 43.3623 14.2981 43.7388C13.6204 44.2 13.2816 43.7388 13.1498 42.7976C13.0734 42.2174 13.0482 41.6316 13.0745 41.047C13.0894 40.6998 13.1271 40.354 13.1875 40.0117C13.1875 39.8329 13.2722 39.6729 13.3004 39.4941C13.3727 39.3386 13.4544 39.1878 13.5451 39.0423C14.8722 36.9623 16.2181 34.8541 17.771 32.8117C18.537 31.7487 19.4003 30.7593 20.3498 29.8564C21.3863 28.8513 22.5287 27.9614 23.7569 27.2023C24.8275 26.456 26.0864 26.0255 27.3898 25.96C29.2722 26.007 31.1545 27.4941 31.9357 28.2188C32.8851 29.0611 33.7633 29.9803 34.5616 30.967C35.6547 32.3513 36.6727 33.7934 37.611 35.287C38.0722 36.0305 38.5522 36.7553 39.0039 37.5082L39.8322 38.8823C40.171 39.4564 40.4816 40.0305 40.7734 40.6141C41.1259 41.2835 41.4188 41.9827 41.6486 42.7035C41.8299 43.3138 41.9094 43.9497 41.8839 44.5858C41.901 44.8735 41.8756 45.1621 41.8086 45.4423C41.6469 45.7193 41.4401 45.9674 41.1969 46.1764C40.6935 46.5495 40.1208 46.8183 39.5122 46.967C38.4473 47.2225 37.3595 47.3707 36.2651 47.4094C35.691 47.4094 35.1169 47.4094 34.5522 47.4094H33.3286C31.7475 47.4094 30.1851 47.4094 28.6228 47.5035C26.297 47.7042 23.998 48.1425 21.7616 48.8117C21.291 48.9435 20.8204 49.1411 20.3969 49.2635L19.8134 49.4047C19.6503 49.4135 19.487 49.4135 19.3239 49.4047C19.053 49.4074 18.7843 49.3562 18.5334 49.2541C18.2906 49.1452 18.0704 48.992 17.8839 48.8023C17.6486 48.5388 17.4134 48.2094 17.1875 47.9176C16.9616 47.6258 16.7451 47.4282 16.5945 47.2211C16.3404 46.8729 16.3216 46.487 16.4439 45.687C16.491 45.5082 16.5004 45.1976 16.6039 45.0941C16.7018 44.944 16.812 44.8023 16.9334 44.6705C17.2065 44.3648 17.5237 44.1015 17.8745 43.8894C18.4104 43.5544 18.9817 43.2798 19.5781 43.0705C20.1616 42.8541 20.7451 42.6564 21.3286 42.4964C22.5071 42.1847 23.7051 41.952 24.9145 41.8C27.2211 41.5002 29.5439 41.3431 31.8698 41.3294H34.3451V41.3858C34.3451 41.4329 34.5992 41.48 34.571 41.3858L34.8063 41.367Z" fill="black"/>
<path d="M28.6322 23.4564C26.7499 23.3623 24.8675 23.2399 22.9851 23.1081C22.2981 23.0611 21.6204 23.1081 20.9334 23.0611C19.7287 22.967 18.524 22.6658 17.3287 22.4587C16.1334 22.2517 14.9381 22.007 13.7522 21.734L10.6181 21.094C9.20884 20.8565 7.88009 20.2745 6.74985 19.3999C6.40161 19.1081 6.65573 18.8917 7.15456 18.7599C7.76596 18.5865 8.405 18.5321 9.03691 18.5999C11.484 19.0423 14.1287 18.9293 16.7734 19.2305C17.5877 19.2964 18.4061 19.2964 19.2204 19.2305C20.0426 19.143 20.869 19.1022 21.6957 19.1081C23.5122 19.1081 25.3381 19.1081 27.164 19.1081C28.284 19.1081 29.4134 19.0611 30.5334 18.9858C32.241 18.9268 33.944 18.7728 35.6346 18.5246C36.9194 18.2235 38.1783 17.8207 39.3993 17.3199C39.6722 17.2258 39.9357 17.0752 40.2087 16.9999C41.2628 16.7928 41.6487 17.1034 42.091 18.4493C42.1851 18.7505 42.3075 19.0517 42.3828 19.3905C42.6899 20.2884 42.3679 21.2814 41.5922 21.8281C39.371 23.127 36.8863 23.3717 34.3263 23.5505C32.444 23.6634 30.5616 23.6352 28.6793 23.6352L28.6322 23.4564Z" fill="black"/>
<path d="M67.8789 38.9758C68.0013 37.3288 68.3025 35.6723 68.4719 34.0064C68.5284 33.4041 68.4719 32.8017 68.4719 32.19C68.7354 30.0441 69.0178 27.8888 69.1872 25.7335C69.3069 24.7973 69.3541 23.8534 69.3284 22.91C69.2124 21.6762 69.3079 20.4316 69.6107 19.23C69.7331 18.8441 70.3637 18.8723 71.0789 19.1547C71.8434 19.4093 72.4805 19.9486 72.8578 20.6605C73.5731 23.0888 74.3542 25.5264 73.7331 28.077C73.4601 29.5923 73.8272 31.1358 73.8554 32.67C73.8554 34.3641 73.8554 36.0582 73.7613 37.7617L73.6013 40.8582C73.526 42.4394 73.3472 44.03 73.3942 45.6205C73.4308 46.2525 73.5094 46.8814 73.6295 47.5029L73.8178 48.4441C73.8178 48.7547 73.8178 49.0747 73.8178 49.3852C73.8366 49.661 73.8366 49.9377 73.8178 50.2135C73.8082 50.3385 73.7829 50.4618 73.7425 50.5805C73.6811 50.6801 73.6119 50.7745 73.5354 50.8629C73.3998 51.0207 73.2411 51.1571 73.0648 51.2676C72.6566 51.4725 72.2038 51.5727 71.7472 51.5594C71.4931 51.5594 71.2389 51.5594 71.0037 51.5594C70.1706 51.4325 69.4275 50.9655 68.9519 50.27C67.4742 48.1711 67.5966 46.1005 67.5684 43.9076C67.5684 42.2888 67.7001 40.6417 67.7378 38.9852L67.8789 38.9758Z" fill="black"/>
<path d="M87.9261 51.8985C87.4994 53.3734 86.8656 54.7804 86.0437 56.0773C85.639 56.8114 85.4696 57.0185 85.2155 57.442L84.4814 58.5338C83.4743 59.9738 82.5049 61.4138 81.4319 62.7973C80.6879 63.8571 79.89 64.8781 79.0413 65.8561C78.3469 66.6065 77.5982 67.3049 76.8014 67.9455C76.5845 68.1237 76.3583 68.2903 76.1237 68.4444C75.8596 68.6277 75.5863 68.7973 75.3049 68.9526C74.6356 69.3011 73.9022 69.5093 73.1496 69.5644C72.642 69.5428 72.1406 69.4445 71.6625 69.2726C71.2157 69.1012 70.7895 68.8802 70.3919 68.6138C69.8024 68.2058 69.2454 67.7527 68.7261 67.2585C67.7853 66.3687 66.896 65.426 66.0625 64.435C64.8296 62.9008 63.5872 61.4232 62.3731 59.955C61.5825 59.0138 60.7825 58.0726 60.0202 57.1314L59.4461 56.4255L58.9566 55.6632L58.0155 54.1103C57.6296 53.4608 58.0155 53.1691 58.9566 53.2444C59.5136 53.2891 60.0633 53.3996 60.5943 53.5738C60.9157 53.6792 61.23 53.8049 61.5355 53.9503L62.0155 54.2044C62.1541 54.3124 62.2861 54.4287 62.4108 54.5526C64.1896 56.3408 65.8837 58.1573 67.5402 59.9361C68.359 60.8303 69.2061 61.6867 69.9496 62.5903C70.656 63.4387 71.4135 64.2434 72.2178 64.9997C72.3174 65.0958 72.4244 65.1839 72.5378 65.2632L72.679 65.395C72.7687 65.4736 72.8804 65.5229 72.999 65.5361C73.1974 65.551 73.3937 65.4867 73.5449 65.3573C73.9235 65.079 74.2735 64.7638 74.5896 64.4161C75.3308 63.6628 76.0284 62.8678 76.679 62.035C77.6861 60.8397 78.6272 59.522 79.5119 58.1667C79.9637 57.4797 80.3872 56.7832 80.8108 56.0773L81.8743 54.195C82.2104 53.683 82.4852 53.1334 82.6931 52.5573C82.7778 52.3126 82.5519 52.162 82.3731 52.115C82.1749 52.0477 81.9696 52.0035 81.7613 51.9832C81.3755 51.9267 80.9708 51.8985 80.5472 51.8703H79.4461H78.279C76.7072 51.8703 75.1355 51.8703 73.5731 51.9361C71.1261 52.0114 68.6978 52.3503 66.1472 52.3314C65.5825 52.3314 65.0178 52.3314 64.4343 52.3314C63.6251 52.2944 62.8495 51.9973 62.2225 51.4844C62.0188 51.2988 61.8637 51.0662 61.7708 50.8067C61.703 50.4818 61.6715 50.1504 61.6766 49.8185C61.6636 49.5614 61.6636 49.3038 61.6766 49.0467C61.6766 48.6891 61.9778 48.4538 62.4672 48.0114C62.6695 47.7869 62.9355 47.6293 63.2296 47.5597C63.5172 47.4645 63.8135 47.3983 64.1143 47.362C67.9731 47.1079 72.3025 46.9291 76.8296 46.835H79.0037C79.8225 46.835 80.1708 46.835 81.9025 46.835C83.1868 46.8921 84.4555 47.1395 85.6672 47.5691C85.799 47.6255 85.9496 47.6726 86.0719 47.7385L86.4013 47.955C86.6238 48.0904 86.8319 48.2481 87.0225 48.4255L87.4743 49.075L87.5966 49.2538V49.2538H87.6531V49.2538V49.3008V49.3855C87.7149 49.4963 87.7654 49.6129 87.8037 49.7338C88.0257 50.4162 88.1058 51.1369 88.039 51.8514L87.9261 51.8985Z" fill="black"/>
<path d="M75.475 77.5073C73.8279 77.272 72.162 77.112 70.4962 77.0367C69.8844 77.0367 69.282 77.1308 68.6703 77.1026C67.5973 77.1026 66.5056 76.9426 65.4138 76.905C64.322 76.8673 63.2303 76.905 62.1573 76.9614C61.2059 77.0441 60.2621 77.1983 59.3338 77.4226C58.1573 77.7144 56.9997 78.072 55.7856 78.2979C55.4091 78.3638 55.315 78.0626 55.4844 77.6108C55.7245 76.9921 56.1653 76.4717 56.7362 76.1332C59.0742 74.8889 61.6311 74.1091 64.2656 73.8367C65.8373 73.7332 67.4185 73.1873 69.0279 73.1214C70.7879 72.9991 72.5479 72.9991 74.3079 73.0367C75.3997 73.0367 76.482 73.1214 77.5644 73.1779C79.202 73.272 80.8397 73.4697 82.4867 73.5638C83.1267 73.5638 83.7667 73.5638 84.4256 73.5638C85.0891 73.5085 85.7551 73.4865 86.4209 73.4979C86.722 73.4979 87.0326 73.4979 87.362 73.4979C88.4726 73.7426 88.7362 74.232 88.482 75.6061C88.4256 75.9167 88.3879 76.2273 88.3032 76.5473C88.1276 77.4197 87.5053 78.135 86.6656 78.4297C84.5801 78.7074 82.4635 78.647 80.3973 78.2508C78.7973 78.0438 77.1503 77.7991 75.4938 77.6673L75.475 77.5073Z" fill="black"/>
</svg>
