<svg width="96" height="96" viewBox="0 0 96 96" fill="none" xmlns="http://www.w3.org/2000/svg">
<path d="M25.8681 28.8662C26.3291 28.4776 26.6743 27.9697 26.8658 27.398C26.9084 27.1678 26.9367 26.9352 26.9505 26.7015C27.0315 26.2471 27.0315 25.7819 26.9505 25.3274C26.8737 24.8194 26.7248 24.325 26.5081 23.8592C26.3234 23.4658 26.0456 23.1233 25.6987 22.8615C25.3014 22.6399 24.8931 22.4389 24.4752 22.2592C24.2977 21.8904 24.2977 21.4609 24.4752 21.0921C24.6351 20.4801 25.2208 20.0788 25.8493 20.1509C26.7932 20.4029 27.6353 20.9423 28.2587 21.6945C28.7957 22.3252 29.1848 23.068 29.3975 23.8686C29.7554 24.8292 30.0048 25.8267 30.1411 26.8427C30.1824 28.0012 29.9092 29.1493 29.3505 30.165C29.0034 30.8011 28.5552 31.3764 28.0234 31.8686C27.1974 32.5869 26.2036 33.0853 25.134 33.318C24.7293 33.4121 24.334 33.5533 23.9199 33.6286C23.5092 33.7461 23.0856 33.8125 22.6587 33.8262C22.4751 33.8592 22.287 33.8592 22.1034 33.8262C21.4634 33.638 21.3505 33.2898 21.5858 32.3109C21.6328 32.085 21.6799 31.8592 21.7458 31.6427C21.9007 31.0461 22.2605 30.523 22.7622 30.165L23.1481 29.9674C23.2441 29.8905 23.3523 29.83 23.4681 29.7886C23.5622 29.7886 23.6564 29.7321 23.7505 29.7039L23.9858 29.6098C24.2964 29.5345 24.494 29.4403 24.7293 29.4027C25.125 29.3235 25.4904 29.1343 25.7834 28.8568L25.8681 28.8662Z" fill="black"/>
<path d="M46.8559 29.4693C47.0224 29.6791 47.219 29.863 47.4394 30.0152C47.6667 30.1922 47.9168 30.3378 48.183 30.4481C48.3895 30.5127 48.6002 30.563 48.8136 30.5987C49.5913 30.9536 50.4453 31.1089 51.2983 31.0505C51.5008 31.0388 51.7006 30.9976 51.8912 30.9281C52.0788 30.8917 52.2618 30.8349 52.4371 30.7587C52.6711 30.6854 52.8885 30.5671 53.0771 30.4105C53.27 30.2631 53.4439 30.0924 53.5947 29.9022C53.7077 29.7893 53.783 29.8269 53.8206 30.0057C53.8369 30.1276 53.8369 30.251 53.8206 30.3728C53.8262 30.5452 53.7731 30.7145 53.67 30.8528C53.4912 31.1069 53.3312 31.4175 53.1147 31.6716C52.9262 31.9495 52.6867 32.189 52.4089 32.3775C52.1374 32.555 51.8429 32.6943 51.5336 32.7916C51.2324 32.9089 50.9149 32.9788 50.5924 32.9987C50.2159 32.9987 49.8394 33.0928 49.4536 33.1681C49.0673 33.2339 48.6727 33.2339 48.2865 33.1681C47.857 33.112 47.4323 33.0239 47.0159 32.9046C46.6024 32.757 46.1971 32.5873 45.8018 32.3963L45.1053 31.9728C44.8794 31.8222 44.6818 31.6246 44.4653 31.4552C43.8883 30.8706 43.4 30.2047 43.0159 29.4787C42.8277 29.2152 42.6865 28.9516 42.5171 28.6787C42.3213 28.4216 42.1599 28.14 42.0371 27.841C41.9864 27.7125 41.9455 27.5804 41.9147 27.4457C41.8489 26.9375 42.0559 26.7493 42.8559 26.5987L43.3641 26.4952C43.8383 26.4178 44.3243 26.5183 44.7289 26.7775C45.277 27.2199 45.7396 27.759 46.0936 28.3681C46.3759 28.6599 46.5924 28.9987 46.9406 29.3093L46.8559 29.4693Z" fill="black"/>
<path d="M26.414 48.9327C26.7362 48.522 26.9381 48.0301 26.9976 47.5115C27.054 47.3139 26.9411 47.0974 26.9976 46.8904C27.0556 46.0412 26.9535 45.1888 26.6964 44.3774C26.5775 44.0408 26.4094 43.7236 26.1976 43.4362C26.097 43.286 25.9767 43.1498 25.8399 43.0315C25.7458 42.9751 25.6987 42.8621 25.4917 42.8998C25.2846 42.9374 25.2093 42.7492 25.2187 42.4574C25.2214 42.2623 25.307 42.0775 25.454 41.9492C25.6665 41.7455 25.9664 41.6608 26.254 41.7233C27.0185 41.9175 27.6669 42.4225 28.0423 43.1162C28.3425 43.6399 28.5555 44.2089 28.6729 44.8009C28.8895 45.4972 29.0562 46.208 29.1717 46.928C29.194 47.8096 28.9967 48.6828 28.5976 49.4692C28.3481 49.9424 28.0311 50.3768 27.6564 50.7586C27.1041 51.3014 26.4686 51.7526 25.774 52.0951C25.2782 52.399 24.766 52.6755 24.2399 52.9233C24.1176 52.9704 24.0046 53.0457 23.8823 53.0833C23.4117 53.1962 23.2329 53.0833 23.0823 52.4998C23.0823 52.3774 23.007 52.2457 22.9787 52.1139C22.8669 51.7529 22.9818 51.3601 23.2705 51.1162C24.0046 50.6174 24.6823 50.2974 25.2658 49.8927C25.69 49.6312 26.0527 49.2813 26.3293 48.8668L26.414 48.9327Z" fill="black"/>
<path d="M50.6682 47.8687C50.9646 47.5567 51.1413 47.15 51.167 46.7205C51.167 46.5416 51.0823 46.3722 51.0917 46.184C51.1011 45.9958 51.0917 45.8264 51.0917 45.6475C51.0776 45.4646 51.0396 45.2842 50.9788 45.1111C50.8564 44.7252 50.7059 44.3299 50.5459 43.9346C50.3923 43.6304 50.1739 43.3638 49.9059 43.1534C49.7755 43.0648 49.6368 42.9891 49.4917 42.9275C49.4508 42.904 49.4129 42.8755 49.3788 42.8428C49.318 42.8207 49.2583 42.7956 49.2 42.7675C48.9917 42.4124 48.8996 42.0011 48.9364 41.5911C48.9543 41.2725 49.0693 40.967 49.2659 40.7158C49.4619 40.4423 49.8066 40.3187 50.1317 40.4052C50.9765 40.5608 51.7561 40.9637 52.3717 41.5628C52.8768 42.0007 53.2431 42.5763 53.4259 43.2193C53.5599 43.6077 53.7235 43.9853 53.9153 44.3487C54.5561 45.5824 54.6911 47.0171 54.2917 48.3487C54.1316 48.9115 53.877 49.443 53.5388 49.9205C53.0303 50.5634 52.4421 51.139 51.7882 51.6334C51.3649 52.0589 50.8944 52.4347 50.3859 52.7534C50.2784 52.8283 50.1651 52.8943 50.047 52.9511C49.5859 53.1299 49.3506 52.9511 49.0494 52.3958C48.9763 52.2806 48.9103 52.1612 48.8517 52.0381C48.7554 51.8488 48.7069 51.6388 48.7106 51.4264C48.7004 51.2256 48.7392 51.0253 48.8235 50.8428C49.0682 50.3911 49.2659 49.9581 49.4353 49.5816C49.6047 49.2052 49.84 49.0075 49.9906 48.7534C50.2267 48.4657 50.4259 48.1495 50.5835 47.8122L50.6682 47.8687Z" fill="black"/>
<path d="M27.4211 71.5114C27.6954 71.0919 27.8575 70.6091 27.8917 70.109C27.8917 69.902 27.8917 69.6855 27.8917 69.469C27.9261 68.6536 27.8047 67.839 27.534 67.069C27.3913 66.7434 27.2246 66.4288 27.0352 66.1279C26.7717 65.7326 26.4799 65.3655 26.2352 64.9326C26.1599 64.8008 26.2823 64.622 26.5458 64.4996C26.8739 64.3621 27.2435 64.3621 27.5717 64.4996C28.1276 64.7895 28.6303 65.1713 29.0587 65.629C29.3714 66.1653 29.5791 66.7562 29.6705 67.3702C29.774 68.0949 30.0658 68.7726 30.1317 69.5161C30.2124 70.3578 30.103 71.207 29.8117 72.0008C29.6153 72.5151 29.3284 72.99 28.9646 73.4032C28.4155 73.9424 27.7791 74.3847 27.0823 74.7114C26.5834 74.9655 26.1411 75.3043 25.6517 75.5584C25.5491 75.6252 25.4422 75.6849 25.3317 75.7373C24.927 75.8973 24.7575 75.7373 24.5034 75.1632L24.334 74.7396C24.1548 74.3636 24.2138 73.9173 24.4846 73.6008C25.1019 73.0878 25.7705 72.6399 26.4799 72.2643C26.8383 72.0862 27.1435 71.8168 27.3646 71.4832L27.4211 71.5114Z" fill="black"/>
<path d="M49.2846 63.9633C50.25 64.0155 51.1806 64.342 51.9669 64.9044C52.2215 65.0403 52.464 65.1978 52.6917 65.375C53.2875 66.0204 53.7997 66.7382 54.2164 67.5115C54.3944 67.8392 54.5957 68.1537 54.8187 68.4527C55.1338 68.7908 55.326 69.2251 55.3646 69.6856C55.3646 69.8456 55.0164 70.0338 54.5928 70.1656C54.2361 70.3259 53.8411 70.3814 53.454 70.3256C53.129 70.1499 52.8147 69.955 52.5128 69.7421C52.2155 69.5618 51.9794 69.2961 51.8352 68.9797C51.6564 68.575 51.1011 68.4244 50.8281 68.2738C50.5575 68.1041 50.2622 67.9771 49.9528 67.8974C49.8599 67.8799 49.7686 67.8547 49.6799 67.8221C49.5737 67.8077 49.4661 67.8077 49.3599 67.8221C48.9715 67.8386 48.6014 67.9919 48.3152 68.255C48.0883 68.5341 47.9159 68.8534 47.8069 69.1962C47.7813 69.2677 47.7498 69.3369 47.7128 69.4033C47.5246 69.6197 47.2987 69.5633 46.6211 69.1868L46.1693 68.9421C45.715 68.7278 45.3924 68.307 45.3034 67.8127C45.2623 67.2777 45.3428 66.7404 45.5387 66.2409C45.6275 65.9772 45.7578 65.7294 45.9246 65.5068C46.1154 65.2928 46.3231 65.0945 46.5458 64.9138C47.3433 64.3232 48.2871 63.9619 49.2752 63.8691L49.2846 63.9633Z" fill="black"/>
<path d="M72.598 69.3105C73.0223 69.0821 73.3892 68.7602 73.6709 68.3693C73.7557 68.2075 73.8312 68.0409 73.8968 67.8705C74.2937 67.3144 74.5431 66.6668 74.6215 65.9881C74.6302 65.7163 74.5436 65.45 74.3768 65.2352C74.245 64.934 74.0662 64.7269 73.878 64.294C73.8215 64.1528 73.9721 63.7952 74.2921 63.4752C74.6191 63.0814 75.1368 62.9004 75.638 63.0046C76.0174 63.1822 76.3693 63.4136 76.6827 63.6916C76.9356 64.005 77.1215 64.367 77.2286 64.7552C77.4402 65.4484 77.4402 66.189 77.2286 66.8822C77.0933 67.6395 76.9109 68.3876 76.6827 69.1222C76.3496 69.8821 75.8844 70.5767 75.3086 71.174C74.9361 71.5273 74.5294 71.8426 74.0944 72.1152C73.3842 72.5445 72.5865 72.8083 71.7603 72.8869C71.0938 73.0137 70.4138 73.0548 69.7368 73.0093C69.5925 72.9892 69.4506 72.9546 69.3133 72.9058C69.0879 72.8349 68.9454 72.6131 68.9744 72.3787C69.003 72.0799 69.0961 71.7909 69.2474 71.5316C69.3321 71.3716 69.4074 71.2211 69.4921 71.0799C69.7642 70.6464 70.127 70.2772 70.5556 69.9975C70.8957 69.7942 71.2682 69.651 71.6568 69.574C71.9512 69.5335 72.2318 69.4238 72.4756 69.254L72.598 69.3105Z" fill="black"/>
<path d="M27.1485 35.5215C25.6539 35.7287 24.1312 35.5639 22.7156 35.0415C21.3746 34.529 20.1883 33.6797 19.2709 32.5756C18.6362 31.8411 18.0985 31.0282 17.6709 30.1567C16.9879 28.6282 16.7781 26.9302 17.0685 25.2815C17.3798 23.6859 18.1257 22.2072 19.2238 21.0085C20.1296 19.9306 21.2519 19.0552 22.5179 18.4391C23.405 17.9641 24.421 17.786 25.4167 17.9309C26.421 18.0925 27.3225 18.6395 27.9297 19.4556C28.2873 19.945 27.7509 20.3215 26.9885 20.7262C26.6051 20.9335 26.2399 21.1728 25.8967 21.4415C25.5579 21.6862 25.3132 22.0062 25.1626 22.1191L24.9744 22.2885C24.9179 22.3638 24.8709 22.4391 24.8144 22.4297C24.7579 22.4203 24.5603 22.5238 24.4003 22.6179C24.0416 22.804 23.704 23.028 23.3932 23.2862C22.5325 23.793 21.7859 24.4723 21.2003 25.2815C20.4944 26.2979 20.8144 27.8697 21.4732 29.0462C22.0857 29.9879 23.0516 30.6434 24.153 30.8648C25.2544 31.0861 26.3986 30.8547 27.3273 30.2226C28.3859 29.2426 28.8199 27.7599 28.4567 26.3638C28.1412 25.1673 27.448 24.1044 26.4803 23.3332C26.2776 23.2104 26.0827 23.0753 25.8967 22.9285C25.676 22.6869 25.5788 22.3571 25.6332 22.0344C25.674 21.8335 25.7371 21.6377 25.8214 21.4509C25.9344 21.1967 26.085 20.9144 26.245 20.5944L26.6403 19.7662C26.8717 19.3395 27.2444 19.0068 27.6944 18.825C27.9462 18.7047 28.2262 18.6559 28.5038 18.6838C28.8063 18.6974 29.102 18.7777 29.3697 18.9191L30.0003 19.2485L30.3109 19.4273L30.5556 19.6626C30.8962 19.9687 31.211 20.3024 31.4967 20.6603C31.7612 21.0216 32.0032 21.3988 32.2214 21.7897C32.4191 22.1944 32.6167 22.5991 32.7767 23.0132C33.4013 24.7805 33.5949 26.6713 33.3414 28.5285C33.1907 30.1637 32.5878 31.7247 31.6003 33.0367C31.2991 33.3756 30.9885 33.705 30.6591 33.9779C30.3149 34.2677 29.95 34.5319 29.5673 34.7685C29.3836 34.8939 29.1918 35.0071 28.9932 35.1073L28.3814 35.3144C27.9908 35.4563 27.5873 35.5603 27.1767 35.625L27.1485 35.5215Z" fill="black"/>
<path d="M55.1677 32.8109C54.1552 33.9458 52.8064 34.7273 51.3183 35.0415C48.9978 35.4136 46.6214 34.9249 44.636 33.6674C41.9604 31.7316 40.5939 28.4607 41.0971 25.1968C41.1981 24.4546 41.4828 23.7494 41.9254 23.1451C42.3465 22.5553 42.8848 22.0586 43.5066 21.6862C44.9543 20.8781 46.6284 20.5704 48.2689 20.8109C48.7489 20.8768 48.683 20.9615 48.2689 21.178C47.8548 21.3945 47.2148 21.8557 46.5183 22.2886C45.9412 22.6189 45.415 23.031 44.956 23.5121C44.653 23.8453 44.4478 24.2557 44.363 24.698C44.3627 24.9006 44.3406 25.1025 44.2971 25.3004L44.2124 25.6957V26.1004C44.1729 26.6703 44.2077 27.2429 44.316 27.8039C44.7415 29.2424 45.7723 30.4243 47.1395 31.0415C47.8579 31.4119 48.6475 31.6237 49.4548 31.6627C50.2203 31.7105 50.9821 31.5233 51.6383 31.1262C52.0299 30.8782 52.3715 30.559 52.6454 30.1851C52.9155 29.7651 53.1068 29.2995 53.2101 28.8109C53.3923 28.0383 53.3761 27.2321 53.163 26.4674C52.9471 25.7532 52.5002 25.1309 51.8924 24.698C50.9461 23.9915 49.7882 23.6266 48.6077 23.6627C48.3418 23.6911 48.0736 23.6911 47.8077 23.6627C47.4048 23.6344 47.037 23.4228 46.8101 23.0886C46.7065 22.883 46.6306 22.6646 46.5842 22.4392C46.5277 22.1568 46.4901 21.8274 46.4524 21.498C46.4148 21.1686 46.3677 20.9051 46.3489 20.6509C46.341 20.1785 46.479 19.715 46.7442 19.3239C47.0054 18.8237 47.4864 18.4752 48.043 18.3827C48.465 18.2936 48.8927 18.2338 49.323 18.2039C49.7612 18.1887 50.1998 18.2203 50.6313 18.298C51.562 18.4504 52.4636 18.7456 53.3042 19.1733C54.2698 19.6429 55.1309 20.3023 55.836 21.1121C56.5222 22.0491 57.0033 23.1202 57.2477 24.2557C57.4208 25.0463 57.4747 25.8584 57.4077 26.6651C57.4077 27.0698 57.3418 27.3992 57.323 27.7568C57.292 28.1169 57.2417 28.4751 57.1724 28.8298C56.8622 30.2938 56.1999 31.6603 55.243 32.8109H55.1677Z" fill="black"/>
<path d="M73.0219 24.152C73.1442 24.5473 73.6901 24.9143 74.0195 24.6979C74.1325 24.6226 74.0195 24.359 74.1136 24.2743C74.2844 24.0548 74.3273 23.7618 74.2266 23.5026C74.1621 23.3097 74.0667 23.1285 73.9442 22.9661C73.7426 22.7049 73.5049 22.4736 73.2384 22.279C72.5806 21.7539 71.7733 21.4508 70.9325 21.4132C69.9251 21.457 68.9584 21.8232 68.1748 22.4579C67.8736 22.6367 67.4501 22.3449 67.2336 21.7237C67.138 21.347 67.138 20.9523 67.2336 20.5755C67.3715 20.1073 67.6676 19.7015 68.0713 19.4273C69.6501 18.4288 71.6 18.2102 73.3607 18.8343C73.7689 18.9598 74.1632 19.1269 74.5372 19.3332C74.7348 19.4367 74.9042 19.5214 75.1113 19.6437L75.7607 20.0861C76.2288 20.4206 76.6471 20.8199 77.0031 21.272C77.4078 21.7143 77.7372 22.2132 78.076 22.6273C78.5868 23.6858 78.9812 24.7966 79.2525 25.9402C79.534 26.982 79.5112 28.0827 79.1866 29.112C79.0295 29.6361 78.8082 30.1387 78.5278 30.6085C78.2184 31.0594 77.8442 31.4622 77.4172 31.8037C76.5216 32.4928 75.4314 32.8815 74.3019 32.9143C72.9273 32.9832 71.5601 32.6739 70.3489 32.0202C69.4211 31.5291 68.6166 30.834 67.996 29.9873C67.4272 29.1528 67.0246 28.2165 66.8101 27.2296C66.4293 25.6138 66.4976 23.9247 67.0078 22.3449C67.1265 21.919 67.2873 21.506 67.4878 21.112C67.657 20.7749 67.8655 20.4589 68.1089 20.1708C68.2456 20.0289 68.4234 19.9334 68.6172 19.8979C69.118 19.8771 69.6134 20.0084 70.0384 20.2743C70.3207 20.4155 70.6031 20.5379 70.876 20.6979C71.6703 21.1067 72.1631 21.9317 72.1466 22.8249C72.3442 23.3614 72.6266 23.4555 72.796 23.4743C72.8833 23.4894 72.9728 23.4653 73.0407 23.4085C72.9684 23.5337 72.9684 23.6879 73.0407 23.8132L73.0219 24.152Z" fill="black"/>
<path d="M30.0569 53.9203C28.8064 54.9142 27.2835 55.5049 25.6899 55.6144C24.0433 55.739 22.4066 55.2681 21.0781 54.2873L20.4005 53.7508L19.7981 53.1579C19.3983 52.7544 19.0789 52.2784 18.8569 51.7556C18.1658 50.0193 18.139 48.0892 18.7816 46.3344C19.3296 44.8463 20.1933 43.4946 21.3134 42.372C22.2453 41.3724 23.3604 40.5608 24.5981 39.9814C25.4988 39.6432 26.4729 39.5491 27.4216 39.7085C28.3286 39.8872 29.1482 40.3683 29.7463 41.0732C30.0852 41.5061 29.7463 41.685 29.191 41.8073C28.9181 41.8073 28.5605 41.9485 28.2499 42.0332C27.9393 42.1179 27.6099 42.2591 27.3087 42.325C26.8501 42.4379 26.4246 42.6572 26.0663 42.965C25.6355 43.2476 25.2265 43.5622 24.8428 43.9061C23.9897 44.6938 23.2712 45.6158 22.7158 46.6356C22.4077 47.2116 22.2985 47.8734 22.4052 48.5179C22.5301 49.0421 22.7607 49.5353 23.0828 49.9673C23.3818 50.4533 23.8412 50.8195 24.3816 51.0026C25 51.1878 25.6624 51.1613 26.264 50.9273C26.6728 50.7602 27.0536 50.5317 27.3934 50.2497C27.7197 49.9465 27.9877 49.586 28.184 49.1861C28.4836 48.4849 28.6281 47.7272 28.6075 46.965C28.5962 46.1691 28.3928 45.3877 28.0146 44.6873C27.7328 44.2009 27.3268 43.7982 26.8381 43.5203C26.4352 43.3216 25.9877 43.2308 25.5393 43.2567L25.031 43.3226C24.7259 43.3215 24.4354 43.1916 24.231 42.965C23.9329 42.6262 23.6711 42.2571 23.4499 41.8638C23.3275 41.6473 23.1769 41.4591 23.0734 41.2614C22.8883 40.9254 22.8674 40.523 23.0169 40.1697C23.1688 39.6029 23.5657 39.1336 24.0993 38.8897C24.57 38.6446 25.0854 38.4974 25.6146 38.4567C26.171 38.3886 26.7352 38.4205 27.2805 38.5508C28.3807 38.8288 29.3976 39.368 30.2452 40.1226C31.7538 41.5513 32.7159 43.4622 32.9652 45.525C33.1913 46.9797 33.1209 48.4652 32.7581 49.892C32.3188 51.5016 31.3956 52.9374 30.1134 54.005L30.0569 53.9203Z" fill="black"/>
<path d="M56.3256 49.7528C56.0243 51.1029 55.3261 52.332 54.3209 53.2822C53.3113 54.2079 52.0313 54.7852 50.6692 54.9293L50.0197 55.0422H49.3421C48.8933 55.0941 48.4391 55.075 47.9962 54.9858C46.475 54.6029 45.1082 53.7618 44.0809 52.5764C43.8211 52.317 43.5907 52.0298 43.3939 51.7199C43.1757 51.4269 42.9895 51.1114 42.8386 50.7787C42.552 50.1532 42.3525 49.4914 42.2456 48.8117L42.1515 47.8705C42.1515 47.5693 42.1515 47.2681 42.1515 46.9764C42.145 46.68 42.167 46.3838 42.2174 46.0917C42.2457 45.8013 42.3024 45.5144 42.3868 45.2352C42.7446 43.8071 43.6737 42.5888 44.9562 41.8658C45.3233 41.6305 45.3609 41.8093 45.2574 42.214C45.2009 42.4211 45.1162 42.6846 45.0127 42.9575C44.9092 43.2305 44.8433 43.5975 44.6927 43.8987C44.2655 44.8955 44.1956 46.0093 44.495 47.0517C44.9723 47.9065 45.4938 48.7359 46.0574 49.5364C46.3996 50.0152 46.8786 50.3794 47.4315 50.5811C47.9789 50.717 48.5358 50.8114 49.0974 50.8634L49.5774 50.9293L50.0668 50.8822C50.386 50.8852 50.7037 50.8376 51.008 50.7411C51.5163 50.5647 51.9462 50.2148 52.2221 49.7528C52.6706 48.9669 52.883 48.0682 52.8339 47.1646C52.7535 45.7008 52.1796 44.3074 51.2056 43.2117C50.8794 42.8711 50.4488 42.6492 49.9821 42.5811C49.6455 42.5366 49.3055 42.6319 49.0409 42.8446C48.9374 42.9293 48.8621 43.0422 48.7586 43.1364C48.6468 43.1819 48.5298 43.2135 48.4103 43.2305C48.25 43.1984 48.0949 43.1445 47.9492 43.0705C47.5629 42.9027 47.2044 42.6774 46.8856 42.4022C46.688 42.2611 46.4903 42.1387 46.3209 41.9975C46.0314 41.7665 45.8508 41.4257 45.8221 41.0564C45.7602 40.5305 45.8798 39.9992 46.1609 39.5505C46.4553 39.1712 46.8195 38.8517 47.2339 38.6093C47.7082 38.3691 48.2158 38.2009 48.7397 38.1105C49.854 37.9315 50.9963 38.0956 52.015 38.5811C52.9091 39.0076 53.6969 39.6282 54.3209 40.3975C54.8709 41.0663 55.3211 41.8113 55.6574 42.6093C56.1407 43.7068 56.4365 44.8775 56.5327 46.0728C56.5327 46.374 56.5327 46.6658 56.5327 46.9669C56.5327 47.2681 56.5797 47.5599 56.5327 47.9081C56.5341 48.5403 56.471 49.1711 56.3444 49.7905L56.3256 49.7528Z" fill="black"/>
<path d="M67.6005 45.7331C68.1663 46.0658 68.8729 46.0438 69.417 45.6766C69.5582 45.526 69.2193 45.3378 69.3323 45.206C69.5485 44.9433 69.6159 44.5886 69.5111 44.2649C69.3681 43.8727 69.0404 43.5767 68.6358 43.4743C68.1054 43.3847 67.564 43.5524 67.177 43.926C66.9345 44.1431 66.728 44.3972 66.5652 44.679C66.524 44.7594 66.47 44.8325 66.4052 44.8955C66.3017 45.0178 66.1793 45.1308 66.0758 45.2625C65.8446 45.5136 65.6278 45.7776 65.4264 46.0531C65.1629 46.4013 64.9935 46.2978 64.824 45.8366C64.7115 45.5318 64.6295 45.2165 64.5793 44.8955C64.5646 44.673 64.5646 44.4497 64.5793 44.2272C64.5741 43.9329 64.642 43.6418 64.777 43.3802L65.0029 42.8625L65.2758 42.279C65.3793 42.0813 65.464 41.8837 65.5676 41.686L65.9535 41.1119C66.1619 40.7674 66.4616 40.4873 66.8193 40.3025C67.1205 40.1143 67.4405 39.8225 67.7605 39.5966C68.3078 39.3184 68.8953 39.1279 69.5017 39.0319C70.0425 38.941 70.5917 38.9094 71.1393 38.9378C72.1293 39.0064 73.0927 39.289 73.9629 39.766C74.7519 40.1482 75.471 40.6605 76.0899 41.2813C76.4382 41.6296 76.7958 41.9872 77.1346 42.3637C77.468 42.7397 77.7821 43.1324 78.0758 43.5402C78.7396 44.3414 79.2012 45.2904 79.4217 46.3072C79.7008 47.427 79.6184 48.6065 79.1864 49.6766C78.7542 50.7483 77.9886 51.6525 77.0029 52.2555C75.8113 52.992 74.4572 53.4251 73.0593 53.5166C70.8982 53.6576 68.7384 53.2224 66.8005 52.2555C66.0618 51.8982 65.3617 51.4661 64.7111 50.966L64.2311 50.5519L63.7887 50.0625C63.6441 49.8847 63.509 49.6993 63.384 49.5072C63.3128 49.4137 63.2468 49.3163 63.1864 49.2155L63.0735 48.839L62.8476 48.1708C62.8476 47.9355 62.744 47.6908 62.7064 47.4366C62.6439 46.9887 62.6957 46.5322 62.857 46.1096C62.9143 45.7696 63.0832 45.4583 63.337 45.2249C63.6798 44.8621 64.1399 44.6321 64.6358 44.5755C64.8262 44.5478 65.0195 44.5478 65.2099 44.5755C65.4706 44.6391 65.7104 44.7687 65.9064 44.9519C66.0445 45.0708 66.1735 45.1997 66.2923 45.3378C66.3432 45.4407 66.4427 45.5109 66.5567 45.5242C66.6708 45.5375 66.7838 45.4921 66.857 45.4037C66.915 45.347 66.9458 45.2682 66.9417 45.1872C67.0219 45.3512 67.1642 45.4765 67.337 45.5355L67.6005 45.7331Z" fill="black"/>
<path d="M32.3528 72.5661C31.9881 73.7973 31.3104 74.9128 30.3858 75.8038C29.4497 76.6854 28.2803 77.2799 27.0164 77.5167C26.2158 77.7084 25.3903 77.7751 24.5693 77.7144C24.2169 77.6992 23.8669 77.6487 23.5246 77.5638C23.1649 77.4905 22.8098 77.3962 22.4611 77.2814C22.1034 77.1308 21.7458 76.9802 21.3975 76.8108C21.0493 76.6414 20.7011 76.3308 20.3905 76.0673C20.0916 75.7594 19.8207 75.4256 19.5811 75.0697L19.2987 74.5049C19.1956 74.3259 19.1315 74.127 19.1105 73.9214C19.0322 73.5377 19.0037 73.1454 19.0258 72.7544C19.0286 72.3985 19.076 72.0443 19.167 71.7002C19.4042 70.5904 19.8515 69.5362 20.4846 68.5944C21.2053 67.445 22.2231 66.5117 23.4305 65.8932C23.7881 65.7049 23.7787 65.7897 23.6187 66.1285L23.3081 66.7967C23.2053 67.1177 23.0827 67.432 22.9411 67.7379C22.4455 68.7632 22.1789 69.884 22.1599 71.0226C22.1457 71.455 22.1997 71.887 22.3199 72.3026C22.3534 72.4445 22.4073 72.5809 22.4799 72.7073C22.4953 72.8292 22.4953 72.9525 22.4799 73.0744C22.527 73.3661 22.8846 73.6202 23.374 73.7614C23.6281 73.8179 23.9387 73.8273 24.2211 73.8838C24.5345 73.8657 24.8488 73.8657 25.1623 73.8838C26.3766 73.9767 27.5403 73.3803 28.174 72.3402C28.5968 71.6083 28.8146 70.776 28.8046 69.9308C28.8653 68.5754 28.3845 67.2515 27.4681 66.2508C27.1288 65.9389 26.7077 65.73 26.254 65.6485C25.8481 65.5918 25.4364 65.5918 25.0305 65.6485C24.8517 65.6485 24.6823 65.752 24.494 65.7802C24.1646 65.8932 23.8352 65.6579 23.5528 65.5638C23.2667 65.3992 23.0169 65.1783 22.8187 64.9144C22.7058 64.7826 22.574 64.6602 22.4799 64.5285C22.3174 64.302 22.2752 64.0106 22.367 63.7473C22.4909 63.3314 22.7213 62.9551 23.0352 62.6555C23.3074 62.3644 23.6515 62.1502 24.0328 62.0344C24.4211 61.8763 24.8249 61.7596 25.2375 61.6861C26.1455 61.5388 27.0764 61.6429 27.9293 61.9873C28.7956 62.3306 29.5833 62.8461 30.2446 63.5026C30.8454 64.1152 31.3528 64.8128 31.7505 65.5732C32.8474 67.7456 33.0957 70.2488 32.447 72.5944L32.3528 72.5661Z" fill="black"/>
<path d="M51.2704 66.6928C50.8989 66.4542 50.4826 66.294 50.0469 66.2222C49.6815 66.1597 49.3065 66.2517 49.0116 66.4763C48.7367 66.7561 48.5023 67.0729 48.3151 67.4175C48.0742 67.7744 47.8603 68.1488 47.6751 68.5375C47.5265 68.8443 47.4371 69.1764 47.4116 69.5163C47.3098 70.417 47.4563 71.3283 47.8351 72.1516C48.1914 72.928 48.7192 73.6134 49.3787 74.1563C50.2349 74.7883 51.2225 75.2194 52.2681 75.4175C52.6163 75.521 52.7293 76.0199 52.4375 76.641C52.2564 77.0185 51.9808 77.3427 51.6375 77.5822C51.2215 77.8787 50.717 78.0247 50.2069 77.9963C46.3921 77.7479 43.3689 74.6802 43.1763 70.8622C43.058 69.6897 43.1408 68.5057 43.421 67.361C43.581 66.8152 43.7316 66.4199 43.9198 65.8834C44.1359 65.3866 44.3974 64.9109 44.701 64.4622C45.4425 63.3577 46.4934 62.4967 47.7222 61.9869C48.941 61.5167 50.2746 61.4313 51.5434 61.7422C54.976 62.6579 57.6093 65.4148 58.3669 68.8858C58.5409 69.7682 58.5409 70.6762 58.3669 71.5587C58.1474 72.4688 57.7152 73.3139 57.1057 74.0246C56.8512 74.3185 56.5743 74.5923 56.2775 74.8434C55.0916 75.6058 54.5457 75.3893 53.9151 74.5046C53.7622 74.3025 53.6208 74.092 53.4916 73.874C53.1521 73.2074 53.1842 72.4122 53.5763 71.7752C54.1034 70.9281 54.1881 70.3352 54.0563 70.0905C53.9816 69.9504 53.9156 69.8058 53.8587 69.6575C53.7551 69.4693 53.6516 69.2434 53.4822 68.9799C52.9534 68.04 52.1749 67.2647 51.2328 66.7399L51.2704 66.6928Z" fill="black"/>
<path d="M77.9817 73.0838C77.0114 74.1832 75.6723 74.8896 74.217 75.0697C72.9265 75.1981 71.6253 74.9736 70.4523 74.4203C69.6635 74.0846 68.9378 73.6167 68.3064 73.0367C67.7722 72.508 67.3158 71.9059 66.9512 71.2485C66.5838 70.5615 66.3506 69.8109 66.2641 69.0367C66.1013 67.5837 66.4328 66.1182 67.2053 64.8767C67.8103 63.8469 68.6647 62.986 69.69 62.3732C70.3561 61.9765 71.1018 61.7323 71.8735 61.6579C72.6441 61.6138 73.4097 61.8077 74.0664 62.2132C74.4617 62.4579 74.17 62.8532 73.7088 63.2579C73.2757 63.6572 72.8098 64.0193 72.3159 64.3403C71.6367 64.6375 71.0605 65.1286 70.6594 65.752C70.249 66.3482 69.9817 67.031 69.8782 67.7473C69.7559 68.5756 70.537 69.4132 71.3935 70.0156C71.8472 70.3476 72.3529 70.602 72.89 70.7685C73.3417 70.9201 73.8331 70.9034 74.2735 70.7214C74.5589 70.5931 74.8104 70.3997 75.0076 70.1567C75.2487 69.8888 75.4201 69.5655 75.5064 69.2156C75.6973 68.6075 75.7551 67.9656 75.6759 67.3332C75.6369 67.0414 75.5577 66.7563 75.4406 66.4862C75.3086 66.2198 75.1407 65.9728 74.9417 65.752C74.3222 65.187 73.4355 65.0228 72.6547 65.3285C72.457 65.3285 72.2688 65.4697 72.0617 65.5073C71.29 65.6862 70.9512 65.5073 70.5088 64.3685C70.4053 64.1144 70.2829 63.8603 70.1982 63.6062C69.838 62.8159 70.1826 61.8831 70.97 61.5167C71.6361 61.2364 72.3468 61.077 73.0688 61.0462C73.9674 60.9799 74.8691 61.1216 75.7041 61.4603C76.6229 61.8374 77.4343 62.4355 78.0664 63.2015C78.3515 63.5507 78.6036 63.9257 78.8194 64.3215C79.0576 64.7354 79.2501 65.1741 79.3935 65.6297C79.5708 66.2431 79.6781 66.8745 79.7135 67.512C79.823 68.7906 79.6429 70.0774 79.1864 71.2767C79.0501 71.6187 78.8864 71.9492 78.697 72.265C78.4994 72.5756 78.2829 72.8485 78.0664 73.1403L77.9817 73.0838Z" fill="black"/>
</svg>
