<svg width="96" height="96" viewBox="0 0 96 96" fill="none" xmlns="http://www.w3.org/2000/svg">
<path d="M49.9238 14.3514C56.4895 10.6792 64.3958 10.2926 71.2885 13.3067C74.6454 14.7696 77.6186 16.989 79.9755 19.7914C80.5794 20.4572 81.1272 21.1718 81.6132 21.9279L82.3755 23.0385C82.6296 23.4055 82.8085 23.8197 83.0249 24.2055C83.4202 24.9961 83.8814 25.7679 84.2108 26.5773L85.152 29.0526C85.9678 31.509 86.4243 34.0703 86.5073 36.6573C86.583 39.2161 86.2656 41.7713 85.5661 44.2338C85.2491 45.307 84.8753 46.3626 84.4461 47.3961C83.9977 48.4154 83.4918 49.4083 82.9308 50.3702C82.3722 51.3449 81.7595 52.2876 81.0955 53.1938C80.3875 54.0587 79.6302 54.882 78.8273 55.6597C78.0531 56.4485 77.2295 57.1873 76.3614 57.8714C75.4867 58.5528 74.5721 59.1813 73.6226 59.7538C71.7561 60.8121 69.7725 61.6491 67.712 62.2479C63.5605 63.5887 59.1162 63.7387 54.8838 62.6808C52.8266 62.1606 50.8391 61.3959 48.9638 60.4032C47.1299 59.4689 45.3737 58.3894 43.712 57.1749L42.2343 56.0549L41.0673 55.1138C40.8467 54.9233 40.607 54.7561 40.352 54.6149C40.2849 54.592 40.212 54.592 40.1449 54.6149C40.0791 54.6149 40.0414 54.7091 39.9849 54.7561L39.6743 55.0573C38.2155 56.5444 36.7473 58.0408 35.2414 59.5185L30.5355 64.4502C27.4861 67.6691 24.4932 70.9538 21.4908 74.2291L16.9732 79.1326C15.4767 80.7702 13.8579 82.295 12.2673 83.8385C10.3002 85.7867 9.94259 85.015 10.7708 82.6338C11.3519 81.0377 12.0568 79.4895 12.8791 78.0032C14.0561 75.9869 15.4341 74.095 16.992 72.3561C20.2045 68.7546 23.4642 65.2 26.7708 61.6926C28.4085 59.942 30.0743 58.2008 31.7402 56.4691L34.2626 53.8902L35.5238 52.6008L37.6038 50.5302C37.9896 50.2573 38.3943 49.9938 38.7896 49.7585C38.9787 49.68 39.1739 49.617 39.3732 49.5702C39.5957 49.5222 39.8234 49.5033 40.0508 49.5138C40.9966 49.5809 41.9009 49.9282 42.6485 50.5114C43.072 50.7938 43.4861 51.1232 43.9002 51.4526L44.6626 52.0549L45.8861 52.9961C47.4595 54.2165 49.1347 55.2997 50.8932 56.2338C54.2813 57.9945 58.1014 58.752 61.9049 58.4173C64.3454 58.1542 66.7128 57.4257 68.8791 56.2714C71.0873 55.1486 73.0639 53.6191 74.7049 51.7632C77.9687 48.0057 79.8135 43.2238 79.919 38.2479C79.9849 35.5715 79.5145 32.9091 78.5355 30.4173C78.0591 29.1636 77.4734 27.9542 76.7849 26.8032L75.6179 25.1844C75.4357 24.9056 75.2209 24.6497 74.9779 24.422L74.2814 23.6597C70.5443 19.7787 65.2468 17.8051 59.8814 18.2949C56.5484 18.6312 53.3713 19.8747 50.6955 21.8902C49.9951 22.376 49.3428 22.9275 48.7473 23.5373C48.4461 23.8291 48.1073 24.1114 47.8061 24.4126C47.5049 24.7138 47.2791 25.0149 47.0343 25.3538C46.0546 26.6081 45.3492 28.0542 44.9638 29.5985C44.386 32.006 44.5635 34.533 45.472 36.8361C46.4127 39.2018 47.9379 41.2904 49.9049 42.9067C51.8108 44.5444 54.14 45.6111 56.6249 45.9844C58.9771 46.3066 61.3585 45.6501 63.2132 44.1679C63.5459 43.8738 63.8602 43.5595 64.1543 43.2267C64.4207 42.9113 64.6511 42.5672 64.8414 42.2008C66.0656 39.8631 66.1762 37.0994 65.1426 34.6714C64.5789 33.4306 63.4432 32.5446 62.1026 32.2997C60.6622 32.0178 59.1685 32.2937 57.9238 33.0714C57.477 33.3328 57.0993 33.6975 56.8226 34.1349C56.6562 34.4217 56.5625 34.7448 56.5496 35.0761C56.5623 35.2571 56.5906 35.4366 56.6343 35.6126C56.6343 35.7161 56.6814 35.8102 56.7191 35.9138L56.7943 36.0644C56.8044 36.0949 56.8044 36.1279 56.7943 36.1585C56.9003 36.3246 57.0233 36.4792 57.1614 36.6197C57.3967 36.8361 57.632 37.0244 57.8202 37.1749C58.0085 37.3255 58.1402 37.4008 58.1685 37.4761C58.1967 37.5514 58.1685 37.4761 58.1685 37.6832C58.1546 37.8146 58.1546 37.9471 58.1685 38.0785C58.1685 38.2385 58.1685 38.2573 58.1685 38.3514C58.1685 38.4455 58.2343 38.5397 58.2249 38.5397C58.2225 38.5647 58.2225 38.5899 58.2249 38.6149V38.6149V38.6149V38.6149C57.8296 38.2102 58.7708 39.1702 58.6673 39.0761V39.0761V39.0761C58.6012 39.0123 58.5286 38.9555 58.4508 38.9067C58.3092 38.8146 58.1577 38.7389 57.9991 38.6808H57.8485H57.9049C58.051 38.6794 58.1963 38.6604 58.3379 38.6244H58.4602C58.5352 38.6082 58.6079 38.5829 58.6767 38.5491C58.787 38.5142 58.8916 38.4634 58.9873 38.3985C59.0428 38.3569 59.0906 38.306 59.1285 38.2479C59.1285 38.2949 59.1285 38.2479 59.1285 38.1538C59.142 38.1013 59.142 38.0462 59.1285 37.9938C58.9948 37.7831 58.8144 37.606 58.6014 37.4761C58.415 37.3815 58.2876 37.2007 58.2612 36.9934C58.2348 36.786 58.3129 36.5791 58.4696 36.4408C58.6207 36.3028 58.7963 36.1942 58.9873 36.1208C59.3432 36.013 59.7231 36.013 60.0791 36.1208C60.5503 36.2543 60.9723 36.5225 61.2932 36.8926C61.4386 37.0654 61.5678 37.2513 61.6791 37.4479C61.7724 37.6276 61.8541 37.8131 61.9238 38.0032C62.1942 38.8061 62.1942 39.6755 61.9238 40.4785C61.8335 40.7558 61.7103 41.0212 61.5567 41.2691C61.4552 41.4195 61.3452 41.5641 61.2273 41.702C61.1271 41.821 61.0169 41.9312 60.8979 42.0314C60.4269 42.4753 59.8553 42.7983 59.232 42.9726C58.9268 43.0676 58.6103 43.1214 58.2908 43.1326C58.1435 43.1423 57.9958 43.1423 57.8485 43.1326H57.4532C57.1943 43.128 56.9363 43.1029 56.6814 43.0573C56.4402 43.017 56.2015 42.9636 55.9661 42.8973C55.0745 42.5794 54.239 42.122 53.4908 41.542C52.5779 40.9474 51.8094 40.1564 51.2414 39.2267C51.1305 39.0573 51.0299 38.8813 50.9402 38.6997L50.6955 38.2291C50.5543 37.8902 50.4132 37.542 50.2908 37.1844C50.0537 36.4088 49.9239 35.6045 49.9049 34.7938C49.8906 33.0982 50.3821 31.4368 51.3167 30.022C52.1659 28.7549 53.2722 27.6806 54.5638 26.8691C55.7723 26.101 57.1026 25.5441 58.4979 25.222C59.9349 24.8887 61.4186 24.8059 62.8838 24.9773C66.1912 25.3196 69.1462 27.1944 70.8649 30.0408C71.6657 31.3409 72.2327 32.7711 72.5402 34.2667C73.0944 36.9991 72.9388 39.828 72.0885 42.4832C71.6578 43.8682 71.0234 45.1814 70.2061 46.3797C69.9802 46.6902 69.7543 47.0008 69.5096 47.3208C69.2649 47.6408 68.9826 47.9326 68.7096 48.2055C68.1965 48.7027 67.6561 49.1709 67.0908 49.6079C64.7701 51.3242 62.0079 52.3429 59.1285 52.5444C56.4319 52.6755 53.7395 52.2128 51.2414 51.1891C49.4145 50.4506 47.7005 49.4589 46.1496 48.2432C44.643 47.0393 43.2901 45.6548 42.1214 44.1208C40.9413 42.547 39.9907 40.8137 39.2979 38.9726C38.5701 37.0853 38.1537 35.0923 38.0649 33.0714C37.8531 28.9464 39.0477 24.8716 41.4532 21.5138C41.7458 21.1022 42.06 20.7064 42.3943 20.3279L42.8743 19.7538L43.3543 19.2644L45.3308 17.382C46.0179 16.7797 46.7896 16.2526 47.5238 15.6973C48.2466 15.1448 49.0184 14.6597 49.8296 14.2479L49.9238 14.3514Z" fill="black"/>
</svg>
