<svg width="96" height="96" viewBox="0 0 96 96" fill="none" xmlns="http://www.w3.org/2000/svg">
<path d="M49.2705 55.3043C49.6376 54.156 50.0046 53.0078 50.3152 51.869L50.7952 50.1749L50.974 49.3372L51.0211 49.2054C51.0858 49.0329 51.1269 48.8525 51.1434 48.669C51.1607 48.573 51.0979 48.4809 51.0023 48.4619C50.9135 48.4338 50.8181 48.4338 50.7293 48.4619C50.5366 48.5274 50.3602 48.6333 50.2117 48.7725L50.1081 48.8854L49.8352 49.1772C49.6658 49.3749 49.4776 49.5725 49.3081 49.789C48.9599 50.2031 48.6211 50.6454 48.2917 51.0972C46.926 52.9783 45.669 54.936 44.527 56.9607C42.8234 59.9537 41.3646 63.1254 39.8211 66.2501L38.7387 68.4525C38.4187 69.2148 38.1364 69.996 37.7976 70.7301L36.6587 72.9607L34.8799 76.4996C33.6093 78.9937 32.1599 81.2054 30.927 82.0901C30.3868 82.5316 29.7758 82.8784 29.1199 83.116C28.7445 83.257 28.3377 83.2928 27.9434 83.2196C27.4958 83.0799 27.0866 82.8383 26.7481 82.5137C26.23 81.9761 25.8321 81.3345 25.5811 80.6313C25.3135 79.9006 25.1426 79.1381 25.0728 78.3631C24.9835 77.424 24.9835 76.4786 25.0728 75.5396C25.167 74.4949 25.3834 73.3654 25.5999 72.2454C25.7223 71.6901 25.854 71.1254 25.9952 70.5701L26.3811 69.1207L26.9928 66.9937L27.6046 64.8854L28.0752 63.2854C28.2728 62.6454 28.4705 61.9772 28.6117 61.2996C28.6879 60.9657 28.732 60.6253 28.7434 60.2831C28.7617 60.1106 28.7184 59.9372 28.6211 59.7937C28.4987 59.6713 28.2917 59.709 28.1317 59.6996C27.4743 59.8362 26.8927 60.216 26.5034 60.7631C26.1047 61.2566 25.743 61.7788 25.4211 62.3254L24.254 64.2078L22.9176 66.4666C21.9764 67.9913 21.1011 69.5254 20.094 71.0313C19.017 72.5491 17.7696 73.9385 16.3764 75.1725C16.0093 75.4831 15.6328 75.7843 15.2376 76.0572C14.8282 76.3285 14.404 76.5768 13.967 76.8007C13.0849 77.2698 12.1305 77.588 11.1434 77.7419C10.6993 77.8319 10.2417 77.8319 9.79756 77.7419C9.5152 77.6854 9.40226 77.6007 9.41167 77.5066C9.42108 77.4125 9.57167 77.2807 9.81638 77.1301L10.2493 76.8854L10.767 76.5278C11.737 75.7924 12.5391 74.8587 13.1199 73.789C13.8917 72.5749 14.6634 71.069 15.5952 69.4313C17.2611 66.8525 18.8423 64.029 20.5458 61.1019L21.2046 59.9913C21.647 59.2949 22.0893 58.589 22.5599 57.9301C23.3868 56.6551 24.3772 55.4938 25.5058 54.476C26.3285 53.7242 27.3143 53.1733 28.3858 52.8666C28.8476 52.7442 29.3206 52.6685 29.7976 52.6407C30.299 52.6534 30.799 52.7006 31.294 52.7819C31.5911 52.8734 31.8833 52.9802 32.1693 53.1019C32.439 53.2407 32.6891 53.4148 32.9128 53.6196C33.2463 53.9389 33.5204 54.3149 33.7223 54.7301C34.2143 55.878 34.3456 57.1483 34.0987 58.3725C33.8085 60.1563 33.3934 61.9175 32.8564 63.6431L32.4799 64.9513L32.2634 65.676L31.8305 67.0596C31.5481 67.9694 31.2846 68.8823 31.0399 69.7984L30.8611 70.4854C30.8611 70.636 30.814 70.636 30.8046 70.6454V70.7019L30.6917 70.9372C30.4872 71.4126 30.3449 71.9124 30.2681 72.4243C30.1931 72.7335 30.1931 73.0562 30.2681 73.3654C30.3246 73.516 30.4093 73.7043 30.5505 73.7137C30.6692 73.6972 30.7788 73.6408 30.8611 73.5537C31.0479 73.3595 31.2121 73.1448 31.3505 72.9137C31.6611 72.4149 31.934 71.8784 32.2446 71.2572L33.5058 68.716C33.9199 67.7749 34.447 66.9654 34.9081 66.0619C35.774 64.2548 36.6493 62.4572 37.5623 60.669C39.739 56.1836 42.2892 51.8892 45.1858 47.8313C46.0845 46.6125 47.1168 45.4981 48.2634 44.509C49.5244 43.3535 51.1565 42.686 52.8658 42.6266C53.6513 42.618 54.4214 42.8441 55.0776 43.276C55.6086 43.7922 55.9417 44.4783 56.0187 45.2149C56.1391 46.9869 55.9383 48.7661 55.4258 50.4666C54.654 53.4501 53.7787 56.3019 52.9881 59.1725C52.1602 61.9597 51.4878 64.7907 50.974 67.6525C50.7916 68.6585 50.7065 69.6796 50.7199 70.7019C50.724 71.0766 50.7875 71.4483 50.9081 71.8031C50.923 71.8426 50.9419 71.8805 50.9646 71.916V71.916L50.174 72.5749V72.5749V72.5749C50.1466 72.5975 50.1214 72.6227 50.0987 72.6501L50.0329 72.7537V72.7537C50.0329 72.7537 50.0329 72.7537 50.0329 72.6407C49.967 72.4243 49.8634 72.3866 49.6564 72.1043C49.0258 71.5301 49.2893 71.7654 49.2799 71.6525C49.519 71.257 49.7297 70.8449 49.9105 70.4196C50.127 69.9301 50.334 69.4313 50.5411 68.9137C50.9458 67.8784 51.3317 66.8243 51.7176 65.7607C52.1034 64.6972 52.3858 63.7372 52.7623 62.7019L53.8917 59.4925C54.654 57.3466 55.4258 55.2101 56.2352 53.0925C58.7764 46.5043 61.3364 39.9913 65.2987 33.9019C66.1753 32.568 67.1606 31.3088 68.2446 30.1372C68.7529 29.5819 69.2517 29.0925 69.7317 28.6596C70.1771 28.2752 70.6421 27.9139 71.1246 27.5772C71.8462 27.0525 72.6225 26.6076 73.4399 26.2501C74.4068 25.8152 75.4786 25.6681 76.527 25.8266C76.8776 25.8645 77.2241 25.9338 77.5623 26.0337C77.967 26.2313 77.7034 26.7113 77.054 27.5396C76.4046 28.3678 75.4446 29.5913 74.2305 31.069C73.3646 32.2266 72.4611 33.3278 71.6423 34.5325C71.2281 35.1349 70.8328 35.756 70.4564 36.4149L69.2423 38.2972C67.6276 40.8693 66.1541 43.5274 64.8281 46.2596C62.0869 51.9934 59.6428 57.8647 57.5058 63.8501C57.0258 64.9607 56.847 66.1748 56.414 67.3231C55.9811 68.4713 55.6329 69.6478 55.1905 70.8431C54.974 71.436 54.7387 72.0478 54.4658 72.7254C54.334 73.0454 54.1928 73.3749 54.0046 73.7419C53.766 74.1696 53.482 74.5704 53.1576 74.9372L52.9787 75.1631L52.6681 75.4925L52.4893 75.6431C52.4182 75.7106 52.3427 75.7735 52.2634 75.8313C52.0343 75.9955 51.7919 76.1403 51.5387 76.2643L51.3317 76.3584L50.9928 76.4713C50.7524 76.5382 50.5069 76.5854 50.2587 76.6125C49.736 76.6592 49.2093 76.5917 48.7152 76.4148C48.4652 76.3362 48.2252 76.2288 47.9999 76.0949L47.5764 75.7937L47.2093 75.4266L47.0305 75.2384V75.1725C46.5646 74.5885 46.222 73.9162 46.0234 73.196C45.7637 72.2783 45.6494 71.3256 45.6846 70.3725C45.7351 68.9542 45.9115 67.5431 46.2117 66.156C46.4752 64.8572 46.7858 63.6149 47.1529 62.3913C47.8117 59.9537 48.5458 57.6007 49.2611 55.276L49.2705 55.3043Z" fill="black"/>
<path d="M73.9478 14.1368C75.3689 13.8262 76.7713 13.5626 78.3242 13.3744C79.0866 13.2803 79.8489 13.205 80.6678 13.1768H81.3078C81.6183 13.1768 81.9195 13.1768 82.2489 13.1768C82.8392 13.1772 83.4261 13.266 83.9901 13.4403C84.3848 13.5618 84.7639 13.7292 85.1195 13.9391C85.4976 14.1016 85.8233 14.3654 86.0607 14.7015C86.2866 15.0309 86.5125 15.3697 86.7195 15.7273C86.8579 16.1405 86.971 16.5617 87.0583 16.9885L87.1901 17.5532C87.2461 17.7391 87.2684 17.9336 87.256 18.1273C87.256 18.5226 87.256 18.9179 87.256 19.3038C87.256 19.8779 87.1807 20.3297 87.1525 20.8097C87.1054 21.7509 86.9548 22.6921 86.8325 23.6332C86.5501 25.4497 86.1736 27.1815 85.816 28.9226C85.4678 30.4473 85.3078 32.0097 84.9878 33.5156L84.4136 36.3485C84.216 37.2897 84.0183 38.1838 83.8207 39.125C83.7172 39.6332 83.2654 39.7179 82.7007 39.1909C81.9709 38.4246 81.5372 37.4238 81.4772 36.3673C81.4772 35.3195 81.4772 34.2842 81.4772 33.2615C81.4772 32.7532 81.4772 32.245 81.5336 31.7368L81.7407 30.2497C82.023 28.2732 82.3619 26.325 82.6819 24.3956C82.9235 23.2578 83.0215 22.0942 82.9736 20.9321C82.9736 20.3862 82.7478 19.6897 82.8136 19.6426C82.8795 19.5956 82.7478 19.2473 82.6725 19.0497C82.5972 18.8521 82.616 18.7956 82.5125 18.7297C82.4105 18.6683 82.2993 18.6238 82.183 18.5979C81.829 18.5262 81.4642 18.5262 81.1101 18.5979C79.8606 18.7292 78.6216 18.9462 77.4019 19.2473C75.828 19.6235 74.2759 20.0853 72.7525 20.6309C70.3929 21.4111 68.1039 22.3903 65.9101 23.5579C64.3078 24.5796 62.7765 25.7084 61.3266 26.9368C60.9972 27.1909 60.7054 27.4826 60.3854 27.7179C59.1148 28.6026 58.456 28.4991 57.3266 27.4356C57.0725 27.1909 56.7995 26.9744 56.5736 26.7203C55.7945 25.8459 55.7945 24.5264 56.5736 23.6521C57.172 22.9155 57.8164 22.2176 58.503 21.5626C59.1802 20.894 59.9174 20.2891 60.7054 19.7556C62.3044 18.6793 63.9884 17.735 65.7407 16.9321C67.0489 16.3203 68.3854 15.7744 69.7595 15.2756C71.1336 14.7768 72.583 14.4003 73.9666 14.0238L73.9478 14.1368Z" fill="black"/>
</svg>
