<svg width="96" height="96" viewBox="0 0 96 96" fill="none" xmlns="http://www.w3.org/2000/svg">
<path d="M52.734 78.3714C53.1406 78.6195 53.4059 79.0453 53.4493 79.5196C53.4819 80.0779 53.4215 80.6377 53.2704 81.1761C53.1669 81.5996 52.3952 82.3808 52.0752 82.2679C51.4595 82.0661 50.8614 81.8143 50.2869 81.5149C49.9199 81.3361 46.0422 77.5149 44.7152 76.2537C43.4465 75.0158 42.2612 73.6953 41.1669 72.3008C38.9175 69.4773 36.6399 66.7384 34.4187 63.9243C33.9438 63.2816 33.516 62.6053 33.1387 61.9008C31.7829 59.5279 30.2074 57.2875 28.4328 55.209C28.1765 54.8265 27.8391 54.5052 27.4446 54.2679C26.7104 53.9102 22.2493 47.9808 21.7975 47.0961C20.7528 44.9126 19.5763 42.8137 18.5034 40.6396C18.3434 40.329 18.061 40.0843 18.1175 39.6984C18.1478 38.9102 17.9051 38.1356 17.4304 37.5055C16.9305 36.5993 16.5025 35.6552 16.1504 34.682C16.0256 34.1265 15.9781 33.5564 16.0093 32.9879C16.0093 32.4608 16.9504 32.2067 17.0822 32.2914C17.5716 32.5267 17.7504 31.9902 18.0234 31.7549C18.1266 31.6711 18.2406 31.6015 18.3622 31.5479C19.2592 32.0943 20.1092 32.7145 20.9034 33.402C21.8664 34.1046 22.7728 34.8819 23.614 35.7267C23.614 35.7267 23.9622 36.2067 24.461 36.8749L26.2963 39.3126C27.661 41.1102 29.1199 42.9737 29.4304 43.3408C29.7354 43.7527 29.9736 44.2101 30.1363 44.6961C30.2304 44.9126 34.5034 50.2114 34.6446 50.4467C35.5399 51.5472 36.2547 52.783 36.7622 54.1079C36.8556 54.3813 37.0064 54.6317 37.2046 54.842C38.6634 56.7714 39.9057 58.8608 41.214 60.9031C41.8822 61.9479 42.6728 62.9079 43.3881 63.9149C43.5028 64.1129 43.6065 64.3172 43.6987 64.5267C43.8129 64.7852 43.9483 65.0339 44.1034 65.2702C45.8822 67.6043 47.4069 70.1173 49.3269 72.329C49.7693 72.8373 51.2846 75.7267 51.821 76.282C52.1128 76.5831 52.3952 78.1737 52.734 78.3714Z" fill="black"/>
<path d="M48.1972 51.285C48.5709 51.8908 48.5709 52.6556 48.1972 53.2615C48.0843 53.5062 47.5102 53.7603 47.3313 53.6191C46.9831 53.3556 46.6255 53.0921 46.3055 52.8003C46.1266 52.6215 43.7831 49.4685 42.889 48.4521C42.4655 47.9438 42.0702 47.4356 41.6937 46.9085C41.3172 46.3815 41.0349 45.8168 40.7525 45.2615L36.9878 38.4944C36.7149 37.99 36.4911 37.4605 36.3196 36.9132C35.6931 35.0504 34.8663 33.2611 33.8537 31.5768C33.7381 31.2581 33.5321 30.98 33.2607 30.7768C32.7431 30.4568 30.4372 25.685 30.2584 24.9979C30.0607 24.1415 29.8255 23.3132 29.5902 22.4756C29.3549 21.6379 29.1855 20.7721 28.9784 19.925C28.9219 19.6897 28.7525 19.4826 28.8749 19.1721C29.0409 18.6184 28.9658 18.0203 28.6678 17.525C28.4063 16.8305 28.1893 16.1201 28.0184 15.3979C27.9787 14.9867 27.9945 14.572 28.0655 14.165C28.0655 13.7885 28.7902 13.6191 28.9125 13.685C29.2607 13.8826 29.4302 13.4873 29.6749 13.3273C29.7608 13.2684 29.8522 13.218 29.9478 13.1768C31.2493 14.2457 32.4758 15.4029 33.6184 16.6403L35.5007 19.3885C36.3478 20.8191 37.2231 22.3062 37.3831 22.5979C37.5632 22.9282 37.6812 23.2887 37.7313 23.6615C37.7313 23.8309 40.3478 28.0756 40.4137 28.2638C40.9621 29.1547 41.2852 30.1659 41.3549 31.2097C41.3686 31.4197 41.4332 31.6232 41.5431 31.8026C42.2583 33.4181 42.8866 35.0707 43.4255 36.7532C43.7266 37.6003 44.1407 38.4003 44.489 39.2285C44.5343 39.3892 44.5689 39.5527 44.5925 39.7179C44.6258 39.9204 44.6794 40.1191 44.7525 40.3109C45.609 42.2591 46.3431 44.2544 47.1619 46.2215C47.3407 46.6732 47.7831 49.045 48.0372 49.5438C48.1313 49.8356 48.0466 51.0215 48.1972 51.285Z" fill="black"/>
<path d="M80.2917 67.5675C80.8093 68.0758 80.4799 68.8287 79.6987 69.7228C79.4446 70.0052 78.4846 70.391 78.2681 70.2687C77.8508 70.0561 77.4511 69.8107 77.0728 69.5346C76.8846 69.3558 74.6728 66.1934 73.9764 65.0828C73.3137 64.0179 72.7528 62.8929 72.3011 61.7228C71.3599 59.3793 70.4187 57.0169 69.4775 54.6734C69.2774 54.1471 69.1323 53.6014 69.0446 53.0452C68.706 51.1406 68.1339 49.285 67.3411 47.5205C67.2607 47.1999 67.0948 46.9071 66.8611 46.6734C66.3811 46.2969 64.6493 41.4216 64.574 40.744C64.3952 39.0499 64.0281 37.4216 63.8117 35.7463C63.8117 35.5016 63.6234 35.2852 63.8117 35.0028C64.0526 34.4934 64.0526 33.9028 63.8117 33.3934C63.6298 32.6951 63.5008 31.984 63.4258 31.2663C63.4398 30.854 63.5225 30.4468 63.6705 30.0616C63.774 29.6946 64.6117 29.5816 64.687 29.6569C65.0352 29.8734 65.2893 29.5063 65.6281 29.3652C65.731 29.3125 65.838 29.2684 65.9481 29.2334C67.1084 30.3849 68.1548 31.6456 69.0728 32.9981C69.0728 32.9981 69.2611 33.384 69.5058 33.9393C69.7505 34.4946 70.0705 35.2005 70.3905 35.944C71.0211 37.4216 71.6799 38.9652 71.8305 39.2663C71.963 39.6052 72.03 39.9661 72.0281 40.3299C72.0281 40.5087 74.0046 44.8946 74.0517 45.0358C74.465 45.9534 74.683 46.947 74.6917 47.9534C74.6903 48.1535 74.7388 48.3508 74.8328 48.5275C75.4092 50.1228 75.9024 51.747 76.3105 53.3934C76.5552 54.2216 76.9034 55.0122 77.2517 55.8216C77.2881 55.9793 77.3101 56.14 77.3175 56.3016C77.3306 56.5001 77.3685 56.6962 77.4305 56.8852C78.1928 58.7675 78.7011 60.7816 79.6517 62.5981C79.8964 63.0122 80.1599 65.3275 80.4046 65.8169C80.4046 66.1369 80.0752 67.3605 80.2917 67.5675Z" fill="black"/>
</svg>
