<svg width="96" height="96" viewBox="0 0 96 96" fill="none" xmlns="http://www.w3.org/2000/svg">
<path d="M48.7755 86.5737C49.0296 86.7713 48.5873 87.0161 47.7402 87.1572C47.3372 87.2097 46.9291 87.2097 46.5261 87.1572C46.3002 87.0631 46.0743 86.9784 45.9143 86.8937C45.7543 86.809 45.359 85.849 45.152 85.5008C44.9776 85.1816 44.8748 84.8283 44.8508 84.4655C44.7661 83.7502 44.6343 83.0255 44.5402 82.3008C44.5221 82.1354 44.5414 81.9682 44.5967 81.8113C44.7614 81.2587 44.7614 80.6699 44.5967 80.1172C44.5967 80.0325 44.5967 79.929 44.4461 79.8537C44.2955 79.7784 44.1073 78.2066 44.192 77.9713C44.2767 77.736 44.3802 77.4537 44.4649 77.1996L44.7473 76.4184C44.7473 76.3431 44.7473 76.2678 44.879 76.1925C45.2084 76.0137 45.1331 75.8631 45.199 75.7031C45.2729 75.4693 45.3674 75.2425 45.4814 75.0255C45.5782 74.8943 45.6958 74.7799 45.8296 74.6866C45.9426 74.5831 46.2814 74.6866 46.3284 74.6866C46.3755 74.6866 46.6108 74.6866 46.7614 74.6866H46.912C46.912 74.6866 47.1943 74.9502 47.5143 75.2419L47.9755 75.6372C48.0469 75.7083 48.1101 75.7872 48.1637 75.8725L48.2673 76.1549C48.3331 76.3149 48.4178 76.5313 48.512 76.7478C48.672 77.1996 48.8226 77.689 48.8696 77.7549C48.9167 77.8208 48.8696 77.9713 48.8696 78.0749C48.8696 78.1784 49.3684 79.4678 49.3496 79.5337C49.3496 79.8255 49.519 80.0984 49.2273 80.4184C49.1953 80.4737 49.1953 80.5419 49.2273 80.5972C49.2979 81.0967 49.2979 81.6036 49.2273 82.1031C49.2395 82.3592 49.2709 82.6141 49.3214 82.8655C49.3214 82.8655 49.3214 82.969 49.2649 83.016C49.2362 83.0715 49.2202 83.1325 49.2178 83.1949C49.2379 83.8267 49.3071 84.4561 49.4249 85.0772C49.4814 85.209 49.152 85.9337 49.2273 86.0937C49.3026 86.2537 48.6814 86.4702 48.7755 86.5737Z" fill="black"/>
<path d="M23.0814 74.5339C25.8305 77.83 29.2893 80.4619 33.1991 82.2327C34.6445 82.8479 36.1362 83.3483 37.6602 83.7292C40.3627 84.4241 43.1579 84.6878 45.9426 84.5104C48.7684 84.3731 51.5603 83.8344 54.2344 82.9104C56.6071 82.0812 58.8482 80.9148 60.8885 79.4469C63.487 77.5386 65.8335 75.3091 67.872 72.8116C68.5402 72.0586 68.7473 72.3504 68.512 73.2633C68.3482 73.8781 68.1211 74.4742 67.8344 75.0422C67.41 75.8229 66.9019 76.555 66.3191 77.2257C65.1561 78.5333 63.8806 79.7364 62.5073 80.821C61.1143 81.8984 59.6239 82.8436 58.0555 83.6445C54.8957 85.2034 51.4874 86.1973 47.9849 86.581C45.8703 86.8237 43.7402 86.9055 41.6132 86.8257C39.4414 86.7327 37.2891 86.3756 35.2038 85.7621C30.6482 84.393 26.4641 82.0048 22.9685 78.7786C20.8222 76.8151 18.9709 74.5517 17.472 72.0586C15.2367 68.2586 13.8916 64.0014 13.5379 59.6069C13.2281 56.2496 13.5246 52.8639 14.4132 49.6116C14.6391 48.9151 14.8273 48.2186 15.072 47.5127C16.0979 44.9433 16.7661 44.2939 17.5002 44.021C17.6641 43.949 17.8342 43.8923 18.0085 43.8516C18.4885 43.8516 18.3567 44.9622 17.8108 46.7692C17.0052 49.4749 16.5653 52.2762 16.5026 55.0986C16.0048 62.1925 18.3788 69.1889 23.0908 74.5151L23.0814 74.5339Z" fill="black"/>
<path d="M41.6697 25.8569C41.4626 25.7346 41.8014 25.584 42.4603 25.3675C42.7672 25.2851 43.0837 25.2439 43.4014 25.2451C43.5815 25.3097 43.7549 25.3917 43.9191 25.4898C44.1533 25.9287 44.3607 26.3813 44.5403 26.8451C44.6658 27.143 44.7298 27.4631 44.7285 27.7863L44.7944 29.6687C44.7936 29.8089 44.7614 29.9472 44.7003 30.0734C44.5069 30.5105 44.4448 30.9945 44.5214 31.4663C44.5214 31.5416 44.5214 31.6169 44.6156 31.6922C44.7862 32.1827 44.8124 32.712 44.6909 33.2169C44.4682 33.5945 44.2732 33.9877 44.1073 34.3934C44.1073 34.4498 44.1073 34.5063 43.9944 34.5534C43.7026 34.6851 43.7497 34.7981 43.7309 34.9204C43.702 35.0936 43.6481 35.2616 43.5709 35.4193C43.4772 35.5191 43.3694 35.6048 43.2509 35.6734C43.0757 35.7479 42.8821 35.7676 42.6956 35.7298C42.5638 35.664 42.3756 35.7298 42.2062 35.7298H42.0273C41.6556 35.3986 41.3381 35.0111 41.0862 34.5816C41.0862 34.5816 40.992 34.1863 40.9073 33.7816C40.8226 33.3769 40.7097 32.9722 40.6814 32.8404C40.6532 32.7087 40.6814 32.6616 40.7662 32.5769C40.8509 32.4922 40.5591 31.3534 40.5685 31.3063C40.5685 31.071 40.5026 30.8263 40.7756 30.591C40.832 30.544 40.7756 30.4969 40.7756 30.4498C40.7699 30.034 40.8206 29.6192 40.9262 29.2169C40.9403 29.0101 40.9403 28.8026 40.9262 28.5957C40.9262 28.5957 40.9262 28.5204 40.9826 28.4828C41.0095 28.4393 41.0286 28.3916 41.0391 28.3416C41.0862 27.8596 41.0862 27.3742 41.0391 26.8922C41.0391 26.7981 41.3026 26.2616 41.2462 26.1487C41.1897 26.0357 41.745 25.9134 41.6697 25.8569Z" fill="black"/>
<path d="M14.6108 59.927C14.3002 60.1246 14.112 59.5317 14.3944 58.6564C14.5578 58.2482 14.7496 57.8519 14.9685 57.4705C15.0976 57.2957 15.1992 57.102 15.2697 56.8964C15.2697 56.8964 15.4485 56.7364 15.5991 56.6329L16.2014 56.3129C16.4441 56.1729 16.7215 56.1044 17.0014 56.1152C17.5661 56.1152 18.1685 56.0211 18.7708 55.9646C18.9169 55.9562 19.0627 55.9854 19.1944 56.0493C19.652 56.251 20.1677 56.2778 20.6438 56.1246C20.7285 56.1246 20.8132 56.1246 20.8697 55.9835C20.9261 55.8423 22.2908 55.6164 22.4885 55.7011C22.7121 55.7997 22.9416 55.8846 23.1755 55.9552C23.4108 56.0399 23.6367 56.1529 23.8814 56.2564C23.9473 56.2564 24.0132 56.2564 24.0791 56.3882C24.2579 56.727 24.3802 56.6705 24.5308 56.6988C24.7433 56.7393 24.9492 56.809 25.1426 56.9058C25.2668 57.0091 25.3719 57.1333 25.4532 57.2729C25.5095 57.4729 25.5095 57.6846 25.4532 57.8846C25.3779 58.0258 25.4532 58.2329 25.4532 58.4211C25.4579 58.4838 25.4579 58.5467 25.4532 58.6093C25.1533 59.0222 24.8196 59.4094 24.4555 59.767L23.7026 60.1529C23.3167 60.2846 22.9026 60.4446 22.8179 60.4917C22.7332 60.5388 22.6391 60.4917 22.5355 60.4258C22.432 60.3599 21.3026 60.9058 21.2461 60.9058C20.9826 60.9058 20.7379 61.0752 20.4367 60.7929C20.3802 60.7364 20.3332 60.7929 20.2767 60.7929C19.8218 60.8683 19.3575 60.8683 18.9026 60.7929C18.6657 60.7998 18.4297 60.825 18.1967 60.8682C18.1497 60.8682 18.1026 60.8682 18.0649 60.8117C18.0148 60.7776 17.9561 60.7581 17.8955 60.7552C17.3014 60.7554 16.7076 60.7868 16.1167 60.8493C15.9849 60.9058 15.2697 60.4446 15.0814 60.4823C14.8932 60.5199 14.7144 59.8423 14.6108 59.927Z" fill="black"/>
<path d="M19.4485 77.6877C16.5749 74.1154 14.4842 69.9789 13.312 65.5465C12.1707 61.1505 11.9338 56.5686 12.6155 52.0783C13.0566 48.8369 13.9368 45.6705 15.232 42.6665C18.7976 34.7314 25.2379 28.4425 33.2555 25.0665C34.5692 24.5194 35.9143 24.0511 37.2838 23.6642L39.345 23.1654L41.4908 22.836C46.5307 22.2922 51.6273 22.9801 56.3426 24.8407C59.3782 25.9973 62.183 27.6865 64.625 29.8289C67.0201 32.0548 68.8331 34.8339 69.905 37.923C70.5355 39.8054 69.6038 39.8054 68.1073 38.7795C67.4014 38.243 66.385 37.5748 65.3967 36.756C64.8243 36.3704 64.2744 35.9525 63.7497 35.5042C63.1455 35.0804 62.5643 34.6249 62.0085 34.1395C57.9262 30.4843 52.7739 28.2431 47.3167 27.7489C46.6389 27.6691 45.9568 27.6313 45.2744 27.636H44.2579L43.2414 27.7018C42.912 27.7018 42.5638 27.7018 42.2344 27.7771L41.2367 27.9371C40.5779 28.0124 39.9002 28.1818 39.2132 28.3324C36.4531 28.9621 33.7951 29.9759 31.3167 31.3442C28.2546 33.0685 25.5796 35.4039 23.4579 38.2054C21.3057 41.0459 19.645 44.2273 18.545 47.6171C17.3237 51.3409 16.8285 55.2644 17.0861 59.1748C17.3691 63.0907 18.4722 66.9033 20.3238 70.3654C20.8918 71.4325 21.5202 72.4664 22.2061 73.4618L23.3355 74.883L23.9097 75.5983L24.5402 76.2571C26.2151 78.0404 28.1131 79.5999 30.1873 80.8971C33.3593 82.865 36.8702 84.2247 40.5402 84.9065C44.1823 85.5531 47.9242 85.3535 51.4767 84.323C54.1809 83.5018 56.7266 82.2289 59.0061 80.5583C61.2799 78.932 63.2975 76.9746 64.992 74.7512C65.7826 73.8101 66.385 72.7842 67.1285 71.8054C67.712 70.8642 68.2391 70.0454 68.6626 69.3677C68.9746 68.7831 69.3401 68.2285 69.7544 67.7113C70.2526 67.0032 70.9365 66.4463 71.7308 66.1018C72.0546 65.9645 72.3881 65.8513 72.7285 65.763C73.2179 65.6689 73.4532 66.1395 73.4814 67.1465C73.4907 67.7766 73.4466 68.4063 73.3497 69.0289C73.1546 69.8638 72.903 70.6845 72.5967 71.4854C72.3426 72.163 72.0038 72.7936 71.6555 73.4618L71.185 74.403L70.6297 75.3442C70.2438 75.9654 69.8861 76.6242 69.4626 77.2265C69.0391 77.8289 68.5214 78.3936 68.0979 78.9865C66.1474 81.3114 63.8751 83.3461 61.3497 85.0289C58.7387 86.754 55.8832 88.0771 52.8791 88.9536C52.1242 89.1776 51.3575 89.3599 50.5826 89.4995L49.4155 89.7442C49.0297 89.8195 48.6344 89.8383 48.2391 89.8854C47.4485 89.9607 46.6673 90.0736 45.8673 90.1018H43.552C42.9631 90.0954 42.3753 90.0514 41.792 89.9701L40.0414 89.7536C38.8744 89.5842 37.745 89.2548 36.5967 89.0007C35.4485 88.7465 34.4038 88.2665 33.3026 87.8995C32.2014 87.5324 31.185 86.9583 30.1402 86.4595C25.996 84.3248 22.3295 81.3691 19.3638 77.7724L19.4485 77.6877Z" fill="black"/>
<path d="M45.3495 58.1675C45.3092 58.2421 45.2777 58.3211 45.2554 58.4028C45.2928 58.4488 45.3414 58.4844 45.3965 58.5064C45.481 58.5443 45.5694 58.5727 45.6601 58.5911H45.8765H46.206C46.433 58.591 46.6597 58.5721 46.8836 58.5346C47.5424 58.4781 48.1918 58.2711 48.8789 58.1675C51.2883 57.8099 53.8013 57.2264 56.4083 56.8781C57.5691 56.6715 58.7415 56.5364 59.9189 56.4734C61.4576 56.2784 63.0202 56.5095 64.4365 57.1417C64.8789 57.3487 64.6436 57.8758 64.1354 58.384C63.6367 58.9312 62.9779 59.3067 62.253 59.457C60.9677 59.5406 59.6905 59.7199 58.4318 59.9934L54.3095 60.6052C52.5871 60.8311 50.8742 61.5464 49.0389 61.9887C48.5401 62.1017 48.013 62.1864 47.5048 62.2805C47.2507 62.2805 46.9777 62.3558 46.7142 62.3934L45.773 62.5158C44.9824 62.5817 44.2107 62.5723 43.4483 62.6005L42.366 62.497H41.8389C41.6789 62.497 41.406 62.497 41.4718 62.2805L41.3118 59.5228C41.3118 59.0899 41.2365 58.5817 41.246 58.2146V57.2734C41.1989 55.3911 41.3589 53.5087 41.3401 51.6828C41.3265 50.9711 41.2699 50.2607 41.1707 49.5558L41.0295 48.5017C41.0295 48.1534 41.0295 47.8052 40.973 47.457C40.9165 47.1087 40.9165 46.8452 40.973 46.5158C41.1424 45.3675 41.4813 45.0099 42.3754 44.7652C42.5728 44.6999 42.7739 44.6464 42.9777 44.6052C43.6271 44.4923 44.2201 44.9723 44.6248 45.8287C45.8577 48.3793 45.726 51.0711 45.7636 53.6405C45.7636 54.5817 45.7636 55.5228 45.6789 56.464L45.6224 57.8946V58.0452V58.0452V58.0452L45.3495 58.1675Z" fill="black"/>
<path d="M61.5762 18.7043C61.7926 18.8455 61.5762 19.0996 60.9832 19.4384C60.715 19.5732 60.425 19.6593 60.1267 19.6925C59.9453 19.6352 59.769 19.5628 59.5997 19.4761C59.2552 19.0038 58.9408 18.5103 58.6585 17.9984C58.4516 17.6524 58.3052 17.2736 58.2256 16.8784C58.0373 16.0973 57.8397 15.3067 57.7079 14.5067C57.668 14.3404 57.6553 14.1688 57.6703 13.9984C57.7797 13.3757 57.7797 12.7388 57.6703 12.1161C57.6703 12.0125 57.6703 11.909 57.5573 11.8055C57.4444 11.702 57.4067 9.92314 57.5573 9.66902C57.8303 9.12314 58.0279 8.57725 58.3103 8.04078C58.3103 7.96549 58.3103 7.87137 58.4609 7.82431C58.7997 7.7302 58.8279 7.56078 58.9126 7.40078C59.0158 7.16063 59.1816 6.95259 59.3926 6.79843C59.5364 6.7179 59.6877 6.6517 59.8444 6.60078C59.9762 6.54431 60.2114 6.70431 60.2397 6.75137C60.2679 6.79843 60.4656 6.86431 60.5879 6.90196H60.7103C60.7103 6.97725 61.3691 8.30431 61.3785 8.39843C61.3378 9.01058 61.3567 9.62523 61.435 10.2337C61.435 10.3278 61.435 10.422 61.3409 10.5161C61.2467 10.6102 61.5667 11.8714 61.5573 11.9278C61.5573 12.2008 61.6514 12.4737 61.3973 12.7655C61.3503 12.822 61.3973 12.8784 61.3973 12.9349C61.4351 13.4204 61.4351 13.9082 61.3973 14.3937C61.4101 14.6436 61.4416 14.8921 61.4914 15.1373C61.4914 15.1373 61.4914 15.2314 61.4914 15.2784C61.4824 15.3377 61.4824 15.398 61.4914 15.4573C61.5516 16.0498 61.665 16.6357 61.8303 17.2078C61.8867 17.3396 61.755 18.0455 61.8303 18.1961C61.9056 18.3467 61.482 18.7043 61.5762 18.7043Z" fill="black"/>
<path d="M75.6457 28.8879C75.7116 29.1327 75.3351 28.9915 74.7045 28.6621C74.3978 28.4949 74.1159 28.2858 73.8669 28.0409C73.7748 27.8576 73.7022 27.6652 73.6504 27.4668C73.7761 26.9255 73.9657 26.401 74.2151 25.9044C74.3672 25.5412 74.6026 25.2188 74.9022 24.9632C75.461 24.4378 76.0623 23.9593 76.6998 23.5327C76.8475 23.4372 77.0148 23.3761 77.1892 23.3538C77.7634 23.2677 78.3141 23.066 78.808 22.7609C78.8927 22.7138 78.9869 22.7044 79.0339 22.5538C79.081 22.4032 80.6057 21.7821 80.841 21.8856C81.0763 21.9891 81.3774 21.9891 81.641 22.0832L82.4222 22.3562C82.488 22.3562 82.5633 22.3562 82.6386 22.4785C82.7086 22.6646 82.892 22.783 83.0904 22.7703C83.4823 22.7776 83.8407 22.9927 84.0316 23.335C84.0883 23.4932 84.0883 23.6662 84.0316 23.8244C83.9469 23.9468 84.0316 24.1162 84.0316 24.2574C84.0357 24.3106 84.0357 24.3641 84.0316 24.4174C84.0316 24.4832 83.0904 25.4527 83.0151 25.4997L82.808 25.6127L82.3751 25.895C82.0645 26.1115 81.7351 26.2338 81.6786 26.3091C81.6222 26.3844 81.528 26.3091 81.4339 26.3091C81.1078 26.4724 80.7934 26.658 80.4927 26.8644C80.2763 26.8644 80.1539 27.0903 79.8339 26.8644C79.768 26.8644 79.7398 26.8644 79.7022 26.8644C79.3756 27.0308 79.0315 27.1603 78.6763 27.2503C78.5097 27.3294 78.3545 27.4307 78.2151 27.5515C78.2151 27.5515 78.1304 27.5515 78.0927 27.5515C78.0551 27.5515 77.9892 27.5515 77.9516 27.5515C77.6222 27.8432 77.161 28.0032 76.9445 28.4079C76.888 28.4927 76.3045 28.6244 76.2574 28.7468C76.2104 28.8691 75.6269 28.775 75.6457 28.8879Z" fill="black"/>
</svg>
