<svg width="213" height="165" viewBox="0 0 213 165" fill="none" xmlns="http://www.w3.org/2000/svg">
<g id="vectorly-UNI-target-2" clip-path="url(#clip0_615_10718)">
<g id="vectorly-UNI-target-2_2">
<path id="path76-8" fill-rule="evenodd" clip-rule="evenodd" d="M92.6904 51.2495C94.8452 47.5106 98.3557 45.0464 102.255 44.0283C106.229 42.9629 110.62 43.5129 114.477 45.7512C118.377 48.064 120.948 51.7562 121.962 55.8364C122.957 59.9471 122.3 64.4526 119.903 68.3594C117.379 72.1809 113.569 74.69 109.378 75.5287C105.241 76.3543 100.784 75.6234 97.045 73.1287C93.3541 70.6292 91.0034 66.9464 90.2311 62.9119C89.5146 59.0028 90.2156 54.7816 92.6904 51.2495ZM94.367 52.3036C92.5432 55.4517 92.2003 59.0393 93.0614 62.2962C93.897 65.4511 95.9386 68.2722 99.002 70.0556C101.953 71.8024 105.344 72.1504 108.446 71.3914C111.492 70.6495 114.229 68.7619 116.002 65.9065C117.836 63.0968 118.341 59.8212 117.707 56.7751C117.062 53.6752 115.323 50.8037 112.469 48.9042C109.538 46.9132 106.103 46.2806 102.883 46.8712C99.5565 47.4863 96.4464 49.3214 94.367 52.3036Z" fill="black"/>
<path id="path78-0" fill-rule="evenodd" clip-rule="evenodd" d="M83.4293 52.307C83.2595 52.8335 82.6902 53.1229 82.135 52.9461C81.5799 52.7694 81.2857 52.2055 81.4554 51.6789C83.5025 44.9085 88.0768 39.581 93.913 36.4575C99.7738 33.2574 106.926 32.3794 113.882 34.4323C120.886 36.5464 126.358 41.3003 129.532 47.2783C132.757 53.3083 133.548 60.5574 131.356 67.5669C129.043 74.5267 124.106 79.9251 117.962 82.9478C111.894 85.9469 104.666 86.6395 97.7959 84.3205C91.7308 82.2481 86.9097 78.2155 83.8536 73.1393C80.7964 68.0662 79.4921 61.9864 80.4976 55.915C80.6031 55.3767 81.0706 54.9815 81.6544 55.0695C82.1767 55.1372 82.5577 55.6429 82.5141 56.2C81.8205 61.726 83.2582 67.1809 86.2366 71.6546C89.1227 75.9926 93.473 79.376 98.8756 80.9718C104.83 82.7548 110.944 81.9345 116.033 79.2294C121.107 76.571 125.158 72.0238 126.976 66.1725C128.853 60.3535 128.207 54.3398 125.626 49.2661C123.057 44.1571 118.555 39.9769 112.724 38.0225C106.721 35.9696 100.488 36.5267 95.2464 39.0716C89.9189 41.6726 85.5134 46.2652 83.4293 52.307Z" fill="black"/>
<path id="path80-0" fill-rule="evenodd" clip-rule="evenodd" d="M76.4219 41.0028C81.4326 32.8022 89.3018 27.3985 98.0137 25.3073C106.843 23.1969 116.467 24.4762 124.829 29.5579C133.171 34.6726 138.682 42.7417 140.82 51.6379C142.862 60.519 141.513 70.2545 136.205 78.591C130.824 86.8764 122.63 92.294 113.609 94.2079C104.685 96.1346 94.9898 94.637 86.768 89.3343C78.563 84.0056 73.2751 75.9172 71.406 67.0958C69.6476 58.4318 71.112 49.0109 76.4219 41.0028ZM78.0784 42.0447C73.4307 49.6753 72.2811 58.4356 74.2273 66.4734C76.213 74.4495 81.1262 81.6364 88.7255 86.2605C96.1581 90.8153 104.744 91.9029 112.663 90.0627C120.56 88.2582 127.714 83.4815 132.289 76.1296C137.013 68.8766 138.286 60.4186 136.541 52.5621C134.816 44.6736 130.148 37.4326 122.822 32.7108C115.365 27.863 106.73 26.522 98.7074 28.1919C90.4933 29.8322 83.0249 34.6071 78.0784 42.0447Z" fill="black"/>
<path id="path82-9" fill-rule="evenodd" clip-rule="evenodd" d="M66.9488 37.6895C72.9129 26.9388 82.6426 19.5522 93.681 16.373C104.759 13.1241 117.104 14.1552 128.093 20.1389C139.062 26.1564 146.617 36.1004 149.805 47.232C152.974 58.3965 151.861 70.83 145.662 81.7626C139.465 92.6915 129.345 100.068 117.998 103.094C106.771 106.14 94.3996 104.922 83.5387 98.7131C72.693 92.4777 65.4075 82.5233 62.4585 71.4359C59.4735 60.4125 60.786 48.3254 66.9488 37.6895ZM68.7513 38.699C63.1202 48.8626 62.1659 60.3184 65.2616 70.6813C68.2932 80.9246 75.1566 89.9946 85.3359 95.5434C95.3004 101.006 106.65 101.932 116.876 99.0215C127.081 96.1478 136.16 89.4459 141.656 79.5199C147.349 69.7121 148.41 58.5337 145.592 48.3787C142.793 38.1909 136.115 29.0268 126.249 23.39C116.203 17.607 104.843 16.4663 94.4617 19.1846C84.042 21.9709 74.58 28.6523 68.7513 38.699Z" fill="black"/>
<path id="path84-7" fill-rule="evenodd" clip-rule="evenodd" d="M49.8252 48.759C49.7203 49.3016 49.1838 49.6569 48.582 49.5421C47.9803 49.4273 47.6141 48.8997 47.719 48.3569C50.6516 32.3723 59.9256 19.0907 72.3481 10.5032C84.9364 1.8654 100.808 -1.96981 117.084 0.986937C133.352 3.98252 146.845 13.2658 155.486 25.863C164.271 38.5247 168.049 54.495 164.914 70.7186C161.781 86.9344 152.323 100.359 139.447 108.871C126.73 117.368 110.739 121.014 94.5129 117.8C79.3438 114.768 66.7746 106.353 58.2229 94.908C49.6749 83.4431 45.4441 69.0105 46.9306 54.052C47.0351 53.5109 47.5792 53.1173 48.0406 53.1512C48.6528 53.2121 49.0276 53.6941 48.9233 54.2338C47.7089 68.5915 52.2178 82.392 60.5756 93.227C68.8094 103.895 80.8739 111.693 95.1902 114.294C110.405 117.087 125.3 113.465 137.153 105.403C148.847 97.3587 157.647 84.915 160.401 69.8574C163.453 54.8675 159.913 40.0907 151.895 28.3009C143.885 16.4739 131.397 7.63985 116.372 4.67196C101.053 1.60813 86.0436 5.01569 74.06 12.9456C61.9109 20.9249 52.9296 33.5001 49.8252 48.759Z" fill="black"/>
<path id="path86-9" fill-rule="evenodd" clip-rule="evenodd" d="M107.728 59.3075C107.287 59.6501 106.655 59.5647 106.316 59.1078C105.977 58.6794 106.06 58.0511 106.501 57.7084C106.501 57.7084 114.052 51.2258 123.867 43.2014C126.112 41.3452 128.486 39.4318 130.92 37.5185C132.485 36.2621 134.068 35.0341 135.681 33.8062C139.801 30.6935 143.987 27.6952 147.871 24.9252C158.205 17.529 166.434 11.932 166.434 11.932C166.875 11.5893 167.508 11.6753 167.846 12.1322C168.185 12.5605 168.102 13.1883 167.662 13.531C167.662 13.531 160.099 19.9851 150.264 28.0095C146.566 31.0365 142.56 34.2634 138.481 37.4332C136.885 38.6611 135.26 39.8603 133.653 41.0597C131.154 42.8873 128.69 44.6863 126.321 46.3711C115.966 53.7101 107.728 59.3075 107.728 59.3075Z" fill="black"/>
<path id="path88-1" fill-rule="evenodd" clip-rule="evenodd" d="M161.079 17.1286C161.275 17.1001 161.474 17.0997 161.676 17.0712C164.843 16.8427 168.438 16.7287 168.438 16.7287C168.983 16.6145 169.514 16.9854 169.622 17.528C169.73 18.0705 169.376 18.585 168.831 18.6992C168.831 18.6992 165.469 19.9838 162.452 20.9548C161.508 21.2689 160.614 21.5262 159.874 21.7261C158.838 21.9831 158.131 22.126 158.131 22.126C157.295 22.2688 156.436 21.983 155.9 21.3262C155.364 20.6409 155.24 19.7558 155.578 18.9848C155.578 18.9848 156.401 17.2142 157.51 15.3009C158.992 12.7308 160.886 9.98948 160.886 9.98948C161.106 9.47546 161.699 9.24678 162.21 9.47524C162.72 9.67513 162.956 10.2747 162.735 10.7887C162.735 10.7887 162.017 14.0444 161.159 16.8715C161.132 16.9572 161.106 17.043 161.079 17.1286Z" fill="black"/>
<path id="path90-6" fill-rule="evenodd" clip-rule="evenodd" d="M171.919 24.9248C171.436 25.1818 170.821 25.0394 170.546 24.5539C170.271 24.0684 170.44 23.4685 170.923 23.183C170.923 23.183 175.971 19.6706 182.59 15.4442C184.101 14.4733 185.699 13.4737 187.343 12.4742C188.399 11.846 189.467 11.2179 190.559 10.5896C193.352 9.07612 196.194 7.61973 198.835 6.30613C205.874 2.79367 211.472 0.251795 211.472 0.251795C211.955 -0.0337706 212.571 0.137792 212.846 0.623254C213.121 1.10872 212.952 1.70863 212.469 1.99419C212.469 1.99419 207.41 5.4781 200.776 9.70447C198.287 11.2751 195.591 12.9599 192.832 14.5591C191.753 15.1873 190.651 15.7867 189.561 16.3578C187.865 17.2431 186.193 18.1284 184.582 18.8995C177.524 22.3834 171.919 24.9248 171.919 24.9248Z" fill="black"/>
<path id="path92-4" fill-rule="evenodd" clip-rule="evenodd" d="M107.348 62.5628C106.807 62.677 106.263 62.363 106.135 61.8204C106.006 61.2778 106.34 60.7349 106.881 60.6207C106.881 60.6207 115.614 57.9651 126.84 54.8525C129.408 54.1386 132.107 53.4247 134.864 52.7107C136.637 52.2538 138.432 51.797 140.237 51.3972C144.849 50.3406 149.483 49.3693 153.776 48.5126C165.199 46.2281 174.191 44.6574 174.191 44.6574C174.732 44.5147 175.275 44.8578 175.404 45.4004C175.533 45.9429 175.199 46.4853 174.658 46.5995C174.658 46.5995 165.92 49.2267 154.687 52.3108C150.465 53.4817 145.899 54.7098 141.302 55.8235C139.503 56.2804 137.694 56.6513 135.905 57.0511C133.123 57.6508 130.389 58.222 127.775 58.7361C116.342 60.992 107.348 62.5628 107.348 62.5628Z" fill="black"/>
<path id="path94-5" fill-rule="evenodd" clip-rule="evenodd" d="M170.061 46.9139C170.135 46.971 170.21 47.028 170.286 47.0851C172.135 48.3416 174.069 49.9123 174.069 49.9123C174.57 50.1693 174.781 50.7693 174.539 51.2548C174.297 51.7688 173.695 51.9686 173.194 51.7116C173.194 51.7116 170.745 51.1976 168.594 50.5693C166.996 50.0839 165.649 49.5124 165.649 49.5124C164.99 49.1983 164.523 48.5988 164.39 47.8849C164.257 47.171 164.475 46.4284 164.976 45.9144C164.976 45.9144 165.32 45.5148 165.892 45.0008C166.303 44.6296 166.816 44.2011 167.391 43.7442C169.26 42.3449 171.465 40.9454 171.465 40.9454C171.846 40.5456 172.484 40.5173 172.889 40.8885C173.293 41.2598 173.312 41.9166 172.93 42.3164C172.93 42.3164 171.658 44.5721 170.341 46.514C170.248 46.6567 170.154 46.7996 170.061 46.9139Z" fill="black"/>
<path id="path96-5" fill-rule="evenodd" clip-rule="evenodd" d="M104.997 57.7359C105.426 58.0786 105.489 58.707 105.136 59.1353C104.784 59.5637 104.149 59.6208 103.719 59.2781C103.719 59.2781 96.1647 53.8525 86.6866 46.6848C84.519 45.057 82.2666 43.3146 79.984 41.5156C78.5164 40.3733 77.0318 39.2028 75.5774 38.0034C71.8606 34.9193 68.2196 31.7497 64.8605 28.8369C55.9236 21.0124 49.0729 14.7298 49.0729 14.7298C48.643 14.3871 48.5804 13.7302 48.933 13.3304C49.2856 12.9021 49.9209 12.8164 50.3506 13.1877C50.3506 13.1877 57.8952 18.6132 67.3506 25.8094C70.9048 28.5223 74.7326 31.4353 78.4923 34.4623C79.9633 35.6331 81.4044 36.861 82.8287 38.0603C85.0434 39.9451 87.2019 41.8014 89.2411 43.6004C98.1576 51.4249 104.997 57.7359 104.997 57.7359Z" fill="black"/>
<path id="path98-6" fill-rule="evenodd" clip-rule="evenodd" d="M54.4462 17.6714C54.4125 17.2717 54.3809 16.8722 54.3551 16.4438C54.1878 13.6739 54.2191 10.5613 54.2191 10.5613C54.1177 10.0187 54.4792 9.50426 55.0258 9.39004C55.5724 9.30437 56.0985 9.64727 56.1997 10.1898C56.1997 10.1898 57.3529 13.1027 58.1909 15.7299C58.8191 17.7003 59.2291 19.4707 59.2291 19.4707C59.353 20.1275 59.1734 20.8129 58.7392 21.3269C58.305 21.8409 57.661 22.1552 56.9819 22.1552C56.9819 22.1552 56.0422 22.1834 54.7062 22.0977C54.022 22.0692 53.2464 21.9837 52.4305 21.898C49.2163 21.4983 45.6032 20.8701 45.6032 20.8701C45.0471 20.8701 44.5959 20.4418 44.5959 19.8706C44.5959 19.3281 45.0471 18.8712 45.6032 18.8712C45.6032 18.8712 49.2163 18.2715 52.4305 17.8717C53.1447 17.786 53.828 17.7 54.4462 17.6714Z" fill="black"/>
<path id="path100-6" fill-rule="evenodd" clip-rule="evenodd" d="M0.526393 16.0148C0.0378608 15.7577 -0.143184 15.1293 0.122348 14.6438C0.387879 14.1584 0.999981 13.9869 1.48823 14.2439C1.48823 14.2439 6.88593 16.5289 13.6886 19.6987C15.2407 20.4126 16.8514 21.2119 18.4857 22.0401C19.5357 22.5541 20.5976 23.0965 21.6372 23.6676C24.2957 25.1525 26.893 26.7234 29.2905 28.1798C35.6837 32.092 40.554 35.3473 40.554 35.3473C41.0423 35.6044 41.2233 36.2328 40.9581 36.7183C40.6926 37.2037 40.0805 37.3752 39.5919 37.1182C39.5919 37.1182 34.2002 34.8049 27.416 31.6065C24.8716 30.4072 22.1335 29.0938 19.4429 27.6945C18.3908 27.1234 17.3612 26.5232 16.3442 25.9521C14.7608 25.0383 13.221 24.1246 11.7655 23.2108C5.38671 19.27 0.526393 16.0148 0.526393 16.0148Z" fill="black"/>
<path id="path102-0" fill-rule="evenodd" clip-rule="evenodd" d="M53.4401 155.544C53.8579 153.773 54.7344 150.404 55.8807 146.12C59.1812 133.812 64.7022 113.965 67.631 103.456C67.7724 102.914 68.3239 102.6 68.8615 102.742C69.3992 102.885 69.7208 103.428 69.5791 103.97C67.2862 113.108 63.2501 129.3 60.2646 141.522C58.6737 148.033 57.3805 153.43 56.8267 156.001C56.7063 156.572 56.6017 157.143 56.5764 157.286C56.5681 157.714 56.4172 158.085 56.146 158.399C55.8198 158.771 55.3511 158.971 54.8585 158.971C54.8585 158.971 48.4298 159.028 43.9879 159.684C44.0784 159.684 44.1689 159.713 44.2586 159.713C49.1117 160.455 57.1592 160.684 65.9031 160.684C83.3505 160.684 103.531 159.827 107.138 159.856C114.109 159.941 123.889 159.742 133.801 159.399C145.804 158.971 157.999 158.285 165.599 157.428C161.151 157.143 156.364 157.143 156.364 157.143C155.595 157.171 154.92 156.657 154.731 155.915L142.079 103.827C141.942 103.285 142.268 102.742 142.807 102.628C143.346 102.485 143.895 102.799 144.032 103.342C144.032 103.342 157.618 153.83 157.617 153.83C160.367 153.802 166.864 153.83 170.802 154.401C172.349 154.658 173.556 155.03 174.21 155.429C175.134 156.001 175.457 156.771 175.481 157.457C175.498 157.999 175.327 158.57 174.758 159.084C174.471 159.37 173.928 159.684 173.101 159.941C171.122 160.598 166.658 161.255 160.808 161.855C145.634 163.368 120.901 164.482 107.091 164.425C104.808 164.396 95.8575 164.71 85.1736 164.882C74.1819 165.053 61.3709 165.053 52.0348 164.453C45.7532 164.025 40.9687 163.282 39.0761 162.226C37.6898 161.483 37.2168 160.455 37.2527 159.513C37.2792 158.827 37.5674 158.114 38.3186 157.543C38.9206 157.086 40.0581 156.657 41.5438 156.371C45.0313 155.686 50.7902 155.572 53.4401 155.544ZM171.927 156.6C172.278 156.543 172.466 156.429 172.368 156.286C172.179 156.001 172.028 156.257 171.927 156.6ZM56.5644 157.057C56.5641 157.057 56.5641 157.057 56.5644 157.057C56.5646 157.057 56.5646 157.057 56.5644 157.057Z" fill="black"/>
<path id="path104-4" fill-rule="evenodd" clip-rule="evenodd" d="M136.466 107.968C136.334 107.425 136.664 106.883 137.204 106.74C137.743 106.626 138.289 106.94 138.423 107.483C138.423 107.483 142.722 122.732 146.332 135.953C149.086 146.062 151.423 154.972 151.423 154.972C151.585 155.629 151.436 156.314 151.021 156.857C150.606 157.371 149.971 157.685 149.297 157.685C149.297 157.685 142.545 157.828 133.963 157.885C126.611 157.942 117.917 157.856 110.976 157.999C109.888 158.028 108.976 157.171 108.931 156.086L108.295 117.049C108.273 116.478 108.705 116.021 109.261 115.993C109.816 115.964 110.285 116.392 110.308 116.963L112.767 153.973C118.143 153.716 124.332 153.487 130.074 153.402C136.914 153.259 143.114 153.287 146.526 153.287C145.733 149.889 144.293 143.635 142.774 136.839C139.783 123.446 136.466 107.968 136.466 107.968Z" fill="black"/>
<path id="path106-3" fill-rule="evenodd" clip-rule="evenodd" d="M101.625 117.021C101.619 116.479 102.065 116.022 102.621 116.022C103.177 115.993 103.633 116.45 103.64 116.993L105.092 156.001C105.098 156.544 104.883 157.058 104.498 157.429C104.112 157.8 103.587 158.029 103.045 158C103.045 158 90.6609 158.028 77.9243 158.457C72.0717 158.657 66.1404 158.857 61.3186 159.399C60.6062 159.485 59.8987 159.199 59.4306 158.656C58.9621 158.142 58.7943 157.4 58.9825 156.715C58.9825 156.715 62.5471 144.464 66.1933 132.213C69.8406 119.991 73.5655 107.769 73.5655 107.769C73.7115 107.255 74.2655 106.941 74.8018 107.083C75.3383 107.226 75.6553 107.769 75.5096 108.311C75.5096 108.311 72.5005 120.705 69.4087 133.098C67.2517 141.722 65.0559 150.347 63.9256 154.773C68.179 154.344 72.9994 154.03 77.7752 153.888C87.5243 153.602 97.069 153.83 101.112 153.945L101.625 117.021Z" fill="black"/>
<path id="path108-4" fill-rule="evenodd" clip-rule="evenodd" d="M68.6052 103.714C70.4797 105.285 72.46 106.712 74.5374 108.026L61.0643 157.258C76.4663 155.458 103.087 156.029 103.087 156.029L102.633 117.021C104.874 117.135 107.1 117.136 109.302 116.993L110.915 156.029C125.975 155.544 149.292 155.515 149.292 155.515L137.445 107.712C139.395 106.455 141.269 105.085 143.056 103.6L156.344 155.487C156.344 155.487 173.58 155.287 173.632 157.514C173.689 159.97 127.931 162.341 107.114 162.141C100.548 162.055 38.9985 164.882 39.1497 159.571C39.2146 157.286 54.8563 157.258 54.8563 157.258C54.7318 156.258 64.4289 119.477 68.6052 103.714Z" fill="black"/>
</g>
</g>
<defs>
<clipPath id="clip0_615_10718">
<rect width="213" height="165" fill="white"/>
</clipPath>
</defs>
</svg>
