<svg width="96" height="96" viewBox="0 0 96 96" fill="none" xmlns="http://www.w3.org/2000/svg">
<path d="M37.8959 30.1937C39.8607 29.3518 41.8792 28.6412 43.9382 28.0667C44.5057 27.9152 45.0806 27.7926 45.6606 27.6996L46.2159 27.6149C46.4417 27.6149 46.6676 27.5584 46.8935 27.549C47.3296 27.5224 47.7672 27.5318 48.2017 27.5773C49.0491 27.6346 49.8727 27.8823 50.6111 28.302C50.9588 28.5186 51.2754 28.7814 51.5523 29.0831C51.8286 29.3895 52.0629 29.7313 52.2488 30.0996C52.5507 30.7449 52.7081 31.4483 52.71 32.1608C52.71 32.5278 52.71 32.9043 52.6535 33.2808L52.597 33.9302V34.0431C52.6252 34.2484 52.7378 34.4326 52.9076 34.5514C53.2497 34.7255 53.6189 34.8401 53.9994 34.8902C55.3129 35.049 56.643 35.0046 57.9429 34.7584C59.409 34.5272 60.8607 34.2129 62.2911 33.8173C65.1994 32.9984 68.0982 31.9349 70.9782 30.8149C73.6135 29.7514 76.07 28.5184 78.4982 27.2855C80.0606 26.4855 81.5759 25.582 83.2041 24.8102C84.8323 24.0384 86.4135 23.3325 88.0794 22.702C89.1429 22.3161 89.3029 22.9561 88.8323 24.0384C88.12 25.5998 87.01 26.9467 85.6135 27.9443C85.2276 28.1984 84.8606 28.462 84.4653 28.7067L83.2794 29.3843L80.8794 30.6925C79.27 31.5584 77.6323 32.3773 75.9759 33.1678C72.6431 34.7839 69.1798 36.1157 65.6229 37.149C63.4488 37.7514 61.2559 38.4384 58.9123 38.9373C57.6922 39.2026 56.4516 39.3632 55.2041 39.4173C54.515 39.4484 53.8245 39.4105 53.1429 39.3043C52.3385 39.1819 51.5615 38.9207 50.8464 38.5325C50.1368 38.1665 49.524 37.6376 49.0582 36.989C48.6314 36.3489 48.34 35.6282 48.2017 34.8714C48.1321 34.477 48.1068 34.0761 48.1264 33.6761V33.4596V33.3184C48.1642 33.1289 48.1642 32.9338 48.1264 32.7443C48.0434 32.4676 47.8094 32.2628 47.5241 32.2173C47.2127 32.1629 46.8943 32.1629 46.5829 32.2173C45.2549 32.4807 43.9538 32.8651 42.6959 33.3655C41.3311 33.8831 40.0135 34.4667 38.5829 35.0878C37.1523 35.709 35.7594 36.189 34.4417 36.8196C30.3235 38.6511 26.3333 40.7579 22.4982 43.1255C19.5429 45.0078 16.8041 47.1349 14.1123 49.2149C13.51 49.6667 12.9547 50.1561 12.3429 50.589C10.1029 52.2267 9.23703 52.4714 7.92879 51.8596C7.62241 51.74 7.32649 51.5952 7.04409 51.4267C6.18762 50.8431 6.54526 49.4031 8.06997 47.7937C9.20869 46.6115 10.4088 45.4899 11.6653 44.4337C12.9547 43.4173 14.2911 42.4573 15.6464 41.5443C18.357 39.662 21.2276 37.9773 24.1829 36.349C26.379 35.1443 28.6284 34.018 30.9311 32.9702C32.0888 32.4431 33.2464 31.9349 34.4229 31.4643L36.1923 30.7584C36.6441 30.589 37.2088 30.3349 37.7829 30.0902L37.8959 30.1937Z" fill="black"/>
<path d="M46.0093 51.154L45.9058 51.3234V51.3234V51.3234L45.8399 51.3799C45.7897 51.4232 45.7509 51.4781 45.727 51.5399C45.6942 51.6792 45.755 51.8237 45.8775 51.8975C45.9083 51.9249 45.9433 51.9471 45.9811 51.9634C46.0422 52.0063 46.1137 52.0323 46.1881 52.0387C46.3127 52.0868 46.4421 52.1215 46.574 52.1422L47.1199 52.227C47.9327 52.3114 48.7508 52.3334 49.567 52.2928C50.8187 52.227 52.0893 51.9446 53.3881 51.747C58.0487 50.9816 62.6361 49.823 67.1011 48.2834C69.1058 47.5775 71.0917 46.7681 73.0211 45.9305L80.3999 42.5328C81.1528 42.1846 81.3411 42.6175 80.9834 43.474C80.4103 44.6718 79.5138 45.6856 78.3952 46.4011C75.9929 47.939 73.5041 49.3374 70.9411 50.5893C68.3227 51.7409 65.6276 52.7095 62.8752 53.4881C59.5622 54.4293 56.2022 55.6622 52.6352 56.3117C50.6065 56.7134 48.535 56.8557 46.4705 56.7352C45.8592 56.6783 45.2524 56.5809 44.654 56.4434L43.5905 56.0858C43.2468 55.9532 42.916 55.7893 42.6022 55.5964C41.9965 55.2335 41.484 54.7339 41.1058 54.1375C40.7424 53.5353 40.5777 52.8339 40.6352 52.1328C40.7301 51.2639 41.0196 50.4274 41.4822 49.6858L42.0564 48.7446L42.1975 48.5093V48.5093V48.5093L42.4517 48.5752C42.5768 48.6216 42.706 48.6563 42.8375 48.6787H43.1387C43.4964 48.6787 43.4964 48.5564 43.3552 48.7446C43.307 48.8022 43.266 48.8654 43.2328 48.9328V48.9893V48.9893V48.9893C43.1858 49.0834 43.5811 48.1328 43.4117 48.5375V48.5375C43.3827 48.5922 43.3575 48.6488 43.3364 48.707C43.2914 48.9934 43.2694 49.2829 43.2705 49.5728V49.7799V49.7799V49.7799H43.1575L42.8564 49.8458C42.3517 49.9803 41.8552 50.1437 41.3693 50.3352C38.1511 51.6201 35.0388 53.1558 32.0611 54.9281C29.7364 56.3117 27.6846 58.0152 25.5387 59.5775C25.0681 59.9258 24.5975 60.2928 24.1458 60.6222C22.3764 61.8646 21.5858 61.9022 20.5599 61.3281C20.3174 61.2096 20.0817 61.0777 19.854 60.9328C19.1858 60.4246 19.4681 59.267 20.5975 57.9587C21.4728 57.0175 22.3858 56.1611 23.3458 55.314C24.3237 54.4904 25.3481 53.7236 26.414 53.0175C28.5677 51.5726 30.795 50.2406 33.087 49.027C34.8093 48.0858 36.5599 47.2481 38.4234 46.4575C39.4212 46.0615 40.4428 45.7283 41.4822 45.4599L41.9999 45.3281C42.1693 45.3281 42.4328 45.2528 42.6399 45.2246C42.847 45.1964 42.9787 45.2246 43.1387 45.2246H43.5528H43.8258C44.1859 45.2828 44.537 45.3872 44.8705 45.5352C45.2134 45.7021 45.5304 45.9177 45.8117 46.1752C46.1818 46.5258 46.4709 46.953 46.6587 47.427C46.743 47.6495 46.8061 47.8796 46.847 48.114C46.847 48.227 46.847 48.3399 46.847 48.4528V48.707C46.8563 48.8762 46.8563 49.0459 46.847 49.2152L46.7811 49.554C46.742 49.7399 46.6886 49.9224 46.6211 50.0999C46.4723 50.4823 46.2961 50.8534 46.094 51.2105L46.0093 51.154Z" fill="black"/>
<path d="M42.6959 68.6226C42.7618 68.6226 42.6959 68.7261 43.1853 68.7544C43.6747 68.7826 44.1265 68.7544 44.6724 68.7544C45.7828 68.7315 46.89 68.6277 47.9853 68.4438C48.8135 68.312 49.6041 68.0391 50.4418 67.8602C53.423 67.2357 56.3621 66.4247 59.2418 65.432C60.5124 64.9614 61.7735 64.4344 63.0065 63.8885C64.5688 63.1544 66.1124 62.3732 67.7124 61.7332C68.2112 61.5355 68.3806 61.8932 68.2206 62.5238C67.9736 63.3853 67.4513 64.1423 66.7335 64.6791C65.2231 65.7367 63.6517 66.7046 62.0277 67.5779C60.3696 68.3561 58.6549 69.0074 56.8983 69.5261C54.79 70.1473 52.6912 71.0791 50.4983 71.7002C49.2772 72.0373 48.0395 72.3106 46.79 72.5191C45.4748 72.7637 44.1334 72.8365 42.7994 72.7355C40.7947 72.5661 38.1688 71.512 38.0935 69.2814C38.1512 68.5021 38.4142 67.7519 38.8559 67.1073L39.1759 66.5708L39.2606 66.4297V66.4297V66.4297H39.3265H39.4488C39.6876 66.5252 39.9461 66.5608 40.2018 66.5332C40.1547 66.5332 40.2018 66.5332 40.1077 66.6461L40.0512 66.7497V66.8061V66.8061V66.8061C39.91 67.1355 40.23 66.3544 40.2018 66.4391V66.4391V66.4391C40.0857 66.6825 40.0591 66.9591 40.1265 67.2202V67.3614H40.0794C40.0394 67.3502 39.9971 67.3502 39.9571 67.3614C39.8513 67.3763 39.7473 67.4015 39.6465 67.4367C39.4206 67.5026 39.1759 67.5873 38.9312 67.6814C38.4309 67.8724 37.9408 68.0891 37.463 68.3308C35.965 69.2009 34.5222 70.1627 33.143 71.2108C32.8324 71.4085 32.5406 71.6344 32.2018 71.8226C31.0065 72.5285 30.423 72.4155 29.6888 71.7755C29.5194 71.6155 29.3312 71.4838 29.1806 71.3238C28.7006 70.7873 28.8794 69.9402 29.6135 69.1026C30.1831 68.5161 30.7831 67.96 31.4112 67.4367C32.0522 66.9183 32.7318 66.4495 33.4441 66.0344C34.1594 65.6014 34.8935 65.1967 35.6653 64.8202C36.492 64.402 37.3475 64.0434 38.2253 63.7473C38.4316 63.6747 38.6422 63.615 38.8559 63.5685L39.223 63.4838C39.4126 63.4469 39.6043 63.4218 39.7971 63.4085H39.9477C40.0166 63.4033 40.0858 63.4033 40.1547 63.4085C40.3987 63.4166 40.6414 63.4481 40.8794 63.5026C41.1168 63.5586 41.3472 63.6406 41.5665 63.7473C41.8106 63.8686 42.0383 64.0204 42.2441 64.1991C42.3735 64.3143 42.496 64.4368 42.6112 64.5661C42.7339 64.7235 42.844 64.8903 42.9406 65.0649C43.129 65.4058 43.2505 65.7796 43.2983 66.1661C43.336 66.4441 43.336 66.7258 43.2983 67.0038C43.2746 67.1783 43.2401 67.3512 43.1947 67.5214C43.1947 67.6438 43.11 67.7661 43.0724 67.8791L42.9594 68.1332L42.8088 68.4249V68.4249V68.4249C42.7849 68.4382 42.77 68.4634 42.77 68.4908C42.77 68.5182 42.7849 68.5435 42.8088 68.5567L42.6959 68.6226Z" fill="black"/>
</svg>
