<svg width="96" height="96" viewBox="0 0 96 96" fill="none" xmlns="http://www.w3.org/2000/svg">
<path d="M31.7446 57.878C32.6011 60.1745 33.4105 62.4992 34.1823 64.8333C34.4552 65.6898 34.8693 66.4992 35.1234 67.3745C35.5658 68.8992 35.9423 70.4521 36.2905 72.0051C36.6387 73.558 36.8646 75.158 37.0811 76.711C37.2881 78.1039 37.5423 79.5345 37.7681 80.8898C38.1022 82.6814 38.1022 84.5193 37.7681 86.311C37.6458 86.8757 36.987 86.7815 36.2623 86.311C35.4275 85.8253 34.7934 85.0577 34.474 84.1462C34.3046 83.318 34.0505 82.4992 33.8717 81.671L33.3728 79.1862C33.0434 77.5204 32.6952 75.8451 32.4317 74.1227C32.0193 72.0204 31.3884 69.9669 30.5493 67.9957C29.7681 65.7651 28.9305 63.5251 28.027 61.3039C27.4717 59.9298 26.907 58.5557 26.3046 57.2004C25.3634 55.1392 24.5164 53.0404 23.4811 51.0074C23.0952 50.2074 22.5964 49.4639 22.1917 48.6639C21.7686 47.8641 21.3915 47.0408 21.0623 46.198C20.8781 45.7999 20.7483 45.3789 20.6764 44.9462C20.6764 44.7298 20.6764 44.5321 20.6293 44.3533C20.5823 44.1745 20.6293 43.9768 20.6293 43.8168C20.6528 43.5272 20.743 43.2469 20.8928 42.998C21.1732 42.5978 21.612 42.3373 22.0975 42.2827C22.295 42.2376 22.4975 42.2186 22.6999 42.2262C23.0123 42.3031 23.2983 42.4624 23.5281 42.6874L24.0175 43.0451C24.1787 43.1653 24.3187 43.3117 24.4317 43.478C25.2317 44.4192 26.0128 45.6709 26.8881 46.9133C27.7634 48.1557 28.2623 49.6615 28.9493 51.1109C29.8905 53.2851 30.8317 55.5627 31.7728 57.8309L31.7446 57.878Z" fill="black"/>
<path d="M25.9478 41.3779C25.7878 41.5755 25.5431 41.2743 25.2984 40.7096C25.2084 40.4361 25.1608 40.1505 25.1572 39.8626C25.2052 39.6893 25.2649 39.5195 25.3361 39.3543C25.3361 39.2979 26.1361 38.639 26.3713 38.3473C26.5923 38.1065 26.8535 37.9058 27.1431 37.7543C27.6984 37.4343 28.2349 37.0579 28.7902 36.7096C28.9135 36.6298 29.0573 36.5873 29.2043 36.5873C29.7115 36.5701 30.1944 36.3656 30.5596 36.0132C30.6255 35.9567 30.7102 35.9379 30.7196 35.759C30.729 35.5802 31.8584 34.7049 32.0561 34.7238C32.5549 34.7896 32.9972 34.7238 33.4866 34.7238C33.5619 34.7238 33.5902 34.6485 33.7313 34.8085C34.0608 35.2038 34.1455 35.072 34.2772 35.0438C34.4849 34.9978 34.7001 34.9978 34.9078 35.0438C35.093 35.1498 35.2611 35.283 35.4066 35.439C35.6103 35.7257 35.7661 36.0436 35.8678 36.3802C35.9456 36.6657 36.0765 36.9339 36.2537 37.1708L36.3949 37.4532C36.3376 38.1056 36.1656 38.7429 35.8866 39.3355C35.8866 39.4202 34.456 40.2767 34.3149 40.3708C34.1737 40.4649 34.0984 40.3708 33.9761 40.3708C33.8537 40.3708 32.7902 41.0579 32.7243 41.0485C32.4419 41.0485 32.2349 41.2838 31.8302 41.0485C31.7549 40.992 31.7078 41.0485 31.6608 41.0485C31.1929 41.185 30.7081 41.2548 30.2208 41.2555C29.9824 41.2986 29.7468 41.3552 29.5149 41.4249C29.465 41.433 29.4142 41.433 29.3643 41.4249C29.2984 41.4249 29.2325 41.4249 29.1855 41.4249C28.6099 41.5124 28.0408 41.6382 27.4819 41.8014C27.3502 41.8485 26.6349 41.6696 26.4843 41.7355C26.3337 41.8014 26.0043 41.2932 25.9478 41.3779Z" fill="black"/>
<path d="M23.0208 37.3039C23.0961 37.5297 22.7102 37.5768 22.0796 37.4827C21.8063 37.4191 21.5476 37.3041 21.3172 37.1439C21.2025 36.9991 21.0957 36.8483 20.9972 36.6921C20.9972 36.6168 20.9031 35.4874 20.8184 35.0733C20.7571 34.7119 20.7571 34.3429 20.8184 33.9815C20.8755 33.269 20.9824 32.5614 21.1384 31.8639C21.1751 31.706 21.2568 31.5621 21.3737 31.4497C21.7389 31.0351 21.9601 30.5134 22.0043 29.9627C22.0439 29.8581 22.0181 29.74 21.9384 29.6615C21.8597 29.0569 21.9681 28.4427 22.249 27.9015C22.6676 27.5739 23.0638 27.2186 23.4349 26.838C23.4913 26.7909 23.4349 26.7062 23.6513 26.7062C24.0937 26.7062 24.0655 26.5462 24.1502 26.4239C24.2936 26.2417 24.473 26.0911 24.6772 25.9815C24.8526 25.927 25.032 25.8861 25.2137 25.8592C25.4547 25.8514 25.6939 25.9031 25.9102 26.0097C26.0419 26.1415 26.2961 26.1227 26.5031 26.1603L26.729 26.2168C26.9317 26.4839 27.1172 26.7637 27.2843 27.0545C27.4102 27.2347 27.5115 27.4309 27.5855 27.638C27.6354 27.7316 27.6674 27.8338 27.6796 27.9392C27.6796 27.9392 27.5666 29.718 27.5478 29.9627C27.529 30.2074 27.4161 30.1321 27.3219 30.2074C27.2278 30.2827 27.0772 31.6192 27.0396 31.6662C26.889 31.9109 26.9172 32.2215 26.4749 32.3627C26.4118 32.3801 26.369 32.4385 26.3713 32.5039C26.1932 32.9664 25.9491 33.4007 25.6466 33.7933C25.5149 34.0097 25.4584 34.2545 25.3266 34.4709C25.3266 34.4709 25.2325 34.5274 25.1949 34.565C25.1372 34.5956 25.086 34.6371 25.0443 34.6874C24.7272 35.1918 24.4442 35.7169 24.1972 36.2592C24.1502 36.3815 23.5478 36.8521 23.5196 37.0121C23.4913 37.1721 22.9925 37.2003 23.0208 37.3039Z" fill="black"/>
<path d="M17.5248 36.1273C17.7507 36.1273 17.5248 36.5038 17.0825 36.9932C16.8691 37.2138 16.6211 37.3982 16.3483 37.5391C16.1448 37.5567 15.9401 37.5567 15.7366 37.5391C15.6236 37.5391 14.5883 36.9649 14.1742 36.8049C13.8296 36.68 13.5331 36.4494 13.3272 36.1461L12.0283 34.6402C11.9342 34.5172 11.8756 34.3707 11.8589 34.2167C11.8033 33.7026 11.5502 33.2302 11.1531 32.8991C11.0872 32.8426 11.0589 32.7579 10.8801 32.7767C10.7013 32.7955 9.88246 31.6849 9.93894 31.4873C9.99541 31.2896 9.93894 30.9979 9.93894 30.7343V29.972C9.93894 29.9061 9.86364 29.8779 9.98599 29.7273C10.2683 29.3791 10.1366 29.3132 10.1272 29.172C10.0655 28.9631 10.0655 28.7409 10.1272 28.532C10.1908 28.3515 10.2662 28.1755 10.3531 28.0049C10.4626 27.8325 10.6194 27.6953 10.8048 27.6096C10.9648 27.6096 11.0778 27.3932 11.2001 27.2708L11.3413 27.1485C11.4537 27.1333 11.5677 27.1333 11.6801 27.1485C11.9085 27.125 12.1388 27.125 12.3672 27.1485C12.6877 27.1637 13.0045 27.2239 13.3083 27.3273L14.0989 27.8826C14.5036 28.1555 14.786 28.5132 14.8895 28.5602C14.9931 28.6073 14.946 28.7673 14.946 28.8802C14.946 28.9932 15.9719 29.8214 15.9531 29.8967C16.0378 30.1696 16.2825 30.3202 16.0848 30.7532C16.0437 30.8022 16.0437 30.8736 16.0848 30.9226C16.3036 31.3321 16.456 31.7736 16.5366 32.2308C16.6192 32.4477 16.7232 32.6558 16.8472 32.852C16.8472 32.852 16.8472 32.9555 16.8472 33.0026C16.8332 33.0614 16.8332 33.1226 16.8472 33.1814C16.981 33.4159 17.0943 33.6616 17.186 33.9155C17.2862 34.163 17.4058 34.4022 17.5436 34.6308C17.6001 34.7249 17.5436 35.4779 17.6095 35.572C17.6754 35.6661 17.4213 36.1179 17.5248 36.1273Z" fill="black"/>
<path d="M16.3571 40.9374C16.5547 40.7586 16.7618 41.1445 16.8559 41.8221C16.8753 42.1374 16.8531 42.4538 16.79 42.7633L16.5453 43.2809C16.5453 43.3374 15.67 43.8833 15.3877 44.1468C15.1365 44.3616 14.8455 44.5247 14.5312 44.6268C13.9194 44.7492 13.3077 44.9186 12.6488 45.0598C12.5076 45.1016 12.3572 45.1016 12.2159 45.0598C11.731 44.9147 11.2101 44.948 10.7477 45.1539C10.663 45.1539 10.5782 45.1539 10.5312 45.3327C10.4841 45.5115 9.14766 45.888 8.95001 45.8221C8.47943 45.6339 8.00884 45.5868 7.56648 45.4268C7.5006 45.4268 7.44413 45.4268 7.35943 45.3045C7.15237 44.9374 7.03001 45.0221 6.89825 45.0127C6.69076 45.0087 6.48609 44.964 6.2959 44.8809C6.19237 44.8339 6.0606 44.6268 5.93825 44.4668C5.82963 44.211 5.77516 43.9354 5.77825 43.6574C5.78148 43.4157 5.7367 43.1758 5.64648 42.9515C5.64648 42.8668 5.64648 42.7633 5.64648 42.6974C5.88147 42.1788 6.19936 41.702 6.58766 41.2856C6.58766 41.2856 8.10295 40.6833 8.26295 40.5892C8.42295 40.4951 8.4606 40.5892 8.56413 40.6551C8.66766 40.7209 9.80648 40.1656 9.86295 40.1656C10.1265 40.1656 10.3712 39.9962 10.6818 40.2974C10.7477 40.3539 10.7947 40.2974 10.8512 40.2974C11.3061 40.2219 11.7704 40.2219 12.2253 40.2974C12.4589 40.2831 12.6915 40.2548 12.9218 40.2127C12.9218 40.2127 13.0159 40.2127 13.063 40.2692C13.11 40.3256 13.1759 40.3256 13.223 40.3162C13.7688 40.1845 14.3618 40.3162 14.9171 40.2504C15.0488 40.2504 15.7265 40.608 15.8582 40.5609C15.99 40.5139 16.2912 41.0221 16.3571 40.9374Z" fill="black"/>
<path d="M17.4961 46.0759C17.3926 45.8312 17.8067 45.9159 18.522 46.1794C18.8568 46.3184 19.173 46.4986 19.4632 46.7159C19.5887 46.8787 19.7049 47.0484 19.8114 47.2241C19.8585 47.3183 19.8114 48.3159 19.8114 48.6736C19.8247 48.9978 19.7602 49.3205 19.6232 49.6147C19.3973 50.1794 19.2091 50.763 18.9926 51.3277C18.9362 51.4547 18.8405 51.5602 18.7197 51.6288C18.328 51.8975 18.0523 52.3043 17.9479 52.7677C17.8925 52.8502 17.8925 52.9581 17.9479 53.0406C18.0985 53.2665 17.5903 54.3959 17.4209 54.49C17.0161 54.7159 16.6491 54.97 16.2632 55.2053C16.2067 55.2053 16.2632 55.3183 16.0467 55.2806C15.6326 55.1865 15.6326 55.2806 15.5479 55.4218C15.4174 55.5609 15.2606 55.6728 15.0867 55.7512C14.9089 55.7782 14.7281 55.7782 14.5503 55.7512C14.2867 55.6601 14.0413 55.5231 13.8256 55.3465C13.639 55.1923 13.4294 55.0684 13.2044 54.9794L12.9691 54.8477C12.7126 54.3569 12.5317 53.8302 12.4326 53.2853C12.4326 53.2853 12.5267 52.9088 12.6209 52.5136C12.715 52.1183 12.8467 51.7418 12.8467 51.6571C12.8467 51.5724 12.9785 51.5347 13.0726 51.4877C13.1667 51.4406 13.4114 50.3206 13.4397 50.283C13.4679 50.2453 13.5903 49.8218 14.0138 49.7936C14.0985 49.7936 14.1079 49.7371 14.1267 49.69C14.3226 49.3333 14.5808 49.0145 14.8891 48.7488C15.0165 48.5814 15.1268 48.4017 15.2185 48.2124C15.2565 48.188 15.2977 48.169 15.3409 48.1559C15.3973 48.1559 15.4632 48.1559 15.482 48.0712C15.785 47.6787 16.0468 47.2561 16.2632 46.81C16.2632 46.6971 16.8938 46.4147 16.922 46.283C16.9503 46.1512 17.5338 46.1794 17.4961 46.0759Z" fill="black"/>
<path d="M49.7498 45.5847C49.1098 48.4647 48.6581 51.4011 48.1781 54.347C48.0087 55.42 47.9898 56.5117 47.8298 57.5941C47.5663 59.4764 47.3247 61.3902 47.1051 63.3353L46.5498 69.1235C46.3992 70.8459 46.371 72.5682 46.3616 74.2811C46.3616 75.3823 46.4275 76.4741 46.3616 77.5847C46.2957 78.6953 46.0698 79.7964 45.844 80.907C45.684 81.5941 45.3828 81.4906 44.9028 80.907C44.2369 80.0366 43.7302 79.0552 43.4063 78.0082C43.3404 77.7353 43.2557 77.4529 43.2087 77.1706L43.1428 76.3235L43.011 74.6388C42.9357 73.5094 42.8792 72.3706 42.851 71.2411C42.7558 68.9585 42.8629 66.6719 43.171 64.4082C43.5381 61.6882 43.4534 58.827 43.7075 56.0317C43.8392 54.4976 44.0181 52.9541 44.2251 51.4294C44.4322 49.9047 44.7051 48.3706 44.9875 46.8459C45.3263 44.9635 45.7404 43.0811 46.164 41.1988C46.8228 38.3753 47.6698 35.5517 48.5451 32.8317C49.1535 30.6525 49.876 28.5068 50.7098 26.4035C50.8807 25.9254 51.0851 25.4599 51.3216 25.0106C51.5115 24.6525 51.7286 24.3095 51.971 23.9847C52.1662 23.7688 52.399 23.5902 52.6581 23.4576C53.1246 23.2615 53.6504 23.2615 54.1169 23.4576C54.367 23.5221 54.6123 23.6039 54.851 23.7023C55.604 24.0694 55.7922 25.0953 55.4251 26.2811C54.1734 29.6976 52.9122 33.227 51.8487 37.0011C51.0769 39.8247 50.3616 42.6482 49.8345 45.5847H49.7498Z" fill="black"/>
<path d="M57.2511 26.8363C57.0347 26.7704 57.1664 26.4692 57.5052 26.0645C57.6779 25.8938 57.8784 25.7537 58.0982 25.6504H58.5688C58.6347 25.6504 59.51 26.0833 59.7923 26.1774C60.0788 26.2817 60.3483 26.4276 60.5923 26.6104C61.0723 26.9586 61.5994 27.2786 62.117 27.608C62.2311 27.6848 62.3248 27.7882 62.39 27.9092C62.6196 28.3303 62.9843 28.6618 63.4252 28.8504C63.5068 28.8975 63.6072 28.8975 63.6888 28.8504C63.9335 28.7563 65.0158 29.4151 65.0817 29.5845C65.2511 30.008 65.4958 30.3563 65.6747 30.7704C65.6747 30.8269 65.7876 30.8269 65.6747 30.9963C65.5147 31.3916 65.6747 31.4198 65.7311 31.5233C65.849 31.6775 65.9354 31.8534 65.9852 32.041C65.9745 32.2267 65.9397 32.4102 65.8817 32.5869C65.754 32.8437 65.5782 33.0737 65.3641 33.2645C65.1852 33.368 65.0535 33.641 64.9029 33.848C64.8542 33.9205 64.8007 33.9897 64.7429 34.0551C64.1999 34.2338 63.6293 34.3135 63.0582 34.2904C63.0017 34.2904 61.7311 33.4433 61.5711 33.3492C61.4111 33.2551 61.477 33.1704 61.4488 33.0669C61.4205 32.9633 60.4041 32.3327 60.3852 32.2857C60.2347 32.0598 59.9805 31.9563 60.0182 31.5422C60.0182 31.4831 59.9856 31.4288 59.9335 31.401C59.6268 31.0677 59.3672 30.694 59.1617 30.2904C59.0248 30.1091 58.8771 29.9362 58.7194 29.7727C58.7194 29.7727 58.7194 29.6786 58.7194 29.641C58.7194 29.6033 58.7194 29.5186 58.6629 29.481C58.3479 29.039 58.0085 28.6148 57.6464 28.2104C57.5617 28.1163 57.3923 27.4669 57.2794 27.3633C57.1664 27.2598 57.3358 26.8551 57.2511 26.8363Z" fill="black"/>
<path d="M59.9985 23.1094C59.8103 23.2318 59.6315 22.9777 59.4997 22.5165C59.4558 22.2991 59.4558 22.0751 59.4997 21.8577C59.5938 21.7165 59.6785 21.5941 59.7632 21.4906C59.8479 21.3871 60.7044 21.0389 61.0056 20.8506C61.2805 20.6825 61.5786 20.5557 61.8903 20.4741C62.502 20.2859 63.1138 20.0506 63.7256 19.8341C63.8606 19.7831 64.0055 19.7638 64.1491 19.7777C64.6497 19.8092 65.149 19.6983 65.5891 19.4577C65.6644 19.4577 65.7491 19.4106 65.8056 19.2694C66.2526 18.9135 66.7845 18.68 67.3491 18.5918C67.8103 18.6859 68.2903 18.6765 68.7138 18.7518C68.7797 18.7518 68.8267 18.6953 68.9303 18.8365C69.1467 19.1659 69.2597 19.0718 69.4009 19.0624C69.6016 19.0471 69.8033 19.0727 69.9938 19.1377C70.1379 19.2356 70.2651 19.3564 70.3703 19.4953C70.4989 19.7237 70.576 19.9775 70.5962 20.2389C70.6162 20.4643 70.6768 20.6843 70.775 20.8883C70.775 20.9541 70.8315 21.0577 70.8503 21.1141C70.6188 21.6347 70.3006 22.1121 69.9091 22.5259C69.9091 22.5918 68.3467 23.1 68.1773 23.1847C68.0079 23.2694 67.9703 23.1847 67.8667 23.1283C67.7632 23.0718 66.5867 23.5424 66.5303 23.533C66.2479 23.533 66.0032 23.6647 65.6738 23.4294C65.6256 23.3963 65.562 23.3963 65.5138 23.4294C65.0446 23.4813 64.5712 23.4813 64.102 23.4294C63.8573 23.4294 63.622 23.4765 63.3867 23.4953C63.3398 23.4996 63.2925 23.4996 63.2456 23.4953C63.1899 23.4821 63.1319 23.4821 63.0762 23.4953C62.5209 23.5612 61.9279 23.4953 61.3726 23.5989C61.2409 23.5989 60.582 23.4106 60.4315 23.4389C60.2809 23.4671 60.0738 23.053 59.9985 23.1094Z" fill="black"/>
<path d="M53.1285 18.4706C53.3827 18.5741 53.1285 18.9223 52.5544 19.2988C52.2598 19.4632 51.9427 19.5837 51.6132 19.6564H51.0485C50.9827 19.6564 50.1074 19.1294 49.7591 18.9882C49.4603 18.8503 49.1892 18.6589 48.9591 18.4235C48.5827 17.9247 48.1685 17.4823 47.7638 16.9459C47.675 16.8279 47.6197 16.688 47.6038 16.5411C47.5189 16.0404 47.2627 15.5846 46.8791 15.2517C46.8132 15.1953 46.785 15.12 46.625 15.1388C46.465 15.1576 45.5332 14.1317 45.5332 13.887C45.5332 13.3788 45.3544 12.9459 45.298 12.4564C45.298 12.3906 45.2038 12.3717 45.298 12.2211C45.5427 11.8729 45.4109 11.807 45.3638 11.6753C45.2785 11.4887 45.2306 11.2873 45.2227 11.0823C45.2724 10.9027 45.3485 10.7314 45.4485 10.5741C45.6311 10.3662 45.8556 10.1994 46.1074 10.0847C46.3255 9.98395 46.5208 9.83984 46.6815 9.66115L46.898 9.51056C47.466 9.50065 48.0318 9.5833 48.5732 9.75527C48.5732 9.75527 49.778 10.8659 49.9285 10.9694C50.0791 11.0729 49.9944 11.1576 50.0038 11.2706C50.0132 11.3835 50.945 12.2117 51.0015 12.2117C51.1144 12.4564 51.378 12.5976 51.2462 13.0117C51.2462 13.0964 51.2462 13.1247 51.3027 13.1623C51.5651 13.543 51.7741 13.9578 51.9238 14.3953C52.0292 14.605 52.1553 14.8036 52.3003 14.9882C52.3003 14.9882 52.3003 15.0917 52.3003 15.1388C52.3003 15.1859 52.3003 15.2706 52.3003 15.3082C52.6485 15.7411 52.7427 16.3529 53.0815 16.8141C53.1662 16.9176 53.0815 17.6894 53.2227 17.8117C53.3638 17.9341 53.0627 18.4423 53.1285 18.4706Z" fill="black"/>
<path d="M57.3741 18.3951C57.3741 18.6493 56.9788 18.574 56.433 18.2634C56.2215 18.0878 56.0375 17.8816 55.8871 17.6516C55.8212 17.4728 55.7553 17.3034 55.7177 17.1716C55.68 17.0398 55.8777 16.1551 55.8777 15.7881C55.9005 15.464 55.9769 15.146 56.1035 14.8469C56.4141 14.3198 56.6871 13.7457 56.9788 13.1904C57.0477 13.0635 57.1482 12.9565 57.2706 12.8798C57.6707 12.5875 57.9673 12.1755 58.1177 11.7034C58.1177 11.6281 58.2118 11.5622 58.1177 11.4398C58.0235 11.3175 58.6165 10.0563 58.7765 9.95279C59.2 9.70808 59.5106 9.39749 59.9059 9.13396C59.9624 9.13396 59.9059 9.01161 60.113 9.03985C60.48 9.10573 60.4988 8.96455 60.593 8.86102C60.7187 8.70717 60.876 8.58202 61.0541 8.49396C61.2158 8.46295 61.3819 8.46295 61.5435 8.49396C61.7784 8.55835 61.9946 8.67772 62.1741 8.8422C62.2777 8.99279 62.5224 9.05867 62.7106 9.1622L62.9177 9.27514C63.1072 9.76936 63.2183 10.2901 63.2471 10.8187C63.2471 10.8187 62.7012 12.3151 62.6635 12.494C62.6259 12.6728 62.5224 12.6351 62.4282 12.6822C62.3341 12.7293 61.9765 13.9151 61.9482 13.9528C61.7694 14.1504 61.7412 14.4328 61.3459 14.4987C61.2706 14.4987 61.2612 14.5646 61.233 14.6116C61.0057 15.0013 60.7236 15.3563 60.3953 15.6657C60.2556 15.8507 60.1298 16.0457 60.0188 16.2493C60.0188 16.2493 59.9341 16.2493 59.8965 16.3151C59.8446 16.3387 59.797 16.3705 59.7553 16.4093C59.5012 16.8987 59.0118 17.2375 58.7388 17.7175C58.673 17.8304 58.0047 18.1222 57.9294 18.2634C57.8541 18.4046 57.3647 18.301 57.3741 18.3951Z" fill="black"/>
<path d="M50.1175 21.8393C50.3058 21.6605 50.4469 22.0276 50.5222 22.7052C50.5437 23.0209 50.5183 23.3381 50.4469 23.6464C50.3655 23.8105 50.2711 23.9679 50.1646 24.117C50.1175 24.1923 49.2234 24.5499 48.9222 24.7193C48.6479 24.8624 48.3464 24.9458 48.0375 24.964C47.4258 25.0205 46.8234 25.1334 46.2116 25.1993C46.0692 25.2157 45.9251 25.1895 45.7975 25.124C45.351 24.9358 44.855 24.8994 44.3858 25.0205C44.3105 25.0205 44.2258 25.0205 44.1505 25.1523C44.0752 25.284 42.7481 25.4534 42.5787 25.3593C42.1646 25.1428 41.7411 24.964 41.3175 24.7476C41.2611 24.7476 41.1952 24.7476 41.1387 24.6158C41.0163 24.2487 40.8846 24.3052 40.7528 24.277C40.5544 24.2299 40.3662 24.1469 40.1975 24.0323C40.0907 23.9003 40.0078 23.7506 39.9528 23.5899C39.8985 23.3482 39.8985 23.0975 39.9528 22.8558C40.0155 22.6486 40.0347 22.4307 40.0093 22.2158V21.9805C40.3179 21.5787 40.6861 21.2264 41.1011 20.9358L42.7199 20.5781C42.8046 20.5781 42.8987 20.6252 42.9834 20.6817C43.0681 20.7381 44.2352 20.4746 44.2822 20.4746C44.5269 20.5217 44.7716 20.3993 45.0163 20.7099C45.0163 20.7664 45.1105 20.757 45.1669 20.7099C45.5942 20.7006 46.0202 20.761 46.4281 20.8887C46.6442 20.9074 46.8615 20.9074 47.0775 20.8887C47.0775 20.8887 47.1528 20.9358 47.1905 20.9546C47.2281 20.9734 47.294 21.0299 47.3411 21.0299C47.8526 21.0973 48.3689 21.1225 48.8846 21.1052C49.0069 21.1052 49.5811 21.444 49.7222 21.4064C49.8634 21.3687 50.0422 21.9052 50.1175 21.8393Z" fill="black"/>
<path d="M70.1931 54.5828C69.1013 56.3804 68.0566 58.2345 67.0872 60.1263C66.7296 60.8133 66.5037 61.5569 66.146 62.2533L65.2049 64.1357L64.2637 65.9522C63.6143 67.1757 62.9931 68.4086 62.3813 69.7169C61.8731 70.8275 61.5155 72.0039 61.1108 73.1428C60.5931 74.5075 60.1037 76.0039 59.4825 77.3875C59.2849 77.8298 58.946 77.7357 58.5978 77.2463C58.1215 76.5509 57.8686 75.7268 57.8731 74.8839C58.0246 71.5758 58.8984 68.3408 60.4331 65.4063C60.8501 64.5046 61.2177 63.5809 61.5343 62.6392C61.9013 61.698 62.2496 60.7569 62.6637 59.8157C63.6049 57.811 64.5931 55.8439 65.6378 53.8957C66.2684 52.7004 66.9649 51.5145 67.6237 50.338C68.6496 48.5404 69.7884 46.7992 70.9366 45.0769C71.7401 43.6575 72.6461 42.2986 73.6472 41.011C73.888 40.723 74.1491 40.4525 74.4284 40.2016C75.5108 39.2604 76.2355 39.3828 76.866 39.8628C77.0178 39.9658 77.1625 40.079 77.299 40.2016C77.6755 40.6345 77.5437 41.3216 77.2143 42.1592C76.179 44.5122 74.786 46.7239 73.4496 49.1992C72.386 50.9592 71.2566 52.738 70.2402 54.6016L70.1931 54.5828Z" fill="black"/>
<path d="M79.2465 45.3312C79.0865 45.2559 79.2465 45.03 79.5571 44.7477C79.7187 44.6304 79.9006 44.5442 80.0936 44.4935C80.222 44.4826 80.3511 44.4826 80.4795 44.4935C80.536 44.4935 81.1477 44.9924 81.4207 45.1147C81.6345 45.2342 81.8256 45.3903 81.9854 45.5759C82.3336 45.9147 82.7007 46.2441 83.0771 46.5641C83.1522 46.644 83.2127 46.7364 83.256 46.8371C83.3839 47.1991 83.6378 47.5031 83.9713 47.6935C84.0277 47.6935 84.0654 47.7877 84.1877 47.7594C84.3101 47.7312 85.1948 48.3712 85.2324 48.5124C85.3171 48.8794 85.4771 49.19 85.5807 49.5477C85.5807 49.6041 85.6654 49.6041 85.5807 49.7359C85.4018 50.0465 85.5148 50.0841 85.5807 50.1782C85.6669 50.3143 85.7186 50.4694 85.7313 50.63C85.7106 50.7816 85.6628 50.9283 85.5901 51.063C85.451 51.2517 85.2826 51.4169 85.0913 51.5524C84.9218 51.6088 84.7901 51.8159 84.6395 51.9571C84.591 52.0121 84.5374 52.0626 84.4795 52.1077C84.0249 52.1877 83.5599 52.1877 83.1054 52.1077C83.0489 52.1077 82.1642 51.27 81.9948 51.1665C81.8254 51.063 81.9383 51.0159 81.9289 50.9218C81.9195 50.8277 81.1571 50.1971 81.1383 50.15C81.0442 49.9524 80.856 49.8394 80.9218 49.5006C80.9218 49.4347 80.9218 49.4065 80.9218 49.3782C80.6948 49.0861 80.505 48.7668 80.3571 48.4277C80.2818 48.2582 80.1595 48.1077 80.0654 47.9382C79.9713 47.7688 80.0654 47.863 80.0654 47.8253C80.0804 47.7827 80.0804 47.7362 80.0654 47.6935C79.8696 47.2842 79.6529 46.8852 79.416 46.4982C79.3501 46.4135 79.3124 45.8582 79.2371 45.7641C79.1618 45.67 79.3124 45.3594 79.2465 45.3312Z" fill="black"/>
<path d="M81.7315 41.2929C81.5621 41.387 81.4586 41.1329 81.4115 40.7C81.407 40.5005 81.4422 40.3022 81.515 40.1164C81.6044 40.0177 81.6986 39.9234 81.7974 39.8341C81.8539 39.8341 82.6539 39.5894 82.9174 39.4576C83.1633 39.3534 83.4235 39.2868 83.6892 39.26C84.2162 39.1847 84.7433 39.0717 85.2703 38.9588C85.3879 38.9308 85.5104 38.9308 85.628 38.9588C86.0316 39.0583 86.4562 39.0287 86.8421 38.8741C86.9291 38.8673 87.0051 38.813 87.0397 38.7329C87.4401 38.4901 87.8986 38.36 88.3668 38.3564C88.7433 38.4976 89.1103 38.5447 89.4962 38.6764C89.5433 38.6764 89.5997 38.6764 89.6562 38.78C89.8068 39.1094 89.9103 39.0341 90.0327 39.0529C90.2046 39.0614 90.3721 39.1098 90.5221 39.1941C90.6323 39.3009 90.7245 39.4249 90.795 39.5612C90.8749 39.7843 90.9101 40.0209 90.8986 40.2576C90.8761 40.4608 90.8986 40.6665 90.9645 40.86V41.0764C90.7158 41.4999 90.3976 41.8786 90.0233 42.1964C90.0233 42.2529 88.668 42.4976 88.5174 42.5541C88.3668 42.6106 88.348 42.507 88.2633 42.46C88.1786 42.4129 87.1339 42.667 87.0868 42.6482C86.8609 42.6482 86.635 42.6482 86.3903 42.4412C86.3903 42.3847 86.2962 42.4412 86.2492 42.4412C85.8475 42.4284 85.4491 42.3651 85.0633 42.2529C84.8562 42.2529 84.6586 42.2529 84.4515 42.2059C84.4515 42.2059 84.3856 42.2059 84.348 42.1494C84.3045 42.1226 84.2568 42.1034 84.2068 42.0929C83.7268 42.0929 83.2656 41.9141 82.7668 41.9235C82.6539 41.9235 82.1362 41.6317 82.0139 41.6317C81.8915 41.6317 81.7974 41.2647 81.7315 41.2929Z" fill="black"/>
<path d="M75.379 35.6567C75.5766 35.7885 75.2943 36.0426 74.7578 36.2967C74.4967 36.4014 74.22 36.4618 73.939 36.4755C73.7702 36.4458 73.6036 36.4049 73.4402 36.3532C73.3743 36.3532 72.706 35.6473 72.4143 35.412C72.1742 35.218 71.9675 34.9859 71.8025 34.7249C71.5578 34.1979 71.266 33.6896 71.0025 33.1626C70.936 33.0454 70.9065 32.9109 70.9178 32.7767C70.9241 32.3128 70.7638 31.8619 70.466 31.5061C70.466 31.4402 70.4096 31.3649 70.259 31.3555C70.1084 31.3461 69.4308 30.3108 69.4402 30.1414C69.4402 29.6896 69.3837 29.3038 69.3743 28.8896C69.3743 28.8238 69.299 28.8049 69.3743 28.6826C69.619 28.4002 69.506 28.3343 69.4684 28.2308C69.4151 28.0698 69.3865 27.9016 69.3837 27.732C69.4343 27.5812 69.5005 27.4361 69.5813 27.2991C69.7313 27.1085 69.9167 26.9487 70.1272 26.8285C70.306 26.8285 70.4566 26.5838 70.6166 26.4426L70.7955 26.292C71.3538 26.3334 71.898 26.487 72.3955 26.7438L72.5837 26.9508C72.7235 27.0881 72.8525 27.236 72.9696 27.3932C73.2425 27.732 73.5155 28.0802 73.5813 28.1461C73.6472 28.212 73.5813 28.3343 73.5813 28.4473C73.5813 28.5602 74.3719 29.4826 74.3813 29.5296C74.4472 29.7838 74.6637 29.9626 74.4943 30.3202C74.4943 30.3955 74.4943 30.4332 74.4943 30.4802C74.6829 30.8791 74.8098 31.3044 74.8708 31.7414C74.9384 31.9506 75.0202 32.155 75.1155 32.3532C75.1155 32.3532 75.1155 32.4473 75.1155 32.4943C75.0968 32.546 75.0968 32.6026 75.1155 32.6543C75.3508 33.1249 75.3319 33.6991 75.5578 34.1885C75.6143 34.3014 75.4449 34.9791 75.5578 35.1296C75.6708 35.2802 75.2943 35.6096 75.379 35.6567Z" fill="black"/>
<path d="M79.8672 36.0996C79.8672 36.3537 79.4342 36.2219 78.926 35.8455C78.7228 35.6528 78.5541 35.4268 78.4272 35.1772C78.4272 34.989 78.3613 34.8102 78.3425 34.6596C78.3236 34.509 78.7095 33.6431 78.7848 33.2572C78.8675 32.9236 79.0042 32.6056 79.1895 32.3161C79.6036 31.7984 79.9895 31.2525 80.3942 30.7161C80.4859 30.5953 80.6053 30.4984 80.7425 30.4337C81.2072 30.1826 81.5871 29.7994 81.8342 29.3325C81.8342 29.2572 81.9472 29.2008 81.9001 29.0596C81.8531 28.9184 82.6625 27.7043 82.8413 27.6196C83.3119 27.4125 83.6789 27.1302 84.1307 26.9137C84.1966 26.9137 84.206 26.8008 84.3566 26.8478C84.7236 26.9608 84.7613 26.8478 84.8742 26.7255C85.0327 26.5878 85.2143 26.4795 85.4107 26.4055C85.5756 26.3753 85.7446 26.3753 85.9095 26.4055C86.1339 26.5043 86.3309 26.6561 86.4836 26.8478C86.5495 27.0172 86.7942 27.1208 86.9636 27.2431L87.1425 27.3843C87.232 27.9265 87.232 28.4797 87.1425 29.0219C87.1425 29.0219 86.3142 30.4996 86.2013 30.6784C86.0883 30.8572 86.0413 30.8008 85.9378 30.8478C85.8342 30.8949 85.2507 32.0525 85.2036 32.0808C84.9966 32.269 84.9119 32.5514 84.4978 32.5702C84.4225 32.5702 84.3942 32.6267 84.366 32.6737C84.0592 33.0341 83.7045 33.3507 83.3119 33.6149C83.139 33.7878 82.9756 33.9701 82.8225 34.1608C82.8225 34.1608 82.7378 34.1608 82.6907 34.2172C82.6436 34.2737 82.5683 34.2172 82.5307 34.3019C82.1825 34.7631 81.5895 35.0455 81.2601 35.5067C81.166 35.6102 80.4319 35.8267 80.3189 35.9584C80.206 36.0902 79.8766 35.9961 79.8672 36.0996Z" fill="black"/>
<path d="M71.9616 38.5649C72.1498 38.4237 72.1875 38.7908 72.1404 39.506C72.1065 39.8273 72.0338 40.1434 71.924 40.4472C71.8192 40.5973 71.7027 40.7389 71.5757 40.8708C71.5098 40.9366 70.6345 41.1437 70.3428 41.2566C70.0795 41.3457 69.799 41.3715 69.524 41.3319L67.9051 41.1813C67.7826 41.1655 67.6678 41.113 67.5757 41.0308C67.2492 40.7613 66.8306 40.6297 66.4087 40.6637C66.3232 40.6435 66.2339 40.6769 66.1828 40.7484C66.0322 40.9366 64.931 40.7484 64.8181 40.6637C64.5169 40.3813 64.2063 40.1366 63.8769 39.8637C63.8769 39.8637 63.764 39.8637 63.7545 39.7037C63.7545 39.3272 63.6134 39.3649 63.5098 39.3084C63.358 39.2375 63.2232 39.1348 63.1145 39.0072C63.0531 38.8597 63.012 38.7046 62.9922 38.546C63.0014 38.2968 63.0556 38.0513 63.1522 37.8213C63.2364 37.624 63.2873 37.4141 63.3028 37.2002V36.9649C63.6592 36.6207 64.0653 36.332 64.5075 36.1084H65.204C65.5616 36.1084 65.9192 36.1084 65.9945 36.1084C66.0698 36.1084 66.1357 36.1931 66.1922 36.259C66.2487 36.3249 67.2745 36.259 67.3122 36.259C67.5098 36.3437 67.7451 36.259 67.8769 36.6166C67.8769 36.6919 67.9522 36.6825 67.9898 36.6825C68.3526 36.757 68.6998 36.894 69.0157 37.0872C69.1873 37.1602 69.3676 37.2108 69.5522 37.2378C69.5522 37.2378 69.6087 37.3037 69.6369 37.3319C69.6651 37.3602 69.7028 37.4166 69.7404 37.426C70.1503 37.5849 70.5764 37.6986 71.011 37.7649C71.1145 37.7649 71.5098 38.2072 71.6322 38.1978C71.7545 38.1884 71.8863 38.6308 71.9616 38.5649Z" fill="black"/>
</svg>
