<svg width="96" height="96" viewBox="0 0 96 96" fill="none" xmlns="http://www.w3.org/2000/svg">
<path d="M66.9796 51.4287C67.0437 51.3942 67.0837 51.3273 67.0837 51.2545C67.0837 51.1818 67.0437 51.1149 66.9796 51.0804C66.921 51.0076 66.8547 50.9414 66.7819 50.8828H66.716L66.6784 50.7604L66.2643 50.5251L65.3984 50.0734C64.8149 49.7816 64.2219 49.4992 63.6007 49.2169L61.6054 48.3604L57.8407 46.4781C56.0337 45.5369 54.1702 44.7181 52.3819 43.7392C49.229 42.0169 46.1137 40.2192 43.0737 38.2145C42.3207 37.7063 41.5678 37.1887 40.8243 36.6428C40.4478 36.3698 40.0807 36.0875 39.7137 35.8051L39.1678 35.3628L38.4431 34.6757C37.4667 33.8818 36.6953 32.8651 36.1937 31.711C35.9887 31.2139 35.9299 30.6686 36.0243 30.1392C36.1496 29.5822 36.4872 29.096 36.9654 28.784C37.8429 28.2866 38.8494 28.0636 39.8549 28.144C40.4196 28.144 41.0313 28.2287 41.6054 28.2945C41.869 28.2945 42.2172 28.3698 42.4243 28.4169L43.0172 28.5298C44.6078 28.8404 46.1513 29.1887 47.7231 29.5369C49.6902 29.9792 51.6478 30.3934 53.596 30.7981C55.4988 31.274 57.4332 31.6137 59.3843 31.8145C60.5325 31.8145 60.5231 32.1816 59.4596 32.7557C57.6775 33.5095 55.7427 33.832 53.8125 33.6969C51.7043 33.5087 49.6431 33.1981 47.6102 32.8969L44.5796 32.4357L43.0831 32.2287L41.7466 32.0592C41.6054 32.0592 41.6149 31.9934 41.4831 31.9557C41.3513 31.9181 41.1913 31.9557 41.2007 32.0781C41.2061 32.2082 41.2522 32.3333 41.3325 32.4357V32.4922V32.4922L41.4643 32.6145L42.0196 33.0757C42.396 33.3863 42.7819 33.6875 43.1772 34.0169C46.9984 36.9157 51.6478 39.1463 56.1278 41.4428C58.5654 42.6945 61.116 43.9651 63.5349 45.1134C64.7772 45.6687 66.1137 46.2428 67.4031 46.9016L69.7372 48.144C70.6487 48.6464 71.4567 49.3171 72.1184 50.1204C72.4556 50.5403 72.7053 51.0236 72.8525 51.5416C73.017 52.0719 73.017 52.6396 72.8525 53.1698C72.4844 54.2496 71.6678 55.1177 70.6125 55.551C69.489 55.9811 68.278 56.1329 67.0831 55.9934L66.1419 55.8898L65.4643 55.8051L64.3725 55.664C63.6773 55.5757 62.9718 55.7004 62.349 56.0216C62.0077 56.1661 61.804 56.5198 61.8502 56.8875C61.9222 57.2388 62.0881 57.564 62.3302 57.8287C62.5601 58.1087 62.8153 58.3671 63.0925 58.6004C63.4219 58.8922 63.9772 59.3251 64.4572 59.6828C65.4643 60.4169 66.5278 61.1134 67.6102 61.7722C70.989 63.8051 74.5843 65.3769 78.1607 67.071C78.9513 67.4475 79.7513 67.7769 80.5325 68.1816C81.3137 68.5863 81.8596 68.8875 82.349 69.1981C82.7517 69.4675 83.1213 69.7834 83.4502 70.1393C83.9225 70.6243 84.1947 71.2695 84.2125 71.9463C84.2405 72.2311 84.2405 72.518 84.2125 72.8028C84.0337 73.6122 82.6031 73.5369 80.316 72.8028C77.0596 71.4757 73.7278 69.9792 70.3584 68.3134C68.6925 67.4663 67.0172 66.5628 65.3513 65.5651C64.5231 65.0757 63.6949 64.5487 62.8666 63.9934C62.4431 63.7204 62.029 63.4287 61.6149 63.1275L61.0313 62.704L60.3443 62.1581L60.0431 61.8945L59.629 61.5369C59.356 61.311 59.1207 61.0663 58.876 60.8216C58.4104 60.3525 57.9883 59.8422 57.6149 59.2969C56.9441 58.3453 56.5946 57.2044 56.6172 56.0404C56.6898 54.9147 57.1758 53.8555 57.9819 53.0663C58.883 52.2451 59.9775 51.6655 61.1631 51.3816C61.4737 51.2875 61.8031 51.231 62.1043 51.1557C62.4054 51.0804 62.7631 51.0804 63.0925 51.0334C63.4219 50.9863 63.7796 51.0334 64.1184 51.0334C64.4572 51.0334 64.6925 51.0804 64.9843 51.0992C65.276 51.1181 65.4549 51.1557 65.6337 51.184L66.1702 51.2687L66.5749 51.3345V51.3345C66.6431 51.3682 66.7231 51.3682 66.7913 51.3345L66.9796 51.4287Z" fill="black"/>
<path d="M44.7867 49.98C44.8902 49.98 45.0408 49.98 45.0596 49.8294C45.0596 49.7076 45.0084 49.5914 44.9184 49.5094L44.8525 49.4341L44.3725 49.0576C43.9961 48.7658 43.6102 48.4835 43.1961 48.2011C42.3867 47.6364 41.5302 47.0811 40.6549 46.5447C37.1537 44.3988 33.4455 42.3941 29.7561 40.3235C27.0549 38.8176 24.2972 37.387 21.6431 35.7023C19.2176 34.2245 16.9335 32.5263 14.8196 30.6294C13.5841 29.5787 12.5617 28.3007 11.8078 26.8647C11.3346 25.8991 11.1829 24.8074 11.3749 23.7494C11.5855 22.687 12.1217 21.7166 12.909 20.9729C14.1513 19.8473 15.656 19.0513 17.2855 18.6576C18.713 18.2744 20.1766 18.041 21.6525 17.9611C24.4489 17.8077 27.253 17.877 30.0384 18.1682C32.4761 18.4317 34.8949 18.7611 37.2949 19.1094C39.6949 19.4576 42.0855 19.8717 44.4384 20.3423C47.4596 20.9258 50.4808 21.5282 53.4737 22.2247C54.9702 22.5447 56.4667 22.8553 57.9537 23.1658C59.4408 23.4764 60.9278 23.8717 62.3867 24.107C63.3278 24.2294 63.6572 24.267 63.6667 24.427C63.6761 24.587 63.2337 24.8317 62.3867 25.0294C61.2427 25.2743 60.0816 25.4316 58.9137 25.5C58.189 25.5 57.4078 25.5941 56.589 25.5847C55.7702 25.5753 54.9137 25.5 54.029 25.4058L44.702 24.2858L40.0714 23.7494C38.5372 23.5235 37.0125 23.3258 35.4784 23.1376C32.429 22.7517 29.389 22.5164 26.3867 22.2811C23.5534 22.0141 20.6958 22.1887 17.9161 22.7988C17.5679 22.9014 17.2281 23.0304 16.8996 23.1847L16.4384 23.4106L16.0714 23.6741C15.8582 23.8066 15.6728 23.9792 15.5255 24.1823C15.4404 24.2918 15.3853 24.4216 15.3655 24.5588C15.35 25.0732 15.5166 25.5765 15.8361 25.98C16.2837 26.6782 16.8252 27.3116 17.4455 27.8623C20.3426 30.2266 23.4559 32.3127 26.7443 34.0929C30.3772 36.2011 34.1137 38.1964 37.8502 40.267C39.7325 41.3023 41.6149 42.3658 43.422 43.5047C44.3631 44.0788 45.3043 44.6717 46.1702 45.3211L46.8572 45.82L47.1867 46.0741C47.2996 46.1682 47.4031 46.2341 47.5725 46.3847C48.2019 46.8936 48.7817 47.4608 49.3043 48.0788C49.8759 48.7628 50.2414 49.5951 50.3584 50.4788C50.3866 50.6975 50.3866 50.9189 50.3584 51.1376C50.2906 51.7959 49.9981 52.4108 49.5302 52.8788C48.8555 53.4838 48.0174 53.8766 47.1208 54.0082L46.4243 54.1306H45.6902C45.4457 54.1446 45.2006 54.1446 44.9561 54.1306H44.2972C41.5302 53.9611 38.942 53.5564 36.382 53.2835C35.6196 53.1894 34.8667 53.1235 34.1231 53.067H33.0784C32.8808 53.067 32.6737 53.067 32.4667 53.067C32.0429 53.065 31.6211 53.1253 31.2149 53.2458C30.7726 53.3558 30.448 53.7332 30.4055 54.187C30.3821 54.5309 30.4973 54.8699 30.7255 55.1282C30.9237 55.3971 31.151 55.6432 31.4031 55.8623L31.789 56.1917L31.9867 56.3517L32.3255 56.5964C32.7772 56.9353 33.2667 57.2553 33.7372 57.5376C35.7137 58.7705 37.7937 59.9 39.8925 60.9729C42.6031 62.347 45.3514 63.5894 48.109 64.8223C50.8667 66.0553 53.6525 67.26 56.382 68.6435C57.5867 69.2458 58.7914 69.8011 59.9867 70.4694C61.6117 71.2945 63.1004 72.3642 64.4008 73.6411C65.1077 74.3146 65.5146 75.2437 65.5302 76.22C65.5776 76.6138 65.5776 77.012 65.5302 77.4058C65.2102 78.5541 63.1772 78.027 59.9867 76.5306C55.2808 74.2058 50.2643 72.0035 45.2855 69.4153C42.7914 68.1447 40.2596 66.8364 37.7561 65.4435C35.1367 64.0257 32.5922 62.4738 30.1325 60.7941L29.4455 60.3141L29.0314 59.9L28.4572 59.4294C28.0902 59.1 27.6572 58.8082 27.3372 58.4882L26.3961 57.4435L25.6525 56.3329C25.4455 55.9564 25.3325 55.5706 25.1631 55.1941C25.032 54.8097 24.9436 54.412 24.8996 54.0082V52.7941L24.9655 52.5494C25.0089 52.4773 25.0377 52.3973 25.0502 52.3141L25.2102 51.8435C25.331 51.536 25.479 51.2399 25.6525 50.9588C25.8185 50.6818 26.0211 50.4286 26.2549 50.2058C26.4696 49.9694 26.7131 49.7607 26.9796 49.5847C28.2169 48.8096 29.6421 48.3865 31.102 48.3611C31.5067 48.3611 31.9114 48.3611 32.3067 48.3611L33.4455 48.4082L34.782 48.54C35.6572 48.6435 36.4855 48.7753 37.3137 48.8976L42.0949 49.6882C42.8667 49.7729 43.6196 49.8482 44.3349 49.8858H44.5984V49.8858H44.6925L44.7867 49.98Z" fill="black"/>
</svg>
