<svg width="161" height="149" viewBox="0 0 161 149" fill="none" xmlns="http://www.w3.org/2000/svg">
<g id="vectorly-UNI-money-down" clip-path="url(#clip0_615_10745)">
<g id="vectorly-UNI-money-down_2">
<path id="path3550" fill-rule="evenodd" clip-rule="evenodd" d="M49.8936 83.8498C55.6198 91.203 59.8796 97.5624 63.1006 102.928C68.1607 111.374 70.676 117.386 72.371 120.913C72.8879 121.982 73.5639 123.025 73.8174 123.422C82.014 122.503 89.4774 121.311 96.2723 119.92C109.817 117.187 120.683 113.635 129.307 109.909C145.681 102.779 153.922 94.954 157.019 90.5571C157.633 89.6876 158.063 88.7684 158.241 88.3461C157.17 87.0792 154.531 83.7007 151.412 79.6018C144.545 70.5594 135.252 58.089 135.252 58.089C134.959 57.7164 135.034 57.1698 135.414 56.8717C135.796 56.5736 136.343 56.6482 136.637 57.0456C136.637 57.0456 146.237 69.2677 153.306 78.1113C156.969 82.707 159.929 86.3835 160.463 86.8803C160.757 87.1287 161.02 87.5759 160.988 88.2964C160.956 88.9671 160.476 90.3085 159.273 92.0971C156.121 96.7921 147.736 105.288 130.702 113.039C121.946 117.013 110.886 120.789 97.0602 123.721C90.0566 125.211 82.3396 126.428 73.8572 127.397C72.8183 127.521 71.8142 127.174 70.8573 126.105C70.2459 125.41 69.5823 124.267 68.8019 122.603C66.0358 116.79 61.095 103.971 45.8947 84.3217C45.5319 83.8497 45.4324 83.3778 45.4722 82.9307C45.5169 82.4587 45.7182 81.9121 46.357 81.4649C46.9187 81.0674 48.6136 80.5955 51.3649 80.1483C58.5649 78.9311 73.9963 76.7202 94.2667 69.2925C103.368 65.9637 113.446 61.5916 124.192 55.7538C124.613 55.5303 125.142 55.6794 125.376 56.1017C125.612 56.524 125.46 57.0456 125.04 57.2941C111.172 65.2185 98.3823 70.6837 87.3499 74.4845C70.0893 80.4713 57.1408 82.4337 51.1512 83.5764C50.7262 83.6758 50.2888 83.7753 49.8936 83.8498Z" fill="black"/>
<path id="path3552" fill-rule="evenodd" clip-rule="evenodd" d="M107.436 79.6776C107.918 79.7025 108.299 80.1001 108.286 80.5721C108.274 81.0689 107.874 81.4414 107.394 81.4166C102.674 81.5408 99.0285 83.0562 97.0626 85.0436C96.1381 85.9627 95.6534 86.9812 95.8423 87.9748C95.9442 88.5213 96.2971 88.9934 96.8141 89.4406C97.5348 90.0865 98.596 90.608 99.9953 91.0303C101.243 91.4278 103.077 91.5273 105.088 91.8005C106.942 92.049 108.935 92.3718 110.809 93.0176C113.521 93.9368 115.983 95.4522 117.619 97.9612C119.731 101.315 117.902 105.314 113.63 107.624C109.743 109.736 104.039 110.506 99.3938 107.923C98.9614 107.724 98.785 107.202 98.9987 106.78C99.2124 106.333 99.7368 106.159 100.167 106.382C103.539 107.848 107.332 107.401 110.322 106.059C111.982 105.339 113.371 104.296 114.261 103.153C115.059 102.134 115.379 100.992 114.644 99.9983C113.399 98.2594 111.54 97.3649 109.591 96.7439C107.926 96.2222 106.174 95.9489 104.543 95.7005C102.262 95.3775 100.197 95.0794 98.7924 94.5826C92.7108 92.2972 91.498 88.3971 93.2129 85.1925C93.9138 83.8759 95.1564 82.609 96.921 81.6402C99.4709 80.2491 103.102 79.3795 107.436 79.6776Z" fill="black"/>
<path id="path3554" fill-rule="evenodd" clip-rule="evenodd" d="M93.4811 75.1552C93.1878 74.7578 93.2624 74.2111 93.6452 73.9379C94.0254 73.6398 94.5747 73.7142 94.8655 74.0868C94.8655 74.0868 95.718 74.5342 97.1794 75.7763C97.4453 75.9998 97.7013 76.2482 97.9722 76.5463C98.1312 76.7201 98.2952 76.8941 98.4319 77.0928C98.74 77.5896 98.9861 78.1362 99.2296 78.7573C99.5627 79.6019 99.764 80.4464 100.067 81.4401C100.336 81.8624 100.229 82.3839 99.8286 82.6572C99.4285 82.9305 98.8867 82.8311 98.6208 82.4088C97.8106 81.7629 97.1048 81.2909 96.4338 80.6699C95.9541 80.2476 95.5266 79.8254 95.1811 79.3783C95.0295 79.2044 94.9201 78.9807 94.8108 78.782C94.6244 78.4342 94.4778 78.1112 94.3535 77.8131C93.6675 76.0742 93.4811 75.1552 93.4811 75.1552ZM112.126 106.654C111.937 106.207 112.146 105.71 112.588 105.511C113.031 105.338 113.543 105.536 113.729 105.984C114.283 106.431 114.696 106.679 115.171 107.201C115.434 107.474 115.675 107.772 115.809 108.145C115.946 108.517 115.939 108.89 115.936 109.287C115.931 109.983 115.814 110.455 115.72 111.151C115.876 111.598 115.635 112.095 115.181 112.244C114.726 112.418 114.231 112.169 114.075 111.722C113.592 111.25 113.2 110.977 112.752 110.48C112.501 110.182 112.248 109.933 112.101 109.586C111.962 109.238 111.95 108.865 111.94 108.492C111.92 107.797 112.066 107.35 112.126 106.654Z" fill="black"/>
<path id="path3556" fill-rule="evenodd" clip-rule="evenodd" d="M154.081 1.02844C154.011 0.556449 154.342 0.109203 154.819 0.0595199C155.294 -0.015005 155.736 0.308033 155.806 0.780024C155.806 0.780024 157.819 11.4123 157.299 26.3421C157.188 29.5716 156.934 32.9995 156.509 36.5767C156.246 38.7876 155.92 41.0484 155.485 43.3587C154.456 48.7493 152.955 54.3386 150.91 59.8783C148.032 67.6786 144.03 75.3794 138.707 82.4345C138.431 82.8319 137.887 82.9311 137.494 82.6579C137.101 82.3846 137.007 81.8383 137.283 81.4408C140.387 76.6712 142.862 71.6779 144.908 66.635C147.038 61.3686 148.636 56.0278 149.888 50.7614C150.678 47.4575 151.32 44.1784 151.871 40.9987C152.46 37.5706 152.945 34.2664 153.315 31.1115C153.815 26.7891 154.128 22.74 154.297 19.1131C154.799 8.30698 154.081 1.02844 154.081 1.02844Z" fill="black"/>
<path id="path3558" fill-rule="evenodd" clip-rule="evenodd" d="M142.89 21.895C142.815 21.423 143.141 20.9758 143.615 20.9013C144.09 20.8268 144.535 21.1498 144.609 21.6218C144.609 21.6218 145.539 24.7517 145.526 30.4901C145.522 31.5831 145.459 32.7507 145.338 34.0176C145.266 34.7877 145.179 35.5578 145.029 36.3776C144.701 38.1413 144.204 40.0542 143.546 42.0664C142.711 44.6251 141.582 47.308 140.233 50.1897C140.071 50.6368 139.572 50.8603 139.119 50.7113C138.665 50.5374 138.428 50.0405 138.59 49.5934C139.094 47.5564 139.46 45.6187 139.813 43.7556C140.205 41.6689 140.491 39.7313 140.772 37.9178C140.939 36.8248 141.093 35.8063 141.259 34.8126C141.552 33.1234 141.833 31.5833 142.054 30.1922C142.892 24.9009 142.89 21.895 142.89 21.895Z" fill="black"/>
<path id="path3560" fill-rule="evenodd" clip-rule="evenodd" d="M104.956 48.9972C104.513 49.3698 103.87 50.3883 103.236 51.1087C101.949 52.5744 100.408 54.5618 98.5835 56.7975C96.4437 59.4059 93.9384 62.3373 91.2418 65.2934C87.735 69.1439 83.8654 72.9942 79.9684 76.2485C79.6155 76.5714 79.0637 76.5465 78.7381 76.1987C78.4125 75.8261 78.4349 75.2796 78.7878 74.9567C81.139 72.5719 83.408 69.8641 85.62 67.1315C87.8617 64.3493 89.9966 61.5175 92.0048 58.8843C93.5159 56.897 94.9399 55.0088 96.2771 53.3444C98.0665 51.1087 99.6894 49.2706 100.994 47.954C102.242 46.7119 103.298 45.9168 104.044 45.6435C105.038 45.2461 105.836 45.3703 106.432 45.7678C107.143 46.2646 108.806 47.4322 110.742 48.8482C115.014 51.9534 120.626 56.1765 120.626 56.1765C121.028 56.4497 121.138 56.9714 120.872 57.3688C120.606 57.7911 120.067 57.8905 119.664 57.6173L104.956 48.9972ZM105.021 48.9477C105.05 48.9477 105.083 48.9477 105.117 48.9477C105.199 48.9477 105.473 49.047 105.413 48.9477C105.329 48.7986 105.192 48.8235 105.021 48.9477Z" fill="black"/>
<path id="path3562" fill-rule="evenodd" clip-rule="evenodd" d="M123.822 21.2009C123.469 21.2009 122.955 21.176 122.483 21.2009C118.22 21.3996 109.151 22.7659 97.3559 23.5608C92.9817 23.8589 88.2348 24.0825 83.2243 24.1074C79.1161 24.1322 74.8313 24.008 70.4273 23.7348C70.3776 24.1322 70.3279 24.6289 70.308 25.0761C70.0396 30.9138 70.7256 43.757 69.652 56.6746C68.966 64.9469 67.5468 73.2439 64.7857 79.8021C64.6092 80.2492 64.1022 80.4728 63.6549 80.2989C63.2075 80.125 62.9888 79.6035 63.1652 79.1563C65.8693 71.9026 66.7838 62.5869 67.0299 53.5942C67.3132 43.2352 66.6646 33.2987 66.5652 27.3615C66.5155 24.3805 66.6869 22.2938 67.0225 21.4243C67.5319 20.1077 68.4837 19.8097 69.294 19.8346C76.3473 20.232 83.1075 20.2071 89.3357 20.058C102.553 19.7351 113.391 18.667 119.518 18.2944C122.333 18.1205 124.25 18.1701 125.08 18.4186C126.079 18.7415 126.449 19.3625 126.531 19.9091C127.346 25.5481 127.505 31.1624 127.284 35.7829C127.038 40.95 126.322 44.9245 125.607 46.4399C125.41 46.8622 124.896 47.0609 124.456 46.8622C124.018 46.6635 123.822 46.1667 124.019 45.7196C124.618 44.3036 125.04 40.5525 125.055 35.7332C125.065 31.4605 124.732 26.3431 123.822 21.2009Z" fill="black"/>
<path id="path3564" fill-rule="evenodd" clip-rule="evenodd" d="M47.8654 121.237C48.5887 121.734 49.9432 122.379 51.1486 123.075C53.4624 124.441 56.5691 126.106 60.0635 127.919C64.2662 130.105 69.048 132.49 73.7279 134.825C78.6513 137.284 83.4604 139.694 87.4544 141.607C91.8857 143.743 95.2582 145.333 96.5556 145.706C97.4354 145.979 98.3873 145.507 99.4187 144.737C100.878 143.644 102.386 141.955 103.84 139.992C107.431 135.173 110.682 128.764 111.967 125.162C112.116 124.715 112.608 124.466 113.066 124.615C113.523 124.764 113.771 125.261 113.622 125.708C112.308 130.13 108.45 138.676 104.28 143.967C102.632 146.054 100.895 147.619 99.2745 148.389C98.0318 148.985 96.8165 149.109 95.6757 148.811C93.3196 148.19 84.283 144.364 74.5207 139.62C71.1257 137.98 67.6512 136.216 64.3333 134.477C60.6948 132.54 57.2551 130.627 54.3149 128.938C49.9681 126.404 46.7074 124.243 45.4697 123.05C44.0182 121.609 44.4581 120.318 45.0397 119.821C45.7132 119.249 47.3833 117.088 49.3566 114.48C53.6438 108.766 59.2309 100.891 59.2309 100.891C59.4993 100.494 60.0386 100.395 60.4387 100.668C60.8389 100.916 60.9482 101.463 60.6823 101.86C60.6823 101.86 55.5502 110.083 51.5637 116.045C50.0874 118.231 48.7453 120.144 47.8654 121.237ZM47.5647 121.013C47.5796 120.79 47.5995 120.417 47.4181 120.541C47.2665 120.665 47.3386 120.839 47.5647 121.013Z" fill="black"/>
<path id="path3566" fill-rule="evenodd" clip-rule="evenodd" d="M57.9808 139.197C58.6146 139.197 59.81 138.825 60.6351 138.626C62.9912 138.079 65.5287 137.21 66.667 136.912C67.1144 136.738 67.6214 136.961 67.7953 137.408C67.9718 137.856 67.7506 138.352 67.3033 138.526C66.1898 139.098 63.7368 140.663 61.3956 141.681C60.2896 142.153 59.2036 142.476 58.2939 142.6C56.246 142.874 54.9214 141.979 54.3548 140.538C54.2106 140.141 53.9322 139.421 53.5172 138.228C53.2985 137.582 53.0499 136.812 52.7566 135.893C52.3018 134.452 51.7501 132.639 51.0418 130.353C50.5398 128.739 50.0103 126.9 49.3467 124.764C49.1553 124.317 49.3616 123.82 49.8016 123.621C50.2439 123.447 50.7559 123.646 50.9473 124.093C51.8643 125.733 52.6721 127.174 53.373 128.49C54.2976 130.254 55.0381 131.744 55.6321 133.011C56.2062 134.229 56.6487 135.272 56.9718 136.117C57.5757 137.706 57.8193 138.675 57.9808 139.197ZM58.0081 139.296C58.0106 139.296 58.0131 139.321 58.0181 139.321C58.0156 139.321 58.0131 139.296 58.0081 139.296ZM57.9709 139.197C57.864 138.998 57.6403 138.725 57.5732 138.924C57.4862 139.147 57.6577 139.222 57.9709 139.197ZM58.9949 38.2904C50.9722 42.3147 43.8865 45.1963 37.9043 47.3079C29.5462 50.264 23.3924 51.7795 19.9701 53.0464C19.4134 53.27 18.7275 53.4438 18.3124 53.6177C21.1134 59.2071 23.7355 64.4485 26.1289 69.3672C28.9944 75.2546 31.5642 80.6701 33.888 85.6384C40.5959 99.9969 45.2361 110.704 48.5515 118.603C48.7453 119.05 48.5465 119.547 48.1066 119.746C47.6692 119.945 47.1522 119.746 46.9583 119.299C44.5252 114.132 41.4086 107.772 37.4768 99.8976C33.7116 92.3706 29.1584 83.502 23.7529 72.9692C20.9221 67.4544 17.8949 61.4676 14.5621 55.0088C14.1297 54.1641 14.0899 53.3693 14.3111 52.6241C14.4876 52.0527 14.853 51.4566 15.5016 50.9349C16.1428 50.3884 17.1717 49.8666 18.6107 49.3449C21.8218 48.2022 27.4038 46.8856 34.9766 44.5008C41.4459 42.4886 49.3891 39.6816 58.545 35.4089C59.0247 35.1853 59.7777 35.0857 60.5333 35.831C61.1248 36.4023 62.0592 37.9924 63.0409 40.2033C65.2827 45.2709 68.1135 53.8413 68.8988 59.7784C68.9709 60.2504 68.6453 60.6975 68.1706 60.7721C67.6934 60.8466 67.2486 60.5235 67.1766 60.0516C66.0035 53.3195 61.9548 43.209 59.5689 39.1599C59.3924 38.8369 59.1738 38.5388 58.9949 38.2904ZM18.2031 53.6675C17.9645 53.7917 17.8576 53.8909 17.9968 54.0151C18.1434 54.1145 18.2081 53.9159 18.2031 53.6675Z" fill="black"/>
<path id="path3568" fill-rule="evenodd" clip-rule="evenodd" d="M3.91495 85.8872C6.61153 87.1789 9.37521 88.5702 12.1016 90.0607C15.0865 91.7251 18.0366 93.4889 20.8823 95.2775C24.5109 97.5629 27.9605 99.8731 31.0796 102.059C39.7584 108.071 45.8574 112.915 45.8574 112.915C46.2476 113.188 46.337 113.735 46.0562 114.132C45.7753 114.505 45.231 114.604 44.8408 114.306C44.8408 114.306 35.2872 108.096 23.293 101.066C19.7912 99.0037 16.0806 96.8672 12.3625 94.7557C8.65442 92.669 4.95628 90.5575 1.34509 88.7192C0.65665 88.3714 0.283864 87.8746 0.117347 87.3529C-0.0342589 86.8809 -0.0715147 86.3096 0.204358 85.6637C0.440464 85.1172 1.02204 84.3472 2.0112 83.4777C3.73354 81.9624 6.82776 79.7763 10.4762 76.8947C14.1048 74.0627 18.2876 70.5601 22.1274 66.337C22.4356 65.9644 22.9873 65.9146 23.3552 66.2375C23.723 66.5356 23.7677 67.0822 23.4595 67.4549C19.3836 72.6716 14.8181 76.9692 11.0056 80.3228C8.39098 82.6082 5.1775 84.6202 3.91495 85.8872ZM3.59433 86.235C3.31846 86.6077 3.27872 86.881 3.56205 87.03C3.85532 87.2039 3.66393 86.4835 3.60925 86.2848C3.60428 86.2848 3.5993 86.2599 3.59433 86.235Z" fill="black"/>
</g>
</g>
<defs>
<clipPath id="clip0_615_10745">
<rect width="161" height="149" fill="white"/>
</clipPath>
</defs>
</svg>
