<svg width="96" height="96" viewBox="0 0 96 96" fill="none" xmlns="http://www.w3.org/2000/svg">
<path d="M23.1913 43.0613C25.5819 43.6166 28.1983 44.0025 30.8995 44.473C31.3889 44.5578 31.8877 44.5954 32.3866 44.6425C32.8854 44.6895 33.403 44.7742 33.9019 44.8872C35.7009 45.2981 37.466 45.8456 39.1819 46.5248C41.0827 47.3711 42.7328 48.6937 43.9724 50.3648C45.0242 51.6845 45.8859 53.1449 46.5324 54.7036C46.9357 55.6822 47.2323 56.7015 47.4172 57.7436C47.6008 58.7771 47.6008 59.8349 47.4172 60.8683C47.2948 61.5178 46.7019 61.3954 46.0148 60.9248C45.2075 60.3903 44.5396 59.6707 44.0666 58.826C43.3908 57.3426 42.5341 55.9485 41.516 54.6754C40.6397 53.5284 39.5809 52.5332 38.3819 51.7295C38.2124 51.6166 38.0242 51.5507 37.8548 51.4472C37.6854 51.3436 37.356 51.2683 37.1113 51.1836C36.5921 51.004 36.0605 50.8624 35.5207 50.7601L33.8548 50.4872C33.2807 50.4307 32.716 50.3554 32.1419 50.2707C29.6289 49.9036 26.9936 49.6495 24.2736 49.273C23.4454 49.1695 22.5983 49.0283 21.7513 48.8683C20.9042 48.7083 20.0572 48.5295 19.2101 48.3413C16.5854 47.6717 14.0714 46.6256 11.7466 45.2354C10.8524 44.6707 9.86421 44.2001 9.03597 43.5601C8.60303 43.2589 8.0948 42.9672 7.70892 42.6189C7.32303 42.2707 6.8995 41.9225 6.50421 41.5554C6.12933 41.269 5.77693 40.9544 5.45009 40.6142C4.40539 39.2213 4.44303 38.5154 5.67597 37.386C5.94489 37.1203 6.22764 36.869 6.52303 36.633C7.41403 35.9049 8.67362 35.8364 9.63833 36.4636C11.8521 38.2164 14.2321 39.7484 16.7442 41.0378C18.8284 41.9063 21.0036 42.5377 23.2289 42.9201L23.1913 43.0613Z" fill="black"/>
<path d="M74.0142 49.1885C71.3506 49.292 68.8942 49.2449 66.4848 49.4614C65.6095 49.5179 64.8189 49.8191 63.9718 49.9132C63.1248 50.0073 62.513 50.1673 61.7695 50.2896C61.0259 50.412 60.3389 50.6567 59.6142 50.8355L59.1436 50.9579L58.7295 51.0802C58.446 51.1889 58.1721 51.3211 57.9106 51.4755C57.3279 51.8133 56.7956 52.2316 56.3295 52.7179C55.476 53.6937 54.8007 54.8119 54.3342 56.0214C54.0172 56.806 53.7531 57.611 53.5436 58.4308C53.3083 59.2591 53.0824 60.0779 52.8565 60.9155C52.6965 61.4332 52.113 61.4238 51.4448 60.9155C50.5691 60.2339 50.0388 59.2008 49.9954 58.092C49.9829 55.9032 50.4689 53.7403 51.4165 51.7673C51.9454 50.7484 52.6 49.7999 53.3648 48.9438C54.2156 48.0203 55.2264 47.2582 56.3483 46.6943C56.6965 46.5532 57.1012 46.3367 57.4024 46.2426C57.7036 46.1485 58.0048 46.0638 58.2965 45.9602C58.8989 45.7626 59.4824 45.4896 60.0848 45.3108L61.8824 44.7179C62.4801 44.5425 63.0864 44.398 63.6989 44.2849C66.2871 43.8442 68.8984 43.5519 71.5201 43.4096C72.2824 43.3438 73.0636 43.3061 73.7977 43.212L74.9177 43.0896L75.9906 42.9014C78.1139 42.6485 80.1481 41.9006 81.9295 40.7179C82.5801 40.2175 83.1403 39.6095 83.5859 38.9202C83.8118 38.5814 84.0471 38.2708 84.2448 37.9226L84.7906 36.8496L85.233 35.9085C85.8259 34.7226 86.4001 34.5908 88.0001 35.1179C88.3671 35.2402 88.7436 35.3343 89.1012 35.4755C90.2747 35.8414 90.9342 37.0846 90.5789 38.2614C90.467 38.7259 90.3319 39.1845 90.1742 39.6355C89.9765 40.0779 89.7601 40.5202 89.5248 40.9532C89.2959 41.4035 89.0414 41.8403 88.7624 42.2614C88.4518 42.6661 88.1224 43.0708 87.8212 43.4755C86.3869 45.0912 84.6384 46.3978 82.6824 47.3155C79.9638 48.5134 77.0476 49.1994 74.0801 49.3391L74.0142 49.1885Z" fill="black"/>
</svg>
