<svg width="96" height="96" viewBox="0 0 96 96" fill="none" xmlns="http://www.w3.org/2000/svg">
<path d="M63.9755 34.8413C54.9779 36.3001 49.585 26.0883 49.585 26.0883L52.1073 22.7754C53.2772 25.8205 55.4043 28.4033 58.1685 30.1354C62.5073 32.6013 64.5497 31.886 64.5497 31.886L63.9755 34.8413Z" fill="black"/>
<path d="M28.0511 67.3574C28.2111 66.6139 29.5193 65.7009 30.1028 65.3433C32.2212 64.308 34.7492 64.606 36.5687 66.1057C42.3758 71.3009 30.724 72.5715 33.3499 77.3998C33.9993 78.6045 28.5969 83.4233 28.5969 83.4233C28.5969 83.4233 26.4605 73.4092 27.3734 69.8233C28.2864 66.2374 28.0511 67.348 28.0511 67.3574Z" fill="black"/>
<path d="M65.5943 25.1846C66.1845 23.8164 66.6844 22.411 67.0908 20.9775C67.464 19.6868 67.6509 18.3493 67.6461 17.0057C67.6461 16.6952 67.5802 16.4599 67.5708 16.1869C67.5202 15.9661 67.4542 15.7491 67.3732 15.5375C67.3124 15.3641 67.2234 15.2019 67.1096 15.0575C66.9913 14.8815 66.8488 14.723 66.6861 14.5869C65.999 13.9983 65.0656 13.7869 64.192 14.0222C62.5826 14.3422 60.7943 15.6316 59.1285 16.9775C56.0792 19.5699 53.3409 22.5072 50.9685 25.7304C48.62 29.017 46.6588 32.5636 45.1237 36.2999C43.7055 39.6705 42.5046 43.1286 41.5285 46.6528C40.8696 48.8928 40.399 51.1893 39.7873 53.4575L37.9049 60.2246C37.5379 61.6081 36.9637 61.3916 36.4743 60.0363C35.7698 57.9162 35.5291 55.6694 35.7685 53.4481C37.3685 43.7634 40.192 34.1163 45.9049 25.5328C47.7026 22.9634 49.5285 20.5822 51.5802 18.2575C53.5758 15.7604 55.8995 13.5442 58.4885 11.6693C60.0827 10.5581 61.901 9.80961 63.8155 9.47633C64.9478 9.32776 66.0989 9.43387 67.1849 9.78692C68.247 10.1342 69.2137 10.7238 70.0085 11.5093C70.4195 11.921 70.7855 12.3753 71.1002 12.8646C71.3851 13.3457 71.6156 13.8571 71.7873 14.3893L72.0132 15.161L72.1261 15.914C72.194 16.4035 72.2255 16.8974 72.2202 17.3916C72.1855 19.2003 71.9037 20.9958 71.3826 22.7281C70.1662 26.7322 68.439 30.563 66.2437 34.1257C63.0249 39.4999 59.0343 44.2622 55.1379 48.9493C52.079 52.5822 49.1049 56.1587 45.9049 59.594C45.2085 60.3469 44.5402 61.1093 43.7967 61.8434C42.8162 62.7948 41.7408 63.6431 40.5873 64.3752C39.9925 64.7146 39.3309 64.9202 38.6485 64.9775C38.4136 64.9988 38.1774 64.9988 37.9426 64.9775C37.6508 64.9775 37.7167 64.5728 38.0367 63.9046C38.4954 62.8976 39.0736 61.9496 39.759 61.081C40.4179 60.2622 40.992 59.3775 41.6885 58.5963L43.7214 56.1775L47.8155 51.3493C50.5355 48.0363 53.2461 44.6669 55.7873 41.194C57.6696 38.634 59.439 35.9704 61.1332 33.3257C62.8381 30.7416 64.297 28.0034 65.4908 25.1469L65.5943 25.1846Z" fill="black"/>
<path d="M24.8788 77.5516C24.8788 77.4104 24.8788 77.2128 24.7753 77.1281V76.874L24.7094 76.3657L24.6058 75.3304C24.5494 74.6434 24.5023 73.9469 24.4835 73.2504C24.4374 71.797 24.5161 70.3422 24.7188 68.9022C24.8174 67.7375 25.0837 66.5931 25.5094 65.5045C26.0056 64.4427 26.6986 63.4846 27.5517 62.681C27.985 62.2485 28.4684 61.8693 28.9917 61.5516C29.4668 61.3013 29.9572 61.0812 30.46 60.8928C32.4984 60.0735 34.7745 60.0735 36.8129 60.8928C38.5431 61.5901 40.0271 62.7858 41.0764 64.3281C41.7313 65.2613 42.1481 66.3405 42.2906 67.4716C42.2906 67.7445 42.2906 68.0269 42.2906 68.2998C42.2699 68.5681 42.2354 68.8351 42.187 69.0998C42.1136 69.6235 41.9745 70.1357 41.7729 70.6245C41.5376 71.2363 41.1894 71.0669 40.6717 70.5398C40.4082 70.2763 40.1258 69.9281 39.7776 69.5987C39.4279 69.2603 39.0979 68.902 38.7894 68.5257C38.4385 67.984 38.0451 67.471 37.6129 66.9916C37.2148 66.6477 36.7675 66.3654 36.2858 66.154C35.8233 66.0048 35.3473 65.9008 34.8647 65.8434C34.7427 65.8575 34.6196 65.8575 34.4976 65.8434C34.3704 65.7935 34.2377 65.7587 34.1023 65.7398C33.8151 65.6742 33.5216 65.6395 33.227 65.6363C33.0369 65.6229 32.846 65.642 32.6623 65.6928C32.4657 65.716 32.2746 65.7733 32.0976 65.8622C31.9376 65.9469 31.6741 66.041 31.5894 66.1069C31.469 66.1806 31.3583 66.2691 31.26 66.3704C30.7757 66.9532 30.4024 67.62 30.1588 68.3375C29.3976 70.5448 29.056 72.8751 29.1517 75.2081V76.3563V77.0622C29.1517 77.4669 29.2176 77.8904 29.2835 78.3234L29.4247 79.1893L29.5094 79.6504V79.7069V79.7069L29.5753 79.641L29.6976 79.4998L31.2411 77.8245L31.9376 77.034L32.9258 75.9704C33.648 75.1648 34.4488 74.4333 35.3164 73.7869C35.6946 73.5003 36.0978 73.2483 36.5211 73.034C37.2061 72.6534 38.0096 72.5458 38.7706 72.7328C39.2921 72.8954 39.6445 73.3818 39.6364 73.9281C39.6745 74.1808 39.6745 74.4377 39.6364 74.6904C39.5099 75.0352 39.3217 75.3541 39.0811 75.6316C38.9385 75.8812 38.7463 76.099 38.5164 76.2716C37.4179 77.0197 36.388 77.8638 35.4388 78.794L34.5917 79.6034L34.3753 79.8104C34.3 79.8763 34.2623 79.9328 34.0553 80.1116L33.1141 81.0528C32.5211 81.6834 31.9282 82.2763 31.3447 82.9351L29.6223 85.081L27.5517 87.5093C27.1658 85.8998 26.7705 84.281 26.3753 82.6716C25.5497 81.0696 25.0054 79.3378 24.7658 77.5516H24.8788Z" fill="black"/>
<path d="M58.1685 31.8091C57.166 31.2174 56.2208 30.5337 55.345 29.7668C55.0438 29.475 54.6862 29.268 54.4038 28.9668C53.4444 27.8682 52.6516 26.6346 52.0509 25.3056C51.9191 25.0138 51.8062 24.7221 51.665 24.4397C51.5033 24.1715 51.3768 23.8837 51.2885 23.5832C51.1631 23.2004 51.0594 22.8107 50.9779 22.4162C50.9357 22.0109 50.9547 21.6016 51.0344 21.2021C51.0909 20.948 51.552 20.9385 52.0885 21.0515C52.6019 21.1073 53.0853 21.321 53.472 21.6632C54.1966 22.6788 54.7616 23.7992 55.1473 24.9856C55.5344 25.6911 56.0906 26.2895 56.7662 26.7268C57.4436 27.3189 58.1782 27.8422 58.9591 28.2891C59.4468 28.5691 59.9568 28.8083 60.4838 29.0044C61.2816 29.3045 62.1184 29.4883 62.9685 29.5503C63.6143 29.5465 64.2533 29.4186 64.8509 29.1738C64.9771 29.127 65.1119 29.1077 65.2462 29.1174C65.7262 29.1174 65.9426 29.3527 66.2532 30.0585C66.3191 30.2185 66.4038 30.3785 66.4603 30.5385C66.6778 31.0556 66.5415 31.6538 66.1215 32.0256C65.5197 32.6361 64.7246 33.0187 63.872 33.108C63.0625 33.2491 62.2346 33.2491 61.425 33.108C60.2668 32.8314 59.1498 32.4042 58.1026 31.8374L58.1685 31.8091Z" fill="black"/>
</svg>
