<svg width="96" height="96" viewBox="0 0 96 96" fill="none" xmlns="http://www.w3.org/2000/svg">
<path d="M48.6324 61.604C48.237 61.2577 47.8804 60.8696 47.5688 60.4463C47.2946 60.0356 47.0462 59.6081 46.8253 59.1663C46.6653 58.724 46.4865 58.3098 46.3641 57.8487C46.2485 57.3914 46.1698 56.9256 46.1288 56.4557C46.03 55.7785 46.03 55.0906 46.1288 54.4134C46.2674 53.844 46.503 53.3027 46.8253 52.8134C46.9592 52.5687 47.1135 52.3357 47.2865 52.1169C47.4464 51.8996 47.6192 51.6922 47.8041 51.4957C48.4799 50.7453 49.2376 50.0729 50.063 49.491C50.7604 48.996 51.497 48.5585 52.2653 48.1828C53.2357 47.6227 54.3646 47.4008 55.4747 47.5522C55.823 47.6181 55.7477 48.0981 55.4747 48.6063C55.3598 48.8652 55.2178 49.1113 55.0512 49.3404C54.9183 49.5547 54.7252 49.7249 54.4959 49.8298C52.9789 50.4696 51.6201 51.4333 50.5147 52.6534C50.2216 53.0338 50.0247 53.4794 49.9406 53.9522C49.9179 54.1775 49.9179 54.4045 49.9406 54.6298C49.9317 54.738 49.9128 54.8452 49.8841 54.9498C49.8935 55.0532 49.8935 55.1571 49.8841 55.2604C49.8428 55.7247 49.881 56.1926 49.9971 56.644L50.2606 57.3592C50.3661 57.5728 50.4889 57.7774 50.6277 57.971C50.9737 58.4601 51.464 58.8287 52.03 59.0251C53.0582 59.4077 54.1721 59.4989 55.2488 59.2887C56.1461 59.033 57.0138 58.6828 57.8371 58.244C58.0347 58.1592 58.2041 58.0463 58.4112 57.9804C59.1547 57.7545 59.4841 57.9804 59.9265 58.9216C60.03 59.1475 60.143 59.3734 60.2277 59.5992C60.5325 60.2559 60.3891 61.0334 59.87 61.5381C58.2429 62.8588 56.184 63.5294 54.0912 63.4204C53.1658 63.4226 52.2445 63.2991 51.3524 63.0534C50.3246 62.7665 49.3646 62.2769 48.5288 61.6134L48.6324 61.604Z" fill="black"/>
<path d="M26.6002 32.1076C26.9276 30.9628 26.947 29.7518 26.6567 28.597C26.5983 28.3787 26.5096 28.1696 26.3931 27.9759C26.2896 27.7688 26.1861 27.5712 26.1014 27.3641C25.5814 25.7997 24.5288 24.4674 23.1273 23.5994C22.4768 23.2592 21.7383 23.1247 21.0096 23.2135C20.0333 23.3438 19.0484 23.3973 18.0637 23.3735C17.7061 23.3735 17.3955 22.6582 17.3673 21.7829C17.339 20.9076 17.6025 19.7029 18.4214 19.2982C18.7723 19.101 19.141 18.9371 19.5225 18.8088L20.1155 18.6112C20.3178 18.5779 20.5223 18.5591 20.7273 18.5547C21.1414 18.5547 21.5649 18.5547 21.979 18.5547C22.3931 18.5547 22.8073 18.677 23.212 18.7523C24.7952 19.1381 26.2293 19.9828 27.3343 21.1806C28.6444 22.4103 29.7924 23.8019 30.7508 25.3217C31.6543 27.0364 32.1685 28.9292 32.2567 30.8653C32.3365 32.0884 32.1799 33.3155 31.7955 34.4794C31.2098 36.3352 30.0205 37.9419 28.4167 39.0441C27.8148 39.4786 27.1861 39.8747 26.5343 40.23C26.3649 40.3147 26.2049 40.4088 26.0355 40.4841L25.5367 40.6441C25.2022 40.7613 24.8593 40.8526 24.5108 40.917C24.2003 40.9816 23.8859 41.0256 23.5696 41.0488C23.1183 41.0638 22.6875 40.8606 22.412 40.5029C22.1671 40.1625 22.0176 39.7628 21.979 39.3453C21.9345 39.1341 21.9031 38.9203 21.8849 38.7053C21.8753 38.3556 21.9633 38.0101 22.139 37.7076C22.3356 37.3642 22.576 37.0478 22.8543 36.7665C23.0708 36.6253 23.2684 36.39 23.4473 36.2582L23.9837 35.8441C24.2849 35.5523 24.5578 35.2323 24.7649 35.0629C25.1228 34.7968 25.4399 34.4797 25.7061 34.1217C25.8687 33.8703 26.0104 33.6059 26.1296 33.3312C26.2694 32.9244 26.3702 32.5052 26.4308 32.0794L26.6002 32.1076Z" fill="black"/>
<path d="M34.411 25.5192C34.8623 27.604 34.7847 29.7686 34.1852 31.8157C33.6406 33.7331 32.712 35.5199 31.4557 37.0675C31.0189 37.6121 30.5539 38.1336 30.0628 38.6298C29.8087 38.8745 29.564 39.1286 29.3005 39.3451C29.0369 39.5616 28.7357 39.7686 28.4534 39.9569C26.4019 41.3079 24.0104 42.0518 21.5546 42.1028C19.1277 42.1888 16.7389 41.4817 14.7499 40.0886C13.8821 39.4121 13.1344 38.5945 12.5381 37.6698C12.2412 37.2186 11.989 36.7395 11.7852 36.2392C11.6127 35.736 11.4805 35.2199 11.3899 34.6957C11.1982 33.3825 11.2945 32.0433 11.6722 30.771C11.8944 30.1658 12.1849 29.5879 12.5381 29.0486C12.7075 28.7851 12.8769 28.5216 13.0557 28.2769L13.6769 27.5898C14.2134 27.0439 14.6181 27.4957 14.8252 28.3333C15.0967 29.3151 15.2453 30.3268 15.2675 31.3451C15.1889 32.1383 15.3019 32.9388 15.5969 33.6792C15.6421 33.8472 15.7152 34.0063 15.8134 34.1498C15.8837 34.2972 15.9655 34.4388 16.0581 34.5733C16.1334 34.7051 16.1805 34.8557 16.2652 34.9875C16.3606 35.1087 16.4456 35.2378 16.5193 35.3734C16.9294 35.8691 17.4311 36.2813 17.9969 36.5875C18.69 36.9394 19.4326 37.1837 20.1993 37.3122C21.2519 37.4349 22.3181 37.2724 23.2863 36.8416C24.2616 36.3621 25.1518 35.7263 25.9216 34.9592C27.7173 33.3695 28.7624 31.0984 28.8016 28.7004C28.7779 27.2275 28.2795 25.8015 27.3805 24.6345C25.9875 22.5922 24.0581 21.2463 22.0252 21.6416C21.205 21.8192 20.4319 22.1689 19.7569 22.6675C19.0442 23.2324 18.3856 23.8626 17.7899 24.5498C17.5075 24.8322 17.3099 25.2181 16.9993 25.491C16.6138 25.9431 16.1028 26.2706 15.531 26.4322C14.9307 26.4631 14.3321 26.3434 13.7899 26.0839C13.4793 25.9616 13.1593 25.8675 12.8487 25.7357C12.3736 25.5055 12.0278 25.0732 11.9075 24.5592C11.6988 23.8957 11.7424 23.1785 12.0299 22.5451C12.4637 21.4202 13.0841 20.3765 13.8652 19.4581C14.7129 18.4322 15.7052 17.5349 16.811 16.7945C17.4358 16.3936 18.0939 16.0472 18.7781 15.7592C19.1452 15.6181 19.5028 15.4675 19.8887 15.3545C20.2746 15.2416 20.6981 15.2039 21.1028 15.1381C21.5232 15.0746 21.9485 15.0494 22.3734 15.0628C22.8038 15.0502 23.2345 15.066 23.6628 15.1098C24.5283 15.211 25.3784 15.4164 26.1946 15.7216C28.3554 16.5688 30.2455 17.9871 31.6628 19.8251C31.9734 20.2298 32.2369 20.6439 32.5193 21.0486L32.9334 21.6604L33.3287 22.3945C33.8556 23.3745 34.2632 24.4141 34.5428 25.491L34.411 25.5192Z" fill="black"/>
<path d="M52.4251 65.19C50.5642 65.0988 48.7486 64.5837 47.1169 63.6841C45.4022 62.7526 44.0083 61.3258 43.1169 59.59C42.9468 59.2888 42.802 58.974 42.684 58.6488C42.5616 58.3194 42.4298 57.99 42.3263 57.7076C42.2228 57.4253 42.1663 57.0488 42.1004 56.7665C42.0346 56.4841 42.0251 56.0888 42.0157 55.75C41.8876 53.362 42.6563 51.0123 44.171 49.1618C45.5482 47.4816 47.3479 46.1985 49.3851 45.4441C51.1935 44.794 53.113 44.5093 55.0322 44.6065C56.3146 44.6789 57.5593 45.0669 58.6557 45.7359C58.9356 45.91 59.1973 46.1118 59.4369 46.3382C59.7032 46.535 59.9219 46.7891 60.0769 47.0818C60.2482 47.3613 60.3901 47.6578 60.5004 47.9665C60.6246 48.2696 60.7161 48.5851 60.7734 48.9076C60.924 49.6982 60.2369 49.8959 59.1546 50.0559C58.5182 50.1412 57.8891 50.2733 57.2722 50.4512C56.9616 50.5359 56.6228 50.6959 56.3875 50.7618C56.2108 50.8005 56.0277 50.8005 55.851 50.7618C55.3733 50.6959 54.8888 50.6959 54.411 50.7618C53.88 50.6913 53.342 50.6913 52.811 50.7618C51.4557 50.916 50.1285 51.2581 48.8675 51.7782C48.0988 52.158 47.4937 52.8033 47.164 53.5947C46.8276 54.3521 46.7547 55.2004 46.9569 56.0041C47.1439 56.8956 47.6164 57.7018 48.3028 58.3006C49.052 58.9792 49.9679 59.4469 50.9569 59.6559C52.2565 59.9664 53.6177 59.9011 54.8816 59.4676C55.8028 59.1735 56.6262 58.6333 57.2628 57.9053C57.7969 57.1167 58.0791 56.1847 58.0722 55.2323C58.1125 53.7335 57.5055 52.2898 56.4063 51.27L56.124 51.1194C56.0436 51.1133 55.966 51.0874 55.8981 51.0441C55.6346 50.9876 55.5498 50.7806 55.4557 50.4229C55.4557 50.2535 55.3334 50.0747 55.2769 49.8206C55.2204 49.5665 55.1451 49.2465 55.0604 48.8794C54.9757 48.5123 54.8722 48.2959 54.8063 48.0418C54.6785 47.5602 54.8104 47.0468 55.1546 46.6865C55.3697 46.3963 55.6637 46.1741 56.0016 46.0465C56.4491 45.94 56.9065 45.8801 57.3663 45.8676C58.1299 45.9971 58.8596 46.2788 59.5122 46.6959L60.011 47.0253L60.4251 47.4018C60.7065 47.6437 60.9677 47.9081 61.2063 48.1923C62.0725 49.225 62.7137 50.4271 63.0887 51.7218C63.4429 52.9439 63.5986 54.215 63.5498 55.4865C63.5196 56.8629 63.2257 58.2208 62.684 59.4865C62.4318 60.0566 62.1161 60.5965 61.7428 61.0959C61.4011 61.529 61.0367 61.9437 60.651 62.3382C60.2651 62.7053 59.8322 63.0159 59.4181 63.3453C59.004 63.6747 58.5334 63.8818 58.0816 64.1359C56.3292 65.0048 54.3896 65.4283 52.4346 65.3688L52.4251 65.19Z" fill="black"/>
<path d="M79.898 79.5336C78.8245 80.0056 77.6636 80.2461 76.4909 80.2395C75.2554 80.2388 74.036 79.9589 72.9239 79.4207C72.0932 79.0586 71.3632 78.4998 70.7968 77.7924C70.5517 77.4761 70.3638 77.1193 70.2415 76.7383C70.105 76.3893 70.0072 76.0263 69.9498 75.656C69.9498 75.2701 69.818 74.856 69.8086 74.5171V73.576C69.8809 72.342 70.201 71.1353 70.7498 70.0277L71.1733 69.2748C71.3319 69.0235 71.5047 68.7816 71.6909 68.5501C72.1038 68.0822 72.598 67.6932 73.1498 67.4018C73.8614 67.0085 74.6736 66.8349 75.4839 66.903C75.8541 66.9361 76.2148 67.0382 76.5474 67.2042C76.8672 67.3463 77.1552 67.5511 77.3945 67.8065C77.7051 68.1171 77.2251 68.7477 76.6509 69.4065C76.3592 69.7454 76.0486 70.0654 75.8133 70.3477C75.578 70.6301 75.3992 70.8842 75.3333 70.9877C75.2741 71.0291 75.2362 71.0946 75.2298 71.1665C75.2298 71.3077 75.2298 71.0442 75.2298 71.1665V71.2324C75.2604 71.2875 75.2984 71.3382 75.3427 71.383C75.4086 71.4677 75.3992 71.4395 75.4086 71.5054C75.0978 71.8473 74.8636 72.2516 74.7215 72.6912C74.6131 73.0415 74.5905 73.4128 74.6557 73.7736C74.8057 74.2359 75.1491 74.6102 75.5968 74.7995C75.987 74.9176 76.3987 74.9466 76.8015 74.8842C77.2747 74.8333 77.7211 74.6397 78.0815 74.3289C78.2683 74.146 78.3706 73.8937 78.3639 73.6324C78.3525 73.3172 78.2005 73.0237 77.9498 72.8324C77.4483 72.5102 76.7995 72.5327 76.3215 72.8889C76.2368 72.9548 76.1615 73.0583 76.1145 73.096H76.058C76.0333 73.065 76.0142 73.03 76.0015 72.9924L75.8415 72.6442C75.7004 72.3336 75.4933 71.8724 75.1357 71.1665C74.9757 70.8371 74.7874 70.536 74.618 70.2254C74.3298 69.7572 74.1918 69.2119 74.2227 68.663C74.283 68.0832 74.601 67.5613 75.0886 67.2418C76.7097 66.3548 78.6765 66.3798 80.2745 67.3077C82.0706 68.2453 83.3694 69.9187 83.8321 71.8912C83.9972 72.6901 84.0258 73.5111 83.9168 74.3195C83.8094 75.1598 83.541 75.9714 83.1262 76.7101C82.4149 77.9886 81.3272 79.0172 80.0109 79.656L79.898 79.5336Z" fill="black"/>
</svg>
