<svg width="96" height="96" viewBox="0 0 96 96" fill="none" xmlns="http://www.w3.org/2000/svg">
<path d="M49.309 54.2044C40.0102 54.2044 13.0078 35.8138 13.0078 35.8138C13.0078 35.8138 14.0337 30.9856 14.3631 31.8421C14.589 32.435 48.5466 48.6891 48.5466 48.6891L49.309 54.2044Z" fill="black"/>
<path d="M74.7207 69.3295C78.3442 61.9977 78.3442 40.9342 74.7207 35.0048L82.0148 31.0801L81.8454 63.0801L74.7207 69.3295Z" fill="black"/>
<path d="M16.2735 59.1467L16.2265 61.8667V63.2408C16.2022 63.3242 16.1833 63.4091 16.17 63.4949C16.1135 63.6832 16.2923 63.7867 16.4053 63.9279C17.0547 64.3796 17.8453 64.869 18.6076 65.349C19.737 66.0455 20.9606 66.582 22.1088 67.2314L28.2359 70.9961L31.3041 72.8785L34.3535 74.7608C36.1606 75.8902 38.0429 76.9067 39.897 77.9137C41.0923 78.5726 42.3065 79.1843 43.4735 79.8902C44.6242 80.6491 45.7074 81.5056 46.7112 82.4502C47.3418 83.0526 46.9182 83.5137 45.9206 83.7961C44.5766 84.1577 43.161 84.1577 41.817 83.7961C39.3135 82.6949 36.8476 81.5373 34.3912 80.342C31.8978 79.1639 29.4889 77.8148 27.1818 76.3043C24.4053 74.422 21.177 73.1796 18.1559 71.5985L15.6618 70.2243L14.4194 69.4996L12.9888 68.6149C12.3613 68.2322 11.7856 67.7704 11.2759 67.2408C11.0029 66.9961 10.937 66.6102 10.7112 66.3467C10.6359 65.9985 10.5135 65.6596 10.4665 65.302L10.3535 64.182V63.6455V63.2408V61.8008C10.3535 59.4573 10.3535 57.0949 10.3535 54.8079C10.3535 51.2973 10.5888 47.7679 10.6265 44.2761C10.6265 41.5561 10.3629 38.8549 10.3723 36.069C10.3567 35.4404 10.3851 34.8114 10.457 34.1867C10.5307 33.6983 10.644 33.2167 10.7959 32.7467C10.9384 32.3902 11.1568 32.0691 11.4359 31.8055C11.9408 31.4148 12.5674 31.2148 13.2053 31.2408C13.5437 31.2179 13.8833 31.2179 14.2218 31.2408C15.2853 31.3443 16.0288 32.4267 16.4523 33.9608L16.65 35.6643C16.7433 36.2369 16.7905 36.816 16.7912 37.3961C16.8476 38.5632 16.8382 39.7302 16.8476 40.9349C16.8476 43.3067 16.7818 45.7632 16.697 48.2102C16.5935 51.8526 16.4241 55.5514 16.4241 59.2126L16.2735 59.1467Z" fill="black"/>
<path d="M51.7462 61.6951C51.5674 63.2669 51.4356 64.8575 51.3791 66.4669C51.3791 67.0504 51.5015 67.6245 51.4544 68.2175C51.2285 70.3069 51.0497 72.4151 51.0497 74.5328C51.0215 74.9998 51.0215 75.4681 51.0497 75.9351V77.3375C51.1995 78.5699 51.1293 79.819 50.8426 81.0269C50.7203 81.4222 50.1932 81.3563 49.5815 81.0269C48.888 80.7571 48.3071 80.2592 47.9344 79.6151C47.7274 79.0598 47.5015 78.4669 47.3038 77.8928C47.0787 77.3187 46.9146 76.7224 46.8144 76.114C46.6919 74.8841 46.6919 73.645 46.8144 72.4151C46.965 70.9093 46.5226 69.394 46.4756 67.8693C46.4756 66.1845 46.5415 64.4904 46.6262 62.8057L46.8521 59.681C46.9462 58.1093 47.2474 56.5375 47.3979 54.9751C47.4636 54.35 47.4857 53.721 47.4638 53.0928C47.4638 52.481 47.4638 51.841 47.5862 51.2104C47.6087 50.9337 47.6688 50.6614 47.765 50.401C48.1415 49.4128 48.5556 49.1963 49.525 49.2998C49.7461 49.3099 49.9662 49.3351 50.1838 49.3751C50.8852 49.5523 51.423 50.1157 51.5674 50.8245C51.6803 51.3516 51.7932 51.8598 51.9438 52.3963C52.0944 52.9328 52.0285 53.4034 52.0474 53.9022C52.1321 54.9375 52.0944 55.9351 52.1226 56.9704C52.1697 58.4951 51.8779 60.0575 51.8497 61.6763L51.7462 61.6951Z" fill="black"/>
<path d="M85.7694 55.1739L85.3553 59.0892L85.1106 61.0845L84.9317 62.1386C84.9317 62.2892 84.8753 62.5339 84.8188 62.8351C84.7623 63.1363 84.6964 63.3904 84.6306 63.6727L84.527 63.9833L84.4706 64.1433C84.367 64.1433 84.4047 64.2374 84.3576 64.2845C84.2659 64.4868 84.1589 64.6819 84.0376 64.868C83.9285 65.0645 83.785 65.2398 83.6141 65.3857C83.4636 65.5549 83.3034 65.7152 83.1341 65.8657L82.6164 66.2986L82.3623 66.5057L82.1835 66.628C81.9576 66.788 81.7223 66.9668 81.4964 67.1174C80.3388 67.8986 79.2941 68.7174 78.1459 69.4045C74.127 71.7763 70.0706 73.9692 66.1082 76.3221C65.2235 76.8398 64.367 77.3857 63.5106 77.9504L60.9506 79.588L57.7223 81.7527L54.5223 83.8139C53.9388 84.2186 53.5812 83.8139 53.6564 82.8727C53.8827 81.5708 54.527 80.3781 55.4917 79.4751C57.4745 77.6415 59.5577 75.9196 61.7317 74.3174C63.9529 72.821 66.2306 71.4092 68.5741 70.1104C71.3567 68.4261 74.0433 66.588 76.6212 64.6045C77.3459 64.0868 78.0612 63.5598 78.7294 63.0421L79.2094 62.6657L79.4259 62.5151C79.5576 62.4021 79.7176 62.2892 79.7459 62.1104C79.771 62.024 79.7898 61.9359 79.8023 61.8468L79.8682 61.2727C79.8682 60.8774 79.9435 60.4445 79.9623 60.0115C80.0282 59.1645 80.0659 58.2798 80.1035 57.4045C80.1882 55.2115 80.2635 53.0092 80.2823 50.8163C80.3764 47.4657 80.5741 44.0868 80.4894 40.7551C80.4141 38.1574 80.047 35.6163 79.8682 33.0563C79.8212 32.4915 79.7364 31.9363 79.727 31.3621C79.629 30.5936 79.7531 29.813 80.0847 29.1127C80.3677 28.6226 80.83 28.2616 81.3741 28.1057C81.6445 27.9902 81.921 27.8897 82.2023 27.8045C83.1435 27.6068 83.9247 28.4633 84.4047 29.988C84.932 32.3024 85.3373 34.6429 85.6188 36.9998C85.8823 39.381 86.0047 41.8092 86.1082 44.2374C86.1741 46.0445 86.2117 47.861 86.2212 49.6774C86.2306 51.4939 86.0141 53.3292 85.9106 55.1551L85.7694 55.1739Z" fill="black"/>
<path d="M60.076 16.4256C61.4501 17.1691 62.8995 17.9127 64.2925 18.6186C64.8195 18.8727 65.3937 19.0044 65.9207 19.268C67.8031 20.2091 69.6007 21.235 71.436 22.2703C72.2481 22.7258 73.0874 23.1313 73.9489 23.4844C74.4948 23.7291 75.0595 23.9456 75.6054 24.2186C76.1529 24.5 76.6416 24.8833 77.0454 25.348C77.2995 25.6586 76.7631 26.4303 76.0195 27.0891C75.276 27.748 74.3442 28.3221 73.7795 28.0868C71.6134 27.3494 69.5607 26.3135 67.6807 25.0091C66.4221 24.2874 65.0908 23.7006 63.7089 23.2586C62.2407 22.6186 60.7725 21.9315 59.2948 21.235L56.5842 19.9456C55.2007 19.2962 53.8548 18.5244 52.4525 17.9033C51.3795 17.4044 50.1654 17.1597 49.0266 16.6703C48.7635 16.5905 48.5083 16.4865 48.2642 16.3597C47.3889 15.8327 47.3231 15.3715 47.9254 14.2139C48.0666 13.9503 48.1984 13.6774 48.3489 13.4327C48.7399 12.6761 49.5306 12.2112 50.3819 12.2374C51.3648 12.395 52.3275 12.6601 53.2525 13.028C53.7148 13.2005 54.1673 13.3985 54.6078 13.6209C55.0689 13.828 55.5489 14.0444 55.9725 14.2703C57.3372 14.9291 58.6925 15.6727 60.1231 16.3315L60.076 16.4256Z" fill="black"/>
<path d="M21.6858 32.341C26.8623 35.221 32.1517 37.9881 37.46 40.6987C39.3988 41.6869 41.4035 42.581 43.3423 43.5222L50.1094 46.9293C50.2957 47.0369 50.5253 47.0369 50.7117 46.9293L50.8623 46.8728C50.9846 46.8303 51.1041 46.78 51.22 46.7222L52.0011 46.3457C53.0647 45.8187 54.1376 45.2257 55.2011 44.6046C57.3376 43.3622 59.4741 42.0822 61.5917 40.7551C64.4152 38.9481 67.2388 36.9904 69.9494 34.9575C73.4035 32.3693 76.8199 29.5834 80.3023 27.2775C80.8388 26.9104 81.1305 27.014 81.4411 27.2775C81.8255 27.7445 81.9621 28.3678 81.8082 28.9528C81.4137 31.071 80.259 32.9721 78.5611 34.2987C75.0411 37.1222 71.4458 39.7481 67.7376 42.2798C64.0239 44.8745 60.1442 47.223 56.1235 49.3104C55.1823 49.7622 54.3164 50.2516 53.3 50.6751L52.4435 51.061C52.0617 51.227 51.6685 51.3653 51.267 51.4751C50.8768 51.5934 50.4699 51.6474 50.0623 51.6351C49.8586 51.6327 49.6574 51.5912 49.4694 51.5128L48.8858 51.3246L43.7376 48.9528C42.147 48.2187 40.547 47.4657 38.9752 46.694C33.5666 44.0148 28.1925 41.2508 22.8529 38.4022C21.2058 37.5175 19.5682 36.6328 17.94 35.7293L16.7164 35.0422L15.86 34.5716L14.9847 34.054L13.3094 33.1222C13.0663 32.9936 12.8568 32.8099 12.6976 32.5857L12.1894 32.0398L11.8035 31.6257C11.6811 31.4751 11.5211 31.3904 11.5117 31.1646C11.5352 30.7714 11.6762 30.3943 11.9164 30.0822C12.4223 29.3648 13.0614 28.7514 13.7988 28.2751C14.6423 27.7021 15.5157 27.1743 16.4152 26.694L18.3729 25.5928L25.9023 21.7622C29.7611 19.7763 33.4317 17.6493 37.1964 15.5504C38.0058 15.0893 38.787 14.6093 39.6058 14.1481C42.6741 12.4916 43.6811 12.1622 44.8576 12.6046C45.1317 12.6801 45.3992 12.7776 45.6576 12.8963C46.3917 13.3104 45.5164 14.7787 43.3705 16.3316C36.9329 20.8869 29.7329 24.6516 22.7211 28.5104L20.8388 29.5928L19.0505 30.5998C19.0505 30.5998 19.0505 30.5998 18.947 30.5998C18.8435 30.5998 18.947 30.6469 18.947 30.6846C18.947 30.7222 18.947 30.6846 18.947 30.6846H19.0129L19.2576 30.8163L19.747 31.0893L21.7141 32.1528L21.6858 32.341Z" fill="black"/>
</svg>
