<svg width="96" height="96" viewBox="0 0 96 96" fill="none" xmlns="http://www.w3.org/2000/svg">
<path d="M61.2482 64.084C62.3012 62.4422 62.8508 60.5283 62.8294 58.5781C62.8305 57.9414 62.7418 57.3077 62.5659 56.6957C62.2726 55.5196 61.6641 54.4458 60.8059 53.5898C59.8066 52.5623 58.6695 51.6785 57.427 50.964C56.2368 50.3272 54.9723 49.8403 53.6623 49.5145C52.8247 49.2887 51.9588 49.1663 51.1117 48.9122C50.2647 48.6581 49.4364 48.2628 48.58 47.9051C48.0529 47.6604 48.147 47.3687 48.6835 46.964C49.032 46.7056 49.3967 46.4699 49.7753 46.2581C50.2585 45.9768 50.7873 45.7825 51.3376 45.684C51.5917 45.684 51.8459 45.5993 52.0906 45.5898C52.3363 45.5978 52.5814 45.6198 52.8247 45.6557L54.2835 45.8345C55.2716 45.9947 56.2491 46.2147 57.2106 46.4934C59.2426 47.0232 61.1387 47.9793 62.7729 49.2981C63.7897 50.1809 64.7339 51.144 65.5964 52.1781C66.5464 53.3043 67.2315 54.6294 67.6012 56.0557C67.6899 56.4437 67.7559 56.8365 67.7988 57.2322L67.8741 58.2863C67.8741 58.644 67.9306 58.9922 67.94 59.3404L67.8835 60.4134C67.8835 60.771 67.8835 61.1287 67.8176 61.4863L67.6294 62.5593C67.5541 62.9169 67.5164 63.2745 67.4129 63.6228L67.0741 64.6675L66.867 65.3075L66.5847 65.9193C66.387 66.324 66.1988 66.7381 65.9823 67.1334C65.5253 67.9077 65.0026 68.6414 64.42 69.3263C62.6083 71.2657 60.3683 72.7548 57.8788 73.6745C56.9376 74.0228 56.0435 74.4557 55.0553 74.7475C54.1079 75.0324 53.1382 75.237 52.1564 75.3593C51.7235 75.3593 51.3 75.4722 50.867 75.4628C50.2628 75.5141 49.6605 75.3434 49.1729 74.9828C48.8433 74.5954 48.6311 74.1219 48.5612 73.6181C48.5612 73.3734 48.4482 73.1287 48.4294 72.9122C48.4576 72.5188 48.6363 72.1514 48.9282 71.8863C49.2116 71.4529 49.6276 71.1227 50.1141 70.9451C51.4702 70.4306 52.7935 69.8334 54.0764 69.1569C55.2663 68.7476 56.4086 68.2111 57.4835 67.5569C58.2121 67.1029 58.8904 66.5729 59.507 65.9757C59.7423 65.6369 60.1282 65.411 60.3729 65.0345C60.6552 64.7156 60.9044 64.3687 61.1164 63.9993L61.2482 64.084Z" fill="black"/>
<path d="M62.8297 51.641C60.0909 49.9751 56.2415 49.2692 52.392 49.128H50.9238H49.8038L48.3732 49.1939C46.394 49.2857 44.4228 49.5057 42.472 49.8527C41.4179 50.0315 40.185 50.3421 39.1309 50.5021L38.3591 50.6151H37.7003C37.4932 50.6151 37.2297 50.6151 37.0791 50.6151L36.5897 50.5586H36.345H36.1567L35.7991 50.4551C35.5638 50.3892 35.3191 50.3421 35.112 50.2763C34.782 50.1746 34.4658 50.0323 34.1709 49.8527C33.8826 49.6581 33.5841 49.479 33.2767 49.3163C33.1221 49.2566 32.9712 49.1874 32.825 49.1092L32.6273 48.9774C32.5256 48.9121 32.4466 48.8167 32.4015 48.7045C32.3748 48.5995 32.3748 48.4895 32.4015 48.3845V48.168C32.4015 48.0174 32.4579 47.8857 32.505 47.7257L32.7026 47.1704C32.8147 46.9354 32.9436 46.709 33.0885 46.4927L33.9356 45.1374C34.0419 44.9802 34.1721 44.8405 34.3215 44.7233L34.8015 44.2715L35.272 43.8292L35.5167 43.6033L35.8273 43.3586L38.5191 41.4763L39.8462 40.5351L41.2297 39.641C42.1709 39.0386 43.0273 38.4551 43.9026 37.8621L46.2838 36.2339C48.1567 34.9471 49.9455 33.5419 51.6391 32.0268C52.4313 31.3129 53.1705 30.5422 53.8509 29.721C54.4347 29.045 54.8936 28.2706 55.2062 27.4339C55.4122 26.9173 55.3298 26.3304 54.9897 25.8904C54.9238 25.7492 54.745 25.6268 54.632 25.4857C54.5191 25.3445 54.3026 25.2221 54.1332 25.081C53.7135 24.8079 53.28 24.5566 52.8344 24.328C50.8666 23.4218 48.7402 22.9102 46.5756 22.8221C44.3286 22.6973 42.0753 22.8938 39.8838 23.4057C37.0365 24.0687 34.2828 25.0835 31.6862 26.4268C30.3591 27.0668 29.0979 27.8386 27.8085 28.5821L25.9262 29.8057C25.2767 30.1821 24.7403 30.6998 24.0438 31.0763C22.3779 32.0174 22.3026 31.5939 23.0179 29.9374C23.5114 28.8358 24.1717 27.8167 24.9756 26.9163C25.4755 26.2941 26.0299 25.7177 26.632 25.1939C27.2884 24.5868 27.997 24.0388 28.7497 23.5563C31.5606 21.7099 34.614 20.2624 37.8226 19.2551C41.1622 18.1781 44.6723 17.7282 48.1756 17.928C50.0157 18.029 51.8319 18.3935 53.5685 19.0104C54.4786 19.3463 55.3599 19.7555 56.2038 20.2339C57.2209 20.7727 58.1353 21.4863 58.905 22.3421C59.8883 23.4455 60.4833 24.8405 60.5991 26.3139C60.6781 27.6069 60.439 28.8995 59.9026 30.0786C59.0834 31.8368 57.9512 33.4314 56.5615 34.7845C54.6056 36.7236 52.5377 38.5463 50.3685 40.2433L49.5779 40.8739L49.3238 41.0621L48.8062 41.4292C48.4673 41.6833 48.1003 41.928 47.8085 42.1633C47.0932 42.6339 46.5097 43.0574 45.6815 43.5563L45.4273 43.7163C45.4273 43.7163 45.3238 43.8104 45.4273 43.8292C45.5309 43.848 45.5026 43.8292 45.5309 43.8292C45.6813 43.8385 45.8322 43.8385 45.9826 43.8292L46.9238 43.7257C47.5732 43.6504 48.2885 43.5845 49.0697 43.5563C49.4524 43.5563 49.8571 43.5563 50.2838 43.5563H51.6203H53.2862C55.5513 43.6214 57.8049 43.9051 60.0156 44.4033C62.8918 45.0182 65.5914 46.2763 67.912 48.0833C70.2834 50.0173 71.9804 52.6534 72.7591 55.6127C73.0436 56.7292 73.1859 57.8771 73.1826 59.0292C73.1644 60.1961 72.9871 61.355 72.6556 62.4739C72.0118 64.6467 70.8785 66.6429 69.3426 68.3092C66.3966 71.3955 62.7524 73.7292 58.7167 75.1139C52.7488 77.2496 46.4577 78.3416 40.1191 78.3421C38.7404 78.3873 37.3603 78.3433 35.9873 78.2104C30.8297 77.5327 29.3803 76.5915 28.6556 74.8127C28.4642 74.4234 28.3098 74.0169 28.1944 73.5986C28.1003 72.9586 28.5991 72.488 29.5591 72.1868C30.1342 72.028 30.7239 71.9271 31.3191 71.8857C32.0945 71.8061 32.8738 71.7716 33.6532 71.7821C34.952 71.7821 36.2603 71.7821 37.5591 71.7163H41.4462C44.016 71.6452 46.58 71.4316 49.1262 71.0763C51.618 70.7295 54.0723 70.1529 56.4579 69.3539C58.7337 68.5869 60.8815 67.4829 62.8297 66.0786C64.1017 65.1482 65.1899 63.9897 66.0391 62.6621C66.7668 61.5063 67.1549 60.1691 67.1591 58.8033C67.146 58.1327 67.0383 57.4673 66.8391 56.8268C66.6242 56.1351 66.3271 55.4715 65.9544 54.8504C65.1932 53.5741 64.1173 52.5145 62.8297 51.7727V51.641Z" fill="black"/>
</svg>
