<svg width="96" height="96" viewBox="0 0 96 96" fill="none" xmlns="http://www.w3.org/2000/svg">
<path d="M12.2139 46.3355C12.3833 46.5896 18.6045 53.5543 18.6045 53.5543H21.9739L13.1362 44.1426L12.2139 46.3355Z" fill="black"/>
<path d="M15.2629 43.8604C15.9402 44.3579 16.5847 44.8986 17.1923 45.4792L17.4088 45.6862L17.5312 45.8086L17.7759 46.0627L18.2653 46.5521L20.2135 48.6227C21.0373 49.3799 21.8197 50.1811 22.557 51.0227C23.0006 51.5616 23.3767 52.1526 23.677 52.7827C23.7668 53.0213 23.8207 53.2719 23.837 53.5262L23.9312 54.1851C23.9312 54.251 23.9312 54.3168 23.9312 54.4015C23.9312 54.4862 23.837 54.5898 23.7806 54.6651C23.6931 54.803 23.5815 54.9242 23.4512 55.0227C23.2072 55.1798 22.9449 55.3063 22.67 55.3992C21.8953 55.6647 21.0792 55.7891 20.2606 55.7662L18.9617 55.6815C18.5382 55.6815 18.0959 55.578 17.7006 55.5874H17.1076H16.6276C16.4017 55.5874 16.1664 55.5874 15.95 55.6533C14.9031 55.7811 13.8886 56.1001 12.957 56.5945C12.6935 56.7451 12.2512 56.5098 12.0159 55.8604C11.8936 55.4681 11.8936 55.0479 12.0159 54.6557C12.1636 54.1695 12.4723 53.748 12.8912 53.4604C13.6012 52.9851 14.3923 52.6438 15.2253 52.4533C15.6112 52.3686 15.9876 52.3121 16.3641 52.2651H16.5053V52.2651V52.2651C16.8585 52.4919 17.2566 52.6396 17.6723 52.698C17.781 52.7203 17.8931 52.7203 18.0017 52.698C18.1053 52.698 18.1523 52.6321 18.1241 52.5945C18.1241 52.3498 17.6441 52.0486 17.4464 51.7568L17.2582 51.3898L16.317 50.4486L14.5947 48.7074C14.2319 48.2845 13.8066 47.9195 13.3335 47.6251C13.1923 47.5498 13.1829 47.7098 13.1547 47.7851L13.07 48.058C13.0201 48.2411 12.9572 48.4204 12.8817 48.5945C12.9288 48.8015 12.8817 48.8486 12.8817 48.9898L12.8159 49.3474C12.7817 49.4737 12.7596 49.6029 12.75 49.7333L12.6182 50.3733C12.3547 51.6533 12.1759 52.9427 11.837 54.2698C11.7675 54.5617 11.6763 54.848 11.5641 55.1262C11.4351 55.5136 11.212 55.8629 10.9147 56.1427C10.687 56.292 10.4112 56.3492 10.1429 56.3027C10.0228 56.29 9.90346 56.2711 9.78527 56.2462C9.44645 56.1333 9.3241 55.5592 9.47468 54.8815C9.73429 53.8427 9.88568 52.7798 9.92645 51.7098C9.92645 51.1262 9.92645 50.5521 9.92645 49.9686V49.5074C9.90805 49.3039 9.90805 49.0992 9.92645 48.8957V46.938V45.9404V44.9521V44.9521L10.0206 45.0557L10.3782 44.1145C10.4039 44.0339 10.4353 43.9552 10.4723 43.8792L10.6041 43.7662L10.9147 43.4933L11.1782 43.2768L11.4229 43.1639L11.6676 43.051C11.7652 42.9876 11.8737 42.943 11.9876 42.9192C12.5021 42.7782 13.0449 42.7782 13.5594 42.9192C13.8513 42.9935 14.1327 43.1041 14.397 43.2486C14.7008 43.3704 14.9964 43.5119 15.2817 43.6721L15.2629 43.8604Z" fill="black"/>
<path d="M75.9032 55.2673C76.0256 55.3991 76.195 55.6061 76.2514 55.6814L76.4585 55.9544L76.8632 56.5096L77.8891 57.9779C78.7373 59.1177 79.4778 60.3339 80.1009 61.6108C80.4842 62.3018 80.7213 63.0643 80.7973 63.8508C80.828 64.404 80.6866 64.953 80.3926 65.4226C80.2182 65.6042 79.991 65.726 79.7432 65.7708C79.5215 65.8257 79.294 65.8541 79.0656 65.8555C78.4359 65.9026 77.8027 65.8646 77.1832 65.7426C76.2673 65.5048 75.3731 65.19 74.5103 64.8014C73.7996 64.4847 73.0704 64.2113 72.3267 63.9826C71.8966 63.874 71.4595 63.7953 71.0185 63.7473C70.061 63.6088 69.0857 63.66 68.1479 63.8979C67.9032 63.9732 67.4609 63.7096 67.3385 63.0414C67.2879 62.6258 67.3773 62.2052 67.5926 61.8461C67.8502 61.4123 68.2489 61.08 68.722 60.9049C69.1304 60.7683 69.5489 60.6644 69.9738 60.5944C70.3637 60.5143 70.7628 60.4889 71.1597 60.5191C71.5311 60.5275 71.9018 60.5558 72.2703 60.6038L72.7973 60.6791H73.0609C73.1267 60.6791 73.0609 60.6791 73.1173 60.6791C73.3502 60.967 73.6342 61.2094 73.955 61.3944C74.3314 61.6296 74.6797 61.8367 74.8962 61.7614C74.8962 61.5261 74.7173 61.2814 74.6797 61.0932C74.5935 60.8459 74.4929 60.604 74.3785 60.3685C74.3092 60.2163 74.2306 60.0686 74.1432 59.9261L74.1526 59.8602L73.9738 59.6061L73.5973 59.1073L73.1362 58.5144L72.8914 58.1661C72.7262 57.9418 72.547 57.728 72.355 57.5261C72.241 57.3982 72.1149 57.2816 71.9785 57.1779C71.9165 57.1213 71.8425 57.0794 71.762 57.0555C71.6679 57.0555 71.6585 57.1496 71.6303 57.2061C71.4866 57.5051 71.3822 57.8215 71.3197 58.1473C71.2498 58.3562 71.1963 58.5701 71.1597 58.7873C71.1463 58.8762 71.1275 58.9642 71.1032 59.0508C71.1032 59.0508 71.1032 59.1261 71.1032 59.192L71.0373 59.4273C70.9526 59.7379 70.8585 60.0485 70.7456 60.3685C70.5347 61.0242 70.2538 61.6552 69.9079 62.2508C69.767 62.5148 69.5999 62.7639 69.4091 62.9944C69.1649 63.3193 68.8406 63.5755 68.4679 63.7379C68.2109 63.8017 67.9394 63.7681 67.7056 63.6438C67.5922 63.598 67.4822 63.5445 67.3762 63.4838C67.2214 63.3519 67.1495 63.147 67.1879 62.9473C67.2063 62.6524 67.3003 62.3672 67.4609 62.1191C67.9343 61.3807 68.2751 60.5653 68.4679 59.7096C68.4679 59.4932 68.4679 59.2579 68.4679 59.032C68.5014 58.6767 68.5612 58.3244 68.6467 57.9779C68.7126 57.4226 68.7314 56.8296 68.8067 56.2085L68.9103 55.2673L69.0138 54.2132C69.1407 53.9731 69.2955 53.7488 69.475 53.5449C69.5666 53.413 69.6706 53.2901 69.7856 53.1779L70.0962 52.9708C70.2672 52.8383 70.4671 52.748 70.6797 52.7073C70.7754 52.6767 70.8728 52.6515 70.9714 52.632C71.1032 52.632 71.3009 52.632 71.442 52.5755C71.7397 52.5592 72.0376 52.6041 72.3173 52.7073C72.6461 52.7868 72.9627 52.9103 73.2585 53.0744C73.5597 53.272 73.8609 53.4602 74.1997 53.6485C74.9143 54.0425 75.5519 54.5622 76.082 55.1826L75.9032 55.2673Z" fill="black"/>
<path d="M56.7319 33.0649C56.7319 33.0649 55.1507 38.3637 55.9884 40.7825C56.826 43.2014 51.8096 42.1755 51.8096 42.1755V29.8555L56.7319 33.0649Z" fill="black"/>
<path d="M54.868 33.9876L54.8021 34.0441C54.8021 34.1006 54.8021 33.9876 54.7268 34.3264L54.5386 35.8041C54.4257 36.7923 54.3315 37.79 54.2657 38.7876V39.1547C54.2842 39.2479 54.2842 39.3438 54.2657 39.437C54.1822 39.6952 54.144 39.9659 54.1527 40.237C54.3598 40.3876 54.6139 40.2935 54.9339 40.237C55.4851 40.0703 56.023 39.8626 56.5433 39.6159C57.6445 39.1453 58.7174 38.59 59.8374 38.0912C60.5604 37.7264 61.3253 37.4514 62.1151 37.2723C62.9675 37.0564 63.8603 37.0564 64.7127 37.2723C65.2868 37.47 65.0233 37.997 64.6186 38.5712C64.2556 39.2257 63.7661 39.8016 63.1786 40.2653C62.9057 40.4064 62.6233 40.5664 62.341 40.7359C62.2092 40.8206 62.0586 40.9053 61.9174 41.0088L61.4751 41.2347L59.5927 42.2417C58.9715 42.59 58.3221 42.9476 57.6539 43.2959L56.7974 43.757C56.4961 43.968 56.1817 44.1597 55.8562 44.3312C55.2583 44.6481 54.627 44.8974 53.9739 45.0747C53.4288 45.2246 52.863 45.2849 52.2986 45.2535H51.9315L51.6021 45.1688C51.3491 45.1117 51.1006 45.0362 50.8586 44.9429C50.6605 44.7196 50.481 44.4804 50.3221 44.2276C50.1306 43.9712 49.99 43.6805 49.908 43.3712C49.7393 42.6053 49.6728 41.8204 49.7104 41.037V39.0982V38.6464L49.8045 37.0653C49.8798 36.0112 49.9739 34.957 50.0962 33.9029C50.141 32.9491 50.2861 32.0027 50.5292 31.0794C50.6968 30.3114 51.0168 29.5849 51.4704 28.9429C51.5501 28.827 51.6487 28.7252 51.7621 28.6417C51.9033 28.5288 52.0068 28.5853 52.1104 28.5947C52.2139 28.6041 52.5245 28.6512 52.7786 28.7264C53.0417 28.7759 53.2999 28.8484 53.5504 28.9429C53.8421 29.0841 54.1339 29.1782 54.4351 29.357L55.3762 30.11L56.2515 30.7876L56.6657 31.1264L57.0421 31.3994L57.6162 31.8135C58.7802 32.6475 60.0452 33.3306 61.381 33.8464L62.228 34.1382C62.6112 34.2488 62.9714 34.4273 63.2915 34.6653C63.4855 34.8683 63.6163 35.1234 63.668 35.3994C63.668 35.5406 63.7433 35.6817 63.7621 35.8135C63.781 35.9453 63.6586 36.19 63.3857 36.3312C63.021 36.51 62.6083 36.5661 62.2092 36.4912C60.7722 36.2368 59.3719 35.8069 58.0398 35.2112C57.3527 34.9664 56.6751 34.7029 56.0162 34.4206L55.5174 34.2135C55.3951 34.157 55.1033 34.0441 55.188 34.0441V34.0441C55.188 34.0441 55.0845 33.8464 55.0092 33.9688L54.868 33.9876Z" fill="black"/>
<path d="M72.684 17.2811C72.5711 17.3564 74.237 24.9235 72.0629 26.6929C71.564 27.0976 74.3782 29.5164 74.9617 27.7753C75.5452 26.0341 75.0558 16.0576 75.0558 16.0576L72.684 17.2811Z" fill="black"/>
<path d="M77.8796 20.171V20.7733C77.8906 20.9394 77.8906 21.1061 77.8796 21.2722V21.931L77.7384 23.258L77.6819 23.9075L77.6255 25.0369C77.6255 25.7898 77.5219 26.5145 77.4466 27.2204C77.3525 28.2369 77.296 29.3569 76.7784 29.8086C76.5149 30.1475 76.3172 30.4298 76.0443 30.7498C75.7886 30.8469 75.5177 30.8978 75.2443 30.9004C75.0106 30.9184 74.7755 30.8994 74.5478 30.8439C73.9701 30.7233 73.4166 30.507 72.9102 30.2039C72.2329 29.8037 71.6017 29.3303 71.0278 28.7922C70.736 28.538 70.4349 28.3028 70.1619 28.0392C70.0309 27.9121 69.8927 27.7927 69.7478 27.6816L69.4749 27.4651C68.7724 26.9293 67.9828 26.5186 67.1407 26.251C66.0866 25.9216 65.089 25.7145 63.9784 25.4039C63.6302 25.3004 63.5737 24.7451 63.8655 24.0957C64.2009 23.3117 64.9084 22.7492 65.7478 22.5992C66.1365 22.5757 66.5262 22.5757 66.9149 22.5992C67.3 22.5996 67.6833 22.6534 68.0537 22.7592C68.7807 22.934 69.4897 23.1766 70.1713 23.4839C70.5007 23.6345 70.8207 23.8039 71.1125 23.9733L71.5737 24.2463C71.6866 24.3122 71.5737 24.3122 71.6396 24.3216C71.6959 24.5243 71.7815 24.7177 71.8937 24.8957C71.9979 25.0765 72.1315 25.2387 72.289 25.3757C72.4302 25.4886 72.5807 25.6298 72.7219 25.5545C72.8631 25.4792 72.7219 25.1592 72.816 24.9992C72.9102 24.8392 72.9478 24.5004 73.0137 24.1804C73.0816 23.8416 73.1288 23.499 73.1549 23.1545L73.2207 21.9028V21.2722V20.8863C73.2352 20.6041 73.2352 20.3214 73.2207 20.0392C73.2213 19.8086 73.1992 19.5785 73.1549 19.3522C73.1489 19.2964 73.1259 19.2438 73.089 19.2016C73.089 19.1545 72.9949 19.2016 72.9572 19.2016C72.8658 19.2379 72.7776 19.282 72.6937 19.3333C72.3096 19.5454 71.9471 19.7944 71.6113 20.0769C71.4731 20.1887 71.3411 20.3081 71.216 20.4345C71.1596 20.5004 71.0937 20.5286 71.0372 20.6228L70.6607 20.9051C70.1502 21.3085 69.6193 21.6855 69.0702 22.0345C68.8159 22.1924 68.5519 22.3339 68.2796 22.458C67.9159 22.6415 67.5093 22.7229 67.1031 22.6933C66.8309 22.6055 66.6 22.4214 66.4537 22.1757C66.3779 22.067 66.3087 21.9539 66.2466 21.8369C66.1732 21.6282 66.2048 21.3971 66.3313 21.2157C66.4773 20.9623 66.6803 20.7464 66.9243 20.5851C67.3282 20.3249 67.7149 20.0388 68.0819 19.7286C68.5123 19.4259 68.9098 19.0789 69.2678 18.6933C69.3619 18.5804 69.409 18.5051 69.5596 18.3451C69.7102 18.1851 69.9455 17.931 70.1713 17.7051L70.8207 16.9992L71.5549 16.058C72.496 14.9569 73.776 14.3357 74.3784 14.4769C74.6146 14.4733 74.8499 14.5083 75.0749 14.5804C75.2599 14.623 75.4354 14.6996 75.5925 14.8063C75.8248 14.9233 76.0376 15.0757 76.2231 15.258C76.4274 15.4616 76.6103 15.6855 76.769 15.9263C77.0601 16.5381 77.3146 17.1667 77.5313 17.8086C77.6537 18.138 77.7572 18.5239 77.8702 18.891C77.9831 19.258 77.936 19.7098 77.9643 20.1239L77.8796 20.171Z" fill="black"/>
<path d="M81.5782 75.5403L81.1829 76.4815C81.1282 76.5234 81.0777 76.5707 81.0323 76.6227C80.8947 76.7762 80.7776 76.9471 80.6841 77.1309C80.5994 77.2909 80.6841 77.3285 80.5806 77.5168C80.5302 77.6097 80.4892 77.7075 80.4582 77.8085C80.4556 77.8634 80.4849 77.9148 80.5335 77.9403C80.6074 77.9608 80.6855 77.9608 80.7594 77.9403C80.9476 77.9403 81.2488 77.818 81.6441 77.7144L82.5006 77.4415C82.9365 77.3074 83.3796 77.1974 83.8276 77.1121C85.0143 76.8168 86.2695 77.0029 87.3194 77.6297C87.6394 77.8462 87.4041 78.298 86.9994 78.7591C86.6338 79.2382 86.1722 79.6357 85.6441 79.9262C84.8723 80.1803 84.1947 80.378 83.4229 80.6885L83.2818 80.7544H83.2065L83.0276 80.8391L82.3312 81.2815L80.8723 82.2227C80.1786 82.7776 79.3023 83.0529 78.4159 82.9944L77.5876 82.8438C77.3533 82.8215 77.1206 82.7838 76.8912 82.7309C76.7491 82.6927 76.6105 82.6423 76.4771 82.5803C76.4018 82.5332 76.27 82.4862 76.2323 82.4109C76.1861 82.3462 76.154 82.2724 76.1382 82.1944C76.0535 81.8932 75.9782 81.5921 75.9123 81.2532C75.8062 80.8445 75.787 80.4181 75.8559 80.0015C75.9498 79.4496 76.0723 78.903 76.2229 78.3638C76.5335 77.2721 76.8912 76.105 77.23 75.1638C77.4088 74.7027 77.5123 74.4203 77.8041 73.7144C77.9405 73.429 78.0945 73.1524 78.2653 72.8862C78.3743 72.6084 78.5132 72.3434 78.6794 72.0956C78.9008 71.7593 79.1529 71.4443 79.4323 71.1544C79.5002 71.0846 79.5799 71.0272 79.6676 70.985C79.743 70.9172 79.8393 70.8773 79.9406 70.8721C80.0822 70.9077 80.2207 70.955 80.3547 71.0132C81.1832 71.271 81.9125 71.7769 82.4441 72.4627C82.7171 72.7921 82.99 73.0838 83.2535 73.4038L83.4512 73.6203C83.5011 73.6943 83.5613 73.7609 83.63 73.818L83.9029 74.0627C84.2696 74.3522 84.66 74.6103 85.07 74.8344L85.6065 75.098C85.8623 75.2055 86.086 75.3773 86.2559 75.5968C86.363 75.8055 86.4024 76.0423 86.3688 76.2744C86.3688 76.4062 86.3688 76.5285 86.3688 76.6415C86.3326 76.8368 86.1914 76.9962 86.0018 77.0556C85.7346 77.1712 85.4365 77.1944 85.1547 77.1215C84.1319 76.8351 83.1601 76.3906 82.2747 75.8038L81.9359 75.6062V75.6062C81.9359 75.6062 81.87 75.4932 81.7947 75.5497L81.5782 75.5403Z" fill="black"/>
<path d="M42.9143 53.4506C42.9143 53.4506 42.8202 57.6765 42.9143 59.3612C43.0084 61.0459 39.752 61.2436 39.752 61.2436L39.8084 50.8906L42.9143 53.4506Z" fill="black"/>
<path d="M42.0201 53.9863C41.9448 53.9863 41.8695 54.0616 41.7942 54.2122C41.6907 55.0404 41.606 55.9346 41.5401 56.8004V57.1016C41.5341 57.1516 41.5341 57.2022 41.5401 57.2522C41.5538 57.3332 41.5538 57.4159 41.5401 57.4969C41.4559 57.8046 41.4023 58.1199 41.3801 58.4381C41.446 58.5793 41.5683 58.5228 41.653 58.5134L41.9542 58.4004L42.7636 58.0052C43.7039 57.4628 44.6749 56.9757 45.6719 56.5463C47.0086 55.9269 48.5188 55.7905 49.9448 56.1604C50.3872 56.3016 50.246 56.7722 49.8789 57.271C49.5137 57.8335 49.0202 58.3013 48.4389 58.6357C47.4312 59.0827 46.4507 59.5887 45.5025 60.151L44.7589 60.6216C44.5386 60.7576 44.3279 60.9085 44.1283 61.0734C43.8819 61.2935 43.6243 61.5008 43.3566 61.6946C43.093 61.8828 42.8295 62.0899 42.566 62.2969C42.3173 62.4781 42.0563 62.6416 41.7848 62.7863C41.3773 62.9963 40.9256 63.106 40.4672 63.1063C40.1919 63.1358 39.9142 63.1358 39.6389 63.1063C39.3262 63.0619 39.0236 62.9632 38.7448 62.8146L38.3213 62.0616C38.1445 61.7932 38.0051 61.5019 37.9072 61.1957C37.8205 60.7987 37.7607 60.3962 37.7283 59.991C37.6773 59.5569 37.6553 59.1199 37.6625 58.6828V57.0357V56.6875L37.7566 55.304L37.8789 53.8169C37.9448 53.111 38.0013 52.4052 38.1048 51.7463C38.1956 51.0288 38.4156 50.3336 38.7542 49.6946C38.9109 49.4386 39.1043 49.2071 39.3283 49.0075C39.4978 48.8852 39.6201 49.0075 39.7425 49.0075L40.1189 49.0734L40.7495 49.2428L41.4742 49.6193C41.5389 49.6502 41.6017 49.6847 41.6625 49.7228L41.8507 49.9016L42.2366 50.2499C42.4907 50.4852 42.7354 50.711 42.9613 50.9369L44.2507 52.1699C44.5519 52.4616 44.8625 52.7534 45.1919 53.0263C46.1149 53.8564 47.1358 54.5707 48.2319 55.1534L48.9283 55.4922C49.7848 55.8781 49.9542 56.104 50.0672 56.6404C50.0672 56.7628 50.133 56.8852 50.1519 56.9981C50.1707 57.111 50.0672 57.3181 49.8225 57.4216C49.669 57.4847 49.5074 57.5259 49.3425 57.544C49.143 57.5609 48.9422 57.5418 48.7495 57.4875C47.5116 57.1308 46.3275 56.6084 45.2295 55.9346C44.6585 55.6397 44.1032 55.3259 43.5636 54.9934L42.7636 54.5228C42.5095 54.3722 42.133 54.1557 42.2742 54.184C42.2742 54.2499 42.2742 54.184 42.2742 54.184C42.2599 54.153 42.2409 54.1244 42.2178 54.0993H42.1613L42.0201 53.9863Z" fill="black"/>
<path d="M40.5709 44.4917C36.0721 42.5152 31.4133 34.5058 31.3286 34.5717C28.0721 37.3952 26.0862 48.8493 26.265 48.7929C27.3286 48.3788 30.3215 47.2682 33.2109 46.4023C36.9945 45.2729 41.0321 44.6988 40.5709 44.4917Z" fill="black"/>
<path d="M84.157 40.339C80.7406 38.8425 77.2206 32.8096 77.1547 32.8096C74.6794 34.9366 73.1829 43.6237 73.3147 43.5766C75.087 42.7608 76.8995 42.0351 78.7453 41.4025C81.6064 40.5649 84.5053 40.499 84.157 40.339Z" fill="black"/>
<path d="M39.4695 21.4508C43.2342 19.4272 46.6601 12.1802 46.7448 12.2367C49.7565 14.4296 52.2695 24.1802 52.1189 24.1425C51.1777 23.8602 48.5142 23.1167 45.9542 22.5708C42.613 21.8649 39.0836 21.6578 39.4695 21.4508Z" fill="black"/>
<path d="M65.992 75.2286C62.9332 73.5816 60.1191 67.6992 60.0532 67.6992C57.5967 69.4875 55.545 77.4404 55.6673 77.4122C56.4485 77.1863 58.6132 76.5745 60.7026 76.1322C63.4226 75.5675 66.3026 75.398 65.992 75.2286Z" fill="black"/>
<path d="M25.8978 71.2387C29.3143 69.3564 32.4861 62.7681 32.4861 62.8434C35.2343 64.8481 37.5308 73.7328 37.3896 73.6952C36.5237 73.4411 34.1049 72.754 31.7425 72.2646C28.7967 71.6246 25.5496 71.4269 25.8978 71.2387Z" fill="black"/>
</svg>
