<svg width="96" height="96" viewBox="0 0 96 96" fill="none" xmlns="http://www.w3.org/2000/svg">
<path d="M43.2107 81.6895C45.3754 67.3271 44.8766 52.4659 45.6389 37.9812C45.846 34.0471 39.7283 34.0565 39.5213 37.9812C38.7871 51.9012 39.3895 66.2636 37.3189 80.0612C36.7354 83.9201 42.6271 85.5765 43.2107 81.6895V81.6895Z" fill="black"/>
<path d="M56.396 80.8784C56.5277 67.5608 56.396 54.3466 58.476 41.1513C59.0689 37.2925 53.1771 35.636 52.5748 39.5231C50.4383 53.2831 50.4101 66.9866 50.2783 80.8784C50.2783 84.8125 56.3583 84.8125 56.396 80.8784Z" fill="black"/>
<path d="M27.69 45.9241C30.6274 40.1122 34.1365 34.6074 38.1653 29.4912C41.2618 25.6041 47.9347 17.0018 53.7888 17.8676C54.1653 17.9241 54.25 17.9806 55.0218 18.6582C55.9507 19.5307 56.7808 20.5029 57.4971 21.5571C59.2575 24.0536 60.8305 26.6773 62.2029 29.4065C65.073 34.5661 67.2863 40.0644 68.7912 45.7735C69.7324 49.9053 76.1041 48.1547 75.1441 44.0229C73.4782 36.9076 70.1088 29.9053 66.5418 23.5806C64.0382 19.1476 60.2359 11.8629 54.4665 11.3453C47.21 10.6488 40.3488 17.0488 35.9629 21.9712C30.4689 28.2315 25.7915 35.1637 22.0429 42.6018C20.1041 46.3665 25.8077 49.6982 27.69 45.9241V45.9241Z" fill="black"/>
</svg>
