<svg width="96" height="96" viewBox="0 0 96 96" fill="none" xmlns="http://www.w3.org/2000/svg">
<path d="M60.8855 58.4892C59.7007 58.1998 58.6648 57.4824 57.9772 56.4751C57.836 56.2869 57.6102 56.0234 57.5255 55.901L57.2149 55.4869C56.9984 55.2045 56.829 54.9881 56.6219 54.7434C56.4149 54.4986 55.9349 54.141 55.6243 53.8022L55.4737 53.661L55.3608 53.5386C55.3154 53.4839 55.265 53.4334 55.2102 53.3881C55.0888 53.2631 54.9304 53.1805 54.7584 53.1528C54.3631 53.1528 54.2784 53.5763 54.2031 53.9716C54.2031 54.0186 54.2031 54.2822 54.2031 54.4422C54.2031 54.6022 54.2031 54.8186 54.2031 55.0069C54.2046 55.3759 54.236 55.7442 54.2972 56.1081C54.4326 56.9591 54.6894 57.7863 55.0596 58.5645C55.1913 58.7998 55.0596 59.0445 54.5984 59.1481C53.9045 59.272 53.1953 59.0344 52.716 58.5175C52.4838 58.2566 52.2699 57.9798 52.076 57.6892C51.9226 57.3916 51.8086 57.0752 51.7372 56.7481C51.5943 56.1678 51.5061 55.5754 51.4737 54.9786L51.4172 54.0845C51.4039 53.6038 51.4228 53.1227 51.4737 52.6445C51.6128 51.7937 52.0875 51.0342 52.7913 50.5363C53.659 50.0448 54.7107 50.0027 55.6149 50.4234C56.0921 50.6216 56.5465 50.8709 56.9702 51.1669C57.3039 51.3778 57.6188 51.6171 57.9113 51.8822C58.4791 52.4046 59.0046 52.9711 59.4831 53.5763C60.0478 54.2539 60.0572 54.3575 60.3113 54.6398C60.4386 54.8202 60.6251 54.9501 60.8384 55.0069C61.0592 55.0127 61.2625 54.887 61.356 54.6869C61.4511 54.5489 61.53 54.4004 61.5913 54.2445C61.6341 54.159 61.6718 54.071 61.7043 53.981L61.8549 53.5951L62.589 51.7128C62.9403 50.6229 63.404 49.5726 63.9725 48.5786C64.1121 48.3442 64.2695 48.1208 64.4431 47.9104C64.6671 47.6021 65.0069 47.3982 65.3843 47.3457C65.7266 47.419 66.0347 47.6045 66.2596 47.8728C66.3824 47.9822 66.4957 48.1019 66.5984 48.2304C66.7453 48.4517 66.8299 48.7086 66.8431 48.9739C66.9323 49.2492 66.9323 49.5457 66.8431 49.821C66.1843 51.2101 65.5999 52.6333 65.0925 54.0845L64.6502 55.1669C64.549 55.4898 64.4232 55.8045 64.2737 56.1081C64.1563 56.4146 64.0014 56.7054 63.8125 56.9739C63.6486 57.2357 63.4525 57.476 63.229 57.6892L62.909 57.9904L62.5419 58.2163C62.0303 58.5048 61.4413 58.6265 60.8572 58.5645L60.8855 58.4892Z" fill="black"/>
<path d="M48.3295 69.8603C45.0796 65.9892 42.1373 61.87 39.5295 57.5403C36.7734 53.0459 34.949 48.0432 34.1648 42.8297C33.572 38.884 33.9302 34.8538 35.2095 31.0744C36.4763 27.7025 38.6406 24.7409 41.4683 22.5097C44.2799 20.3484 47.616 18.9743 51.1342 18.5285C54.5436 18.0809 58.0089 18.3501 61.3083 19.3191C64.6272 20.3068 67.6396 22.124 70.0612 24.5991C72.1201 26.7813 73.7911 29.2991 75.0024 32.0438C76.1716 34.6939 77.0673 37.4565 77.6754 40.2885C78.0656 42.1091 78.3235 43.9555 78.4471 45.8132C78.5958 47.6256 78.646 49.4448 78.5977 51.2626C78.549 54.8667 78.2913 58.4649 77.8259 62.0391C77.5248 64.2509 76.8848 63.9215 76.1883 61.9826C75.2551 58.9273 74.7236 55.7634 74.6071 52.5709C74.5412 50.7826 74.4001 49.0038 74.2871 47.2626C74.186 45.5618 73.988 43.868 73.6942 42.1897C73.0646 38.8826 71.9913 35.6756 70.5036 32.6556C69.7616 31.2329 68.872 29.8922 67.8495 28.6556C66.8367 27.4797 65.6683 26.4474 64.3765 25.5873C63.0408 24.7579 61.6091 24.0942 60.113 23.6109C58.5254 23.1358 56.8906 22.836 55.2377 22.7168C51.2859 22.3564 47.3467 23.529 44.2353 25.9921C41.1747 28.5745 39.2044 32.2193 38.7201 36.1944C38.434 38.4342 38.4689 40.7033 38.8236 42.9332C39.2091 45.2097 39.8402 47.4376 40.7059 49.5779C42.6366 53.9448 45.1026 58.0547 48.0471 61.8132C49.5906 63.865 51.2001 65.8791 52.8565 67.8838L57.5059 73.465C57.6565 73.6344 57.7789 73.8226 57.9389 73.9732C58.0989 74.1238 58.3718 73.9168 58.5695 73.8415C58.7671 73.7662 59.0871 73.5497 59.3412 73.3897L60.7342 72.4485C61.6753 71.8085 62.673 71.1591 63.6801 70.5662C64.1789 70.2556 64.6965 69.945 65.2142 69.625L66.0424 69.1732C66.3624 69.0038 66.6353 68.8532 67.0401 68.665C68.4422 67.967 69.9292 67.4545 71.4636 67.1403C72.7563 66.8866 74.0861 66.8866 75.3789 67.1403C76.6025 67.3604 77.7365 67.929 78.6448 68.7779C79.1053 69.2195 79.3107 69.8643 79.1906 70.4909C79.0541 70.9895 78.8099 71.4521 78.4753 71.8462C77.7284 72.7835 76.8467 73.605 75.8589 74.2838C74.9177 74.9426 73.8165 75.6015 72.7248 76.2603L71.1342 77.2015L70.5318 77.5968L70.0142 77.9544C69.3449 78.4122 68.7152 78.9253 68.1318 79.4885C67.6452 79.9259 67.2571 80.4617 66.993 81.0603L66.9365 81.2297V81.2297L65.5812 80.7873V80.7873V80.7873C65.5604 80.7772 65.5361 80.7772 65.5153 80.7873C65.4306 80.7873 65.5153 80.7873 65.5153 80.7873C65.5153 80.7873 65.5153 80.7873 65.5153 80.7215L65.5906 80.5709C65.6283 80.4717 65.6475 80.3664 65.6471 80.2603C65.7009 79.9495 65.7261 79.6345 65.7224 79.3191V79.3191H65.9201C66.2495 79.2626 66.6542 79.1591 67.0495 79.0556L69.5436 78.3591C71.9059 77.7191 75.0871 76.8344 77.1295 77.0038C77.6914 77.0337 78.2476 77.1317 78.7859 77.2956C79.2923 77.4749 79.7544 77.7605 80.1412 78.1332C80.2889 78.3726 80.3999 78.6328 80.4706 78.905C80.5073 79.1231 80.5073 79.3457 80.4706 79.5638C80.3896 80.149 80.2081 80.7157 79.9342 81.2391C79.6053 81.8654 79.1938 82.4447 78.7106 82.9615C77.6803 83.9661 76.5726 84.8882 75.3977 85.7191L74.7671 86.1897C74.6165 86.3111 74.4594 86.4242 74.2965 86.5285C74.0801 86.6509 73.8824 86.7544 73.6942 86.8391C73.3437 86.9924 72.9818 87.1182 72.6118 87.2156C72.2733 87.3427 71.9559 87.5204 71.6706 87.7426C71.4448 87.8932 71.2283 87.8838 71.0589 87.545C70.8707 87.0186 70.8707 86.4432 71.0589 85.9168C71.1717 85.5563 71.3166 85.2067 71.4918 84.8721C71.5813 84.6843 71.6819 84.502 71.793 84.3262L71.8777 84.185C71.8777 84.185 71.8777 84.185 71.8777 84.1191V84.0062C71.9801 83.7473 72.1061 83.4984 72.2542 83.2626C72.3464 83.1263 72.4252 82.9813 72.4895 82.8297C72.4993 82.7705 72.4993 82.7101 72.4895 82.6509C72.4977 82.6079 72.4869 82.5635 72.4598 82.5292C72.4327 82.4948 72.392 82.474 72.3483 82.472C71.9882 82.4658 71.6322 82.55 71.313 82.7168L70.9742 82.8673L70.8424 82.9426H70.7859L70.6448 82.9991L68.6118 83.545C67.8044 83.7654 66.984 83.9352 66.1553 84.0532H65.6471H65.233C65.0135 84.0419 64.7958 84.0072 64.5836 83.9497C64.4036 83.9075 64.2274 83.8508 64.0565 83.7803L63.7836 83.6579C63.5575 83.5309 63.346 83.3794 63.153 83.2062C62.3479 82.5039 61.9574 81.4389 62.1177 80.3826C62.1177 80.2603 62.1177 80.1285 62.1742 80.0156C62.2306 79.9026 62.2589 79.7332 62.2495 79.7709V79.7144V79.6015L62.3436 79.3662C62.4468 79.0744 62.5793 78.7937 62.7389 78.5285C62.8675 78.274 63.0187 78.0314 63.1906 77.8038C63.7472 77.015 64.4019 76.3003 65.1389 75.6768C65.7977 75.1121 66.4471 74.6132 67.0965 74.1521L68.0377 73.5497L68.3106 73.3615V73.3615V73.3615V73.3615V73.3615L68.0659 73.4932L67.6706 73.7097C67.3318 73.8979 66.993 74.105 66.6542 74.3026C65.2989 75.1309 63.953 76.0532 62.4942 77.0226L61.9389 77.3897L61.4777 77.6909L60.9412 78.0203C60.2567 78.4562 59.5199 78.804 58.7483 79.0556C58.0307 79.2531 57.273 79.2531 56.5553 79.0556C56.3806 79.0143 56.2189 78.9302 56.0848 78.8109L55.633 78.5003L54.6918 77.8791L48.0095 69.9732L48.3295 69.8603Z" fill="black"/>
<path d="M56.9886 48.4002C57.8061 48.9305 58.5526 49.563 59.2097 50.2826L59.6144 50.7249V50.8096L59.718 50.9979L59.9815 51.4779C60.0286 51.5437 60.0944 51.7414 60.1697 51.6661C60.2151 51.6135 60.2502 51.5528 60.2733 51.4873C60.358 51.2708 60.3297 50.9414 60.4427 50.7155V50.7155C60.4427 50.7155 60.4427 50.7155 60.4427 50.612L60.5462 50.2355L60.7909 49.4073L60.9415 48.9461L61.1862 48.3626C61.3614 47.9568 61.5757 47.5691 61.8262 47.2049C62.2384 46.5388 62.8284 46.0009 63.5297 45.652C64.2248 45.3218 65.0117 45.2388 65.7603 45.4167C66.5186 45.5864 67.2253 45.9349 67.8215 46.4332C68.1205 46.6883 68.4064 46.9584 68.678 47.2426C68.9039 47.5343 69.0827 47.8449 69.2803 48.1837C69.8499 49.2374 70.196 50.3973 70.2968 51.5908C70.3627 52.0896 70.3627 52.532 70.4097 53.0402C70.4568 53.5485 70.4097 53.9814 70.4097 54.452C70.4201 55.36 70.3824 56.2679 70.2968 57.172C70.1839 58.3202 70.0427 59.4496 69.8639 60.5602C69.7697 61.1155 69.4874 61.6426 69.3839 62.1884C69.2803 62.7343 69.1486 63.2802 69.0544 63.8261C68.9603 64.372 68.6215 64.419 68.2639 63.8261C68.035 63.421 67.8519 62.9917 67.718 62.5461C67.6144 62.2732 67.5768 61.9908 67.4733 61.6802C67.3419 61.3734 67.2287 61.0592 67.1344 60.739C67.0027 59.5626 67.0309 58.4426 66.9556 57.332L66.8521 55.7037C66.8521 55.1767 66.8521 54.6496 66.7768 54.1414C66.7306 53.2143 66.579 52.2954 66.325 51.4026C66.2824 51.2143 66.2193 51.0312 66.1368 50.8567C66.0709 50.7249 65.9956 50.4896 65.958 50.4332C65.845 50.2073 65.8262 50.0849 65.7509 49.9343C65.6546 49.7353 65.4625 49.6001 65.2427 49.5767C65.0252 49.6151 64.8414 49.76 64.7533 49.9626C64.6996 50.065 64.6555 50.1721 64.6215 50.2826C64.5556 50.4614 64.4521 50.7626 64.3674 51.0637L64.2262 51.5532L64.0191 52.4002L63.6521 54.1037C63.4926 55.0931 63.1096 56.033 62.5321 56.852C62.4226 56.9863 62.303 57.1122 62.1744 57.2285C62.0332 57.3633 61.8624 57.4632 61.6756 57.5202C61.5155 57.5486 61.3506 57.5149 61.2144 57.4261C61.0827 57.3508 60.9791 57.3226 60.8191 57.219L60.358 56.9367L59.8121 56.5132L59.6709 56.4096L59.5203 56.212L59.2286 55.8167L58.645 55.0355L58.0615 54.2261L57.4591 53.5296C57.3556 53.4167 57.2615 53.2943 57.1486 53.1908L56.9509 52.9743C56.8191 52.852 56.7062 52.7108 56.5744 52.5979C56.0876 52.1117 55.525 51.708 54.9086 51.4026C54.6906 51.303 54.4463 51.2766 54.2121 51.3273C53.9809 51.4046 53.7779 51.5487 53.6286 51.7414C53.3918 52.0673 53.2875 52.471 53.3368 52.8708C53.3829 53.4815 53.5226 54.0814 53.7509 54.6496C54.252 55.9205 54.913 57.1224 55.718 58.2261C57.0363 59.9316 58.5144 61.5073 60.1321 62.932C60.4803 63.2614 60.8474 63.5532 61.1862 63.8732C62.4662 65.1061 62.7109 65.6237 62.3815 66.5555C62.3207 66.7694 62.2484 66.9799 62.165 67.1861C61.8356 67.8261 60.8662 67.7414 59.7368 66.9226C56.2406 64.3361 53.302 61.071 51.0968 57.3226C50.628 56.5031 50.2494 55.6353 49.9674 54.7343C49.8156 54.2046 49.7086 53.6631 49.6474 53.1155C49.6227 52.7551 49.6227 52.3935 49.6474 52.0332C49.6781 51.6522 49.7539 51.2762 49.8733 50.9132C49.9246 50.7305 49.9875 50.5514 50.0615 50.3767L50.3344 49.8779C50.515 49.5408 50.7329 49.2251 50.9839 48.9367C51.2474 48.692 51.5297 48.4473 51.8215 48.2214C52.122 48.0258 52.4366 47.8528 52.7627 47.7037C54.2018 47.2779 55.7545 47.4904 57.0262 48.2873L56.9886 48.4002Z" fill="black"/>
<path d="M30.956 25.7276C31.2477 25.7276 31.163 26.1324 30.843 26.7629C30.6793 27.0522 30.4621 27.3077 30.203 27.5159C30.0138 27.5917 29.8187 27.6515 29.6195 27.6947C29.5254 27.6947 28.4054 27.3276 27.9913 27.2429C27.6196 27.1443 27.2667 26.9854 26.9466 26.7724C26.2877 26.3771 25.6007 26.01 24.923 25.6241C24.7693 25.5393 24.6372 25.4202 24.5371 25.2759C24.1621 24.7973 23.6691 24.4243 23.1066 24.1935C23.0136 24.1198 22.8894 24.0985 22.7771 24.1371C22.1112 23.9866 21.4973 23.6618 20.9983 23.1959C20.7348 22.6406 20.4054 22.1794 20.1042 21.6712C20.0571 21.6053 19.9724 21.5959 20.0007 21.4265C20.076 21.05 19.916 20.9935 19.803 20.8618C19.6313 20.6607 19.5174 20.4167 19.4736 20.1559C19.4489 19.9811 19.4489 19.8036 19.4736 19.6288C19.4736 19.4688 19.7466 19.2053 19.803 19.1865C19.8595 19.1676 20.0101 18.9512 20.1042 18.8194C20.1333 18.7686 20.168 18.7213 20.2077 18.6782C20.2077 18.6782 20.6595 18.6218 21.1489 18.5371C21.4609 18.4903 21.7781 18.4903 22.0901 18.5371L22.3819 18.6594L23.0124 18.9041L24.0948 19.29C24.1983 19.29 24.236 19.4594 24.3019 19.5724C24.3677 19.6853 25.6948 20.25 25.7419 20.2971C25.9677 20.5135 26.2971 20.5888 26.3724 21.0312C26.3724 21.1159 26.4477 21.1347 26.5042 21.1724C26.919 21.4803 27.2978 21.8339 27.6336 22.2265C27.8313 22.4147 28.0854 22.5465 28.3019 22.7159C28.3019 22.7159 28.3583 22.81 28.3866 22.8571C28.4148 22.9041 28.4524 22.9888 28.5089 23.0171C29.0093 23.4496 29.5375 23.8489 30.0901 24.2124C30.2313 24.2876 30.6171 25.0124 30.7771 25.0876C30.9371 25.1629 30.843 25.7371 30.956 25.7276Z" fill="black"/>
<path d="M37.7791 18.8662C37.9956 19.0545 37.6379 19.2709 36.9603 19.4592C36.6511 19.5247 36.3344 19.5469 36.0191 19.5251C35.8215 19.4309 35.6332 19.3462 35.492 19.2615C35.3509 19.1768 34.9179 18.3204 34.692 17.9909C34.4976 17.7052 34.3572 17.3862 34.2779 17.0498C34.0897 16.4004 33.8544 15.7604 33.6285 15.0921C33.5952 14.937 33.5952 14.7766 33.6285 14.6215C33.6903 14.0711 33.5888 13.5147 33.3368 13.0215C33.3368 12.9368 33.3368 12.8427 33.1391 12.7862C32.7623 12.2712 32.5492 11.6546 32.5273 11.0168C32.7156 10.4615 32.8097 9.92507 32.9509 9.3886C32.9509 9.3133 32.9509 9.24742 33.045 9.1533C33.2454 9.07124 33.3569 8.85615 33.3085 8.64507C33.3289 8.39866 33.4133 8.16184 33.5532 7.95801C33.6617 7.82816 33.7849 7.7113 33.9203 7.60977C34.0916 7.53396 34.2817 7.51102 34.4662 7.54389C34.6073 7.6286 34.7862 7.54389 34.9462 7.54389H35.1156C35.1156 7.54389 35.4732 7.79801 35.8497 8.0333C36.0831 8.18666 36.2924 8.3738 36.4709 8.5886C36.4709 8.5886 36.5179 8.69212 36.5838 8.84271L36.8568 9.37918C37.0544 9.77448 37.3085 10.1698 37.3462 10.2639C37.3838 10.358 37.3462 10.4615 37.3462 10.5651C37.3462 10.6686 37.8732 11.8545 37.8826 11.9109C37.8826 12.1933 38.0803 12.438 37.8356 12.7862C37.8071 12.8391 37.8071 12.9028 37.8356 12.9557C37.9512 13.4427 38.0049 13.9423 37.9956 14.4427C38.0281 14.6931 38.0752 14.9414 38.1368 15.1862C38.1458 15.236 38.1458 15.287 38.1368 15.3368C38.119 15.3983 38.119 15.4636 38.1368 15.5251C38.2058 16.1385 38.3063 16.7479 38.4379 17.3509C38.485 17.4921 38.2403 18.2262 38.3062 18.3862C38.372 18.5462 37.7038 18.8004 37.7791 18.8662Z" fill="black"/>
<path d="M29.1765 35.2712C29.4588 35.1206 29.6282 35.5253 29.6941 36.2123C29.6915 36.5343 29.6309 36.8531 29.5153 37.1535C29.3647 37.3229 29.2235 37.4923 29.0918 37.6147C28.5392 37.7877 27.9957 37.9888 27.4635 38.2171C27.1045 38.3796 26.7242 38.4905 26.3341 38.5465C25.5623 38.7065 24.7906 38.9229 23.9906 39.1394C23.8074 39.1769 23.6185 39.1769 23.4353 39.1394C22.8048 39.024 22.1549 39.0792 21.5529 39.2994C21.44 39.2994 21.3271 39.2994 21.2518 39.4876C20.5901 39.8402 19.8554 40.0336 19.1059 40.0523C18.4659 39.8547 17.8353 39.7606 17.2235 39.6194C17.1388 39.6194 17.0541 39.6194 16.9506 39.5065C16.7247 39.1582 16.5459 39.2429 16.3576 39.2241C16.0771 39.1736 15.8048 39.0849 15.5482 38.9606C15.3955 38.8557 15.2592 38.7288 15.1435 38.5841C15.0212 38.4618 15.0588 38.0288 15.0871 37.9723C15.1153 37.9159 15.0871 37.6147 15.0871 37.4359C15.0871 37.2571 15.0871 37.2947 15.0871 37.2382C15.2882 36.9922 15.5018 36.7566 15.7271 36.5323C15.923 36.2655 16.1653 36.036 16.4423 35.8547L16.7623 35.7418L17.44 35.4782L18.5318 35.0171C18.6353 34.9606 18.7765 35.0171 18.8988 35.0171C19.0212 35.0171 20.5176 34.4241 20.5929 34.4241C20.9412 34.4241 21.2612 34.2076 21.6659 34.4712C21.7412 34.5276 21.8071 34.4712 21.8823 34.4712C22.4999 34.3343 23.1352 34.2962 23.7647 34.3582C24.0847 34.3582 24.3953 34.3112 24.7059 34.3018C24.7623 34.3018 24.8282 34.3018 24.8847 34.3582C24.9582 34.3837 25.0338 34.4026 25.1106 34.4147C25.8823 34.3488 26.6541 34.4994 27.4353 34.4147C27.6235 34.4147 28.48 34.7912 28.6871 34.7818C28.8941 34.7723 29.0729 35.3276 29.1765 35.2712Z" fill="black"/>
</svg>
