<svg width="96" height="96" viewBox="0 0 96 96" fill="none" xmlns="http://www.w3.org/2000/svg">
<path d="M57.7274 79.6035C54.5944 80.7438 51.3317 81.4899 48.0145 81.8247C44.7288 82.1684 41.4135 82.1115 38.1416 81.6553C34.8358 81.2117 31.6136 80.2825 28.5792 78.8976C25.4586 77.4713 22.6674 75.414 20.3816 72.8553C17.0212 69.0628 15.1342 64.19 15.0639 59.1235C15.022 56.9956 15.2273 54.87 15.6757 52.7894C16.0594 50.7164 16.6914 48.6971 17.558 46.7753C19.29 42.9289 21.8178 39.4934 24.9745 36.6953C26.5923 35.2831 28.4216 34.1335 30.3957 33.2882C32.4729 32.4044 34.7341 32.0393 36.9839 32.2247C41.3757 32.5426 45.4508 34.6277 48.278 38.0035C49.474 39.4855 50.4038 41.1637 51.0263 42.9635C51.6998 44.716 52.109 46.5589 52.2404 48.4317C52.3025 49.4006 52.252 50.3734 52.0898 51.3306C51.9153 52.3125 51.5982 53.2638 51.1486 54.1541C50.2328 55.9394 48.8253 57.4253 47.0922 58.4364C44.9149 59.7376 42.3798 60.3112 39.8545 60.0741C38.5502 59.9352 37.2865 59.5385 36.1369 58.907C34.9067 58.2422 33.8889 57.244 33.2004 56.027C32.5361 54.7878 32.2544 53.3794 32.391 51.98C32.503 50.6554 32.9012 49.3709 33.558 48.2153C33.8712 47.6439 34.2571 47.1155 34.7063 46.6435C35.1749 46.177 35.696 45.7664 36.2592 45.42C37.4035 44.7115 38.7521 44.4067 40.0898 44.5541C40.6754 44.6109 41.2379 44.8114 41.7274 45.1376C42.0286 45.3541 42.1227 45.4953 42.0569 45.58C41.991 45.6647 41.1721 45.58 40.0898 45.8717C38.7669 46.2732 37.7168 47.2847 37.2663 48.5917C36.9316 49.332 36.6852 50.1091 36.5321 50.907C36.3957 51.6788 36.4213 52.4704 36.6074 53.2317C36.7381 53.7991 37.0365 54.314 37.4639 54.7094C38.0059 55.1933 38.6489 55.5502 39.3463 55.7541C40.9494 56.1969 42.6556 56.0807 44.1839 55.4247C45.7043 54.8425 46.9505 53.7105 47.6757 52.2529C48.2891 50.6439 48.3845 48.8835 47.9486 47.2176C47.7352 46.2745 47.4489 45.3493 47.0922 44.4506C46.8945 43.9894 46.6969 43.5094 46.4804 43.0764C46.2639 42.6435 46.0663 42.2953 45.8216 41.9188C44.7979 40.4171 43.4337 39.1788 41.8404 38.3047C40.2191 37.4015 38.4334 36.8319 36.5886 36.6294C35.6823 36.5348 34.7673 36.5633 33.8686 36.7141C32.9555 36.8722 32.0666 37.1474 31.2239 37.5329C30.1405 38.0502 29.1151 38.6812 28.1651 39.4153C27.1854 40.1842 26.2781 41.0411 25.4545 41.9753C23.7478 43.8883 22.3907 46.0864 21.4451 48.4694C20.983 49.643 20.6271 50.8557 20.3816 52.0929C20.2404 52.6953 20.1557 53.3447 20.0616 53.9753C19.963 54.5986 19.9002 55.2271 19.8733 55.8576C19.6543 58.3533 19.9001 60.868 20.598 63.2741C20.9868 64.5527 21.5238 65.7814 22.198 66.9353C22.9041 68.0658 23.7344 69.1139 24.6733 70.06C26.6556 71.9652 29.002 73.4505 31.5721 74.427C36.9457 76.4091 42.7464 76.9414 48.391 75.9706C50.1263 75.7246 51.8386 75.3374 53.511 74.8129C55.177 74.2946 56.7905 73.6203 58.3298 72.7988C59.8783 71.9994 61.347 71.054 62.7157 69.9753C64.0796 68.893 65.3399 67.6862 66.4804 66.3706C70.0172 62.3406 72.4264 57.4476 73.4639 52.187C73.9678 49.5648 74.1166 46.8866 73.9063 44.2247C73.6986 41.5771 73.1057 38.974 72.1463 36.4976C71.3772 34.6016 70.3851 32.8038 69.191 31.1423C67.9954 29.5172 66.6396 28.0163 65.1439 26.6623C63.6552 25.364 62.03 24.2311 60.2969 23.2835C58.5637 22.3917 56.7399 21.688 54.8569 21.1847C53.1967 20.803 51.5048 20.5762 49.8027 20.507C46.6121 20.3282 44.4945 20.6106 42.951 20.507C42.282 20.5189 41.6152 20.4268 40.9745 20.2341C40.4323 20.0885 39.9195 19.8496 39.4592 19.5282C38.9994 19.2785 38.5645 18.9854 38.1604 18.6529C37.6239 18.0976 37.9816 17.3635 39.1769 16.5259C41.0388 15.3782 43.1307 14.6552 45.3039 14.4082C47.4585 14.1117 49.6383 14.0423 51.8074 14.2011C54.0442 14.3762 56.2542 14.8024 58.3957 15.4717C60.5851 16.1574 62.6835 17.1055 64.6451 18.2953C65.621 18.8895 66.5636 19.5367 67.4686 20.2341C67.9298 20.5823 68.3533 20.9682 68.7957 21.3447C69.2451 21.7082 69.6754 22.0946 70.0851 22.5023L71.2992 23.7259C71.7133 24.14 72.0616 24.5917 72.438 25.0247C73.1897 25.9054 73.8935 26.826 74.5463 27.7823C75.8768 29.7203 76.9999 31.7929 77.8969 33.9658C79.6458 38.3324 80.4663 43.0154 80.3063 47.7164C80.0523 54.6651 77.808 61.3946 73.8404 67.1047C69.9117 72.8404 64.3315 77.2455 57.8404 79.7353L57.7274 79.6035Z" fill="black"/>
</svg>
