<svg width="96" height="96" viewBox="0 0 96 96" fill="none" xmlns="http://www.w3.org/2000/svg">
<path d="M38.8819 28.4057C42.6466 28.5281 46.4113 28.6504 50.176 28.7257C51.5501 28.7257 52.9148 28.6316 54.2889 28.6787L68.8113 29.1399C70.9572 29.234 73.1219 29.2528 75.2584 29.2716C78.0569 29.1382 80.8611 29.3532 83.6066 29.9116C83.8137 29.9629 84.0026 30.0704 84.1525 30.2222C84.2473 30.3125 84.2704 30.4548 84.2089 30.5704C83.9794 30.8509 83.706 31.0924 83.3995 31.2857C82.3501 32.0523 81.1223 32.5383 79.8325 32.6975C77.1031 32.9422 74.336 33.2434 71.5595 33.441L69.4607 33.5822H67.3713C65.9689 33.5822 64.5478 33.4881 63.1642 33.394C59.8042 33.1775 56.3219 33.554 52.8866 33.6387C49.1219 33.7234 45.3572 33.761 41.536 33.8081L34.5525 33.8928C31.0231 33.9493 27.4748 33.8928 23.9831 34.081C22.6183 34.1563 21.2725 34.3163 19.936 34.4857L17.9219 34.7587C17.2442 34.834 16.576 34.881 15.8983 34.9281C15.2207 34.9752 14.7313 35.0504 14.1289 35.0599C11.8983 35.0599 11.1831 34.674 10.7031 33.3375C10.5758 33.0312 10.4689 32.7168 10.3831 32.3963C10.176 31.3799 11.0701 30.514 12.6701 30.0999C15.0589 29.4273 17.5032 28.9706 19.9736 28.7352C22.4583 28.5187 24.9901 28.4152 27.5031 28.3304C29.3854 28.274 31.2678 28.2552 33.1501 28.2363H38.7972L38.8819 28.4057Z" fill="black"/>
<path d="M56.7177 43.7475C59.0989 43.9075 61.4989 44.0581 63.8895 44.1711C64.7553 44.1711 65.6306 44.1146 66.4965 44.1711C69.5742 44.3593 72.6518 44.5946 75.7389 44.7358C77.0659 44.8769 78.4777 44.8769 79.833 44.8769C81.6312 44.7871 83.4328 44.9648 85.1789 45.404C85.3278 45.4474 85.4594 45.5362 85.5553 45.6581C85.6157 45.7494 85.6157 45.868 85.5553 45.9593C85.379 46.2034 85.1872 46.436 84.9812 46.6558C84.393 47.3426 83.5965 47.8185 82.713 48.0111C80.9906 48.2464 79.2306 48.5005 77.48 48.6605L76.1624 48.7734C75.72 48.7734 75.2777 48.7734 74.8353 48.7734C73.8942 48.7264 73.0565 48.6605 72.1624 48.5664C69.9849 48.4679 67.8034 48.5057 65.6306 48.6793C63.2306 48.6793 60.8306 48.6793 58.4212 48.6793H54.0071C51.7671 48.6793 49.5177 48.604 47.2871 48.7452C46.4251 48.8112 45.5673 48.9243 44.7177 49.084C43.8727 49.2607 43.0178 49.3864 42.1577 49.4605C41.7812 49.4605 41.4142 49.564 41.0283 49.564C39.6071 49.564 39.1459 49.2158 38.8448 47.9922C38.7695 47.7193 38.6848 47.4464 38.6377 47.1734C38.537 46.2142 39.1534 45.3257 40.0871 45.084C41.5682 44.4841 43.122 44.0822 44.7083 43.8887C46.28 43.7005 47.8895 43.6252 49.4989 43.5781C50.6942 43.5781 51.8895 43.5781 53.0942 43.5781L56.7083 43.6722L56.7177 43.7475Z" fill="black"/>
<path d="M71.7291 64.2734C72.7926 64.3958 73.8656 64.5181 74.9385 64.6028C75.3244 64.6028 75.7103 64.6028 76.1056 64.6028C77.4797 64.7346 78.8632 64.9134 80.2561 65.017C80.8831 65.0516 81.5115 65.0516 82.1385 65.017C82.9409 64.9372 83.7511 65.0369 84.5103 65.3087C84.755 65.4217 84.7173 65.9675 84.5103 66.5605C84.3032 67.1534 83.9456 67.8217 83.5032 67.9628C81.9743 68.4387 80.3407 68.4649 78.7973 68.0381C77.8212 67.9345 76.8369 67.9345 75.8608 68.0381C74.7785 68.0381 73.6961 67.9722 72.6138 67.9252C71.9456 67.9252 71.2773 67.8593 70.6091 67.8499C69.602 67.8499 68.5856 67.7558 67.5879 67.8499C66.8091 67.9318 66.0359 68.0607 65.2726 68.2358C65.1052 68.2771 64.9355 68.3085 64.7644 68.3299C64.1338 68.3299 63.9361 68.0475 63.8232 67.2005C63.8232 67.0028 63.7479 66.8052 63.7385 66.617C63.6492 66.0295 63.9009 65.4421 64.3879 65.1017C65.0485 64.768 65.7468 64.5152 66.4679 64.3487C66.8161 64.264 67.1738 64.1981 67.5314 64.1417C67.8887 64.1181 68.2471 64.1181 68.6044 64.1417C69.6679 64.1417 70.7503 64.2452 71.8232 64.2922L71.7291 64.2734Z" fill="black"/>
</svg>
