<svg width="96" height="96" viewBox="0 0 96 96" fill="none" xmlns="http://www.w3.org/2000/svg">
<path d="M36.1699 26.6884C34.2945 26.4877 32.4089 26.3966 30.5229 26.4155C29.817 26.4155 29.1299 26.5849 28.424 26.5943C25.9255 26.5864 23.4281 26.7058 20.9417 26.9519C19.8596 27.0986 18.7963 27.3605 17.7699 27.7331C17.1111 27.9119 16.4711 28.1566 15.8876 28.3543C15.3339 28.545 14.7584 28.6651 14.1746 28.7119C13.5016 28.378 13.0193 27.7534 12.8664 27.0178C12.5988 25.8738 13.0038 24.6772 13.9111 23.9308C14.6388 23.5174 15.3899 23.1466 16.1605 22.8202C16.9094 22.5721 17.6775 22.3863 18.457 22.2649C19.9856 22.0017 21.5374 21.8976 23.0876 21.9543C24.9419 21.8597 26.7894 21.6617 28.6217 21.3614C30.664 21.2014 32.7158 21.1543 34.7864 21.1919H35.7276L36.7534 21.239C37.6582 21.2611 38.5606 21.3428 39.4546 21.4837C40.3707 21.6249 41.2501 21.9447 42.0429 22.4249C42.6611 22.8047 43.1093 23.408 43.2946 24.1096C43.4331 24.8172 43.4138 25.5467 43.2381 26.2461C43.0337 27.1869 42.7178 28.1001 42.297 28.9661C42.0617 29.4272 41.7887 29.9072 41.5158 30.3684C41.4482 30.4893 41.3727 30.6056 41.2899 30.7166L41.1393 30.9802L40.8476 31.4696C40.6783 31.7525 40.4726 32.012 40.2358 32.2414C39.2946 33.0696 38.7958 33.0319 37.7511 32.439C37.5064 32.3072 37.2617 32.1943 37.0358 32.0625C36.2901 31.5412 35.9699 30.5956 36.2452 29.7284L36.4617 28.7025L36.5558 28.1943C36.5985 28.0444 36.6487 27.8968 36.7064 27.7519L36.8758 27.3284C36.8758 27.2531 36.8758 27.2531 36.8758 27.2155C36.8542 27.1706 36.8219 27.1318 36.7817 27.1025C36.6593 26.9896 36.5746 27.0366 36.5746 27.0366V27.0366C36.6105 27.0001 36.6105 26.9415 36.5746 26.9049V26.9049H36.4523H36.1981L36.1699 26.6884Z" fill="black"/>
<path d="M33.4688 40.5239C33.2994 40.2509 33.1582 39.9874 32.97 39.6392C32.7703 39.2344 32.5912 38.8197 32.4335 38.3968C32.1373 37.5567 31.9907 36.6711 32.0006 35.7803C32.0273 34.8965 32.2559 34.0305 32.6688 33.2486C32.8671 32.8512 33.0968 32.4704 33.3559 32.1098C33.4646 31.9227 33.5906 31.7462 33.7323 31.5827L34.0147 31.2251C35.4076 29.5215 36.7535 28.1756 38.1182 26.7639C38.3908 26.4116 38.7071 26.0953 39.0594 25.8227L39.5206 25.4086C39.6618 25.2486 39.9065 25.098 39.9441 24.8627C39.9818 24.6274 39.6712 24.5803 39.4829 24.5427C38.6547 24.5427 39.0594 24.6462 35.3606 24.9474C31.5112 25.2768 27.6523 25.4745 23.8312 25.8886C21.9488 26.0768 20.0194 26.2839 18.1841 26.5662L16.81 26.8015L16.1512 26.9333L15.6618 27.0556C15.4562 27.0737 15.2537 27.118 15.0594 27.1874C14.9625 27.2235 14.8822 27.2938 14.8335 27.3851C14.8238 27.4852 14.8238 27.5861 14.8335 27.6862V28.0156V28.505V30.0298C14.8335 31.0556 14.8335 32.0721 14.9088 33.098C15.1092 37.3686 15.7783 41.6042 16.9041 45.7286L17.4406 47.4603C17.6288 48.0345 17.8547 48.5898 18.0618 49.1545C18.2679 49.7155 18.5035 50.2653 18.7676 50.8015L19.0218 51.3474L19.2194 51.658L19.4453 52.0533C19.577 52.1662 19.7276 51.9874 19.8406 51.9215L20.17 51.6109L20.537 51.2345C21.4688 50.1898 22.4759 49.0415 23.53 47.8933C24.697 46.6039 25.13 47.2345 24.8288 48.8345C24.6029 49.9004 24.2457 50.9341 23.7653 51.9121C23.6147 52.2133 23.4547 52.5239 23.2759 52.8533L22.9935 53.3333L22.8241 53.6062L22.4947 54.0203C22.0492 54.604 21.5515 55.1459 21.0076 55.6392C20.5282 56.0709 19.9326 56.3523 19.2947 56.4486C19.0665 56.4765 18.8358 56.4765 18.6076 56.4486C18.4859 56.4325 18.366 56.4041 18.25 56.3639C18.1499 56.3033 18.0554 56.2341 17.9676 56.1568L16.8759 55.3003L16.0006 53.9074C15.8688 53.6721 15.6994 53.4368 15.5865 53.2109L15.3041 52.6086C15.05 52.0721 14.7676 51.5262 14.5323 50.9803C14.0806 49.8792 13.5912 48.7686 13.2712 47.6486C12.5368 45.4258 11.955 43.1554 11.53 40.8533C11.0952 38.575 10.781 36.2753 10.5888 33.9639C10.5041 32.8345 10.4288 31.658 10.3535 30.4909C10.3535 29.9074 10.3535 29.3145 10.3535 28.7309V27.4886C10.3535 26.9709 10.3535 26.4533 10.4288 25.945C10.5204 25.5812 10.6497 25.2279 10.8147 24.8909C11.0069 24.5589 11.259 24.2653 11.5582 24.0251C12.1898 23.5354 12.9037 23.1625 13.6665 22.9239L14.25 22.745C14.3426 22.7222 14.4337 22.6939 14.5229 22.6603L14.7112 22.6133L15.4547 22.4345L16.8853 22.1521C20.4335 21.5403 23.9065 21.0698 27.4265 20.5992C29.1865 20.3545 30.937 20.0815 32.697 19.8745L38.2029 19.2627L40.6123 18.9803C41.371 18.8545 42.1402 18.804 42.9088 18.8298C43.5416 18.8359 44.1722 18.9053 44.7912 19.0368C45.3282 19.1428 45.8477 19.3234 46.3347 19.5733C46.8194 19.7994 47.2544 20.1192 47.6147 20.5145C48.0091 20.9577 48.2268 21.5305 48.2265 22.1239C48.1038 23.1747 47.7398 24.1829 47.1629 25.0698C46.2651 26.2582 45.2871 27.384 44.2359 28.4392L41.77 31.0745C41.1206 31.7709 40.4712 32.458 39.8876 33.1545C39.5802 33.5058 39.2665 33.8541 38.9465 34.1992C38.7959 34.3686 38.6641 34.538 38.5323 34.7074L38.2406 35.0839C38.0593 35.2849 37.93 35.5272 37.8641 35.7898C37.8359 36.0647 37.8746 36.3424 37.977 36.5992C38.0307 36.7411 38.0936 36.8795 38.1653 37.0133C38.25 37.2015 38.4006 37.4086 38.5229 37.6156C38.8153 38.0455 39.1294 38.4602 39.4641 38.858C40.9374 40.5636 42.5561 42.1382 44.3018 43.5639C46.9935 45.8039 49.8547 47.9215 52.7723 49.9545C55.69 51.9874 58.6735 53.9545 61.7135 55.7803C66.4194 58.6039 71.3418 60.9851 76.1982 63.4792C77.2618 64.0251 78.3347 64.5145 79.4076 65.0886C83.3606 67.2062 84.4241 68.2133 84.5841 69.9921C84.6603 70.3861 84.7012 70.7861 84.7065 71.1874C84.5841 72.4109 82.4665 72.4109 79.3512 71.1874C69.8013 67.3089 60.6587 62.4948 52.057 56.8156C48.6992 54.6642 45.46 52.3329 42.3535 49.8321C40.7912 48.5615 39.2382 47.2439 37.7229 45.7851C36.0575 44.2436 34.582 42.509 33.3276 40.618L33.4688 40.5239Z" fill="black"/>
<path d="M44.5933 57.6156C46.3439 59.385 48.1133 61.1262 49.9674 62.7732C50.6356 63.3662 51.3697 63.8932 52.0568 64.4767C54.4474 66.585 56.9321 68.5991 59.4827 70.4814C60.6337 71.3208 61.8274 72.0999 63.0592 72.8156C64.6813 73.6646 66.2526 74.6074 67.765 75.6391C68.2262 75.9873 67.9439 76.3732 67.285 76.5803C66.3996 76.8579 65.4454 76.8213 64.5839 76.4767C61.0605 75.0453 57.746 73.1459 54.7297 70.8297C52.9791 69.3426 50.965 68.0626 49.158 66.5944C47.1909 64.9567 45.2709 63.2626 43.4168 61.5214L39.9627 58.2462C38.2403 56.6179 36.5744 54.9238 34.8239 53.3709C33.4686 52.1662 32.0003 51.1497 30.5321 50.0485C30.2215 49.8132 29.8827 49.6062 29.5909 49.3426C28.4615 48.4014 28.3015 47.8744 28.8191 46.8579C28.9415 46.632 29.0356 46.3873 29.1768 46.1709C29.6568 45.4556 30.5697 45.3709 31.5203 45.945C34.3285 47.7635 36.9263 49.8879 39.2662 52.2791C41.0827 54.0203 42.8521 55.8179 44.6686 57.5403L44.5933 57.6156Z" fill="black"/>
</svg>
