<svg width="96" height="96" viewBox="0 0 96 96" fill="none" xmlns="http://www.w3.org/2000/svg">
<path d="M24.6962 64.8496C28.3009 64.5766 32.1503 63.0519 36.1691 61.4519C37.6374 60.8778 39.0962 60.1531 40.6774 59.6637C41.3833 59.4472 42.0797 59.2308 42.8138 59.0614C43.5384 58.8675 44.2738 58.7166 45.0162 58.6096C46.572 58.3627 48.1515 58.2995 49.7221 58.4214C50.589 58.4914 51.4415 58.6847 52.2538 58.9955C53.1665 59.3397 53.9832 59.8981 54.635 60.6237C54.9341 61.0051 55.1898 61.4187 55.3974 61.8566C55.585 62.2651 55.7331 62.6906 55.8397 63.1272C55.9512 63.5271 56.0237 63.9369 56.0562 64.3508C56.1057 64.7409 56.1278 65.134 56.1221 65.5272C56.0398 68.0528 55.7756 70.5691 55.3315 73.0566C55.1115 74.6426 54.7972 76.214 54.3903 77.7625C53.9714 79.3882 53.2567 80.9228 52.2821 82.2896C51.5856 83.1461 51.1244 82.5249 50.9268 81.4896C50.6316 80.1281 50.6316 78.7193 50.9268 77.3578C51.2643 75.8948 51.5251 74.4151 51.708 72.9249C51.9056 71.4096 52.1033 69.819 52.2444 68.3508C52.4112 67.049 52.3858 65.7298 52.1691 64.4355C52.0937 64.0514 51.9293 63.6904 51.6891 63.3814C51.5386 63.1272 51.1809 62.9955 50.748 62.7884C49.1782 62.4946 47.5596 62.6014 46.0421 63.099C44.2639 63.5709 42.5215 64.1685 40.828 64.8872C36.9597 66.4119 32.9974 68.4261 28.508 69.5931C25.6743 70.3318 22.7248 70.5172 19.8209 70.139C17.4222 69.8554 15.1799 68.802 13.4303 67.1366C12.5668 66.2485 11.8857 65.1997 11.4256 64.0496C10.9955 62.9683 10.7076 61.8357 10.5691 60.6802C10.1736 57.3621 10.323 54.0018 11.0115 50.7319C11.1527 50.0261 11.2562 49.3296 11.4539 48.6425C12.2256 46.1014 12.9409 45.4802 14.5691 45.5366C14.9368 45.5284 15.3047 45.5441 15.6703 45.5837C16.8656 45.8096 17.3833 47.1178 17.1386 48.8966C16.7903 51.5414 16.395 54.1672 16.2915 56.6049C16.188 59.0425 16.2915 61.3108 16.9691 62.4684C17.1965 62.9013 17.5181 63.2776 17.9103 63.5696C18.4319 63.938 19.0106 64.2178 19.6233 64.3978C21.2677 64.8133 22.9747 64.9218 24.6586 64.7178L24.6962 64.8496Z" fill="black"/>
<path d="M49.7221 37.4525C52.4139 36.6149 55.2751 35.5702 58.1927 34.7043C61.1556 33.7405 64.1725 32.9517 67.228 32.342C69.6251 31.7978 72.0871 31.595 74.5409 31.7396C75.7685 31.862 76.9743 32.1469 78.1268 32.5867C78.7522 32.8413 79.3511 33.1566 79.9151 33.5278C80.1974 33.7349 80.4986 33.9325 80.7527 34.149L81.4586 34.8173C83.1431 36.5877 84.2465 38.8305 84.6209 41.2455C84.9396 43.3461 84.9681 45.4806 84.7057 47.589C84.472 49.5817 84.1041 51.5564 83.6045 53.4996C82.7663 56.8564 81.7547 60.1675 80.5739 63.4196C79.1806 67.5651 77.4067 71.5727 75.2751 75.3914C74.588 76.5584 73.9857 76.0878 73.7221 74.7325C73.4167 72.7307 73.5942 70.6848 74.2398 68.7655C75.6327 64.6431 76.8939 60.5114 77.9198 56.3984C79.0951 52.4751 79.7594 48.4165 79.8962 44.3231C79.8962 42.0361 79.1621 39.909 77.7974 38.7702C77.4925 38.4861 77.1385 38.2597 76.7527 38.102C76.5552 38.0129 76.3505 37.9405 76.1409 37.8855C75.9057 37.8855 75.6892 37.7631 75.4351 37.7349C74.3335 37.5859 73.218 37.5701 72.1127 37.6878C69.342 37.9921 66.6046 38.5465 63.9339 39.3443C61.1104 40.1443 58.3621 41.1043 55.5386 42.102C53.788 42.7043 52.0562 43.3349 50.1551 43.8808L47.4633 44.6337C46.5221 44.8878 45.5809 45.1325 44.6398 45.3208C42.9603 45.6982 41.218 45.6982 39.5386 45.3208C38.5518 45.059 37.6419 44.5653 36.8845 43.8808C36.5342 43.5329 36.2189 43.1515 35.9433 42.742C35.6676 42.3339 35.4282 41.9025 35.228 41.4525C34.5936 39.8644 34.3452 38.1483 34.5033 36.4455C34.6278 34.9271 34.8956 33.424 35.3033 31.9561C36.4738 27.6823 37.9683 23.5039 39.7739 19.4573C40.1598 18.582 40.4986 17.7067 40.9409 16.8596C42.5786 13.7161 43.4727 13.0384 45.3833 13.1984C45.8151 13.2145 46.2456 13.2554 46.6727 13.3208C48.0657 13.6125 48.3668 15.5137 47.4727 17.9608C46.1645 21.5843 44.6492 25.0573 43.2657 28.5114C42.5983 30.183 42.0202 31.889 41.5339 33.622C41.0959 35.0224 40.8862 36.4843 40.9127 37.9514C40.9228 38.2717 40.9799 38.5888 41.0821 38.8925C41.0821 38.8925 41.0821 39.0055 41.0821 39.0243C41.0821 39.0431 41.0821 39.0243 41.0821 39.0243V39.0243V39.0243V39.0243V39.0243C41.3918 39.0865 41.7077 39.1118 42.0233 39.0996C43.2039 39.0024 44.3711 38.7815 45.5057 38.4408L47.7174 37.829C48.348 37.6596 48.9504 37.4808 49.5998 37.2549L49.7221 37.4525Z" fill="black"/>
</svg>
