<svg width="190" height="179" viewBox="0 0 190 179" fill="none" xmlns="http://www.w3.org/2000/svg">
<g id="vectorly-UNI-puzzle" clip-path="url(#clip0_615_10672)">
<g id="vectorly-UNI-puzzle_2">
<path id="path4190" fill-rule="evenodd" clip-rule="evenodd" d="M83.1907 39.9189L82.706 63.1408C84.8601 63.0547 89.3721 63.0834 93.4051 64.289C96.2734 65.1788 98.8807 66.6715 100.407 69.0252C102.879 72.8716 102.928 76.8042 101.812 80.1913C100.45 84.296 97.3031 87.597 94.7158 88.9461C93.1555 89.7785 91.0959 90.1803 89.0164 90.3238C86.5381 90.5248 84.037 90.3526 82.4336 90.1803L82.64 106.972L105.312 106.857C105.768 106.857 106.204 107.03 106.522 107.345C106.84 107.69 107.015 108.12 107.007 108.58C107.007 108.58 106.932 114.148 108.051 119.086C108.573 121.382 109.307 123.563 110.564 124.798C112.391 126.577 114.883 127.209 117.155 126.864C119.41 126.491 121.455 125.114 122.321 122.817C122.949 121.124 123.33 119.114 123.571 117.133C124.134 112.512 123.904 108.063 123.904 108.063C123.878 107.518 124.076 107.001 124.446 106.628C124.816 106.226 125.33 106.025 125.863 106.025L152.292 106.226C153.417 106.226 154.32 107.145 154.314 108.264L154.125 176.724C154.119 177.958 153.115 178.963 151.879 178.963C151.879 178.963 114.424 178.991 76.9665 178.877C39.5116 178.762 2.05669 178.561 2.05669 178.561C1.50883 178.561 0.9839 178.331 0.59954 177.958C0.212312 177.556 -0.00284004 177.04 2.8316e-05 176.494L1.0326 39.5172C1.0326 39.1441 1.18748 38.7708 1.45711 38.4837C1.7296 38.2254 2.09677 38.082 2.47826 38.082L82.1897 38.8857C82.4594 38.8857 82.7175 39.0004 82.9068 39.2013C83.0961 39.4023 83.1965 39.6606 83.1907 39.9189ZM81.1456 40.9236L3.91244 40.9525C3.93538 55.4194 4.11608 174.427 4.11608 174.427C12.4343 174.399 44.7033 174.341 76.9752 174.341C109.026 174.341 141.077 174.456 149.659 174.485C149.759 162.888 150.207 110.273 150.207 110.273L127.811 109.929C127.805 111.795 127.722 114.665 127.34 117.593C127.042 119.889 126.563 122.214 125.82 124.137C124.432 127.754 121.251 129.964 117.706 130.481C114.367 130.969 110.716 129.993 108.054 127.352C106.407 125.716 105.286 122.903 104.629 119.86C103.857 116.272 103.665 112.397 103.622 110.244L81.0911 110.13C80.2306 110.13 79.5308 109.412 79.5222 108.551L79.4906 88.5155C79.4877 88.085 79.6742 87.683 80.004 87.396C80.3339 87.1089 80.7698 86.994 81.1944 87.0514C81.1944 87.0514 85.038 87.7405 88.8242 87.5109C90.5022 87.3961 92.1716 87.1376 93.4366 86.4774C95.5678 85.3866 98.135 82.6886 99.2909 79.3302C100.215 76.632 100.212 73.503 98.2668 70.403C97.0736 68.4798 94.9568 67.3604 92.6793 66.6428C87.5851 65.0067 81.6276 65.4946 81.6276 65.4946C81.3006 65.5233 80.9764 65.4085 80.7383 65.2076C80.5003 64.978 80.3684 64.662 80.377 64.3176L81.1456 40.9236Z" fill="black"/>
<path id="path4192" fill-rule="evenodd" clip-rule="evenodd" d="M2.26883 110.302C1.71524 110.302 1.25923 109.843 1.25636 109.298C1.25349 108.752 1.70095 108.293 2.25454 108.293L26.7903 107.661C27.0313 105.566 27.6193 101.289 28.738 97.3566C29.6157 94.2853 30.8635 91.4147 32.4238 89.7786C35.1975 86.8508 38.9235 85.674 42.4631 85.7889C46.5562 85.9324 50.351 87.8556 52.3072 90.8121C53.6123 92.764 54.4326 95.5196 54.8973 98.3613C55.4251 101.605 55.5026 104.935 55.4797 107.116L81.0223 106.284C81.6333 106.255 82.227 106.485 82.6659 106.915C83.1076 107.346 83.3571 107.92 83.36 108.551L83.2653 131.055C83.2711 132.175 82.3818 133.094 81.2603 133.151C81.2603 133.151 76.278 133.266 71.8866 134.758C69.9791 135.418 68.1578 136.308 67.0678 137.657C65.4128 139.724 64.7271 142.25 65.0513 144.633C65.3754 147.015 66.6633 149.283 68.9063 150.89C70.0737 151.723 71.6915 152.182 73.335 152.44C77.1385 153.072 81.1141 152.67 81.1141 152.67C81.5099 152.612 81.9057 152.756 82.2012 153.014C82.4995 153.272 82.6687 153.646 82.6687 154.048L82.2814 176.609C82.2814 177.183 81.8311 177.614 81.2775 177.614C80.721 177.614 80.2708 177.183 80.2708 176.609L79.9122 155.597C78.2744 155.712 75.5523 155.827 72.8905 155.454C70.7335 155.167 68.6339 154.564 67.0763 153.531C63.9499 151.464 62.1371 148.393 61.6007 145.149C61.0528 141.82 61.8903 138.318 64.1133 135.361C65.5704 133.438 67.9684 132.031 70.5728 131.084C73.6506 129.936 77.0038 129.391 79.0804 129.161L78.8509 110.876L53.2595 111.623C52.6313 111.651 52.0261 111.393 51.5929 110.934C51.1598 110.474 50.9362 109.872 50.985 109.24C50.985 109.24 51.4209 104.016 50.7009 98.9928C50.3797 96.7826 49.8662 94.5722 48.8795 93.0221C47.6146 91.0415 45.0302 89.8073 42.2852 89.6351C39.7467 89.4916 37.0361 90.2379 34.9852 92.2759C33.6887 93.5676 32.7107 95.8638 31.9276 98.3324C30.2812 103.47 29.5927 109.269 29.5927 109.269C29.5153 110.015 28.8872 110.589 28.1328 110.589L2.26883 110.302Z" fill="black"/>
<path id="path4194" fill-rule="evenodd" clip-rule="evenodd" d="M184.461 36.6748C184.943 36.9619 185.106 37.5646 184.828 38.0526C184.547 38.5405 183.933 38.6843 183.451 38.4259C183.451 38.4259 132.939 9.779 123.124 4.21037L116.776 17.2134C119.059 18.2754 122.975 20.3995 126.101 23.3848C128.445 25.6237 130.321 28.3794 130.963 31.4795C131.987 36.4453 130.019 41.0092 126.649 44.1379C123.259 47.2954 118.44 48.9889 113.957 48.2426C112.826 48.0704 111.189 47.439 109.436 46.5492C107.153 45.3723 104.629 43.8224 102.914 42.7316L95.6507 55.5336L118.684 69.1395C119.197 69.4553 119.567 69.9432 119.708 70.5173C119.851 71.0914 119.754 71.7227 119.441 72.2107C119.441 72.2107 116.481 76.9182 114.958 82.3147C114.315 84.5823 113.916 86.9649 114.186 89.1751C114.556 92.189 116.243 94.3417 118.5 95.3176C120.835 96.3223 123.715 96.1215 126.288 94.5714C127.917 93.5955 129.489 91.787 130.9 89.8638C134.009 85.5869 136.281 80.5924 136.281 80.5924C136.493 80.1044 136.9 79.7313 137.402 79.5877C137.904 79.4155 138.447 79.5017 138.894 79.7887L157.518 91.5861L188.126 43.0758C188.419 42.6166 189.039 42.4731 189.512 42.7602C189.985 43.0472 190.131 43.6787 189.839 44.1379L159.38 94.6289C159.156 95.0021 158.798 95.2603 158.382 95.3751C157.969 95.4612 157.53 95.3751 157.168 95.1741L138.725 83.9223C137.758 85.9029 136.063 89.1463 133.998 92.0741C132.294 94.514 130.321 96.6956 128.327 97.9299C124.587 100.255 120.362 100.484 116.917 99.0492C113.397 97.5853 110.655 94.3991 110.015 89.7203C109.648 86.9934 110.056 84.0082 110.822 81.1665C111.84 77.4062 113.486 73.9332 114.576 71.8665L91.3799 58.318C90.2956 57.6865 89.9255 56.3087 90.5479 55.218L100.171 38.3971C100.484 37.8517 101.012 37.4499 101.628 37.3064C102.245 37.1628 102.893 37.3064 103.415 37.6509C103.415 37.6509 106.909 40.062 110.297 41.9565C111.98 42.8751 113.609 43.7361 114.674 43.9084C117.869 44.4537 121.294 43.2194 123.738 40.9805C126.09 38.8276 127.561 35.7275 126.899 32.3117C126.454 29.9867 125.008 27.9774 123.29 26.2838C119.188 22.2365 113.478 19.9403 113.478 19.9403C112.976 19.7393 112.58 19.3375 112.388 18.8496C112.195 18.3329 112.221 17.7874 112.462 17.2994L120.795 0.966839C121.01 0.536274 121.397 0.220359 121.862 0.0768375C122.326 -0.066684 122.828 -0.00910721 123.25 0.249231L184.461 36.6748Z" fill="black"/>
<path id="path4196" fill-rule="evenodd" clip-rule="evenodd" d="M156.19 101.66C155.789 101.287 155.772 100.656 156.156 100.254C156.537 99.852 157.174 99.8232 157.576 100.196C157.576 100.196 161.385 103.124 164.635 110.071C165.263 111.42 165.839 112.941 166.347 114.606C166.648 115.582 166.929 116.644 167.136 117.735C167.583 120.146 167.821 122.787 167.799 125.715C167.776 129.274 167.319 133.149 166.459 137.455C166.396 138.029 165.897 138.402 165.346 138.345C164.795 138.287 164.399 137.799 164.463 137.225C164.526 134.814 164.44 132.546 164.308 130.422C164.161 128.011 163.889 125.801 163.576 123.705C163.341 122.184 163.054 120.72 162.787 119.371C162.486 117.821 162.188 116.386 161.858 115.065C161.333 112.913 160.783 111.047 160.186 109.439C158.273 104.244 156.19 101.66 156.19 101.66Z" fill="black"/>
<path id="path4198" fill-rule="evenodd" clip-rule="evenodd" d="M168.068 93.0497C167.517 92.9922 167.11 92.5042 167.165 91.9301C167.216 91.3847 167.707 90.9829 168.26 91.0403C168.26 91.0403 169.695 90.8968 171.912 91.0403C172.658 91.0978 173.455 91.2125 174.327 91.356C175.098 91.4995 175.893 91.7291 176.705 92.0161C177.218 92.1884 177.737 92.3893 178.236 92.6477C179.151 93.1357 180.032 93.7098 180.847 94.4274C181.601 95.0589 182.301 95.7478 182.912 96.5802C183.804 97.7571 184.541 98.9914 185.04 100.455C185.307 100.943 185.129 101.546 184.644 101.833C184.157 102.091 183.546 101.919 183.279 101.431C182.155 99.9961 180.72 99.1061 179.24 98.245C178.4 97.757 177.528 97.3841 176.685 96.9822C176.097 96.6952 175.526 96.4081 174.969 96.1211C174.02 95.6618 173.142 95.2024 172.308 94.8005C169.844 93.681 168.068 93.0497 168.068 93.0497Z" fill="black"/>
<path id="path4200" fill-rule="evenodd" clip-rule="evenodd" d="M66.3936 5.50252C65.8831 5.27289 65.6507 4.66993 65.8715 4.18196C66.0924 3.66528 66.6862 3.43581 67.1939 3.63674C67.1939 3.63674 72.3397 5.27283 78.2571 9.03309C79.5938 9.86552 80.9476 10.8414 82.2871 11.9321C83.1362 12.621 83.9795 13.3676 84.7712 14.1713C86.7016 16.1232 88.457 18.3619 89.8797 20.8304C91.9507 24.4185 93.3103 28.4659 93.5369 32.8577C93.6086 33.403 93.2214 33.8911 92.6706 33.9772C92.1228 34.0346 91.615 33.6615 91.5433 33.1161C90.984 30.5614 89.9571 28.265 88.7094 26.1122C87.4387 23.9019 85.8611 21.9499 84.1917 20.1128C83.1591 18.9934 82.0778 17.9315 81.005 16.8982C79.8749 15.8074 78.7591 14.7452 77.6462 13.7693C76.149 12.4776 74.7061 11.2721 73.3494 10.2387C69.4083 7.22478 66.3936 5.50252 66.3936 5.50252Z" fill="black"/>
<path id="path4202" fill-rule="evenodd" clip-rule="evenodd" d="M92.1602 9.11805C91.6468 8.88841 91.4001 8.31444 91.6095 7.79776C91.8189 7.28109 92.4068 7.02264 92.9203 7.25227C92.9203 7.25227 94.0763 7.42444 95.8633 8.05593C96.4513 8.25686 97.0594 8.48655 97.7277 8.83101C98.3129 9.11805 98.8894 9.46267 99.4802 9.86453C99.8474 10.1229 100.212 10.4098 100.544 10.7543C101.15 11.3283 101.7 12.0172 102.182 12.7636C102.618 13.4525 103.008 14.1412 103.315 14.945C103.757 16.0644 104.087 17.184 104.239 18.4469C104.42 18.9636 104.139 19.5377 103.614 19.7386C103.089 19.9109 102.518 19.6238 102.337 19.1071C101.812 18.246 101.175 17.5858 100.524 16.8682C100.002 16.2941 99.4343 15.8636 98.8893 15.3469C98.33 14.8303 97.7421 14.3997 97.22 13.9117C96.5087 13.2515 95.9006 12.5913 95.2954 11.9885C93.4653 10.2375 92.1602 9.11805 92.1602 9.11805Z" fill="black"/>
</g>
</g>
<defs>
<clipPath id="clip0_615_10672">
<rect width="190" height="179" fill="white"/>
</clipPath>
</defs>
</svg>
