<svg width="96" height="96" viewBox="0 0 96 96" fill="none" xmlns="http://www.w3.org/2000/svg">
<path d="M40.1786 44.5739C37.1217 47.0904 34.2118 49.7803 31.4633 52.6304C30.4374 53.6657 29.6374 54.8798 28.6398 55.9339L27.3315 57.3457L26.0798 58.8045L23.5856 61.741L21.2233 64.7998L20.0562 66.3434L18.9645 67.9434C18.3245 68.8845 17.7127 69.8257 17.0821 70.8422C16.7715 71.3316 16.5268 71.8398 16.2539 72.3481L15.4445 73.8539C14.0327 76.4045 12.988 79.1339 11.2186 81.5339C10.6727 82.2869 9.78799 81.7692 9.16681 80.5928C8.4046 79.1894 8.26137 77.532 8.77152 76.0186C10.9989 70.1836 14.2075 64.7723 18.2586 60.0186C19.4162 58.5504 20.6021 57.0728 21.6939 55.5104C22.7856 53.9481 23.9527 52.4234 25.1668 50.9551C27.8576 47.7531 30.7198 44.6993 33.7409 41.8069C34.6821 40.8657 35.6233 40.0657 36.5645 39.1998L37.995 37.901L39.548 36.7339C40.2915 36.1128 41.035 35.4728 41.788 34.8516L44.1315 33.0822C45.6562 31.8681 47.3127 30.8139 48.8374 29.6186C50.0703 28.7434 51.2656 27.8398 52.4515 26.8798C53.6374 25.9198 54.8892 25.0539 56.2162 24.2445C56.8092 23.8869 57.355 23.4822 57.9762 23.1622C58.2586 23.0116 58.5221 22.8892 58.7668 22.7763C59.003 22.7008 59.2456 22.6473 59.4915 22.6163C59.8833 22.542 60.2856 22.542 60.6774 22.6163C61.3936 22.7928 62.0061 23.2555 62.3715 23.8963C62.619 24.2149 62.8424 24.5515 63.0398 24.9034C63.6327 26.0892 63.0398 27.4916 61.8068 28.5269C57.9103 31.4539 53.6562 34.2304 49.4586 37.3645L47.1433 39.1528L45.9668 40.0281L44.828 40.9692L42.5033 42.8516C41.7503 43.4822 41.0068 44.141 40.2633 44.7904L40.1786 44.5739Z" fill="black"/>
<path d="M57.5342 24.5922L58.0048 25.7028C58.2965 26.324 58.5412 26.964 58.8048 27.5851C59.0747 28.1402 59.28 28.7244 59.4165 29.3263C59.6088 29.8344 59.7476 30.3612 59.8306 30.8981C59.8871 31.3781 60.0659 31.8393 60.1036 32.3004C60.1684 32.7051 60.203 33.1141 60.2071 33.524V34.6251C60.1318 34.9451 60.0471 35.2651 59.9436 35.5663L59.8683 35.7922C59.7553 35.9616 59.68 36.2346 59.5483 36.4698C59.4165 36.7051 59.2753 36.9687 59.1153 37.2228C58.6917 37.6198 58.201 37.9385 57.6659 38.164C56.7603 38.3137 55.8309 38.1404 55.04 37.6745C54.5778 37.4079 54.1455 37.0924 53.7506 36.7334C53.5342 36.564 53.3083 36.3287 53.0824 36.131L52.3953 35.3687C51.4336 34.2203 50.562 32.9994 49.7883 31.7169C48.8942 30.2298 48.5836 29.6087 48.113 28.7146C47.6424 27.8204 47.3789 27.1616 46.993 26.4275C46.6071 25.6934 46.2024 25.0157 45.7789 24.3757C45.5139 23.9822 45.2214 23.608 44.9036 23.2557C44.677 23.0394 44.4633 22.81 44.2636 22.5687V22.5687V22.4557C44.2532 22.4156 44.2532 22.3735 44.2636 22.3334C44.2783 22.2779 44.2783 22.2195 44.2636 22.164V22.1075V22.1075C44.4142 22.9546 44.2636 22.3428 44.3389 22.531V22.531C44.3389 22.531 44.3389 22.531 44.3389 22.484V22.4087C44.3953 22.4651 44.3389 22.4087 44.2353 22.5028C43.9959 22.8373 43.8409 23.2248 43.7836 23.6322C43.6612 24.2251 43.3036 24.244 42.7765 23.6793C42.4099 23.278 42.1622 22.7827 42.0612 22.2487C41.9686 21.7741 42.0313 21.2824 42.24 20.8463C42.6063 20.114 43.311 19.6101 44.1224 19.5004C44.3542 19.4815 44.5871 19.4815 44.8189 19.5004C45.0003 19.5196 45.1798 19.5542 45.3553 19.604C45.5211 19.6488 45.6845 19.7022 45.8448 19.764L46.193 19.9334C46.5864 20.1041 46.9464 20.343 47.2565 20.6393C47.7144 21.1186 48.136 21.6314 48.5177 22.1734C49.1771 23.135 49.7744 24.1379 50.3059 25.1757L51.0212 26.6251C51.0871 26.7757 51.2189 27.011 51.3506 27.2463L51.7271 27.924L51.9624 28.2628L52.0565 28.4322C52.0565 28.4793 52.0565 28.4322 52.0565 28.4887V28.6487C52.0828 28.812 52.1238 28.9727 52.1789 29.1287C52.3227 29.5925 52.5706 30.0175 52.9036 30.371C53.0554 30.5294 53.2338 30.66 53.4306 30.7569C53.6257 30.8695 53.8661 30.8695 54.0612 30.7569C54.2099 30.6698 54.3231 30.5332 54.3812 30.371C54.3985 29.5455 54.2143 28.7282 53.8448 27.9898L53.7412 27.6981C53.7412 27.6416 53.7412 27.6322 53.6659 27.5193L53.5248 27.2181L52.9506 25.9381C52.5477 25.0223 52.2111 24.0787 51.9436 23.1146C51.7055 22.2738 51.6195 21.3973 51.6895 20.5263C51.7401 20.0125 51.8736 19.5104 52.0848 19.0393C52.2021 18.7747 52.3506 18.5251 52.5271 18.2957C52.7684 17.961 53.0928 17.695 53.4683 17.524C53.9194 17.3087 54.4291 17.2491 54.9177 17.3546C55.1056 17.3985 55.2885 17.4616 55.4636 17.5428C55.6055 17.6108 55.7437 17.6862 55.8777 17.7687C56.256 18.0438 56.6031 18.3594 56.913 18.7098C57.4495 19.3028 57.8542 19.8863 58.2777 20.3946C59.633 22.004 61.1012 23.5663 62.4848 24.9498C62.7864 25.2456 63.0693 25.5599 63.3318 25.891C63.7281 26.3294 64.0464 26.8323 64.273 27.3781C64.363 27.7905 64.363 28.2174 64.273 28.6298C64.273 28.8181 64.2165 29.0157 64.16 29.1663C64.1036 29.3169 63.8212 29.524 63.3789 29.5522C62.7489 29.6265 62.1114 29.5049 61.553 29.204C61.0824 28.9687 60.6118 28.7146 60.1506 28.4416L59.4918 28.0275C59.2809 27.8739 59.0797 27.7073 58.8895 27.5287C58.0895 26.851 57.3648 26.1357 56.6683 25.4393L54.6918 23.3122C54.3153 22.8887 54.0236 22.5498 53.7506 22.2675C53.6189 22.1357 53.4965 22.0134 53.4024 21.9381C53.372 21.9013 53.3333 21.8723 53.2895 21.8534V21.8534V21.8534C53.2895 21.8534 53.2895 21.8534 53.2895 21.8063L53.5153 21.524C53.7224 21.2322 53.92 20.884 54.0424 20.7146C54.1082 20.6033 54.1649 20.4868 54.2118 20.3663L54.2777 20.1875C54.3001 20.155 54.319 20.1203 54.3342 20.084C54.3663 20.0087 54.3884 19.9296 54.4 19.8487V19.6981V19.6981C54.4 19.6416 54.4 19.5193 54.4 19.604V19.604C54.4274 19.6595 54.4589 19.713 54.4942 19.764C54.5883 19.8863 54.6636 19.8957 54.88 20.1122C55.065 20.2734 55.2747 20.4037 55.5012 20.4981C55.7977 20.695 56.113 20.8621 56.4424 20.9969H56.4989V20.9969L55.9059 20.7334V20.7334H55.9718C56.0569 20.7671 56.1452 20.7924 56.2353 20.8087L56.5742 20.8746V20.8746C56.5575 20.9963 56.5575 21.1198 56.5742 21.2416C56.7501 22.3738 57.0993 23.4722 57.6095 24.4981L57.5342 24.5922Z" fill="black"/>
<path d="M41.3175 19.6323L42.7292 19.0958L43.3975 18.8511L43.7739 18.7099L45.308 18.1923C46.3339 17.8534 47.3598 17.524 48.4045 17.2511C50.4751 16.6111 52.5645 16.0275 54.6916 15.5099C56.2351 15.124 57.7598 14.6252 59.341 14.3523C60.0469 14.2487 60.7433 14.117 61.4586 14.0417C62.1739 13.9664 62.8798 13.9099 63.5951 13.8911C65.0257 13.8064 66.4186 13.7875 67.9151 13.8911C68.6869 13.9061 69.457 13.969 70.221 14.0793C70.437 14.1088 70.6509 14.1528 70.861 14.2111C71.0963 14.2675 71.2939 14.3052 71.5386 14.3805L72.301 14.644C72.5406 14.7481 72.7732 14.8676 72.9975 15.0017C73.4393 15.2559 73.8419 15.573 74.1928 15.9428C74.342 16.1533 74.4772 16.3734 74.5975 16.6017C74.7077 16.8323 74.799 17.0715 74.8704 17.317C75.1134 18.3285 75.1134 19.3831 74.8704 20.3946C74.4563 21.6746 74.0233 22.8605 73.6092 24.0087C73.1951 25.157 72.7622 26.2487 72.3951 27.3499C71.5281 30.1148 70.8984 32.9486 70.5128 35.8205C70.3904 36.7052 69.7598 36.7052 68.9786 35.9146C68.4882 35.4022 68.0986 34.8019 67.8304 34.1452C67.4513 33.3052 67.305 32.3788 67.4069 31.4628C67.8494 28.2143 68.6447 25.0237 69.7786 21.9475C70.0045 21.2417 70.221 20.5546 70.3716 19.9428L70.4657 19.5099C70.4657 19.4534 70.4657 19.5099 70.4657 19.444C70.4982 19.4013 70.5236 19.3536 70.541 19.3028C70.5878 19.176 70.5665 19.0339 70.4845 18.9264C70.4186 18.8605 70.4186 18.8134 70.268 18.757L69.9575 18.6628L69.5245 18.6064C69.1315 18.5544 68.735 18.5324 68.3386 18.5405L67.021 18.6346C66.0798 18.7193 65.2233 18.8323 64.3198 19.0017C62.5222 19.3687 60.7151 19.7452 58.8986 20.1499C54.8575 21.0627 50.8753 22.2193 46.9739 23.6134L45.3739 24.197L44.4328 24.4981L43.4916 24.837C43.3248 24.8899 43.1614 24.9527 43.0022 25.0252C42.9175 25.1852 43.0586 25.3358 43.1339 25.4675C43.4374 25.8629 43.7777 26.2284 44.1504 26.5593L44.7433 27.0864L45.0539 27.3499L45.6092 27.7828C47.1218 28.9705 48.6992 30.0734 50.3339 31.0864C52.877 32.5826 55.5517 33.8427 58.3245 34.8511C58.9269 35.0864 59.5292 35.2464 60.1128 35.4723C62.2869 36.2723 62.7669 36.677 62.9363 38.164C62.9981 38.4971 63.0421 38.8333 63.068 39.1711C63.1152 39.7561 62.7641 40.3001 62.2116 40.4981C61.4282 40.7784 60.5782 40.8145 59.7739 40.6017C53.948 39.3028 48.9598 36.1687 44.0751 32.8181L42.7386 31.877L42.0704 31.3687C41.8654 31.2162 41.6482 31.0808 41.421 30.964C41.1857 30.8228 40.9504 30.6911 40.7151 30.5311C39.7536 29.9477 38.8436 29.2833 37.9951 28.5452L37.4116 27.9899C37.261 27.7923 37.101 27.604 36.9692 27.4158C36.7142 27.0645 36.4995 26.6856 36.3292 26.2864C36.04 25.6331 35.914 24.9192 35.9622 24.2064C35.9708 24.0324 35.9928 23.8593 36.028 23.6887C36.0617 23.4974 36.1089 23.3087 36.1692 23.124L36.781 22.2958L37.4022 21.477L37.5528 21.2699C37.6186 21.204 37.628 21.1287 37.7692 21.0817L38.4657 20.7711C39.4069 20.357 40.2916 19.924 41.2328 19.5193L41.3175 19.6323Z" fill="black"/>
<path d="M67.5855 63.8203C67.24 64.2678 66.8235 64.6557 66.3526 64.9685C65.9484 65.2275 65.5158 65.4391 65.0632 65.5991C64.6886 65.7209 64.2991 65.7906 63.9055 65.8062C63.5906 65.8 63.2763 65.7749 62.9644 65.7309C62.4725 65.7331 61.9823 65.673 61.5055 65.552C60.5322 65.2283 59.6858 64.6059 59.0867 63.7732C58.5497 63.0294 58.296 62.1182 58.3714 61.2038C58.4303 60.5606 58.5727 59.9279 58.7949 59.3215C58.9776 58.5523 59.5602 57.941 60.3197 57.7215C60.5738 57.6744 60.9502 58.2579 61.3361 58.8885C61.722 59.5191 62.202 60.1873 62.2773 60.3285C62.3089 60.439 62.3634 60.5416 62.4373 60.6297C62.4373 60.6297 62.5126 60.6862 62.522 60.705C62.5314 60.7238 62.6538 60.705 62.522 60.705C62.2971 60.6806 62.0702 60.7266 61.8726 60.8367C61.9216 60.7695 61.9626 60.6969 61.9949 60.6203C62.0608 60.5167 62.0797 60.3003 62.0985 60.3191C62.1173 60.3379 62.0985 60.3191 62.1738 60.3191C62.2491 60.3191 62.4938 60.3191 62.5597 60.3191C62.6255 60.3191 62.7008 60.385 62.682 60.4038C62.7144 60.4882 62.7588 60.5674 62.8138 60.6391C62.8664 60.7008 62.9137 60.7669 62.9549 60.8367C62.9549 60.8367 63.1149 60.9873 63.1055 60.9873H63.162C63.1311 60.9798 63.0988 60.9798 63.0679 60.9873C63.0679 60.9873 62.9361 60.9873 62.8891 60.9873C62.842 60.9873 62.8891 60.9873 62.8891 60.9873L62.9738 60.9403C63.0177 60.8798 63.0525 60.8132 63.0773 60.7426C63.1024 60.5625 63.055 60.3797 62.9455 60.2344C62.7573 59.9803 62.3526 60.0273 62.0985 59.9803C62.0326 59.9803 61.9667 59.9803 61.9102 59.9803C61.7032 59.8956 61.6655 59.6226 61.6467 58.6909V58.0603C61.529 57.4518 61.7937 56.8331 62.3149 56.4979C64.1615 55.8048 66.2442 56.401 67.4444 57.9662C67.7338 58.3009 67.9746 58.6748 68.1597 59.0767C68.3753 59.5331 68.5243 60.018 68.602 60.5167C68.6541 60.7967 68.6541 61.0839 68.602 61.3638C68.5786 61.6565 68.5281 61.9463 68.4514 62.2297C68.2958 62.8354 68.0345 63.4089 67.6797 63.9238L67.5855 63.8203Z" fill="black"/>
<path d="M18.0789 22.8041C17.5229 22.7644 16.9782 22.6274 16.4695 22.3994C16.0342 22.2133 15.6258 21.9696 15.2554 21.6747C14.9623 21.4301 14.7055 21.1448 14.4931 20.8276C14.3238 20.5572 14.1759 20.274 14.0507 19.9806C13.7963 19.5779 13.594 19.1446 13.4484 18.6912C13.222 17.724 13.3042 16.7103 13.6836 15.7923C14.0359 14.9652 14.6787 14.2956 15.4907 13.91C16.0479 13.6273 16.6395 13.4185 17.2507 13.2888C17.9651 13.0426 18.757 13.2089 19.3119 13.7217C19.4813 13.91 19.1801 14.5406 18.8601 15.1994C18.5401 15.8582 18.2484 16.63 18.1919 16.7617C18.127 16.847 18.0849 16.9474 18.0695 17.0535C18.0593 17.0873 18.0593 17.1233 18.0695 17.157C18.0834 17.0953 18.0866 17.0316 18.0789 16.9688C17.9886 16.7768 17.8361 16.6209 17.646 16.5264C17.5801 16.5264 17.646 16.5264 17.8813 16.5264C18.0248 16.4984 18.1663 16.4606 18.3048 16.4135C18.3707 16.4135 18.3048 16.4135 18.3801 16.4135C18.4554 16.4135 18.5307 16.6488 18.5307 16.6959C18.5307 16.7429 18.5307 16.6959 18.5307 16.7523V16.7994L18.4648 16.8747C18.3649 17.0346 18.2829 17.2051 18.2201 17.3829C18.2116 17.4454 18.2116 17.5087 18.2201 17.5712C18.21 17.5919 18.21 17.6162 18.2201 17.637C18.2255 17.6091 18.2255 17.5803 18.2201 17.5523C18.2039 17.4968 18.1818 17.4432 18.1542 17.3923V17.3359V17.2888L18.2295 17.3453C18.295 17.3552 18.3617 17.3552 18.4272 17.3453C18.5815 17.2882 18.7046 17.1685 18.766 17.0159C18.8695 16.7617 18.6154 16.4794 18.5307 16.2723C18.5307 16.2723 18.4366 16.1876 18.4366 16.1312C18.4366 15.9335 18.6248 15.7547 19.3778 15.2464L19.8954 14.8982C20.3554 14.5031 21.0058 14.4181 21.5519 14.6817C23.1003 15.804 23.712 17.82 23.0484 19.6135C22.9266 20.0263 22.7459 20.4194 22.5119 20.7806C22.2549 21.1981 21.9378 21.5755 21.5707 21.9006C21.3732 22.0944 21.1399 22.2479 20.8836 22.3523C20.6268 22.4847 20.3592 22.5949 20.0836 22.6817C19.4965 22.8662 18.8822 22.9489 18.2672 22.9264L18.0789 22.8041Z" fill="black"/>
<path d="M87.2564 45.4675C86.7797 46.2295 86.136 46.8732 85.374 47.3499C85.01 47.5844 84.6257 47.786 84.2258 47.9522C83.8118 48.1129 83.3831 48.2326 82.9458 48.3099C82.6352 48.3758 82.334 48.3946 82.0046 48.4416C81.6939 48.503 81.3741 48.503 81.0634 48.4416C80.562 48.3653 80.0759 48.2096 79.6234 47.9805C79.2207 47.7349 78.8425 47.4512 78.494 47.1334C77.8453 46.5419 77.3011 45.845 76.8846 45.0722C76.474 44.3618 76.2325 43.5663 76.1787 42.7475C76.1909 42.4571 76.2224 42.1679 76.2728 41.8816C76.3665 41.6027 76.4895 41.3345 76.6399 41.0816C76.8186 40.8744 77.0172 40.6853 77.2328 40.5169C77.4502 40.4036 77.6811 40.3182 77.9199 40.2628C78.2305 40.1969 78.3905 40.6487 78.5693 41.204C78.6634 41.4769 78.7764 41.7781 78.8799 42.0228C78.9552 42.2088 79.0747 42.3735 79.2281 42.5028C79.1717 42.5028 79.2281 42.5028 79.1622 42.5028V42.5028H79.2375H79.3881H79.4634H79.614C79.7043 42.492 79.7928 42.4699 79.8775 42.4369C79.8775 42.4369 80.0093 42.4369 80.0375 42.4369C80.0658 42.4369 80.3105 42.7758 80.5175 43.1334C80.6761 43.3025 80.9129 43.3743 81.1387 43.3216C81.3145 43.347 81.4878 43.388 81.6564 43.444C81.8176 43.5107 81.9901 43.5458 82.1646 43.5475C82.4097 43.5213 82.6451 43.4374 82.8517 43.3028C83.1246 43.1428 83.2469 43.0581 83.3034 42.9358C83.3599 42.8134 83.3034 42.2205 82.7764 41.9946C82.3498 41.8892 81.8985 41.9941 81.5622 42.2769C81.4869 42.2769 81.4211 42.4275 81.3552 42.4463C81.1105 42.5405 80.9411 42.2863 80.414 41.2322L80.0281 40.5263C79.5542 39.9043 79.5737 39.037 80.0752 38.4369C80.94 37.7426 82.038 37.4058 83.1434 37.4958C84.4035 37.5992 85.5883 38.1383 86.494 39.0205C87.3372 39.8045 87.8938 40.8481 88.0752 41.9852C88.2683 43.182 88.0423 44.4088 87.4352 45.4581L87.2564 45.4675Z" fill="black"/>
</svg>
