<svg width="96" height="96" viewBox="0 0 96 96" fill="none" xmlns="http://www.w3.org/2000/svg">
<path d="M27.7737 73.4034C27.4443 72.4623 27.1149 71.6058 26.8325 70.6552C26.6728 70.161 26.5409 69.6582 26.4372 69.1493C26.4372 69.0176 26.3808 68.8387 26.3525 68.6787V68.1329C26.3565 67.7776 26.4007 67.424 26.4843 67.0787C26.6662 66.2015 27.046 65.3774 27.5949 64.6693C28.4735 63.6751 29.4911 62.8128 30.6161 62.1093C31.6608 61.4129 32.7431 60.8199 33.8161 60.227C34.889 59.634 35.6984 59.1917 36.6396 58.7305C37.8232 58.0568 39.0884 57.538 40.4043 57.187C40.8278 57.0929 40.9408 57.5164 40.7996 58.0717C40.6245 58.7572 40.2107 59.3579 39.6325 59.7658C38.4749 60.4623 37.3643 61.2152 36.2161 61.874L32.7525 63.7564C31.4531 64.5138 30.358 65.5767 29.562 66.8529C29.3867 67.1082 29.2563 67.3914 29.1761 67.6905C29.1052 67.9716 29.1052 68.2659 29.1761 68.547C29.377 69.405 29.6284 70.2504 29.929 71.0787C30.3028 72.1381 30.7301 73.1779 31.209 74.194C31.8877 75.7492 32.7068 77.2393 33.6561 78.6458C34.3874 79.6477 35.2851 80.5167 36.3102 81.2152C36.5172 81.347 36.7337 81.4505 36.9125 81.5446C37.2702 81.7329 37.4114 81.8458 37.4772 82.0623C37.56 82.3703 37.6136 82.6854 37.6372 83.0034C37.6372 83.1823 37.722 83.3611 37.7502 83.5211C37.8113 83.8244 37.6807 84.1343 37.4208 84.3023C37.2511 84.4617 37.0318 84.5581 36.7996 84.5752C36.5295 84.6307 36.2509 84.6307 35.9808 84.5752C34.569 84.0746 33.3219 83.1955 32.3761 82.034C31.5002 81.0126 30.7336 79.9022 30.089 78.7211C29.1486 77.0137 28.3278 75.2432 27.6325 73.4223L27.7737 73.4034Z" fill="black"/>
<path d="M57.5631 43.172C58.1241 45.0316 59.1473 46.7186 60.5372 48.0755C60.8101 48.3296 61.0831 48.5649 61.3654 48.7908C61.6478 49.0167 61.9866 49.1861 62.3066 49.4026C64.1889 50.9273 66.8901 51.3696 69.6195 51.2849C70.8307 51.2063 72.0203 50.9263 73.1395 50.4567C73.8341 50.1614 74.5044 49.8121 75.1442 49.412C75.756 49.0167 76.4148 48.6779 77.0266 48.2355C77.4031 47.9908 77.8642 48.3202 78.0242 49.0637C78.1262 49.5125 78.1068 49.9803 77.9678 50.419C77.8253 50.9538 77.5153 51.4288 77.0831 51.7743C73.923 54.0475 69.9852 54.9625 66.1466 54.3155C64.9808 54.1038 63.8324 53.8049 62.7113 53.4214C62.1257 53.2128 61.5589 52.9546 61.0172 52.6496C60.5372 52.339 60.076 52.019 59.5866 51.7085C57.5623 50.1718 55.9464 48.1616 54.8807 45.8543C54.5535 45.1489 54.292 44.4148 54.0995 43.6614C53.996 43.2849 53.9584 42.8896 53.8831 42.5132C53.8031 42.132 53.7558 41.7447 53.7419 41.3555C53.5777 39.005 54.0905 36.6566 55.2195 34.5885C56.0311 32.976 57.1727 31.5523 58.5701 30.4096C58.8901 30.1743 59.2195 29.9579 59.5113 29.7508C60.8289 29.0826 61.3937 29.2237 61.9019 29.6943C62.0186 29.797 62.1287 29.907 62.2313 30.0237C62.3681 30.2527 62.3681 30.5383 62.2313 30.7673C62.0681 31.1342 61.8196 31.4569 61.5066 31.7085C60.9513 32.0943 60.5654 32.7343 60.0854 33.1014C59.8595 33.3273 59.6807 33.5908 59.4642 33.8167C59.2441 34.033 59.0485 34.2729 58.8807 34.532C58.7113 34.7955 58.5419 35.0402 58.3631 35.2849C58.1842 35.5296 58.0995 35.8308 57.9489 36.0943C57.7984 36.3579 57.8078 36.3579 57.7419 36.499L57.6007 36.9226C57.5254 37.2143 57.3748 37.4779 57.3278 37.779C56.8937 39.5601 56.9952 41.4296 57.6195 43.1532L57.5631 43.172Z" fill="black"/>
<path d="M34.5318 27.7393C34.1559 27.0852 33.7378 26.4564 33.28 25.8569C32.7624 25.2546 32.2259 24.6522 31.6424 24.0687C31.2376 23.6451 30.7012 23.3251 30.2965 22.9016C28.7812 21.3769 27.2 19.9181 25.5341 18.4969C24.8108 17.8623 24.0502 17.2715 23.2565 16.7275C22.1991 16.0837 21.22 15.3194 20.3388 14.4498C20.0753 14.1581 20.3388 13.791 20.9129 13.5087C21.55 13.1929 22.2827 13.129 22.9647 13.3298C24.1412 13.8287 25.3082 14.3557 26.4282 14.9675C26.9969 15.2594 27.5413 15.5961 28.0565 15.9746C28.5553 16.3887 28.9976 16.8122 29.5059 17.2734C30.6071 18.3746 32.0376 19.1557 33.2706 20.0969C34.6472 21.2253 35.9605 22.4287 37.2047 23.7016C37.5906 24.1346 37.9671 24.5487 38.3435 25.0098L38.9082 25.7251C39.0965 25.9604 39.2659 26.2804 39.4447 26.5534C39.7412 27.0529 39.9572 27.5961 40.0847 28.1628C40.1694 28.6051 40.2353 29.0475 40.2824 29.5275C40.4015 30.58 40.2923 31.6457 39.9624 32.6522C39.6947 33.5116 39.3014 34.3267 38.7953 35.071C38.5594 35.4201 38.3049 35.7563 38.0329 36.0781C37.7687 36.3637 37.4823 36.628 37.1765 36.8687C36.9322 37.0855 36.6744 37.2867 36.4047 37.471C35.3788 38.0263 34.88 37.744 34.0518 36.3887C33.8635 36.0781 33.6565 35.7675 33.4965 35.4475C32.9667 34.5979 32.8892 33.5418 33.2894 32.624C33.6865 31.9582 34.0448 31.27 34.3624 30.5628C34.357 30.538 34.357 30.5123 34.3624 30.4875V30.4875C34.3624 30.4875 34.6259 30.6287 34.4941 30.5816L34.3153 30.5157V30.5157C34.3153 30.5157 34.3153 30.4028 34.4 30.3181L34.5035 30.0263L34.5976 29.6216L34.6541 29.151V29.151L36.0941 28.9063H35.9059H35.6894C35.5464 28.9287 35.4049 28.9601 35.2659 29.0004L34.8706 29.1322C34.7765 29.1322 34.8141 29.1322 34.8141 29.1322V29.1322C34.9176 29.1793 34.8141 29.0098 34.8141 28.9251C34.8312 28.8128 34.8312 28.6986 34.8141 28.5863C34.7164 28.2774 34.5838 27.9805 34.4188 27.7016L34.5318 27.7393Z" fill="black"/>
<path d="M35.3224 27.3992C32.3295 24.5757 29.1389 21.8368 25.8636 19.2862C24.6683 18.3451 23.3789 17.5827 22.1648 16.7168C21.6283 16.3404 21.1012 15.9545 20.5554 15.6062L20.1506 15.3521L19.953 15.2298L19.8871 15.1733L19.6706 14.9945C19.4784 14.8563 19.2736 14.7365 19.0589 14.6368C18.9454 14.5796 18.8187 14.5536 18.6918 14.5615C18.5601 14.5615 18.5601 14.7215 18.513 14.8157C18.4659 14.9098 18.3718 15.2486 18.2965 15.5027C18.2508 15.6242 18.2193 15.7505 18.2024 15.8792C18.1459 16.1615 18.0895 16.5192 18.033 16.8204C17.8165 18.138 17.6283 19.4745 17.4495 20.8204C17.1483 23.2015 17.0071 25.6204 16.8471 28.0204C16.7436 29.5733 16.6871 31.1168 16.5083 32.7262C16.4078 33.5162 16.2569 34.299 16.0565 35.0698C15.9436 35.4651 15.8401 35.8509 15.7083 36.2462C15.5765 36.6415 15.4259 37.0368 15.2189 37.4604C14.5883 38.5804 14.0801 37.8557 13.553 36.9239C12.7723 35.6833 12.319 34.265 12.2354 32.8015C12.3859 29.7804 12.5083 26.6557 12.7154 23.5215C12.8283 21.9404 12.9601 20.3686 13.1483 18.7686C13.233 17.978 13.3459 17.178 13.4683 16.3686L13.6942 14.9757C13.7582 14.2789 13.8682 13.5872 14.0236 12.9051L14.353 11.8039L14.513 11.2486C14.5695 11.0604 14.6918 10.9851 14.7765 10.8533C15.1718 10.3733 15.3789 9.78036 16.1224 9.55448C17.5319 9.23829 19.0084 9.44921 20.273 10.1474C20.6401 10.298 21.0071 10.4862 21.3742 10.6651L22.3154 11.1827L23.7177 11.9639C24.6024 12.4627 25.4589 12.9804 26.2871 13.5262C29.9201 15.9262 33.3554 18.5333 36.7154 21.2439C37.7506 22.0721 38.7765 22.9286 39.793 23.8039L40.5459 24.4721C40.6871 24.5851 40.7812 24.6886 40.9412 24.8109L41.4871 25.3098C42.2163 25.9227 42.8759 26.6139 43.4542 27.3709C43.5859 27.5686 43.6989 27.7568 43.8118 27.9545C43.9658 28.2174 44.0651 28.5087 44.1036 28.8109C44.1608 29.1241 44.1447 29.4462 44.0565 29.7521C43.8774 30.3819 43.5874 30.9748 43.2001 31.5027C42.8145 32.0582 42.3798 32.5779 41.9012 33.0557L41.1671 33.7709L40.5554 34.298C39.0114 35.56 37.3962 36.7321 35.7177 37.8086C33.105 39.6622 30.3334 41.2811 27.4354 42.6462C26.7765 42.9286 26.1365 43.2486 25.4306 43.4745C24.8793 43.6539 24.312 43.7799 23.7365 43.8509C23.3165 43.8843 22.8941 43.8331 22.4942 43.7004C21.8228 43.4742 21.281 42.9702 21.0071 42.3168C20.8278 42.0163 20.6736 41.7015 20.5459 41.3757C20.2636 40.2745 21.1106 39.258 22.4942 38.3168C24.6871 37.2062 26.8801 35.9262 29.0824 34.5521C30.1648 33.8462 31.2848 33.2157 32.3859 32.5286C33.4871 31.8415 34.5506 31.1262 35.5577 30.3921C35.9718 30.0815 36.3765 29.7615 36.753 29.4509C37.1295 29.1404 36.9318 29.3192 36.9506 29.3004V29.3004C36.9778 29.3113 37.0082 29.3113 37.0354 29.3004C37.0438 29.2695 37.0438 29.237 37.0354 29.2062V29.2062L36.9412 29.1121L36.7248 28.9051L36.2354 28.4439L35.2377 27.5027L35.3224 27.3992Z" fill="black"/>
<path d="M65.478 56.5753C60.567 55.9471 56.171 53.2167 53.431 49.093C52.3924 47.6492 51.624 46.0294 51.1627 44.3118C50.7756 42.7748 50.6704 41.1804 50.8521 39.6059C51.0113 38.0529 51.4413 36.5399 52.1227 35.1353C52.7531 33.7493 53.6086 32.4772 54.6545 31.3706C55.6431 30.2834 56.7732 29.3337 58.0145 28.5471C60.1089 27.1434 62.4397 26.1295 64.8945 25.5541C66.5149 25.143 68.2006 25.0566 69.8545 25.3C71.597 25.5625 73.173 26.4819 74.2592 27.8694C74.9086 28.7447 74.2592 28.9894 73.2333 29.0553C72.6375 29.0871 72.0438 29.1499 71.4545 29.2436C70.8566 29.3366 70.2525 29.3838 69.6474 29.3847C68.5075 29.35 67.3711 29.5288 66.2968 29.9118C65.1486 30.2977 64.0286 30.853 62.871 31.3706C62.2968 31.6436 61.7415 31.9541 61.2051 32.2647C60.6941 32.5827 60.2008 32.9283 59.7274 33.3C58.7779 34.0456 57.9271 34.909 57.1957 35.8694C56.296 37.0359 55.768 38.446 55.6804 39.9165C55.5948 41.3944 55.8491 42.8722 56.4239 44.2365C56.7423 45.0214 57.1396 45.7719 57.6098 46.4765C58.0861 47.164 58.6386 47.7955 59.2568 48.3588C60.5386 49.5463 62.0644 50.4393 63.7274 50.9753C64.7702 51.3178 65.8514 51.5296 66.9463 51.6059C68.0584 51.6702 69.1742 51.5975 70.2686 51.3894C71.8831 51.1217 73.4115 50.4768 74.7298 49.5071C76.0141 48.507 76.9923 47.1669 77.5533 45.6388C78.3599 43.2522 78.2898 40.6562 77.3557 38.3165C77.158 37.8365 76.951 37.3753 76.7439 36.9518C76.4472 36.4025 76.2437 35.8077 76.1415 35.1918C76.1648 34.6253 76.2991 34.0689 76.5368 33.5541C76.6592 33.253 76.7251 32.9141 76.8474 32.613C77.0639 32.0945 77.6123 31.7968 78.1651 31.8977C79.1065 32.0009 79.9708 32.4668 80.5745 33.1965C81.1517 33.8231 81.6539 34.5148 82.071 35.2577C82.4836 35.9788 82.8 36.7508 83.0121 37.5541C83.5166 39.1602 83.7395 40.8415 83.671 42.5236C83.5334 46.0855 82.1321 49.482 79.718 52.1047C77.8707 54.0895 75.498 55.5092 72.8757 56.1988C71.6647 56.5336 70.4217 56.7386 69.1674 56.8106C67.9352 56.9059 66.6967 56.8839 65.4686 56.7447L65.478 56.5753Z" fill="black"/>
<path d="M25.3175 74.8438C24.5457 73.4603 23.821 72.0203 23.134 70.5991L22.8422 69.9685C22.701 69.6485 22.5504 69.3285 22.4187 69.0273C22.2869 68.7262 22.174 68.3685 22.061 68.0862C21.9481 67.8038 21.694 67.4367 21.6752 67.145C21.4598 66.536 21.4598 65.8716 21.6752 65.2626C21.7892 64.9808 21.9446 64.7175 22.1363 64.4814C22.3504 64.2471 22.5766 64.024 22.814 63.8132C23.1999 63.5591 23.5669 63.2862 23.9716 63.0509L24.5646 62.6932L25.054 62.4109L26.494 61.6485C27.8775 60.9426 29.1857 60.1614 30.5693 59.5403C33.0257 58.4485 35.5104 57.4414 38.0987 56.5379C39.3787 56.0862 40.6493 55.5967 42.0328 55.2956L42.5599 55.1732C42.7988 55.1136 43.0407 55.0665 43.2846 55.032C43.7727 54.925 44.272 54.8776 44.7716 54.8909C45.0087 54.8839 45.2458 54.906 45.4775 54.9567C45.719 54.9923 45.952 55.072 46.1646 55.192C46.5817 55.4307 46.9465 55.7508 47.2375 56.1332L47.6234 56.6697L47.9528 57.2438L48.254 57.8367L48.4987 58.3826C48.7528 58.9567 48.9787 59.5309 49.1952 60.0956C49.6281 61.225 50.0328 62.3356 50.4281 63.4273C51.5168 66.1076 52.4316 68.8553 53.1669 71.6532C53.2774 71.9685 53.1517 72.3181 52.8657 72.4909C52.4467 72.7346 51.9439 72.7893 51.4822 72.6414C50.7485 72.4666 50.0573 72.1466 49.4493 71.7003C49.105 71.4431 48.7895 71.1497 48.5081 70.825C48.238 70.4803 48.0163 70.1003 47.8493 69.6956C46.6822 66.8062 45.7316 63.9073 44.7057 61.2909L44.3199 60.3497L44.2634 60.2462V60.2462V60.0579C44.2634 59.992 44.2634 59.8509 44.1787 59.8038C44.1354 59.7744 44.0878 59.7522 44.0375 59.7379H43.934L43.454 59.8603L41.3175 60.3403C37.901 61.2814 34.5504 63.0603 31.2657 64.6509C30.4093 65.0744 29.5528 65.4979 28.7152 65.9403L27.4728 66.5991L26.9269 66.8909L26.6446 67.0509C26.5316 67.1073 26.5693 67.2485 26.5787 67.3332C26.6219 67.5436 26.6785 67.7511 26.7481 67.9544L26.8704 68.2744L27.1622 68.9614C27.3693 69.432 27.5857 69.9026 27.8116 70.392C28.3387 71.5026 28.9034 72.6132 29.4963 73.705C30.0893 74.7967 30.7763 75.8509 31.4446 76.905C32.2517 78.1585 33.1251 79.368 34.061 80.5285C34.4538 81.0082 34.8783 81.4609 35.3316 81.8838C35.6328 82.1662 36.0846 82.4767 36.5081 82.2132C36.6116 82.2132 36.7057 82.1379 36.8093 82.1097L36.9599 82.0438L37.2046 81.9309L38.2022 81.4791C40.8469 80.2085 43.3504 78.6556 46.0987 77.3567C46.6916 77.065 47.294 76.7638 47.981 76.5097C50.381 75.5685 51.4916 75.8509 52.1881 77.0744C52.3601 77.3135 52.5023 77.5726 52.6116 77.8462C52.7386 78.3245 52.6225 78.8346 52.301 79.2109C52.1224 79.4442 51.9171 79.6558 51.6893 79.8414C51.3968 80.063 51.0813 80.2524 50.7481 80.4062C48.8657 81.3473 46.7952 82.4579 44.6775 83.512C43.6234 84.0485 42.5504 84.6038 41.421 85.1026L39.6987 85.865L38.7575 86.2414C38.701 86.2414 38.5128 86.2979 38.381 86.3544L37.9481 86.5144L37.0822 86.825C35.96 87.0936 34.7772 86.9111 33.7881 86.3167C33.3458 86.0681 32.9323 85.7714 32.5552 85.432C32.3669 85.2532 32.1693 85.0932 31.9904 84.905C31.8568 84.7812 31.7311 84.6492 31.614 84.5097C31.181 84.0485 30.8046 83.5685 30.4469 83.145C29.741 82.2038 29.1199 81.3191 28.5646 80.4062C28.0093 79.4932 27.4257 78.5238 26.8893 77.6391L26.0987 76.2462L25.2799 74.872L25.3175 74.8438Z" fill="black"/>
</svg>
