<svg width="96" height="96" viewBox="0 0 96 96" fill="none" xmlns="http://www.w3.org/2000/svg">
<path d="M39.4629 30.2845C39.2935 38.1998 36.7523 36.9763 33.5523 39.2257C30.3523 41.4751 23.6417 39.0092 22.004 35.2633C20.3664 31.5175 23.4911 28.3269 23.4911 28.3269C22.8605 32.7128 27.2088 34.0963 29.5146 34.2751C35.8393 34.7645 37.2699 29.0139 37.2888 23.6963L39.4629 30.2845Z" fill="black"/>
<path d="M26.9075 36.29C29.0942 37.8361 31.9689 38.0076 34.3239 36.7323C35.126 36.1761 35.8025 35.4579 36.3098 34.6241C38.3804 31.9606 37.3075 27.2735 35.3686 23.2453C34.4733 21.4222 33.4512 19.6641 32.3098 17.9841L30.051 14.737C29.6745 14.1817 29.3169 13.6264 28.9686 13.0523C28.6317 12.4482 28.3422 11.8189 28.1028 11.17C27.8016 10.3606 28.2534 10.2288 29.1569 10.4453C29.7293 10.5932 30.2894 10.7852 30.8322 11.0194C31.4819 11.337 32.0612 11.7819 32.5357 12.3276C34.3611 14.4193 36.0583 16.6193 37.6181 18.9159C39.2215 21.3808 40.3987 24.0979 41.1004 26.9535C41.5936 28.8471 41.7685 30.8096 41.6181 32.7606C41.5034 33.8191 41.2272 34.8539 40.7992 35.8288C40.3799 36.7712 39.8285 37.649 39.1616 38.4359C37.6794 40.1813 35.6718 41.3998 33.4392 41.9088C31.2886 42.3823 29.0494 42.2586 26.9639 41.5512C24.382 40.7028 22.2102 38.9203 20.8745 36.5535C19.9029 34.7256 19.5559 32.63 19.8863 30.5864C20.2607 28.7401 20.9246 26.9644 21.8534 25.3253C23.1145 22.897 24.3192 20.5253 25.2039 18.2947C25.3639 17.8147 25.5334 17.3535 25.6463 16.8829C25.7028 16.6759 25.7781 16.4876 25.8345 16.3276C25.8627 16.1862 25.9037 16.0476 25.9569 15.9135C26.0373 15.7154 26.1485 15.5311 26.2863 15.3676C26.6721 15.0307 27.1196 14.7718 27.6039 14.6053C27.9051 14.4735 28.1969 14.2759 28.4886 14.1441C28.9823 13.876 29.5976 14.0079 29.9381 14.4547C30.2071 14.7427 30.3954 15.0965 30.4839 15.4806C30.6219 15.9505 30.6698 16.4423 30.6251 16.93C30.496 18.3638 30.1303 19.7663 29.5428 21.0806C29.0556 22.2544 28.4993 23.3984 27.8769 24.5064C26.7515 26.3698 25.7789 28.3213 24.9686 30.3417C24.1404 32.5075 24.9854 34.9553 26.9734 36.1488L26.9075 36.29Z" fill="black"/>
<path d="M70.2954 47.8952C69.8624 52.9211 66.9354 55.547 62.4554 54.8223C60.6668 54.5642 59.0745 53.5524 58.0813 52.0428C57.0881 50.5332 56.7891 48.6704 57.2601 46.9258C57.2601 46.9258 53.9848 57.2787 60.4977 60.4128C67.0107 63.547 70.126 60.2999 72.1212 55.5187C73.2813 52.8548 72.5364 49.7446 70.2954 47.8952V47.8952Z" fill="black"/>
<path d="M70.9083 61.2132C69.2018 62.2349 67.2502 62.7748 65.2612 62.7756C64.3191 62.8833 63.3657 62.8388 62.4377 62.6438C61.4751 62.4639 60.5433 62.1469 59.6706 61.7026C58.3633 61.0556 57.2157 60.1266 56.3106 58.9826C55.5432 58.0041 55.006 56.8654 54.7389 55.6509C54.461 54.5197 54.3095 53.3613 54.2871 52.1967C54.3223 50.0025 54.7002 47.8272 55.4071 45.7497C56.0092 43.99 56.7228 42.2704 57.5436 40.6014C58.4548 38.4287 59.856 36.496 61.6377 34.9544C62.2118 34.4744 62.7859 35.1144 63.1059 36.1403C63.507 37.2708 63.4667 38.5111 62.993 39.6132C61.9118 41.3798 60.9679 43.2268 60.1695 45.1379C59.4532 46.9858 58.9327 48.9038 58.6165 50.8603C58.5367 51.4379 58.5367 52.0238 58.6165 52.6014C58.6165 52.8932 58.6824 53.185 58.7295 53.4673L58.9836 54.2673C59.0965 54.8414 59.4918 55.2085 59.633 55.7732C59.8795 56.2387 60.1695 56.6798 60.4989 57.0909C61.2233 58.0507 62.2411 58.7479 63.3977 59.0767C64.0028 59.2916 64.6381 59.4092 65.2801 59.425C65.9276 59.3523 66.5615 59.1875 67.1624 58.9356C68.6107 58.3591 69.7715 57.2321 70.3906 55.8014C70.6105 55.2718 70.7562 54.7144 70.8236 54.145C70.8567 53.5664 70.8283 52.9858 70.7389 52.4132C70.5435 51.249 69.9715 50.181 69.1106 49.3732C68.3096 48.638 67.4641 47.9528 66.5789 47.3214C65.5657 46.56 64.674 45.6493 63.9342 44.6203C63.5683 44.1596 63.2528 43.6611 62.993 43.1332C62.8103 42.7131 62.6867 42.2697 62.6259 41.8156C62.6196 41.4919 62.6839 41.1707 62.8142 40.8744C63.0026 40.4091 63.3316 40.0142 63.7553 39.745C63.9126 39.6121 64.0829 39.4955 64.2636 39.3967C64.8001 39.1238 65.5342 39.8109 66.6165 40.6014C67.108 41.2277 67.6528 41.8103 68.2448 42.3426C68.7812 42.8791 69.4683 43.2838 70.1271 43.905C70.9763 44.594 71.7869 45.3292 72.5553 46.1073C73.5796 47.1575 74.3773 48.4068 74.8989 49.7779L75.1812 50.5967L75.3506 51.4156C75.4624 51.9575 75.5191 52.5093 75.5201 53.0626C75.505 53.6178 75.4515 54.1713 75.3601 54.7191C75.2647 55.2706 75.1198 55.8124 74.9271 56.3379C74.1864 58.386 72.7987 60.137 70.9742 61.3262L70.9083 61.2132Z" fill="black"/>
<path d="M41.6371 74.5687C39.1053 77.2981 37.4489 78.1076 35.6983 78.0229C29.4959 77.6181 29.5618 68.6111 31.4347 68.4229C31.4347 68.4229 27.5853 69.0158 26.4841 74.1546C25.383 79.2934 29.6936 83.9146 32.9594 83.8487C36.2253 83.7829 38.8606 83.8487 41.11 78.6064L41.6371 74.5687Z" fill="black"/>
<path d="M37.9757 85.6348C34.7372 86.666 31.2057 86.1709 28.3757 84.2889C27.9036 83.9666 27.4624 83.6011 27.058 83.1972C26.8604 82.9901 26.6439 82.7831 26.4745 82.576L26.0039 81.9736C25.0002 80.7406 24.3063 79.2851 23.9804 77.7289C23.7519 76.3148 23.8616 74.8667 24.3004 73.5031C24.6986 72.2914 25.276 71.1461 26.0133 70.1054C27.3637 68.2706 28.9136 66.5913 30.6345 65.0983C32.0745 63.7995 33.458 62.4819 34.7474 61.1642C35.5851 60.3172 36.3568 59.4325 37.1004 58.5948L37.6462 57.9831L38.2298 57.4372L39.3215 56.4113C39.698 56.0536 40.7051 56.2795 41.3827 57.3995C42.1612 58.7791 42.1068 60.4774 41.2415 61.8042C39.5268 63.6679 37.6906 65.416 35.7451 67.0372C33.9286 68.5995 32.1686 70.0772 30.6251 71.6301C29.7685 72.497 29.1243 73.5504 28.7427 74.7078C28.441 75.6978 28.4741 76.7596 28.8368 77.7289C28.9307 78.0183 29.057 78.2962 29.2133 78.5572C29.3598 78.8457 29.5331 79.1199 29.7309 79.376C29.9011 79.6249 30.0932 79.858 30.3051 80.0725C30.5108 80.2771 30.7344 80.463 30.9733 80.6278C32.0608 81.2733 33.3334 81.5351 34.5874 81.3713C35.3925 81.2987 36.1773 81.0786 36.9027 80.7219C37.6269 80.4008 38.2701 79.9216 38.7851 79.3195C38.9733 79.1031 39.0862 78.8489 39.2557 78.6231C39.4251 78.3972 39.4627 78.1054 39.4627 77.8042C39.4627 77.5031 39.6509 77.2207 39.6886 76.9195C39.7262 76.6183 39.7921 76.3172 39.7921 75.9783C39.8066 74.643 39.59 73.3152 39.1521 72.0536C38.8133 70.9901 38.2957 69.8983 37.8062 68.7313C37.261 67.5171 36.869 66.2399 36.6392 64.9289C36.5305 64.3077 36.4863 63.6769 36.5074 63.0466C36.4694 62.1387 36.8103 61.2557 37.4486 60.6089C37.684 60.4007 37.9642 60.2494 38.2674 60.1666C38.6066 60.0875 38.9546 60.0527 39.3027 60.0631C39.6161 60.0424 39.9305 60.0424 40.2439 60.0631C41.0721 60.176 42.0227 61.3336 42.4557 62.4348C42.6698 63.2207 42.9533 63.9861 43.3027 64.7219C43.5851 65.4936 43.8486 66.2842 44.2439 67.2066C44.6392 68.1289 44.9592 69.0889 45.3168 70.3407C45.7497 71.6789 46.0059 73.0679 46.0792 74.4725C46.0805 75.6808 45.919 76.8837 45.5992 78.0489C45.4186 78.6304 45.2081 79.2021 44.9686 79.7619C44.7037 80.3614 44.3889 80.9375 44.0274 81.4842C43.6439 82.004 43.219 82.4919 42.7568 82.9431C42.3249 83.3906 41.8522 83.7971 41.3451 84.1572C40.3914 84.848 39.3333 85.3818 38.2109 85.7383L37.9757 85.6348Z" fill="black"/>
</svg>
