<svg width="96" height="96" viewBox="0 0 96 96" fill="none" xmlns="http://www.w3.org/2000/svg">
<path d="M60.0794 18.3047C57.7613 17.154 55.2885 16.3456 52.7383 15.9047C51.7971 15.773 50.8559 15.773 49.9147 15.7259C46.4922 15.4658 43.0518 15.8783 39.7877 16.94C38.3307 17.4591 36.9355 18.1378 35.6277 18.9636C35.223 19.2365 34.7994 19.4906 34.3759 19.7447L33.143 20.5824C32.2959 21.1 31.4771 21.6741 30.5547 22.1259C29.9806 22.3989 29.5477 21.7965 29.4818 20.8459C29.3804 19.6815 29.797 18.5316 30.6206 17.7024C31.4571 16.9467 32.3438 16.2486 33.2747 15.613C34.2405 15.0163 35.2398 14.4758 36.2677 13.9941C38.3661 13.0649 40.5833 12.4314 42.8559 12.1118C45.5843 11.5971 48.3525 11.3231 51.1289 11.293C54.1738 11.4319 57.1824 12.0121 60.0606 13.0153C61.8141 13.6383 63.5138 14.4032 65.143 15.3024C67.5623 16.6911 69.8302 18.3281 71.91 20.1871C73.6356 21.5905 75.2125 23.1674 76.6159 24.893C76.969 25.2791 77.2842 25.6983 77.5571 26.1447C77.7383 26.5168 77.8651 26.913 77.9336 27.3212C77.9638 27.6394 77.9253 27.9604 77.8206 28.2624C77.6342 28.7346 77.2967 29.1318 76.8606 29.3918C76.6609 29.5377 76.4536 29.6728 76.2394 29.7965C75.543 30.1071 74.6583 29.6365 73.5947 29.0153C73.3406 28.7236 72.9453 28.4883 72.7288 28.1871C72.5124 27.8859 72.1924 27.613 71.9571 27.3212L71.1477 26.4647L70.31 25.6177C69.1466 24.4463 67.9079 23.3522 66.6018 22.3424C64.5961 20.7828 62.4092 19.4714 60.0888 18.4365L60.0794 18.3047Z" fill="black"/>
<path d="M83.4482 29.203C83.2477 30.5369 82.6622 31.7831 81.7635 32.7889C81.263 33.3198 80.6738 33.7593 80.0223 34.0878C79.4272 34.3782 78.7932 34.5811 78.14 34.6901C77.3446 34.8524 76.5318 34.9125 75.7212 34.8689C74.4726 34.7288 73.2423 34.4575 72.0506 34.0595C70.8929 33.7019 69.7729 33.2972 68.6812 32.8454C67.5894 32.3936 66.7235 32.1113 65.7635 31.7066C64.4639 31.2948 63.2715 30.6005 62.2718 29.6736C61.9612 29.3536 62.3753 28.9113 62.987 28.5913C63.5968 28.2138 64.3319 28.0952 65.0294 28.2619C67.26 29.1466 69.6412 29.796 71.9847 30.6054C73.3865 30.9934 74.8481 31.1178 76.2953 30.9725C76.892 30.9622 77.4783 30.814 78.0082 30.5395C78.2118 30.4249 78.3934 30.2752 78.5447 30.0972C78.7132 29.881 78.8583 29.6475 78.9776 29.4007C79.3193 28.5655 79.4797 27.6672 79.4482 26.7654C79.4273 25.1945 79.2091 23.6325 78.7988 22.116C78.5259 20.9019 77.9329 19.8007 77.6318 18.5866C77.5659 18.3136 77.4812 18.0501 77.4435 17.7772C77.2835 16.7325 77.3965 16.3372 77.7823 15.9701C77.8623 15.8837 77.9471 15.802 78.0365 15.7254C78.3282 15.5278 78.7706 15.8195 79.3259 16.4313L80.5588 17.8336C80.94 18.3269 81.277 18.8529 81.5659 19.4054C82.2659 20.4781 82.7783 21.662 83.0812 22.9066C83.6336 24.9603 83.7869 27.1009 83.5329 29.2125L83.4482 29.203Z" fill="black"/>
<path d="M21.0293 50.8039C20.9962 53.3666 21.4135 55.9151 22.2623 58.3333C22.6321 59.1938 23.05 60.0327 23.514 60.8463C24.2638 62.3556 25.1894 63.7709 26.2717 65.0627C26.8198 65.7193 27.401 66.3475 28.0128 66.9451C28.6623 67.5192 29.2928 68.1216 29.9987 68.6298C31.2485 69.5633 32.6076 70.3409 34.0458 70.9451C34.507 71.1333 34.987 71.3498 35.4105 71.5474C35.834 71.7451 36.3517 71.9051 36.8128 72.1027C37.7546 72.479 38.6752 72.9063 39.5705 73.3827C40.1258 73.7121 39.8623 74.3992 39.1093 74.9827C38.1947 75.7167 37.0058 76.0156 35.8528 75.8016C34.7546 75.5336 33.676 75.1908 32.6246 74.7757C31.5746 74.3196 30.5559 73.7945 29.5752 73.2039C27.5859 72.0074 25.7871 70.5195 24.2387 68.7898C22.2692 66.7489 20.533 64.495 19.0623 62.0698C17.6267 59.3024 16.687 56.305 16.2858 53.2133C16.0649 51.3393 16.0177 49.449 16.1446 47.5663C16.366 44.7473 16.9059 41.9625 17.754 39.2651C18.2993 37.1177 19.0267 35.0207 19.9281 32.9969C20.1302 32.5302 20.3628 32.0775 20.6246 31.6416C20.871 31.3194 21.159 31.0314 21.4811 30.7851C21.7443 30.6176 22.039 30.5055 22.347 30.4557C22.8766 30.3785 23.4168 30.4812 23.8811 30.7474C24.1091 30.8432 24.3294 30.9565 24.5399 31.0863C25.1611 31.5286 25.1987 32.5357 25.1046 33.8157L24.9258 34.4274C24.8901 34.6327 24.8268 34.8321 24.7376 35.0204C24.5681 35.378 24.4364 35.7639 24.2764 36.1404C23.9752 36.8933 23.6928 37.6557 23.4105 38.4369C22.8315 40.0095 22.3475 41.6156 21.9611 43.2463C21.3564 45.7086 21.0873 48.2413 21.1611 50.7757L21.0293 50.8039Z" fill="black"/>
<path d="M21.4909 25.2315C22.8536 24.6841 24.351 24.5659 25.7827 24.8927C27.238 25.3058 28.5032 26.2147 29.3591 27.4621C29.8682 28.1536 30.3005 28.8984 30.6486 29.6833C31.1249 30.9695 31.4718 32.3 31.6839 33.6551C31.9097 34.9539 32.0791 36.2433 32.1733 37.5327C32.2674 38.6715 32.3991 39.8103 32.4556 40.9492C32.656 42.4695 32.4481 44.0158 31.8533 45.4292C31.618 45.8809 31.0909 45.5703 30.6109 45.0527C30.0662 44.5604 29.7073 43.8958 29.5944 43.1703C29.4383 40.528 29.124 37.8974 28.6533 35.2927C28.342 33.7156 27.7421 32.2096 26.8839 30.8503C26.5824 30.2438 26.1481 29.713 25.6133 29.2974C25.1402 28.9903 24.5712 28.8665 24.0133 28.9492C23.026 29.0868 22.0795 29.4333 21.2368 29.9656C19.7551 30.8584 18.3841 31.9231 17.1521 33.1374C16.1356 34.0786 15.3921 35.208 14.3756 36.1492C14.1497 36.3562 13.9427 36.5727 13.698 36.7609C12.7568 37.4762 12.3333 37.5798 11.8156 37.4103C11.6984 37.3825 11.5847 37.3415 11.4768 37.288C11.1756 37.1186 11.2697 36.5821 11.5897 35.7633L12.3239 33.8809C12.5948 33.2693 12.9093 32.678 13.265 32.1115C13.9427 30.9064 14.7959 29.8089 15.7968 28.8551C17.4322 27.2642 19.3464 25.9881 21.4439 25.0903L21.4909 25.2315Z" fill="black"/>
<path d="M68.9264 68.5351C71.3023 67.2011 73.4063 65.4323 75.1287 63.321C75.7191 62.5067 76.2658 61.6616 76.7664 60.7892C78.7251 57.6867 79.9752 54.1903 80.4275 50.5492C80.5264 49.7248 80.5736 48.8949 80.5687 48.0645C80.5687 47.2363 80.484 46.4081 80.4087 45.5892C80.164 43.4716 79.7405 41.401 79.6087 39.2081C79.6087 38.521 80.324 38.3986 81.2181 38.7751C81.7361 39.001 82.2082 39.32 82.6111 39.7163C83.0957 40.1531 83.4479 40.7173 83.6275 41.3445C83.7875 41.9281 83.957 42.5022 84.0981 43.0857C84.2393 43.6692 84.3428 44.2716 84.4275 44.8739C84.5122 45.4763 84.5311 46.0786 84.5687 46.681C84.6015 47.2892 84.6015 47.8987 84.5687 48.5069C84.5754 50.96 84.1975 53.399 83.4487 55.7351C82.6407 58.6216 81.5204 61.4115 80.1075 64.0551C78.3749 66.8761 76.1423 69.3575 73.5193 71.3775C71.9173 72.6059 70.1806 73.6479 68.3428 74.4833C66.9626 75.1227 65.5338 75.6514 64.0699 76.0645C62.6111 76.4612 61.1311 76.7754 59.637 77.0057C57.3179 77.4296 54.9637 77.6313 52.6064 77.6081C52.0777 77.6145 51.5493 77.5831 51.0252 77.5139C50.6176 77.414 50.2205 77.2753 49.8393 77.0998C49.08 76.6349 48.6195 75.8066 48.6252 74.9163C48.6067 74.6656 48.6067 74.414 48.6252 74.1633C48.7083 73.7573 48.9715 73.411 49.3405 73.2222C49.848 72.9041 50.3999 72.6631 50.9781 72.5069C51.8698 72.3819 52.7696 72.3253 53.6699 72.3375C54.5452 72.3375 55.4205 72.281 56.2864 72.2057C58.0418 72.0948 59.7854 71.843 61.5005 71.4528C62.7811 71.1443 64.039 70.7481 65.2652 70.2669C66.5007 69.7603 67.6909 69.1495 68.8228 68.441L68.9264 68.5351Z" fill="black"/>
<path d="M46.423 81.8432C45.5249 81.3021 44.7154 80.6259 44.023 79.8385C43.2022 78.9343 42.6171 77.8417 42.3194 76.6573C42.0875 75.7305 42.0875 74.7607 42.3194 73.8338C42.7355 72.5511 43.4519 71.3863 44.4089 70.4362C45.1995 69.6032 46.0387 68.8175 46.9218 68.0832L49.143 66.2009C50.0309 65.3047 51.0862 64.5916 52.2489 64.1021C52.6347 63.9703 52.8983 64.5068 52.9641 65.1844C53.0891 65.8813 52.9073 66.5983 52.4653 67.1515C50.7618 68.7421 49.143 70.3985 47.5241 71.9703C47.0588 72.4252 46.685 72.9652 46.423 73.5609C46.2212 74.0089 46.1062 74.4912 46.0841 74.9821C46.0643 75.4387 46.1967 75.8889 46.4606 76.2621C46.824 76.7641 47.2547 77.2138 47.7406 77.5985C48.4648 78.1914 49.2542 78.6998 50.0936 79.1138C51.4359 79.7859 52.8341 80.3402 54.2724 80.7703C55.3924 81.1656 56.5783 81.2315 57.7077 81.6268C57.9618 81.7209 58.2065 81.7962 58.4512 81.9091C59.3924 82.3515 59.6183 82.6809 59.6747 83.1985C59.6747 83.3209 59.6747 83.4432 59.6747 83.5468C59.6747 83.895 59.1853 84.0832 58.4324 84.215L56.71 84.4973C56.1324 84.5663 55.5501 84.5883 54.9688 84.5632C53.7854 84.5959 52.6041 84.4434 51.4677 84.1115C49.6765 83.5878 47.952 82.8582 46.3289 81.9373L46.423 81.8432Z" fill="black"/>
</svg>
