<svg width="96" height="96" viewBox="0 0 96 96" fill="none" xmlns="http://www.w3.org/2000/svg">
<path d="M56.2568 43.9393C59.9884 40.02 63.4207 35.8262 66.525 31.3935C67.0114 30.648 67.4363 29.8643 67.7956 29.0499C67.9839 28.6829 68.1533 28.297 68.2756 28.0146L68.4074 27.6382C68.5195 27.4262 68.5195 27.1725 68.4074 26.9605L68.1533 26.6876C68.1533 26.6876 68.078 26.5652 68.0309 26.5652H67.965V26.5652L67.8615 26.4805C66.5167 25.5699 65.0817 24.8004 63.5791 24.1841C60.374 22.833 57.0277 21.8449 53.6027 21.2382C50.4931 20.7216 47.3424 20.4947 44.1909 20.5605C43.1933 20.5605 42.1956 20.6546 41.198 20.7017C40.2003 20.7488 39.2121 20.9088 38.205 20.9276C36.2097 21.0593 34.1956 21.1817 32.1721 21.3793C30.9109 21.4735 30.958 21.0217 31.8803 20.2123C32.5087 19.6763 33.1791 19.1916 33.885 18.7629C34.8692 18.1792 35.9178 17.7118 37.0097 17.3699C39.114 16.8206 41.2615 16.4522 43.4286 16.2688C44.5109 16.1464 45.6027 16.1088 46.6944 16.0335C47.7862 15.9582 48.8686 16.0335 49.9697 16.0335C54.3911 16.0432 58.7868 16.7061 63.0144 18.0005C65.7081 18.7825 68.3333 19.7835 70.8638 20.9935L71.5415 21.3793C71.7862 21.5205 72.0497 21.6523 72.2662 21.8029C72.7152 22.09 73.1345 22.421 73.518 22.7911L74.1109 23.3182C74.3188 23.4707 74.4947 23.6625 74.6286 23.8829C74.9284 24.3117 75.1514 24.7894 75.2874 25.2946C75.5742 26.3076 75.6321 27.3718 75.4568 28.4099C75.371 28.9378 75.2516 29.4597 75.0991 29.9723C75.0534 30.1964 74.9905 30.4167 74.9109 30.6311C74.845 30.8193 74.7791 30.9982 74.7039 31.177C74.0978 32.6428 73.3607 34.0508 72.5015 35.3841C71.7015 36.6735 70.8638 37.897 70.0074 39.0829C68.285 41.4641 66.478 43.7229 64.6615 45.9346C62.4121 48.6546 60.0874 51.2993 57.8003 53.9441C54.318 57.9441 50.6944 61.8405 47.3533 65.8688C46.0544 67.4311 44.8591 69.0594 43.6921 70.7064C42.525 72.3535 41.4521 74.0476 40.1815 75.5817C39.6356 76.2782 39.1556 76.9935 38.5815 77.6617C36.4356 80.1276 35.3909 80.5605 33.4615 79.9488C33.0188 79.8434 32.5847 79.7049 32.1627 79.5346C30.8356 78.9229 30.6944 77.0688 31.7956 74.7629C32.6144 73.0593 33.4991 71.3935 34.4309 69.737C34.888 68.9126 35.4006 68.1202 35.965 67.3652C36.5015 66.6029 37.0568 65.8405 37.6309 65.0876C39.8991 62.0758 42.3368 59.1394 44.8497 56.3346C48.6144 52.1276 52.4639 48.0335 56.1439 43.8264L56.2568 43.9393Z" fill="black"/>
</svg>
