<svg width="96" height="96" viewBox="0 0 96 96" fill="none" xmlns="http://www.w3.org/2000/svg">
<path d="M68.7958 67.0684C68.1587 68.8459 67.2018 70.4918 65.9723 71.9249C64.6969 73.2913 63.1734 74.4028 61.4829 75.2002C58.4499 76.5912 55.1185 77.2057 51.7888 76.9884C49.4041 76.9075 47.0552 76.3841 44.8617 75.4449C43.9166 75.0157 43.0071 74.5122 42.1417 73.939C41.737 73.6473 41.2664 73.3179 40.9182 72.9979L39.8829 72.1979C38.5213 71.1499 37.1044 70.176 35.6382 69.2802C32.8474 67.4597 29.6284 66.4018 26.3017 66.212C24.8384 66.1547 23.3756 66.3391 21.9723 66.7579C20.556 67.1504 19.1982 67.7296 17.9347 68.4802C16.3575 69.4582 14.9887 70.7375 13.9064 72.2449C13.6241 72.612 13.3605 73.0073 13.1064 73.4026C12.8523 73.7979 12.5417 74.1743 12.2782 74.5884C11.7323 75.3884 11.2335 76.2449 10.7347 77.1108C10.1229 78.1931 9.7182 77.9014 9.52055 76.659C9.39695 75.827 9.37798 74.9828 9.46408 74.1461C9.51435 73.588 9.60558 73.0343 9.73702 72.4896L9.99114 71.6049C10.1323 71.3226 10.2829 71.0402 10.4523 70.7579C11.6918 68.7016 13.3457 66.9259 15.3088 65.5437C17.2689 64.2006 19.4517 63.2159 21.7558 62.6355C24.0947 62.0565 26.523 61.9319 28.9088 62.2684C31.2195 62.5992 33.4607 63.305 35.5441 64.3579C37.938 65.5598 40.266 66.8887 42.5182 68.339L43.3464 68.8755C43.6194 69.0637 43.9111 69.2426 44.1276 69.3743C44.5952 69.6653 45.0792 69.9293 45.577 70.1649C46.5752 70.6293 47.6151 70.998 48.6829 71.2661C51.0321 71.8451 53.4867 71.8451 55.8358 71.2661C56.9946 70.9831 58.1093 70.5429 59.1488 69.9579C60.1142 69.4507 60.9536 68.7335 61.6053 67.859C63.2241 65.779 63.6947 62.5979 63.6382 59.3226C63.6382 54.3343 62.7629 49.0355 62.9135 43.492C62.9566 41.2657 63.2727 39.0531 63.8547 36.9037C64.5089 34.5873 65.7022 32.4587 67.337 30.692C67.6816 30.2909 68.056 29.9165 68.457 29.572C68.8297 29.1957 69.2397 28.8583 69.6805 28.5649C70.0853 28.3014 70.4711 28.0567 70.8194 27.8496C71.1493 27.6835 71.4924 27.545 71.8453 27.4355C72.3669 27.2492 72.9115 27.1352 73.4641 27.0967C74.2968 27.1058 75.0854 27.4727 75.6288 28.1037C75.9177 28.3749 76.1823 28.671 76.4194 28.9884C76.7347 29.5618 76.702 30.2634 76.3347 30.8049C75.8518 31.5659 75.2587 32.251 74.5747 32.8379L74.1417 33.2143C74.0194 33.3555 73.8876 33.4779 73.7558 33.6096C73.6241 33.7414 73.2194 34.099 72.9841 34.3626C72.7488 34.6261 72.5417 34.8896 72.3158 35.1437C72.09 35.3979 71.9488 35.6896 71.7605 35.9532C71.0796 37.0349 70.5893 38.2255 70.3111 39.4731C70.0003 40.895 69.8488 42.3471 69.8594 43.8026C69.8594 45.3837 69.7841 47.0873 69.8594 48.8661C69.9347 51.539 70.1323 54.3437 70.1511 57.3367C70.1709 58.9075 70.1081 60.4783 69.9629 62.0426C69.7906 63.7681 69.4405 65.4713 68.9182 67.1249L68.7958 67.0684Z" fill="black"/>
<path d="M80.6175 26.0047C80.6495 25.4467 80.6495 24.8873 80.6175 24.3294C80.6175 24.2352 80.6175 24.2258 80.6175 24.1505C80.6175 24.0752 80.6175 24.047 80.6175 24.0094C80.6175 23.9717 80.4387 23.7929 80.2316 23.6799C79.7759 23.5697 79.3073 23.5222 78.8387 23.5388C77.6785 23.4683 76.514 23.5506 75.3752 23.7835C74.0975 23.9978 72.8387 24.3125 71.6105 24.7247C70.4983 25.1216 69.4343 25.6425 68.4387 26.2776C67.19 27.1341 65.8278 27.812 64.3916 28.2917C63.9305 28.4235 63.4505 27.8023 63.2528 26.8611C62.9789 25.8224 63.1714 24.7158 63.7799 23.8305C64.0811 23.5199 64.3916 23.1999 64.7211 22.8894L65.1916 22.4376L65.7281 22.0705C66.4358 21.5942 67.1712 21.1605 67.9305 20.7717C69.4332 19.9539 71.0423 19.3489 72.7116 18.9741C73.7658 18.767 74.8293 18.5317 75.9399 18.2682C77.114 17.9706 78.3249 17.8438 79.5352 17.8917C81.1569 17.9732 82.7144 18.5515 83.9964 19.5482C85.2335 20.6402 86.0382 22.1395 86.2646 23.7741C86.4595 25.2788 86.4816 26.8008 86.3305 28.3105C86.0669 30.4356 85.6836 32.544 85.1822 34.6258C84.8716 36.207 84.834 37.8352 84.6364 39.4258C84.6215 39.774 84.5774 40.1203 84.5046 40.4611C84.1281 41.6847 83.5634 41.9199 82.0011 41.6941C81.6434 41.6376 81.2764 41.5999 80.9281 41.5247C79.8458 41.364 78.9905 40.5239 78.8105 39.4447C78.6576 38.0315 78.7211 36.6034 78.9987 35.2094C79.2246 33.8635 79.5352 32.5741 79.7893 31.3129C80.2181 29.5751 80.4486 27.7943 80.4764 26.0047H80.6175Z" fill="black"/>
</svg>
