<svg width="96" height="96" viewBox="0 0 96 96" fill="none" xmlns="http://www.w3.org/2000/svg">
<path d="M39.9723 47.5921C39.7554 49.6003 39.7554 51.6261 39.9723 53.6344C40.1622 55.7074 40.5692 57.7546 41.1864 59.7427C41.6787 61.158 42.2732 62.5358 42.9652 63.865C44.106 66.2332 45.6651 68.3758 47.5676 70.1897C49.4314 71.983 51.8597 73.0741 54.4382 73.2768C56.8174 73.3871 59.182 72.8504 61.2805 71.7238C64.0248 70.2816 66.347 68.1508 68.0193 65.5403C68.5464 64.7215 68.9605 64.985 69.1299 66.0485C69.2564 67.7377 68.7535 69.4138 67.7182 70.7544C65.3595 73.8835 61.9796 76.0879 58.1652 76.985C56.2002 77.4458 54.165 77.5257 52.1699 77.2203C50.1513 76.8999 48.2254 76.1488 46.5229 75.0179C42.648 72.424 39.5588 68.8171 37.5911 64.5897C36.5468 62.3568 35.7545 60.0145 35.2287 57.6062C34.6784 55.2113 34.413 52.7598 34.4382 50.3027C34.4474 48.7877 34.5859 47.2764 34.8523 45.785C35.0876 44.3168 35.417 42.8768 35.7935 41.4462C36.9313 37.1187 38.728 32.9921 41.1205 29.2109C42.9128 26.1279 45.3339 23.4567 48.2264 21.3709C48.9229 20.9662 49.5629 20.4768 50.3064 20.1285C51.2718 19.6197 52.3493 19.3608 53.4405 19.3756C54.1094 19.428 54.7104 19.804 55.0499 20.3827C55.2529 20.6404 55.4294 20.9179 55.577 21.2109C55.7612 21.7194 55.6489 22.2882 55.2852 22.6885C54.7988 23.2196 54.2138 23.6511 53.5629 23.9591C51.3314 25.1632 49.3507 26.7828 47.7276 28.7309C46.0112 30.7981 44.5862 33.0908 43.4923 35.545C41.751 39.3576 40.6172 43.4194 40.1323 47.5827L39.9723 47.5921Z" fill="black"/>
<path d="M38.9177 42.7273C38.2554 45.9261 38.0494 49.2025 38.3059 52.4591C38.5196 55.7561 39.2402 59.0004 40.4424 62.0779C41.3596 64.2237 42.5799 66.2268 44.0659 68.0261C45.2722 69.5714 46.7486 70.8852 48.4236 71.9038C50.1086 72.8913 51.9743 73.5313 53.9106 73.7861C57.6 74.3508 61.6095 72.4026 64.6683 69.2685C66.0544 67.8595 67.2533 66.2779 68.2353 64.5626C69.2151 62.842 70.0312 61.0333 70.673 59.1602C72.3025 54.2332 73.1597 49.0836 73.2142 43.8944C73.2142 42.2755 73.9106 42.3602 74.833 43.7155C76.1523 45.9495 76.8145 48.5103 76.7436 51.1038C76.5365 56.9485 75.4165 62.8497 72.2071 68.2332C70.6374 70.9408 68.6161 73.36 66.2306 75.3861C65.6109 75.9067 64.9637 76.3936 64.2918 76.845C63.5939 77.2962 62.8712 77.7078 62.1271 78.0779C60.5884 78.8399 58.9404 79.3575 57.2424 79.612C56.7248 79.612 56.2165 79.7626 55.6895 79.772H54.1177L52.6306 79.6685C52.1412 79.6685 51.6424 79.5367 51.153 79.4708C49.1633 79.1406 47.2364 78.5057 45.44 77.5885C41.9365 75.7656 38.9635 73.0681 36.8095 69.7579C34.5843 66.3016 32.9909 62.4775 32.1036 58.4638C31.1901 54.5591 30.8728 50.5387 31.1624 46.5391C31.5771 41.6676 32.7919 36.8978 34.7577 32.4214C36.199 28.99 38.1818 25.8123 40.6306 23.0097C41.922 21.5615 43.4037 20.295 45.0353 19.245C46.7583 18.1708 48.678 17.4509 50.6824 17.1273C52.2412 16.8794 53.8294 16.8794 55.3883 17.1273C56.8815 17.3588 58.3435 17.7598 59.7459 18.3226C61.1332 18.8735 62.4608 19.5641 63.7083 20.3838C64.3483 20.7602 64.9224 21.2402 65.5342 21.6826C66.1459 22.125 66.6918 22.6238 67.2095 23.1885C67.7271 23.7532 68.1506 24.1297 68.5742 24.6285L69.233 25.3908L69.8165 26.2097C70.8927 27.6425 71.583 29.3277 71.8212 31.1038C71.9494 32.1089 71.5554 33.1098 70.7765 33.7579C70.4628 34.0913 70.1123 34.3881 69.7318 34.6426C69.0438 34.9473 68.2381 34.7809 67.7271 34.2285C67.3619 33.8963 67.025 33.5343 66.72 33.1461C66.5506 32.9297 66.3812 32.6944 66.2024 32.4402C66.0236 32.1861 65.8259 31.932 65.6377 31.6497C64.5423 29.9954 63.1923 28.5247 61.6377 27.292C60.1343 26.0834 58.4428 25.1295 56.6306 24.4685C52.8659 23.1508 50.4 23.5744 47.5577 25.9367C45.3314 28.0179 43.5344 30.5152 42.2683 33.2873C40.8171 36.2742 39.7634 39.4384 39.1342 42.6991L38.9177 42.7273Z" fill="black"/>
</svg>
