<svg width="96" height="96" viewBox="0 0 96 96" fill="none" xmlns="http://www.w3.org/2000/svg">
<path d="M20.8987 52.908L20.3057 52.1362C20.0651 51.8378 19.845 51.5233 19.6469 51.195C19.2683 50.5592 18.953 49.8878 18.7057 49.1903C18.4326 47.7362 18.7733 46.2338 19.6469 45.0397C20.0895 44.4187 20.5838 43.8363 21.1245 43.2986C21.3787 43.0444 21.5104 42.9315 21.6987 42.7527L22.2351 42.2915C22.9504 41.6891 23.6563 41.1527 24.3716 40.635C27.1951 38.6021 30.0187 36.8703 32.8422 35.1009C34.8845 33.8209 36.8234 32.428 38.7904 31.148C40.5316 30.0091 42.2445 28.8515 43.7881 27.628C44.174 27.3268 44.541 27.0162 44.8893 26.6868L45.3975 26.2162L45.7363 25.8868C46.0243 25.6464 46.2205 25.3139 46.2916 24.9456C46.2916 24.5221 45.9151 24.2868 45.5669 24.108L45.4257 24.0327L45.2281 23.9386L44.5693 23.6468C44.1457 23.4491 43.6281 23.2609 43.1951 23.0727C41.3128 22.3291 39.3269 21.6703 37.3222 21.0962C33.7648 20.0923 30.1329 19.3747 26.461 18.9503C24.1269 18.668 21.7551 18.395 19.4398 18.2256L15.9104 17.9809C15.3201 17.9596 14.7319 17.8967 14.1504 17.7927C13.5575 17.7174 12.9645 17.6703 12.3716 17.6044C10.8845 17.4256 11.0257 17.0491 12.2493 16.3056C13.0879 15.7978 13.9588 15.345 14.8563 14.9503C16.0908 14.4793 17.3946 14.2153 18.7151 14.1691C21.2602 14.0675 23.809 14.1178 26.3481 14.3197C28.8763 14.5832 31.3894 14.9758 33.8775 15.4962C36.3619 15.9951 38.8186 16.6234 41.2375 17.3786C42.4516 17.7644 43.6657 18.1786 44.8704 18.6586L45.8116 19.0162L46.7528 19.4303C47.6119 19.8203 48.4507 20.2538 49.2657 20.7291C50.2938 21.3335 51.054 22.3057 51.3928 23.4491C51.6683 24.6171 51.5076 25.8455 50.941 26.9033C50.635 27.4466 50.2789 27.9602 49.8775 28.4374C49.6893 28.6821 49.4728 28.9362 49.2751 29.1621L48.814 29.6515C48.2116 30.2727 47.5998 30.828 46.9881 31.355C44.6154 33.3559 42.1229 35.2104 39.5245 36.908L31.1481 42.3574C29.7834 43.2986 28.4375 44.1833 27.1857 45.1809C26.5551 45.6609 25.9528 46.1221 25.4069 46.6491L25.0304 46.988L24.8328 47.1762C24.7035 47.3119 24.584 47.4566 24.4751 47.6091C24.3251 47.7946 24.2511 48.0301 24.2681 48.268C24.3463 48.4885 24.4539 48.6974 24.5881 48.8891L24.7857 49.1621L24.9457 49.3786L25.1622 49.6327C25.4822 49.9621 25.7645 50.3103 26.1034 50.6303C27.4965 51.9467 29.016 53.1226 30.6398 54.1409C35.7966 57.3133 41.305 59.8748 47.054 61.7739C51.5146 63.2031 56.0599 64.3535 60.6634 65.2186C61.6704 65.4256 62.6775 65.5668 63.6845 65.7927C65.0151 66.1494 66.2843 66.7046 67.4493 67.4397C68.1014 67.9538 68.5835 68.6524 68.8328 69.4444C68.9637 69.7664 69.0737 70.0965 69.1622 70.4327C69.2281 70.9503 68.8422 71.2986 68.0328 71.5997C66.9184 72.0013 65.7314 72.1617 64.5504 72.0703L62.9034 71.995H62.0845L61.2751 71.8633C60.2022 71.675 59.1293 71.468 58.0469 71.2327C55.901 70.7715 53.7457 70.2162 51.5904 69.5856C47.2094 68.2914 42.9153 66.7196 38.734 64.8797C35.5313 63.495 32.4248 61.8977 29.4351 60.0986C27.8866 59.1602 26.3938 58.1326 24.9645 57.0209C23.4325 55.8483 22.0258 54.5205 20.7669 53.0586L20.8987 52.908Z" fill="black"/>
<path d="M75.2891 73.8969C76.0609 73.6271 76.8232 73.3134 77.5762 72.9557L77.8679 72.8334L78.0091 72.7675H78.0656H78.1973C78.303 72.7572 78.4072 72.7351 78.5079 72.7016C78.618 72.6786 78.7253 72.6439 78.8279 72.5981C78.8811 72.5866 78.93 72.5605 78.9691 72.5228C78.9691 72.5228 78.9691 72.4287 78.9691 72.391C78.9085 72.3215 78.8607 72.2419 78.8279 72.1557C78.7804 71.9902 78.7173 71.8295 78.6397 71.6757C78.6397 71.6757 78.5926 71.5722 78.5644 71.5251L78.4515 71.3745L78.2915 71.1675L77.6515 70.3675L75.0068 67.1204C74.2162 66.1792 73.3221 65.3039 72.4373 64.4287C71.8234 63.9051 71.2765 63.3076 70.8091 62.6498C70.3343 61.9466 69.9158 61.2071 69.5573 60.4381C69.3597 59.911 69.7832 59.7604 70.4985 59.751C70.8954 59.75 71.2917 59.7783 71.6844 59.8357C72.153 59.8716 72.6134 59.9796 73.0491 60.1557C73.4225 60.306 73.779 60.4953 74.1126 60.7204L75.0538 61.4545C75.6562 61.9439 76.2679 62.4522 76.8609 62.9792C78.0917 64.0269 79.2228 65.1864 80.2397 66.4428C80.5332 66.8417 80.8473 67.2249 81.1809 67.591L81.7079 68.1275L82.555 68.9463C83.1429 69.5253 83.6931 70.1415 84.2021 70.791C84.6466 71.3441 84.9675 71.9859 85.1432 72.6734C85.1814 72.9544 85.1814 73.2394 85.1432 73.5204C85.0996 73.8113 84.9606 74.0795 84.7479 74.2828L84.2397 74.951C84.0138 75.1581 83.7221 75.3557 83.4679 75.5628C82.5832 76.1181 81.5856 76.6075 80.7385 77.0969L80.1926 77.351L79.7315 77.5675C79.4303 77.7086 79.1103 77.8404 78.7903 77.9722C77.5009 78.5369 76.1738 78.9981 74.8562 79.4592C72.8397 80.1105 70.7838 80.6323 68.7009 81.0216C67.0442 81.4424 65.3624 81.7567 63.6656 81.9628C63.2738 81.9863 62.8809 81.9863 62.4891 81.9628C61.938 81.9913 61.3996 81.7903 61.0021 81.4075C60.7118 80.977 60.6036 80.4492 60.7009 79.9392C60.7096 79.6241 60.7379 79.3097 60.7856 78.9981C60.9124 78.0833 61.5833 77.3378 62.4797 77.1157C63.6938 76.8334 64.8232 76.6828 66.0185 76.4192C67.2138 76.1557 68.4279 75.9487 69.6703 75.6192C71.5758 75.1475 73.4443 74.5373 75.2609 73.7934L75.2891 73.8969Z" fill="black"/>
</svg>
