<svg width="96" height="96" viewBox="0 0 96 96" fill="none" xmlns="http://www.w3.org/2000/svg">
<path d="M26.3111 30.9075C29.6363 32.9012 33.0955 34.6623 36.6641 36.178L42.217 38.6063L47.7699 41.0722C50.4805 42.258 53.257 43.3122 55.9582 44.6016C60.78 46.8613 65.446 49.4396 69.9252 52.3192C72.2485 53.795 74.4318 55.4805 76.4476 57.3545C78.6135 59.2683 80.3764 61.5943 81.6335 64.1969L82.0382 65.138C82.1605 65.4486 82.2452 65.7875 82.3488 66.0792C82.4523 66.371 82.5558 66.7286 82.6311 67.0204L82.7911 68.0557C82.8929 68.7662 82.9212 69.4853 82.8758 70.2016C82.8181 70.9053 82.708 71.6037 82.5464 72.291C82.3488 72.9592 82.0664 73.5992 81.8123 74.2392L80.7864 75.971L79.5911 77.5145C79.1462 78.008 78.6648 78.4673 78.1511 78.8886C76.825 79.9535 75.2982 80.7409 73.6617 81.2039C72.1022 81.6394 70.4902 81.8579 68.8711 81.8533C65.7941 81.79 62.7444 81.26 59.8264 80.2816C58.0476 79.7169 58.4147 79.2651 60.0617 78.9075C60.8805 78.7098 62.0288 78.5404 63.3652 78.3427C64.7017 78.1451 66.1888 77.9569 67.7229 77.8533C70.1585 77.7947 72.5161 76.9825 74.4711 75.5286C74.6594 75.3404 74.857 75.1804 75.0452 74.9922C75.2335 74.8039 75.3746 74.5969 75.5535 74.3992C75.8546 73.938 76.2123 73.458 76.4946 72.9875C76.7354 72.5462 76.9249 72.0789 77.0594 71.5945L77.1535 71.2651C77.2034 71.1621 77.2322 71.0501 77.2382 70.9357C77.2382 70.7224 77.2664 70.5059 77.3229 70.2863C77.3619 69.3555 77.1981 68.4275 76.8429 67.5663C76.3805 66.5153 75.7995 65.5206 75.1111 64.6016C73.4955 62.4454 71.596 60.5173 69.4641 58.8698C66.6353 56.7287 63.6064 54.866 60.4194 53.3075C57.1817 51.6792 53.8311 50.211 50.4617 48.7145L39.337 43.8486C35.6288 42.2298 31.8076 40.658 28.0429 38.7663C23.4688 36.451 18.8852 33.6745 15.1958 29.6933C15.017 29.5051 14.8476 29.3357 14.6594 29.1192C14.4711 28.9027 14.2829 28.6769 14.1229 28.4416C13.7693 27.9689 13.4546 27.4685 13.1817 26.9451C12.6111 25.8425 12.2898 24.628 12.2405 23.3875C12.1835 22.0079 12.5985 20.65 13.417 19.538C13.6277 19.2679 13.854 19.0102 14.0947 18.7663C14.3339 18.5454 14.5853 18.338 14.8476 18.1451C15.3026 17.8289 15.7738 17.5368 16.2594 17.2698C18.1384 16.3032 20.1695 15.6665 22.2641 15.3875C24.244 15.1168 26.2432 15.0129 28.2405 15.0769C34.1866 15.3048 40.0997 16.0734 45.9064 17.3733C47.1676 17.6463 48.4099 17.8722 49.6711 18.2016C51.3117 18.5649 52.895 19.1507 54.377 19.9427C55.1543 20.427 55.7701 21.1313 56.1464 21.9663C56.3218 22.2689 56.4759 22.5834 56.6076 22.9075C56.7299 23.4157 56.2688 23.7451 55.2994 23.9616C53.9192 24.2288 52.5007 24.2288 51.1205 23.9616C45.9817 23.1522 40.8805 22.0792 35.7511 21.411C33.255 21.0651 30.741 20.864 28.2217 20.8086C25.9043 20.7316 23.5877 20.9852 21.3417 21.5616C20.6459 21.758 19.9712 22.0228 19.3276 22.3522C19.0352 22.4953 18.7551 22.6621 18.4899 22.851C18.2358 23.0204 18.3299 22.9827 18.2923 22.9827V22.9827C18.2923 22.9827 18.2923 22.9827 18.2923 23.1145C18.3251 23.516 18.4473 23.9051 18.6499 24.2533C18.7797 24.4895 18.9309 24.7132 19.1017 24.9216L19.2429 25.091L19.4594 25.3263L19.9017 25.7969C20.1841 26.1169 20.5135 26.4086 20.8429 26.738C21.1723 27.0675 21.4829 27.3404 21.8311 27.6133C23.2379 28.7937 24.743 29.8516 26.3299 30.7757L26.3111 30.9075Z" fill="black"/>
<path d="M61.4821 60.5932C62.4562 61.2934 63.3274 62.1266 64.0703 63.0685C65.0218 64.3317 65.3663 65.9509 65.0115 67.492C65.0115 67.6332 64.9551 67.7649 64.908 67.8967L64.7386 68.2826L64.3998 69.0449C64.1318 69.5268 63.8165 69.9808 63.4586 70.4002L62.2539 71.2849C62.028 71.3979 61.7927 71.4732 61.5762 71.5767C61.3598 71.6802 61.2092 71.7179 61.0209 71.7932C60.3588 71.9986 59.6778 72.1374 58.988 72.2073C57.7364 72.3361 56.4749 72.3361 55.2233 72.2073C54.1786 72.0849 53.1715 72.0849 52.1456 71.9532C50.8399 71.8961 49.5466 71.6748 48.2962 71.2944C47.9103 71.1626 47.9856 70.7579 48.3621 70.3532C48.8127 69.7919 49.4452 69.4057 50.1503 69.2614C52.6003 68.8992 55.0717 68.7011 57.548 68.6685C57.8807 68.6614 58.2118 68.6204 58.5362 68.5461C58.8339 68.4577 59.1235 68.3444 59.4021 68.2073C59.6845 68.0191 59.7315 68.0473 59.8445 67.9344C59.9514 67.8543 60.0521 67.7662 60.1456 67.6708C60.4005 67.4293 60.5141 67.0742 60.4468 66.7296C60.4406 66.6405 60.4149 66.5537 60.3715 66.4755C60.3359 66.3695 60.2818 66.2707 60.2115 66.1838C60.0233 65.9212 59.8088 65.6783 59.5715 65.4591C58.8434 64.8031 58.0411 64.2346 57.1809 63.7649C55.7942 62.9657 54.3391 62.2917 52.8327 61.7508C51.6468 61.3367 50.3574 61.3273 49.1433 60.9979C48.8798 60.932 48.5974 60.8944 48.3339 60.8002C47.9292 60.7412 47.5704 60.5085 47.3515 60.163C47.1326 59.8175 47.0755 59.3937 47.1951 59.0026C47.2082 58.7657 47.2365 58.53 47.2798 58.2967C47.4793 57.5891 48.0996 57.0815 48.8327 57.0261C50.0532 56.852 51.2922 56.852 52.5127 57.0261C53.7515 57.2195 54.9727 57.5122 56.1645 57.9014C57.1009 58.1504 58.0117 58.4876 58.8845 58.9085C59.808 59.37 60.7037 59.8854 61.5668 60.452L61.4821 60.5932Z" fill="black"/>
</svg>
