<svg width="96" height="96" viewBox="0 0 96 96" fill="none" xmlns="http://www.w3.org/2000/svg">
<path d="M26.4063 29.6211C26.2871 29.6271 26.1677 29.6271 26.0486 29.6211H25.9545C25.8886 29.6211 25.7757 29.6211 25.7474 29.6775C25.7192 29.734 25.7474 29.6775 25.6815 29.6775C25.6162 29.7507 25.5679 29.8375 25.5404 29.9316C25.3417 30.3173 25.2111 30.7344 25.1545 31.1646C25.1448 31.3924 25.1165 31.619 25.0698 31.8422C24.8197 33.594 24.7692 35.3685 24.9192 37.1316C24.977 37.9396 25.0966 38.7419 25.2768 39.5316C25.5477 40.5237 25.7676 41.5289 25.9357 42.5434C25.9357 42.8634 25.6439 42.9763 25.1827 42.854C24.6056 42.6921 24.1174 42.3056 23.8274 41.7811C23.3265 40.7718 22.9078 39.7236 22.5757 38.6469C22.4108 38.1096 22.2787 37.5627 22.1804 37.0093C22.116 36.4376 22.0939 35.8619 22.1145 35.2869C22.1145 33.9128 21.9074 32.4634 22.1145 30.9952C22.1757 30.48 22.2764 29.9703 22.4157 29.4705L22.6698 28.6893L22.8674 28.294C22.9427 28.1246 23.0463 27.9646 23.1121 27.7858C23.3562 27.4221 23.6776 27.1167 24.0533 26.8916C24.4261 26.7094 24.8271 26.5916 25.2392 26.5434C25.82 26.4894 26.4053 26.5115 26.9804 26.6093C27.4698 26.694 27.9215 26.7975 28.411 26.9011C29.8133 27.2116 31.1121 27.6916 32.4392 28.0399C33.4557 28.3222 34.5192 28.4069 35.5357 28.5952C35.7615 28.6516 35.978 28.6799 36.1945 28.7552C36.3648 28.8138 36.5288 28.8895 36.6839 28.9811C36.7962 29.0839 36.8859 29.2089 36.9474 29.3481C37.0681 29.6166 37.1198 29.911 37.098 30.2046C37.1074 30.3519 37.1074 30.4996 37.098 30.6469C37.098 31.0705 36.5898 31.4375 35.8368 31.6916C35.338 31.6916 34.8298 31.6916 34.331 31.6916C33.8529 31.6252 33.3785 31.5341 32.9098 31.4187C31.9686 31.1928 31.0274 30.9105 30.1615 30.6281C29.4933 30.4211 28.8439 30.214 28.2039 30.0352C27.8839 29.9411 27.5733 29.8658 27.2627 29.7905C26.9521 29.7152 26.6698 29.7246 26.4063 29.7152V29.6211Z" fill="black"/>
<path d="M68.2883 68.191C68.8819 68.0661 69.3652 67.6365 69.5589 67.0616C69.6184 66.8211 69.653 66.5751 69.6624 66.3275C69.6887 65.7904 69.6698 65.252 69.606 64.7181C69.4999 64.1027 69.3393 63.4979 69.126 62.911C69.0307 62.6372 68.9176 62.3699 68.7871 62.111L68.4671 61.2828C68.1031 60.5541 67.9345 59.7433 67.9777 58.9298C67.9777 58.6569 68.1942 58.7134 68.4483 58.8734C68.7883 59.0567 69.1044 59.2811 69.3895 59.5416C69.8934 60.0901 70.3678 60.665 70.8107 61.264C71.2185 61.9741 71.5348 62.7331 71.7518 63.5228C71.8648 64.0216 72.0436 64.5298 72.166 65.0757C72.2271 65.3579 72.268 65.6442 72.2883 65.9322C72.321 66.2262 72.321 66.5229 72.2883 66.8169C72.2076 67.4806 71.9931 68.1209 71.6577 68.6993C71.3049 69.2997 70.8064 69.8014 70.2083 70.1581C69.5526 70.5326 68.8356 70.7875 68.0907 70.911C67.0618 71.0547 66.0236 71.1208 64.9848 71.1087C64.2037 71.1962 63.4174 71.2277 62.6318 71.2028C62.4624 71.2028 62.293 71.2028 62.1236 71.2028C61.5024 71.0522 61.3518 70.8075 61.3707 70.1204C61.3707 69.9604 61.3707 69.8098 61.3707 69.6498C61.4227 69.1703 61.7622 68.7712 62.2271 68.6428C62.566 68.5581 62.8954 68.464 63.2248 68.3981L63.7048 68.2851C63.8613 68.271 64.0188 68.271 64.1754 68.2851L65.9824 68.4169C66.7727 68.5206 67.5763 68.4335 68.326 68.1628L68.2883 68.191Z" fill="black"/>
<path d="M18.1799 32.3972V31.456V30.1383C18.1679 29.1465 18.2339 28.1552 18.3775 27.1736C18.5105 26.3001 18.7939 25.4562 19.2152 24.6795C19.5993 23.9558 20.1633 23.3432 20.8528 22.9007C21.4835 22.5693 22.1754 22.3708 22.8858 22.3172C23.3576 22.2819 23.8321 22.3072 24.2975 22.3925C24.8999 22.5713 25.474 22.7031 26.0575 22.9289C26.6411 23.1548 27.2152 23.4183 27.7705 23.6725L28.5987 24.0583L29.0975 24.3313L30.0387 24.8583C31.2905 25.5736 32.5611 26.2042 33.8034 26.9101C34.8965 27.4845 36.0402 27.9571 37.2199 28.3219C38.726 28.668 40.1902 29.176 41.5869 29.8372C42.0105 30.0913 41.8222 31.0325 41.2199 31.9266C40.6683 32.8971 39.6615 33.521 38.5469 33.583C36.8148 33.3679 35.1068 32.9897 33.4458 32.4536C32.6379 32.1853 31.846 31.8711 31.074 31.5125C30.3161 31.15 29.5778 30.7479 28.8622 30.3078C28.4404 30.0413 28.0001 29.8054 27.5446 29.6019L26.8669 29.3101L26.6975 29.2442H26.6411H26.5281C26.2069 29.1456 25.8925 29.0262 25.5869 28.8866C25.4081 28.8866 25.1634 28.7266 24.9658 28.8207C24.8011 28.9181 24.6774 29.0719 24.6175 29.2536C24.4605 29.6705 24.3654 30.1081 24.3352 30.5525C24.3352 30.6278 24.3352 31.0795 24.3352 31.3619V32.303C24.3352 32.9525 24.4199 33.6113 24.5046 34.2607C24.6875 36.2701 25.0562 38.2582 25.6058 40.1995C25.8568 40.9377 26.1718 41.6525 26.5469 42.336L27.4881 44.4254C27.6199 44.7266 27.7987 45.0089 27.9116 45.3666C28.3164 46.5242 28.0999 47.023 26.9705 47.8042C26.7069 47.9925 26.4528 48.1901 26.1893 48.3407C25.3092 48.8839 24.1651 48.7085 23.4881 47.9266C22.3932 46.7602 21.445 45.4643 20.6646 44.0678C20.017 42.5912 19.5005 41.0606 19.1211 39.4936C18.5852 37.1673 18.2203 34.805 18.0293 32.4254L18.1799 32.3972Z" fill="black"/>
<path d="M67.3845 67.6634C67.8645 67.6634 68.3257 67.6634 68.7775 67.6634H68.9469C69.0128 67.6634 68.9469 67.6634 68.9469 67.6634C68.9469 67.6634 68.994 67.6634 69.0128 67.6634H69.1822C69.458 67.7455 69.7561 67.6969 69.9916 67.5316C70.0857 67.3528 69.8693 67.1363 69.8975 66.9575V66.6751C69.9057 66.619 69.9057 66.5619 69.8975 66.5057L69.7751 66.0728C69.5681 65.4046 69.3422 64.7081 69.1069 64.021C68.6457 62.6281 68.0904 61.2634 67.6387 59.8328C67.2151 58.5716 66.6975 57.3575 66.1328 56.134C65.4551 54.5622 64.6269 52.934 64.8245 50.9387C64.8998 50.2987 65.8693 50.3457 66.914 50.5904C67.9587 50.8351 69.1257 51.1928 69.5116 51.9175L71.7422 56.0681C72.1187 56.7959 72.4763 57.5395 72.8151 58.2987C73.1163 59.0798 73.3704 59.8987 73.6151 60.7457C73.9214 61.7624 74.3281 62.7461 74.8293 63.6822C74.961 63.9551 75.0175 64.0963 75.2622 64.5481C75.4674 64.9387 75.6497 65.3409 75.8081 65.7528C75.9775 66.1669 76.1187 66.5716 76.2598 66.9857C76.3865 67.388 76.4779 67.8005 76.5328 68.2187C76.6526 69.0549 76.5284 69.9078 76.1751 70.6751C75.7457 71.4181 75.1249 72.0324 74.3775 72.454C73.6019 72.8922 72.764 73.2095 71.8928 73.3951C71.4598 73.5175 70.9516 73.5646 70.5657 73.6493L69.9069 73.7246C69.7439 73.7335 69.5805 73.7335 69.4175 73.7246C67.8608 73.8178 66.2989 73.7768 64.7493 73.6022C62.466 73.3105 60.2117 72.8256 58.0104 72.1528C57.154 71.9081 56.2881 71.7104 55.4034 71.4751C54.5338 71.2042 53.6872 70.8643 52.8716 70.4587C52.5007 70.2933 52.1421 70.1014 51.7987 69.8846C50.5563 68.9434 50.4528 68.3128 51.1116 67.061C51.2516 66.7787 51.4088 66.5053 51.5822 66.2422C52.135 65.4459 53.1058 65.0509 54.0575 65.2351C55.4222 65.4987 56.7304 65.6681 58.001 65.8563C59.2716 66.0446 60.4198 66.5151 61.681 66.7975C63.5325 67.2328 65.4262 67.4632 67.3281 67.4846L67.3845 67.6634Z" fill="black"/>
<path d="M56.8345 42.9956C53.4557 46.2427 50.0862 49.4992 46.7639 52.8121C45.5592 54.0262 44.5051 55.3721 43.2815 56.5768L40.0533 59.7392L36.7498 62.8356C34.5474 64.9156 32.3733 67.005 30.2462 69.1415C28.3639 71.0239 26.5851 73.0568 24.8815 75.0803C23.8274 76.4262 22.7451 77.7345 21.6345 79.0239C20.4495 80.2521 19.1924 81.4087 17.8698 82.4874C17.0509 83.1462 16.3921 82.5439 16.1286 81.198C15.8099 79.3958 16.0874 77.5388 16.9192 75.9086C21.0747 70.2246 25.7335 64.9264 30.8392 60.078C32.382 58.5896 33.843 57.0187 35.2157 55.3721C36.6557 53.7627 38.0392 52.1156 39.5545 50.5533C42.8204 47.1274 46.1427 43.758 49.4839 40.3792L55.6298 34.158C58.7074 30.9956 61.898 27.9086 64.8345 24.6521C67.1404 22.1392 69.0698 19.3533 71.2251 16.7086C71.6957 16.125 72.1662 15.5321 72.6651 14.9862C74.6604 13.0098 75.6674 12.7556 77.371 13.725C77.7774 13.9217 78.1704 14.1449 78.5474 14.3933C79.7333 15.2686 79.7615 16.9345 78.698 18.685L77.4651 20.5674C77.0591 21.2175 76.6193 21.8458 76.1474 22.4497C75.2062 23.6545 74.2651 24.8403 73.2298 26.0356C71.2062 28.3792 69.0509 30.6756 66.858 32.9627C63.6109 36.3509 60.2698 39.6545 56.938 43.0333L56.8345 42.9956Z" fill="black"/>
</svg>
