<svg width="202" height="194" viewBox="0 0 202 194" fill="none" xmlns="http://www.w3.org/2000/svg">
<g id="vectorly-UNI-flash" clip-path="url(#clip0_615_10595)">
<g id="vectorly-UNI-flash_2">
<path id="path1264" fill-rule="evenodd" clip-rule="evenodd" d="M74.9884 140.232C93.6648 122.298 138.125 77.7281 138.125 77.7281C138.514 77.3285 139.154 77.3228 139.551 77.7109C139.951 78.099 139.96 78.7372 139.571 79.1339C139.571 79.1339 94.8226 125.897 76.9064 143.665C73.7702 146.772 71.4374 149 70.2969 149.972C69.5453 150.61 68.975 150.852 68.7763 150.904C67.5927 151.205 66.9447 150.602 66.5789 150.032C66.3687 149.705 66.1412 149.176 66.3428 148.408C66.576 147.531 70.0147 140.769 74.4642 132.383C80.3595 121.269 87.9971 107.193 91.6921 100.403L72.5635 103.165C71.6736 103.295 70.7923 102.889 70.3142 102.133C69.8333 101.377 69.8419 100.408 70.3402 99.6609L111.639 38.4135C112.096 37.7235 112.969 37.4389 113.747 37.7264C114.524 38.0139 115.002 38.7959 114.899 39.6181L109.931 76.4948L140.268 73.2921C140.821 73.226 141.322 73.6227 141.388 74.1747C141.452 74.7267 141.057 75.227 140.504 75.2931L108.485 79.4301C108.062 79.479 107.641 79.3324 107.339 79.0305C107.039 78.7286 106.895 78.306 106.947 77.8863L110.504 46.6617L76.9035 97.9388L95.5656 95.2134C96.4296 95.0898 97.2878 95.4607 97.7832 96.1765C98.2786 96.8895 98.3275 97.8238 97.9099 98.5857C97.9099 98.5857 86.4304 119.265 78.1822 134.376C77.0418 136.463 75.9647 138.438 74.9884 140.232Z" fill="black"/>
<path id="path1266" fill-rule="evenodd" clip-rule="evenodd" d="M183.208 25.0049C183.66 24.68 184.291 24.7806 184.619 25.232C184.945 25.6834 184.844 26.313 184.392 26.6379C184.392 26.6379 181.276 29.5847 177.071 33.1697C176.118 33.9862 175.098 34.8141 174.041 35.6421C173.365 36.1739 172.679 36.7116 171.965 37.2119C170.139 38.4883 168.253 39.6699 166.493 40.7508C161.79 43.6401 158.02 45.69 158.02 45.69C157.571 46.0177 156.937 45.9171 156.612 45.4658C156.284 45.0144 156.387 44.3847 156.836 44.057C156.836 44.057 159.967 41.1246 164.186 37.5683C165.764 36.2401 167.478 34.8199 169.266 33.4859C169.963 32.9655 170.689 32.4826 171.406 32.0082C172.526 31.2636 173.632 30.5592 174.707 29.9066C179.433 27.0432 183.208 25.0049 183.208 25.0049Z" fill="black"/>
<path id="path1268" fill-rule="evenodd" clip-rule="evenodd" d="M196.407 70.218C196.948 70.0915 197.493 70.4279 197.622 70.9684C197.749 71.5089 197.415 72.0523 196.871 72.1788C196.871 72.1788 193.268 73.6076 188.516 75.1859C187.436 75.5453 186.301 75.8874 185.132 76.2209C184.383 76.4308 183.626 76.6464 182.857 76.8132C180.884 77.2444 178.9 77.5606 177.054 77.8395C172.106 78.5812 168.244 78.9348 168.244 78.9348C167.702 79.0613 167.158 78.7278 167.031 78.1873C166.902 77.644 167.239 77.1006 167.78 76.9741C167.78 76.9741 171.392 75.5625 176.149 74.0158C177.923 73.4408 179.841 72.8371 181.797 72.3398C182.56 72.1471 183.335 71.9977 184.098 71.8539C185.293 71.6268 186.462 71.4284 187.588 71.2645C192.545 70.5544 196.407 70.218 196.407 70.218Z" fill="black"/>
<path id="path1270" fill-rule="evenodd" clip-rule="evenodd" d="M169.094 110.056C168.555 109.918 168.23 109.369 168.368 108.831C168.506 108.294 169.056 107.966 169.595 108.104C169.595 108.104 173.871 108.618 179.341 109.556C180.582 109.771 181.875 110.024 183.194 110.306C184.041 110.487 184.896 110.671 185.74 110.901C187.9 111.488 190.022 112.183 191.986 112.842C197.237 114.61 201.243 116.197 201.243 116.197C201.781 116.335 202.106 116.884 201.968 117.421C201.83 117.962 201.28 118.287 200.741 118.149C200.741 118.149 196.465 117.617 191.01 116.648C188.968 116.283 186.774 115.875 184.596 115.354C183.747 115.15 182.906 114.9 182.079 114.653C180.786 114.268 179.531 113.868 178.338 113.46C173.091 111.66 169.094 110.056 169.094 110.056Z" fill="black"/>
<path id="path1272" fill-rule="evenodd" clip-rule="evenodd" d="M151.411 140.696C150.967 140.36 150.884 139.727 151.22 139.284C151.557 138.842 152.191 138.756 152.635 139.092C152.635 139.092 156.252 141.139 160.773 144.011C161.801 144.666 162.856 145.374 163.924 146.118C164.609 146.595 165.301 147.078 165.966 147.599C167.665 148.933 169.286 150.35 170.781 151.678C174.778 155.232 177.73 158.158 177.73 158.158C178.171 158.495 178.257 159.127 177.921 159.57C177.584 160.013 176.95 160.099 176.506 159.763C176.506 159.763 172.895 157.704 168.396 154.803C166.718 153.719 164.918 152.538 163.175 151.256C162.496 150.758 161.845 150.221 161.202 149.689C160.2 148.858 159.232 148.033 158.328 147.216C154.348 143.634 151.411 140.696 151.411 140.696Z" fill="black"/>
<path id="path1274" fill-rule="evenodd" clip-rule="evenodd" d="M121.451 159.37C121.226 158.861 121.459 158.263 121.969 158.039C122.476 157.815 123.075 158.045 123.299 158.556C123.299 158.556 125.229 161.532 127.487 165.531C127.997 166.437 128.504 167.397 129.002 168.392C129.321 169.027 129.644 169.674 129.923 170.338C130.638 172.04 131.245 173.776 131.792 175.395C133.261 179.736 134.18 183.163 134.18 183.163C134.404 183.672 134.174 184.267 133.664 184.491C133.155 184.715 132.559 184.485 132.334 183.977C132.334 183.977 130.419 180.989 128.192 176.982C127.363 175.487 126.488 173.868 125.71 172.195C125.408 171.54 125.145 170.867 124.889 170.203C124.489 169.165 124.12 168.147 123.795 167.158C122.355 162.797 121.451 159.37 121.451 159.37Z" fill="black"/>
<path id="path1276" fill-rule="evenodd" clip-rule="evenodd" d="M81.281 165.378C81.2868 164.823 81.7447 164.377 82.3034 164.383C82.8593 164.389 83.3056 164.846 83.2999 165.401C83.2999 165.401 83.8183 169.003 84.2071 173.695C84.2964 174.759 84.3568 175.868 84.3972 177.01C84.4231 177.74 84.449 178.479 84.426 179.218C84.3684 181.112 84.1984 182.989 84.0227 184.734C83.5562 189.412 82.9658 193.003 82.9658 193.003C82.9601 193.558 82.5021 194.003 81.9434 193.997C81.3876 193.992 80.9412 193.535 80.947 192.977C80.947 192.977 80.4459 189.375 80.0888 184.686C79.9563 182.938 79.8325 181.057 79.8209 179.163C79.8181 178.424 79.8612 177.685 79.9044 176.955C79.9706 175.816 80.0571 174.707 80.1723 173.646C80.6763 168.965 81.281 165.378 81.281 165.378Z" fill="black"/>
<path id="path1278" fill-rule="evenodd" clip-rule="evenodd" d="M46.7103 154.924C47.1048 154.53 47.7442 154.53 48.1387 154.924C48.5304 155.315 48.5304 155.954 48.1387 156.347C48.1387 156.347 45.9442 159.329 42.888 163.011C42.1945 163.848 41.4475 164.699 40.665 165.556C40.1636 166.105 39.6558 166.66 39.1141 167.183C37.7268 168.52 36.2676 169.768 34.9016 170.912C31.2395 173.985 28.2616 176.19 28.2616 176.19C27.8676 176.584 27.228 176.584 26.8343 176.19C26.4403 175.796 26.4403 175.158 26.8343 174.764C26.8343 174.764 29.0409 171.791 32.1199 168.135C33.2681 166.772 34.518 165.317 35.8577 163.931C36.3807 163.391 36.9369 162.882 37.487 162.382C38.3452 161.603 39.1974 160.855 40.0343 160.162C43.7235 157.112 46.7103 154.924 46.7103 154.924Z" fill="black"/>
<path id="path1280" fill-rule="evenodd" clip-rule="evenodd" d="M28.0669 125.78C28.5185 125.452 29.15 125.555 29.4763 126.004C29.8026 126.455 29.7013 127.085 29.2497 127.413C29.2497 127.413 27.1917 129.586 24.3106 132.217C23.6603 132.812 22.9639 133.407 22.2332 133.999C21.7658 134.379 21.2924 134.764 20.791 135.109C19.5045 135.997 18.1639 136.782 16.908 137.498C13.5246 139.43 10.8171 140.715 10.8171 140.715C10.3656 141.04 9.73397 140.936 9.40768 140.488C9.08138 140.036 9.18278 139.407 9.63436 139.079C9.63436 139.079 11.7053 136.917 14.6031 134.315C15.6788 133.349 16.846 132.326 18.093 131.383C18.5792 131.018 19.0927 130.687 19.6002 130.365C20.3939 129.856 21.1772 129.385 21.9464 128.954C25.3537 127.048 28.0669 125.78 28.0669 125.78Z" fill="black"/>
<path id="path1282" fill-rule="evenodd" clip-rule="evenodd" d="M25.5628 86.1252C26.12 86.1338 26.5662 86.5909 26.5587 87.1486C26.5509 87.7034 26.0927 88.1491 25.5354 88.1405C25.5354 88.1405 22.343 88.658 18.1599 89.0489C17.2139 89.1352 16.2266 89.1984 15.212 89.2358C14.5625 89.2617 13.9054 89.2876 13.2482 89.2646C11.5634 89.2099 9.89471 89.0403 8.34472 88.8649C4.17717 88.3963 0.995983 87.8098 0.995983 87.8098C0.438712 87.8012 -0.00739498 87.3441 9.29001e-05 86.7863C0.00786878 86.2315 0.466063 85.7859 1.02333 85.7945C1.02333 85.7945 4.21952 85.2943 8.39801 84.9378C9.95232 84.8055 11.625 84.6791 13.3106 84.6704C13.9681 84.6647 14.6245 84.7078 15.2731 84.7509C16.2862 84.8171 17.2711 84.9062 18.2146 85.0183C22.3856 85.5243 25.5628 86.1252 25.5628 86.1252Z" fill="black"/>
<path id="path1284" fill-rule="evenodd" clip-rule="evenodd" d="M35.8854 51.5687C36.4277 51.6952 36.7641 52.2386 36.6362 52.7819C36.5084 53.3224 35.9643 53.6588 35.4223 53.5294C35.4223 53.5294 31.4822 53.1787 26.4297 52.4485C25.2823 52.2817 24.0897 52.0776 22.8726 51.8476C22.0925 51.6981 21.3028 51.5486 20.5237 51.3502C18.5288 50.8471 16.572 50.2347 14.7602 49.6511C9.90803 48.0872 6.21875 46.6583 6.21875 46.6583C5.67675 46.5318 5.34017 45.9885 5.46804 45.4451C5.59591 44.9046 6.13988 44.5682 6.68218 44.6976C6.68218 44.6976 10.6217 45.0628 15.663 45.8275C17.5454 46.1121 19.5702 46.437 21.5805 46.8768C22.3655 47.0465 23.1393 47.265 23.904 47.4806C25.0965 47.817 26.2549 48.1648 27.3559 48.527C32.2034 50.1255 35.8854 51.5687 35.8854 51.5687Z" fill="black"/>
<path id="path1286" fill-rule="evenodd" clip-rule="evenodd" d="M56.1679 31.3687C56.5423 31.7798 56.5078 32.418 56.0959 32.7918C55.6812 33.1627 55.0419 33.131 54.6704 32.717C54.6704 32.717 51.92 30.5119 48.5418 27.4386C47.7758 26.7429 46.9981 25.9954 46.2177 25.2135C45.7194 24.7103 45.2126 24.2015 44.7432 23.661C43.5371 22.2782 42.4251 20.8263 41.405 19.4694C38.6679 15.8268 36.7363 12.8772 36.7363 12.8772C36.3631 12.4632 36.396 11.825 36.8098 11.4541C37.2234 11.0804 37.8621 11.112 38.2354 11.526C38.2354 11.526 40.9759 13.7454 44.3256 16.8388C45.5755 17.9888 46.906 19.2423 48.1616 20.582C48.6512 21.1052 49.1063 21.6601 49.5556 22.2063C50.2554 23.063 50.9207 23.9083 51.537 24.742C54.2499 28.4104 56.1679 31.3687 56.1679 31.3687Z" fill="black"/>
<path id="path1288" fill-rule="evenodd" clip-rule="evenodd" d="M87.7408 26.0134C87.7639 26.5682 87.3319 27.0398 86.7761 27.0656C86.2203 27.0886 85.748 26.6574 85.7249 26.1025C85.7249 26.1025 85.0193 22.874 84.3828 18.6306C84.2388 17.6703 84.1208 16.667 84.02 15.6349C83.9566 14.9737 83.8933 14.3067 83.876 13.634C83.8328 11.9119 83.9048 10.1985 83.9883 8.60862C84.213 4.3336 84.6133 1.05043 84.6133 1.05043C84.5873 0.495565 85.0194 0.0241056 85.5781 0.00110623C86.1339 -0.0247681 86.6062 0.406426 86.6292 0.961286C86.6292 0.961286 87.3175 4.19558 87.9194 8.43609C88.1441 10.0116 88.3658 11.7106 88.4781 13.4298C88.5185 14.0997 88.5155 14.7724 88.5098 15.4365C88.5011 16.4743 88.4724 17.4835 88.4148 18.4524C88.1556 22.736 87.7408 26.0134 87.7408 26.0134Z" fill="black"/>
<path id="path1290" fill-rule="evenodd" clip-rule="evenodd" d="M124.066 28.1466C123.829 28.6526 123.23 28.8682 122.724 28.6325C122.22 28.3967 122.004 27.7959 122.24 27.2928C122.24 27.2928 123.233 23.8515 124.788 19.4845C125.143 18.4926 125.54 17.472 125.969 16.4342C126.243 15.7672 126.519 15.0944 126.842 14.4418C127.666 12.7657 128.584 11.1529 129.454 9.66085C131.787 5.66183 133.785 2.68628 133.785 2.68628C134.022 2.18317 134.623 1.96469 135.13 2.20044C135.634 2.43618 135.85 3.03701 135.614 3.54013C135.614 3.54013 134.603 6.97859 133.016 11.3283C132.426 12.9498 131.772 14.6891 131.012 16.391C130.715 17.0551 130.376 17.6991 130.039 18.3374C129.512 19.3292 128.982 20.2894 128.443 21.1921C126.079 25.1825 124.066 28.1466 124.066 28.1466Z" fill="black"/>
</g>
</g>
<defs>
<clipPath id="clip0_615_10595">
<rect width="202" height="194" fill="white"/>
</clipPath>
</defs>
</svg>
