<svg width="96" height="96" viewBox="0 0 96 96" fill="none" xmlns="http://www.w3.org/2000/svg">
<path d="M28.7994 40.0787C28.7994 44.3987 20.4512 45.0858 20.4512 39.8623C20.4512 37.1046 23.2276 35.9846 25.7218 36.0976C27.7265 36.1729 28.7994 38.2717 28.7994 40.0787Z" fill="black"/>
<path d="M64.9312 50.6394C64.9312 53.8394 58.7383 54.3477 58.7383 50.47C58.7383 48.4277 60.7995 47.6465 62.6442 47.6465C64.1406 47.7406 64.9312 49.2935 64.9312 50.6394Z" fill="black"/>
<path d="M59.5467 38.6876C59.5467 41.1158 54.8408 41.5111 54.8408 38.5558C54.8408 37.0123 56.4032 36.3723 57.8055 36.4382C58.8855 36.6162 59.6451 37.5975 59.5467 38.6876Z" fill="black"/>
<path d="M24.6293 66.3945C24.6293 69.8486 17.9658 70.4133 17.9658 66.2157C17.9658 64.0039 20.1964 63.1004 22.2011 63.1851C23.7635 63.2604 24.6293 64.9451 24.6293 66.3945Z" fill="black"/>
<path d="M77.2603 56.2955C77.2603 58.4885 73.025 58.8367 73.0156 56.1826C73.0156 54.7802 74.4274 54.2155 75.698 54.3002C76.6555 54.4627 77.3323 55.327 77.2603 56.2955V56.2955Z" fill="black"/>
<path d="M42.2776 38.6876C42.2776 41.2099 37.4023 41.6052 37.4023 38.5652C37.4023 36.9558 39.0212 36.297 40.48 36.3629C41.5965 36.5458 42.3815 37.561 42.2776 38.6876V38.6876Z" fill="black"/>
<path d="M14.202 28.231C14.202 30.6687 9.49609 31.0546 9.49609 28.0993C9.49609 26.5463 11.0679 25.9157 12.4796 25.9722C13.5534 26.1633 14.302 27.1449 14.202 28.231Z" fill="black"/>
<path d="M51.2939 17.3408C51.2939 19.8161 46.5127 20.1644 46.5127 17.2185C46.5127 15.6373 48.1033 14.9973 49.5245 15.0632C50.62 15.2414 51.3921 16.2352 51.2939 17.3408V17.3408Z" fill="black"/>
<path d="M48.9037 79.2055C48.9037 81.8691 43.7461 82.2926 43.7461 79.0644C43.7461 77.3608 45.459 76.6738 47.0026 76.7397C48.2355 76.7867 48.9037 78.0855 48.9037 79.2055Z" fill="black"/>
<path d="M83.4913 62.3201C83.4913 66.4895 75.416 67.1578 75.416 62.1036C75.416 59.4401 78.0984 58.3389 80.5078 58.4613C82.4466 58.5554 83.4913 60.5978 83.4913 62.3201Z" fill="black"/>
<path d="M67.9328 23.2331C67.9328 26.3389 61.9375 26.8284 61.9375 23.0731C61.9375 21.0966 63.9234 20.2495 65.7022 20.3625C67.161 20.4284 67.9328 21.9342 67.9328 23.2331Z" fill="black"/>
<path d="M17.2041 49.0118C17.2041 53.04 9.41113 53.7177 9.41113 48.8047C9.41113 46.2259 11.9994 45.1812 14.3335 45.2753C16.2064 45.3789 17.2041 47.3177 17.2041 49.0118Z" fill="black"/>
<path d="M50.8044 29.0304C50.8044 33.661 41.8444 34.4046 41.835 28.7857C41.835 25.8304 44.8185 24.6257 47.482 24.7387C49.6561 24.8328 50.8044 27.0916 50.8044 29.0304Z" fill="black"/>
<path d="M41.3166 51.5332C41.3166 55.3544 33.9189 55.9662 33.9189 51.3356C33.9189 48.8885 36.3754 47.9003 38.6248 47.9944C40.366 48.0697 41.3166 49.9238 41.3166 51.5332Z" fill="black"/>
<path d="M86.7574 49.0401C86.7574 53.6425 77.8633 54.3766 77.8633 48.8048C77.8633 45.8684 80.8186 44.6825 83.5103 44.7954C85.6186 44.8801 86.7574 47.1201 86.7574 49.0401Z" fill="black"/>
<path d="M48.9033 63.9113C48.9033 68.5513 39.9245 69.2948 39.915 63.676C39.915 60.7113 42.8986 59.5066 45.5621 59.6195C47.7456 59.7042 48.9033 61.9725 48.9033 63.9113Z" fill="black"/>
<path d="M73.6941 35.4216C73.6941 39.8263 65.167 40.5322 65.167 35.1957C65.167 32.3722 67.9905 31.2428 70.5505 31.3463C72.5552 31.431 73.6941 33.5769 73.6941 35.4216Z" fill="black"/>
<path d="M28.9125 21.2933C28.9125 25.585 20.6113 26.2721 20.6113 21.0768C20.6113 18.338 23.369 17.218 25.8537 17.3121C27.849 17.4062 28.9125 19.4956 28.9125 21.2933Z" fill="black"/>
<path d="M62.3805 66.405C62.3805 69.925 55.5664 70.4897 55.5664 66.2168C55.5664 63.9674 57.8346 63.0545 59.8676 63.1392C61.5052 63.2615 62.3805 64.9274 62.3805 66.405Z" fill="black"/>
<path d="M75.1243 73.9144C75.1243 77.6132 67.9713 78.2062 67.9619 73.7262C67.9619 71.3638 70.3431 70.4038 72.4796 70.4885C74.2019 70.5638 75.1243 72.3615 75.1243 73.9144Z" fill="black"/>
</svg>
