<svg width="96" height="96" viewBox="0 0 96 96" fill="none" xmlns="http://www.w3.org/2000/svg">
<path d="M34.627 25.8346H51.8034C51.8034 25.8346 48.6128 19.2464 43.2105 20.4699C39.8624 21.3251 36.8629 23.1998 34.627 25.8346Z" fill="black"/>
<path d="M31.5879 67.0952C31.5879 67.0952 33.0091 62.7281 38.9291 63.9705C44.8491 65.2128 41.7997 68.5728 41.7997 68.5728L31.5879 67.0952Z" fill="black"/>
<path d="M57.6768 47.5192C58.363 45.1151 60.5994 43.4883 63.0979 43.5756C67.6062 43.5756 70.4485 47.9803 70.4485 47.9803L57.6768 47.5192Z" fill="black"/>
<path d="M53.705 28.8543C50.3544 28.666 46.9944 28.4966 43.625 28.4119C42.4014 28.4119 41.1779 28.5249 39.9544 28.4778C35.6156 28.3366 31.2767 28.1955 26.9285 28.139C25.0462 28.139 23.0697 28.2049 21.1591 28.3366C18.7026 28.4966 16.265 28.8637 13.7238 28.4025C12.9332 28.2519 13.0556 27.2166 13.7238 26.1531C14.0486 25.6001 14.4619 25.1041 14.9473 24.6849C15.4805 24.2294 16.1344 23.9384 16.8297 23.8472C21.819 23.1666 26.865 22.9995 31.8885 23.3484C34.9285 23.6025 38.072 23.1978 41.1779 23.1602C44.585 23.1602 48.0014 23.1602 51.4273 23.2166L57.7426 23.3672C60.9332 23.4331 64.1332 23.6307 67.3144 23.6496C69.7897 23.6496 72.2367 23.339 74.7403 23.5272C75.2904 23.5068 75.8408 23.5574 76.3779 23.6778C78.4109 24.2896 78.9756 24.8731 79.2014 26.0496C79.2628 26.3067 79.3069 26.5677 79.3332 26.8307C79.3332 27.6496 78.392 28.2519 76.9426 28.6284C76.4061 28.7696 75.8885 28.8731 75.3332 29.0519C74.8004 29.1734 74.2593 29.2552 73.7144 29.2966C73.1779 29.3625 72.6414 29.4096 72.105 29.4566C71.5596 29.536 71.009 29.5738 70.4579 29.5696C68.2932 29.5696 66.0532 29.5131 63.8697 29.4096C62.2038 29.3531 60.5191 29.2872 58.8438 29.2025L53.7897 29.0237L53.705 28.8543Z" fill="black"/>
<path d="M41.6862 44.8271C45.0274 44.9588 48.3874 45.053 51.7568 45.053C52.9803 45.053 54.2038 44.8741 55.4274 44.8835C59.7662 44.8835 64.1144 44.8835 68.4627 44.7894C70.345 44.7894 72.3215 44.5824 74.2321 44.3847C76.6885 44.1306 79.1074 43.66 81.7615 44.0741C82.5615 44.1965 82.4391 45.2412 81.8368 46.3141C81.5117 46.8836 81.0988 47.3982 80.6133 47.8388C80.1046 48.3081 79.47 48.6189 78.7874 48.733C73.8744 49.42 68.858 50.1165 63.7285 49.7777C60.6603 49.6365 57.5262 50.1353 54.4109 50.2671C50.985 50.3988 47.5591 50.4459 44.1144 50.4459C42.0062 50.4459 39.8885 50.3894 37.7709 50.4459C36.1709 50.4459 34.5615 50.3424 32.9521 50.3047C31.3427 50.2671 29.705 50.0977 28.105 50.0977C25.6109 50.0035 23.1262 50.3141 20.5756 50.0035C20.0165 50.002 19.4599 49.9292 18.9191 49.7871C16.8862 49.0153 16.3497 48.4035 16.2368 47.2271C16.1926 46.9659 16.1706 46.7014 16.1709 46.4365C16.1709 45.6271 17.2156 45.0812 18.665 44.7894C19.2015 44.6859 19.7097 44.62 20.265 44.4694C20.7959 44.3655 21.3339 44.3026 21.8744 44.2812C22.4015 44.2812 22.9285 44.2059 23.4556 44.1871C23.7191 44.1871 23.9921 44.1871 24.265 44.1212H25.1403C26.2227 44.1212 27.2862 44.2059 28.3874 44.2341C29.4885 44.2624 30.5991 44.3 31.7097 44.3565L36.698 44.5635C38.3638 44.62 40.0485 44.6483 41.7333 44.6859L41.6862 44.8271Z" fill="black"/>
<path d="M38.7503 66.3896C42.0915 66.5213 45.4515 66.6155 48.8115 66.6155C50.0444 66.6155 51.2585 66.4366 52.4915 66.446C56.8209 66.446 61.1691 66.446 65.5268 66.3519C67.4091 66.3519 69.3856 66.1449 71.2962 65.9472C73.7526 65.6931 76.1715 65.2225 78.7691 65.6366C79.5785 65.759 79.4562 66.8037 78.8444 67.8766C78.5259 68.4479 78.1157 68.963 77.6303 69.4013C77.1216 69.8706 76.487 70.1814 75.8044 70.2955C70.8915 70.9825 65.875 71.679 60.7456 71.3402C57.6868 71.199 54.5526 71.6978 51.4373 71.8296C48.0115 71.9613 44.5762 72.0084 41.1409 72.0084C39.0326 72.0084 36.9056 71.9519 34.7974 72.0084C33.1974 72.0084 31.5879 71.9049 29.9785 71.8672C28.3691 71.8296 26.7691 71.7072 25.1691 71.7072C22.675 71.6131 20.1903 71.9331 17.6397 71.6131C17.0806 71.6115 16.524 71.5388 15.9832 71.3966C13.9503 70.6249 13.4138 70.0131 13.3009 68.8366C13.2585 68.575 13.2333 68.3109 13.2256 68.046C13.2726 67.2366 14.2797 66.6908 15.7197 66.399C16.2656 66.2955 16.7738 66.2296 17.3291 66.079C17.8569 65.9756 18.3918 65.9127 18.9291 65.8908C19.4656 65.8908 19.9926 65.8155 20.5197 65.7966C20.7832 65.7966 21.0562 65.7966 21.3291 65.7308C21.6021 65.6649 21.8656 65.7308 22.1385 65.7308C23.2209 65.7308 24.2844 65.8155 25.3856 65.8437C26.4868 65.8719 27.5974 65.9096 28.6985 65.966L33.6868 66.1731C35.3621 66.2296 37.0468 66.2578 38.7221 66.2955L38.7503 66.3896Z" fill="black"/>
<path d="M45.3944 37.9468C43.5175 38.2002 41.6127 38.1621 39.7474 37.8339C37.8871 37.5281 36.0883 36.9242 34.4203 36.0457C32.9882 35.4123 31.7293 34.4439 30.7497 33.2221C29.8718 32.0414 29.3259 30.6473 29.1686 29.1845C29.1066 28.4591 29.1351 27.7288 29.2533 27.0104C29.394 26.3542 29.5925 25.7117 29.8462 25.0904C30.0938 24.4992 30.3897 23.9294 30.7309 23.3868C31.0602 22.8575 31.4417 22.3625 31.8697 21.9092L32.5191 21.2504L33.2062 20.6763C33.6663 20.2985 34.1539 19.9556 34.665 19.6504C36.4009 18.5504 38.3101 17.7517 40.3121 17.288C40.9646 17.152 41.6246 17.0545 42.2886 16.9963C42.9683 16.9053 43.6584 16.9276 44.3309 17.0621C45.6869 17.3422 46.9382 17.9939 47.945 18.9445C48.5662 19.5468 47.945 20.0833 47.0038 20.601C46.5238 20.8645 45.9968 21.1186 45.4509 21.448C45.178 21.5986 44.9333 21.7115 44.6791 21.8433C44.4592 21.9768 44.2168 22.0693 43.9638 22.1163C43.7568 22.1163 43.5403 22.248 43.3521 22.2668C43.1549 22.2481 42.9563 22.2481 42.7591 22.2668L42.1568 22.3139L41.545 22.4268C40.7111 22.5785 39.8988 22.8313 39.1262 23.1798C38.3377 23.5074 37.5893 23.9243 36.8956 24.4221L36.3874 24.7986L35.9262 25.2033C35.7734 25.3355 35.6288 25.477 35.4933 25.6268C35.3521 25.768 35.1638 25.8998 35.0415 26.0504L34.5803 26.6339L34.2697 27.2927C34.1128 27.6804 34.0483 28.0993 34.0815 28.5163C34.2031 29.3818 34.6184 30.1793 35.258 30.7751C36.1841 31.6048 37.2987 32.196 38.505 32.4974C39.8321 32.8797 41.209 33.0605 42.5897 33.0339C44.246 33.052 45.8803 32.654 47.3427 31.8763C48.3638 31.3244 49.1988 30.4828 49.7427 29.4574L50.0721 28.648C50.1756 28.3845 50.185 28.121 50.2603 27.8668C50.3234 27.3575 50.2752 26.8405 50.1191 26.3515C49.8296 25.583 49.3062 24.9246 48.6227 24.4692C47.8899 23.9781 47.0956 23.5857 46.2603 23.3021C45.9027 23.1515 45.5356 23.048 45.178 22.9068C44.6574 22.7506 44.1953 22.4426 43.8509 22.0221C43.5907 21.4914 43.4311 20.917 43.3803 20.328C43.3333 20.008 43.2486 19.688 43.2203 19.3868C43.1814 18.8648 43.4034 18.3573 43.8133 18.0315C44.3576 17.5063 45.09 17.2215 45.8462 17.241C47.186 17.2497 48.5141 17.4918 49.7709 17.9563C51.085 18.5709 52.27 19.4301 53.2627 20.488C54.4175 21.7171 55.2402 23.22 55.6533 24.8551C56.0815 26.5996 56.0098 28.4295 55.4462 30.1351C55.2203 30.6872 54.985 31.2331 54.7403 31.7727C54.4486 32.2904 54.1003 32.7892 53.7991 33.288C53.4289 33.7491 53.0329 34.189 52.6133 34.6057C52.1803 35.001 51.7286 35.3586 51.2768 35.7163C49.5337 36.9364 47.5344 37.7412 45.4321 38.0692L45.3944 37.9468Z" fill="black"/>
<path d="M67.889 58.8131C66.2101 59.2701 64.4687 59.4544 62.7313 59.359C61.9018 59.3256 61.0751 59.2407 60.256 59.1049C59.4201 58.9664 58.5958 58.7651 57.7902 58.5025C56.5697 58.1731 55.4009 57.6758 54.3172 57.0249C53.1905 56.2694 52.2637 55.2521 51.616 54.0601C50.9237 52.7171 50.7463 51.1673 51.1172 49.7025C51.7367 47.5765 52.9792 45.6849 54.6843 44.2719C56.0698 43.0982 57.6672 42.2005 59.3902 41.6272C61.5103 40.9628 63.783 40.9628 65.9031 41.6272C66.5431 41.8531 66.336 42.4837 65.7525 43.1613C65.4293 43.5493 65.0665 43.9026 64.6702 44.2154C64.271 44.5542 63.8065 44.8072 63.3054 44.959C62.5002 45.1584 61.7203 45.4489 60.9807 45.8249C60.3223 46.1104 59.6921 46.457 59.0984 46.8601C57.9638 47.6529 57.0346 48.7047 56.3878 49.9284C56.2937 50.1072 56.209 50.3237 56.1337 50.4931C56.0982 50.6003 56.073 50.7106 56.0584 50.8225C56.0351 50.9865 56.0792 51.1528 56.1807 51.2837C56.6863 51.7945 57.2875 52.2007 57.9502 52.479C58.9456 52.9666 60.0083 53.3029 61.1031 53.4766C62.2608 53.6647 63.4388 53.6932 64.6043 53.5613C65.2669 53.4846 65.9198 53.3395 66.5525 53.1284C67.1149 52.9286 67.6399 52.6359 68.1054 52.2625C68.7292 51.7097 69.1055 50.9301 69.1502 50.0978C69.2458 49.1706 69.0163 48.239 68.5007 47.4625C67.6725 46.3331 66.0913 45.9754 64.6702 45.9566C64.3313 45.9566 64.0207 46.0131 63.729 46.0319C63.2397 46.0842 62.7502 45.9346 62.3737 45.6178C61.9738 45.1951 61.6972 44.6711 61.5737 44.1025C61.4607 43.7637 61.3196 43.4249 61.2254 43.086C61.0658 42.5464 61.1339 41.9649 61.4137 41.4766C61.7592 40.9194 62.3047 40.5154 62.9384 40.3472C64.0673 40.014 65.2529 39.9179 66.4207 40.0649C67.7432 40.2001 69.0242 40.6037 70.1854 41.2507C71.498 41.9678 72.6208 42.9873 73.4607 44.2249C74.3091 45.5209 74.844 46.9968 75.0231 48.5354C75.0994 49.0778 75.1246 49.6261 75.0984 50.1731C75.0844 50.7556 75.0151 51.3355 74.8913 51.9049C74.7645 52.5167 74.572 53.1131 74.3172 53.6837C74.0551 54.2636 73.74 54.8181 73.376 55.3401C71.9943 57.0724 70.1106 58.3348 67.9831 58.9543L67.889 58.8131Z" fill="black"/>
<path d="M40.5755 78.7558C38.8982 79.1037 37.1759 79.18 35.4743 78.9817C33.8654 78.7994 32.2849 78.4201 30.7685 77.8523C29.5186 77.4703 28.3416 76.8818 27.2861 76.1111C26.2611 75.2248 25.4803 74.0907 25.0179 72.817C24.5889 71.5628 24.514 70.2146 24.8014 68.9205C25.3218 66.7309 26.628 64.8085 28.472 63.5182C29.8981 62.492 31.4899 61.7184 33.1779 61.2311C35.2065 60.627 37.3625 60.5945 39.4085 61.137C40.0391 61.3347 39.8791 61.9747 39.3426 62.6711C38.749 63.5018 37.9382 64.153 36.9991 64.5535C36.1967 64.8032 35.4161 65.118 34.6649 65.4947C33.9801 65.7575 33.3162 66.0722 32.6791 66.4358C31.6023 67.0564 30.7042 67.9447 30.072 69.0147C29.7456 69.5016 29.7026 70.1252 29.9591 70.6523C30.2915 71.1708 30.7604 71.5876 31.3143 71.857C32.2412 72.374 33.2407 72.7484 34.2791 72.9676C35.373 73.2265 36.4968 73.3373 37.6202 73.297C38.8502 73.2927 40.0516 72.926 41.0743 72.2429C41.3774 71.9986 41.6381 71.706 41.8461 71.377C41.9582 71.2078 42.0468 71.0241 42.1096 70.8311C42.1553 70.7404 42.1931 70.646 42.2226 70.5488V70.2758C42.3543 69.4852 42.1108 68.6782 41.5638 68.0923C40.4352 67.0188 39.0015 66.3217 37.4602 66.097C37.1214 66.0123 36.7638 66.0123 36.4343 65.937C35.2202 65.6453 35.032 65.1747 34.8626 63.6029C34.8626 63.2453 34.7496 62.8876 34.7308 62.53C34.6638 61.9718 34.8424 61.4121 35.2202 60.9958C35.6894 60.527 36.3175 60.2515 36.9802 60.2241C39.2133 60.1556 41.4169 60.7483 43.3143 61.9276C44.4216 62.6063 45.4077 63.4652 46.232 64.4688C47.2293 65.732 47.8782 67.2344 48.1143 68.8264C48.1848 69.4708 48.1848 70.1209 48.1143 70.7653C48.0585 71.387 47.929 71.9999 47.7285 72.5911C47.362 73.725 46.7733 74.7744 45.9967 75.6782C44.5656 77.2807 42.6763 78.4045 40.5849 78.897L40.5755 78.7558Z" fill="black"/>
</svg>
