<svg width="96" height="96" viewBox="0 0 96 96" fill="none" xmlns="http://www.w3.org/2000/svg">
<path d="M76.4389 24.4005C76.5615 24.33 76.67 24.2375 76.7589 24.1276C76.9189 23.9488 76.7589 23.8735 76.6742 23.7699C76.6194 23.7057 76.5596 23.6459 76.4954 23.5911L76.373 23.5158L75.8366 23.2711C75.4378 23.0917 75.0255 22.9438 74.6036 22.8288L73.333 22.4523C72.7136 22.2984 72.0848 22.1852 71.4507 22.1135C70.8013 21.9911 70.1424 21.9723 69.4836 21.8782C64.6579 21.2317 59.7554 21.4549 55.0083 22.537C52.8573 23.0453 50.7587 23.7543 48.7401 24.6546C46.1424 25.7841 43.7519 27.2805 41.0413 28.1841C40.1942 28.4476 39.6295 27.2993 39.6766 25.8217C39.6742 24.1297 40.551 22.558 41.9919 21.6711C44.7574 20.1979 47.6567 18.9909 50.6507 18.0664C53.684 17.1503 56.8145 16.5943 59.9777 16.4099C63.7424 16.2217 67.7236 15.6758 71.686 16.2688C73.8703 16.5902 76.011 17.1586 78.0671 17.9629L79.0083 18.3582C79.3819 18.4953 79.7465 18.6556 80.1001 18.8382C80.7352 19.1861 81.3425 19.5825 81.9166 20.0241C82.4817 20.4158 83.0137 20.8534 83.5071 21.3323C83.7847 21.9611 83.8314 22.6677 83.6389 23.3276C83.4274 24.195 83.0812 25.0238 82.613 25.7841C82.3777 26.1888 82.1236 26.5841 81.8601 26.9793C81.5966 27.3746 81.2954 27.817 81.1448 28.0241C80.373 29.0405 79.6107 29.9817 78.8577 31.017C76.5801 34.0288 74.1519 36.9088 72.1377 39.977C70.5939 42.337 69.1892 44.7851 67.9307 47.3088C67.6389 47.8452 67.4036 48.4005 67.1024 48.937C65.9824 50.9323 65.3519 51.4029 64.0813 51.3652C63.7961 51.3846 63.51 51.3846 63.2248 51.3652C62.3401 51.2146 62.0389 49.9911 62.4907 48.2123C63.2267 45.5608 64.2001 42.981 65.3989 40.5041C66.0013 39.2617 66.6413 38.0382 67.2813 36.8241C67.9213 35.6099 68.7683 34.4899 69.5307 33.3511C70.6789 31.6664 71.8836 30.0193 73.1166 28.4382L74.9236 26.0758L75.7895 24.9088L76.1848 24.3723V24.3723L76.4389 24.4005Z" fill="black"/>
<path d="M26.3306 53.831C27.7047 52.4098 29.0412 50.9604 30.4529 49.5862C31.8647 48.2121 33.2765 46.8192 34.7635 45.5298C35.8553 44.5886 36.7494 43.4498 37.8976 42.5651C41.837 39.3436 46.076 36.5072 50.5565 34.0945C51.5541 33.5674 52.4953 32.9557 53.4835 32.4286C54.4718 31.9015 55.46 31.3462 56.4294 30.8004C57.0412 30.4239 57.7094 30.1415 58.3118 29.8592C58.9485 29.5072 59.6053 29.193 60.2788 28.918C61.6578 28.4485 63.0846 28.1328 64.5329 27.9768C65.4741 27.8733 65.5682 28.7768 65.1918 29.9721C64.7921 31.3984 63.9234 32.6485 62.7259 33.5204C62.4435 33.7086 62.1706 33.9157 61.8788 34.0851L60.9941 34.5462L59.2153 35.4874C58.0576 36.1745 56.8906 36.8239 55.7047 37.4639C54.5188 38.1039 53.3988 38.8757 52.2129 39.5345C51.0271 40.1933 49.8882 40.9745 48.6741 41.6521C47.958 42.0858 47.2696 42.5635 46.6129 43.0827C45.9353 43.5815 45.2576 44.0992 44.6082 44.6357L40.8341 48.0333C38.1047 50.5557 35.2812 53.1345 32.7494 55.9298C31.1306 57.6051 29.6341 59.3933 28.1376 61.1815L24.9282 65.3792C23.9118 66.8286 22.8765 68.2592 21.9824 69.7745C21.2953 70.9509 20.6929 72.1745 20.1 73.398C19.5071 74.6215 18.9988 75.8733 18.34 77.0404C18.0388 77.5486 17.8129 78.0851 17.5118 78.5933C16.3824 80.4757 15.6294 80.918 14.2741 80.7674C13.9582 80.7577 13.6435 80.7231 13.3329 80.6639C12.3918 80.438 12.0341 79.2427 12.3447 77.5015C12.5988 76.2309 12.8341 74.9133 13.2106 73.6427C13.5871 72.3721 14.1518 71.1768 14.6694 69.9721C15.1871 68.7674 15.94 67.6568 16.6176 66.4992C17.2953 65.3415 18.0576 64.2592 18.8012 63.1392C21.0832 59.8717 23.5401 56.7298 26.1612 53.7274L26.3306 53.831Z" fill="black"/>
</svg>
