<svg width="96" height="96" viewBox="0 0 96 96" fill="none" xmlns="http://www.w3.org/2000/svg">
<path d="M65.7634 79.832C65.9516 80.2085 65.5187 80.5097 64.8222 80.8579C64.4925 80.9691 64.1354 80.9691 63.8057 80.8579C63.5925 80.6287 63.3974 80.3833 63.2222 80.1238C63.0257 79.6308 62.9081 79.1099 62.874 78.5803C62.874 78.185 62.7987 77.7615 62.7799 77.385C62.761 77.0085 62.7799 76.6603 62.7799 76.4438C62.8039 75.5505 62.9723 74.6669 63.2787 73.8273C63.9253 72.1358 64.8197 70.5499 65.9328 69.1215C66.1988 68.7981 66.5169 68.5213 66.874 68.3026L70.281 65.9215C70.4967 65.8117 70.6787 65.6459 70.8081 65.4415C71.4057 64.9339 72.0961 64.5472 72.841 64.3026C73.3493 64.1238 73.8763 63.9638 74.2999 63.8415C74.6097 63.7766 74.9246 63.7388 75.241 63.7285C75.8709 63.7476 76.4993 63.801 77.1234 63.8885C77.7287 63.953 78.3292 64.0567 78.921 64.1991C79.081 64.2462 79.2693 64.1991 79.401 64.4062C79.721 64.9144 80.0693 64.8579 80.4175 64.9238C80.8968 65.0467 81.3541 65.2436 81.7728 65.5073C81.9937 65.7053 82.1728 65.9452 82.2998 66.2132C82.4504 66.4485 82.1493 67.1073 82.074 67.1544C81.8198 67.3332 81.8951 67.6909 81.8293 67.9826C81.8108 68.0846 81.7857 68.1852 81.754 68.2838C81.3406 68.5208 80.9017 68.7102 80.4457 68.8485C80.0151 69.0311 79.5753 69.1913 79.1281 69.3285H78.6293C78.279 69.3544 77.9303 69.3984 77.5846 69.4603L77.0199 69.5544L76.521 69.705L75.9187 69.8932C75.7488 69.9359 75.5709 69.9359 75.401 69.8932C75.0162 70.0211 74.6468 70.1915 74.2999 70.4015C73.9467 70.5963 73.6043 70.81 73.274 71.0415C72.8757 71.3177 72.4113 71.4834 71.9281 71.5215C71.827 71.5214 71.7322 71.5706 71.674 71.6532L70.6669 72.3873L70.1399 72.745L69.6504 73.1685C69.4835 73.3088 69.3321 73.4666 69.1987 73.6391L68.8222 74.1756C68.7565 74.2302 68.6874 74.2805 68.6151 74.3262C68.5218 74.376 68.4388 74.4431 68.3704 74.5238C67.7604 75.3754 67.3136 76.3328 67.0528 77.3473C66.9452 77.6133 66.8128 77.8685 66.6575 78.1097C66.5348 78.3808 66.4432 78.665 66.3846 78.9568C66.3846 79.0415 66.234 79.192 66.074 79.3615C65.914 79.5309 65.7351 79.7568 65.7634 79.832Z" fill="black"/>
<path d="M45.5467 74.2519C45.6654 75.1136 45.3604 75.9795 44.7279 76.5766C44.5302 76.8119 43.8714 76.8778 43.7867 76.5766C43.5326 76.0872 43.2597 75.6354 43.0338 75.0613C42.9204 74.7283 42.8415 74.3846 42.7985 74.0354C42.6322 73.3469 42.5065 72.6493 42.422 71.946C42.3442 71.1391 42.3128 70.3283 42.3279 69.5178V68.4543L42.3844 67.6072C42.4919 65.8049 42.8434 64.0256 43.4291 62.3178C44.6194 58.8314 46.3503 55.5537 48.5585 52.6048C49.0379 51.9453 49.5939 51.345 50.215 50.8166C52.3985 49.0566 54.4785 47.2872 56.6902 45.6119C57.0866 45.3561 57.4394 45.0384 57.735 44.6707C58.1155 44.3015 58.5389 43.9793 58.9961 43.7107C59.8249 43.1772 60.6827 42.6902 61.5655 42.2519C62.4688 41.801 63.3956 41.3988 64.342 41.0472C64.9084 40.8401 65.4867 40.6673 66.0738 40.5295C68.5589 40.0984 71.0866 39.9657 73.6032 40.1342C73.9776 40.116 74.3496 40.2041 74.6761 40.3884C75.3393 40.8368 76.116 41.0881 76.9161 41.1131C77.4378 41.2263 77.9505 41.3773 78.4502 41.5648C78.9397 41.7813 79.3914 42.0448 79.8902 42.299C80.3326 42.6299 80.7311 43.0157 81.0761 43.4472C81.4055 43.7954 80.9255 44.3037 80.7655 44.3225C80.2855 44.379 80.4926 44.8025 80.4173 45.066C80.3985 45.1622 80.3635 45.2545 80.3138 45.339C79.399 45.4032 78.4881 45.5131 77.5844 45.6684C76.2573 45.9319 75.0055 46.2425 74.7608 46.2801C73.5728 46.3982 72.3916 46.5772 71.222 46.8166C69.8704 47.1333 68.5528 47.5809 67.2879 48.1531C66.8934 48.2977 66.4824 48.3925 66.0644 48.4354C65.1413 48.8411 64.2535 49.3227 63.4102 49.8754C62.1585 50.6378 60.9914 51.5413 60.8973 51.5978C60.3974 51.9053 59.9137 52.2383 59.4479 52.5954C58.9557 52.9422 58.417 53.2178 57.8479 53.4143C57.6248 53.5068 57.4253 53.6483 57.2644 53.8284C56.5208 54.5343 55.7679 55.2119 55.015 55.9084C54.2321 56.575 53.4844 57.2818 52.775 58.026C52.4093 58.4057 52.0757 58.815 51.7773 59.2495C51.4667 59.6637 51.1655 60.0966 50.8361 60.539C50.7118 60.6869 50.5799 60.8283 50.4408 60.9625C50.259 61.1259 50.1035 61.3164 49.9797 61.5272C48.6218 63.6339 47.635 65.9577 47.062 68.3978C46.6187 69.6715 46.3034 70.9862 46.1208 72.3225C45.8651 72.9447 45.6727 73.5911 45.5467 74.2519Z" fill="black"/>
<path d="M16.5583 67.1456C16.5963 67.4959 16.5963 67.8494 16.5583 68.1997C16.5274 68.519 16.4643 68.8343 16.3701 69.1409C16.148 69.7867 15.8308 70.3958 15.4289 70.9479C15.1654 71.315 14.3371 71.3244 14.1865 70.8821C13.9136 70.035 13.6313 69.1597 13.4054 68.2562C13.3271 67.679 13.2863 67.0974 13.283 66.515C13.283 66.0444 13.283 65.4891 13.2077 64.8962C13.1324 64.3032 13.2077 63.6538 13.2548 63.0138C13.3353 60.6169 13.5932 58.2291 14.0265 55.8703C14.5417 52.9369 15.4535 50.0872 16.7371 47.3997C19.3846 42.0299 22.8133 37.082 26.9113 32.7174C27.8215 31.7538 28.8031 30.8603 29.8477 30.0444C33.4524 27.2868 37.0289 24.5856 40.803 22.0726C41.4794 21.7196 42.0983 21.2658 42.6383 20.7268C43.3011 20.1549 44.0237 19.6564 44.7936 19.2397C45.396 18.9197 46.0454 18.5056 46.7889 18.1574L49.1136 17.1032C51.5377 16.0626 54.0601 15.268 56.643 14.7315C60.6898 14.1015 64.7972 13.9562 68.8783 14.2985C69.4667 14.2658 70.0544 14.3756 70.5913 14.6185C71.7049 15.2409 72.9355 15.6255 74.2054 15.7479C75.043 15.9738 75.8713 16.1903 76.6901 16.4538C77.5089 16.7174 78.2901 17.1032 79.0713 17.4515C79.8029 17.9123 80.4843 18.4486 81.1042 19.0515C81.6877 19.5503 80.963 20.1809 80.6995 20.1903C79.9277 20.1903 80.3136 20.7738 80.2289 21.1315C80.2109 21.2602 80.1625 21.3828 80.0877 21.4891C79.6017 21.4984 79.116 21.4573 78.6383 21.3668L77.9701 21.2726H77.1983L75.5418 21.2068L73.8571 21.2915C73.3498 21.3039 72.8437 21.3479 72.3418 21.4232C71.7401 21.5181 71.1338 21.581 70.5254 21.6115C70.4689 21.6115 69.6783 21.7056 68.5113 21.7056C67.0624 21.7828 65.6196 21.9494 64.1913 22.2044C61.781 22.6158 59.4168 23.262 57.1324 24.1338C56.4367 24.364 55.7217 24.531 54.996 24.6326C54.9113 24.6326 54.2807 24.9244 53.3865 25.3103C52.4924 25.6962 51.3536 26.3079 50.2054 26.8726C47.9183 28.0491 45.7442 29.4232 45.5654 29.5079C44.6242 29.9785 43.8054 30.5621 42.9113 31.0703C42.0269 31.6294 41.079 32.0812 40.0877 32.4162C39.7077 32.5927 39.3557 32.8242 39.043 33.1032C36.1848 35.2559 33.448 37.5653 30.8454 40.0209C30.2148 40.6797 29.603 41.3668 28.963 42.0538L27.2689 44.1997C27.0524 44.4538 26.8077 44.6797 26.5818 44.9244C26.2946 45.2227 26.0244 45.537 25.7724 45.8656C24.5175 47.6538 23.3756 49.4891 22.3465 51.3715C21.8007 52.3126 21.3301 53.2538 20.8313 54.2421C20.3324 55.2303 19.9936 56.2374 19.6548 57.2538C19.5173 57.6776 19.3538 58.0925 19.1654 58.4962C18.9301 59.0609 18.6195 59.7291 18.403 60.4256C18.1865 61.1221 17.9136 61.8185 17.7348 62.4209C17.556 63.0232 17.4995 63.5597 17.4995 63.8515C17.342 64.4136 17.1535 64.9666 16.9348 65.5079C16.7354 66.0341 16.6087 66.5851 16.5583 67.1456Z" fill="black"/>
</svg>
