<svg width="96" height="96" viewBox="0 0 96 96" fill="none" xmlns="http://www.w3.org/2000/svg">
<path d="M59.4885 60.8596C57.7627 60.9623 56.0308 60.8834 54.3215 60.6243C52.7215 60.3984 51.1968 60.0878 49.6815 59.7772C46.6603 59.1372 43.7521 58.3278 40.8721 57.4525L39.0556 56.9725L38.6697 56.8125L38.3685 56.7184C38.2744 56.7184 38.1238 56.596 38.0956 56.7184C37.9915 56.9202 37.9064 57.1313 37.8415 57.349L37.7285 57.5372C37.6875 57.6498 37.6591 57.7666 37.6438 57.8855L37.3615 59.269L36.2226 64.916C35.4643 68.7439 34.4519 72.5169 33.1921 76.2102C32.9568 76.8502 32.7121 77.4902 32.4297 78.0925C32.2885 78.4125 32.1379 78.7419 31.9779 79.0337C31.7744 79.4474 31.5482 79.8496 31.3003 80.2384C30.812 81.0487 30.1731 81.7579 29.4179 82.3278C28.684 82.8797 27.7854 83.1682 26.8674 83.1466C26.2988 82.9961 25.742 82.8043 25.2015 82.5725C24.6556 82.2713 24.1097 81.9513 23.5732 81.6313C21.6909 80.4925 19.8085 79.4572 18.0203 78.3372C17.0791 77.7913 16.2132 77.2266 15.3285 76.6525C14.8814 76.372 14.4566 76.0573 14.0579 75.7113L12.8062 74.7702C11.7991 73.9702 12.1568 73.3772 13.625 72.9631C14.5711 72.7248 15.5395 72.586 16.5144 72.549C17.7148 72.5733 18.8973 72.8457 19.9874 73.349C21.4744 74.0455 22.9426 74.7702 24.3826 75.4855L26.4344 76.5302V76.5302C26.4344 76.5302 26.5097 76.596 26.585 76.5866C26.6603 76.5772 26.585 76.5866 26.6415 76.5207C26.6979 76.4549 26.7638 76.3043 26.8297 76.1819C26.8956 76.0596 27.0744 75.6925 27.1968 75.429C27.4415 74.9019 27.6674 74.3372 27.8932 73.7537C28.7874 71.3913 29.5497 68.7937 30.3026 66.1678C30.986 63.6021 31.5264 61.0005 31.9215 58.3749L32.2979 56.0784C32.4653 54.9808 32.7075 53.8959 33.0226 52.8313C33.1727 52.3704 33.3815 51.9307 33.6438 51.5231C33.8913 51.1494 34.2113 50.8294 34.585 50.5819C34.7696 50.5089 34.9624 50.4583 35.1591 50.4313C35.3546 50.3948 35.5533 50.379 35.7521 50.3843C35.9805 50.3607 36.2107 50.3607 36.4391 50.3843L37.2203 50.5349L37.4744 50.5913L40.8438 51.6643L42.9144 52.3043C44.2948 52.7247 45.6783 53.12 47.065 53.4902C49.7876 54.2464 52.5668 54.7815 55.3756 55.0902C56.4447 55.2034 57.5212 55.2286 58.5944 55.1655C58.9525 55.1513 59.3085 55.104 59.6579 55.0243C59.9507 54.9641 60.2249 54.835 60.4579 54.6478C60.5991 54.5631 60.6274 54.3937 60.6744 54.2525C60.7215 54.1113 60.7685 53.9513 60.8062 53.8007C60.8438 53.6502 60.9191 53.3302 60.9756 53.0478L61.1638 52.1066C62.2274 46.7137 63.4132 41.2172 64.6368 35.8054C65.5779 31.589 66.3497 27.3349 67.7144 23.156C68.025 22.2149 68.2791 21.2737 68.6556 20.3796C69.1029 19.1054 69.8483 17.9566 70.8297 17.029C71.5303 16.5066 72.4232 16.3143 73.2768 16.5019C73.6751 16.5458 74.0687 16.6245 74.4532 16.7372C75.0365 17.034 75.4012 17.6357 75.3944 18.2902C75.4331 18.7222 75.4331 19.1569 75.3944 19.589C75.332 20.1159 75.2088 20.6339 75.0274 21.1325C72.8532 27.7207 71.2626 35.2502 69.3803 42.8549C68.8626 45.1702 68.3356 47.4949 67.8179 49.8196L67.0274 53.3772L66.5097 55.5513C66.3873 56.1244 66.2043 56.6828 65.9638 57.2172C65.708 57.7162 65.4187 58.1973 65.0979 58.6572C64.7026 59.0055 64.2791 59.316 63.865 59.5984C63.4144 59.8809 62.9348 60.1144 62.4344 60.2949C61.9325 60.4881 61.4165 60.6423 60.8909 60.756C60.6311 60.8221 60.3669 60.8693 60.1003 60.8972L59.4885 60.9725V60.8596Z" fill="black"/>
<path d="M73.6251 18.3273C73.6251 18.2144 73.6251 18.2614 73.6251 18.2332V17.9508C73.6251 17.8285 73.6251 17.5932 73.4651 17.612C73.3683 17.5986 73.2701 17.5986 73.1733 17.612L72.9945 17.6685C72.8756 17.7122 72.7668 17.7794 72.6745 17.8661C71.9874 18.3744 71.3945 19.0426 70.7169 19.6356C68.1415 21.6702 65.7018 23.871 63.4133 26.2238C62.409 27.2972 61.496 28.4526 60.6839 29.6779C59.7676 31.2064 58.6986 32.6381 57.4933 33.9508C57.211 34.1956 56.1945 34.0073 55.4604 33.0097C54.658 32.014 54.4398 30.6691 54.8863 29.4708C55.3555 28.5468 55.9134 27.6705 56.5522 26.8544C57.1639 26.0356 57.8039 25.2544 58.4345 24.5014C59.7703 22.9855 61.2312 21.5845 62.8016 20.3132C63.7409 19.5252 64.6364 18.6863 65.4839 17.8003L66.8204 16.5014C67.291 16.0779 67.7616 15.6732 68.2886 15.2967C68.8157 14.9203 69.0322 14.7414 69.418 14.4779L70.0204 14.0826C70.2463 13.9132 70.6039 13.7344 70.8863 13.5461C71.4489 13.1737 72.056 12.8733 72.6933 12.652C73.2516 12.4335 73.8376 12.2941 74.4345 12.2379C74.7251 12.2295 75.0156 12.2548 75.3004 12.3132V12.3132C75.3004 12.3132 75.2251 12.5297 75.3004 12.4356V12.4356V12.4356C75.3317 12.4339 75.3632 12.4339 75.3945 12.4356L75.5639 12.5485L75.8839 12.7838C76.3319 13.2027 76.6738 13.722 76.8816 14.2991C77.6093 16.0826 78.2377 17.905 78.7639 19.7579C79.4886 22.1297 80.0816 24.5391 80.8345 26.8732C81.418 28.6897 82.2557 30.412 82.9427 32.2097C83.0933 32.605 83.2816 32.9814 83.4039 33.3861C83.8369 34.9203 83.5357 35.5226 82.3216 36.0873C82.0496 36.2284 81.77 36.3541 81.4839 36.4638C80.5022 36.7657 79.4485 36.2951 79.018 35.3626C77.5241 32.2814 76.36 29.0509 75.5451 25.725C74.8486 23.2497 74.218 20.7085 73.4557 18.2897L73.6251 18.3273Z" fill="black"/>
</svg>
