<svg width="96" height="96" viewBox="0 0 96 96" fill="none" xmlns="http://www.w3.org/2000/svg">
<path d="M64.3021 65.9313C61.9586 66.2136 59.5962 66.6654 57.3092 67.183C56.4621 67.3713 55.6433 67.663 54.7962 67.8607C51.8315 68.6136 48.8762 69.4795 45.9774 70.5148C44.688 70.9666 43.4268 71.456 42.2127 72.0583C40.6033 72.7266 39.0503 73.536 37.375 74.0536C36.848 74.223 36.7444 73.8278 36.9892 73.263C37.357 72.4972 37.9652 71.8725 38.7209 71.4842C41.9363 69.8045 45.3301 68.4912 48.8386 67.5689C49.8833 67.2678 50.9468 66.9478 52.0103 66.6278C53.0739 66.3078 54.1468 65.9501 55.2197 65.6866C57.5821 65.0372 59.9915 64.5572 62.4009 64.1242C63.8974 63.9172 65.3844 63.663 66.8997 63.5501C69.1797 63.329 71.4708 63.2442 73.7609 63.296C74.6456 63.3525 75.5303 63.296 76.415 63.3995C77.3074 63.4502 78.1964 63.5476 79.0786 63.6913C79.4644 63.7666 79.8503 63.8136 80.2456 63.8983C80.7802 63.9862 81.281 64.2171 81.695 64.5666C81.9337 64.7609 82.0859 65.0417 82.1186 65.3478C82.1314 65.4824 82.1314 65.6179 82.1186 65.7525C82.1186 66.1478 81.4033 66.2983 80.415 66.1948C77.4213 65.635 74.3774 65.389 71.3327 65.4607C68.9732 65.5109 66.6189 65.7058 64.2833 66.0442L64.3021 65.9313Z" fill="black"/>
<path d="M66.7959 52.5581C66.4827 52.9087 66.1324 53.2243 65.7512 53.4992C65.5347 53.6498 65.3088 53.8004 65.0923 53.9322C64.8661 54.0552 64.63 54.1591 64.3865 54.2428C63.8185 54.4666 63.2066 54.5567 62.5982 54.5063C62.0423 54.4519 61.5005 54.2989 60.9982 54.0545C60.3086 53.7149 59.6503 53.3149 59.0312 52.8592L57.3935 51.6545C56.6218 51.0804 55.7747 50.5628 55.0782 50.064C52.3638 48.2319 49.4453 46.7222 46.3818 45.5651C44.9954 45.0468 43.5738 44.6284 42.1276 44.3134C40.2638 43.9761 38.422 43.5267 36.6123 42.9675C36.057 42.7698 36.2076 42.2145 36.8006 41.6969C37.5725 41.0087 38.5936 40.6683 39.6241 40.7557C41.6315 40.9774 43.6116 41.3999 45.5347 42.0169C47.4791 42.6082 49.3685 43.3671 51.1818 44.2851C53.468 45.3249 55.6706 46.5395 57.77 47.9181C58.8429 48.6992 59.9065 49.4992 60.9512 50.224C61.4061 50.56 61.8913 50.8531 62.4006 51.0992C62.695 51.2549 63.0473 51.2549 63.3418 51.0992C63.4668 51.0427 63.5839 50.9699 63.69 50.8828C63.8111 50.8177 63.9221 50.7352 64.0194 50.6381C64.271 50.4081 64.4981 50.1526 64.697 49.8757C65.1616 49.2831 65.5771 48.6535 65.9394 47.9934C67.097 45.8945 68.1888 43.6263 69.3182 41.4051C70.1374 39.6098 71.0809 37.8738 72.1418 36.2098C72.3609 35.8146 72.6439 35.4585 72.9794 35.1557C74.2782 34.0451 74.8618 33.904 75.5959 34.271C75.7606 34.3403 75.9182 34.4254 76.0665 34.5251C76.5088 34.8922 76.2923 35.6451 75.737 36.511C75.4162 37.2356 75.0451 37.9369 74.6265 38.6098C74.2218 39.2875 73.817 39.9651 73.4312 40.6992C72.65 42.1298 71.8876 43.6545 71.1253 45.2357C70.5512 46.4122 69.977 47.5981 69.3276 48.831C68.6479 50.1713 67.8242 51.4337 66.8712 52.5957L66.7959 52.5581Z" fill="black"/>
<path d="M14.1934 30.553C17.0126 29.2525 19.8964 28.0964 22.8333 27.0895C25.7008 26.073 28.5839 25.1318 31.4828 24.2659C33.6004 23.6259 35.671 22.8542 37.7981 22.2895C45.3239 20.2789 52.9604 18.7076 60.6686 17.5836C64.1039 17.1224 67.5486 16.6424 71.0216 16.313C73.2605 16.0862 75.5101 15.9825 77.7604 16.0024C78.9076 16.0358 80.0517 16.1396 81.1863 16.313C82.3423 16.5298 83.4675 16.887 84.5369 17.3765C85.8922 18.0259 85.3275 18.9201 83.9722 19.7765C83.1694 20.2956 82.3295 20.7549 81.4592 21.1506C80.4528 21.5595 79.3735 21.7581 78.2875 21.7342C74.0701 21.7182 69.8565 21.9887 65.6757 22.5436C61.4122 23.0989 57.0828 23.6071 52.7063 24.2471C47.4733 24.9906 42.2122 26.6848 37.0169 28.1906C31.3133 29.8659 25.6192 31.673 20.151 33.8377C18.8428 34.3742 17.5439 34.9389 16.311 35.5412L15.3698 36.0024L15.0498 36.1812L14.8051 36.313C14.5228 36.5012 14.1086 36.7083 14.1275 37.1036C14.1086 37.3039 14.1086 37.5056 14.1275 37.7059C14.1275 37.8095 14.1275 37.913 14.1275 38.0165C14.1275 38.1201 14.1745 38.3648 14.2122 38.5436C14.6922 41.113 15.4828 43.8424 16.2263 46.5248L18.5604 54.6283C19.7557 58.8448 21.1486 62.9577 21.8075 67.4471C21.9746 68.4442 22.0877 69.4496 22.1463 70.4589C22.1742 71.2766 22.1332 72.0951 22.0239 72.9059C21.9046 73.4828 21.6983 74.0381 21.4122 74.553C21.0263 75.2858 20.3381 75.8123 19.5298 75.993C19.2258 76.1022 18.9098 76.1749 18.5886 76.2095C18.0804 76.2095 17.7416 75.7954 17.4875 75.1459C17.1726 74.2709 16.9486 73.3657 16.8192 72.4448C16.4834 68.8408 15.8347 65.2728 14.8804 61.7812C13.9392 58.0918 12.8381 54.3083 11.6804 50.4871C11.0498 48.3883 10.4098 46.2612 9.79806 44.0589C9.50629 42.9483 9.20511 41.8377 8.951 40.6424L8.76276 39.7012L8.67806 39.2212L8.58394 38.5812C8.43296 37.5231 8.43296 36.4488 8.58394 35.3906L8.74394 34.8636C8.74394 34.7883 8.74394 34.6754 8.8757 34.6189L8.96982 34.3648C9.11687 34.024 9.31351 33.7068 9.55335 33.4236C10.0586 32.856 10.6379 32.359 11.2757 31.9459C11.5863 31.7201 11.8969 31.5318 12.2169 31.3436L12.9416 31.0142C13.3369 30.7977 13.7322 30.5906 14.1181 30.4024L14.1934 30.553Z" fill="black"/>
<path d="M59.7931 69.6018C58.259 69.8465 56.7249 70.1948 55.1907 70.543L50.5884 71.6724C49.459 71.9736 48.386 72.3971 47.2566 72.6889C45.2802 73.2065 43.2943 73.7618 41.3178 74.3171C39.3413 74.8724 37.3649 75.503 35.4072 76.143C33.666 76.736 31.9719 77.4418 30.306 78.1571C28.2137 79.2106 26.0015 80.007 23.7178 80.5289C22.9931 80.6607 22.7766 79.9171 23.0213 78.9195C23.3213 77.6914 24.0831 76.6261 25.1484 75.9454C27.2542 74.7729 29.4587 73.7872 31.7366 72.9995C34.0005 72.1368 36.3098 71.3984 38.6543 70.7877C40.0566 70.4018 41.4778 69.9313 42.8707 69.4136C44.2637 68.896 45.6943 68.3313 47.0872 67.8983C48.4801 67.4654 50.2213 66.9571 51.7931 66.5336L54.1931 65.9218L56.6025 65.376C57.5907 65.1407 58.5884 64.9618 59.5954 64.783C60.6025 64.6042 61.6001 64.4065 62.6166 64.2748C65.6902 63.8211 68.7902 63.5696 71.8966 63.5218C74.2966 63.4183 76.6872 63.3054 79.0966 63.3995C79.6237 63.3995 80.1413 63.3995 80.6684 63.4842C82.5507 63.9171 83.106 64.4254 83.266 65.6865C83.3201 65.9475 83.3578 66.2115 83.379 66.4771C83.379 67.2865 82.4378 68.0018 81.0543 68.1524C80.5429 68.2327 80.0277 68.2861 79.5107 68.3124C79.0025 68.3124 78.4943 68.3124 77.986 68.3124C76.9884 68.3124 75.9813 68.3124 74.9837 68.3124H73.5437H72.0378C71.0307 68.3124 70.0237 68.3971 69.0166 68.4536C65.9462 68.6703 62.8934 69.0885 59.8778 69.7054L59.7931 69.6018Z" fill="black"/>
<path d="M68.1787 50.6938C67.9528 51.0703 67.6987 51.4091 67.4634 51.7667C67.2179 52.0979 66.9507 52.4123 66.6634 52.7079L66.2399 53.075L65.7505 53.3103L65.2611 53.5456C65.1663 53.5741 65.0772 53.6187 64.9975 53.6773H64.7246C63.9737 53.7315 63.2198 53.6257 62.5128 53.3667C61.7505 53.0844 60.9787 52.6703 60.3011 52.3409L57.7975 51.042C56.9975 50.6373 56.2069 50.242 55.3975 49.8656C54.2305 49.3197 52.9975 48.9244 51.8022 48.4444C47.6354 46.5634 43.2863 45.1158 38.8234 44.1244C36.8269 43.7208 34.7986 43.494 32.7622 43.4467C31.4634 43.3903 30.1646 43.4467 28.8752 43.4467C27.5655 43.4127 26.2586 43.309 24.9599 43.1362C24.1411 43.0044 24.1693 42.1291 24.8187 41.1503C25.6279 39.9117 26.9111 39.0608 28.3669 38.7973C29.7831 38.65 31.2088 38.6154 32.6305 38.6938C34.0516 38.7597 35.454 38.8726 36.8752 39.0514C39.7039 39.4148 42.4883 40.0644 45.1858 40.9903C48.3952 42.1009 51.8493 42.8726 55.0305 44.2279C56.7716 44.962 58.494 45.7714 60.1693 46.6185L61.4116 47.2679L62.0328 47.5879L62.2681 47.7103L62.4187 47.8044L62.9646 48.1056L63.2469 48.2562C63.3411 48.2562 63.454 48.3597 63.5481 48.2562C63.7472 48.1034 63.9164 47.9152 64.0469 47.7009L64.2728 47.3809L64.3858 47.2114L64.5834 46.882L66.2775 43.9362C67.9905 40.9244 69.8822 37.9503 71.8681 35.0609C73.3579 32.7164 75.0323 30.4945 76.8752 28.4162C77.3059 27.9522 77.7648 27.5153 78.2493 27.1079C78.6456 26.7794 79.0745 26.4924 79.5293 26.2514C79.8637 26.0934 80.2241 25.9977 80.5928 25.9691C81.2148 25.9576 81.8078 26.2316 82.2022 26.7126C82.4408 26.9266 82.6582 27.163 82.8516 27.4185C83.4258 28.2938 83.0116 29.3762 82.1081 30.4114C79.0024 33.5475 76.2848 37.0456 74.014 40.8303C73.0728 42.3173 72.1975 43.842 71.3034 45.4138L69.9669 47.795L69.2799 49.0185L68.2822 50.7785L68.1787 50.6938Z" fill="black"/>
<path d="M79.1913 44.4438L80.396 40.6791C80.5465 40.2179 80.5748 39.738 80.7348 39.2956C81.3465 37.7144 81.9301 36.1238 82.7018 34.5897C83.0407 33.9121 83.2571 33.1968 83.5771 32.5003C83.7431 32.0308 83.951 31.5772 84.1983 31.145C84.3219 30.9213 84.4669 30.7101 84.6313 30.5144C84.8247 30.3175 85.0323 30.1351 85.2524 29.9685C85.5348 29.7615 85.8736 30.185 86.1936 30.7309C86.3427 31.0016 86.4747 31.2814 86.5889 31.5685C86.7043 31.7948 86.7471 32.0512 86.7113 32.3027C86.373 33.9888 85.888 35.6421 85.2618 37.2438C84.8772 38.2962 84.6304 39.394 84.5277 40.5097L83.6995 44.1897C83.5489 44.9427 83.4077 45.705 83.2854 46.4674C83.0357 47.6074 82.8784 48.7656 82.8148 49.9309C82.8282 50.3855 82.8754 50.8385 82.956 51.2862C83.003 51.7379 83.0689 52.2274 83.1065 52.6227C83.1396 52.8126 83.1396 53.0068 83.1065 53.1968C82.9748 53.9027 82.6454 54.1379 81.6854 54.2791L81.036 54.3827C80.3726 54.4571 79.723 54.1559 79.3513 53.6015C78.8415 52.8038 78.49 51.9155 78.316 50.985C78.2124 50.1065 78.2124 49.2188 78.316 48.3403C78.4496 47.0351 78.6824 45.7419 79.0124 44.4721L79.1913 44.4438Z" fill="black"/>
</svg>
