<svg width="96" height="96" viewBox="0 0 96 96" fill="none" xmlns="http://www.w3.org/2000/svg">
<path d="M47.8743 25.2012C45.95 26.6946 44.5067 28.7205 43.7238 31.0271C43.5174 31.8415 43.4318 32.6819 43.4696 33.5212C43.4532 35.0482 43.8257 36.5543 44.552 37.8977C45.2844 39.391 46.3699 40.6832 47.7143 41.6624C48.9807 42.5579 50.4098 43.1973 51.9214 43.5447C52.4014 43.6577 52.8626 43.7989 53.3802 43.9494C53.8979 44.1 54.3779 44.2036 54.8955 44.2977C55.4093 44.3793 55.9283 44.4234 56.4485 44.4294C56.975 44.4624 57.5031 44.4624 58.0296 44.4294C58.6885 44.4294 58.6132 44.4294 58.0296 44.6742C57.1246 45.0874 56.1781 45.4029 55.2061 45.6153C54.0527 45.966 52.8615 46.1777 51.6579 46.2459C50.4601 46.127 49.2794 45.8745 48.1379 45.493C45.7363 44.6805 43.6235 43.1859 42.0579 41.1918C41.0867 39.954 40.3267 38.5643 39.8085 37.0789C39.2542 35.5746 39.0078 33.9743 39.0838 32.373C39.3875 28.9988 40.8084 25.8225 43.1214 23.3471L44.1473 22.2742C44.5049 21.9353 44.872 21.6247 45.2296 21.333C45.5873 21.0412 45.9826 20.7212 46.3496 20.3918C46.7167 20.0624 47.1308 19.7989 47.5638 19.5071C50.1687 17.9119 53.1783 17.1015 56.232 17.173C58.5336 17.084 60.8352 17.3506 63.0555 17.9636C63.5517 18.0955 64.039 18.259 64.5143 18.453C66.2555 19.3 66.5379 20.053 66.2085 21.173C66.1456 21.4317 66.0671 21.6862 65.9732 21.9353C65.5873 22.7259 64.6273 22.8765 63.5073 22.6883C61.9116 22.2862 60.2884 22.003 58.6508 21.8412C57.0789 21.6987 55.4948 21.7779 53.9449 22.0765C52.8773 22.3086 51.8455 22.6821 50.8767 23.1871C50.6305 23.2984 50.3943 23.4306 50.1708 23.5824L49.832 23.7894L49.4461 24.0812L48.6743 24.6647L47.959 25.2859L47.8743 25.2012Z" fill="black"/>
<path d="M68.8617 44.7578C69.1591 42.9781 69.3227 41.1785 69.3511 39.3743C69.3909 37.613 69.268 35.8518 68.984 34.1131C68.548 30.8189 67.1351 27.7309 64.9276 25.2472C63.232 23.5811 61.1493 22.3619 58.8664 21.699C57.8931 21.3459 56.8771 21.1244 55.8452 21.0402C54.8261 20.9624 53.8012 21.0162 52.7958 21.2002C50.6925 21.6108 48.7062 22.4818 46.9793 23.7508C45.2096 25.0453 43.742 26.7087 42.6782 28.6261C41.5968 30.4803 41.0495 32.5977 41.097 34.7437C41.1718 36.6142 41.83 38.4143 42.9793 39.8919C44.2002 41.3808 45.7904 42.5231 47.5911 43.2049C49.9908 44.1126 52.5654 44.4634 55.1205 44.2308C55.7605 44.1555 56.3911 44.0614 57.0029 43.9578C57.6146 43.8543 58.2735 43.6943 58.8852 43.4872C59.5239 43.3012 60.1523 43.0813 60.7676 42.8284C61.0724 42.6997 61.3872 42.5958 61.7087 42.5178C62.0302 42.4202 62.3447 42.3007 62.6499 42.1602C64.2687 41.5672 64.5323 42.0472 63.7793 43.7696C63.5728 44.2973 63.3176 44.8046 63.017 45.2849C62.9175 45.4251 62.8294 45.573 62.7535 45.7272L62.4146 46.1319C62.182 46.4213 61.9237 46.6891 61.6429 46.9319C60.3103 48.1439 58.6906 48.9958 56.937 49.4072C53.4395 50.2713 49.7728 50.1672 46.3299 49.1061C42.6407 47.9391 39.4622 45.5444 37.3229 42.3202C36.295 40.6235 35.5928 38.7498 35.2523 36.7955C34.9221 34.8869 34.9509 32.9335 35.337 31.0355C36.0809 27.4444 37.8956 24.1629 40.5417 21.6237C43.5503 18.5738 47.362 16.4395 51.5346 15.4684C53.6997 14.9949 55.9343 14.9311 58.1229 15.2802C59.166 15.4732 60.1968 15.7278 61.2099 16.0425C61.715 16.1848 62.2089 16.3641 62.6876 16.579C63.177 16.7861 63.6287 16.9555 64.1464 17.2002C66.2523 18.2585 68.1621 19.6685 69.7935 21.3696C71.3468 23.0876 72.6175 25.0413 73.5582 27.1578C74.4356 29.2063 75.0674 31.3514 75.4405 33.5484C75.7932 35.6824 75.9695 37.8419 75.9676 40.0049C75.9403 42.6118 75.6979 45.212 75.2429 47.779C75.0452 49.0461 74.7845 50.3026 74.4617 51.5437C74.1848 52.8183 73.8328 54.0754 73.4076 55.3084C72.1875 59.0852 70.3906 62.6505 68.0805 65.8778C67.7887 66.2825 67.5346 66.7061 67.2146 67.0919L66.2735 68.2308C65.6609 69.0137 64.9941 69.7528 64.2782 70.4425C63.5535 71.1296 62.8476 71.8355 62.1135 72.4943L59.7229 74.339C59.1201 74.798 58.4916 75.2222 57.8405 75.6096C57.1817 76.0143 56.5511 76.4378 55.8829 76.8237L53.8311 77.8402C53.1632 78.2074 52.4678 78.5221 51.7511 78.7814L49.5958 79.5814C49.2382 79.7131 48.8899 79.8731 48.5229 79.9766L47.3935 80.3155C45.9291 80.7414 44.4347 81.0561 42.9229 81.2566C41.6037 81.5165 40.2663 81.6738 38.9229 81.7272C37.6711 81.7272 36.6264 81.7272 35.7605 81.7272C35.0385 81.6135 34.3355 81.4013 33.6711 81.0966C32.7444 80.7277 31.9982 80.0119 31.5911 79.1014C31.3824 78.7405 31.2121 78.3588 31.0829 77.9625C30.8099 76.7672 32.8617 75.8449 36.0899 75.4778C40.8143 75.2447 45.4688 74.24 49.8687 72.5037C54.1193 70.7204 57.8585 67.9063 60.7487 64.3155C62.9688 61.6084 64.7187 58.5478 65.9252 55.2614C67.2656 51.8839 68.1946 48.3573 68.6923 44.7578H68.8617Z" fill="black"/>
</svg>
