<svg width="96" height="96" viewBox="0 0 96 96" fill="none" xmlns="http://www.w3.org/2000/svg">
<path d="M15.1364 40.715C15.6352 43.8868 17.3293 47.1433 19.2117 47.7268C20.2158 48.0211 21.2688 48.1107 22.3081 47.9903C24.5926 47.8204 26.8436 47.3423 28.9999 46.5691C31.3223 45.7696 33.6001 44.8459 35.8234 43.8021C37.8281 42.8609 39.767 41.788 41.7246 40.7244C42.9858 40.0374 44.2376 39.3127 45.6117 38.7103C46.3213 38.3903 47.0584 38.1351 47.814 37.948C48.226 37.844 48.6507 37.7996 49.0752 37.8162C49.6091 37.8177 50.1372 37.9265 50.6282 38.1362C51.3246 38.4468 51.3152 38.8609 51.1458 39.0774C50.9764 39.2939 50.534 39.4915 50.2046 39.8397C49.85 40.2818 49.5351 40.7542 49.2634 41.2515C48.8754 41.8051 48.3455 42.244 47.7293 42.5221C45.3952 43.6515 42.9011 45.1574 40.3411 46.5033C37.7301 47.9287 35.0186 49.1618 32.2281 50.1927C30.5152 50.795 28.7834 51.4915 26.9576 52.075C25.0448 52.7688 23.0337 53.1533 20.9999 53.2139C19.7524 53.2258 18.5116 53.0286 17.3293 52.6303C16.6992 52.4109 16.096 52.1204 15.5317 51.7644C14.9799 51.3964 14.4715 50.967 14.0164 50.4844C12.4797 48.7633 11.3591 46.7121 10.7411 44.4891C9.98732 41.9451 9.69408 39.2869 9.87521 36.6397C10.1304 32.6265 11.6641 28.8004 14.2517 25.7221C15.2395 24.5536 16.3397 23.485 17.5364 22.5315C18.7372 21.6024 20.0377 20.8101 21.414 20.1691C22.0083 19.8791 22.6178 19.6214 23.2399 19.3974C25.6023 18.6539 26.4681 18.9174 27.1364 19.8491C27.3079 20.0503 27.4592 20.2678 27.5881 20.4986C27.9364 21.2703 27.1364 22.0891 25.7058 22.7668C23.6337 23.6803 21.6933 24.8674 19.9364 26.2962C19.132 26.9915 18.3975 27.7638 17.7434 28.6021C17.1195 29.4337 16.5922 30.3336 16.1717 31.2844C14.9102 34.2535 14.582 37.5361 15.2305 40.6962L15.1364 40.715Z" fill="black"/>
<path d="M70.525 51.1995C71.7381 51.4922 72.9869 51.6095 74.2332 51.5478C74.8392 51.5212 75.4412 51.4361 76.0309 51.2936C76.6485 51.1321 77.2502 50.9147 77.8285 50.6442C78.6426 50.2341 79.3989 49.7183 80.0779 49.1101C82.572 47.0207 83.692 43.3219 83.2497 39.6983C83.044 38.0899 82.5362 36.5348 81.7532 35.1148C80.8205 33.2386 79.3404 31.6896 77.5085 30.6725C76.925 30.3807 77.0097 30.3054 77.6215 30.3336C78.6692 30.411 79.6784 30.7614 80.5485 31.3501C82.5508 32.7426 84.0808 34.7126 84.9344 36.9972C85.8515 39.2995 86.1217 41.8088 85.7156 44.2536C85.4519 45.7641 84.98 47.2306 84.3132 48.6113C83.6117 50.0254 82.6322 51.2834 81.4332 52.3101C80.1213 53.3976 78.6179 54.2307 77.0003 54.7666C75.3784 55.2839 73.6717 55.4821 71.9744 55.3501C69.9568 55.1958 67.9819 54.6894 66.1391 53.8536C63.4331 52.6119 60.9745 50.8899 58.8826 48.7713C57.2498 47.232 55.7364 45.5708 54.3556 43.8019C54.0549 43.4113 53.7783 43.0027 53.5273 42.5783C53.1839 42.0021 52.9629 41.3614 52.8779 40.696C52.8874 40.2609 53.0395 39.8409 53.3109 39.5007C53.4061 39.34 53.5164 39.1887 53.6403 39.0489C53.8473 38.8513 54.1297 38.8607 54.5815 39.0019C55.1049 39.1697 55.5753 39.4714 55.9462 39.8772C56.2756 40.216 56.5768 40.5736 56.9344 40.8936C57.2733 41.2049 57.5879 41.5416 57.8756 41.9007C58.4497 42.616 59.1179 43.256 59.7579 43.9431C60.3979 44.6301 61.0662 45.2136 61.6873 45.8819C62.3085 46.5501 62.9579 47.2278 63.692 47.6983C65.6725 49.3628 68.0214 50.5308 70.5438 51.1054L70.525 51.1995Z" fill="black"/>
<path d="M22.9767 18.5131C25.1275 17.9676 27.3523 17.7737 29.565 17.939C31.726 18.1364 33.8435 18.6666 35.8426 19.5107C37.7935 20.314 39.6317 21.3676 41.3109 22.6449C42.954 23.883 44.4451 25.311 45.7532 26.899C46.4403 27.6802 47.0332 28.5366 47.6356 29.3649L49.1697 31.5955C50.1673 33.1013 51.2591 34.5225 52.3132 35.9813C54.4613 38.8253 56.771 41.5435 59.2309 44.1225C61.0014 45.9468 62.9254 47.6156 64.9814 49.1107C66.8883 50.5307 69.0154 51.6276 71.2779 52.3578C71.7412 52.4967 72.2127 52.6067 72.6897 52.6872L73.3956 52.8002H74.0826C74.5338 52.8331 74.9867 52.8331 75.4379 52.8002C75.8736 52.7309 76.3043 52.6334 76.7273 52.5084C77.6005 52.2472 78.4176 51.826 79.1367 51.266C79.9191 50.6988 80.6082 50.0129 81.1791 49.2331C82.4171 47.6071 83.2873 45.7318 83.7297 43.7366C83.8386 43.2565 83.9109 42.7688 83.9461 42.2778C83.9461 41.7602 84.0026 41.2331 83.9461 40.7249C83.9127 39.7203 83.7514 38.724 83.4661 37.7602C82.9095 35.8673 81.7411 34.2124 80.1438 33.0543C78.4249 31.8568 76.4486 31.0798 74.3744 30.786C73.8379 30.7013 73.292 30.6637 72.7556 30.5978L71.1085 30.5413L69.452 30.6166C68.9344 30.7013 68.4261 30.7202 67.9085 30.8519C65.7507 31.3842 63.6763 32.2108 61.7438 33.3084C59.9483 34.2838 58.2219 35.3813 56.5767 36.5931C54.9014 37.7884 53.3014 39.0966 51.7297 40.4425C48.6296 43.1417 45.7059 46.037 42.9767 49.1107C39.4663 53.0597 36.2692 57.2765 33.4144 61.7225C31.9783 63.9178 30.6679 66.1928 29.4897 68.5366C28.9061 69.7037 28.3697 70.8896 27.8991 72.1037C27.692 72.7155 27.372 73.2896 27.1556 73.9013L26.7979 74.8425L26.5061 75.7837C26.0356 77.3272 25.885 78.0331 25.7156 77.9766C25.4415 77.2275 25.3292 76.4288 25.3861 75.6331C25.278 73.5834 25.4876 71.5293 26.0073 69.5437C26.7494 66.7453 27.8403 64.0512 29.2544 61.5249C30.6034 59.058 32.1158 56.6841 33.7814 54.419C35.4316 52.1413 37.1634 49.9453 38.9767 47.8307C42.6109 43.5315 46.6067 39.5515 50.9203 35.9343C53.1028 34.1095 55.4009 32.4275 57.8003 30.899C60.3013 29.2943 63.0041 28.0283 65.8379 27.1343C67.3694 26.6964 68.9512 26.4591 70.5438 26.4284C71.2873 26.3719 72.0591 26.4284 72.812 26.4284C73.565 26.4284 74.3461 26.5507 75.1085 26.6731C78.3007 27.1134 81.2977 28.4664 83.7391 30.5696C85.2194 31.9174 86.3884 33.5714 87.165 35.4166C87.8858 37.2295 88.2655 39.1599 88.285 41.1107V42.5225C88.2628 43.0144 88.2125 43.5046 88.1344 43.9907C87.9867 44.9481 87.7632 45.8923 87.4661 46.8143C86.8715 48.6437 85.9985 50.3707 84.8779 51.9343C83.7164 53.5823 82.2303 54.9755 80.5109 56.0284C78.7112 57.097 76.6729 57.6988 74.5814 57.779C72.5947 57.8319 70.6155 57.5127 68.7461 56.8378C66.9877 56.2083 65.3052 55.3844 63.7297 54.3813C60.4816 52.2269 57.4966 49.6999 54.8356 46.8519C52.2163 44.0983 49.7708 41.1844 47.5132 38.1272L45.8285 35.859L44.2191 33.5437L43.4097 32.3955L42.6567 31.3602C42.4214 31.0119 42.1297 30.7013 41.8567 30.3719C41.592 30.0428 41.3092 29.7285 41.0097 29.4307C39.8427 28.1864 38.5279 27.0897 37.0944 26.1649C35.705 25.2313 34.1903 24.4994 32.5956 23.9907C30.6705 23.3553 28.6432 23.0872 26.6191 23.2002C24.5896 23.3315 22.6078 23.8726 20.7932 24.7907C17.0793 26.6731 14.2609 29.9483 12.9532 33.9013C12.4829 35.3982 12.2262 36.9539 12.1909 38.5225C12.2042 40.0939 12.4517 41.6546 12.925 43.1531C13.4089 44.6619 14.1335 46.0826 15.0709 47.3602C15.8739 48.6373 17.0182 49.6642 18.3744 50.3249C21.0473 51.5766 24.445 51.0778 27.4944 49.9296C30.6261 48.6969 33.6301 47.1618 36.4638 45.346C38.7038 43.9531 40.8873 42.4566 43.1273 40.9978C44.2567 40.2637 45.3956 39.539 46.6379 38.8802L47.1179 38.6355C47.2873 38.5602 47.4285 38.4755 47.6826 38.3813C48.1288 38.1809 48.5917 38.0203 49.0661 37.9013C49.9827 37.6215 50.9743 37.7339 51.805 38.2119C52.6022 38.7938 53.2478 39.5588 53.6873 40.4425C53.8003 40.6303 53.9009 40.8252 53.9885 41.026L54.2238 41.5249L54.6285 42.466C55.1273 43.7743 55.5697 45.0543 55.9273 46.3343C56.7085 48.8755 57.4144 51.3884 58.205 53.8637C58.892 56.0472 59.6544 58.1272 60.5014 60.2072C61.5597 62.8716 62.8608 65.433 64.3885 67.859C65.245 69.4872 65.8379 70.4284 66.2709 71.3413C66.4685 71.7649 66.8638 72.1978 66.9861 72.5084C67.1085 72.819 66.9861 72.8849 66.5909 72.866C65.9679 72.8057 65.3615 72.6302 64.8026 72.3484C63.7917 71.8665 62.8435 71.2628 61.9791 70.5507C61.725 70.3249 61.4426 70.1084 61.1885 69.8543L60.4544 69.0072C59.9419 68.3641 59.4674 67.6915 59.0332 66.9931C56.553 62.8175 54.6083 58.3462 53.245 53.6849L51.1273 46.9366C50.7697 45.8449 50.4026 44.7625 50.0073 43.8025C49.9038 43.5578 49.8097 43.3131 49.7061 43.1155L49.5556 42.8049V42.8049C49.5352 42.7743 49.5055 42.7512 49.4709 42.739C49.4709 42.739 49.3956 42.739 49.3673 42.739C49.3391 42.739 49.5085 42.739 48.8591 42.9931C47.9179 43.4449 46.8732 44.0566 45.8285 44.6872C43.7391 45.9578 41.5838 47.3507 39.3626 48.6872C37.0977 50.0724 34.7568 51.3293 32.3509 52.4519C29.7828 53.6761 27.0596 54.5437 24.2567 55.0307C21.9406 55.45 19.5557 55.2685 17.3297 54.5037C16.1539 54.0744 15.0569 53.4543 14.0826 52.6684C13.1729 51.9322 12.3657 51.0775 11.6826 50.1272C8.92315 46.6239 7.45711 42.2756 7.53203 37.8166C7.55637 35.5978 7.96722 33.4002 8.74615 31.3225C9.48943 29.2398 10.581 27.2985 11.9744 25.5813C14.7656 22.0986 18.5872 19.5882 22.892 18.4096L22.9767 18.5131Z" fill="black"/>
</svg>
