<svg width="125" height="173" viewBox="0 0 125 173" fill="none" xmlns="http://www.w3.org/2000/svg">
<g id="vectorly-UNI-shield" clip-path="url(#clip0_615_10696)">
<g id="vectorly-UNI-shield_2">
<path id="path4556" fill-rule="evenodd" clip-rule="evenodd" d="M2.57671 25.0958C1.90201 25.1652 1.30417 24.6446 1.24474 23.9854C1.18181 23.3261 1.68175 22.7363 2.35296 22.6669C12.8271 21.6259 22.9516 19.4399 32.6321 15.7272C42.005 12.1185 50.9583 7.12187 59.3907 0.390358C60.0515 -0.130119 60.9779 -0.130119 61.6421 0.390358C70.3123 6.91368 79.7061 12.4654 90.3865 16.3517C99.9587 19.7868 110.566 21.869 122.63 22.0078C123.26 22.0078 123.861 22.2853 124.298 22.7363C124.735 23.1874 124.973 23.7772 124.959 24.4018C124.959 24.4018 124.378 59.3087 123.697 84.8121C123.347 97.9282 122.952 108.615 122.665 110.94C121.11 123.258 114.142 134.118 105.213 143.175C86.6283 161.981 59.7683 172.773 59.7683 172.773C59.097 173.051 58.3384 173.015 57.6881 172.703C57.6881 172.703 31.1952 159.553 14.3234 138.144C6.53072 128.289 0.793752 116.665 0.482605 103.827L0.000149716 32.66C-0.0103384 32.0007 0.531552 31.4455 1.20629 31.4455C1.88452 31.4108 2.44037 31.9662 2.45085 32.6254L4.20935 103.723C4.6918 115.694 10.296 126.381 17.7005 135.507C32.279 153.411 53.9264 165.139 58.8838 167.672C63.8621 165.486 85.6144 155.319 101.252 139.323C109.283 131.135 115.747 121.384 117.145 110.246C117.439 107.99 117.841 97.5118 118.292 84.6387C119.05 63.0909 119.896 34.8462 120.138 26.6226C108.513 26.0675 98.2211 23.8121 88.9076 20.2729C78.3601 16.2826 69.0712 10.6612 60.5129 4.10317C52.0071 10.4877 43.0503 15.2068 33.7089 18.5725C23.7277 22.1812 13.3165 24.2283 2.57671 25.0958Z" fill="black"/>
<path id="path4558" fill-rule="evenodd" clip-rule="evenodd" d="M32.8978 51.9528C32.223 51.9528 31.6707 51.4323 31.6707 50.7383C31.6672 50.0791 32.2126 49.5239 32.8908 49.5239L87.4288 48.3789C88.0301 48.3789 88.6035 48.6216 89.0265 49.038C89.4496 49.4544 89.6803 50.0444 89.6733 50.6343C89.6733 50.6343 89.6873 65.4155 89.5369 78.3233C89.4321 87.2408 89.2293 95.2562 89.0195 97.0605C88.3273 102.682 84.9641 108.546 80.6011 113.82C72.2666 123.883 60.5304 131.759 60.5304 131.759C59.7158 132.314 58.6495 132.384 57.7825 131.898C57.7825 131.898 45.4171 124.82 37.6454 113.265C34.2438 108.234 31.7126 102.335 31.391 95.8461C31.3246 94.4234 31.3385 89.4268 31.4015 83.3546C31.5308 71.106 31.828 54.4511 31.828 54.4511C31.828 53.7919 32.3769 53.2367 33.0551 53.2367C33.7298 53.2367 34.2787 53.7919 34.2787 54.4511C34.2787 54.4511 34.6038 71.1062 34.915 83.32C35.0688 89.2882 35.2157 94.2155 35.331 95.6035C35.796 101.294 38.2327 106.395 41.3547 110.732C47.214 118.921 55.5835 124.542 58.8977 126.554C62.0267 124.229 70.113 117.845 76.2835 110.316C79.9159 105.874 82.9539 101.086 83.5483 96.4018C83.6916 95.3261 83.8384 91.9254 84.0132 87.4493C84.4467 76.3805 84.9607 58.8923 85.1355 52.7853L32.8978 51.9528Z" fill="black"/>
<path id="path4560" fill-rule="evenodd" clip-rule="evenodd" d="M17.3649 21.4176C17.3684 20.7583 17.9207 20.2031 18.5955 20.2031C19.2737 20.2031 19.8191 20.7583 19.8156 21.4176C19.8156 21.4176 20.4344 32.3477 20.8854 46.2965C20.9902 49.4887 21.0602 52.8197 21.1021 56.2201C21.1301 58.4408 21.1581 60.6614 21.1301 62.8474C21.0532 68.538 20.8399 74.1941 20.6197 79.4336C20.0358 93.3824 19.3051 104.278 19.3051 104.278C19.3017 104.937 18.7458 105.492 18.0711 105.492C17.3963 105.492 16.8474 104.937 16.8544 104.278C16.8544 104.278 16.2566 93.3478 15.8441 79.399C15.6903 74.1595 15.5434 68.5034 15.54 62.8128C15.5365 60.6268 15.5924 58.4063 15.6483 56.1856C15.7323 52.7851 15.8441 49.4538 15.9875 46.2616C16.6132 32.3128 17.3649 21.4176 17.3649 21.4176Z" fill="black"/>
<path id="path4562" fill-rule="evenodd" clip-rule="evenodd" d="M38.3551 14.5478C38.3341 13.8885 38.8654 13.3331 39.5402 13.2984C40.2149 13.2637 40.7813 13.819 40.8057 14.4783C40.8057 14.4783 41.5993 17.948 42.2986 22.4935C42.4559 23.5345 42.5817 24.6101 42.6866 25.7204C42.7495 26.4491 42.816 27.1431 42.823 27.8718C42.8439 29.7455 42.7286 31.55 42.5958 33.285C42.2461 37.8652 41.7042 41.3697 41.7042 41.3697C41.7287 42.0636 41.1973 42.6189 40.5226 42.6536C39.8444 42.6536 39.278 42.133 39.257 41.4737C39.257 41.4737 38.4809 38.0038 37.8237 33.4236C37.5789 31.7233 37.3412 29.9192 37.2363 28.0802C37.1978 27.3515 37.2153 26.6226 37.2328 25.8939C37.2608 24.7836 37.3132 23.708 37.4041 22.667C37.7957 18.0521 38.3551 14.5478 38.3551 14.5478Z" fill="black"/>
<path id="path4564" fill-rule="evenodd" clip-rule="evenodd" d="M45.0989 11.1812C45.0954 10.4873 45.6443 9.9668 46.319 9.9668C46.9973 9.9668 47.5461 10.4873 47.5496 11.1812C47.5496 11.1812 48.2488 16.3165 48.8117 23.0133C48.941 24.54 49.0355 26.1362 49.1089 27.7671C49.1543 28.808 49.1963 29.8835 49.1858 30.9245C49.1543 33.631 48.983 36.3377 48.8047 38.836C48.3293 45.5329 47.6825 50.7027 47.6825 50.7027C47.6825 51.3619 47.1371 51.9171 46.4588 51.9171C45.7841 51.9171 45.2317 51.3966 45.2317 50.7027C45.2317 50.7027 44.55 45.5327 44.0292 38.8706C43.8334 36.3723 43.6446 33.6659 43.5957 30.9594C43.5747 29.8838 43.6131 28.8426 43.6516 27.8016C43.711 26.1708 43.7949 24.5749 43.9138 23.0482C44.4346 16.3514 45.0989 11.1812 45.0989 11.1812Z" fill="black"/>
<path id="path4566" fill-rule="evenodd" clip-rule="evenodd" d="M50.8953 7.7806C50.8918 7.08663 51.4372 6.53125 52.1119 6.53125C52.7901 6.53125 53.3425 7.08643 53.346 7.7457C53.346 7.7457 54.0452 10.9033 54.6255 15.1019C54.7549 16.0734 54.8528 17.045 54.9227 18.0512C54.9717 18.7105 55.0171 19.3698 55.0066 20.0291C54.9787 21.7293 54.8108 23.3949 54.636 24.9564C54.1606 29.1549 53.5243 32.3122 53.5243 32.3122C53.5313 33.0062 52.9859 33.5268 52.3076 33.5615C51.6329 33.5615 51.0806 33.0064 51.0736 32.3471C51.0736 32.3471 50.3919 29.1895 49.857 24.9909C49.6612 23.4295 49.4689 21.7639 49.4165 20.0637C49.3955 19.4044 49.4304 18.7451 49.4689 18.0858C49.5248 17.0795 49.6087 16.108 49.7276 15.1364C50.2415 10.9379 50.8953 7.7806 50.8953 7.7806Z" fill="black"/>
</g>
</g>
<defs>
<clipPath id="clip0_615_10696">
<rect width="125" height="173" fill="white"/>
</clipPath>
</defs>
</svg>
