<svg width="96" height="96" viewBox="0 0 96 96" fill="none" xmlns="http://www.w3.org/2000/svg">
<path d="M31.6089 83.0367L31.4771 82.9614C31.4771 82.9614 31.4771 82.9049 31.3736 82.9614L31.3171 82.8955C31.276 82.8115 31.2444 82.7231 31.223 82.632L31.063 82.0673C31.0065 81.879 30.95 81.6437 30.8936 81.4179C30.8371 81.192 30.8936 81.1449 30.8936 80.9943L30.9689 80.5331C31.11 79.8931 31.27 79.2531 31.3924 78.6508L31.5336 77.9543L31.6183 77.4837C31.8523 76.2154 31.9969 74.9323 32.0512 73.6437C32.0983 72.7026 31.9948 71.7614 31.9759 70.8202C31.8753 67.4249 31.3408 64.0564 30.3853 60.7967C29.9633 59.324 29.4284 57.886 28.7853 56.4955C27.8966 54.7574 27.1017 52.9729 26.4042 51.1496C26.2065 50.5661 26.7148 50.359 27.4771 50.5379C28.4811 50.7821 29.3593 51.3888 29.943 52.2414C30.2253 52.6743 30.5077 53.1167 30.7618 53.5779L31.1665 54.2555C31.2795 54.4908 31.383 54.7261 31.4865 54.9708C31.9195 55.912 32.2959 56.8531 32.6536 57.8884C33.3482 59.8824 33.8554 61.9368 34.1689 64.0249C34.6179 66.5665 34.932 69.1301 35.11 71.7049C35.1492 73.131 35.0989 74.5581 34.9595 75.9779C34.8936 76.6837 34.79 77.399 34.6771 78.0955L34.5924 78.6226L34.5359 78.8484L34.4136 79.3096L34.2536 79.912C34.2444 79.9617 34.2444 80.0128 34.2536 80.0626C34.2536 80.0626 34.3383 80.0626 34.3759 80.0626C34.4136 80.0626 34.5642 80.0626 34.6583 80.0626L36.0042 79.8367C38.5935 79.4019 41.2204 79.2316 43.8442 79.3284C45.8761 79.3448 47.9045 79.502 49.9148 79.799C50.3571 79.8743 50.7995 79.9214 51.2418 80.0343C52.8795 80.4579 53.2936 80.9096 53.303 81.8508C53.3171 82.067 53.3171 82.284 53.303 82.5002C53.19 83.1873 52.3618 83.4414 51.27 83.319C47.9388 82.7406 44.5615 82.4697 41.1806 82.5096C39.902 82.5465 38.6264 82.6533 37.3595 82.8296L36.4183 82.9802C35.8348 83.0837 35.1571 83.2249 34.5359 83.3849C34.2276 83.4788 33.9131 83.5512 33.5948 83.6014L33.1336 83.6579C32.9924 83.6579 32.8795 83.6579 32.7477 83.6579C32.6325 83.6511 32.5216 83.612 32.4277 83.5449L32.1548 83.4037L31.6089 83.0932V83.0367Z" fill="black"/>
<path d="M31.75 54.2368C33.5119 59.1975 34.4652 64.409 34.5735 69.6721C34.63 71.5545 34.7524 73.4368 34.6865 75.2251C34.63 76.8251 34.5359 78.4251 34.5265 79.8651V80.4204C34.5173 80.5551 34.5173 80.6903 34.5265 80.8251C34.5212 81.112 34.7049 81.3684 34.9783 81.4557C35.2662 81.484 35.5562 81.484 35.8441 81.4557L38.1971 81.211C39.7877 81.0133 41.3971 80.8345 43.0159 80.7027C45.9203 80.405 48.8407 80.2918 51.7594 80.3639C53.7131 80.4162 55.6507 80.7328 57.5194 81.3051C58.4776 81.6492 59.3908 82.1074 60.2394 82.6698C61.0916 83.2691 61.8175 84.0302 62.3759 84.9098C63.063 86.0204 62.3759 86.2274 61.1524 86.2651C60.3728 86.2938 59.5961 86.3755 58.8277 86.5098C58.4236 86.5425 58.0176 86.5425 57.6135 86.5098C57.2085 86.4999 56.8052 86.4526 56.4088 86.3686C56.0606 86.2745 55.6935 86.2274 55.3265 86.1521C54.9594 86.0768 54.5924 85.9921 54.2253 85.9074C53.4498 85.7671 52.6676 85.6666 51.8818 85.6063C50.2254 85.4784 48.5628 85.4501 46.903 85.5216C45.19 85.5874 43.4583 85.7192 41.6888 85.8886L35.9006 86.4345C34.99 86.5764 34.063 86.5764 33.1524 86.4345C32.9479 86.3879 32.7467 86.3282 32.55 86.2557L32.3994 86.1898V86.1898C32.3994 86.1333 32.3994 86.1898 32.3994 86.1898H32.3241L32.0324 86.0486C31.8322 85.9518 31.6481 85.8248 31.4865 85.6721C31.3171 85.531 31.1654 85.3698 31.0347 85.1921C30.4672 84.4978 30.0908 83.6672 29.943 82.7827C29.8345 82.3283 29.7652 81.8655 29.7359 81.3992C29.7004 81.1685 29.6784 80.936 29.67 80.7027V80.1945C29.5947 77.7568 29.67 75.5545 29.67 73.3427C29.7837 68.5788 29.2067 63.8236 27.9571 59.2251C27.1528 56.4246 26.0252 53.7272 24.5971 51.1874C24.3806 50.811 24.1735 50.4251 23.9288 50.058L23.5806 49.4933C23.3924 49.2016 23.2135 48.9192 23.0159 48.6463C22.1124 47.4792 21.2559 46.3404 20.4088 45.2674L19.2324 43.131L18.6394 41.691C18.6394 41.5592 18.47 41.4839 18.5735 41.2863C18.6884 41.1476 18.829 41.0326 18.9877 40.9474C19.2869 40.7836 19.6023 40.6511 19.9288 40.5521C20.628 40.3324 21.3522 40.2028 22.0841 40.1663C23.2099 40.1127 24.338 40.1949 25.4441 40.411C26.6696 40.6189 27.8825 40.8954 29.0771 41.2392L30.0183 41.5404L30.2535 41.6251L30.423 41.6816L30.7618 41.8133C31.223 41.9733 31.703 42.171 32.1171 42.3686C33.0103 42.7857 33.8722 43.267 34.6959 43.8086C35.4416 44.2821 36.144 44.8207 36.7947 45.418C37.3112 45.8905 37.7751 46.4175 38.1783 46.9898C38.4398 47.3985 38.6247 47.8513 38.7241 48.3263C38.8041 48.6794 38.8041 49.046 38.7241 49.3992C38.6015 49.7324 38.437 50.0486 38.2347 50.3404C38.0906 50.593 37.9335 50.838 37.7641 51.0745C37.3218 51.6016 35.6183 51.2063 34.2347 50.0486C33.2549 49.1334 32.1825 48.3228 31.0347 47.6298C30.4664 47.2773 29.8753 46.9629 29.2653 46.6886C28.9641 46.538 28.6535 46.4063 28.3241 46.2745L28.2018 46.2274H28.0888C27.9194 46.331 28.0888 46.4251 28.0888 46.4157V46.4157V46.4157V46.4157C28.0888 46.4157 28.0888 46.3592 28.1453 46.5192L28.5594 47.178C28.8418 47.6016 29.0771 48.0721 29.3312 48.5145C30.3455 50.3304 31.2262 52.2178 31.9665 54.1616L31.75 54.2368Z" fill="black"/>
<path d="M55.1386 48.9372C55.0163 48.4572 54.9033 47.996 54.8092 47.4878L54.6586 46.7631L54.5551 46.1701L54.3198 44.5513C54.1786 43.4783 54.0657 42.4054 53.9621 41.3325C53.8586 40.2595 53.7927 39.196 53.7268 38.1419L53.6704 37.3419C53.6704 37.1725 53.6704 37.1725 53.6704 37.1442V37.0501V36.6736C53.6704 36.2407 53.5763 36.0148 53.5951 35.5348C53.5951 35.2807 53.5951 34.9983 53.5951 34.6878C53.604 34.531 53.604 34.3739 53.5951 34.2172C53.5951 34.1419 53.5292 34.0478 53.4915 34.076C53.4539 34.1042 53.4351 34.076 53.4068 34.1325C53.1493 34.389 52.9248 34.6767 52.7386 34.9889C52.541 35.2713 52.3245 35.6195 52.0892 36.0242L51.7221 36.6736L50.9315 38.1983L47.6092 44.6548C46.913 46.0646 46.1336 47.4317 45.2751 48.7489C44.8184 49.4088 44.3185 50.0376 43.7786 50.6313C43.2017 51.258 42.547 51.8084 41.8304 52.2689C40.8892 52.8713 40.4657 51.8454 40.3527 50.5466C40.3355 50.2331 40.3355 49.9189 40.3527 49.6054C40.3497 49.2495 40.3749 48.8938 40.428 48.5419C40.5301 47.8223 40.7975 47.1361 41.2092 46.5372C42.7926 44.0795 44.2471 41.5412 45.5668 38.9325C46.301 37.5458 47.0131 36.1717 47.7033 34.8101C48.3527 33.4925 48.9645 32.1936 49.5857 30.9795C50.2068 29.7654 50.828 28.5607 51.468 27.5913L51.9198 26.8289L52.1645 26.4995C52.2363 26.4171 52.3186 26.3443 52.4092 26.2831L52.8704 25.8689L53.3315 25.436C53.4633 25.3419 53.5951 25.2854 53.7174 25.1913C53.9567 25.0299 54.205 24.8822 54.461 24.7489L54.8092 24.5701C54.9652 24.4684 55.1581 24.4409 55.3363 24.4948C55.6294 24.6328 55.8798 24.8474 56.061 25.116C56.2529 25.3639 56.432 25.6215 56.5974 25.8878C57.0961 26.7229 57.4165 27.6522 57.5386 28.6172C57.7739 30.1607 57.8586 31.9866 57.9998 33.6901L58.348 37.9913C58.5174 40.0431 58.7433 42.076 59.0633 44.0807L59.4021 46.1231C59.4868 46.6031 59.5998 47.0642 59.7315 47.6195C59.8163 47.9301 59.9104 48.2501 60.0233 48.5607C60.1363 48.8713 60.2115 49.0783 60.3151 49.3419C60.3175 49.3741 60.3381 49.4021 60.3681 49.4141C60.3981 49.4261 60.4323 49.42 60.4563 49.3983L60.5692 49.2666C60.6351 49.1631 60.701 49.0689 60.7574 48.9654L61.5104 47.6572C61.7645 47.2054 62.0468 46.716 62.3386 46.2642L63.0351 45.1536L63.8821 43.8925C65.5948 41.1775 67.7262 38.7506 70.1974 36.7019C70.7641 36.2369 71.365 35.8154 71.9951 35.4407C72.8374 34.8846 73.8111 34.56 74.8186 34.4995C75.4675 34.537 76.0575 34.8882 76.3998 35.4407C76.6085 35.6856 76.7974 35.9469 76.9645 36.2219C77.4163 37.1631 76.6915 38.1513 75.4021 39.0454C73.4681 40.3857 71.7128 41.9671 70.1786 43.7513C69.373 44.6852 68.619 45.6623 67.9198 46.6783C67.5621 47.196 67.2139 47.7325 66.8751 48.2689L66.5833 48.7395L66.0468 49.6807C65.6892 50.2925 65.3504 50.9231 65.0115 51.5631C64.3561 52.9394 63.5714 54.2504 62.668 55.4783C62.3539 55.8427 61.9698 56.1404 61.5386 56.3536C61.2451 56.5106 60.9267 56.6157 60.5974 56.6642C60.2845 56.6968 59.9691 56.6968 59.6563 56.6642C59.4788 56.6438 59.3028 56.6124 59.1292 56.5701C58.9734 56.5288 58.822 56.472 58.6774 56.4007C57.8317 56.038 57.1578 55.3641 56.7951 54.5183C56.0182 52.7343 55.3887 50.8898 54.9127 49.0031L55.1386 48.9372Z" fill="black"/>
<path d="M66.1222 65.1529C66.5363 63.9953 66.9881 62.8565 67.4305 61.7271C67.8728 60.5977 68.3716 59.4682 68.7858 58.3388C69.1058 57.52 69.3034 56.6635 69.6705 55.8541C70.894 53.0306 72.2399 50.2071 73.4916 47.3835C74.0563 46.1412 74.5269 44.8518 74.9787 43.6188C75.4882 41.936 76.2669 40.3468 77.2846 38.9129C77.6234 38.4706 78.1128 38.7341 78.5363 39.3929C79.0683 40.1988 79.3136 41.1602 79.2328 42.1224L78.9881 43.4494C78.8776 43.8576 78.7456 44.2598 78.5928 44.6541C78.3105 45.4824 77.9999 46.3012 77.6516 47.12C77.0211 48.7577 76.3434 50.3765 75.5528 51.9765C75.1127 52.9576 74.7477 53.9707 74.4611 55.0071C74.1599 56.0424 73.8775 57.0965 73.5199 58.1224L72.4281 61.5012L71.3834 64.8894C70.9975 66.2918 70.574 67.7129 70.2069 69.0871C69.6044 71.1904 69.1608 73.3361 68.8799 75.5059C68.8282 76.3396 68.8282 77.1757 68.8799 78.0094C68.9363 78.8377 69.0116 79.6377 69.0493 80.4471C69.0493 80.8047 69.1152 81.1529 69.1434 81.4918C69.2469 82.7718 68.7858 83.2047 67.6281 83.6094C67.3552 83.6941 67.0916 83.8165 66.8187 83.8824C65.934 84.1082 65.1152 83.6 64.6446 82.4988C64.5034 82.0847 64.3622 81.6706 64.2399 81.2471C64.1175 80.8235 64.0611 80.4188 63.9763 79.9953C63.8916 79.5718 63.8352 79.1482 63.7787 78.7153C63.7056 78.2896 63.6741 77.8577 63.6846 77.4259C63.7172 75.7302 63.8872 74.04 64.1928 72.3718C64.3939 71.1387 64.6577 69.9167 64.9834 68.7106C65.2658 67.4965 65.6046 66.3106 65.9999 65.1341L66.1222 65.1529Z" fill="black"/>
<path d="M21.8863 25.9815C22.0162 26.4498 22.0671 26.9365 22.0369 27.4215C22.0401 27.9086 21.9473 28.3915 21.7639 28.8427C21.5938 29.285 21.3826 29.7103 21.1333 30.1133C20.8556 30.501 20.5404 30.8604 20.1921 31.1862C19.9569 31.431 19.6839 31.6474 19.4392 31.8921C19.16 32.1049 18.8677 32.2998 18.5639 32.4757C16.1086 33.6145 13.2049 33.1162 11.2698 31.2239L10.658 30.5368C10.4665 30.3006 10.2904 30.0523 10.131 29.7933C9.85295 29.2657 9.67429 28.6914 9.60391 28.0992C9.54766 27.7122 9.54766 27.3191 9.60391 26.9321C9.68383 26.5471 9.8202 26.1761 10.0086 25.831C10.2027 25.533 10.4266 25.2555 10.6769 25.0027C10.9357 24.7968 11.2205 24.626 11.5239 24.4945C11.9098 24.3345 12.2674 25.0121 12.5686 25.7745C12.7286 26.1604 12.8792 26.5462 12.9921 26.8662C13.1051 27.1862 13.2839 27.4121 13.2369 27.4968C13.1898 27.5815 13.2933 27.6192 13.2369 27.6568C13.1804 27.6945 13.3027 27.6568 13.3216 27.6568C13.3404 27.6568 13.3216 27.6568 13.3686 27.6568C13.3771 27.6747 13.3771 27.6954 13.3686 27.7133C13.3121 27.798 13.2651 28.0427 13.538 28.4662C13.6739 28.6824 13.9134 28.8111 14.1686 28.8051C14.381 28.775 14.5893 28.7214 14.7898 28.6451C15.4285 28.5285 15.9621 28.091 16.2016 27.4874C16.2983 27.0917 16.1886 26.6739 15.9098 26.3768C15.4537 25.8207 14.7387 25.5454 14.0274 25.6521C13.4714 25.8103 13.0261 26.2275 12.8321 26.7721C12.8048 26.8657 12.7701 26.9569 12.7286 27.0451C12.6671 27.1282 12.5818 27.1906 12.4839 27.2239C12.3528 27.2431 12.2197 27.2431 12.0886 27.2239C11.718 27.1773 11.3564 27.0758 11.0157 26.9227C10.7992 26.838 10.5921 26.7815 10.3945 26.6968C10.0772 26.571 9.81411 26.3378 9.65097 26.038C9.45559 25.689 9.37648 25.2868 9.42509 24.8898L9.56627 24.4098C9.64156 24.2404 9.7545 24.0615 9.84862 23.8827C10.051 23.5087 10.3187 23.174 10.6392 22.8945C10.9592 22.594 11.3057 22.3231 11.6745 22.0851C12.0588 21.8655 12.4582 21.6736 12.8698 21.511C13.6955 21.2135 14.572 21.0824 15.4486 21.1251C16.2614 21.1725 17.0617 21.3472 17.8204 21.6427C18.3458 21.8396 18.8427 22.1055 19.298 22.4333C19.4935 22.6097 19.6976 22.7762 19.9098 22.9321C20.1322 23.074 20.3321 23.2485 20.5027 23.4498C21.1862 24.1792 21.6947 25.0547 21.9898 26.0098L21.8863 25.9815Z" fill="black"/>
<path d="M57.604 15.8829C57.5363 16.3549 57.4099 16.8165 57.2275 17.257C57.0114 17.6755 56.7425 18.0645 56.4275 18.4147C55.8076 19.0998 55.0716 19.6701 54.2534 20.0994C53.6505 20.4172 52.9858 20.6002 52.3052 20.6358C49.7734 20.7488 47.7781 17.9064 47.7405 16.0994C47.698 15.6392 47.698 15.176 47.7405 14.7158C47.7721 14.2263 47.9137 13.7502 48.1546 13.3229C48.4112 12.7259 48.8535 12.2275 49.4158 11.9017C49.9196 11.6214 50.503 11.5186 51.0722 11.61C51.4111 11.6664 51.3922 12.2406 51.2981 12.8806C51.204 13.5206 51.1099 14.2641 51.0722 14.4335C51.0434 14.4827 51.0372 14.5419 51.0552 14.596C51.0732 14.6501 51.1138 14.6938 51.1664 14.7158C51.2446 14.7486 51.3082 14.8089 51.3452 14.8853C51.409 15.0234 51.4655 15.1648 51.5146 15.3088C51.5146 15.4029 51.5146 15.5158 51.5146 15.6194C51.5146 15.7229 51.4581 15.77 51.4487 15.8735C51.4081 16.061 51.5016 16.2518 51.6746 16.3347C51.8351 16.4061 52.0074 16.4476 52.1828 16.457C52.6682 16.4832 53.1332 16.2596 53.4158 15.8641C53.6112 15.5696 53.6363 15.1937 53.4816 14.8758C53.2462 14.2628 52.6778 13.8411 52.0228 13.7935C51.7593 13.7935 51.5052 13.9064 51.4769 14.0664C51.4769 14.0664 51.4769 14.0664 51.4769 14.1229C51.4769 14.1794 51.4769 14.1229 51.4769 14.1229C51.4518 14.0839 51.4297 14.043 51.4111 14.0006C51.4111 14.0006 51.4111 14.0006 51.5522 14.1041C51.6934 14.2076 51.7122 14.2076 51.8064 14.2358L51.9287 14.2829V14.2829C51.781 14.3545 51.6265 14.4112 51.4675 14.4523C51.0911 14.537 50.6958 14.6123 50.2252 14.6876L49.6322 14.81C49.3124 14.8547 48.9864 14.809 48.6911 14.6782C48.4772 14.5955 48.2722 14.4915 48.0793 14.3676C47.8252 14.2264 47.7969 14.0288 47.6934 13.8123C47.5602 13.4548 47.5056 13.0728 47.5334 12.6923C47.592 12.2175 47.7389 11.7579 47.9664 11.337C48.5276 10.3956 49.4611 9.73571 50.5358 9.52055C51.3497 9.34771 52.1939 9.38005 52.9922 9.61467C53.316 9.70945 53.6309 9.83227 53.9334 9.98173C54.247 10.13 54.5409 10.3166 54.8087 10.537C56.6911 11.8358 57.9146 13.8876 57.6322 15.8641L57.604 15.8829Z" fill="black"/>
<path d="M84.0412 26.0844C83.3231 26.7224 82.4386 27.1435 81.4906 27.2985L81.1047 27.3456C81.0108 27.355 80.9162 27.355 80.8223 27.3456C80.6529 27.3456 80.5023 27.3456 80.2953 27.3456C79.8551 27.3021 79.4219 27.2041 79.0059 27.0538C78.8365 26.9879 78.6482 26.9126 78.4412 26.8091C78.2307 26.7088 78.0318 26.5858 77.8482 26.442C76.8975 25.7388 76.4753 24.5246 76.7847 23.3832C76.8825 22.9759 77.0412 22.5856 77.2553 22.2256C77.5905 21.6691 77.9782 21.146 78.4129 20.6632C78.7612 20.2679 79.0341 19.8538 79.3541 19.4397C79.683 18.7856 80.2753 18.3028 80.9823 18.1126C81.2929 18.0467 81.5188 18.6962 81.8012 19.3362C82.0835 19.9762 82.4788 20.6067 82.4129 20.8138C82.1411 21.6434 81.713 22.4133 81.1518 23.082C80.9729 23.2514 80.9447 23.4679 80.9918 23.515C81.0388 23.562 80.9918 23.515 80.9918 23.515H80.7C80.54 23.5281 80.3821 23.5597 80.2294 23.6091C80.1173 23.6293 80.0112 23.6743 79.9188 23.7409C80.0485 23.5728 80.1357 23.3758 80.1729 23.1667C80.2048 23.0305 80.2268 22.8921 80.2388 22.7526H80.3141H80.4553V22.7526C80.4082 22.4044 80.5212 23.2326 80.5118 23.1479V23.1479V23.195C80.5118 23.195 80.5118 23.1479 80.5118 23.1197C80.4802 23.0617 80.4519 23.002 80.4271 22.9409V22.9409C80.6432 22.8793 80.8301 22.7424 80.9541 22.555C81.2348 22.2168 81.3611 21.7765 81.3023 21.3409C81.3023 21.2656 81.2271 21.2562 81.18 21.2373C81.1329 21.2185 81.1329 21.2373 81.1047 21.2373C81.1446 21.2195 81.1825 21.1974 81.2176 21.1715C81.4153 21.0397 81.3588 21.002 81.2929 21.1715V21.1715V21.2938C81.2652 21.3731 81.2463 21.4551 81.2365 21.5385C81.2365 22.2632 81.1423 21.1997 80.9071 20.202L80.7282 19.4962C80.6276 19.128 80.6115 18.7419 80.6812 18.3667C80.7161 18.1522 80.7794 17.9433 80.8694 17.7456C80.9433 17.5651 81.0805 17.4179 81.2553 17.3314C81.5326 17.1944 81.8322 17.1083 82.14 17.0773C82.3078 17.0477 82.4778 17.0319 82.6482 17.0303C82.8507 17.0453 83.0519 17.0736 83.2506 17.115C83.6702 17.1957 84.0641 17.3765 84.3988 17.642C84.7627 17.8824 85.0813 18.1851 85.34 18.5362C86.1119 19.6249 86.4199 20.9756 86.1965 22.2915C85.9683 23.7698 85.2606 25.1323 84.1823 26.1691L84.0412 26.0844Z" fill="black"/>
</svg>
