<svg width="96" height="96" viewBox="0 0 96 96" fill="none" xmlns="http://www.w3.org/2000/svg">
<path d="M47.5335 65.7972C47.7687 64.7336 48.0229 63.6419 48.3429 62.5125C48.6795 61.2779 49.1596 60.087 49.7735 58.9642C50.1517 58.2726 50.6272 57.6387 51.1852 57.0819C51.505 56.7733 51.8587 56.5018 52.2393 56.2725C52.5707 56.0652 52.9204 55.8887 53.284 55.7454C54.5162 55.231 55.8215 54.9134 57.1523 54.8042C58.8519 54.6475 60.5641 54.6917 62.2535 54.936C63.6558 55.1431 64.9923 55.3878 66.2723 55.5478C66.9217 55.6419 67.5335 55.6983 68.1546 55.7266C68.917 55.7266 69.6887 55.8113 70.357 55.8866C71.7311 56.0278 73.0393 56.1689 74.3099 56.1878C75.4464 56.2824 76.5895 56.1149 77.6511 55.6983C77.9211 55.5732 78.1308 55.3466 78.2346 55.0678C78.2841 54.9063 78.3063 54.7377 78.3005 54.5689C78.3005 54.3431 78.3005 54.1172 78.2252 53.8819C77.9557 52.8985 77.4333 52.0028 76.7099 51.2842C75.6808 50.2436 74.5593 49.2986 73.3593 48.4607C72.164 47.5195 70.9217 46.5783 69.6982 45.6372C68.9452 44.9878 69.2182 44.8278 70.1217 44.9125C71.5863 45.0022 73.0279 45.3198 74.3946 45.8536C74.7711 46.0136 75.1664 46.1831 75.5335 46.3807C75.9005 46.5783 76.2582 46.8325 76.6158 47.0678C77.3577 47.5502 78.0596 48.0915 78.7146 48.6866C79.4322 49.3421 80.0646 50.0852 80.597 50.8983C81.2041 51.8372 81.5991 52.8971 81.7546 54.0042C81.8663 54.6846 81.831 55.381 81.6511 56.0466C81.4384 56.8078 81.0332 57.5015 80.4746 58.0607C79.5696 58.884 78.4507 59.4353 77.2464 59.6513C75.4834 59.9767 73.682 60.0401 71.9005 59.8395C70.9593 59.7548 69.9335 59.6701 69.077 59.6513H68.4652H67.6464C67.1099 59.6513 66.5829 59.6513 66.0652 59.6513C64.004 59.576 62.0652 59.3972 60.2393 59.3313C58.2535 59.2748 56.3523 59.256 54.9217 59.9336L54.7805 59.9901H54.7052C54.6513 60.0111 54.6006 60.0396 54.5546 60.0748C54.4336 60.155 54.323 60.2498 54.2252 60.3572C53.9641 60.6376 53.7453 60.9547 53.5758 61.2983C53.1426 62.1483 52.7988 63.0409 52.5499 63.9619C51.8535 66.3619 51.4111 68.9972 50.6676 71.6419C50.4039 72.6816 50.0738 73.7033 49.6793 74.7007C49.2466 75.8083 48.6079 76.8239 47.797 77.6936C46.8764 78.6983 45.6075 79.3142 44.2487 79.416C42.8943 79.5048 41.5545 79.0928 40.484 78.2583C39.076 77.095 37.9876 75.592 37.3217 73.8913C36.6875 72.3377 36.2572 70.7084 36.0417 69.0442C36.0417 68.6866 35.9382 68.3289 35.8911 67.9713C35.844 67.6136 35.8252 67.256 35.8158 66.8983C35.8011 66.3317 35.8357 65.7649 35.9193 65.2042C36.0113 64.8113 36.1671 64.4361 36.3805 64.0936C36.6631 63.5984 37.0992 63.2085 37.6229 62.9831C37.8276 62.8679 38.0417 62.7703 38.2629 62.6913C38.9123 62.5313 39.4487 63.6325 40.0605 65.3831C40.2393 66.6725 40.484 67.9148 40.7382 69.1478C41.0334 70.2744 41.4173 71.3759 41.8864 72.4419C42.1829 73.2592 42.6777 73.99 43.3264 74.5689C43.4537 74.6891 43.6145 74.7679 43.7876 74.7948C43.8142 74.7814 43.8456 74.7814 43.8723 74.7948C43.8723 74.7948 43.9476 74.7948 43.9852 74.7948C44.0229 74.7948 44.1358 74.7948 44.2017 74.7948C44.3155 74.7572 44.4233 74.7033 44.5217 74.6348C44.7171 74.4646 44.8881 74.2682 45.0299 74.0513C45.4754 73.3661 45.8298 72.6257 46.084 71.8489C46.6399 69.8672 47.0861 67.8563 47.4205 65.8254L47.5335 65.7972Z" fill="black"/>
<path d="M56.3051 61.0826C56.2015 61.0826 56.0415 61.0826 55.7498 61.4591C55.3948 61.9235 55.1095 62.4371 54.9027 62.9838C54.4167 64.4974 54.0609 66.0497 53.8392 67.6238C53.5474 69.3085 53.2745 71.0873 52.898 72.9226C52.6991 73.8837 52.4253 74.8278 52.0792 75.7462C51.704 76.7667 51.2279 77.7473 50.658 78.6732C49.9697 79.7647 49.055 80.6955 47.9757 81.4026C47.6814 81.6007 47.3656 81.7649 47.0345 81.8921L46.4604 82.1368C46.2723 82.199 46.0806 82.2493 45.8862 82.2873C45.1159 82.471 44.3131 82.471 43.5427 82.2873C43.1509 82.2251 42.7684 82.1145 42.4039 81.9579C42.2177 81.8936 42.0381 81.8116 41.8674 81.7132L41.4345 81.4497C40.8884 81.1206 40.3803 80.7324 39.9192 80.292C39.5084 79.8708 39.1278 79.421 38.7804 78.9462C38.4659 78.4919 38.1768 78.0206 37.9145 77.5344C36.2797 73.9956 35.4504 70.1383 35.4862 66.2403C35.4155 63.5771 35.5444 60.9124 35.8721 58.2685C35.9203 58.0484 35.9203 57.8204 35.8721 57.6003C35.8529 57.5303 35.8174 57.4658 35.7686 57.4121C35.7686 57.3368 35.6651 57.2991 35.6086 57.2521C35.4238 57.1593 35.2221 57.1049 35.0157 57.0921C34.5284 57.0348 34.038 57.0096 33.5474 57.0168C31.4064 57.1364 29.2752 57.3911 27.1662 57.7791C24.9545 58.1556 22.6862 58.5415 20.3051 58.7203C17.7499 59.0208 15.1601 58.7704 12.7098 57.9862C11.2502 57.4753 9.97345 56.5456 9.03918 55.3132C8.80568 55.0198 8.60082 54.7046 8.42742 54.3721C8.21988 54.0264 8.05552 53.6566 7.93801 53.2709C7.85743 53.0769 7.79749 52.875 7.75918 52.6685C7.68267 52.4552 7.62904 52.2344 7.59918 52.0097C7.52604 51.5491 7.51023 51.0812 7.55213 50.6168C7.60895 50.1626 7.70981 49.715 7.8533 49.2803C7.99682 48.8754 8.18965 48.4898 8.42742 48.1321C8.83472 47.487 9.32521 46.8984 9.88624 46.3815C10.8658 45.5194 11.9467 44.7798 13.1051 44.1791C15.2162 43.074 17.4209 42.1575 19.6933 41.4403C21.8862 40.7156 24.0698 40.1038 26.2251 39.4826L29.3968 38.5415C29.9145 38.3909 30.4321 38.2403 30.9027 38.0803C31.0937 38.0334 31.2774 37.9605 31.4486 37.8638C31.5749 37.8195 31.695 37.7594 31.8062 37.685C32.1868 37.3831 32.3468 36.8808 32.211 36.4144C32.1552 36.1833 32.0664 35.9614 31.9474 35.7556C31.7454 35.4022 31.5157 35.0655 31.2604 34.7485C30.0421 33.2976 28.6868 31.9676 27.2133 30.7768C25.7168 29.4873 24.1545 28.2262 22.6392 26.8238C21.8464 26.0965 21.1102 25.3099 20.4368 24.4709C20.0301 24.0053 19.6795 23.4935 19.3921 22.9462C19.2179 22.6089 19.0852 22.2518 18.9968 21.8826C18.8955 21.518 18.8448 21.1411 18.8462 20.7626C18.8936 19.787 19.2796 18.8584 19.938 18.1368C20.5055 17.5011 21.1974 16.9885 21.9709 16.6309C23.3488 16.0172 24.8391 15.6967 26.3474 15.6897C29.1285 15.6842 31.883 16.2313 34.4509 17.2991C35.7139 17.7925 36.9405 18.3743 38.1215 19.0403C39.2655 19.7482 40.357 20.5377 41.3874 21.4026C43.4527 23.1031 45.2128 25.1433 46.5921 27.4356C47.4298 28.8662 47.5333 29.6097 47.3451 29.6756C47.1568 29.7415 46.4886 29.1956 45.4627 28.3391C44.0293 27.2248 42.5198 26.2122 40.9451 25.3085C40.0039 24.7532 38.9592 24.2168 37.8486 23.6897C37.2933 23.4262 36.7286 23.1532 36.1262 22.9273C35.5239 22.7015 34.9686 22.3626 34.3662 22.0991C32.2894 21.1146 30.0567 20.4999 27.7686 20.2826C26.7959 20.1848 25.8138 20.2452 24.8604 20.4615C24.4843 20.5507 24.123 20.6933 23.7874 20.885C23.651 20.9622 23.519 21.0471 23.3921 21.1391L23.2792 21.205V21.205C23.2792 21.205 23.2039 21.0732 23.4392 21.5438C24.0885 22.4187 24.8476 23.2063 25.698 23.8873C27.5239 25.4873 29.6133 27.0403 31.6839 28.8285C32.8036 29.7726 33.8396 30.8118 34.7804 31.9344C35.0468 32.2527 35.2951 32.5857 35.5239 32.9321L35.7027 33.205C35.7747 33.3093 35.8376 33.4195 35.891 33.5344L36.3145 34.3721C36.8313 35.4853 37.0269 36.7207 36.8792 37.9391C36.7407 39.1272 36.207 40.2342 35.3639 41.0826C35.2667 41.1955 35.1596 41.2995 35.0439 41.3932L34.6768 41.6568L33.9239 42.1744L33.1804 42.5603L32.6627 42.805C31.9851 43.125 31.3451 43.3979 30.6957 43.6521L28.8133 44.2638C26.2815 45.045 23.8157 45.7509 21.4345 46.5603C19.1318 47.2317 16.8926 48.104 14.7427 49.1673C14.2096 49.4517 13.7025 49.7824 13.2274 50.1556C12.926 50.4287 12.646 50.7244 12.3898 51.0403C12.2158 51.2256 12.1241 51.4734 12.1357 51.7273C12.1724 51.8155 12.2008 51.9068 12.2204 52.0003L12.3898 52.3109C12.4973 52.5178 12.6301 52.7107 12.7851 52.885C13.5803 53.6605 14.616 54.1419 15.7215 54.2497C17.1353 54.4381 18.5662 54.4602 19.9851 54.3156C23.0062 54.0332 26.1309 53.3744 29.3968 52.8473C31.1089 52.5162 32.8483 52.346 34.5921 52.3391C35.7704 52.3363 36.9355 52.5867 38.0086 53.0732C39.2081 53.6555 40.1043 54.7193 40.4745 56.0003C40.5498 56.3485 40.6157 56.7156 40.6627 57.0732C40.6862 57.4148 40.6862 57.7576 40.6627 58.0991V58.6073V58.9462L40.6062 59.5768L40.3521 62.1179L40.1921 64.6497C40.1921 65.4873 40.1921 66.3156 40.1921 67.1532C40.1921 67.9909 40.2862 68.8003 40.3333 69.6285C40.3804 70.4568 40.5215 71.2568 40.7192 72.0191C40.9669 73.5076 41.5494 74.9203 42.4227 76.1509C42.611 76.4426 42.8651 76.6309 43.0627 76.8944C43.2818 77.0852 43.5181 77.2554 43.7686 77.4026C43.9348 77.5258 44.1234 77.6153 44.3239 77.6662C44.4939 77.7084 44.6716 77.7084 44.8415 77.6662C44.9209 77.6556 44.9976 77.6301 45.0674 77.5909C45.1881 77.554 45.3001 77.4931 45.3968 77.4121C45.6226 77.2634 45.8282 77.0863 46.0086 76.885C46.4427 76.3815 46.7894 75.8089 47.0345 75.1909C47.3395 74.4783 47.5851 73.7416 47.7686 72.9885C47.9945 72.2168 48.1827 71.3979 48.3615 70.5697L49.3874 65.3932C49.61 64.2661 49.8896 63.1509 50.2251 62.0521C50.5614 60.817 51.0885 59.6421 51.7874 58.5697C51.9921 58.2684 52.2219 57.9851 52.4745 57.7226C52.7372 57.4342 53.0307 57.1754 53.3498 56.9509C53.679 56.7136 54.0323 56.5117 54.4039 56.3485C54.7775 56.2041 55.1613 56.0877 55.5521 56.0003C55.8908 55.9369 56.2337 55.8992 56.578 55.8873H57.1239H57.6039L59.2133 56.0473C63.4957 56.4332 67.7874 56.7626 72.0227 56.8097C73.5939 56.8423 75.1656 56.7763 76.7286 56.6121C77.2954 56.5942 77.8608 56.5471 78.4227 56.4709C78.862 56.4164 79.2942 56.3155 79.7121 56.1697C80.1498 56.0488 80.501 55.7221 80.6533 55.2944C80.7014 54.8479 80.5693 54.4007 80.2862 54.0521C80.0639 53.7018 79.812 53.3712 79.5333 53.0638C79.1149 52.6341 78.6751 52.2258 78.2157 51.8403C75.6658 49.8833 73.0109 48.0673 70.2627 46.4003C69.5453 45.9039 68.8571 45.3666 68.2015 44.7909C67.8337 44.4961 67.4818 44.1819 67.1474 43.8497C66.7391 43.4467 66.3704 43.0054 66.0462 42.5321C65.3732 41.5842 65.0749 40.4209 65.2086 39.2662C65.2745 38.9838 65.3215 38.7015 65.3968 38.4285L65.7262 37.6285C65.9946 37.1351 66.3098 36.6687 66.6674 36.2356C66.9039 35.9321 67.1652 35.6487 67.4486 35.3885C67.7121 35.1156 67.9851 34.8991 68.2486 34.6638L68.9733 34.0521C69.1898 33.8732 69.3968 33.6662 69.6133 33.4779C70.4671 32.6696 71.2658 31.8049 72.0039 30.8897C73.4714 29.0498 74.7338 27.0553 75.7686 24.9415C76.0133 24.4238 76.2392 23.9062 76.4368 23.3885L76.7004 22.645C76.7474 22.4756 76.8133 22.2685 76.8321 22.1462C77.0121 21.6183 77.0121 21.0458 76.8321 20.5179C76.7079 20.2786 76.5052 20.0892 76.258 19.9815C76.0099 19.881 75.7445 19.8299 75.4768 19.8309C75.2211 19.8479 74.9684 19.8953 74.7239 19.9721C74.6015 19.9721 74.4886 20.0662 74.3757 20.1132L74.178 20.1885L73.8204 20.3673C72.098 21.1579 70.3192 22.3532 68.3333 23.3885C66.7385 24.2739 65.0951 25.0689 63.4109 25.7697C62.7537 26.0106 62.0846 26.2179 61.4062 26.3909C60.7757 26.5321 60.2109 26.6356 59.6933 26.7203C58.2028 27.0184 56.6557 26.8201 55.2886 26.1556C54.8442 25.9583 54.4216 25.7155 54.0274 25.4309C53.6039 25.0073 54.2439 24.5368 55.5051 23.8685C56.7662 23.2003 58.6392 22.1368 61.0204 20.5932C62.8368 19.5391 64.6251 18.3156 66.5357 17.045C67.4768 16.3956 68.5027 15.8026 69.6133 15.1626L70.4604 14.7109L71.4015 14.2873L71.8721 14.0709L72.6157 13.8356C73.1145 13.6944 73.6133 13.4873 74.1215 13.3932L75.6651 13.1768C76.1733 13.1768 76.6815 13.1768 77.1898 13.2238C77.6899 13.2674 78.1847 13.3588 78.6674 13.4968C79.1391 13.6499 79.5985 13.8387 80.0415 14.0615C81.8361 14.9893 83.1058 16.6891 83.4862 18.6732C83.68 19.7058 83.68 20.7654 83.4862 21.7979C83.4095 22.3414 83.2963 22.8791 83.1474 23.4073C83.0251 23.9626 82.8274 24.3485 82.6768 24.8662C82.1805 26.1692 81.576 27.4285 80.8698 28.6309C79.55 30.8736 78.0149 32.9823 76.2862 34.9273C75.4022 35.924 74.4594 36.8669 73.4627 37.7509C73.1898 37.9862 72.9262 38.2121 72.6439 38.4379L71.9004 39.0215L71.3921 39.4168L70.9968 39.7838C70.9561 39.851 70.9016 39.9087 70.8368 39.9532V39.9532V39.9532V39.9532L71.1662 40.2826C71.9856 40.8544 72.8407 41.3731 73.7262 41.8356L76.7851 43.6521C78.4361 44.6168 80.0323 45.6725 81.5662 46.8144L82.1686 47.2944L82.4698 47.5297L82.8274 47.8403L83.5521 48.4803L84.4933 49.4215C85.1239 50.0426 85.5945 50.7391 86.1498 51.3979L86.7804 52.4521C86.8946 52.6161 86.9954 52.7893 87.0815 52.9697L87.2698 53.4968C87.8583 54.8228 87.9486 56.3166 87.5239 57.7038C87.0785 59.0911 86.1588 60.2773 84.9262 61.0544C83.5591 61.9188 82.027 62.4893 80.4274 62.7297C80.0039 62.8144 79.5898 62.8991 79.1851 62.9462L78.5733 63.0215L78.0462 63.0779C77.5566 63.1436 77.0618 63.1625 76.5686 63.1344C75.6274 63.1344 74.6862 62.9932 73.7451 62.9556C72.8039 62.9179 71.8627 62.8709 70.9215 62.8144C69.0957 62.6921 67.2886 62.5132 65.5004 62.325C63.7121 62.1368 61.9239 61.9109 60.1545 61.6756L57.5004 61.3179L56.8792 61.2332C56.7979 61.2423 56.7158 61.2423 56.6345 61.2332H56.3804L56.3051 61.0826Z" fill="black"/>
<path d="M57.6895 38.8709C58.3295 39.8121 58.113 41.0639 58.113 42.1086C57.8723 43.1409 57.3699 44.0938 56.6542 44.8756C56.303 45.2451 55.9004 45.5621 55.4589 45.8168L54.9224 46.0427C53.42 46.4266 51.8411 46.3908 50.3577 45.9392C49.0584 45.6031 47.8242 45.0528 46.7059 44.3109C45.6769 43.7569 44.8302 42.9168 44.2683 41.8921C44.0602 41.4456 43.9726 40.9524 44.0142 40.4615C44.0624 39.9741 44.2485 39.5106 44.5506 39.125C45.0261 38.5322 45.6905 38.1203 46.433 37.958C46.8565 37.845 46.9977 38.3533 47.0071 38.9839C47.0029 39.5563 46.9683 40.1281 46.9036 40.6968C46.9036 40.6968 46.9036 40.6968 46.9036 40.7721V40.7721C46.8068 40.7278 46.7059 40.6932 46.6024 40.6686V40.6686V40.6686C46.6426 40.6782 46.6845 40.6782 46.7247 40.6686C46.8134 40.6593 46.8995 40.6338 46.9789 40.5933L47.0824 40.5462H47.1389L47.28 40.6309C47.4118 40.678 47.4683 40.838 47.6283 40.9603C47.9655 41.2715 48.3275 41.5548 48.7106 41.8074L49.3506 42.2215L49.6989 42.4192C49.7836 42.485 49.7647 42.5039 49.8118 42.5415C49.9759 42.7216 50.2002 42.8354 50.4424 42.8615C50.6768 42.89 50.9138 42.89 51.1483 42.8615H51.2989C52.0526 42.8163 52.6373 42.186 52.6259 41.4309C52.6237 40.9501 52.3975 40.4977 52.0142 40.2074C51.3372 39.7157 50.4402 39.6501 49.6989 40.038C48.9456 40.5616 48.2761 41.1962 47.713 41.9203C47.5861 42.1009 47.441 42.2681 47.28 42.4192C47.1409 42.5279 46.9892 42.6195 46.8283 42.6921C46.6737 42.73 46.5123 42.73 46.3577 42.6921C45.95 42.5931 45.5661 42.4139 45.2283 42.165C45.0118 42.0239 44.7953 41.9015 44.5977 41.7603C44.2722 41.5339 44.0359 41.2011 43.9295 40.8192C43.8022 40.402 43.8022 39.9563 43.9295 39.5392C44.4588 38.3117 45.3231 37.2581 46.4236 36.4992C46.5553 36.3956 46.7059 36.3015 46.8471 36.2074L47.4871 35.8215C47.9765 35.6145 48.4283 35.398 48.9742 35.2192C49.9474 35.0051 50.9426 34.9072 51.9389 34.9274C52.2777 34.9274 52.6259 34.9745 52.9553 35.0403L53.8965 35.285C54.4775 35.5262 55.0461 35.7964 55.6 36.0945C56.5824 36.7711 57.337 37.7292 57.7647 38.8427L57.6895 38.8709Z" fill="black"/>
</svg>
