<svg width="96" height="96" viewBox="0 0 96 96" fill="none" xmlns="http://www.w3.org/2000/svg">
<path d="M66.7907 34.3998L53.2754 45.3927C51.0354 47.2751 48.8143 49.0633 46.6307 50.9269C45.539 51.868 44.4566 52.8092 43.3931 53.7504L42.9131 54.1645L42.5178 54.5127C42.3199 54.6895 42.1431 54.8885 41.9907 55.1057C41.9248 55.2092 41.8495 55.3504 41.9248 55.4539C42.0001 55.5575 42.1695 55.5104 42.2825 55.5198C42.8095 55.5198 43.2895 55.4351 43.7978 55.4351L50.9696 54.8516C53.4637 54.6633 55.9766 54.4563 58.499 54.3622C59.7601 54.3622 61.0307 54.3057 62.2637 54.2963H64.146H65.0872C65.5367 54.2953 65.9859 54.3173 66.4331 54.3622L67.1766 54.4469C67.4119 54.4469 67.619 54.5692 67.8448 54.6257C68.2892 54.7367 68.7429 54.806 69.2001 54.8327C70.0492 54.9285 70.8915 55.0762 71.7225 55.2751C72.4199 55.4435 73.0889 55.7131 73.7084 56.0751C74.2845 56.3998 74.7649 56.8705 75.1013 57.4398C75.1013 57.5151 75.1672 57.6092 75.2048 57.6939C75.2425 57.7786 75.2048 57.8822 75.2048 57.9669C75.2284 58.1323 75.2284 58.3002 75.2048 58.4657C75.1474 58.7452 75.0491 59.0148 74.9131 59.2657C74.629 59.8153 74.2606 60.3171 73.8213 60.7527C72.5145 61.9545 71.0442 62.9653 69.4543 63.7551L68.1743 64.4516L67.1672 64.9786L65.5013 65.8257L62.3484 67.548C59.4213 69.0539 56.5413 70.6069 53.7178 72.2916C53.0213 72.7151 52.3343 73.148 51.666 73.5904L50.7248 74.268L50.2825 74.5786L50.019 74.7763C49.3946 75.2083 48.8606 75.7582 48.4472 76.3951C48.3957 76.4964 48.3577 76.604 48.3343 76.7151C48.3343 76.8469 48.4378 76.941 48.5507 76.9786C48.7874 77.0413 49.0306 77.0761 49.2754 77.0822C49.7743 77.0822 50.2166 77.0822 50.6966 77.0822H51.7131H53.2943C54.3578 77.0822 55.4307 77.0822 56.5131 77.0822C58.7186 77.0712 60.9216 77.2348 63.1013 77.5716C65.4411 77.835 67.6707 78.708 69.5672 80.1033C70.7813 81.1292 70.9037 81.9857 70.6213 82.0892C70.339 82.1927 69.586 81.9104 68.4943 81.7316C66.2919 81.3363 62.6778 81.6469 58.0001 81.6469C56.0519 81.6469 54.0754 81.7127 52.0425 81.788L49.7648 81.8633C48.7484 81.8633 47.7131 81.8633 46.7531 81.8633C45.9026 81.8386 45.0625 81.67 44.2684 81.3645C43.7128 81.139 43.2191 80.7841 42.8284 80.3292C42.6375 80.1096 42.4761 79.8659 42.3484 79.6045C42.2071 79.3054 42.1058 78.9889 42.0472 78.6633C41.9404 78.028 42.0155 77.3755 42.2637 76.781C42.8764 75.1621 43.9056 73.7336 45.2472 72.6398C45.9813 71.9998 46.8284 71.3786 47.5531 70.861L48.2778 70.3622L48.9648 69.9198C49.906 69.3457 50.7813 68.7998 51.6848 68.2727C55.2895 66.2304 58.979 64.348 62.6213 62.5504C63.5625 62.0986 64.419 61.6092 65.3131 61.1574C65.9343 60.828 65.746 60.941 65.8778 60.8845L66.1131 60.7998C66.2731 60.7339 66.4613 60.6586 66.6778 60.5457C66.7923 60.4917 66.9025 60.4287 67.0072 60.3575C67.1107 60.2822 67.2331 60.1692 67.2048 60.0563C67.1219 59.8947 66.9752 59.7753 66.8001 59.7269C66.4976 59.6143 66.1808 59.5446 65.859 59.5198H65.586H64.8331L62.9507 59.5857C60.3813 59.7175 57.7648 59.9622 55.1295 60.141C52.4943 60.3198 49.8401 60.6022 47.1766 60.8469L42.3484 61.2704C41.2828 61.3874 40.2098 61.4221 39.139 61.3739C38.1937 61.4224 37.2459 61.3592 36.3154 61.1857C35.6131 61.0372 34.9455 60.7561 34.3484 60.3575C34.2171 60.2685 34.0942 60.1677 33.9813 60.0563C33.9002 59.9929 33.8383 59.9081 33.8025 59.8116C33.7953 59.7902 33.7953 59.7671 33.8025 59.7457V59.7457V59.7457C33.8025 59.7457 33.9343 59.6704 33.8684 59.7457L33.7648 59.6139C33.6025 59.2577 33.5406 58.8639 33.586 58.4751C33.6661 57.7332 33.8899 57.0139 34.2448 56.3575C34.7307 55.4618 35.3389 54.6382 36.0519 53.9104C36.8237 53.0633 37.699 52.2351 38.5554 51.4163L39.8354 50.2116L40.6637 49.468C41.7805 48.4076 42.8974 47.4069 44.0143 46.4657C48.4943 42.6445 53.0307 38.9363 57.539 35.2375C60.3154 32.9598 63.0919 30.6727 65.8307 28.3669C67.1672 27.1998 68.5194 26.0171 69.8872 24.8186L70.9884 23.8775C71.3272 23.5669 71.6754 23.2469 72.0143 22.9363L72.6919 22.2586C72.9084 22.0045 73.1531 21.741 73.3507 21.4586C73.4536 21.3123 73.5389 21.1543 73.6048 20.988C73.6801 20.7904 73.4448 20.7057 73.3037 20.668C72.6419 20.5741 71.9702 20.5741 71.3084 20.668C70.6307 20.7339 69.9437 20.8375 69.2566 20.9692L68.1272 21.1857L66.2448 21.5904C61.3067 22.7505 56.4417 24.2024 51.6754 25.9386C43.9906 28.7798 36.6069 32.377 29.6331 36.6775C28.1084 37.6186 26.6684 38.6163 25.1531 39.5763L21.6237 41.8351C21.1761 42.1132 20.7143 42.3677 20.2401 42.5975C19.8563 42.8089 19.4604 42.9975 19.0543 43.1622C17.9747 43.6377 16.8163 43.9089 15.6378 43.9622C15.2315 44.0065 14.8229 44.0253 14.4143 44.0186C13.906 43.9339 14.0754 43.3222 14.7437 42.1363C15.7705 40.4045 17.0559 38.8398 18.5554 37.4963C20.0237 36.2539 21.5578 35.0586 23.1295 33.9198C24.7013 32.781 26.3484 31.7269 28.0237 30.701C31.4043 28.6618 34.8916 26.805 38.4707 25.1386C45.7528 21.7476 53.3093 18.98 61.059 16.8657C62.659 16.4327 64.2684 16.028 65.906 15.6516L67.1578 15.3692C67.9484 15.2186 68.739 15.0398 69.5201 14.8986C71.0919 14.5975 72.6448 14.3716 74.1319 14.221C75.4278 14.0621 76.7396 14.0875 78.0284 14.2963C78.8904 14.464 79.6963 14.8459 80.3719 15.4069C80.6618 15.6576 80.9209 15.942 81.1437 16.2539C81.2819 16.4643 81.4046 16.6845 81.5107 16.9127C81.9142 17.7676 82.0041 18.7371 81.7648 19.6516C81.559 20.5005 81.181 21.2982 80.6543 21.9951C79.9418 22.9671 79.1484 23.877 78.2825 24.7151C77.3413 25.6563 76.4001 26.541 75.3837 27.4351L73.8213 28.6869V28.6869C73.8213 28.6869 73.7272 28.6869 73.7178 28.6869L73.6519 28.7433L73.5578 28.828L73.3696 28.9975L72.9931 29.3269C70.979 31.0963 68.9554 32.8092 66.9319 34.5127L66.7907 34.3998Z" fill="black"/>
</svg>
