<svg width="96" height="96" viewBox="0 0 96 96" fill="none" xmlns="http://www.w3.org/2000/svg">
<path d="M60.7052 14.8625C63.3225 16.8386 65.2732 19.5676 66.2958 22.6837C67.2188 25.5706 67.4351 28.6369 66.9264 31.6248C66.6347 33.6682 66.068 35.6628 65.2417 37.5543C63.7236 40.65 61.7006 43.4713 59.2558 45.9025C56.9662 48.1634 54.5598 50.3028 52.0464 52.3119C49.931 54.0428 47.9489 55.9305 46.117 57.959C44.9499 59.2107 44.0087 60.6037 42.9734 61.9684C41.9381 63.3331 40.9781 64.7166 39.9711 66.1566C39.3593 67.0225 38.644 66.5707 38.2581 65.3095C37.8006 63.5235 38.0465 61.63 38.9452 60.0201C40.9412 56.7351 43.4046 53.758 46.2581 51.1825C48.9687 48.6507 51.7264 46.4013 54.277 44.0578C55.797 42.6838 57.1123 41.099 58.1828 39.3519C59.1701 37.6261 59.9354 35.7825 60.4605 33.8648C61.0345 31.8791 61.1852 29.7949 60.9028 27.7472C60.7683 26.7735 60.499 25.8232 60.1028 24.9237C59.7261 24.038 59.215 23.2158 58.5875 22.486C57.8108 21.5297 56.8862 20.7036 55.8487 20.039C54.7688 19.3999 53.5929 18.9391 52.3664 18.6743C48.409 17.8486 44.2867 18.7153 40.997 21.0648C38.5854 22.9928 36.8352 25.6248 35.9899 28.5943C35.7546 29.2154 35.6981 29.8837 35.4911 30.4766C34.804 32.8484 34.3523 33.5731 32.6675 34.006C32.2907 34.1302 31.9074 34.2339 31.5193 34.3166C30.8809 34.4377 30.2338 34.1534 29.8911 33.6013C29.6588 33.2371 29.4812 32.8407 29.364 32.4248C29.2503 31.8892 29.1872 31.3441 29.1758 30.7966C29.2482 26.9512 30.4818 23.2176 32.7146 20.086C35.1185 16.6689 38.5066 14.0654 42.4275 12.6225C48.526 10.2829 55.382 11.0627 60.7993 14.7119L60.7052 14.8625Z" fill="black"/>
<path d="M40.6962 76.7364C40.8697 77.2086 40.9403 77.7124 40.9033 78.214L40.8468 78.9858C40.8468 79.2399 40.7338 79.5035 40.6774 79.7576L40.4891 80.5011C40.3702 80.7434 40.2383 80.979 40.0938 81.207C39.8441 81.6715 39.5269 82.0965 39.1527 82.4682C38.8986 82.7317 38.6727 83.0329 38.428 83.287C38.1833 83.5411 37.8538 83.6729 37.5621 83.8329C36.5388 84.2259 35.3887 84.0997 34.475 83.494C34.2774 83.334 34.0891 83.1458 33.9009 82.9764C33.7127 82.807 33.5997 82.5623 33.4491 82.3646C33.25 81.9809 33.0923 81.577 32.9786 81.1599C32.7785 80.501 32.6491 79.8227 32.5927 79.1364C32.412 78.2298 32.6702 77.2912 33.2891 76.6046C33.4962 76.3976 34.0138 76.7929 34.5127 77.2352C35.0115 77.6776 35.5668 78.1011 35.6044 78.3082C35.6419 78.7136 35.7207 79.1141 35.8397 79.5035C35.9433 79.8988 36.1127 80.2188 36.0091 80.4446C36.0037 80.5194 36.0304 80.5929 36.0825 80.6468C36.1346 80.7007 36.2072 80.7299 36.2821 80.727C36.4223 80.6994 36.5524 80.6344 36.6586 80.5388C36.9782 80.3122 37.2054 79.9781 37.2986 79.5976C37.4354 79.0112 37.0998 78.4178 36.5268 78.2329C36.3555 78.1616 36.1577 78.2159 36.0468 78.3646C35.8303 78.5717 35.8303 79.0329 35.8774 79.494C35.89 79.5909 35.89 79.689 35.8774 79.7858C35.7362 80.134 35.3409 80.1435 34.1456 79.9835L33.3362 79.8799C32.5491 79.8536 31.8451 79.383 31.5197 78.6658C31.4248 78.4292 31.3738 78.1772 31.3691 77.9223C31.3825 77.66 31.4139 77.399 31.4633 77.1411C31.5888 76.5722 31.8151 76.0303 32.1315 75.5411C32.3392 75.2684 32.5656 75.0105 32.8091 74.7693C33.0774 74.4935 33.3972 74.2729 33.7503 74.1199C34.1177 73.9157 34.5146 73.7696 34.9268 73.687C35.3186 73.5911 35.719 73.5343 36.1221 73.5176C38.3997 73.5176 39.8868 75.0423 40.828 76.6611L40.6962 76.7364Z" fill="black"/>
</svg>
