<svg width="96" height="96" viewBox="0 0 96 96" fill="none" xmlns="http://www.w3.org/2000/svg">
<path d="M41.5296 83.1947C36.1536 82.5882 31.0087 80.6718 26.546 77.6136C24.3662 76.0518 22.3984 74.2137 20.6919 72.1453C18.9612 70.1146 17.4852 67.88 16.2966 65.4912C14.6116 62.0761 13.4352 58.4328 12.8048 54.6771C11.6299 48.04 12.2805 41.2084 14.6872 34.9124C17.1376 28.6485 21.3968 23.2556 26.9225 19.4206C31.7873 16.025 37.4422 13.9348 43.346 13.35C47.1082 12.9399 50.9143 13.2595 54.5554 14.2912C55.4636 14.5344 56.3588 14.8234 57.2378 15.1571L58.5084 15.7595C58.9319 15.9665 59.3272 16.2112 59.7413 16.4371L60.946 17.1336C61.3413 17.3783 61.7178 17.6512 62.0943 17.9053L63.2331 18.6865C63.6001 18.9595 63.9578 19.2512 64.3154 19.5336C66.0754 20.9924 65.4919 21.2371 63.4684 21.0395C62.5272 20.9077 61.059 20.8136 59.4684 20.663C58.659 20.663 57.7931 20.5971 56.9178 20.5218C56.466 20.5218 56.0331 20.4653 55.5625 20.5218C55.0919 20.5783 54.6966 20.3053 54.2448 20.23C52.6967 19.8776 51.1232 19.6478 49.539 19.543L48.3625 19.4771C47.9672 19.4771 47.5719 19.4771 47.1766 19.4771C46.3929 19.4347 45.6074 19.4347 44.8237 19.4771C41.6797 19.5753 38.5759 20.212 35.6472 21.3595C34.1692 21.9329 32.7402 22.6254 31.3743 23.43C30.0077 24.2651 28.7109 25.2094 27.4966 26.2536C25.0045 28.3536 22.8907 30.8653 21.2472 33.6795C19.2148 37.1962 17.993 41.1222 17.6707 45.1712C17.3911 49.3154 17.7755 53.4777 18.8096 57.5006C19.3622 59.7013 20.1544 61.8349 21.1719 63.863C22.1658 65.8867 23.4325 67.7646 24.9366 69.4442C28.0019 72.7694 31.9016 75.2133 36.2307 76.5218C41.6983 78.0882 47.4766 78.2243 53.0119 76.9171C57.267 75.9328 61.3459 74.3013 65.106 72.0794C66.9505 71.0103 68.6763 69.7483 70.2543 68.3147C71.0188 67.6106 71.7181 66.8389 72.3437 66.0089L73.2848 64.7759C73.5578 64.343 73.7931 63.8347 74.0566 63.43C75.5755 60.6422 76.4049 57.5311 76.4754 54.3571C76.5358 51.2161 76.0485 48.0885 75.0354 45.1147C74.5648 43.8159 74.0943 42.5642 73.4919 41.35C72.466 38.9971 71.6096 37.5853 71.3084 36.3336C71.1728 35.795 71.1032 35.2419 71.1013 34.6865C71.1277 34.1546 71.2389 33.6304 71.4307 33.1336C71.5764 32.6357 71.7556 32.1483 71.9672 31.6747C72.3625 30.9783 73.1437 30.8936 74.2731 31.43C75.8727 32.2781 77.225 33.5266 78.1978 35.0536C80.2348 37.9632 81.7654 41.1962 82.7248 44.6159C83.6754 48.2139 83.9624 51.955 83.5719 55.6559C82.9149 61.5063 80.4054 66.9937 76.4096 71.3171L74.339 73.3218C73.9897 73.6668 73.6119 73.9816 73.2096 74.263L72.0519 75.11C70.9504 75.9148 69.7999 76.6503 68.6072 77.3124C67.4307 77.9336 66.2731 78.5924 65.059 79.1947C62.6328 80.3454 60.1141 81.2899 57.5296 82.0183C52.3351 83.5051 46.9041 83.9843 41.5296 83.43V83.1947Z" fill="black"/>
<path d="M37.3506 32.5507C37.3421 32.5686 37.3421 32.5893 37.3506 32.6072C37.3977 32.7021 37.3977 32.8135 37.3506 32.9084C37.1942 33.233 37.056 33.5661 36.9365 33.906L36.7953 34.8472C36.7622 35.4742 36.7622 36.1025 36.7953 36.7295C36.8343 37.9893 36.9411 39.246 37.1153 40.4942C37.4071 42.9695 37.6894 45.4448 38.0565 47.9107L39.3553 55.2801L40.0141 58.9601L41.0588 62.6684C41.096 62.7556 41.096 62.8541 41.0588 62.9413C41.0544 62.9599 41.0544 62.9792 41.0588 62.9978C41.1247 63.1954 41.9059 63.2613 42.8 63.1578C43.6941 63.0543 44.4376 62.8095 44.4565 62.6025V62.6025C44.3948 62.5214 44.3617 62.4221 44.3624 62.3201L44.4282 61.0966C44.5665 58.7037 44.5351 56.3039 44.3341 53.9154L43.9388 46.6684L43.28 39.5813L43.12 37.8119C43.0447 37.2284 42.9506 36.6448 42.8659 36.0519L42.7341 35.1766C42.7131 34.8805 42.6497 34.5889 42.5459 34.3107L42.2635 33.4542C42.0941 33.1813 41.8965 32.899 41.7176 32.6354C41.6774 32.5555 41.6774 32.4612 41.7176 32.3813C41.7277 32.3638 41.7277 32.3423 41.7176 32.3248C41.0128 32.0718 40.2569 31.9943 39.5153 32.099C38.7656 32.0426 38.0152 32.1992 37.3506 32.5507Z" fill="black"/>
<path d="M52.4094 33.152V33.152C52.4568 33.2301 52.4568 33.3281 52.4094 33.4062C52.2379 33.6769 52.0808 33.9565 51.9388 34.2438L51.7223 35.1003C51.639 35.6742 51.5888 36.2524 51.5717 36.832C51.476 37.9933 51.4414 39.1589 51.4682 40.3238C51.4682 42.6673 51.4211 45.0297 51.4682 47.3826C51.5152 49.7356 51.7129 52.0885 51.8729 54.4791L52.1364 58.0462C52.3717 59.2509 52.6164 60.4367 52.927 61.6697C52.9641 61.7569 52.9641 61.8554 52.927 61.9426C52.927 61.9426 52.927 61.9426 52.927 62.0085C52.9835 62.2062 53.7647 62.272 54.6588 62.1685C55.5529 62.065 56.2964 61.8297 56.3247 61.6603V61.6603C56.2694 61.5912 56.2425 61.5037 56.2494 61.4156C56.2494 61.0579 56.3247 60.6909 56.3811 60.3144C56.6986 58.1114 56.9028 55.8936 56.9929 53.6697L57.3976 46.9497L57.6235 40.192L57.6705 38.4885C57.6705 37.9238 57.6705 37.3497 57.6141 36.785V35.9285C57.6215 35.6364 57.5866 35.3448 57.5105 35.0626L57.2941 34.1873C57.1529 33.905 56.9741 33.6132 56.7952 33.312C56.7529 33.2227 56.7529 33.119 56.7952 33.0297C56.7996 33.0111 56.7996 32.9918 56.7952 32.9732C56.0904 32.6933 55.3239 32.6056 54.5741 32.7191C53.8291 32.698 53.0889 32.846 52.4094 33.152V33.152Z" fill="black"/>
</svg>
