<svg width="96" height="96" viewBox="0 0 96 96" fill="none" xmlns="http://www.w3.org/2000/svg">
<path d="M65.9639 57.7034L68.5898 57.0258L69.8792 56.6775C69.9655 56.6395 70.0579 56.6172 70.1521 56.6117H70.2557C70.4312 56.5999 70.6049 56.5683 70.7733 56.5175C70.8191 56.5017 70.8609 56.476 70.8957 56.4422C70.8957 56.4422 70.8957 56.3764 70.8957 56.3481L70.811 56.1222L70.5192 55.6893L70.3498 55.4446L70.1992 55.294L69.9262 54.9928C69.371 54.3622 68.8062 53.7411 68.2039 53.1105C67.6015 52.4799 66.9804 51.9152 66.3968 51.294C62.1521 46.9646 57.5592 42.8234 52.8533 38.8046C50.7639 37.0258 48.571 35.3411 46.3968 33.6752C43.7051 31.4164 40.8439 29.2705 38.6886 26.3246C38.0015 25.3834 38.538 25.1105 39.7145 25.214C40.4491 25.2891 41.1762 25.4245 41.8886 25.6187C42.3274 25.7346 42.7582 25.8792 43.178 26.0517C43.6169 26.2523 44.0387 26.4884 44.4392 26.7575L48.8533 29.7505C50.3027 30.7858 51.6768 31.9622 53.0415 33.0917C55.7992 35.3787 58.538 37.7411 61.1639 40.2822C64.3263 43.3505 67.9404 46.1081 71.1404 49.2987C71.9686 50.0893 72.7215 50.9834 73.5121 51.8305C73.6157 51.9434 73.691 52.0187 73.8133 52.1693L74.2086 52.6681L74.9804 53.6564C75.498 54.3434 76.0251 54.9175 76.5051 55.6799C76.7215 56.4517 77.0039 57.214 77.1733 57.9764C77.0484 58.3652 76.8208 58.7132 76.5145 58.9834C76.207 59.281 75.8622 59.5372 75.4886 59.7458C74.6089 60.2147 73.6852 60.5962 72.731 60.8846L71.9874 61.1199L71.3662 61.3081L70.4251 61.5811C67.498 62.3811 64.5804 63.0775 61.6815 63.8117C57.2862 64.9222 52.8533 65.9387 48.5615 67.2187C45.288 68.245 42.0682 69.4355 38.9145 70.7858L36.9004 71.6799C34.3404 72.6211 33.7004 72.6964 32.5615 71.9717C32.298 71.8022 31.9968 71.6987 31.7333 71.5575C31.5212 71.448 31.3718 71.2464 31.3286 71.0117C31.2839 70.6845 31.3537 70.352 31.5263 70.0705C32.0125 69.2821 32.6889 68.6284 33.4933 68.1693C34.8945 67.2981 36.3645 66.5426 37.8886 65.9105C39.3851 65.2611 40.9098 64.6869 42.4439 64.1411C45.531 63.0681 48.6839 62.1552 51.8557 61.3175C56.5615 60.0093 61.2674 58.8799 65.9733 57.6187L65.9639 57.7034Z" fill="black"/>
<path d="M65.2958 60.4134L70.4534 59.5664L73.0228 59.1428L73.6534 59.0299L73.9734 58.9828H74.0769H74.3687C74.7429 58.976 75.1153 58.9287 75.4793 58.8417C75.6205 58.8417 75.4793 58.7099 75.4793 58.6534L75.3663 58.437C75.277 58.2793 75.1763 58.1283 75.0652 57.9852C74.9822 57.8575 74.8877 57.7378 74.7828 57.6275L73.6534 56.4793L71.0463 53.7687C64.9758 47.4158 58.5663 41.1193 52.0063 35.0675C49.0887 32.3852 46.0299 29.8252 42.9993 27.3122C39.1405 24.084 34.9993 21.1099 31.5263 17.2981C30.8958 16.6017 30.8769 16.0275 31.3099 15.6981C31.9549 15.3224 32.6817 15.1092 33.4275 15.077C35.9251 14.9269 38.3907 15.7007 40.3546 17.2511C44.4016 20.4793 48.4205 23.7452 52.3075 27.1993C56.1946 30.6534 59.9499 34.2393 63.611 38.0511C67.9593 42.597 73.0228 46.7664 77.4934 51.4628L79.3758 53.4958C80.3169 54.5499 81.1828 55.6699 82.0863 56.7334L83.404 58.3428C83.5546 58.8134 83.6675 59.284 83.7993 59.7452L84.1946 61.1287C84.1946 61.2417 84.2887 61.3546 84.2699 61.477C84.2315 61.6028 84.171 61.7207 84.091 61.8252C83.9549 62.0126 83.8004 62.1861 83.6299 62.3428C82.8174 63.0768 81.8535 63.6231 80.8063 63.9428C79.5452 64.3381 78.1993 64.6675 76.8534 64.9781L75.084 65.364L73.7852 65.6275L71.1969 66.1452C66.9616 66.9922 62.7263 67.7828 58.5287 68.724L53.8228 69.9381L49.0134 70.9452C45.851 71.6699 42.7075 72.4605 39.6016 73.3828C34.9086 74.8806 30.3238 76.6982 25.8793 78.8228C24.9381 79.2652 23.9969 79.764 23.0558 80.2158C22.1146 80.6675 21.3993 80.9405 20.7499 81.157C20.1722 81.3045 19.5762 81.3679 18.9805 81.3452C18.0202 81.3284 17.0955 80.9791 16.364 80.357C15.9821 80.0957 15.6203 79.8063 15.2816 79.4911C14.787 78.882 14.7525 78.02 15.1969 77.3734C15.821 76.2162 16.6956 75.2129 17.7569 74.437C25.7663 69.4111 35.0558 66.5217 44.3169 64.084C46.0487 63.6511 47.771 63.2275 49.5028 62.8323C50.3781 62.6534 51.2346 62.4181 52.1193 62.2864L54.7734 61.9758C55.6581 61.8628 56.5522 61.7781 57.4275 61.6558L60.044 61.1758L65.2487 60.2346L65.2958 60.4134Z" fill="black"/>
<path d="M18.2089 53.6934C19.3571 51.4064 20.496 49.1193 21.5877 46.8134C21.983 45.9664 22.2371 45.0722 22.6418 44.2346C24.063 41.2699 25.5407 38.324 26.8113 35.3216C27.3615 33.9857 27.8329 32.6187 28.223 31.2275C28.5506 29.4774 29.0552 27.7651 29.7289 26.1169C29.9736 25.6464 31.0748 25.7781 32.0818 26.4275C32.6235 26.778 33.0775 27.2481 33.4089 27.8016C33.7394 28.304 33.8734 28.9104 33.7854 29.5052C33.4045 31.45 32.8759 33.363 32.2042 35.2275C31.4963 37.0496 30.6499 38.8148 29.6724 40.5075C28.6295 42.6317 27.7057 44.8123 26.9054 47.0393C25.8795 49.4205 24.7877 51.7452 23.696 54.1264L21.6724 58.4652C20.6748 60.6581 19.5454 62.8134 18.6513 65.0534C17.9454 66.7758 17.5407 68.5922 16.9289 70.3334C16.7783 70.7099 16.6748 71.1052 16.496 71.4722C15.8183 72.8369 15.3007 73.1287 14.1524 72.9687C13.893 72.9432 13.6353 72.9024 13.3807 72.8464C12.5524 72.6299 12.1477 71.764 12.2513 70.6158C12.3454 69.7593 12.4395 68.9028 12.5713 68.0464C12.703 67.1899 12.9948 66.4087 13.2489 65.5899C13.7571 63.9617 14.3501 62.3428 14.9807 60.7334C15.4513 59.535 15.9407 58.3491 16.4489 57.1758L18.0677 53.6652L18.2089 53.6934Z" fill="black"/>
</svg>
