<svg width="156" height="152" viewBox="0 0 156 152" fill="none" xmlns="http://www.w3.org/2000/svg">
<g id="vectorly-UNI-house-home" clip-path="url(#clip0_615_10611)">
<g id="vectorly-UNI-house-home_2">
<path id="path2576" fill-rule="evenodd" clip-rule="evenodd" d="M11.9647 119.841C11.4108 119.844 10.9545 119.398 10.9488 118.84C10.943 118.284 11.3908 117.827 11.9447 117.824C11.9447 117.824 29.6165 117.084 52.1469 116.42C57.3038 116.267 62.7162 116.141 68.229 116.031C71.7732 115.962 75.3632 115.893 78.9504 115.87C88.1164 115.815 97.2795 115.87 105.76 115.942C128.296 116.129 145.979 116.503 145.979 116.503C146.536 116.497 146.989 116.946 146.995 117.502C147.001 118.06 146.553 118.514 145.999 118.52C145.999 118.52 128.327 119.243 105.8 119.873C97.3225 120.109 88.1595 120.348 78.9964 120.471C75.4063 120.52 71.8191 120.52 68.272 120.523C62.7592 120.523 57.3469 120.503 52.1842 120.451C29.648 120.23 11.9647 119.841 11.9647 119.841Z" fill="black"/>
<path id="path2578" fill-rule="evenodd" clip-rule="evenodd" d="M79.9691 118.043C80.0408 118.595 79.6505 119.102 79.1024 119.171C78.5514 119.243 78.0464 118.854 77.9747 118.301C77.4638 115.429 75.8769 108.722 75.5354 102.276C75.3058 97.985 75.7162 93.8324 77.042 90.854C77.923 88.9489 79.8399 87.1505 82.2936 86.0139C84.3082 85.0815 86.6844 84.5891 89.0117 84.8136C93.081 85.2078 97.1072 87.634 98.9237 93.4959C99.7474 96.3074 100.1 101.228 99.9684 106.031C99.8249 111.332 99.1448 116.457 98.258 118.371C98.0485 118.886 97.4603 119.136 96.9466 118.926C96.4329 118.713 96.1861 118.126 96.3956 117.611C97.047 115.766 97.1216 110.983 96.8404 106.08C96.5907 101.72 96.0253 97.28 95.084 94.7908C93.7525 91.093 91.2242 89.5879 88.6156 89.3836C86.7359 89.234 84.8333 89.7144 83.3152 90.5634C82.2534 91.1562 81.3466 91.8785 80.9047 92.7447C79.6219 95.1591 79.1972 98.6323 79.091 102.235C78.9016 108.537 79.7423 115.202 79.9691 118.043Z" fill="black"/>
<path id="path2580" fill-rule="evenodd" clip-rule="evenodd" d="M61.3559 83.1834C61.617 83.2668 61.9499 83.336 62.3 83.3964C63.6804 83.6352 65.2215 83.7561 65.2215 83.7561C65.7754 83.7388 66.2402 84.1762 66.2575 84.7315C66.2747 85.2869 65.8385 85.7532 65.2818 85.7705C65.2818 85.7705 63.1811 86.0353 61.5453 86.0066C60.6672 85.9922 59.9183 85.8079 59.4849 85.6151C59.264 85.5144 59.04 85.287 58.7961 84.9589C58.5206 84.5934 58.205 83.7678 57.9266 82.634C57.631 81.4369 57.4043 79.8424 57.3699 78.1474C57.3383 76.5877 57.5163 74.9591 57.9123 73.4886C58.2395 72.2828 58.7474 71.1834 59.4275 70.2913C60.6529 68.6741 62.412 67.6642 64.7681 67.6699C67.2217 67.7735 69.1129 69.4452 69.9939 72.2855C70.4502 73.7675 70.6998 75.526 70.7486 77.2641C70.8433 80.7836 70.2608 84.1244 69.9136 84.7057C69.6725 85.2064 69.0727 85.4165 68.5705 85.1747C68.0712 84.933 67.8617 84.3288 68.1028 83.8281C68.1659 83.6583 68.117 83.2066 68.1056 82.5764C68.0769 81.031 67.8186 78.6568 67.2791 76.418C66.9864 75.1921 66.5732 74.0383 66.0509 73.1145C65.7324 72.5534 65.3937 72.0814 64.8283 72.1189C64.0277 72.1448 63.4739 72.5476 63.0492 73.0915C62.6675 73.5836 62.3632 74.1706 62.125 74.8181C61.2498 77.2123 61.0661 80.2079 61.2268 82.1014C61.2584 82.4813 61.3215 82.9388 61.3559 83.1834ZM60.9456 83.0021C60.9456 83.0021 60.9455 83.0021 60.9427 83.0021H60.9456Z" fill="black"/>
<path id="path2582" fill-rule="evenodd" clip-rule="evenodd" d="M106.031 83.1834C106.292 83.2668 106.625 83.336 106.975 83.3964C108.355 83.6352 109.896 83.7561 109.896 83.7561C110.45 83.7388 110.915 84.1762 110.932 84.7315C110.949 85.2869 110.513 85.7532 109.957 85.7705C109.957 85.7705 107.856 86.0353 106.22 86.0066C105.342 85.9922 104.593 85.8079 104.16 85.6151C103.939 85.5144 103.715 85.287 103.471 84.9589C103.195 84.5934 102.88 83.7678 102.601 82.634C102.306 81.4369 102.079 79.8424 102.045 78.1474C102.013 76.5877 102.191 74.9591 102.587 73.4886C102.914 72.2828 103.422 71.1834 104.102 70.2913C105.328 68.6741 107.087 67.6642 109.443 67.6699C111.897 67.7735 113.788 69.4452 114.669 72.2855C115.125 73.7675 115.375 75.526 115.423 77.2641C115.518 80.7836 114.936 84.1244 114.588 84.7057C114.347 85.2064 113.748 85.4165 113.245 85.1747C112.746 84.933 112.537 84.3288 112.778 83.8281C112.841 83.6583 112.792 83.2066 112.78 82.5764C112.752 81.031 112.493 78.6568 111.954 76.418C111.661 75.1921 111.248 74.0383 110.726 73.1145C110.407 72.5534 110.068 72.0814 109.503 72.1189C108.702 72.1448 108.149 72.5476 107.724 73.0915C107.342 73.5836 107.038 74.1706 106.8 74.8181C105.925 77.2123 105.741 80.2079 105.902 82.1014C105.933 82.4813 105.996 82.9388 106.031 83.1834ZM105.62 83.0021C105.62 83.0021 105.62 83.0021 105.617 83.0021H105.62Z" fill="black"/>
<path id="path2584" fill-rule="evenodd" clip-rule="evenodd" d="M34.1104 70.2306C33.9239 69.7069 34.1993 69.1314 34.7216 68.9444C35.2439 68.7573 35.8208 69.0307 36.0045 69.5573C36.0045 69.5573 36.191 70.0062 36.5382 70.4091C36.7333 70.6335 36.9973 70.8667 37.3589 70.812C37.8898 70.7315 38.4437 70.2106 39.1955 69.1717C40.573 67.2667 48.4534 58.9473 57.3898 49.8279C62.0187 45.1027 66.923 40.1586 71.3339 35.7845C79.2142 27.9745 85.4875 21.96 85.4875 21.96C86.3742 21.1082 87.7718 21.1111 88.6557 21.96C88.6557 21.96 94.7367 27.8537 102.402 35.445C115.468 48.3918 133.18 66.2449 134.173 66.9845C134.687 67.3701 135.212 67.658 135.688 67.517C136.11 67.3962 136.406 66.9703 136.618 66.2566C136.761 65.7214 137.315 65.402 137.852 65.5487C138.386 65.6926 138.704 66.248 138.558 66.7861C138.159 68.4321 137.281 69.2464 136.339 69.5744C135.298 69.9341 134.032 69.6521 132.85 68.855C132.043 68.3082 120.424 57.8248 108.93 47.2003C99.7588 38.7226 90.6703 30.1674 87.086 26.7833C84.6065 29.1631 79.4409 34.1041 73.3857 39.8164C65.8584 46.9214 56.9478 55.2006 50.3531 61.4826C45.5693 66.038 41.9907 69.4881 41.0838 70.6162C39.7121 72.3198 38.5383 72.907 37.6287 72.9934C36.6242 73.0912 35.8151 72.6853 35.2268 72.0753C34.472 71.2954 34.1104 70.2306 34.1104 70.2306Z" fill="black"/>
<path id="path2586" fill-rule="evenodd" clip-rule="evenodd" d="M45.1101 63.7034C45.0413 63.1509 45.4345 62.6473 45.9855 62.5782C46.5365 62.5091 47.0387 62.9005 47.1076 63.453C47.1076 63.453 48.5538 70.5524 49.9657 79.7927C50.2843 81.8934 50.5828 84.1034 50.8554 86.3653C51.0304 87.8157 51.1998 89.2863 51.3203 90.7625C51.6245 94.5122 51.7823 98.2876 51.8598 101.824C52.0176 109.292 51.7163 115.675 51.0104 118.636C50.9128 119.182 50.3877 119.548 49.8424 119.45C49.2943 119.352 48.9298 118.826 49.0303 118.279C49.257 116.308 49.0273 112.866 48.6313 108.615C48.3558 105.646 47.9684 102.313 47.5724 98.8142C47.3285 96.6703 47.0673 94.4746 46.855 92.2674C46.6455 90.066 46.4762 87.8558 46.3212 85.7004C46.1003 82.6126 45.9309 79.6344 45.7788 76.915C45.3569 69.2574 45.1101 63.7034 45.1101 63.7034Z" fill="black"/>
<path id="path2588" fill-rule="evenodd" clip-rule="evenodd" d="M124.094 59.9427C124.157 59.3873 124.657 58.9902 125.208 59.0535C125.762 59.1168 126.158 59.6175 126.095 60.17C126.095 60.17 125.874 66.0061 125.46 74.0636C125.314 76.9241 125.142 80.0548 124.921 83.3037C124.763 85.5714 124.591 87.8967 124.373 90.2161C124.155 92.5355 123.882 94.8462 123.627 97.1052C123.21 100.777 122.794 104.288 122.473 107.425C122.022 111.845 121.71 115.471 121.784 117.666C121.833 118.222 121.428 118.714 120.875 118.766C120.321 118.818 119.833 118.409 119.781 117.854C119.29 114.547 119.107 107.931 119.319 100.271C119.422 96.5498 119.597 92.5901 119.91 88.662C120.034 87.1081 120.209 85.5658 120.384 84.0406C120.659 81.6636 120.955 79.3413 121.276 77.1341C122.682 67.4075 124.094 59.9427 124.094 59.9427Z" fill="black"/>
<path id="path2590" fill-rule="evenodd" clip-rule="evenodd" d="M137.881 87.6171C137.972 87.0674 138.492 86.6993 139.04 86.7942C139.588 86.8892 139.955 87.4101 139.861 87.9568C139.861 87.9568 139.783 91.6373 139.665 96.9063C139.642 98.0315 139.597 99.2199 139.539 100.463C139.505 101.231 139.473 102.02 139.401 102.82C139.226 104.728 138.971 106.696 138.75 108.687C138.411 111.695 138.024 114.673 137.938 117.525C137.978 118.08 137.565 118.564 137.011 118.607C136.457 118.65 135.972 118.233 135.932 117.677C135.398 114.774 134.985 111.692 134.83 108.564C134.727 106.501 134.709 104.449 134.824 102.475C134.873 101.652 134.973 100.846 135.08 100.06C135.249 98.797 135.444 97.594 135.668 96.466C136.721 91.1998 137.881 87.6171 137.881 87.6171Z" fill="black"/>
<path id="path2592" fill-rule="evenodd" clip-rule="evenodd" d="M133.645 96.2446C133.797 96.7799 133.487 97.3381 132.953 97.4907C132.42 97.6432 131.863 97.3323 131.711 96.7971C129.84 91.3669 130.345 84.9497 132.279 79.8648C133.212 77.4101 134.52 75.2892 136.004 73.6892C137.35 72.236 138.894 71.2461 140.486 70.7281C142.312 70.1612 144.013 69.9251 145.569 70.0115C150.364 70.2762 153.831 73.1624 155.254 77.1509C156.063 79.4185 156.238 82.0603 155.555 84.7625C154.448 89.151 151.191 93.7841 145.061 97.0014C144.582 97.2834 143.965 97.125 143.68 96.6473C143.399 96.1667 143.557 95.5481 144.036 95.2661C150.091 91.2488 152.43 85.9567 152.115 81.5509C151.862 78.0257 149.695 75.2143 146.186 74.6905C144.877 74.4948 143.399 74.5727 141.769 75.0446C140.257 75.4504 138.868 76.6473 137.651 78.2559C136.503 79.7753 135.502 81.6315 134.755 83.6833C133.332 87.5912 132.715 92.1237 133.645 96.2446Z" fill="black"/>
<path id="path2594" fill-rule="evenodd" clip-rule="evenodd" d="M12.5672 51.7755C12.1253 52.1122 11.4939 52.0287 11.1581 51.5856C10.8195 51.1453 10.9027 50.5121 11.3446 50.1726C11.3446 50.1726 21.5437 41.862 33.743 32.0577C38.5986 28.1556 43.77 24.0143 48.7462 20.0748C54.2762 15.6949 59.5507 11.551 63.8525 8.22731C69.9134 3.53666 74.0286 0.466237 74.0286 0.466237C74.8293 -0.152468 75.9456 -0.155425 76.7492 0.457525C76.7492 0.457525 85.9868 7.64612 96.4011 15.885C110.044 26.6792 125.704 39.2519 125.704 39.2519C126.146 39.5886 126.232 40.2215 125.897 40.6646C125.561 41.1107 124.929 41.1972 124.487 40.8605C124.487 40.8605 108.19 29.128 94.1455 18.8633C85.895 12.8345 78.4308 7.30654 75.429 5.08208C73.7703 6.37992 70.6509 8.80577 66.6333 11.8705C62.3114 15.1655 56.9478 19.1913 51.2916 23.4072C46.2006 27.2 40.8687 31.1252 35.8438 34.8086C23.2255 44.0662 12.5672 51.7755 12.5672 51.7755Z" fill="black"/>
<path id="path2596" fill-rule="evenodd" clip-rule="evenodd" d="M118.791 35.7181C118.946 35.1828 119.503 34.8748 120.036 35.0273C120.57 35.1827 120.877 35.7409 120.725 36.2762C120.725 36.2762 120.691 38.3886 120.453 41.2433C120.401 41.8706 120.323 42.515 120.226 43.1826C120.163 43.6028 120.097 44.0288 119.999 44.4489C119.844 45.1051 119.635 45.7412 119.437 46.3742C119.23 47.039 119.006 47.6576 118.797 48.2734C118.283 49.7986 117.795 51.0389 117.732 51.954C117.801 52.5065 117.411 53.0101 116.863 53.082C116.312 53.154 115.806 52.7625 115.735 52.21C115.347 51.0302 115.141 49.1165 115.192 46.8517C115.215 45.7524 115.304 44.6042 115.514 43.4704C115.597 43.0272 115.729 42.5957 115.861 42.1726C116.07 41.5079 116.294 40.8748 116.547 40.2763C117.686 37.5828 118.791 35.7181 118.791 35.7181Z" fill="black"/>
<path id="path2598" fill-rule="evenodd" clip-rule="evenodd" d="M19.2049 44.9498C19.0471 44.4145 19.3542 43.8532 19.8851 43.6978C20.4188 43.5395 20.9783 43.8475 21.1333 44.3799C21.1333 44.3799 23.7363 51.5455 26.21 66.3743C26.6634 69.088 27.0881 72.0575 27.4755 75.2921C27.7022 77.1913 27.9231 79.1798 28.0867 81.2633C28.4426 85.8216 28.6521 90.8144 28.7354 96.236C28.8387 103.048 28.6521 110.512 28.3164 118.679C28.3193 119.235 27.8687 119.689 27.312 119.689C26.7581 119.689 26.3075 119.24 26.3046 118.682C25.9975 111.968 25.5471 105.753 25.0994 99.977C24.7608 95.5655 24.3906 91.4302 24.0462 87.5569C23.7879 84.6504 23.5324 81.8994 23.3143 79.2922C22.9241 74.6965 22.5797 70.5697 22.2239 66.9007C20.7976 52.21 19.2049 44.9498 19.2049 44.9498Z" fill="black"/>
<path id="path2600" fill-rule="evenodd" clip-rule="evenodd" d="M12.3835 91.2001C12.2572 90.6591 12.593 90.1153 13.1325 89.9886C13.672 89.8592 14.2145 90.1959 14.3408 90.7398C14.3408 90.7398 15.698 94.1154 17.0669 98.8578C17.3711 99.9053 17.6495 101.016 17.9078 102.173C18.0685 102.904 18.2291 103.649 18.3411 104.412C18.6108 106.294 18.7544 108.228 18.8204 110.118C18.9295 113.335 18.7572 116.351 18.4128 118.806C18.3956 119.361 17.9337 119.802 17.3798 119.787C16.8231 119.77 16.3868 119.307 16.4012 118.751C16.2003 116.397 15.5574 113.594 14.9261 110.593C14.5501 108.794 14.137 106.964 13.8098 105.151C13.6778 104.412 13.5888 103.672 13.4941 102.947C13.3478 101.793 13.2215 100.679 13.1182 99.6146C12.6533 94.7686 12.3835 91.2001 12.3835 91.2001Z" fill="black"/>
<path id="path2602" fill-rule="evenodd" clip-rule="evenodd" d="M10.8884 97.1341C11.4222 97.2866 11.7292 97.8449 11.5771 98.3802C11.4222 98.9154 10.8655 99.2261 10.3317 99.0707C6.55511 98.2304 3.27213 93.8536 1.46418 88.8464C0.482727 86.127 -0.0195086 83.2318 0.000579746 80.688C0.0177983 78.2736 0.600342 76.1642 1.56171 74.6448C5.84336 68.498 11.3304 68.4347 15.4456 71.8995C16.9694 73.18 18.3096 74.9902 19.2394 77.1945C20.8609 81.0305 21.3744 86.0291 19.7702 91.2118C19.6354 91.7528 19.0901 92.0836 18.5506 91.9484C18.0139 91.816 17.684 91.2666 17.8161 90.7284C18.8664 85.1313 17.3138 80.1125 14.8086 76.9183C12.1856 73.5773 8.17647 72.7111 5.32967 77.183C4.68971 78.0866 4.3884 79.3901 4.27074 80.8692C4.1043 82.9987 4.32526 85.445 4.90495 87.8018C5.49612 90.2047 6.38574 92.5153 7.62547 94.2851C8.55814 95.6146 9.61712 96.6708 10.8884 97.1341Z" fill="black"/>
<path id="path2604" fill-rule="evenodd" clip-rule="evenodd" d="M21.7044 15.0703C21.1677 15.2084 20.6196 14.8803 20.4847 14.3393C20.347 13.8012 20.6741 13.2515 21.2137 13.1163C21.2137 13.1163 23.5181 11.9739 26.9474 10.9206C27.6936 10.6904 28.4856 10.4946 29.3235 10.3249C29.8487 10.2155 30.3854 10.1119 30.9364 10.0629C32.2909 9.94208 33.6828 9.95359 35.0602 10.0629C37.2958 10.2356 39.382 10.6673 41.233 11.286C41.7811 11.3781 42.1543 11.8961 42.0624 12.4458C41.9735 12.9954 41.4569 13.3665 40.9088 13.2773C39.1324 13.2716 37.2413 13.6544 35.2325 13.9911C33.9698 14.2012 32.7128 14.4833 31.4616 14.6358C30.1156 14.7998 28.8099 14.8399 27.6104 14.8974C24.1609 15.0586 21.7044 15.0703 21.7044 15.0703Z" fill="black"/>
<path id="path2606" fill-rule="evenodd" clip-rule="evenodd" d="M38.3232 12.1332C38.2916 11.5778 38.7164 11.1 39.2703 11.0684C39.8241 11.0338 40.3004 11.4597 40.332 12.0151C40.332 12.0151 41.0151 14.208 41.6148 17.2152C41.7468 17.8857 41.853 18.5848 41.9391 19.31C41.9936 19.7733 42.0481 20.2426 42.0538 20.7146C42.0682 21.9232 41.9678 23.1201 41.8416 24.2482C41.5661 26.7431 41.1327 28.7519 40.8544 29.6641C40.7912 30.2166 40.2919 30.6138 39.738 30.5476C39.187 30.4843 38.791 29.9833 38.857 29.4308C38.7996 28.5387 38.3089 26.6769 37.9244 24.3575C37.7407 23.2553 37.5512 22.087 37.468 20.9014C37.4364 20.4353 37.4508 19.9691 37.4652 19.5087C37.4881 18.7835 37.5283 18.0842 37.5972 17.4108C37.9042 14.3777 38.3232 12.1332 38.3232 12.1332Z" fill="black"/>
<path id="path2608" fill-rule="evenodd" clip-rule="evenodd" d="M26.6203 13.0838C26.494 12.54 26.8327 11.999 27.3722 11.8723C27.9146 11.7457 28.4541 12.0825 28.5804 12.6263C28.5804 12.6263 29.8143 15.5042 31.0397 19.4898C31.3123 20.379 31.5591 21.32 31.7859 22.2984C31.9322 22.9228 32.0728 23.5558 32.1646 24.2004C32.3971 25.8291 32.4946 27.4838 32.5233 29.0694C32.575 32.0852 32.3253 34.7588 31.8661 36.566C31.8001 37.1185 31.3009 37.5155 30.7499 37.4493C30.1989 37.386 29.8028 36.8854 29.8688 36.33C29.8372 34.8681 29.3954 32.9169 28.8903 30.6752C28.6808 29.7486 28.4512 28.8019 28.2359 27.8177C28.0264 26.8681 27.8055 25.9097 27.6362 24.9428C27.5271 24.3184 27.4496 23.6941 27.375 23.0782C27.2602 22.1027 27.1626 21.1559 27.088 20.2494C26.7637 16.1545 26.6203 13.0838 26.6203 13.0838Z" fill="black"/>
<path id="path2610" fill-rule="evenodd" clip-rule="evenodd" d="M80.3736 118.107C80.3966 117.551 80.8644 117.117 81.4183 117.14C81.9721 117.163 82.4054 117.635 82.3825 118.19C82.3968 119.499 83.6739 119.989 85.2522 120.466C88.8509 121.551 94.2259 121.81 97.5778 123.422C99.6526 124.42 100.996 125.942 101.423 128C101.793 129.827 101.004 131.586 99.0816 133.14C97.2851 134.593 94.2662 135.957 90.59 137.111C87.2094 138.173 83.2521 139.093 79.3004 139.983C73.0874 141.378 66.8772 142.636 63.0174 144.452C61.4189 145.206 60.2079 145.925 59.8348 146.93C59.4847 147.882 59.9956 148.918 61.3214 150.227C61.7346 150.599 61.7719 151.235 61.4017 151.652C61.0344 152.066 60.3973 152.104 59.9841 151.732C58.2192 150.305 57.4587 148.904 57.3095 147.655C57.057 145.542 58.6496 143.531 61.6427 141.807C65.5083 139.58 71.8477 137.623 78.2615 135.833C82.0812 134.768 85.9209 133.753 89.2354 132.731C92.3175 131.781 94.9348 130.898 96.4988 129.758C96.8317 129.514 97.1273 129.292 97.3052 129.022C97.3798 128.906 97.4745 128.809 97.4572 128.676C97.3453 127.83 96.7542 127.252 95.9651 126.768C95.3136 126.371 94.5559 126.026 93.7323 125.724C90.3804 124.501 86.1505 123.804 83.5046 122.484C81.4326 121.45 80.19 120.075 80.3736 118.107Z" fill="black"/>
<path id="path2612" fill-rule="evenodd" clip-rule="evenodd" d="M99.647 118.771C99.2022 118.437 99.1104 117.807 99.4404 117.358C99.7733 116.912 100.405 116.82 100.849 117.154C102.213 117.968 103.802 118.78 105.444 119.718C107.005 120.613 108.578 121.586 110.036 122.705C111.287 123.663 112.417 124.74 113.376 125.914C114.079 126.774 114.684 127.698 115.132 128.685C116.237 131.134 116.59 133.925 115.626 136.981C114.745 139.778 112.753 142.832 109.137 146.158C108.761 146.573 108.127 146.601 107.714 146.227C107.303 145.853 107.275 145.214 107.648 144.803C109.22 142.691 110.257 140.771 110.98 139.022C111.887 136.82 112.067 134.935 111.823 133.24C111.66 132.115 111.247 131.105 110.724 130.135C110.165 129.094 109.479 128.101 108.672 127.16C107.657 125.971 106.529 124.843 105.349 123.776C103.335 121.948 101.291 120.282 99.647 118.771Z" fill="black"/>
</g>
</g>
<defs>
<clipPath id="clip0_615_10611">
<rect width="156" height="152" fill="white"/>
</clipPath>
</defs>
</svg>
