<svg width="96" height="96" viewBox="0 0 96 96" fill="none" xmlns="http://www.w3.org/2000/svg">
<path d="M20.5857 56.2926C22.4681 58.175 24.3504 60.0009 26.2328 61.8456C26.9198 62.5138 27.6539 63.135 28.341 63.8126C30.7504 66.2126 33.1504 68.622 35.4563 71.1256L38.581 74.4103C39.9761 75.7824 41.1394 77.3716 42.0257 79.1161C42.2704 79.7091 42.0257 79.6997 41.5551 79.3891C40.8343 78.927 40.1542 78.4044 39.5222 77.8267C39.1928 77.4879 38.8257 77.1585 38.4869 76.8291L37.9504 76.3491L37.4234 75.8973L35.3716 73.8361C34.0069 72.462 32.6045 71.0973 31.2681 69.6479C29.6775 67.9161 27.8045 66.3161 26.0539 64.6597L20.2939 59.1444C19.1175 57.9961 17.9504 56.8573 16.8022 55.6526C16.5857 55.4267 16.3598 55.2009 16.1528 54.9561C15.9457 54.7114 15.9363 54.7209 15.8328 54.5891C15.7292 54.4573 15.6163 54.3444 15.4751 54.1373C15.1859 53.801 15.0376 53.3661 15.061 52.9232C15.0963 52.7058 15.1595 52.4938 15.2492 52.2926C15.3339 52.0856 15.4469 51.8691 15.5128 51.7467C16.1528 50.5985 16.8775 49.6009 17.5457 48.5561C18.5998 46.9561 19.5598 45.3373 20.5198 43.7373C20.7363 43.3797 20.9151 43.022 21.1504 42.6832C21.4424 42.2318 21.773 41.8067 22.1387 41.4126C22.3641 41.2228 22.6321 41.0904 22.9198 41.0267C23.0305 40.9879 23.1437 40.9564 23.2586 40.9326C23.4186 40.9326 23.5034 41.0738 23.5128 41.422C23.5186 41.8981 23.4223 42.3699 23.2304 42.8056C21.9222 46.0809 19.6069 48.8761 17.941 51.8879C17.7998 52.1609 17.6492 52.4338 17.5269 52.6879L17.4422 52.8761C17.4422 52.9326 17.4422 52.8761 17.4422 52.8761V52.8761L17.6304 53.1114L17.9316 53.4597C18.7598 54.4009 19.7104 55.342 20.6422 56.2832L20.5857 56.2926Z" fill="black"/>
<path d="M49.7246 60.837C49.7246 60.837 51.8987 60.6958 52.2376 59.4629C52.5764 58.2299 52.2376 63.1523 52.2376 63.1523L49.7246 60.837Z" fill="black"/>
<path d="M52.9148 50.6357L47.1736 50.8992L45.0936 51.0498L41.4042 51.2474C40.1712 51.2474 38.9383 51.3321 37.7054 51.4074C36.6136 51.4827 35.5218 51.5768 34.4489 51.671L30.2795 52.038C29.8465 52.038 29.903 52.038 30.2795 51.9816C30.656 51.9251 31.3054 51.7463 32.096 51.6145C34.9195 51.1345 37.743 50.6733 40.5665 50.3627L45.7995 49.8074L51.5689 49.3086L55.1171 49.0451C56.9148 48.9039 58.7124 48.791 60.4912 48.6027C61.8748 48.471 63.2112 48.2263 64.576 48.038C64.8771 48.038 65.1689 47.9439 65.5171 47.9157C66.6371 47.8027 67.0042 47.9157 67.2865 48.3016C67.3561 48.389 67.416 48.4837 67.4654 48.5839C67.6065 48.9133 67.1736 49.2239 66.3548 49.4027C63.8528 49.903 61.3173 50.2176 58.7689 50.3439L52.9148 50.6639V50.6357Z" fill="black"/>
<path d="M35.7103 47.4447L34.4962 45.9106C34.3456 45.7223 34.1762 45.5529 34.035 45.3647C33.555 44.6682 33.0938 43.9623 32.6327 43.247L32.0115 42.3058C31.7322 41.9312 31.513 41.5152 31.3621 41.0729C31.2774 40.7811 31.8421 40.9694 32.1527 41.3553C32.6797 42.0988 33.3103 42.7953 33.8656 43.567C34.2327 44.0102 34.6222 44.4343 35.0327 44.8376L36.3127 46.287L37.1127 47.1717C37.5268 47.6141 37.9315 48.0658 38.3738 48.4706C38.7362 48.7654 39.1131 49.0419 39.5032 49.2988C39.5915 49.3498 39.6764 49.4063 39.7574 49.4682C40.0491 49.7129 40.068 49.8635 39.8515 50.2023C39.8068 50.2842 39.7565 50.3628 39.7009 50.4376C39.538 50.6763 39.2212 50.7534 38.9668 50.6164C38.2156 50.1808 37.5415 49.6244 36.9715 48.9694C36.5291 48.4894 36.1056 48.0282 35.6727 47.4917L35.7103 47.4447Z" fill="black"/>
<path d="M23.3527 56.3475C25.6209 58.9546 27.9738 61.4863 30.3268 64.0181C31.2021 64.9593 32.2091 65.7781 33.0374 66.7193C36.0962 70.0322 39.0891 73.4205 42.0633 76.8557C43.3527 78.3993 44.7174 79.9052 46.035 81.4393L47.315 82.9357C47.6915 83.491 48.0585 84.0275 48.388 84.6299C49.1449 85.8624 49.6175 87.2482 49.7715 88.6863C49.7715 89.8252 49.1409 89.4205 48.388 88.9875C47.3258 88.5278 46.3187 87.95 45.3856 87.2652C44.9527 86.8605 44.4915 86.4652 44.0115 86.0699C43.5731 85.6409 43.1584 85.1885 42.7691 84.7146L40.2468 81.891L38.9762 80.4793L37.7621 78.9828C36.9527 77.9758 36.1527 76.9593 35.3621 75.924C33.2967 73.4911 31.0972 71.1753 28.7738 68.9875C26.3456 66.4463 23.9174 63.8769 21.5268 61.251C20.0397 59.6605 18.5809 58.0134 17.1503 56.2252L16.755 55.6793C16.595 55.4534 16.435 55.1805 16.275 54.9263C15.9847 54.4287 15.796 53.8785 15.7197 53.3075C15.7718 52.718 15.9048 52.1384 16.115 51.5852C16.3786 51.0016 16.5386 50.644 16.7456 50.2581C17.5268 48.7334 18.355 47.3122 19.1174 45.8722C19.7103 44.7428 20.2468 43.6134 20.755 42.4746C21.2633 41.3357 21.6962 40.1687 22.2891 39.1052C22.5527 38.6252 22.7409 38.164 23.0044 37.684C23.3087 37.0555 23.6948 36.47 24.1527 35.9428C24.4905 35.6614 24.8906 35.4646 25.3197 35.3687C25.5174 35.3687 25.7244 35.2369 25.8938 35.2087C26.0633 35.1805 26.3833 35.3781 26.5433 35.8487C26.7442 36.5016 26.7734 37.1953 26.628 37.8628C26.4021 39.0581 26.1197 40.244 25.8091 41.4016C25.6594 41.9771 25.4578 42.5379 25.2068 43.0769C24.9809 43.6228 24.7362 44.1593 24.4915 44.6957C23.5033 46.8416 22.4021 48.9405 21.4515 50.9828L20.915 52.0652C20.8291 52.2361 20.7536 52.4121 20.6891 52.5922L20.6044 52.7993V52.7993C20.5899 52.7909 20.5719 52.7909 20.5574 52.7993C20.4633 52.6863 20.7927 53.1193 20.9903 53.3828L21.7433 54.324C22.2797 54.9546 22.8444 55.5852 23.4186 56.2063L23.3527 56.3475Z" fill="black"/>
<path d="M71.0982 30.7207C72.0712 33.1675 73.2291 35.5367 74.5618 37.8078C75.9077 40.1231 77.3853 42.3631 79.0135 44.6878L80.67 47.0689L80.9524 47.8125L81.0841 48.1889L81.1594 48.3678V48.4619V48.4619H81.0088V48.4619C81.0508 48.7143 81.0508 48.9719 81.0088 49.2242C80.9373 49.4888 80.8363 49.7446 80.7077 49.9866C80.4217 50.4993 80.1075 50.9958 79.7665 51.4737L79.3335 52.076L79.0229 52.4901C74.5524 58.1937 70.0065 63.6807 65.7241 69.4313C63.8418 71.9819 61.9594 74.5889 60.2747 77.196C59.1641 78.8713 58.1194 80.5937 57.0841 82.2972C56.0488 84.0007 54.8441 85.6195 53.9029 87.3325C53.3382 88.3866 52.9618 88.1513 52.7359 86.909C52.5504 84.9451 52.8309 82.9652 53.5547 81.1301C55.4645 77.3746 57.605 73.741 59.9641 70.2501C62.3924 66.8337 64.9524 63.5301 67.6441 60.3019C69.2441 58.4195 70.7877 56.3395 72.2935 54.2689L76.1241 48.9419C76.1241 48.8666 76.2747 48.7725 76.2182 48.6878L76.0677 48.4525C76.0677 48.3584 75.9547 48.2642 75.8888 48.1607L75.7006 47.8784L75.4277 47.4925L74.3359 45.9489C73.6206 44.9325 72.8677 43.8972 72.1618 42.796C70.7118 40.6365 69.3918 38.3925 68.2088 36.076C67.7853 35.2478 67.39 34.4007 67.0135 33.5442C66.8159 33.1207 66.6465 32.6878 66.4677 32.2548L66.27 31.7748L66.1665 31.4548C66.1094 31.2584 66.0305 31.069 65.9312 30.8901C65.7329 30.8491 65.5313 30.827 65.3288 30.8242H65.0182H63.3712C62.0724 30.7584 60.7735 31.0784 59.4653 31.0219L55.55 31.1066L51.6347 31.2572C50.3359 31.2572 49.0371 31.3419 47.7382 31.4078C43.71 31.6242 39.7759 32.2078 35.8041 32.6501C34.9288 32.7442 34.0818 32.9042 33.1971 32.9701C32.3124 33.036 31.7006 33.0548 31.1265 33.0454C30.6297 32.9722 30.1472 32.823 29.6959 32.6031C29.0299 32.2713 28.4645 31.7676 28.0582 31.1442C27.8741 30.9068 27.7044 30.6585 27.55 30.4007C27.3712 29.996 27.6065 29.6101 28.1712 29.1207C28.9466 28.4374 29.8528 27.9187 30.8347 27.596C34.4435 26.8768 38.0878 26.3491 41.7524 26.0148C43.6347 25.8266 45.5171 25.6729 47.3994 25.5537C49.2818 25.4407 51.1641 25.2807 53.0465 25.3089H56.8112H58.6935C59.3224 25.2949 59.9515 25.3264 60.5759 25.4031C61.2159 25.5066 61.8559 25.6384 62.4582 25.7137H64.3971C64.5947 25.7137 65.4135 25.7137 65.9782 25.7607C66.2933 25.7647 66.6077 25.7898 66.9194 25.836H67.3712C67.5084 25.8655 67.6392 25.9197 67.7571 25.996C68.0056 26.0987 68.2277 26.2563 68.4065 26.4572L68.6982 26.7113V26.7113C68.7924 26.5795 68.51 26.9937 68.9053 26.4289V26.4289V26.4289L68.9618 26.5042L69.0841 26.6737L70.0724 27.9725L70.8535 29.7795L71.2018 30.636L71.0982 30.7207Z" fill="black"/>
<path d="M52.3699 51.6904C49.7722 51.8034 47.1652 51.9445 44.5675 52.1516C43.6263 52.2175 42.6852 52.4339 41.744 52.481C38.3746 52.6128 35.0052 52.7634 31.6452 53.0363C30.8922 53.0928 30.1581 53.2057 29.4052 53.2622L27.1746 53.4692C26.2334 53.5634 25.2922 53.6763 24.351 53.7328H23.6263L22.8922 53.6481C22.3934 53.5916 21.904 53.5351 21.3957 53.4316C21.0757 53.3751 20.8969 53.2528 20.944 53.2057C20.991 53.1586 21.1416 53.121 21.3769 52.9704C21.7021 52.7745 22.0163 52.5608 22.3181 52.3304L22.9487 51.8786C23.0616 51.7845 23.184 51.7281 23.3063 51.6245L23.6828 51.5022C25.5652 50.9563 27.4475 50.3822 29.3299 49.921C31.2122 49.6386 33.1981 49.4222 35.1746 49.3186C37.5275 49.2151 39.8804 48.6222 42.3181 48.3775C44.9534 48.1139 47.5981 47.9069 50.2428 47.7281L55.1463 47.4175C57.6122 47.2575 60.1063 47.201 62.5628 47.0316C63.504 46.9657 64.4452 46.8528 65.3863 46.7398L66.8169 46.5704C67.0522 46.5704 67.2969 46.5045 67.5322 46.4951H68.2569C68.6899 46.4951 69.104 46.4951 69.5369 46.4951C71.1275 46.6834 71.6263 47.0504 71.8522 47.9822C71.9178 48.1756 71.9681 48.3738 72.0028 48.5751C72.0781 49.1681 71.3816 49.7892 70.2899 50.0057C69.471 50.2034 68.6522 50.401 67.8146 50.6175C66.9886 50.7791 66.1518 50.8798 65.311 50.9186C63.6263 51.0504 61.8946 51.1634 60.1628 51.2575C57.584 51.4175 54.9675 51.5304 52.3604 51.7375L52.3699 51.6904Z" fill="black"/>
<path d="M53.0186 41.1385C52.0774 42.0797 51.1363 43.0208 50.1951 43.962L47.268 46.8138C46.5527 47.5103 45.9316 48.2914 45.1786 48.9785L44.1339 49.9197C43.6047 50.4039 43.0348 50.8416 42.4304 51.2279C42.1252 51.3686 41.8108 51.4881 41.4892 51.5855C41.1744 51.6159 40.8569 51.5969 40.548 51.5291C39.8869 51.3314 39.2853 50.9724 38.7974 50.4844C38.5245 50.2585 38.2704 50.0138 38.0163 49.7691L37.4986 49.2044C37.188 48.875 36.8963 48.5267 36.6139 48.1879L34.948 46.1455C34.0068 44.9503 32.9339 43.8114 31.8892 42.7197C31.1752 42.0606 30.5143 41.3463 29.9127 40.5832C29.3292 39.8114 28.7739 39.002 28.1716 38.2303C27.8045 37.7503 27.9739 37.6279 28.6139 37.6655C29.6218 37.7329 30.6082 37.9882 31.5221 38.4185L32.2186 38.8044C32.455 38.9164 32.6737 39.0622 32.868 39.2373L33.9974 40.2726C34.741 40.9691 35.4657 41.675 36.1621 42.3903C37.5551 43.8208 38.9104 45.2985 40.1339 46.7479C40.2434 46.8531 40.3328 46.9775 40.3974 47.115C40.4545 47.1948 40.5175 47.2703 40.5857 47.3408C40.6541 47.4165 40.742 47.4719 40.8398 47.5008C40.9339 47.5008 41.0092 47.4255 41.0939 47.3691C41.1707 47.3084 41.243 47.2424 41.3104 47.1714L41.7339 46.7197L42.9574 45.402L48.4727 39.4632L50.2421 37.6655L52.1904 35.7832C52.7994 35.1431 53.4928 34.5889 54.2516 34.1361C54.6049 33.9723 54.9837 33.8704 55.3716 33.835C55.7384 33.9726 56.0766 34.1768 56.3692 34.4373C57.0385 35.0215 57.6673 35.6504 58.2516 36.3197L59.5504 37.722C60.8963 39.1432 62.3739 40.3761 63.8233 41.7032C64.1433 41.995 64.4821 42.2491 64.7645 42.5597C64.9057 42.7008 65.028 42.842 65.141 42.9644C65.2539 43.0867 65.301 43.2467 65.3668 43.3691C65.4779 43.5947 65.5541 43.8359 65.5927 44.0844C65.6208 44.2993 65.6015 44.5177 65.5363 44.7244C65.4416 44.9683 65.3217 45.2017 65.1786 45.4208C65.0468 45.6373 64.9527 45.8538 64.8304 46.0138C64.501 46.4938 63.2868 46.6726 62.2704 46.0138C61.8777 45.8036 61.5112 45.5477 61.1786 45.2514C60.8304 44.9785 60.4916 44.6867 60.1621 44.395C59.4939 43.8114 58.8539 43.1997 58.2233 42.5691C57.5927 41.9385 56.9716 41.2891 56.341 40.6867L55.3998 39.6985L55.0327 39.2938V39.2938C55.0327 39.2938 55.0327 39.2938 55.0327 39.2373C55.0327 39.1808 55.0327 39.2373 54.9668 39.2373V39.2373L54.8068 39.4161L54.468 39.7644L53.1033 41.2138L53.0186 41.1385Z" fill="black"/>
<path d="M35.9742 59.8969C36.3883 59.5863 36.8024 59.2945 37.1883 58.9557C37.3295 58.8428 37.4048 58.6733 37.5554 58.5698C38.073 58.1839 38.6283 57.8357 39.1177 57.4404C39.3228 57.2567 39.492 57.0365 39.6166 56.791C39.786 56.4804 39.8424 56.0851 40.2942 55.991C40.5766 55.9251 42.6001 57.7604 42.3836 58.1463C41.9821 58.8133 41.3836 59.3394 40.6707 59.6522C40.2095 59.8498 40.0213 60.2922 39.7295 60.5933C39.4377 60.8945 38.986 61.2616 38.6189 61.591C38.2518 61.9204 38.1577 61.9957 37.9413 62.2122C37.6122 62.5101 37.2981 62.8243 37.0001 63.1533C36.793 63.4263 36.7177 63.8028 36.4918 64.0945C36.4623 64.1639 36.4209 64.2276 36.3695 64.2828C36.153 64.4804 35.9554 64.4428 35.4942 64.1698L35.1742 63.9816C34.8737 63.8087 34.6639 63.5129 34.6001 63.1722C34.5435 62.76 34.5435 62.342 34.6001 61.9298C34.6991 61.6033 34.8315 61.2879 34.9954 60.9886C35.193 60.4992 35.6542 60.2263 36.0024 59.8686L35.9742 59.8969Z" fill="black"/>
<path d="M55.3897 63.3232C55.3495 63.5884 55.2601 63.8438 55.1262 64.0762L54.825 64.7068L54.2038 66.0056C54.0438 66.1656 53.9497 66.4385 53.7615 66.5985C53.7253 66.5868 53.6906 66.571 53.658 66.5515C52.1239 65.6558 50.6967 64.5886 49.4038 63.3703L48.5474 62.5609L48.1144 62.175L47.7756 61.6574C47.4838 61.2527 47.0886 60.9891 46.9474 60.7915C46.7427 60.5628 46.5887 60.2933 46.4956 60.0009C46.4391 59.7938 46.8344 59.3797 47.3521 59.0597C47.8697 58.7397 48.5662 58.4197 48.8956 58.5797L49.3097 58.7868H49.3662C49.3662 58.7868 49.3662 58.7868 49.3662 58.8715C49.4066 59.1383 49.4925 59.3962 49.6203 59.6338C49.6961 59.8092 49.8084 59.9664 49.9497 60.095C50.0533 60.1891 50.1097 60.1703 50.2415 60.3021C50.2718 60.3176 50.3002 60.3365 50.3262 60.3585C50.4015 60.3585 50.5144 60.5279 50.5897 60.5374C50.6418 60.5184 50.6897 60.4897 50.7309 60.4527C50.8188 60.374 50.8894 60.2778 50.938 60.1703C51.0205 59.9889 51.0714 59.7947 51.0886 59.5962C51.18 59.1649 51.18 58.7192 51.0886 58.2879C51.0081 57.9922 50.8844 57.7099 50.7215 57.4503C50.5897 57.1679 50.4391 56.8856 50.3262 56.5844C50.2697 56.4527 50.1756 56.3209 50.2038 56.1797C50.2603 55.6244 50.5991 55.3515 51.578 55.2385C51.7961 55.2057 52.0162 55.1869 52.2368 55.1821C52.8474 55.1489 53.4564 55.272 54.0062 55.5397L54.4486 55.8221C54.5611 55.9166 54.6622 56.024 54.7497 56.1421C54.9214 56.3646 55.0696 56.6043 55.1921 56.8574C55.2778 57.1123 55.3439 57.3735 55.3897 57.6385V57.8362L55.4462 58.2315L55.5403 59.0127C55.6828 60.4649 55.6828 61.9275 55.5403 63.3797L55.3897 63.3232Z" fill="black"/>
<path d="M33.6491 20.4429C33.9408 20.4429 33.7244 20.8099 33.2349 21.4593C32.9905 21.75 32.7052 22.0036 32.3879 22.2123C32.1766 22.2787 31.9589 22.3228 31.7385 22.344C31.2285 22.1154 30.732 21.8577 30.2514 21.5723C29.9288 21.3937 29.6468 21.1502 29.4232 20.857C28.9526 20.2923 28.482 19.7464 28.0114 19.1817C27.9127 19.0466 27.8422 18.8929 27.8044 18.7299C27.6713 18.1774 27.3879 17.6724 26.9855 17.2711C26.9291 17.1958 26.8914 17.1017 26.7408 17.1017C26.5902 17.1017 25.6773 15.7934 25.6679 15.5676C25.5948 15.0118 25.5508 14.4526 25.5361 13.8923C25.5361 13.817 25.4702 13.7605 25.5361 13.6382C25.6719 13.4819 25.7015 13.2598 25.6114 13.0734C25.557 12.8486 25.5317 12.6177 25.5361 12.3864C25.5741 12.2325 25.6378 12.0862 25.7244 11.9534C25.7902 11.8311 26.1667 11.737 26.2138 11.7464C26.2608 11.7558 26.5055 11.6429 26.6561 11.577L26.8067 11.5205C27.0439 11.5934 27.2739 11.6879 27.4938 11.8029C27.7439 11.9002 27.9889 12.0101 28.2279 12.1323C28.2279 12.1323 28.5385 12.4146 28.9055 12.6876C29.2726 12.9605 29.5361 13.3087 29.6208 13.3558C29.7055 13.4029 29.6961 13.544 29.7055 13.6476C29.7149 13.7511 30.7126 14.5887 30.7408 14.5887C30.8632 14.824 31.1267 14.9746 31.0232 15.3699C31.0232 15.4546 31.0232 15.4829 31.0796 15.5299C31.3625 15.9033 31.5966 16.3114 31.7761 16.744C31.9012 16.9468 32.0428 17.1388 32.1996 17.3182C32.1996 17.3182 32.1996 17.4123 32.1996 17.4593C32.1996 17.5064 32.1996 17.5911 32.2467 17.6287C32.5439 18.1064 32.891 18.5513 33.282 18.9558C33.3949 19.0311 33.4985 19.7464 33.6302 19.8217C33.762 19.897 33.5361 20.4429 33.6491 20.4429Z" fill="black"/>
<path d="M60.6419 17.6098C60.7266 17.9016 60.2843 17.8639 59.5313 17.6098C59.1928 17.4665 58.876 17.2764 58.5902 17.0451C58.4658 16.8691 58.3556 16.6834 58.2607 16.4898C58.2607 16.3957 58.3831 15.2569 58.4019 14.8522C58.4182 14.4807 58.5078 14.116 58.6654 13.7792C58.9666 13.1016 59.2302 12.4051 59.5219 11.7275C59.5871 11.5694 59.6868 11.4279 59.8137 11.3133C60.2392 10.915 60.54 10.4017 60.6796 9.8357C60.6796 9.74158 60.7737 9.66628 60.6796 9.52511C60.7497 8.88413 60.9759 8.27013 61.3384 7.73687L62.5525 6.6357C62.609 6.58864 62.5525 6.49452 62.769 6.50393C62.9745 6.5486 63.1831 6.44234 63.2678 6.24981C63.4005 6.06201 63.5626 5.89676 63.7478 5.7604C63.9087 5.69136 64.0811 5.65305 64.256 5.64746C64.4846 5.69022 64.6984 5.79065 64.8772 5.93923C64.9807 6.09923 65.2254 6.12746 65.4231 6.21217L65.6207 6.30628C65.821 6.8485 65.9476 7.41512 65.9972 7.99099C65.9972 7.99099 65.8937 8.45217 65.7902 8.93217C65.6866 9.41217 65.5266 9.87334 65.5266 9.9957C65.5266 10.118 65.3854 10.1651 65.3007 10.2404C65.216 10.3157 64.9054 11.7086 64.8772 11.7557C64.7078 12.0098 64.6984 12.3298 64.2937 12.471C64.209 12.471 64.1996 12.5651 64.1807 12.6216C63.9668 13.0937 63.6983 13.539 63.3807 13.9486C63.2515 14.1804 63.1352 14.4192 63.0325 14.6639C63.0325 14.711 62.9478 14.7298 62.9102 14.7675C62.8725 14.8051 62.7972 14.8428 62.7784 14.8992C62.4609 15.446 62.184 16.0153 61.9502 16.6028C61.9502 16.7533 61.2725 17.2051 61.2349 17.3839C61.1972 17.5628 60.6043 17.5439 60.6419 17.6098Z" fill="black"/>
<path d="M51.0326 42.1848L48.9997 44.2177C48.755 44.4718 48.5479 44.7636 48.3032 45.0083C47.4279 45.893 46.5338 46.7683 45.6867 47.6718C45.3103 48.0765 44.962 48.5095 44.6232 48.9424C44.2175 49.5714 43.6735 50.0993 43.0326 50.4859C42.7785 50.6177 42.6938 50.3259 42.6279 49.9683C42.4925 49.6008 42.4925 49.197 42.6279 48.8295C42.974 48.2173 43.3875 47.6459 43.8609 47.1259C44.3411 46.5696 44.8501 46.0387 45.3856 45.5353C45.984 44.8884 46.5434 44.2064 47.0609 43.493C47.682 42.74 48.322 42.0059 48.9432 41.2812L50.1762 39.9636C50.7973 39.2953 51.4467 38.6459 52.0585 37.9589C52.5197 37.4224 52.8962 36.82 53.3856 36.2459C53.4985 36.1236 53.5926 35.9824 53.7056 35.8695C53.8758 35.7089 54.1048 35.626 54.3383 35.6402C54.5719 35.6545 54.7891 35.7647 54.9385 35.9448L55.1644 36.1706C55.2643 36.3106 55.317 36.4787 55.315 36.6506C55.3306 36.8552 55.3017 37.0607 55.2303 37.253C55.1335 37.5342 54.9868 37.7956 54.7973 38.0248C54.6185 38.2412 54.4397 38.5048 54.242 38.7306C53.8562 39.1824 53.4326 39.6718 52.9997 40.1236L51.0515 42.2224L51.0326 42.1848Z" fill="black"/>
</svg>
