<svg width="96" height="96" viewBox="0 0 96 96" fill="none" xmlns="http://www.w3.org/2000/svg">
<path d="M50.4 48.8285L47.1059 36.8096L46.7012 35.3979L46.6447 35.1532L46.5035 34.5414L46.4094 34.2026C46.4094 34.0991 46.3059 33.9014 46.2682 34.0614L45.9765 34.5791C45.8635 34.7767 45.807 34.8708 45.6 35.2849L45.2988 35.8967L44.7529 37.0355L43.6706 39.3508L42.56 41.6567L41.9953 42.8143L41.1765 44.4143L40.32 46.1179L39.3788 47.7179L39.1529 48.1132L38.9176 48.4049L38.4376 48.9791C38.1587 49.3257 37.8431 49.6413 37.4965 49.9202C37.2624 50.0869 37.0135 50.2319 36.7529 50.3532L36.3859 50.4567C36.3138 50.4613 36.2415 50.4613 36.1694 50.4567H36.0847C36.0847 50.5226 36.1318 49.892 36.0847 50.1555V50.1555H35.9718C35.7459 50.052 35.567 49.9391 35.3506 49.8167C35.1002 49.7065 34.871 49.5536 34.6729 49.3649C34.1294 48.6301 33.736 47.7954 33.5153 46.9085C33.1859 45.8732 32.8941 44.8002 32.5741 43.7367L31.9153 41.2802L31.4259 39.3979L30.4847 35.5767L28.6023 27.9532L27.9059 25.3179C27.7513 24.7066 27.566 24.1034 27.3506 23.5108C27.3506 23.4355 27.2847 23.3602 27.2376 23.2849C27.1906 23.2096 27.1153 23.2849 27.087 23.3696L26.8612 23.7649C26.7294 24.0379 26.5882 24.3202 26.4565 24.612C26.3247 24.9038 26.2023 25.1955 26.08 25.4967L25.6282 26.6449C24.687 29.1014 23.7459 31.5767 22.8047 34.0426C21.9325 36.314 21.0823 38.5979 20.2541 40.8943C19.8306 42.0426 19.3976 43.1814 18.9459 44.3296L18.24 46.0426C17.9294 46.6355 17.7882 47.0591 17.2235 48.0096L16.9035 48.4238V48.4238V48.4238L16.7906 48.3767V48.3767H16.7435H16.64L16.4235 48.4708C16.2643 48.542 16.0967 48.5926 15.9247 48.6214C15.727 48.6214 15.5388 48.6214 15.3506 48.6214L13.7223 48.4708L10.8988 48.1508C9.09175 47.9061 9.01646 47.6238 10.2118 47.2849C10.7859 47.1155 11.6612 46.9179 12.7529 46.6826L14.5506 46.3155C14.9741 46.2496 14.9741 46.212 15.0212 46.1649C15.0511 46.1226 15.0511 46.0661 15.0212 46.0238V45.9673C15.0212 45.9673 15.0212 45.9673 15.0212 45.7791L15.2 45.0355C15.3357 44.5065 15.4991 43.985 15.6894 43.4732L18.9647 33.6661C19.52 32.0191 20.0753 30.372 20.6588 28.7343L21.6 26.2779L22.08 25.0543C22.1741 24.8191 22.5318 23.7743 22.8612 23.0496L23.8023 20.7061C24.1412 19.972 24.5176 19.3602 24.8659 18.692C25.0447 18.3814 25.2235 17.9955 25.4023 17.7508L25.9482 17.4308L26.4847 17.1108C26.5543 17.0544 26.6399 17.0214 26.7294 17.0167H26.9459L27.3976 16.9414C27.593 16.948 27.7864 16.9829 27.9718 17.0449C28.3147 17.1879 28.6324 17.3849 28.9129 17.6285C29.5812 18.1273 30.1741 19.5108 30.6729 21.0261C30.9176 21.7791 31.1623 22.5414 31.3976 23.3132L31.7459 24.4708L31.9247 25.0449L32.0094 25.3743L32.6965 27.9155L33.9953 32.9885C34.6823 35.7179 35.3694 38.532 36.1129 41.2426C36.2259 41.6755 36.3482 42.1838 36.48 42.5791C36.5439 42.8024 36.6193 43.0223 36.7059 43.2379C36.7059 43.4261 36.8753 43.2379 36.9223 43.1532L37.1012 42.852C37.327 42.4661 37.5247 42.0708 37.7318 41.6755L39.2847 38.5508L41.3082 34.4002L44.2823 28.1791L45.1482 27.1249L45.5718 26.6167L45.9106 26.4002L46.5882 25.9391C46.5882 25.8826 46.7953 25.9391 46.8423 25.9391C46.9085 25.9743 46.9715 26.0152 47.0306 26.0614C47.1553 26.1478 47.2719 26.2455 47.3788 26.3532C47.9854 26.9108 48.4666 27.5909 48.7906 28.3485C49.2235 29.3555 49.6 30.5979 49.967 31.7743C50.8235 34.5979 51.1059 35.6143 51.567 37.2143L52.8753 41.7414C54.4376 47.3038 55.9435 52.8849 57.5812 58.3908L58.2023 60.5649L58.5788 61.7979C58.7379 62.2186 58.9266 62.6274 59.1435 63.0214C59.1435 63.0214 59.1435 63.1249 59.247 63.1438C59.2917 63.1178 59.3328 63.0861 59.3694 63.0496C59.4494 62.9759 59.5249 62.8973 59.5953 62.8143C59.7365 62.6638 59.8682 62.4943 60 62.3249L60.6965 61.4308L61.5906 60.1979L63.9153 56.8002C64.8565 55.4638 65.7976 54.1367 66.6729 52.8002C67.1392 52.0491 67.7096 51.3678 68.367 50.7767C68.6106 50.5578 68.8719 50.3594 69.1482 50.1838L69.3365 50.0614C69.3929 50.0049 69.5341 50.0614 69.6 50.0614C69.7466 50.1423 69.8852 50.2368 70.0141 50.3438C70.7394 51.0121 71.3193 51.8226 71.7176 52.7249C71.9718 53.252 72.2165 53.8073 72.4612 54.3532L73.1106 55.8967L75.0588 60.5649C76.32 63.6614 77.5812 66.7391 78.8235 69.8261C79.3694 71.1908 79.9435 72.5085 80.48 73.892C80.6306 74.2685 80.7623 74.6261 80.8847 74.9367C80.9073 75.0201 80.9356 75.1019 80.9694 75.1814C81.035 75.2261 81.1084 75.2581 81.1859 75.2755L81.5906 75.3696C81.5906 75.3696 82.0612 75.4543 82.3435 75.5108C82.6259 75.5673 82.9176 75.6238 83.1718 75.6896C83.9661 75.8473 84.7192 76.1677 85.3835 76.6308C85.6675 76.8039 85.9353 77.0024 86.1835 77.2238C86.447 77.5532 86.0423 77.8638 85.0541 78.2308C84.4377 78.4488 83.8092 78.631 83.1718 78.7767C82.7765 78.8614 82.3435 78.9367 81.8635 79.0026C81.6941 79.0026 81.1953 79.0779 80.8188 79.0779C80.3989 79.1055 79.9776 79.1055 79.5576 79.0779C79.063 79.0133 78.5879 78.8432 78.1647 78.5791C77.9554 78.4359 77.7789 78.2498 77.647 78.0332C77.4863 77.8271 77.3505 77.6028 77.2423 77.3649C76.6118 75.9061 75.9718 74.4379 75.36 72.9508C74.8047 71.6238 74.2494 70.2967 73.6941 68.9508L70.4376 60.8191L69.6094 58.7861L69.167 57.7414L68.9506 57.2426V57.1861C68.9506 57.1861 68.9035 57.1861 68.8941 57.1861V57.2332L68.2635 58.1743L66.9835 60.0567L64.7906 63.1061L63.9435 64.3296L62.9082 65.7602L61.76 67.1532C61.3929 67.5861 61.007 67.8967 60.64 68.2826C60.4083 68.4491 60.1507 68.5763 59.8776 68.6591L59.5106 68.8191C59.3978 68.8278 59.2845 68.8278 59.1718 68.8191C58.9534 68.8518 58.7313 68.8518 58.5129 68.8191C58.3864 68.8081 58.2607 68.7892 58.1365 68.7626L57.8165 68.6685C57.3529 68.5087 56.9359 68.2372 56.6023 67.8779C56.1272 67.3483 55.7596 66.7313 55.52 66.0614C55.2094 65.2991 54.927 64.4896 54.6635 63.6708L53.9482 61.5061L53.1859 58.9743L50.2965 48.8661L50.4 48.8285Z" fill="black"/>
</svg>
