<svg width="96" height="96" viewBox="0 0 96 96" fill="none" xmlns="http://www.w3.org/2000/svg">
<path d="M69.1414 18.4304C67.9085 19.2021 64.8779 21.188 61.085 23.9457C59.2026 25.3198 57.0944 26.8821 54.9297 28.5574C52.765 30.2327 50.4308 31.8609 48.1908 33.5927C43.692 37.0468 39.372 40.6327 36.1155 43.588C32.8591 46.5433 30.6567 48.8304 30.0167 49.5551L29.0191 50.6751L28.3791 51.428C28.332 51.4845 28.2097 51.6351 28.2285 51.5974C28.1766 51.6196 28.1382 51.6649 28.125 51.7198C28.125 51.7951 28.2097 51.7951 28.2755 51.7762C28.1438 51.8421 28.7932 51.5692 29.0379 51.4656L29.9791 51.0327C30.0826 50.9762 31.3814 50.4115 33.3391 49.4798C35.2967 48.548 37.9226 47.2868 40.6238 45.8751C46.0073 43.0515 51.9179 40.1245 53.8567 39.2868C54.1014 39.1833 55.0991 38.7127 56.7273 38.0257C57.5273 37.6774 58.5061 37.2821 59.6167 36.8492L61.3955 36.1904L62.3367 35.8704C62.6944 35.7574 62.9202 35.6539 63.6073 35.4657C64.771 35.1041 65.9561 34.8149 67.1555 34.5998C67.7391 34.5151 68.3885 34.3457 68.9344 34.3268L70.6002 34.2515C71.1273 34.2515 71.5979 34.3362 72.0967 34.3833C72.5955 34.4304 73.0379 34.5809 73.4802 34.6657C73.6929 34.7048 73.8949 34.7882 74.0732 34.9104L74.6191 35.2115C74.7852 35.3246 74.9397 35.4539 75.0803 35.5974C75.2461 35.7289 75.3947 35.8806 75.5226 36.0492C75.7329 36.4373 75.8059 36.885 75.7297 37.3198C75.6748 37.7181 75.5672 38.1074 75.4097 38.4774C74.985 39.464 74.3819 40.3637 73.6308 41.1315C72.6531 42.1721 71.6194 43.1587 70.5344 44.0868L68.812 45.5551L67.6355 46.4962C61.7532 51.1927 55.7014 55.7668 50.9202 59.5315C46.1391 63.2962 42.6097 66.308 41.452 67.428C40.6238 68.2186 38.8167 69.8092 36.6614 71.908L35.2591 73.2539C34.9391 73.5739 34.6002 73.9221 34.2708 74.308C33.4918 75.106 32.9058 76.0719 32.5579 77.1315C32.4921 77.4132 32.4921 77.7063 32.5579 77.988C32.6197 78.2632 32.8189 78.4873 33.085 78.5809C33.5936 78.7171 34.1292 78.7171 34.6379 78.5809C35.6418 78.2753 36.6178 77.8849 37.5555 77.4139L39.0238 76.7833L40.7744 75.9456L43.3908 74.8351C43.6982 74.6725 44.0607 74.6506 44.3854 74.7751C44.71 74.8995 44.9651 75.1581 45.085 75.4845C45.3334 76.0582 45.1632 76.7274 44.6708 77.1127C43.4567 77.8657 42.2332 78.788 40.9061 79.5127L39.7955 80.1527C39.3155 80.4256 38.8544 80.708 38.3367 80.9715C37.3652 81.5103 36.3627 81.9912 35.3344 82.4115C33.6763 83.1327 31.8659 83.4333 30.0638 83.2868C29.2488 83.2359 28.4769 82.9031 27.8802 82.3456C27.3224 81.6688 27.0282 80.813 27.052 79.9362C27.1142 78.2201 27.6447 76.5536 28.5861 75.1174C29.2527 73.9984 30.0249 72.9458 30.892 71.9739C31.3344 71.428 31.8332 70.8915 32.3697 70.3362L33.5932 69.1033C36.7085 66.0257 40.4167 62.8727 43.9461 59.9645C51.0991 54.1762 57.6026 49.2633 58.0638 48.8209C60.4826 46.8821 62.892 44.9339 65.2544 42.9668C65.9885 42.3551 66.0638 42.2609 66.3461 42.0257L67.0614 41.3386C67.5009 40.9372 67.884 40.4781 68.2002 39.9739C68.2002 39.8609 68.3132 39.6915 68.2002 39.5974C68.0549 39.5431 67.903 39.5083 67.7485 39.4939C67.4355 39.4632 67.1203 39.4632 66.8073 39.4939C66.2478 39.5631 65.6962 39.686 65.1602 39.8609L64.6426 40.0398L63.7014 40.3974C62.7603 40.7174 61.8944 41.1033 60.9908 41.4704C59.1838 42.2327 57.3955 43.0892 55.6073 43.9551C52.0402 45.7245 48.5202 47.6351 45.0097 49.6021C41.7061 51.4092 38.4873 53.3668 35.1461 55.2962C34.3179 55.7668 33.4708 56.2374 32.605 56.6986C32.1532 56.9339 31.805 57.1315 31.1838 57.4327C30.5626 57.7339 30.1391 57.9692 29.2261 58.3739L28.0026 58.8727L26.8073 59.1739L26.2144 59.3151H25.6591C25.3022 59.348 24.943 59.348 24.5861 59.3151C23.1903 59.2126 21.8822 58.5955 20.9155 57.5833C20.2427 56.8145 19.8424 55.8452 19.7767 54.8256C19.7153 53.7778 19.8889 52.7295 20.285 51.7574L20.6332 50.9386C20.765 50.6657 20.9438 50.3927 21.1038 50.1198C21.4372 49.5633 21.8017 49.0259 22.1955 48.5104C22.5626 48.0209 22.9391 47.5692 23.2779 47.1551L24.0214 46.2986C25.985 44.17 28.0751 42.1616 30.2802 40.2845C34.5908 36.5762 39.0614 33.1974 43.6167 29.9315C46.2144 28.0492 48.8371 26.2264 51.485 24.4633C54.205 22.788 56.9438 21.1504 59.7297 19.588C63.0332 17.7621 66.412 16.0774 69.8567 14.4774C71.6317 13.5899 73.5949 13.1443 75.5791 13.1786C76.3508 13.1786 75.0238 14.0257 73.452 15.2209C71.8802 16.4162 69.9791 17.8751 69.1414 18.4304Z" fill="black"/>
</svg>
