<svg width="96" height="96" viewBox="0 0 96 96" fill="none" xmlns="http://www.w3.org/2000/svg">
<path d="M73.2881 70.4103C69.566 74.6053 64.9109 77.8677 59.6975 79.935C57.1613 81.0021 54.5168 81.791 51.8105 82.2879C49.1031 82.7699 46.3499 82.9435 43.6034 82.8056C39.5778 82.6908 35.6068 81.8424 31.8858 80.302C25.3069 77.4579 20.0016 72.2967 16.9775 65.7985C12.7641 56.4762 13.2287 45.7068 18.2293 36.782C19.7575 34.0564 21.7812 31.6401 24.1964 29.6573C24.9617 29.0103 25.763 28.407 26.5964 27.8503C27.4434 27.3044 28.2905 26.8244 29.1564 26.3632C30.8949 25.4434 32.7124 24.6811 34.5869 24.0856C35.5451 23.7868 36.5191 23.5417 37.5046 23.3514C38.5292 23.1966 39.565 23.1274 40.6011 23.1444C41.6881 23.1609 42.7679 23.3256 43.8105 23.6338C44.8948 24.0059 45.8798 24.6208 46.6905 25.4314C47.0761 25.7781 47.3703 26.2145 47.5469 26.702C47.6505 27.0126 47.6222 27.2009 47.4905 27.2856C47.3587 27.3703 46.5493 27.1726 45.5422 27.0691C43.3681 26.8903 40.8364 28.0573 37.3352 29.0738C35.7207 29.5098 34.1463 30.0828 32.6293 30.7867C31.1143 31.4522 29.6754 32.2789 28.3375 33.2526C25.7303 35.1875 23.5833 37.6752 22.0505 40.5373C18.8581 46.6559 18.037 53.7377 19.7446 60.4244C20.252 62.4655 21.0542 64.4217 22.1258 66.2314C23.257 68.0368 24.6209 69.6854 26.1822 71.135C29.3915 74.0411 33.2724 76.1044 37.4764 77.1397C46.6811 79.6432 57.0246 77.0173 64.6199 71.182C69.3499 67.6051 72.7834 62.5822 74.3987 56.8761C76.822 48.0776 75.2118 38.6572 70.0034 31.1632C66.0079 25.619 60.1463 21.7024 53.4952 20.1326L51.3964 19.7373C50.6811 19.5961 49.9469 19.5773 49.2222 19.4738C43.7822 18.862 41.9846 18.6832 40.5446 17.3091C40.2085 17.0389 39.8939 16.7431 39.6034 16.4244C39.2364 15.9161 39.6034 15.3232 40.6858 14.7114C42.3238 13.8885 44.1089 13.399 45.9375 13.2714C53.4191 12.6973 60.8671 14.7473 67.0011 19.0691C73.2893 23.7382 77.856 30.3566 79.9893 37.8926C80.8086 40.6479 81.2921 43.492 81.4293 46.3632C81.4764 47.084 81.4764 47.8071 81.4293 48.5279C81.4293 49.2432 81.4293 49.9679 81.3634 50.6832C81.2567 52.127 81.065 53.5632 80.7893 54.9844C80.516 56.4069 80.1577 57.8118 79.7164 59.1914C79.2511 60.5656 78.7043 61.9107 78.0787 63.2197C76.8394 65.831 75.2568 68.2651 73.3728 70.4573L73.2881 70.4103Z" fill="black"/>
</svg>
