<svg width="96" height="96" viewBox="0 0 96 96" fill="none" xmlns="http://www.w3.org/2000/svg">
<path d="M32.5715 76.9162C30.7417 76.3288 28.9631 75.5922 27.2538 74.7138C25.5742 73.8192 23.9719 72.7867 22.4632 71.6268C20.943 70.5031 19.5285 69.2429 18.2374 67.8621C16.9374 66.4929 15.7596 65.0127 14.7174 63.4385C13.9649 62.2821 13.2768 61.0849 12.6562 59.8526C12.0048 58.6451 11.4539 57.3859 11.0091 56.0879C9.46276 51.4668 9.03062 46.5455 9.74795 41.7256C10.4551 36.9312 12.3727 32.3963 15.3197 28.5491C15.6491 28.135 15.9409 27.6926 16.2609 27.2879L17.3621 26.1397C18.0528 25.3328 18.8083 24.5837 19.6209 23.8997C21.2116 22.5248 22.9255 21.2993 24.7409 20.2385C27.0908 18.8013 29.6691 17.7763 32.3644 17.2079C33.0632 17.0738 33.7711 16.992 34.4821 16.9632C35.2073 16.9195 35.935 16.9415 36.6562 17.0291C37.3844 17.1045 38.0996 17.2754 38.7832 17.5373L39.7903 17.9891C40.1204 18.1337 40.4357 18.3103 40.7315 18.5162C42.2562 19.5515 41.4468 20.1068 39.8844 20.5773C39.5079 20.6715 39.0562 20.8409 38.595 21.0103L37.8891 21.255L37.1268 21.5844C36.1253 21.9566 35.092 22.237 34.0397 22.4221C30.0209 23.1468 25.8232 25.6691 22.5574 28.6809C22.1244 29.0291 21.7574 29.4526 21.3527 29.8385C20.9479 30.2244 20.5338 30.6197 20.1856 31.0526C19.4609 31.8998 18.7913 32.7926 18.1809 33.7256C16.898 35.6381 15.8934 37.7233 15.1974 39.9185C14.9813 40.5897 14.7991 41.2714 14.6515 41.9609C14.5385 42.6573 14.435 43.3726 14.3221 44.0785C14.2091 44.7844 14.3221 45.5185 14.2562 46.2432C14.1903 46.9679 14.3409 47.6926 14.3785 48.4173C14.7107 51.3398 15.4817 54.1954 16.6656 56.8879C19.285 62.9063 24.0103 67.7621 29.955 70.5444C33.6088 72.2735 37.6122 73.1366 41.6538 73.0668C47.8419 72.9751 53.8051 70.7323 58.5197 66.7232C60.3272 65.1884 61.9252 63.4227 63.2727 61.4715C63.9691 60.5303 64.5621 59.495 65.155 58.4973C65.7479 57.4997 66.3032 56.4362 66.8115 55.3726C67.0468 54.9115 67.2727 54.4315 67.4891 53.9797C67.7056 53.5279 67.8938 53.0385 68.1197 52.5585C68.5527 51.6926 68.8727 50.9491 69.1927 50.3562C69.4615 49.8483 69.7765 49.3662 70.1338 48.9162C70.4252 48.5916 70.7688 48.3181 71.1503 48.1068C71.5309 47.9389 71.9285 47.8127 72.3362 47.7303C72.6938 47.6456 73.0421 47.4856 73.2774 47.4479C73.7197 47.4479 73.9456 47.8056 74.2185 48.7279C74.4057 49.2557 74.4826 49.8163 74.4444 50.375C74.4224 51.0831 74.2955 51.7841 74.0679 52.455C73.9079 53.0197 73.7479 53.5844 73.5691 54.1491C73.3903 54.7138 73.1644 55.2691 72.9668 55.8338C72.5809 56.9726 72.0256 58.0644 71.555 59.1844C70.4146 61.3993 69.0624 63.4985 67.5174 65.4526C64.3114 69.5635 60.2234 72.902 55.555 75.2221C51.9968 76.9581 48.1424 78.0055 44.195 78.3091C40.2649 78.5964 36.3155 78.1593 32.5432 77.0197L32.5715 76.9162Z" fill="black"/>
<path d="M78.303 40.5406C77.9964 39.9262 77.5784 39.3741 77.0701 38.9124C76.3571 38.338 75.4098 38.1451 74.5289 38.3947C74.2183 38.4983 73.9077 38.5453 73.5877 38.6394C72.2948 38.9364 71.034 39.3588 69.823 39.9006C68.5267 40.4415 67.2688 41.0704 66.0583 41.783C64.9696 42.4523 63.9229 43.1878 62.9242 43.9853C61.6311 45.0428 60.2192 45.9462 58.7171 46.6771C58.2183 46.8935 57.9171 46.3759 57.8513 45.5853C57.7443 44.6459 57.9817 43.6995 58.5195 42.9218C60.7182 40.1638 63.5321 37.9591 66.736 36.4841L69.7383 34.9971C70.802 34.4448 71.9265 34.0184 73.0889 33.7265C74.5676 33.3464 76.1184 33.3464 77.5971 33.7265C79.0527 34.1568 80.3574 34.9886 81.3619 36.1265C82.4463 37.3622 83.3035 38.7802 83.8936 40.3147C84.6871 42.4475 85.2641 44.6547 85.616 46.903C85.9642 48.5688 86.5571 50.1688 86.8395 51.8253C86.8395 52.1924 86.9619 52.55 86.9713 52.9171C86.9713 54.3006 86.6701 54.7524 85.6066 55.11C85.3726 55.2042 85.1339 55.2859 84.8913 55.3547C84.0117 55.4612 83.1769 54.94 82.8866 54.103C82.5571 53.4159 82.2089 52.7288 81.8983 52.0418C81.5877 51.3547 81.4466 50.6583 81.2489 49.9712C80.8442 48.5877 80.4866 47.2041 80.0819 45.8959C79.7524 44.9547 79.5548 43.9571 79.2442 43.0724C78.9879 42.2384 78.6374 41.4364 78.1995 40.6818L78.303 40.5406Z" fill="black"/>
</svg>
