<svg width="96" height="96" viewBox="0 0 96 96" fill="none" xmlns="http://www.w3.org/2000/svg">
<path d="M40.6836 50.1693C40.6836 50.1693 45.5589 51.6564 46.1989 54.3669C46.8012 56.8987 42.2459 58.0658 42.2459 58.0658C42.2459 58.0658 50.1518 58.9316 50.2554 55.8634C50.3589 52.7952 47.4883 49.7552 45.4177 49.9058C43.3471 50.0564 40.6836 50.1693 40.6836 50.1693Z" fill="black"/>
<path d="M41.5113 51.8639C39.8631 51.5906 38.177 51.6482 36.5513 52.0333C35.013 52.3849 33.5845 53.1089 32.3913 54.1416L32.109 54.4239L31.9866 54.5651C31.9866 54.5651 31.9866 54.6122 31.9866 54.6404C31.9116 54.7692 31.8486 54.9047 31.7984 55.0451C31.6603 55.5208 31.5534 56.0049 31.4784 56.4945C31.1462 58.7856 31.0956 61.1088 31.3278 63.4122C31.5404 65.8805 31.9114 68.3326 32.4384 70.7533C32.9114 72.9168 33.5405 75.0431 34.3207 77.1157C34.8101 78.4333 35.3937 79.7227 35.949 80.9933L36.3631 81.9345L36.6925 82.9886C36.8901 83.6569 37.0972 84.3157 37.3231 84.9651C37.5866 85.7651 37.0407 86.1039 35.9207 85.9063C35.225 85.7513 34.558 85.4877 33.9443 85.1251C33.5678 84.9174 33.2118 84.6748 32.8807 84.4004C32.7019 84.2592 32.5607 84.0992 32.3819 83.958C32.2549 83.7768 32.1386 83.5882 32.0337 83.3933C30.6335 80.6549 29.4777 77.7984 28.5796 74.8569C27.7007 71.903 27.1329 68.8653 26.8854 65.7933C26.7348 63.911 26.509 62.0286 26.396 60.0992C26.3393 59.093 26.3393 58.0843 26.396 57.078C26.4849 55.9637 26.719 54.8658 27.0925 53.8122C27.3517 53.1374 27.7067 52.5034 28.1466 51.9298L28.5325 51.4686L28.8713 51.1486C29.09 50.9356 29.3226 50.7376 29.5678 50.5557C30.4975 49.8251 31.5237 49.2265 32.6172 48.7769C34.6973 47.9478 36.9101 47.5014 39.149 47.4592C41.8696 47.3607 44.5733 47.926 47.0266 49.1063C49.3815 50.1631 51.1177 52.2465 51.7325 54.7533C51.784 55.0329 51.8123 55.3162 51.8172 55.6004C51.8172 55.8827 51.7607 56.1651 51.7419 56.4475C51.7231 56.7298 51.5254 56.9745 51.4031 57.2286L50.9137 57.9157L50.2925 58.4992C50.0731 58.6742 49.8402 58.8315 49.596 58.9698C49.1918 59.2028 48.7701 59.4042 48.3348 59.5722C46.8636 60.0938 45.3277 60.4105 43.7701 60.5133C43.0172 60.6075 42.2831 60.5792 41.5301 60.6075C40.7772 60.6357 40.0337 60.6075 39.2996 60.5039C38.5654 60.4004 38.0101 60.4286 37.4172 60.3063C36.8243 60.1839 36.3254 60.0898 35.9207 59.9769C35.5888 59.8634 35.2726 59.7085 34.9796 59.5157C34.557 59.2509 34.2483 58.8382 34.1137 58.358C34.0336 58.1631 33.9706 57.9616 33.9254 57.7557C33.8501 57.1533 34.9325 56.8145 36.6078 56.8145C39.0314 57.0264 41.4689 57.0264 43.8925 56.8145C44.9646 56.724 46.0192 56.4865 47.0266 56.1086C47.2337 56.0145 47.4031 55.911 47.5913 55.8263C47.7796 55.7416 47.7137 55.7416 47.7231 55.7322V55.7322C47.6384 55.7322 47.7231 55.798 47.7231 55.7322C47.6953 55.6738 47.6639 55.6172 47.629 55.5627C47.5686 55.4589 47.5026 55.3583 47.4313 55.2616C47.2619 55.0733 47.149 54.8475 46.9796 54.6498C46.5988 54.1914 46.1439 53.8 45.6337 53.4922C44.3873 52.6753 42.9769 52.142 41.5019 51.9298L41.5113 51.8639Z" fill="black"/>
<path d="M38.8575 20.4182C38.9704 19.9194 39.0834 19.43 39.2151 18.9311L39.3469 18.4135C39.3826 18.1908 39.4329 17.9707 39.4975 17.7547L39.8834 16.4464C40.1092 15.5617 40.4857 14.7805 40.7681 13.9617L41.3422 12.9358L41.6245 12.4276L41.9351 12.0229C42.5762 11.0514 43.485 10.2865 44.5516 9.82055C45.0561 9.59014 45.5982 9.45303 46.1516 9.41584C46.4696 9.39691 46.7883 9.43516 47.0928 9.52878C47.3593 9.61948 47.615 9.73942 47.8551 9.88643C48.4795 10.3024 49.0166 10.8363 49.4363 11.4582C49.9571 12.2802 50.3268 13.1885 50.5281 14.1405C50.7536 15.1607 50.9077 16.1954 50.9892 17.237C50.9892 17.7735 51.0645 18.31 51.0834 18.8464C51.1022 19.3829 51.0834 19.9853 51.0834 20.2205C51.0834 21.5005 51.0834 22.7711 50.9798 24.0417C50.8481 26.5641 50.6598 29.0676 50.3116 31.5711C50.0575 33.7829 49.794 36.0041 49.5398 38.1594C49.3224 41.0346 48.6058 43.85 47.4222 46.4794C46.9987 47.2982 46.481 46.9688 46.0857 46.0935C45.5114 44.8817 45.2156 43.5568 45.2198 42.2158C45.2669 41.5288 45.2198 40.8323 45.3139 40.1453L45.474 38.0841L45.7375 33.9241C45.8222 32.5405 45.9069 31.1005 45.9822 29.7547C46.0575 28.4088 46.2551 26.9311 46.3869 25.5758C46.5485 23.8862 46.5642 22.1858 46.434 20.4935L46.4245 19.9288V19.5053L46.3116 18.6205C46.2569 18.2332 46.1223 17.8614 45.9163 17.5288C45.8178 17.3697 45.625 17.2964 45.4457 17.35C45.2936 17.4026 45.1575 17.4933 45.0504 17.6135C44.5873 18.1901 44.2419 18.852 44.034 19.5617C43.9798 19.6908 43.9326 19.8228 43.8928 19.957L43.6387 20.7664C43.4787 21.3217 43.3092 21.8676 43.1681 22.4323C42.8575 23.5523 42.6128 24.7005 42.4057 25.8488C41.7447 29.3341 41.3451 32.8639 41.2104 36.4088C41.1859 39.1109 41.3716 41.8108 41.7657 44.4841C41.841 45.0676 41.9728 45.6229 42.0387 46.2064C42.1059 46.9841 42.0584 47.7674 41.8975 48.5311C41.7422 48.9988 41.4624 49.4153 41.0881 49.7358C40.9379 49.8907 40.7775 50.0353 40.6081 50.1688C40.3351 50.3476 40.034 50.2347 39.6669 49.877C39.1069 49.3849 38.6688 48.7695 38.3869 48.0794C37.9074 46.8523 37.5909 45.5676 37.4457 44.2582C37.2575 42.9594 37.1069 41.6323 37.0316 40.3147C36.8873 37.6491 36.9125 34.977 37.1069 32.3147C37.2512 30.3319 37.4677 28.3492 37.7563 26.3664C37.9069 25.3688 38.0763 24.3805 38.2551 23.3923C38.434 22.4041 38.5845 21.397 38.7822 20.3994L38.8575 20.4182Z" fill="black"/>
<path d="M63.0454 25.6511C63.2807 24.8605 63.4878 24.0605 63.6666 23.2793C63.8454 22.4982 64.0525 21.7452 64.1749 21.0017V20.7288V20.5593C64.179 20.5155 64.179 20.4714 64.1749 20.4276C64.185 20.3337 64.185 20.2391 64.1749 20.1452C64.1845 19.9239 64.1289 19.7046 64.0149 19.5146C63.9427 19.3635 63.7685 19.2906 63.6101 19.3452C63.4835 19.4296 63.3639 19.524 63.2525 19.6276C63.1461 19.7117 63.0483 19.8063 62.9607 19.9099C62.8977 19.9699 62.841 20.0361 62.7913 20.1076L62.7349 20.1735L62.6407 20.3429L62.4337 20.6911C61.8972 21.6323 61.4172 22.5735 60.8713 23.5805C59.8172 25.5382 58.8478 27.5805 57.9631 29.6605C57.1819 31.5429 56.589 33.4252 55.949 35.3076C55.5631 36.5217 55.2337 37.7546 54.876 38.9688L54.3301 40.7758C54.1701 41.3593 53.8313 41.9335 53.6525 42.4605C53.5301 42.7805 53.3513 42.8088 53.1066 42.8746C52.8619 42.9405 52.5137 42.8088 52.1654 42.3946C51.7453 41.8829 51.4028 41.312 51.149 40.7005C50.8819 39.9859 50.8009 39.2151 50.9137 38.4605C51.1207 37.0864 51.3843 35.7405 51.6854 34.4135C51.9524 33.0792 52.3302 31.7696 52.8149 30.4982C53.7624 27.9347 54.9012 25.4461 56.2219 23.0535C56.6266 22.3382 57.0125 21.5946 57.389 20.8511L58.6501 18.6111L59.0925 18.0464C59.2619 17.7735 59.4219 17.5005 59.6196 17.2182C59.996 16.6535 60.3913 16.1264 60.7866 15.6182C61.4808 14.7086 62.4075 14.003 63.469 13.5758C64.0317 13.3732 64.6474 13.3732 65.2101 13.5758C65.4831 13.717 65.756 13.8488 66.029 13.9993L66.7631 14.517C67.6515 15.441 68.2559 16.6007 68.5043 17.8582C68.6527 18.5384 68.7284 19.2325 68.7301 19.9288C68.7563 20.2419 68.7563 20.5568 68.7301 20.8699C68.7301 21.124 68.7301 21.3876 68.6737 21.6229C68.5806 22.5755 68.4138 23.5195 68.1749 24.4464C67.5795 26.6599 66.8407 28.8324 65.9631 30.9499C64.6925 34.1311 63.1396 37.1711 61.6713 40.1829C60.5137 42.5264 59.4972 44.8888 58.2831 47.204C58.0101 47.7123 57.7654 48.2299 57.4549 48.7288C57.0968 49.4271 56.5852 50.0353 55.9584 50.5076C55.4993 50.7305 54.9769 50.7871 54.4807 50.6676C54.2611 50.641 54.0439 50.5969 53.8313 50.5358C53.5207 50.4135 53.389 50.1029 53.3607 49.5946C53.3046 48.9705 53.4287 48.3433 53.7184 47.7876L56.6172 41.6323C57.5584 39.524 58.4996 37.3782 59.4407 35.2229C60.8113 32.0728 61.9684 28.8341 62.9043 25.5288L63.0454 25.6511Z" fill="black"/>
<path d="M58.2648 68.87C56.3918 71.2528 54.3303 73.4812 52.1001 75.5335C51.3103 76.3399 50.4609 77.0855 49.5589 77.7641C48.7019 78.393 47.7769 78.9234 46.8013 79.3453C46.2555 79.5814 45.6836 79.752 45.0977 79.8535C44.4022 79.9828 43.6859 79.944 43.0083 79.7406L42.4718 79.5523C42.3118 79.4676 42.1518 79.3641 42.0013 79.27C41.6871 79.0719 41.4074 78.824 41.173 78.5359C40.9415 78.2484 40.7485 77.932 40.5989 77.5947C40.4811 77.2886 40.3867 76.9739 40.3166 76.6535C40.1514 75.5267 40.2778 74.3764 40.6836 73.3123C41.2688 71.6619 42.0796 70.1004 43.093 68.6723C44.2875 66.864 45.818 65.3016 47.6013 64.07C48.166 63.6935 48.4483 64.1547 48.4389 64.9453C48.4078 65.9582 48.0806 66.9398 47.4977 67.7688C47.1777 68.1641 46.9142 68.5876 46.6224 68.9923C46.4718 69.1994 46.3401 69.4065 46.2177 69.6135L45.7848 70.2065C45.2613 70.9822 44.7927 71.7936 44.3824 72.6347C43.976 73.3738 43.684 74.1703 43.5166 74.997C43.4521 75.3064 43.4268 75.6226 43.4413 75.9382C43.4883 76.1453 43.4883 76.3241 43.573 76.4182C43.6577 76.5123 43.6201 76.4841 43.6577 76.5217C43.6813 76.5634 43.7232 76.5913 43.7707 76.597C43.7707 76.597 43.8271 76.6535 43.893 76.6535C43.9554 76.6438 44.0189 76.6438 44.0813 76.6535C44.5136 76.6025 44.9304 76.4614 45.3048 76.2394C46.2971 75.65 47.2165 74.9455 48.0436 74.1406C50.0567 72.2646 51.8674 70.1826 53.446 67.9288C54.4513 66.5339 55.3752 65.0821 56.213 63.5806C56.8342 62.4512 57.4554 61.3123 57.9542 60.1453C58.086 59.8535 58.1895 59.5523 58.3024 59.2606C58.3589 59.1194 58.4154 58.9688 58.4624 58.8182L58.5754 58.47C58.6981 58.1101 58.7802 57.7376 58.8201 57.3594C58.9582 56.8245 58.7236 56.263 58.246 55.9853C57.7754 55.7312 57.173 56.0888 56.8342 56.3523C56.6648 56.4841 56.5236 56.6629 56.4013 56.757C56.3117 56.8376 56.2004 56.89 56.0813 56.9076C56.0813 56.9076 55.8366 56.9076 55.7236 56.9076C55.5859 56.9217 55.4472 56.9217 55.3095 56.9076C55.0466 56.8823 54.7926 56.7987 54.566 56.6629C54.31 56.4733 54.0791 56.2519 53.8789 56.0041C53.693 55.7989 53.529 55.575 53.3895 55.3359C53.2254 54.9206 53.1672 54.471 53.2201 54.0276C53.218 53.769 53.2693 53.5127 53.3707 53.2747C53.4242 53.1508 53.4871 53.0313 53.5589 52.917L53.6718 52.7382L53.7377 52.6441C53.7377 52.5594 53.7377 52.5594 53.7377 52.55V52.55L53.813 52.4747C54.4511 51.9396 55.1205 51.443 55.8177 50.9876C56.4862 50.5588 57.2306 50.2617 58.0107 50.1123C58.3688 50.0581 58.731 50.036 59.093 50.0465H59.6389L60.1566 50.1594C60.8771 50.3389 61.5551 50.6587 62.1518 51.1006L62.9518 52.0417C63.2043 52.349 63.4163 52.6875 63.5824 53.0488C63.7424 53.4159 63.8366 53.8206 63.9777 54.2159C64.1189 54.6112 64.0907 55.0817 64.1471 55.5147C64.2036 55.9476 64.1471 56.4559 64.1001 56.917C64.0385 57.3982 63.9378 57.8735 63.7989 58.3382C63.6991 58.8336 63.5639 59.3211 63.3942 59.797L63.206 60.3617C63.1589 60.5029 63.1118 60.6441 63.0554 60.7759C61.8691 63.6962 60.2855 66.439 58.3495 68.9265L58.2648 68.87Z" fill="black"/>
<path d="M63.0453 72.1268C61.7064 73.8737 60.2505 75.5277 58.6876 77.0774C58.0947 77.6233 57.577 78.2256 56.937 78.7244C55.8069 79.6122 54.6078 80.4084 53.3512 81.1056C52.6973 81.4684 52.0179 81.783 51.3182 82.0468C50.5762 82.3448 49.7915 82.5227 48.9935 82.5739C48.204 82.603 47.421 82.421 46.7253 82.0468C45.9204 81.6639 45.3322 80.9373 45.1253 80.0703C45.0308 79.4983 45.0993 78.9111 45.3229 78.3762C45.5059 77.9294 45.7708 77.5208 46.1041 77.1715C46.641 76.5632 47.2775 76.0507 47.9865 75.6562C48.4288 75.4303 48.6453 75.788 48.6829 76.4186C48.7285 77.1715 48.6262 77.9261 48.3818 78.6397C48.2724 78.8808 48.1903 79.1334 48.137 79.3927C48.137 79.4868 48.137 79.3927 48.137 79.4491V79.4491C48.137 79.4491 48.0806 79.4491 48.2876 79.5621C48.5996 79.7362 48.9647 79.7898 49.3135 79.7127C49.5945 79.6805 49.8699 79.6108 50.1323 79.5056C50.4147 79.355 50.7065 79.2515 50.9982 79.0727C52.4605 78.1198 53.7364 76.9078 54.7629 75.4962C56.0147 73.9809 57.37 72.5127 58.5276 70.8656C59.2495 69.8731 59.9126 68.8392 60.5135 67.7691C61.4524 66.2406 62.1239 64.5633 62.4994 62.8091C62.6123 62.2611 62.5497 61.6914 62.3206 61.1809C62.2935 61.1002 62.2406 61.0307 62.17 60.9833C62.1287 60.9502 62.0701 60.9502 62.0288 60.9833V60.9833V60.9833L62.2359 60.8139V60.8139L62.3488 60.7291C62.4147 60.7291 62.4994 60.5786 62.537 60.5503C62.5766 60.5106 62.6113 60.4664 62.6406 60.4186C62.7347 60.2868 62.6406 60.315 62.6406 60.588C62.6214 60.7726 62.6214 60.9587 62.6406 61.1433C62.6406 61.2656 62.6406 61.388 62.6406 61.5103V61.5762V61.5762L62.4335 61.6233C62.0388 61.7278 61.6236 61.7278 61.2288 61.6233C60.8194 61.4285 60.4735 61.1218 60.2312 60.7386C60.0806 60.5315 59.9206 60.3433 59.7982 60.1456C59.607 59.809 59.5435 59.4147 59.6194 59.035C59.6817 58.5689 59.8892 58.1343 60.2123 57.7927C60.5138 57.4307 60.8656 57.1137 61.257 56.8515C62.0584 56.3297 63.0572 56.2114 63.9582 56.5315C64.5771 56.7096 65.1449 57.0322 65.6147 57.4727C65.7214 57.5668 65.8155 57.6609 65.897 57.755C65.9818 57.8491 66.0382 57.9244 66.1041 58.0091L66.4712 58.5362C66.6749 58.8673 66.8391 59.221 66.9606 59.5903C67.0824 59.8935 67.1708 60.2091 67.2241 60.5315C67.4029 61.5799 67.3837 62.6525 67.1676 63.6939C67.008 64.5417 66.7718 65.3734 66.4618 66.1786C65.5728 68.3133 64.4288 70.3327 63.0547 72.1927L63.0453 72.1268Z" fill="black"/>
</svg>
