<svg width="96" height="96" viewBox="0 0 96 96" fill="none" xmlns="http://www.w3.org/2000/svg">
<path d="M38.3537 59.3907C37.8473 60.5772 37.6404 61.8701 37.7513 63.1554C37.9224 64.5279 38.4018 65.8439 39.1537 67.0048C39.7856 67.9128 40.5111 68.752 41.3184 69.5083C44.2731 72.5198 47.7907 74.9213 51.6713 76.5766C53.4228 77.3456 55.2324 77.975 57.0831 78.4589C58.2595 78.7789 59.4737 78.9578 60.6501 79.2307C61.8266 79.5036 63.0219 79.8707 64.2266 80.1719C64.9795 80.3413 64.9043 80.6425 64.2266 81.1131C63.7724 81.4002 63.2899 81.6399 62.7866 81.8283C62.1152 82.1084 61.4036 82.28 60.6784 82.3366C60.3395 82.3366 59.9913 82.3366 59.6525 82.3366L58.6454 82.2236C57.9772 82.1578 57.3184 82.026 56.6501 81.9225C55.3289 81.68 54.0219 81.3658 52.7348 80.9813C50.1766 80.1187 47.7309 78.9528 45.4501 77.5083C42.749 75.7389 39.756 74.0636 37.4219 71.4472C36.1041 69.9991 35.0526 68.3295 34.316 66.5154C33.5682 64.6141 33.3408 62.5479 33.6572 60.5295L33.8172 59.5883L34.0901 58.7131C34.2564 58.1195 34.4704 57.5403 34.7301 56.9813C35.2819 55.8363 36.0599 54.815 37.0172 53.9789C38.4174 52.7759 40.0862 51.9269 41.8831 51.5036C43.6049 51.0716 45.3915 50.9599 47.1537 51.1742C49.8342 51.4125 52.4395 52.1871 54.8148 53.4519C55.3476 53.7023 55.8578 53.9983 56.3395 54.3366C58.1184 55.6354 58.2219 56.5578 57.949 57.4895C57.8971 57.7039 57.8311 57.9145 57.7513 58.1201C57.5913 58.4119 57.2713 58.5248 56.8101 58.5154C56.2073 58.5108 55.6152 58.3555 55.0878 58.0636C54.6266 57.8283 54.0995 57.6872 53.6666 57.4331C53.2256 57.1914 52.7698 56.9776 52.3019 56.7931C51.8554 56.5806 51.3965 56.3952 50.9278 56.2378C50.4572 56.0966 49.9866 55.8801 49.5443 55.786C47.7529 55.2565 45.868 55.1216 44.0195 55.3907C42.7666 55.572 41.5702 56.0319 40.5184 56.7366C40.396 56.8307 40.2548 56.906 40.1513 57.0001L39.8313 57.2919C39.6243 57.4748 39.4381 57.68 39.276 57.9036C39.1145 58.1114 38.9697 58.3317 38.8431 58.5625C38.7113 58.8166 38.5984 59.1648 38.4666 59.4566L38.3537 59.3907Z" fill="black"/>
<path d="M36.8952 50.9308C37.9549 50.2088 39.1338 49.6799 40.3776 49.3684C41.5686 49.0788 42.7966 48.9709 44.0199 49.0484C46.193 49.2094 48.3226 49.741 50.3164 50.6202C52.1469 51.417 53.9095 52.3613 55.587 53.4437L56.7446 54.1966L57.0082 54.3943L57.5446 54.8272C57.6726 54.9366 57.8078 55.0372 57.9493 55.1284C58.0811 55.2037 58.2223 55.3637 58.3446 55.3072C58.3446 54.959 58.2505 54.6578 58.2223 54.366C58.194 54.0743 58.1376 53.8296 58.0905 53.5096C58.0905 53.5096 57.9023 52.7096 57.7987 52.1355C57.6952 51.5613 57.5446 50.8931 57.4599 50.2531C57.3752 49.6131 57.3187 48.879 57.3187 48.2108C57.3187 47.8531 57.3187 47.4955 57.3187 47.1378C57.3153 46.7721 57.3436 46.4068 57.4035 46.046C57.5686 44.4802 58.1395 42.9847 59.0599 41.7072C59.3046 41.3966 59.5493 41.0672 59.8129 40.766L60.6787 39.9943C60.9693 39.7405 61.2846 39.5167 61.6199 39.326C61.9493 39.1378 62.2599 38.9308 62.5611 38.7519C64.0244 38.0524 65.6569 37.7846 67.267 37.9802C68.7589 38.2031 70.1775 38.7737 71.4082 39.646C72.5375 40.427 73.5378 41.3797 74.3729 42.4696C75.8469 44.2933 76.9846 46.3648 77.7329 48.5872C78.4042 50.7518 78.7872 52.9955 78.8717 55.2602C78.7694 60.8244 77.5466 66.3109 75.2764 71.3919C74.627 72.9449 74.0623 72.5308 73.7423 70.9684C73.3586 68.5748 73.2985 66.1404 73.5635 63.7308C73.8862 61.2341 73.9462 58.7105 73.7423 56.2013C73.6764 55.599 73.6199 55.006 73.5823 54.4131C73.5446 53.8202 73.4599 53.2366 73.3564 52.6625L73.1964 51.806L72.9799 50.9684C72.9223 50.7063 72.8468 50.4484 72.754 50.1966C72.6839 49.9447 72.5926 49.6991 72.4811 49.4625C71.6661 47.4761 70.4035 45.7046 68.7917 44.286C68.1784 43.708 67.4314 43.2908 66.6176 43.0719C65.8758 42.9183 65.1036 43.0282 64.434 43.3825C63.4625 43.807 62.7097 44.6143 62.354 45.6131C61.992 46.8845 61.9436 48.2248 62.2129 49.519C62.3164 50.2625 62.4952 51.0343 62.6835 51.8155L63.6246 55.646C63.7564 56.2955 63.9446 56.9919 64.0387 57.6131C64.1329 58.2343 64.2364 58.846 64.2646 59.3919C64.2706 59.882 64.2518 60.372 64.2082 60.8602C64.1308 61.2116 64.0302 61.5574 63.907 61.8955L63.634 62.366C63.5776 62.4508 63.5776 62.526 63.474 62.6108C63.3795 62.6679 63.2734 62.7033 63.1635 62.7143C62.8259 62.7562 62.4845 62.7562 62.147 62.7143C61.0864 62.5763 60.0753 62.1822 59.2011 61.566C57.9399 60.719 56.6693 59.7402 55.4364 58.9213L54.4952 58.319L53.8458 57.9049L52.7164 57.2084C51.2171 56.311 49.6425 55.5457 48.0105 54.9213C46.5143 54.3168 44.9182 53.9975 43.3046 53.9802C42.4161 53.9869 41.5384 54.1759 40.7258 54.5355C40.3223 54.7109 39.9402 54.932 39.587 55.1943L38.4199 56.1355C36.941 57.4025 35.9302 59.1292 35.5493 61.039C35.0035 63.7872 36.0387 66.8931 37.9682 69.3966C39.96 71.9603 42.4797 74.0659 45.3564 75.5708C49.8364 77.9802 54.8717 78.9213 59.9164 79.4672C61.027 79.5802 62.1282 79.6084 63.2576 79.6931C67.4458 79.9849 68.7917 80.3425 69.7046 81.5755C69.9331 81.8426 70.1378 82.1292 70.3164 82.4319C70.7305 83.3731 68.9517 84.2108 65.667 84.4555C60.5969 84.7591 55.5112 84.2378 50.6082 82.9119C45.2629 81.5434 40.3367 78.8799 36.2646 75.1566C34.6618 73.6443 33.2917 71.9031 32.1987 69.9896C31.008 67.9033 30.3095 65.5727 30.1564 63.1755C30.0515 60.6266 30.7067 58.104 32.0387 55.9284C32.6537 54.9026 33.39 53.9546 34.2317 53.1049L34.834 52.4837L35.4835 51.9378C35.9446 51.5802 36.2929 51.2413 36.8387 50.8649L36.8952 50.9308Z" fill="black"/>
<path d="M41.63 30.6948C41.9594 30.6948 41.8371 31.1183 41.5453 31.9277C41.3874 32.2828 41.1603 32.6028 40.8771 32.8689C40.628 32.9614 40.369 33.0246 40.1053 33.0571C39.3142 32.8015 38.5434 32.4869 37.7994 32.1159C37.3174 31.8914 36.8755 31.5893 36.4912 31.2218C35.7194 30.5348 34.9571 29.9042 34.2229 29.3395C34.0622 29.203 33.9337 29.0326 33.8465 28.8406C33.5225 28.2136 33.004 27.7084 32.3688 27.4006C32.2666 27.3148 32.1251 27.293 32.0018 27.3442C31.3145 27.1679 30.6728 26.847 30.1194 26.403C29.8276 25.8289 29.3665 25.5936 29.0276 24.9724C28.9712 24.8971 28.8771 24.9254 28.8865 24.6901C28.8865 24.163 28.7076 24.1536 28.5571 24.0406C28.3218 23.8898 28.1067 23.7095 27.9171 23.5042C27.8121 23.3071 27.73 23.0987 27.6724 22.883C27.6481 22.5843 27.7067 22.2847 27.8418 22.0171C28.0112 21.8571 27.9829 21.5371 28.0206 21.2736C28.0206 21.1889 28.0206 21.0759 28.0771 21.0101C28.4193 20.7807 28.7935 20.6031 29.1876 20.483C29.6073 20.3026 30.0513 20.1852 30.5053 20.1348L31.0041 20.1818C31.1718 20.1917 31.3385 20.2137 31.5029 20.2477C31.6858 20.2945 31.8651 20.3543 32.0394 20.4265C32.7924 20.6618 33.4982 21.0289 33.6676 21.0759C33.8371 21.123 33.9218 21.3112 34.0159 21.4712C34.11 21.6312 34.5618 21.7818 35.0794 22.0642C35.4287 22.2604 35.768 22.474 36.0959 22.7042C36.4065 23.043 36.8394 23.2406 36.8959 23.843C36.8959 23.9559 36.9806 24.003 37.0465 24.0595C37.5822 24.5765 38.0473 25.162 38.43 25.8006C38.6505 26.0887 38.8894 26.3623 39.1453 26.6195C39.1453 26.6665 39.1453 26.7512 39.2112 26.8171C39.2294 26.9002 39.2612 26.9797 39.3053 27.0524C39.7867 27.7017 40.322 28.3093 40.9053 28.8689C41.0465 28.9724 41.3476 29.8759 41.5265 29.9512C41.7053 30.0265 41.4982 30.7136 41.63 30.6948Z" fill="black"/>
<path d="M34.3257 43.3353C34.6834 43.3353 34.6363 43.8435 34.3257 44.5683C34.1565 44.8864 33.9186 45.1629 33.6293 45.3777C33.3908 45.4393 33.1487 45.4865 32.9045 45.5188C32.7822 45.5188 31.2763 44.9635 30.7493 44.8788C30.2642 44.7714 29.7935 44.6072 29.3469 44.3894C28.4649 44.0084 27.5557 43.6938 26.6269 43.4483C26.4166 43.399 26.2202 43.3024 26.0528 43.1659C25.4461 42.7317 24.7188 42.498 23.9728 42.4977C23.8504 42.4977 23.7281 42.4977 23.5775 42.6012C23.1777 42.7192 22.7576 42.7512 22.3445 42.6953C21.9226 42.6937 21.5045 42.6139 21.1116 42.46C20.5135 42.0908 19.8835 41.7758 19.2293 41.5188C19.1351 41.5188 19.0316 41.5188 18.9563 41.3306C18.7681 40.86 18.5516 40.9259 18.3351 40.8883C18.027 40.8369 17.7286 40.7385 17.4504 40.5965C17.2998 40.5212 17.1587 40.2577 17.0081 40.0506C16.9192 39.7432 16.9192 39.4169 17.0081 39.1094C17.1398 38.893 17.0081 38.573 17.0081 38.2906C17.0081 38.1965 17.0081 38.0741 17.0081 37.9988C17.6234 37.4331 18.334 36.9806 19.1069 36.6624H19.5775C19.8504 36.6624 20.2175 36.6059 20.594 36.5777C21.3469 36.5024 22.1469 36.4835 22.3163 36.4553C22.4857 36.4271 22.6457 36.5494 22.8057 36.6341L24.0387 36.7377C24.641 36.8035 25.2434 36.8883 25.2904 36.8977C25.7328 37.0859 26.2316 37.0953 26.5987 37.613C26.6645 37.7259 26.7587 37.7353 26.8528 37.7635C27.6407 38.0312 28.3857 38.4116 29.0645 38.893C29.4222 39.1283 29.8269 39.2506 30.1845 39.4671C30.2504 39.4671 30.2881 39.5894 30.3445 39.6459C30.4071 39.7243 30.4799 39.7939 30.561 39.853C31.4363 40.3047 32.161 40.9918 33.0081 41.4435C33.2151 41.5565 33.8363 42.4977 34.0434 42.62C34.2504 42.7424 34.1751 43.3259 34.3257 43.3353Z" fill="black"/>
<path d="M60.5282 30.0836C60.8012 30.3 60.5282 30.6671 59.9918 31.1565C59.7378 31.359 59.4304 31.4832 59.1071 31.5141C58.8619 31.4184 58.6282 31.2952 58.4106 31.1471C57.7974 30.3505 57.2794 29.4851 56.8671 28.5683C56.5514 27.9261 56.3446 27.2359 56.2553 26.5259C56.0583 25.1233 55.9921 23.7054 56.0577 22.2906C56.0567 21.9644 56.1308 21.6424 56.2741 21.3494C56.6791 20.399 56.9942 19.4127 57.2153 18.4036C57.2914 18.2328 57.2914 18.0378 57.2153 17.8671C56.9894 17.4906 58.0153 14.9118 58.2977 14.6577C58.9471 13.9894 59.6153 13.3588 60.2741 12.7753C60.3682 12.6906 60.3777 12.54 60.613 12.5494C60.9517 12.5577 61.2751 12.4082 61.4882 12.1447C61.7814 11.8943 62.0964 11.6706 62.4294 11.4765C62.6518 11.3838 62.8864 11.3236 63.1259 11.2977C63.3424 11.2506 63.6906 11.5706 63.7188 11.6459C63.7659 11.8624 64.0388 11.8812 64.2082 11.9753C64.2752 12.0055 64.3384 12.0434 64.3965 12.0883C64.4435 12.0883 64.4718 12.7188 64.5753 13.3777C64.6788 14.0365 64.9047 14.7424 64.8012 14.8083C64.6977 14.8741 64.0106 17.5 63.9635 17.7824C63.9165 18.0647 63.7753 18.0459 63.6435 18.1588C63.5118 18.2718 63.1635 20.3047 63.1447 20.3706C62.9377 20.7565 63.0035 21.2083 62.4765 21.4906C62.3968 21.5428 62.3476 21.6307 62.3447 21.7259C62.297 22.0865 62.1888 22.4365 62.0247 22.7612C61.8553 23.0906 61.7141 23.4294 61.5541 23.7683C61.4354 24.1176 61.3472 24.4766 61.2906 24.8412C61.2906 24.9071 61.2059 24.973 61.1682 25.0388C61.1222 25.1097 61.0932 25.1902 61.0835 25.2741C60.8845 26.1216 60.8241 26.9956 60.9047 27.8624C60.8935 28.1005 60.8588 28.3369 60.8012 28.5683C60.7646 28.8116 60.7646 29.059 60.8012 29.3024C60.7756 29.4452 60.7246 29.5823 60.6506 29.7071C60.5282 29.8765 60.4718 30.0365 60.5282 30.0836Z" fill="black"/>
</svg>
