<svg width="96" height="96" viewBox="0 0 96 96" fill="none" xmlns="http://www.w3.org/2000/svg">
<path d="M49.0161 63.2321C52.4631 62.7908 55.7963 61.7052 58.842 60.0321C61.8546 58.4874 64.4405 56.2247 66.3714 53.4438C67.2036 52.1483 67.7432 50.6869 67.9526 49.1615C68.042 48.4206 68.042 47.6717 67.9526 46.9309C67.8697 46.1825 67.6991 45.4465 67.4444 44.7379C67.0945 43.5628 66.2587 42.5935 65.1479 42.0744C63.8881 41.6379 62.5145 41.6613 61.2702 42.1403C59.048 42.9376 57.0923 44.3392 55.6232 46.1874C54.0155 48.1407 52.7085 50.3232 51.7455 52.6626C51.2983 53.6956 50.924 54.7586 50.6255 55.8438C50.3445 56.9203 50.137 58.0145 50.0044 59.1191C49.7517 61.3491 49.831 63.6042 50.2396 65.8109C50.4279 66.8649 50.744 67.8921 51.1808 68.8697C51.3926 69.3307 51.6347 69.7772 51.9055 70.2062C52.1877 70.6079 52.5025 70.9856 52.8467 71.3356C53.172 71.6844 53.5314 71.9997 53.9196 72.2768C54.3714 72.5215 54.8608 72.8132 55.2749 73.0391C55.6891 73.265 56.2161 73.4721 56.7526 73.6132C57.2663 73.7664 57.7878 73.8921 58.3149 73.9897C62.6349 74.7426 67.4161 73.585 71.6044 71.5521C75.8807 69.566 79.4804 66.3688 81.9573 62.3568C84.2482 58.7804 85.7736 54.7683 86.4373 50.5732C87.1913 46.45 86.7201 42.1962 85.082 38.3379C83.9669 35.9587 82.2428 33.9164 80.0844 32.4179C77.8813 30.9016 75.3935 29.8482 72.7714 29.3215C67.4216 28.2253 61.8698 28.6825 56.7714 30.6391C55.1902 31.2697 54.4938 31.5803 54.4467 31.3638C54.3996 31.1474 55.0302 30.5638 56.3291 29.7356C58.1278 28.624 60.0728 27.7687 62.1079 27.1944C65.0711 26.3428 68.1662 26.046 71.2373 26.3191C74.3287 26.5972 77.3398 27.4561 80.1126 28.8509C82.9815 30.3306 85.4146 32.5334 87.1714 35.2415C88.8468 37.9834 89.8647 41.0758 90.1455 44.2768C90.4245 47.3755 90.2277 50.4987 89.562 53.5379C88.2931 59.6376 85.3389 65.2591 81.0349 69.7638C78.8168 71.9943 76.2398 73.8364 73.4114 75.2132C70.6178 76.6266 67.6145 77.58 64.5173 78.0368C62.6061 78.3404 60.6635 78.3942 58.7385 78.1968C56.7249 77.996 54.7657 77.4248 52.9596 76.5121C52.5079 76.2674 52.0185 76.0321 51.6044 75.7591C51.1902 75.4862 50.6632 75.1191 50.2961 74.7615C49.4995 74.0369 48.7975 73.2147 48.2067 72.3144C47.1201 70.5813 46.349 68.6694 45.9291 66.6674C45.1101 62.8583 45.1101 58.9187 45.9291 55.1097C46.7686 51.3341 48.3699 47.7696 50.6349 44.6344C51.8926 42.9068 53.3991 41.3749 55.1055 40.0885C56.9177 38.718 59.0045 37.7549 61.2232 37.265C62.4187 37.0222 63.6461 36.9777 64.8561 37.1332C66.1474 37.3079 67.3809 37.7782 68.4608 38.5074C69.511 39.2521 70.3875 40.2154 71.0302 41.3309C71.625 42.3468 72.0689 43.4437 72.3479 44.5874C72.8751 46.7995 72.8751 49.1046 72.3479 51.3168C71.8025 53.4585 70.8433 55.4728 69.5244 57.2462C66.9436 60.5677 63.6245 63.2423 59.8302 65.0579C57.5639 66.2012 55.1732 67.0792 52.7055 67.6744C50.1912 68.3247 47.5875 68.56 44.9973 68.3709C42.3917 68.1362 39.8452 67.4582 37.4679 66.3662C35.1117 65.2209 32.9868 63.6512 31.1996 61.7356C28.5054 58.8525 26.6022 55.3218 25.6749 51.4862C24.2737 45.7635 24.9404 39.7296 27.5573 34.4509L28.2538 33.1709L29.0161 31.9379C29.5792 31.116 30.2088 30.3417 30.8985 29.6226C32.2185 28.1416 33.758 26.8719 35.4632 25.8579C35.9589 25.5788 36.4867 25.3607 37.0349 25.2085C37.7167 25.0069 38.4379 24.9778 39.1338 25.1238C39.9159 25.3251 40.6063 25.7864 41.0914 26.4321C41.3035 26.6953 41.4836 26.9828 41.6279 27.2885C41.6844 27.4297 41.7502 27.5615 41.8161 27.7215C41.882 27.8815 41.9291 28.0885 41.9667 28.2768C42.125 29.2228 42.0441 30.1935 41.7314 31.1003C41.4803 31.8536 41.1654 32.584 40.7902 33.2838C40.097 34.6185 39.2708 35.8797 38.3244 37.0485C36.5065 39.5369 34.1138 41.5486 31.3502 42.9121C30.574 43.2533 29.7583 43.4968 28.922 43.6368C28.489 43.7059 28.052 43.7468 27.6138 43.7591C27.1996 43.7591 26.8514 43.7591 26.4655 43.7591C24.91 43.7321 23.3639 43.5108 21.8632 43.1003C18.5538 42.2627 15.7271 40.1156 14.0326 37.1521C12.612 34.5688 12.0113 31.6144 12.3102 28.6815C12.4909 26.4414 13.1317 24.2626 14.1926 22.2815C14.9076 20.9106 15.8641 19.6799 17.0161 18.6485C17.7878 17.9435 18.7028 17.4137 19.6985 17.0956C20.4283 16.9074 21.1919 16.8912 21.9291 17.0485C22.4749 17.1197 23.0057 17.2786 23.5008 17.5191C23.7738 17.7168 23.7549 17.9615 23.5008 18.3003C23.3711 18.4963 23.2264 18.682 23.0679 18.8556C22.8985 19.0909 22.682 19.3168 22.4561 19.6085C22.042 20.2203 21.4679 20.8415 20.8749 21.6697C20.1841 22.6508 19.6033 23.705 19.1432 24.8132C18.3548 26.6611 17.9821 28.6596 18.0514 30.6674C18.0751 32.4474 18.7098 34.1653 19.8491 35.5332C21.076 36.8331 22.7029 37.6847 24.4702 37.9521C24.9713 38.0499 25.4771 38.1221 25.9855 38.1685C26.4938 38.1685 27.0867 38.225 27.5479 38.2438C28.3382 38.2068 29.1088 37.9843 29.7973 37.5944C31.6183 36.5742 33.218 35.2016 34.5032 33.5568C35.1808 32.7291 35.7855 31.8442 36.3102 30.9121C36.5384 30.5146 36.7336 30.0991 36.8938 29.6697C36.9235 29.5896 36.9486 29.5079 36.9691 29.425C36.9958 29.3649 37.0148 29.3017 37.0255 29.2368C37.1385 29.105 36.7432 29.1144 37.6467 29.1238C37.7952 29.1143 37.9429 29.0954 38.0891 29.0674C38.2208 29.0674 38.2679 29.0674 38.3714 29.0203H38.5032H38.5691V29.0203L37.1102 29.5756V29.5756V29.5756V29.5756L37.2044 29.5285C37.3461 29.4662 37.4816 29.3905 37.6091 29.3026L37.7973 29.1615L37.9385 29.0674C38.0278 28.9974 38.1126 28.922 38.1926 28.8415C38.4185 28.6438 38.4561 28.465 38.4091 28.6156C38.3234 28.9999 38.3234 29.3983 38.4091 29.7826C38.4091 29.8956 38.4091 30.1309 38.4938 30.2815V30.2815L38.3808 30.3379C38.2418 30.4055 38.1066 30.4809 37.9761 30.5638C37.5929 30.817 37.2281 31.0969 36.8844 31.4015C36.0668 32.1272 35.3054 32.9137 34.6067 33.7544C34.2927 34.1221 33.9975 34.5053 33.722 34.9026C33.4585 35.3826 33.1385 35.8438 32.9032 36.3332C31.3383 39.207 30.4922 42.4168 30.4373 45.6885C30.3678 48.976 31.1699 52.2232 32.762 55.1003C34.3213 57.9267 36.6914 60.2214 39.5667 61.6885C41.0262 62.4112 42.5828 62.9185 44.1879 63.1944L45.4114 63.3638C45.8067 63.3638 46.1738 63.4391 46.5785 63.4391C47.3993 63.4506 48.22 63.4065 49.0349 63.3074L49.0161 63.2321Z" fill="black"/>
</svg>
