<svg width="96" height="96" viewBox="0 0 96 96" fill="none" xmlns="http://www.w3.org/2000/svg">
<path d="M19.3834 32.9434C18.9483 35.8326 19.1149 38.7805 19.8728 41.6023C20.2402 43.0146 20.7643 44.3815 21.4352 45.6776C22.1256 46.9633 22.9557 48.1691 23.9105 49.2728C25.361 50.8348 27.071 52.134 28.9646 53.1128L30.2352 53.7434C30.6587 53.9505 31.1105 54.0917 31.5528 54.2893C31.9922 54.4714 32.4416 54.6285 32.8987 54.7599C33.3518 54.9158 33.8138 55.0447 34.2822 55.1458C40.1487 56.5003 46.3143 55.2809 51.2234 51.7952C54.1553 49.6945 56.459 46.8343 57.8869 43.5223C58.7789 41.4369 59.2675 39.2014 59.3269 36.934V35.2493C59.2374 34.6884 59.1809 34.1227 59.1575 33.5552C59.0436 32.4016 58.8231 31.261 58.4987 30.1481C58.1222 28.7364 58.4987 28.6893 59.5622 29.6587C59.8258 29.9034 60.1364 30.214 60.5034 30.5999C60.8405 31.0415 61.1547 31.5001 61.4446 31.974C61.8477 32.5254 62.165 33.1347 62.3858 33.7811C62.4893 34.1199 62.5928 34.4776 62.6775 34.8446C62.7411 35.2217 62.7851 35.6018 62.8093 35.9834C63.1368 41.6053 61.2442 47.1311 57.5387 51.3717C55.7509 53.4863 53.619 55.2841 51.2328 56.6893C48.8369 58.0713 46.2192 59.0267 43.4964 59.5128C40.2119 60.1644 36.8389 60.2377 33.5293 59.7293C30.1341 59.2527 26.9048 57.961 24.1175 55.9646C23.3576 55.415 22.6257 54.8276 21.9246 54.2046C21.5858 53.8846 21.2658 53.5458 20.9834 53.2634C20.6478 52.9389 20.3334 52.5931 20.0422 52.2281C18.775 50.812 17.6933 49.2401 16.8234 47.5505C15.1714 44.2549 14.2835 40.6294 14.2258 36.9434C14.1151 32.4236 15.3147 27.9684 17.6799 24.1152C19.5137 21.305 21.8836 18.8839 24.654 16.9905C27.3749 15.0725 30.4391 13.6953 33.6799 12.934C38.7576 11.6713 44.111 12.1315 48.8987 14.2423C49.4383 14.4681 49.956 14.7128 50.4517 14.9764C50.9697 15.2233 51.4698 15.5063 51.9481 15.8234C52.3999 16.1246 52.8234 16.3787 53.1622 16.6611C53.5011 16.9434 53.7928 17.2352 54.1034 17.4987C54.5347 17.9345 54.9195 18.414 55.2517 18.9293C55.7086 19.584 55.8941 20.3902 55.7693 21.1787C55.7422 21.497 55.6854 21.8121 55.5999 22.1199C55.214 22.9952 53.614 22.2893 51.2611 20.9811C50.8187 20.7458 50.3669 20.5293 49.9528 20.2658L48.6352 19.5317L47.3269 18.8917L45.9999 18.3364C44.2251 17.6483 42.362 17.2142 40.4658 17.047C36.6012 16.7314 32.7291 17.5594 29.3317 19.4281C28.032 20.1246 26.8082 20.9542 25.6799 21.9034C24.5785 22.8693 23.5817 23.9481 22.7058 25.1223C21.8399 26.2531 21.1279 27.4937 20.5881 28.8117C20.0441 30.1434 19.6679 31.5376 19.4681 32.9623L19.3834 32.9434Z" fill="black"/>
<path d="M14.9415 67.1276C14.5839 67.7488 14.2639 68.3888 14.0004 69.01C13.7368 69.6312 13.4074 70.3182 13.1439 70.9865C12.9462 71.4759 12.8615 71.9841 12.6921 72.4829C12.0569 74.2328 11.5227 76.0177 11.0921 77.8288C10.9485 78.6401 10.8699 79.4615 10.8568 80.2853V81.8571C10.8899 82.3867 10.8899 82.918 10.8568 83.4476C10.8568 83.7865 10.5556 83.8053 10.198 83.5888C9.69984 83.2747 9.31935 82.8049 9.11565 82.2523C8.77667 81.1214 8.56207 79.9569 8.47565 78.7794C8.42869 78.1937 8.42869 77.6051 8.47565 77.0194C8.48809 76.4332 8.57668 75.851 8.73918 75.2876C8.92728 74.6281 9.06261 73.9546 9.14388 73.2735C9.27565 72.5865 9.37918 71.8806 9.53918 71.1841C9.69918 70.4876 9.96271 69.6971 10.1886 68.9535L10.9698 66.77C11.3368 65.8947 11.6756 65.01 12.0709 64.1441C12.3533 63.4853 12.6545 62.8359 13.0121 62.1865C13.3698 61.5371 13.6427 60.8876 13.9533 60.2476C14.4709 59.25 14.8286 58.1771 15.4498 57.1418C15.5689 56.8928 15.7174 56.659 15.8921 56.4453C16.0328 56.2699 16.194 56.1119 16.3721 55.9747C16.5263 55.8698 16.7042 55.8051 16.8898 55.7865C17.2805 55.7775 17.653 55.9516 17.8968 56.2571C18.0706 56.4026 18.2312 56.5633 18.3768 56.7371C18.7571 57.2339 18.9383 57.8548 18.8851 58.4782C18.6874 59.2876 18.4333 60.0876 18.1509 60.9535L17.6898 62.2335C17.5298 62.6665 17.238 63.0241 17.0404 63.4476C16.3721 64.6618 15.638 65.8853 15.0356 67.2123L14.9415 67.1276Z" fill="black"/>
<path d="M13.8307 56.821L15.0166 55.8798C15.5025 55.4929 16.0259 55.1555 16.5789 54.8727C17.052 54.6096 17.5814 54.4644 18.1225 54.4492C18.6584 54.4741 19.1684 54.6874 19.5625 55.0516C19.8694 55.3079 20.1587 55.5846 20.4284 55.8798C20.7071 56.213 20.9529 56.5723 21.1625 56.9527C21.3537 57.2526 21.5205 57.5674 21.6613 57.8939C21.746 58.1198 21.8213 58.3551 21.8966 58.581C22.0472 59.0327 22.1789 59.5222 22.3201 59.9363L23.0825 62.5998C23.3187 63.3705 23.6048 64.125 23.9389 64.8586C24.293 65.8409 24.4869 66.8737 24.5131 67.9175C24.5131 68.2657 24.0895 68.3692 23.5248 68.2939C22.8754 68.2683 22.2516 68.034 21.746 67.6257C21.4072 67.2022 21.0684 66.788 20.7484 66.3645C20.5061 65.9139 20.3076 65.4412 20.1554 64.9527C19.8011 63.9825 19.5149 62.9887 19.2989 61.9786C19.166 61.3824 18.9473 60.8085 18.6495 60.2751L18.4331 59.8704L18.3201 59.6822C18.3201 59.6069 18.3201 59.6257 18.2731 59.588C18.226 59.5504 18.1789 59.3998 18.1413 59.2963C18.1036 59.1927 18.0378 59.0516 17.9625 58.9292C17.927 58.8667 17.8826 58.8096 17.8307 58.7598C17.7742 58.7033 17.7084 58.7598 17.6425 58.7598C17.3768 58.8377 17.1256 58.9585 16.8989 59.1175L16.8236 59.1551L16.5978 59.3339L16.1084 59.7292C15.7789 59.9927 15.4589 60.2657 15.1672 60.5575C14.1903 61.4104 13.2692 62.3252 12.4095 63.2963C11.8044 64.0958 11.2541 64.9353 10.7625 65.8092C10.6401 65.9975 10.5554 66.1951 10.4236 66.3739C9.93424 67.0233 9.586 67.0704 8.76718 66.628C8.58835 66.5245 8.39071 66.4304 8.21188 66.3175C7.6411 65.9941 7.38665 65.3062 7.60953 64.6892C8.34795 62.9134 9.4036 61.2868 10.7248 59.8892C11.7028 58.7951 12.7396 57.7552 13.8307 56.7739V56.821Z" fill="black"/>
<path d="M76.1931 29.5921C75.0811 29.0296 73.9298 28.5483 72.7483 28.1521C72.3154 27.9921 71.8072 27.9827 71.4213 27.8416C70.6495 27.578 69.8589 27.4086 69.0589 27.2016L67.8636 26.9663C67.4621 26.8536 67.0533 26.7687 66.6401 26.7121C65.9212 26.5998 65.1927 26.5619 64.466 26.5992C63.5264 26.6672 62.5838 26.6829 61.6425 26.6463C61.3413 26.6463 61.3225 26.3451 61.5107 25.9874C61.7614 25.5183 62.1625 25.1471 62.6495 24.9333C63.1331 24.7575 63.6265 24.6098 64.1272 24.491C64.6283 24.355 65.1375 24.2512 65.6519 24.1804C66.6682 23.9828 67.7131 23.9828 68.7295 24.1804C69.9342 24.4533 71.2236 24.3968 72.4942 24.6227C73.8488 24.8716 75.1852 25.2111 76.4942 25.6392C77.2942 25.9121 78.0942 26.1851 78.8754 26.5051C80.0801 26.9568 81.2283 27.5404 82.4048 28.058C83.2989 28.5004 84.2872 28.8016 85.2283 29.3192C85.4421 29.4367 85.6494 29.5655 85.8495 29.7051C86.155 29.8931 86.3618 30.2067 86.4142 30.5616C86.3765 30.9199 86.2132 31.2534 85.9531 31.5027C85.8158 31.6838 85.6681 31.8566 85.5107 32.0204C85.0727 32.4752 84.4559 32.7129 83.826 32.6698C83.4401 32.5945 83.0825 32.5098 82.7248 32.4251C82.3672 32.3404 82.0001 32.2368 81.6142 32.1333C81.2283 32.0298 80.8236 31.9545 80.466 31.8604C80.1067 31.7074 79.7578 31.5314 79.4213 31.3333C78.3766 30.7874 77.3131 30.1757 76.1648 29.7051L76.1931 29.5921Z" fill="black"/>
<path d="M85.3785 27.7491L85.8868 28.3233C86.0844 28.5397 86.2727 28.775 86.4609 29.0009C86.8291 29.4294 87.1451 29.9001 87.4021 30.4033C87.6136 30.8371 87.7231 31.3136 87.7221 31.7962C87.7076 32.2833 87.5284 32.7511 87.2138 33.1233C87.0162 33.4056 86.7433 33.6691 86.508 33.9421C86.2125 34.2281 85.8839 34.4778 85.5291 34.6856C85.2245 34.8656 84.9103 35.029 84.588 35.175L84.1456 35.3915L83.8256 35.5044L82.5833 35.9091L80.1362 36.6621C79.434 36.898 78.7485 37.181 78.0844 37.5091C77.1835 37.8636 76.2285 38.0609 75.2609 38.0927C74.9409 38.0927 74.8185 37.6691 74.8562 37.1044C74.8709 36.4711 75.085 35.8585 75.468 35.3538C75.8444 35.015 76.2115 34.6762 76.588 34.4127C77.0037 34.1406 77.4489 33.9164 77.915 33.7444C78.7913 33.4018 79.6908 33.1219 80.6068 32.9068C81.1549 32.7765 81.679 32.5605 82.1597 32.2668L82.6115 32.0127C82.6985 31.9583 82.7898 31.911 82.8844 31.8715C83.001 31.8227 83.1142 31.7661 83.2233 31.7021C83.3456 31.6362 83.4585 31.5233 83.4115 31.4009C83.3442 31.1614 83.2359 30.9353 83.0915 30.7327L82.9315 30.5068L82.5833 30.0833C82.3291 29.7915 82.075 29.4997 81.8021 29.2268C80.9978 28.3456 80.133 27.5216 79.2138 26.7609C78.4592 26.2297 77.6664 25.7547 76.8421 25.3397C76.6614 25.2517 76.4855 25.1543 76.315 25.048C75.6938 24.6244 75.6562 24.295 76.0891 23.4762C76.1833 23.288 76.2774 23.0997 76.3903 22.9209C76.6795 22.3521 77.3262 22.0621 77.9433 22.2244C79.618 22.8112 81.1622 23.7191 82.4891 24.8974C83.515 25.7444 84.4656 26.6856 85.4444 27.6738L85.3785 27.7491Z" fill="black"/>
<path d="M39.9579 29.6965C39.8826 29.4518 39.7132 29.4989 39.572 29.6118C39.4794 29.6958 39.3972 29.7906 39.3273 29.8942L39.252 30.0071L38.9602 30.5154L38.405 31.4565C37.8779 32.3977 37.4638 33.433 36.9367 34.4213L35.5344 37.0565L34.0944 39.673C33.6162 40.6011 33.0884 41.5028 32.5132 42.3742L32.2779 42.7036C32.1749 42.8524 32.0617 42.994 31.9391 43.1271L31.572 43.5601L31.1673 43.946C30.6533 44.4105 29.9771 44.6539 29.285 44.6236C28.9899 44.5587 28.705 44.4543 28.4379 44.313C28.1946 44.1419 27.9842 43.9282 27.8167 43.6824C27.4481 43.1488 27.2214 42.5302 27.1579 41.8848L27.0826 41.386C27.0779 41.3453 27.0779 41.3043 27.0826 41.2636C27.0826 41.2165 27.0826 41.1883 27.0826 41.1507V40.9718C27.0826 40.7365 27.0826 40.5013 27.0826 40.2754C27.0826 39.8142 27.0826 39.3342 27.0826 38.9107C27.1755 36.6139 27.6297 34.3461 28.4285 32.1907C28.7673 31.4942 28.9838 31.7577 29.1061 32.3883C29.3198 33.3738 29.3896 34.3851 29.3132 35.3907C29.2191 36.4918 29.172 37.593 29.1814 38.6754C29.1814 39.2118 29.1814 39.7389 29.2755 40.2471C29.2755 40.4824 29.3791 40.8024 29.4073 40.9342V40.9342C29.4073 40.9907 29.4073 41.1883 29.5861 41.1507H29.6897C29.72 41.1355 29.7459 41.1128 29.765 41.0848C29.8402 40.9907 29.9061 40.906 29.9814 40.793C30.2544 40.3977 30.5367 39.9365 30.8097 39.4754C31.0826 39.0142 31.4026 38.3271 31.7508 37.593C32.0991 36.8589 32.3438 36.3507 32.6167 35.7107C33.1814 34.4307 33.6991 33.113 34.2826 31.8236C34.612 31.1177 34.9414 30.4024 35.2897 29.6965L35.8261 28.633L35.9485 28.3977L36.1367 27.9742L36.5414 27.1271C37.0024 26.0817 37.6074 25.1059 38.3391 24.2283C38.9017 23.5571 39.6098 23.0228 40.4097 22.666C40.903 22.4596 41.4448 22.3976 41.972 22.4871C42.2486 22.563 42.5055 22.6978 42.725 22.8824C42.9033 23.0611 43.064 23.2565 43.205 23.466C43.4755 23.9215 43.6814 24.4125 43.8167 24.9248C43.9752 25.5288 44.0761 26.1464 44.1179 26.7695C44.2064 27.7865 44.2379 28.8077 44.212 29.8283L44.1179 32.153C44.1179 33.5836 44.0708 34.9765 44.1179 36.4165C44.2974 38.5058 44.6756 40.5732 45.2473 42.5907C45.3508 43.0048 45.5297 43.353 45.6426 43.6918C45.6897 43.8424 45.7461 43.9648 45.7744 44.0871C45.8097 44.1652 45.835 44.2474 45.8497 44.3318C45.8497 44.3318 45.8497 44.4824 45.8497 44.5389C45.8036 44.5927 45.7655 44.653 45.7367 44.7177C45.5028 45.0336 45.4233 45.438 45.5202 45.8189C45.5761 46.0459 45.655 46.2667 45.7555 46.4777C45.8873 46.8165 45.812 47.1836 45.1626 47.4754C44.7262 47.6024 44.2626 47.6024 43.8261 47.4754C43.2845 47.3093 42.7907 47.0155 42.3861 46.6189C41.5555 45.587 40.9178 44.4137 40.5038 43.1554C40.3061 42.6001 40.1367 42.0448 39.9861 41.4989C39.8647 40.9562 39.7798 40.4059 39.732 39.8518C39.529 37.7059 39.4849 35.5478 39.6002 33.3954C39.7885 28.906 39.8732 30.5718 39.8732 29.9318L39.9579 29.6965Z" fill="black"/>
</svg>
