<svg width="96" height="96" viewBox="0 0 96 96" fill="none" xmlns="http://www.w3.org/2000/svg">
<path d="M64.9494 13.4332C66.6788 12.7545 68.4829 12.2837 70.3235 12.0309L71.4152 11.8897C71.813 11.8571 72.2128 11.8571 72.6105 11.8897L73.4482 12.0685C73.7708 12.1627 74.0856 12.2823 74.3894 12.4262C75.0298 12.773 75.5734 13.2745 75.9705 13.885C76.2902 14.3951 76.5313 14.9503 76.6858 15.532C76.9326 16.4572 77.0995 17.4019 77.1846 18.3556L77.5235 21.2732C77.6293 21.8949 77.6765 22.5251 77.6646 23.1556C77.5681 23.7975 77.4073 24.4281 77.1846 25.0379C77.0246 25.4238 76.6764 25.3579 76.187 25.0379C75.5425 24.6666 74.9868 24.1591 74.5588 23.5509C74.027 21.3863 73.6652 19.1835 73.4764 16.9626C73.2882 16.1909 73.2599 16.0873 72.9776 15.8991C72.8929 15.8991 72.7423 15.8426 72.5352 15.8991C72.319 15.8842 72.102 15.8842 71.8858 15.8991C70.4273 15.9559 68.9875 16.2483 67.6223 16.765C66.7135 17.0478 65.8212 17.3809 64.9494 17.7626C63.591 18.4095 62.2906 19.1715 61.0623 20.0403C60.1211 20.765 59.3305 21.6026 58.4835 22.3932C58.2952 22.5626 58.1352 22.7509 57.9376 22.9203C57.7051 23.2001 57.3602 23.362 56.9964 23.362C56.6326 23.362 56.2877 23.2001 56.0552 22.9203C55.8858 22.7885 55.707 22.6756 55.547 22.5344C55.0054 22.0497 54.9276 21.2301 55.3682 20.652C55.9573 19.6892 56.6449 18.7903 57.4199 17.9697C58.2711 17.1431 59.2192 16.4225 60.2435 15.8238C61.7443 14.8866 63.318 14.0714 64.9494 13.3862V13.4332Z" fill="black"/>
<path d="M57.5337 52.7831C54.9163 55.8215 51.9101 58.5019 48.5925 60.7549C47.4086 61.6195 46.1734 62.4115 44.8937 63.1267C40.2367 65.2654 35.1758 66.3821 30.0513 66.402C28.9407 66.402 27.8395 66.402 26.7384 66.3267C26.1831 66.3267 25.6372 66.2514 25.0913 66.2137C24.5454 66.1761 24.009 66.0349 23.4725 65.9502C20.7389 65.4848 18.08 64.6555 15.5666 63.4843C14.7854 63.1267 14.9548 62.9855 15.736 62.8631C16.9663 62.6732 18.2088 62.5725 19.4537 62.562C20.809 62.6278 22.1643 62.562 23.4819 62.562L25.4207 62.4114C26.0607 62.4114 26.7007 62.4114 27.3031 62.4114C29.8539 62.3939 32.3984 62.1546 34.9078 61.6961C36.4526 61.406 37.9505 60.9056 39.3595 60.209C40.0843 59.889 40.7525 59.4373 41.449 59.0702C42.1454 58.7031 42.8043 58.2608 43.4819 57.8561C46.4893 56.0247 49.2183 53.7711 51.5854 51.1643L52.696 49.9314L53.7313 48.642C54.4466 47.7949 55.0584 46.8631 55.6984 45.9502C57.6243 43.1476 59.2759 40.166 60.6301 37.0467C61.6937 34.6278 62.1266 32.002 63.0113 29.5173C63.1807 28.9714 63.3031 28.4161 63.5101 27.8702C63.6043 27.6161 63.6984 27.3902 63.7925 27.1831C63.8866 26.9761 64.0372 26.8161 64.1501 26.6561C64.3509 26.3806 64.5848 26.1308 64.8466 25.9125C65.2917 25.5599 65.8411 25.3646 66.409 25.3573C66.6773 25.321 66.9476 25.3021 67.2184 25.3008C68.0372 25.3478 68.4795 26.4396 68.6113 28.209C68.6558 28.8383 68.621 29.4707 68.5078 30.0914C68.4325 30.7125 68.3478 31.3431 68.2443 31.9737C68.1407 32.6043 68.009 33.2255 67.8866 33.8561C67.7412 34.4771 67.5525 35.0873 67.3219 35.682C66.4579 38.1475 65.4103 40.5448 64.1878 42.8537C62.333 46.3806 60.1256 49.7106 57.5995 52.7925L57.5337 52.7831Z" fill="black"/>
<path d="M61.4027 13.6773C62.6289 12.782 63.9081 11.9617 65.2333 11.2208C65.9509 10.824 66.6892 10.4659 67.4451 10.1479C67.6427 10.0632 67.8686 9.99729 68.0756 9.922C68.3029 9.83491 68.5355 9.7626 68.7721 9.70553C69.3652 9.52831 69.9792 9.43021 70.598 9.41376C71.3543 9.39247 72.1087 9.5007 72.8286 9.73376C73.2761 9.93452 73.6966 10.1906 74.0804 10.4961C74.4619 10.8213 74.8032 11.191 75.0968 11.5973C75.3092 11.8977 75.501 12.2122 75.6709 12.5385C75.8062 12.7701 75.9287 13.0088 76.038 13.2538C76.2639 13.7338 76.4521 14.1949 76.6215 14.6655C76.9698 15.6067 77.2521 16.5479 77.5062 17.4043C77.9862 19.2302 78.4474 21.0185 78.7204 22.8349C78.9651 24.4443 79.3133 26.0255 79.6615 27.6067C79.9001 28.615 80.017 29.6482 80.0098 30.6843C79.9884 31.7504 79.8687 32.8121 79.6521 33.8561C79.5015 34.5243 79.1815 34.4302 78.6356 33.9408C77.8322 33.2478 77.129 32.4464 76.5462 31.5596L76.1792 30.8632C76.0429 30.6437 75.9383 30.4061 75.8686 30.1573L75.4639 28.7173L74.6639 25.8373C74.4098 24.8961 74.1086 23.9549 73.9298 22.9479L73.4215 19.9738C73.2246 18.8038 72.8667 17.6667 72.358 16.5949C72.1316 16.099 71.8738 15.6181 71.5862 15.1549C71.4356 14.9008 71.4356 14.9102 71.3604 14.7973C71.2965 14.7115 71.2273 14.6298 71.1533 14.5526C71.1116 14.5048 71.0603 14.4663 71.0027 14.4396C70.7992 14.3373 70.5679 14.3042 70.3439 14.3455H70.1745C70.0709 14.3455 69.9486 14.4208 69.8262 14.4585C69.576 14.5377 69.3309 14.632 69.0921 14.7408C68.009 15.2461 66.9701 15.8411 65.9862 16.5196C64.6032 17.4575 63.2741 18.4725 62.0051 19.5596C60.0101 21.1985 58.1237 22.9654 56.358 24.8491C55.0027 26.3173 53.9768 28.0302 52.7721 29.5549C52.5086 29.9032 52.2827 30.2608 51.9909 30.5902C50.918 31.8043 50.3251 31.9738 49.1674 31.4749C48.9133 31.362 48.6404 31.2679 48.4051 31.1361C47.6145 30.6749 47.4639 29.6679 47.9627 28.5008C48.358 27.6443 48.7815 26.7973 49.2427 25.9691C49.7192 25.1506 50.2539 24.3674 50.8427 23.6255C52.0109 22.0983 53.2846 20.6548 54.6545 19.3055C56.7253 17.241 58.9259 15.3108 61.2427 13.5267L61.4027 13.6773Z" fill="black"/>
<path d="M40.649 85.3756C40.7902 85.6203 40.5455 85.9121 40.1878 86.2132C40.014 86.3218 39.8072 86.3652 39.6043 86.3356C39.4349 86.2132 39.2561 86.1003 39.1055 85.9685C38.9549 85.8368 38.0514 84.5285 37.6467 84.0862C37.3856 83.6226 37.1893 83.1254 37.0631 82.6085C36.7714 81.5827 36.4984 80.5285 36.2726 79.4838C36.2301 79.2473 36.2301 79.0051 36.2726 78.7685C36.3999 77.9768 36.3999 77.1697 36.2726 76.378C36.2726 76.2462 36.2726 76.105 36.1126 75.9921C35.8256 75.1546 35.7104 74.268 35.7737 73.385C36.009 72.7074 36.1408 72.0297 36.3102 71.3521C36.3102 71.258 36.3102 71.1638 36.442 71.0697C36.6891 70.9562 36.8393 70.7008 36.8184 70.4297C36.8693 70.1261 36.9546 69.8293 37.0726 69.545C37.2086 69.3806 37.3599 69.2293 37.5243 69.0932C37.7314 68.9899 37.9693 68.9664 38.1926 69.0274C38.3526 69.1403 38.5784 69.0274 38.7667 69.0274H38.9831C39.5529 69.5533 40.0556 70.1476 40.4796 70.7968C40.4796 70.7968 40.602 71.4368 40.7149 72.0862C40.8278 72.7356 40.9596 73.4132 41.0067 73.5544C41.0537 73.6956 41.0067 73.8462 40.922 73.9874C40.8373 74.1285 41.3078 75.9732 41.3078 76.0391C41.3078 76.4438 41.4584 76.8203 41.1384 77.225C41.0983 77.2983 41.0983 77.387 41.1384 77.4603C41.1647 78.1344 41.1205 78.8095 41.0067 79.4744C40.9989 79.8139 41.0146 80.1536 41.0537 80.4909C41.0537 80.5474 41.0067 80.6132 40.9973 80.6791C40.9608 80.7522 40.9414 80.8327 40.9408 80.9144C40.9482 81.7229 41.027 82.5292 41.1761 83.3238C41.1761 83.5027 40.8561 84.4909 40.9126 84.7074C40.969 84.9238 40.5737 85.2815 40.649 85.3756Z" fill="black"/>
<path d="M58.6158 76.5293C58.7664 76.774 58.5217 77.0658 58.1546 77.367C57.9814 77.4771 57.774 77.5206 57.5711 77.4893C57.4111 77.367 57.2323 77.254 57.0817 77.1223C56.9311 76.9905 56.0275 75.6823 55.6228 75.2399C55.3549 74.7786 55.1552 74.2809 55.0299 73.7623C54.7475 72.7364 54.4652 71.6823 54.2487 70.6376C54.2062 70.401 54.2062 70.1588 54.2487 69.9223C54.3712 69.127 54.3712 68.3176 54.2487 67.5223C54.2487 67.3999 54.2487 67.2587 54.0887 67.1458C53.8235 66.3137 53.7306 65.4362 53.8158 64.567C54.0511 63.8893 54.1828 63.2117 54.3523 62.534C54.3523 62.4399 54.3523 62.3458 54.484 62.2423C54.7259 62.128 54.8747 61.8788 54.8605 61.6117C54.9114 61.3081 54.9966 61.0113 55.1146 60.727C55.2482 60.5603 55.3997 60.4088 55.5664 60.2752C55.7709 60.1632 56.0122 60.1394 56.2346 60.2093C56.3946 60.3223 56.6205 60.2093 56.8087 60.2093H57.0158C57.5841 60.7436 58.0865 61.3439 58.5123 61.9976C58.5123 61.9976 58.6252 62.6376 58.7475 63.287C58.8699 63.9364 58.9923 64.614 59.0393 64.7552C59.0864 64.8964 59.0393 65.047 58.9546 65.1882C58.8699 65.3293 59.3405 67.174 59.3405 67.2399C59.3405 67.6446 59.4817 68.0211 59.1617 68.4258C59.1247 68.4999 59.1247 68.587 59.1617 68.6611C59.1879 69.3352 59.1437 70.0102 59.0299 70.6752C59.0109 71.0106 59.0109 71.3469 59.0299 71.6823C59.0299 71.7482 59.0299 71.814 58.9734 71.8799C58.9442 71.955 58.9283 72.0347 58.9264 72.1152C58.9354 72.9232 59.0109 73.7291 59.1523 74.5246C59.1523 74.7034 58.8417 75.6917 58.8887 75.9082C58.9358 76.1246 58.5499 76.4446 58.6158 76.5293Z" fill="black"/>
<path d="M72.2725 58.8352C72.4231 59.0799 72.169 59.3716 71.8113 59.6728C71.6378 59.7822 71.4307 59.8256 71.2278 59.7952C71.0678 59.6728 70.889 59.5599 70.729 59.4281C70.569 59.2963 69.6749 57.9975 69.2702 57.5458C69.0165 57.0718 68.8296 56.565 68.7149 56.0399C68.4325 55.014 68.1502 53.9693 67.9337 52.9152C67.8912 52.6786 67.8912 52.4364 67.9337 52.1999C68.0564 51.4077 68.0564 50.6014 67.9337 49.8093C67.9337 49.6775 67.9337 49.5363 67.7831 49.4234C67.519 48.591 67.423 47.7144 67.5008 46.8446C67.7455 46.1669 67.8678 45.4987 68.0466 44.8211C68.0466 44.7175 68.0466 44.6234 68.169 44.5293C68.4179 44.4166 68.5714 44.162 68.5549 43.8893C68.6024 43.586 68.6845 43.2892 68.7996 43.0046C68.9135 42.8449 69.0427 42.6968 69.1855 42.5622C69.3883 42.4558 69.6244 42.4322 69.8443 42.4963C70.0137 42.6093 70.2302 42.4963 70.4278 42.4963H70.6349C71.2032 43.0306 71.7056 43.6309 72.1313 44.2846L72.3666 45.574C72.489 46.2328 72.6113 46.9011 72.6584 47.0422C72.6772 47.193 72.644 47.3458 72.5643 47.4752C72.5643 47.5505 72.9596 49.4611 72.9596 49.5269C72.9596 49.9316 73.1008 50.3081 72.7808 50.7128C72.7149 50.7975 72.7808 50.8728 72.7808 50.9575C72.802 51.6136 72.7516 52.2701 72.6302 52.9152C72.6114 53.2537 72.6114 53.5931 72.6302 53.9316C72.6188 53.9964 72.5998 54.0596 72.5737 54.1199C72.5604 54.1977 72.5604 54.2773 72.5737 54.3552C72.578 55.1634 72.6536 55.9696 72.7996 56.7646C72.7996 56.9434 72.4796 57.9316 72.5361 58.1481C72.5925 58.3646 72.2066 58.7411 72.2725 58.8352Z" fill="black"/>
</svg>
