<svg width="96" height="96" viewBox="0 0 96 96" fill="none" xmlns="http://www.w3.org/2000/svg">
<path d="M26.9229 70.5221C26.9276 70.5565 26.9276 70.5913 26.9229 70.6257V70.701C26.9229 70.701 26.9229 70.7951 27.0264 70.8139C27.13 70.8327 27.0923 70.8139 27.1488 70.8139C27.3619 70.8892 27.5945 70.8892 27.8076 70.8139C27.8829 70.7668 27.9206 70.7104 27.9017 70.6445C27.8829 70.5786 27.7417 70.4939 27.9017 70.381C28.2049 70.2687 28.5212 70.1959 28.8429 70.1645C29.2947 70.1645 29.7841 70.2115 29.8406 70.4374C29.9418 70.8159 29.8876 71.2191 29.69 71.5574C29.538 71.8745 29.2823 72.1302 28.9653 72.2821C28.6076 72.4327 28.4006 72.7245 28.0241 72.8657C27.6349 73.0286 27.209 73.0838 26.7911 73.0257C26.5597 72.9896 26.3326 72.9297 26.1135 72.8468C25.8029 72.7339 25.5676 72.5551 25.2853 72.4704C25.0257 72.4416 24.7637 72.4416 24.5041 72.4704C24.4476 72.4704 24.3629 72.4704 24.3253 72.4704C24.2876 72.4704 24.2311 72.1692 24.6923 71.5292L24.9747 71.1339C25.2305 70.7856 25.5275 70.4695 25.8594 70.1927C26.4053 69.8445 26.5276 69.9951 26.6782 70.0892C26.7625 70.169 26.8242 70.2696 26.857 70.381L26.9229 70.5221Z" fill="black"/>
<path d="M20.476 79.1435C20.6432 79.1817 20.8132 79.2069 20.9843 79.2188C21.0407 79.2188 21.0784 79.2188 21.1443 79.2188C21.3443 79.2393 21.5465 79.2169 21.7372 79.1529C21.8139 79.117 21.8695 79.0474 21.8878 78.9647C21.9348 78.8612 21.8878 78.7388 22.0666 78.7012C22.3208 78.7635 22.5648 78.8618 22.7913 78.9929C23.1019 79.1623 23.3843 79.4071 23.3278 79.5294C23.1488 79.9785 22.7498 80.3026 22.2737 80.3859C22.0374 80.4588 21.8049 80.5436 21.5772 80.64C21.3329 80.6925 21.0835 80.7178 20.8337 80.7153H20.4101C20.2066 80.6965 20.0019 80.6965 19.7984 80.7153C19.6478 80.7153 19.4972 80.8753 19.3466 80.8847H19.2525C19.1395 80.8847 19.1019 80.7529 19.0737 80.3953V80.16C19.0549 79.9455 19.0973 79.7302 19.196 79.5388C19.3372 79.3882 19.469 79.1812 19.5913 79.1529C19.7029 79.1069 19.8199 79.0753 19.9395 79.0588C20.1184 79.0588 20.2972 79.0588 20.4666 79.0588L20.476 79.1435Z" fill="black"/>
<path d="M30.3685 73.9589C30.1594 74.183 29.9145 74.3707 29.6438 74.5142L29.2391 74.7307L28.7873 74.8624L28.345 74.9848H27.9497C27.6898 75.0082 27.4284 75.0082 27.1685 74.9848C26.7859 75.0018 26.4029 74.967 26.0297 74.8813C25.3825 74.6684 24.8127 74.2689 24.392 73.733C23.9479 73.2155 23.6606 72.5822 23.5638 71.9072C23.4542 71.2571 23.5811 70.5893 23.9214 70.0248C24.271 69.3204 25.0217 68.9075 25.8038 68.9895C26.0202 68.9895 26.0861 69.6107 26.1144 70.2224C26.1426 70.8342 26.1614 71.4366 26.1144 71.5119C26.0673 71.5872 26.1144 71.5683 26.1144 71.5777L25.9732 71.5307L25.8885 71.4366L25.785 71.3801C25.7285 71.3801 25.8414 71.3801 25.8697 71.3801C25.8979 71.3801 26.2932 71.2954 26.1708 71.3801C26.1488 71.4729 26.1488 71.5696 26.1708 71.6624C26.1977 71.8208 26.31 71.9512 26.4626 72.0013C26.6038 72.0766 26.7638 72.133 26.9238 72.1989C27.1111 72.282 27.3121 72.3299 27.5167 72.3401C27.6839 72.3787 27.8577 72.3787 28.025 72.3401C28.2375 72.2882 28.4062 72.1267 28.4673 71.9166C28.54 71.5601 28.4008 71.1936 28.1097 70.9754C27.7965 70.7743 27.4578 70.616 27.1026 70.5048C27.0158 70.4917 26.9307 70.4697 26.8485 70.4389C26.5473 70.3166 26.4626 70.1942 26.4061 69.7707C26.4061 69.6766 26.4061 69.5824 26.4061 69.4883C26.4061 69.1872 26.5755 68.9424 26.9614 68.8295C27.5788 68.6701 28.2265 68.6701 28.8438 68.8295C29.0164 68.8695 29.1839 68.9295 29.3426 69.0083L29.8885 69.3472C30.0646 69.4936 30.2254 69.6576 30.3685 69.8366C30.5285 70.0069 30.6617 70.2005 30.7638 70.4107C31.5027 71.5251 31.3984 72.9975 30.5097 73.9966L30.3685 73.9589Z" fill="black"/>
<path d="M23.9022 81.7125C23.195 82.3941 22.2387 82.7549 21.2575 82.7102C21.0693 82.7102 20.8998 82.7102 20.7116 82.7102C20.528 82.699 20.3455 82.6738 20.1657 82.6349C19.5382 82.4704 18.9865 82.0948 18.6034 81.5714C18.2342 81.1098 17.9968 80.5569 17.9163 79.9714C17.818 79.3896 17.9315 78.7919 18.2363 78.2867C18.5261 77.6748 19.1732 77.3153 19.8457 77.3925C20.034 77.3925 20.0998 78.0231 20.1563 78.6161C20.1844 79.0357 20.2347 79.4535 20.3069 79.8678C20.3069 79.9431 20.241 79.7831 20.1751 79.689C20.1391 79.6352 20.0946 79.5875 20.0434 79.5478C20.0239 79.5236 20.0018 79.5015 19.9775 79.4819L19.9398 79.4537V79.4537C19.8928 79.4537 19.9869 79.4537 20.0057 79.4537C20.0709 79.4674 20.1382 79.4674 20.2034 79.4537V79.4537L20.5987 79.3784V79.3784V79.3784C20.5358 79.4372 20.4902 79.512 20.4669 79.5949C20.401 79.8396 20.6363 79.8584 20.7869 79.9243C21.0096 80.0404 21.2653 80.077 21.5116 80.0278C21.6584 79.9792 21.7736 79.864 21.8222 79.7172C21.8947 79.4368 21.786 79.1407 21.5493 78.9737C21.3452 78.8531 21.1069 78.8034 20.8716 78.8325C20.8184 78.8377 20.7648 78.8377 20.7116 78.8325C20.514 78.7572 20.4293 78.6067 20.401 78.1925V77.9196C20.3767 77.6126 20.5744 77.3319 20.8716 77.2514C21.1788 77.1576 21.4938 77.0914 21.8128 77.0537C22.2008 77.1404 22.5815 77.2569 22.9516 77.4019C23.1571 77.4597 23.3512 77.552 23.5257 77.6749L23.9304 78.089C24.1672 78.3692 24.355 78.6874 24.4857 79.0302C24.6951 79.4831 24.7513 79.9919 24.6457 80.4796C24.5865 80.9697 24.3722 81.4281 24.034 81.7878L23.9022 81.7125Z" fill="black"/>
<path d="M59.2435 37.4118C57.0411 39.6016 54.8733 41.8353 52.74 44.113C51.9211 44.913 51.2717 45.8447 50.4529 46.6447C47.5823 49.4683 44.7306 52.2918 41.9823 55.3036C40.7494 56.5836 39.6106 57.9671 38.4811 59.2942C37.1033 61.1155 35.5933 62.8331 33.9635 64.433C33.4364 64.9224 33.0976 64.5647 33.0223 63.7459C32.9002 62.6005 33.099 61.4437 33.5964 60.4047C35.827 56.2542 38.0482 52.0753 41.4647 48.7624C43.4411 46.7294 44.9753 44.2165 46.7823 41.9671C47.7235 40.7153 48.8058 39.5294 49.8694 38.353L53.0788 34.833L57.0788 30.5318C59.0835 28.3577 61.2011 26.2589 63.1588 24.0377C63.9211 23.1718 64.5988 22.2589 65.3517 21.3836C66.1047 20.5083 66.7729 19.5765 67.6011 18.7294C67.916 18.336 68.2833 17.9877 68.6929 17.6942C70.3588 16.64 71.2153 16.6683 72.2505 17.4024C72.4883 17.5596 72.7177 17.7293 72.9376 17.9106C73.5964 18.5224 73.4929 19.6612 72.9376 20.913C72.7211 21.3553 72.5141 21.8542 72.307 22.353C72.0848 22.8008 71.82 23.2263 71.5164 23.6236C70.9517 24.4706 70.387 25.3083 69.8223 26.1083C68.5948 27.7458 67.2551 29.2962 65.8129 30.7483C63.7047 32.9883 61.5117 35.2189 59.3941 37.5153L59.2435 37.4118Z" fill="black"/>
<path d="M71.7611 23.6711C71.8153 22.79 71.6806 21.9076 71.3659 21.0829C71.2189 20.7441 71.0257 20.4273 70.7917 20.1417C70.7917 20.057 70.6129 19.8593 70.227 19.7276C69.502 19.5627 68.7577 19.4994 68.0153 19.5393C66.3638 19.5211 64.7147 19.6693 63.0929 19.9817C61.3894 20.3017 59.667 20.7158 57.9447 21.1582C56.4219 21.5959 54.9339 22.1465 53.4929 22.8052C51.6775 23.726 49.7886 24.4941 47.8458 25.1017C47.2153 25.2617 46.9047 24.5558 47.0741 23.6146C47.2085 22.4837 47.8089 21.4602 48.7306 20.7911C50.5457 19.6353 52.4318 18.5948 54.3776 17.6758C56.3448 16.7012 58.4389 16.0074 60.5988 15.6146C61.9164 15.3888 63.2247 15.0405 64.5988 14.7299C66.0184 14.3525 67.4783 14.1471 68.947 14.1182C69.8685 14.1191 70.7859 14.2393 71.6764 14.4758C72.188 14.6141 72.6833 14.8066 73.1541 15.0499C73.6518 15.3053 74.1137 15.6249 74.5282 16.0005C75.2169 16.648 75.8068 17.3932 76.2788 18.2123C76.7431 19.0103 77.1036 19.8642 77.3517 20.7535C77.8135 22.717 77.9218 24.7472 77.6717 26.7488C77.2894 29.5027 76.7267 32.2286 75.987 34.9088C75.4788 36.9323 75.46 39.0688 74.8859 41.017C74.7729 41.4499 74.7259 41.8923 74.5753 42.3064C74.0294 43.8688 73.4364 44.1888 71.827 44.0758C71.46 44.0758 71.0929 44.0758 70.7353 43.9723C69.5433 43.7513 68.6868 42.6996 68.7117 41.4876C68.6615 40.5088 68.6615 39.5393 68.7117 38.5793L68.7682 37.1488C68.8059 36.6834 68.8751 36.2212 68.9753 35.7652C69.3894 33.9864 69.9164 32.2735 70.387 30.5982C71.1191 28.3518 71.531 26.0136 71.6106 23.6523L71.7611 23.6711Z" fill="black"/>
</svg>
