<svg width="96" height="96" viewBox="0 0 96 96" fill="none" xmlns="http://www.w3.org/2000/svg">
<path d="M62.0522 49.301C62.8522 47.3621 63.6804 45.4327 64.5181 43.5033L65.7793 40.6798L66.184 39.7386C66.2404 39.6257 66.184 39.5315 66.1181 39.381C65.8399 38.8377 65.4813 38.3396 65.0546 37.9033C64.6122 37.4045 64.1134 36.9621 63.5957 36.4162C61.6851 34.6285 59.6774 32.9476 57.5816 31.381C55.464 29.7621 53.3087 28.1715 51.1534 26.5715L45.3746 22.3457C42.8621 20.6047 40.4951 18.6627 38.2969 16.5386C37.6287 15.861 38.0522 15.5974 39.0028 15.6539C40.3813 15.8489 41.6958 16.3612 42.8428 17.1504C45.3557 18.9198 47.9157 20.5857 50.4475 22.3457C52.9793 24.1057 55.4734 25.9315 57.9769 27.8515C59.4546 29.0092 61.0263 30.1104 62.5981 31.2586C64.2405 32.4033 65.7832 33.6847 67.2099 35.0892C67.621 35.5253 68.0075 35.9841 68.3675 36.4633C68.5557 36.6986 68.7252 36.9621 68.904 37.2162L69.1393 37.6398C69.2489 37.8118 69.3404 37.9947 69.4122 38.1857L69.6569 38.7786L69.8357 39.3904C69.8357 39.4939 69.9299 39.5974 69.8922 39.701L69.7981 40.0021L69.6287 40.6045C69.5628 40.7927 69.4875 41.0186 69.431 41.1692L69.2804 41.5457L68.9793 42.2892C68.1887 44.2374 67.4169 46.1668 66.6734 48.1151C65.7322 50.5151 64.8475 52.9339 64.0004 55.3621C62.6922 59.0327 61.4216 62.741 60.3487 66.468C59.5204 69.3668 58.9746 72.2939 58.3063 75.2021C58.1652 75.8421 58.071 76.4915 57.9016 77.0845C57.2804 79.4562 56.744 80.1057 55.3228 80.2186C55.0114 80.2664 54.6966 80.2885 54.3816 80.2845C53.3275 80.2092 52.8099 79.0139 53.064 77.2068C53.4687 74.4856 54.0408 71.7918 54.7769 69.141C55.5487 66.4586 56.4899 63.7951 57.4593 61.1221C58.9369 57.1786 60.4334 53.2162 61.9863 49.2633L62.0522 49.301Z" fill="black"/>
<path d="M61.8554 27.3897C63.5684 28.7639 65.2719 30.1662 66.966 31.5968L69.4978 33.7803L70.7496 34.9097L71.0696 35.1921L71.559 35.6533L72.5754 36.5944L73.3943 37.7709C73.5973 38.2103 73.7002 38.6893 73.6954 39.1733C73.6644 40.1675 73.5095 41.1539 73.2343 42.1097C72.9331 43.305 72.5849 44.4156 72.2366 45.5262C71.5307 47.7286 70.7872 49.8933 70.0154 52.0392C68.8954 55.1074 67.879 58.2039 66.6837 61.2344C65.2845 64.7356 63.8476 68.2148 62.3731 71.6721L60.1331 76.858L57.3096 83.2862C57.1701 83.588 56.9861 83.8672 56.7637 84.1144L56.4719 84.4815L56.3307 84.6697L56.1896 84.7827L55.6248 85.2439C55.5172 85.3417 55.3749 85.3925 55.2296 85.385C55.0888 85.3999 54.9468 85.3999 54.806 85.385C54.2299 85.2436 53.6844 84.998 53.1966 84.6603C52.615 84.2438 52.0759 83.771 51.5872 83.2486C51.0601 82.7027 50.5331 82.1191 50.0531 81.5639L49.4319 80.8768L48.9519 80.3121C48.3119 79.5497 47.6813 78.8062 47.0696 78.0344C43.879 74.0815 40.6225 70.2039 37.2813 66.4956C35.0978 64.1427 32.999 61.7239 30.806 59.418C29.7143 58.2603 28.5848 57.1403 27.4366 56.0674C26.3555 54.9725 25.1186 54.0433 23.766 53.3097C22.9378 52.9144 22.5707 52.8862 22.5896 52.7168C22.6084 52.5474 23.079 52.3592 24.0201 52.4627C25.2846 52.6175 26.5169 52.97 27.6719 53.5074C29.3029 54.1967 30.8373 55.0952 32.2366 56.1803C33.4915 57.178 34.7464 58.2007 36.0013 59.2486L37.8178 60.8392C38.4201 61.3662 38.9566 61.9592 39.5119 62.5239C41.7331 64.8109 43.879 67.1544 45.9778 69.5168C48.0766 71.8792 50.166 74.2227 52.1613 76.6321L52.9048 77.5733L53.2813 78.0062C53.3091 78.0453 53.3342 78.0862 53.3566 78.1286C53.4131 78.2321 53.4696 78.3356 53.5543 78.4674C53.639 78.5992 53.7331 78.7686 53.8837 78.8344C54.0343 78.9003 54.0343 78.665 54.1378 78.5521L54.3637 78.2321C54.5405 77.9272 54.7007 77.6131 54.8437 77.2909L55.446 75.9262L56.6225 73.1591C57.3943 71.2768 58.1378 69.3944 58.8531 67.5121C60.3025 63.7474 61.6766 59.8792 63.0507 56.0862C64.1613 52.9803 65.2343 49.8901 66.2696 46.8156C66.7778 45.2909 67.2766 43.7568 67.719 42.2509L68.0296 41.1686L68.2084 40.5003C68.2479 40.3366 68.2731 40.1697 68.2837 40.0015C68.2946 39.9178 68.2536 39.8359 68.1801 39.7944L68.0013 39.6156C67.7566 39.3427 66.6272 38.345 65.7896 37.6015C64.9519 36.858 63.9825 36.0486 63.0507 35.2862C58.8437 31.8039 54.5048 28.4439 50.1378 25.1686L44.7919 21.1027L42.1284 19.0603L40.3307 17.6392L39.6907 17.1215L39.3707 16.8486C39.2766 16.7921 39.1543 16.585 39.0413 16.7262C38.7732 17.2019 38.5706 17.7116 38.439 18.2415L38.2131 19.0321L37.9496 19.9733L37.1966 22.7215C35.6343 28.9333 34.3731 35.1827 32.3401 41.4039C31.879 42.7686 31.399 44.1333 30.8248 45.498C30.0855 47.4406 28.899 49.1817 27.3613 50.5803C26.4604 51.3714 25.2151 51.6418 24.0672 51.2956C23.6812 51.1946 23.3258 51.0007 23.0319 50.7309C22.7307 50.3168 23.0319 49.8556 23.2954 49.1497C23.6885 48.0324 24.1667 46.9468 24.726 45.9027C25.8342 43.4641 26.7622 40.9475 27.5025 38.3733C28.3119 35.6909 29.0554 32.9239 29.7896 30.1097C30.5237 27.2956 31.239 24.4062 31.9731 21.5356L32.5378 19.3427L32.8201 18.2415L33.4319 16.218C33.7725 14.8411 34.2715 13.5083 34.919 12.2462C35.1911 11.7872 35.5452 11.382 35.9637 11.0509C36.342 10.7458 36.7771 10.5187 37.2437 10.3827C37.7891 10.3503 38.3359 10.3503 38.8813 10.3827C39.3425 10.2133 40.1425 10.7968 40.8484 11.1639L43.2201 13.0462L45.1025 14.5239L47.5496 16.2744L52.3401 19.9074C55.5464 22.3356 58.7527 24.7921 61.959 27.2768L61.8554 27.3897Z" fill="black"/>
</svg>
