<svg width="96" height="96" viewBox="0 0 96 96" fill="none" xmlns="http://www.w3.org/2000/svg">
<path d="M31.1905 26.787C34.5161 25.2245 38.0727 24.2106 41.7222 23.7846C42.6634 23.6528 43.5199 23.6152 44.4234 23.5681C45.3168 23.5164 46.2124 23.5164 47.1058 23.5681L49.7599 23.6528C50.6446 23.7375 51.5293 23.8693 52.4046 23.9728C53.0446 24.067 53.694 24.114 54.2869 24.2175L56.1693 24.594L58.0517 24.9799C58.6822 25.1399 59.294 25.3658 59.934 25.5728C64.3056 26.9849 68.3662 29.2213 71.8964 32.1611C75.368 35.071 78.3543 38.5148 80.7434 42.3634L82.2022 44.9705C82.4375 45.4034 82.7105 45.8175 82.9175 46.2693L83.5387 47.6152C83.9434 48.5564 84.3952 49.4034 84.7717 50.3164L85.8728 53.1399C86.2786 54.3271 86.6149 55.537 86.8799 56.7634C87.2192 57.9735 87.4708 59.2065 87.6328 60.4528C87.7834 61.6952 87.9717 62.9281 88.0375 64.2175V66.0999C88.0375 66.7305 87.8964 67.3611 87.8305 67.9822C87.5858 69.5446 86.9928 69.3281 85.9481 68.114C85.2655 67.3727 84.6803 66.5472 84.207 65.6575C83.6437 64.5542 83.1928 63.397 82.8611 62.2034C82.6197 61.0613 82.3053 59.9359 81.9199 58.834C81.5434 57.7422 81.2611 56.6222 80.8281 55.5587C80.3952 54.4952 80.0658 53.4128 79.6799 52.3305L78.3246 49.2058C76.3838 45.0795 73.7799 41.2992 70.6164 38.0152C68.672 35.9897 66.42 34.2839 63.9434 32.9611C63.3222 32.6222 62.654 32.3681 62.0046 32.067C61.3638 31.7594 60.7072 31.4861 60.0375 31.2481L57.9858 30.5517L56.9787 30.2128L55.934 29.9775L53.6375 29.4317C52.8752 29.2717 52.0846 29.2152 51.3034 29.0928C49.7446 28.8691 48.1723 28.7528 46.5975 28.7446C39.5034 28.4997 32.5698 30.8903 27.134 35.4552C22.5063 39.3534 18.8056 44.2341 16.3011 49.7422C14.4053 53.9799 13.0732 58.4478 12.3387 63.0317C12.1787 64.0293 11.9622 64.9987 11.774 65.9964C11.0211 69.6952 10.7669 70.8622 9.68459 71.6434C9.46812 71.8222 9.27047 72.0764 9.10106 72.1893C8.65871 72.5846 7.59518 70.9375 7.5293 67.8975C7.5293 66.7775 7.5293 65.6481 7.5293 64.5187C7.5293 63.9446 7.5293 63.3799 7.59518 62.8058C7.66106 62.2317 7.74577 61.6764 7.82106 61.1117C8.18695 58.8409 8.6994 56.5962 9.35518 54.3917C10.7095 49.8301 12.6891 45.4782 15.2375 41.4599C19.0719 35.1705 24.57 30.0633 31.1246 26.7022L31.1905 26.787Z" fill="black"/>
<path d="M35.9156 37.6768C38.4435 36.6168 41.1137 35.9349 43.8403 35.6533C44.5086 35.5874 45.1862 35.5592 45.8544 35.5121C46.5227 35.4651 47.1909 35.5121 47.8592 35.5121C49.1917 35.5184 50.522 35.6191 51.8403 35.8133C53.7916 36.0566 55.7124 36.5013 57.5721 37.1404C60.8327 38.3035 63.844 40.0726 66.4474 42.3545C68.9406 44.6559 71.0503 47.3407 72.6968 50.3074L73.7509 52.1992C74.0897 52.858 74.3533 53.5451 74.6921 54.2133C75.2906 55.5493 75.8184 56.9159 76.2733 58.3074C76.565 59.2015 76.7344 60.1239 76.9603 61.0274L77.2803 62.3921L77.4686 63.7757C77.7886 65.6096 77.7886 67.4852 77.4686 69.3192C77.2333 70.4768 76.7062 70.3262 75.8027 69.4415C75.2248 68.9208 74.7184 68.3258 74.2968 67.6721C74.0704 67.2856 73.8661 66.8865 73.685 66.4768C73.4743 66.046 73.3072 65.5951 73.1862 65.1309C72.8286 63.4368 72.245 61.8368 71.7368 60.2274C71.398 59.4557 71.1815 58.6557 70.918 57.8557C70.8043 57.4547 70.6563 57.0642 70.4756 56.6886L70.005 55.5404C68.7148 52.4789 66.9557 49.637 64.7909 47.1168C61.9609 44.1184 58.3168 42.0118 54.3062 41.0557L52.6497 40.6792C52.3768 40.6227 52.0944 40.538 51.8121 40.5004L50.9556 40.3968L49.2427 40.1804H47.5015C45.1921 40.1011 42.8836 40.3612 40.6497 40.9521C37.885 41.672 35.2863 42.9218 32.998 44.6321C29.4587 47.2995 26.6092 50.7751 24.6874 54.7686C23.2388 57.831 22.2403 61.0866 21.7227 64.4345C21.6192 65.1686 21.4592 65.8745 21.3086 66.6086C20.7344 69.3192 20.4992 70.1757 19.5486 70.7686C19.3509 70.9098 19.1815 71.0886 19.0403 71.1733C18.645 71.4651 17.7039 70.2321 17.5909 67.9733C17.5344 67.1357 17.5062 66.2886 17.4968 65.4321C17.4716 64.575 17.5315 63.7174 17.6756 62.8721C18.4476 57.5949 20.4075 52.5618 23.4074 48.1521C26.4806 43.5251 30.7963 39.8585 35.8592 37.5733L35.9156 37.6768Z" fill="black"/>
<path d="M40.6398 50.5329C43.8051 49.1842 47.3119 48.8553 50.6727 49.5917C51.2657 49.7517 51.8586 49.8741 52.4516 50.0152C53.0445 50.1564 53.5998 50.3917 54.1551 50.6176C56.0727 51.5077 57.8211 52.7242 59.3222 54.2129C60.7884 55.6672 62.0288 57.3327 63.0022 59.1541L63.6327 60.3494L64.1316 61.6105C64.5363 62.4105 64.7904 63.267 65.0727 64.0858C65.2516 64.6317 65.3363 65.1964 65.4775 65.7423L65.6563 66.5705L65.7504 67.4176C65.9467 68.542 65.8725 69.697 65.5339 70.787C65.2798 71.4835 64.828 71.3611 64.0657 70.787C63.6049 70.4909 63.1841 70.1366 62.8139 69.7329C62.478 69.3023 62.2229 68.8144 62.061 68.2929C61.7942 67.3645 61.4801 66.4503 61.1198 65.5541C60.9351 65.1189 60.778 64.6725 60.6492 64.2176C60.516 63.7734 60.3589 63.3367 60.1786 62.9094C59.4445 61.1553 58.4961 59.4987 57.3551 57.9776C55.8346 56.1643 53.8356 54.8143 51.5857 54.0811C49.1568 53.1485 46.5029 52.9714 43.9716 53.5729C42.3978 53.9918 40.9251 54.7249 39.6422 55.7282C37.5833 57.3156 35.9155 59.3536 34.7669 61.6858C33.9233 63.4745 33.3462 65.377 33.0539 67.3329C32.9911 67.7527 32.8999 68.1677 32.781 68.5752C32.6609 69.1419 32.4646 69.6896 32.1975 70.2035C32.1041 70.3646 31.983 70.508 31.8398 70.627C31.6728 70.7419 31.4965 70.8427 31.3127 70.9282C31.1433 71.0035 30.9927 71.1164 30.861 71.1635C30.7292 71.2105 30.4375 71.1635 30.1457 70.7776C29.9726 70.5904 29.8467 70.3645 29.7786 70.1188C29.6809 69.8131 29.6178 69.4974 29.5904 69.1776C29.5149 68.6566 29.4678 68.1319 29.4492 67.6058V66.8152C29.4583 66.5531 29.4866 66.292 29.5339 66.0341C29.9844 62.8236 31.1767 59.7623 33.0163 57.0929C34.8753 54.2206 37.4771 51.905 40.5457 50.3917L40.6398 50.5329Z" fill="black"/>
</svg>
