<svg width="96" height="96" viewBox="0 0 96 96" fill="none" xmlns="http://www.w3.org/2000/svg">
<path d="M46.4225 55.0025C47.3419 54.0028 48.1295 52.8894 48.766 51.6896C48.9612 51.2705 49.1217 50.8361 49.246 50.3908C49.8185 48.6627 50.0705 46.8446 49.9895 45.0261C49.9488 44.1952 49.8322 43.3698 49.6413 42.5602C49.4248 41.5249 49.0954 40.5178 48.9637 39.4449C48.9637 39.1155 49.3401 38.9743 49.9048 39.0872C50.5477 39.2008 51.1029 39.6033 51.4107 40.179C52.4131 42.3877 52.7751 44.8335 52.4554 47.2378C52.3739 48.7395 52.1501 50.2301 51.7872 51.6896C51.6608 52.1085 51.5035 52.5175 51.3166 52.9131C51.1378 53.2896 50.9307 53.6284 50.7331 53.9861C50.3188 54.6751 49.8631 55.3382 49.3684 55.9719C48.7564 56.7641 48.0796 57.5039 47.3448 58.1837C46.2122 59.2164 44.9263 60.0673 43.5331 60.7061C42.4626 61.2704 41.3043 61.6491 40.1072 61.8261C39.8379 61.8493 39.5671 61.8493 39.2978 61.8261C39.0856 61.8321 38.8735 61.8099 38.6672 61.7602C38.5179 61.6976 38.3833 61.6046 38.2719 61.4872C38.0743 61.2979 37.9508 61.0442 37.9237 60.7719C37.8969 60.6414 37.8781 60.5094 37.8672 60.3766C37.8672 59.9813 38.2907 59.6143 38.8837 59.3414C39.6942 59.1248 40.4922 58.864 41.2742 58.5602C42.0378 58.2734 42.7721 57.9141 43.4672 57.4872C44.5632 56.7857 45.5442 55.919 46.3754 54.9178L46.4225 55.0025Z" fill="black"/>
<path d="M11.6459 32.1988C11.5397 32.4041 11.4516 32.6182 11.3824 32.8388C11.3824 32.9141 11.3824 32.9799 11.3824 33.0458C11.2667 33.2789 11.1934 33.5306 11.1659 33.7894C11.1659 33.9023 11.2412 33.9211 11.3259 33.9399C11.4106 33.9588 11.6271 33.7988 11.5518 34.147C11.34 34.683 11.0818 35.1995 10.78 35.6905C10.3565 36.3964 9.78238 36.9799 9.53767 36.8576C9.34694 36.7428 9.16733 36.6105 9.0012 36.4623C8.84612 36.2846 8.71337 36.0887 8.60591 35.8788C8.40931 35.4827 8.34656 35.0335 8.42708 34.5988C8.5212 34.1094 8.31414 33.7799 8.32355 33.3941C8.35399 33.0046 8.42657 32.6196 8.54003 32.2458L8.73767 31.6152C8.81297 31.2952 8.98238 31.0035 9.02003 30.6741C9.00184 30.4292 8.96087 30.1866 8.89767 29.9494C8.89767 29.8929 8.89767 29.827 8.89767 29.7705C8.89767 29.5635 9.1612 29.5635 9.83885 29.7705L10.2906 29.9023C10.6802 30.0132 11.0445 30.1986 11.3636 30.4482C11.6709 30.7343 11.8534 31.1298 11.8718 31.5494C11.8502 31.7745 11.7996 31.996 11.7212 32.2082L11.6459 32.1988Z" fill="black"/>
<path d="M67.8723 85.7409C67.4713 85.6475 67.0804 85.5151 66.7052 85.3457C66.5687 85.3089 66.4363 85.2584 66.3099 85.1951C65.867 84.9199 65.5036 84.5338 65.2558 84.0751C65.1617 83.8868 65.0205 83.7362 64.917 83.5668C64.7336 83.3848 64.6495 83.1254 64.6911 82.8704C64.6911 82.7762 65.0299 82.6633 65.3782 82.5692C65.6364 82.4801 65.9055 82.4263 66.1782 82.4092C66.4699 82.5504 66.6676 82.5127 66.6864 82.8327C66.7052 83.1527 66.9123 82.9927 67.0346 83.0492C67.2009 83.1358 67.3782 83.1992 67.5617 83.2374C67.6899 83.2518 67.8194 83.2518 67.9476 83.2374C68.1567 83.25 68.366 83.2146 68.5593 83.1339C68.7005 83.0586 68.757 82.8139 68.8417 82.6539C68.9264 82.4939 68.8417 82.5786 68.8982 82.5692C68.9546 82.5598 69.124 82.6445 69.5099 83.1715L69.764 83.5198C70.0343 83.8262 70.1818 84.2218 70.1782 84.6304C70.1631 84.7989 70.1218 84.964 70.0558 85.1198C69.9838 85.2385 69.895 85.3463 69.7923 85.4398C69.5859 85.6057 69.3494 85.7304 69.0958 85.8068C68.6938 85.8725 68.2837 85.8725 67.8817 85.8068L67.8723 85.7409Z" fill="black"/>
<path d="M15.0629 67.9542C15.6605 68.8552 16.4238 69.6345 17.3123 70.2506C17.6663 70.466 18.0342 70.6578 18.4135 70.8247C19.7579 71.5486 21.2155 72.0387 22.7241 72.2742C23.4006 72.3824 24.0899 72.3824 24.7664 72.2742C25.6323 72.1706 26.4511 72.0106 27.2606 71.86C27.5335 71.86 27.7029 72.0577 27.6653 72.4906C27.6331 72.767 27.5501 73.035 27.4206 73.2812C27.2558 73.5503 27.026 73.7736 26.7523 73.9306C25.7747 74.4226 24.6938 74.6743 23.5994 74.6647C23.0712 74.6774 22.5428 74.6523 22.0182 74.5895C21.4959 74.5044 20.9824 74.3721 20.4841 74.1942C19.2528 73.8429 18.0455 73.4122 16.87 72.9047C15.6155 72.2381 14.5055 71.3297 13.6041 70.2318C13.35 69.8647 13.0676 69.5259 12.8417 69.1495L12.1829 67.973C11.7415 66.7535 11.4261 65.492 11.2417 64.2083C11.042 63.2016 10.9881 62.1715 11.0817 61.1495C11.0896 60.9219 11.1308 60.6968 11.2041 60.4812C11.4958 59.6812 11.7876 59.54 12.3711 59.54C12.4976 59.5464 12.6234 59.5622 12.7476 59.5871C13.1719 59.7567 13.4328 60.1865 13.3876 60.6412C13.4629 61.4412 13.3876 62.1095 13.4817 62.7965C13.5544 63.5005 13.6899 64.1966 13.8864 64.8765L14.1406 65.7424L14.4135 66.4671C14.4885 66.7142 14.5995 66.9489 14.7429 67.1636C14.854 67.3969 14.9897 67.6178 15.1476 67.8224L15.0629 67.9542Z" fill="black"/>
<path d="M88.7564 51.3314C88.4602 52.0695 88.1078 52.7838 87.7023 53.4679C87.4952 53.8067 87.3164 54.1644 87.0811 54.4844L86.394 55.4256C86.0872 55.9058 85.7442 56.362 85.3682 56.7903C85.0381 57.169 84.676 57.5185 84.2858 57.835C83.9093 58.1644 83.5517 58.5032 83.1752 58.7761C82.3957 59.3686 81.5783 59.9093 80.7282 60.395C80.3517 60.602 79.994 60.8373 79.6364 61.0632L78.5446 61.7314C77.6432 62.3557 76.6089 62.7617 75.5235 62.9173C75.1752 62.9173 75.0246 62.2585 75.0623 61.5056C75.0999 60.7526 75.307 59.962 75.8058 59.755L76.474 59.4914L77.114 59.162C77.5376 58.9456 77.9893 58.7761 78.4035 58.5503C78.8176 58.3244 79.2317 58.0985 79.674 57.882C80.1164 57.6656 80.4929 57.3926 80.9352 57.1667C81.9281 56.5014 82.7607 55.6238 83.3729 54.5973C83.787 54.0891 84.0693 53.4961 84.4364 52.9503C84.8035 52.4044 85.0576 51.7926 85.3023 51.1714L85.7446 50.0232L86.074 48.8656C86.2246 48.2538 86.3187 47.6326 86.4223 46.9832C86.5006 46.359 86.5227 45.729 86.4882 45.1008C86.4083 44.1471 86.2446 43.2023 85.9987 42.2773C85.9987 42.0703 85.914 41.8726 85.9046 41.6656C85.8459 41.3741 85.8787 41.0717 85.9987 40.7997C86.1551 40.5698 86.3569 40.3744 86.5917 40.2256C86.7046 40.1503 86.8082 40.0656 86.9117 40.0091C87.1014 39.9149 87.3243 39.9149 87.514 40.0091C87.8258 40.1035 88.0994 40.2947 88.2952 40.555C88.6363 40.9903 88.9507 41.4461 89.2364 41.9197C89.4863 42.3953 89.673 42.9015 89.7917 43.4256C89.939 43.9458 90.0398 44.4781 90.0929 45.0161C90.1085 45.5598 90.0865 46.1038 90.027 46.6444C89.9557 47.447 89.8236 48.243 89.6317 49.0256C89.4152 49.8067 89.2082 50.5879 88.9164 51.3408L88.7564 51.3314Z" fill="black"/>
<path d="M35.1755 18.0424C34.6766 18.2589 34.2343 18.5224 33.6978 18.7766C33.1613 19.0307 32.7566 19.3789 32.3143 19.7177C31.8719 20.0566 31.7402 20.3201 31.4296 20.6024C30.3117 21.6438 29.3595 22.8499 28.606 24.1789C28.2936 24.7757 28.0535 25.4076 27.8907 26.0613C27.7221 26.8979 27.4764 27.7171 27.1566 28.5083C27.0343 28.7718 26.7049 28.7813 26.2907 28.5083C25.8766 28.2354 25.2178 27.6801 25.2555 27.0683C25.2546 26.533 25.2923 25.9982 25.3684 25.4683C25.4931 24.9608 25.6568 24.4637 25.8578 23.9813C26.0743 23.5107 26.3002 23.0401 26.5543 22.5977C26.8084 22.1554 27.1284 21.7413 27.439 21.3366C28.239 20.3954 28.8507 19.2754 29.7355 18.3718C30.2125 17.8699 30.7321 17.4101 31.2884 16.9977L32.126 16.386L33.0672 15.8777C33.8161 15.5235 34.5899 15.2246 35.3825 14.9836C36.0037 14.8142 36.6249 14.673 37.2649 14.513C37.9049 14.353 38.526 14.3624 39.1472 14.2589C39.7684 14.1554 40.0884 14.1648 40.5872 14.1083C41.0699 14.0363 41.5585 14.0111 42.046 14.033C42.2584 14.0223 42.4711 14.0446 42.6766 14.0989C43.4484 14.3342 43.6178 14.5789 43.6931 15.1624C43.7019 15.2815 43.7019 15.401 43.6931 15.5201C43.6931 15.8589 43.2978 16.2636 42.7519 16.4613L42.1496 16.6683C41.9615 16.7172 41.7693 16.7487 41.5755 16.7624C41.1896 16.7624 40.8225 16.9224 40.4555 16.9789C40.0884 17.0354 39.7119 17.0354 39.3543 17.1013C38.9966 17.1671 38.639 17.2236 38.2813 17.2613C38.0127 17.2855 37.7476 17.3391 37.4907 17.4213L36.7096 17.6189C36.1936 17.7765 35.6876 17.9651 35.1943 18.1836L35.1755 18.0424Z" fill="black"/>
<path d="M39.6177 34.9848C37.6456 34.6252 35.6137 34.7907 33.7259 35.4648C30.319 36.6855 27.6567 39.3963 26.4977 42.8248C25.533 45.3285 25.4665 48.0892 26.3094 50.6365C27.2157 53.2626 28.8875 55.5573 31.1094 57.2248C33.1128 58.677 35.5245 59.4579 37.9988 59.4553C39.6075 59.5638 41.2234 59.469 42.8082 59.173C44.4186 58.8973 45.9894 58.4263 47.4859 57.7706C48.4271 57.3377 48.4835 57.6012 47.9377 58.4483C47.776 58.7011 47.59 58.9375 47.3824 59.1542C47.1325 59.4524 46.8552 59.7266 46.5541 59.973C45.8287 60.631 44.9723 61.1281 44.0412 61.4318C42.2382 62.0356 40.3596 62.3841 38.46 62.4671C36.508 62.5057 34.5654 62.1867 32.7282 61.5259C32.2518 61.3581 31.7866 61.16 31.3353 60.933C30.8597 60.7084 30.4005 60.4505 29.9612 60.1612C29.1613 59.5999 28.4119 58.9701 27.7212 58.2789C26.3084 56.9351 25.1592 55.3391 24.333 53.573C23.3188 51.4225 22.7765 49.0798 22.7424 46.7024C22.7306 44.3089 23.299 41.9482 24.3988 39.8224C26.8762 35.1777 31.4719 32.0413 36.7 31.4271C39.855 31.1295 43.0287 31.7506 45.8388 33.2153C47.9393 34.3505 49.7445 35.9622 51.1094 37.9212C51.7706 38.8928 52.3289 39.9306 52.7753 41.0177C53.2608 42.1185 53.578 43.2861 53.7165 44.4812C54.0333 48.1367 53.1547 51.7962 51.213 54.9095C50.8134 55.5974 50.3635 56.2549 49.8671 56.8765C49.2446 57.7517 48.43 58.4728 47.4859 58.9848C46.9835 59.258 46.39 59.3091 45.8482 59.1259C45.6279 59.0723 45.4135 58.9966 45.2082 58.9001C44.6341 58.5048 45.2082 57.4883 46.3188 55.9918C48.0281 53.869 49.2463 51.3941 49.8859 48.7448C50.1827 47.5132 50.2686 46.2403 50.14 44.9801C50.053 44.3789 49.9015 43.7888 49.6882 43.2201C48.0862 38.8526 44.2209 35.7133 39.6177 35.0412V34.9848Z" fill="black"/>
<path d="M33.1329 13.0447C36.2948 11.6922 39.8222 11.4532 43.1376 12.3671C44.3411 12.6461 45.5025 13.0828 46.5917 13.6659C50.2914 15.8 52.7835 19.5382 53.3305 23.7741C53.6 25.5245 53.5586 27.3087 53.2082 29.0447C52.9715 30.1529 52.5617 31.2169 51.9941 32.1977C51.8504 32.4407 51.69 32.6734 51.5141 32.8941C51.3258 33.1106 51.1188 33.3082 50.9211 33.5059C50.533 33.9026 50.1003 34.2532 49.6317 34.5506C49.067 34.9271 48.9541 34.6259 49.0293 33.9482C49.0293 33.6 49.1517 33.1859 49.2176 32.6965C49.2723 32.1905 49.354 31.6879 49.4623 31.1906C50.1107 29.5933 50.3313 27.8545 50.1023 26.1459C49.865 24.4482 49.3498 22.801 48.5776 21.2706C48.0897 20.3327 47.3945 19.5183 46.5446 18.8894C46.1198 18.5772 45.6622 18.3121 45.1799 18.0988L44.4646 17.7412C44.2199 17.6377 43.9658 17.5718 43.7117 17.4777C42.6135 17.0682 41.457 16.8363 40.2858 16.7906C39.6839 16.7577 39.0807 16.7577 38.4788 16.7906C37.8693 16.8372 37.2649 16.9348 36.6717 17.0824C35.171 17.4115 33.7506 18.0353 32.4929 18.9177C30.5299 20.2351 29.0523 22.159 28.2858 24.3953C28.1428 24.8189 28.0511 25.2581 28.0129 25.7035L27.9188 26.3718V27.04C27.9188 27.4918 27.9188 27.9153 27.9846 28.3671C28.0505 28.8188 28.1258 29.2424 28.2199 29.6753C28.3141 30.1082 28.4364 30.4188 28.5211 30.7859C28.7658 32.1882 28.6623 32.6682 27.8058 33.4212C27.6176 33.5812 27.4388 33.7788 27.2505 33.9106C26.6105 34.3812 25.6411 34.033 24.8693 32.7906C24.2952 31.8704 23.8845 30.8578 23.6552 29.7977C23.5322 29.2635 23.4379 28.7231 23.3729 28.1788C23.3258 27.6141 23.3164 27.04 23.3164 26.4659C23.3274 24.0825 23.9775 21.7456 25.1988 19.6988C27.0297 16.652 29.7961 14.2784 33.0858 12.9318L33.1329 13.0447Z" fill="black"/>
<path d="M36.823 39.7554C37.4381 39.9326 38.0682 40.0523 38.7054 40.1131C38.948 40.1051 39.19 40.0831 39.4301 40.0472C40.3445 40.093 41.2603 39.9881 42.1407 39.7366C42.5213 39.6051 42.8847 39.4281 43.223 39.2095C43.5983 38.8517 44.0483 38.5817 44.5407 38.4189C44.7289 38.4189 45.1713 38.7766 45.4818 39.3037C45.7924 39.8307 46.0654 40.5648 45.8207 40.9319C45.576 41.2989 45.3407 41.506 45.0866 41.7695C44.8138 42.0169 44.5279 42.2494 44.2301 42.466C43.8978 42.6003 43.5585 42.7165 43.2136 42.8142C42.8605 42.8927 42.5017 42.943 42.1407 42.9648C41.7223 42.9919 41.3085 43.0677 40.9077 43.1907C40.5064 43.3064 40.0976 43.3945 39.6842 43.4542C38.7602 43.5375 37.8291 43.4932 36.9171 43.3225C36.3566 43.2083 35.8035 43.0605 35.2607 42.8801C34.856 42.7295 34.4607 42.5413 34.0748 42.3625C33.6889 42.1837 33.3124 41.9578 32.9548 41.7225C32.5971 41.4872 32.343 41.4119 32.0701 41.2237C31.7971 41.0354 31.5148 40.8189 31.2607 40.5931C31.1407 40.5 31.036 40.3889 30.9501 40.2637C30.8616 40.1703 30.8171 40.0436 30.8277 39.9154C30.8274 39.807 30.8433 39.6992 30.8748 39.5954C30.9659 39.3796 31.108 39.189 31.2889 39.0401C31.378 38.95 31.4723 38.8652 31.5713 38.786C31.9514 38.553 32.3996 38.4567 32.8418 38.5131C33.1995 38.5131 33.3313 38.6448 33.6042 38.6542C33.8771 38.6637 34.056 38.7295 34.2442 38.7766C34.4326 38.79 34.6157 38.8446 34.7807 38.9366C34.9354 39.0199 35.0958 39.0922 35.2607 39.1531C35.763 39.3876 36.2903 39.5644 36.8324 39.6801L36.823 39.7554Z" fill="black"/>
<path d="M60.1925 68.5743C62.3598 67.491 64.1434 65.7699 65.3031 63.6425C65.6815 62.8624 65.9689 62.0413 66.1595 61.1955C66.373 60.4505 66.4963 59.6827 66.5266 58.9084C66.5501 58.5166 66.5501 58.1237 66.5266 57.7319C66.5242 57.5455 66.5053 57.3597 66.4701 57.1766C66.4555 56.9922 66.424 56.8094 66.376 56.6307C65.9853 54.9961 65.2822 53.4525 64.3054 52.0849C63.4175 50.8258 62.296 49.749 61.0019 48.9131C60.1915 48.4106 59.3341 47.9882 58.4419 47.6519C57.9995 47.5013 57.576 47.266 57.1242 47.1343L56.456 46.8802C56.2207 46.8237 55.9948 46.7578 55.7595 46.6825C55.176 46.4849 55.1948 45.8072 55.816 45.0825C56.6938 44.0969 58.0145 43.6283 59.3172 43.8402C60.6064 44.1077 61.837 44.605 62.9501 45.3084C64.045 45.9692 65.059 46.7557 65.9713 47.6519C66.8741 48.5291 67.676 49.5046 68.3619 50.5602C69.0784 51.6267 69.6542 52.7814 70.0748 53.9955C70.2066 54.3625 70.3101 54.739 70.4136 55.1437C70.5131 55.5562 70.5885 55.9742 70.6395 56.3955C70.7181 56.7933 70.7716 57.1956 70.7995 57.6002C70.855 57.9932 70.8864 58.3892 70.8936 58.786C70.9771 60.3761 70.7828 61.9686 70.3195 63.4919C69.2279 66.7441 67.0513 69.5221 64.1548 71.3602C62.4608 72.4641 60.5884 73.2665 58.6207 73.7319C57.1528 74.0913 55.6408 74.2371 54.1313 74.1649C52.6235 74.1211 51.1288 73.871 49.6889 73.4213C47.3897 72.7806 45.2785 71.5959 43.5336 69.9672C43.1319 69.6153 42.7804 69.21 42.4889 68.7625C42.274 68.4029 42.0913 68.025 41.9431 67.6331C41.8188 67.3622 41.7638 67.0646 41.7831 66.7672C41.8297 66.3125 42.0249 65.8858 42.3384 65.5531C42.4577 65.4037 42.5866 65.2622 42.7242 65.1296C42.9501 64.9507 43.2419 64.9884 43.6654 65.1296C43.8915 65.2188 44.1115 65.3226 44.3242 65.4402C44.4436 65.4955 44.5521 65.5721 44.6442 65.666C44.7625 65.7427 44.8728 65.831 44.9736 65.9296C45.2665 66.2141 45.5812 66.4753 45.9148 66.7107C46.0769 66.8216 46.2254 66.9511 46.3572 67.0966C46.5078 67.2284 46.6678 67.3413 46.8184 67.4637L47.2701 67.8213L47.7501 68.1413C48.052 68.3573 48.3662 68.5552 48.6913 68.7343C50.0651 69.4693 51.5726 69.9205 53.1242 70.0613C55.5382 70.2444 57.9522 69.7072 60.0607 68.5178L60.1925 68.5743Z" fill="black"/>
<path d="M85.7262 46.3525C85.7458 43.381 84.7496 40.492 82.9026 38.1642C82.1779 37.3542 81.3449 36.648 80.4273 36.0654C78.8131 34.8983 76.9782 34.0721 75.0344 33.6372C74.0213 33.4371 72.9889 33.3518 71.9568 33.383C70.8795 33.4114 69.809 33.5629 68.7662 33.8348C66.9491 34.3326 65.2983 35.3075 63.985 36.6583C62.2815 38.3995 61.312 40.7054 59.8344 42.8513C59.3826 43.5289 58.9779 43.2654 58.705 42.3995C58.5297 41.8452 58.4377 41.2679 58.432 40.6866C58.4109 40.3178 58.4362 39.9479 58.5073 39.5854C58.5978 39.2151 58.7271 38.8555 58.8932 38.5125C60.234 35.7583 62.3634 33.4651 65.0109 31.9242C66.3615 31.2029 67.7926 30.6438 69.2744 30.2583C70.7329 29.8545 72.2411 29.6581 73.7544 29.6748C75.621 29.684 77.4794 29.9211 79.2885 30.3807C80.2192 30.6095 81.1196 30.9475 81.9709 31.3878C82.8298 31.7993 83.6463 32.2943 84.4085 32.8654C87.6738 35.4916 89.8961 39.1955 90.6768 43.3125C91.1493 45.778 91.1173 48.3137 90.5826 50.7666C89.7422 54.4734 87.6682 57.7851 84.7003 60.1595C82.5618 62.1017 79.9746 63.4826 77.1709 64.1783C76.5526 64.3297 75.9231 64.4305 75.2885 64.4795C74.4244 64.5892 73.5471 64.4419 72.7662 64.056C72.5325 63.9296 72.33 63.7528 72.1732 63.5383C72.0403 63.3038 71.936 63.0542 71.8626 62.7948C71.7825 62.5948 71.7133 62.3906 71.6556 62.183C71.552 61.703 72.5968 60.856 73.9144 60.5736C75.8448 60.2041 77.6701 59.4136 79.2603 58.2583C80.0429 57.6974 80.7736 57.0674 81.4438 56.376C81.7826 56.0183 82.112 55.6419 82.385 55.256C82.5262 55.0772 82.6391 54.8795 82.7897 54.7101C82.9488 54.5496 83.0908 54.373 83.2132 54.183C84.9055 51.9674 85.7531 49.2212 85.6038 46.4372L85.7262 46.3525Z" fill="black"/>
<path d="M18.6194 75.2192C15.6837 74.1331 13.2355 72.0289 11.7206 69.2898C11.4382 68.8098 11.2029 68.3486 10.9394 67.8215C10.7233 67.3176 10.5348 66.8023 10.3747 66.278C9.89418 64.4129 9.8395 62.4636 10.2147 60.5745C10.5807 58.7336 11.3276 56.9895 12.4076 55.4545C13.3838 54.1157 14.5881 52.9592 15.9653 52.038C16.4183 51.744 16.8864 51.4738 17.3676 51.2286C17.8541 51.0149 18.3621 50.854 18.8829 50.7486C19.4066 50.6468 19.9404 50.6057 20.4735 50.6262C20.9982 50.6322 21.5201 50.7049 22.0264 50.8427C22.657 51.0027 22.4876 51.5015 21.9794 52.0851C21.4003 52.7564 20.7322 53.3454 19.9935 53.8356C19.3428 54.1509 18.714 54.5093 18.1112 54.9086C17.5203 55.3386 16.9832 55.8378 16.5112 56.3956C15.5183 57.575 14.6831 58.8785 14.0264 60.2733C13.6795 61.1916 13.535 62.174 13.6029 63.1533C13.6908 64.1553 13.9058 65.1421 14.2429 66.0898C14.6092 67.1202 15.1575 68.0766 15.8617 68.9133C16.5927 69.7576 17.4654 70.4678 18.4406 71.0121C19.664 71.6836 21.0271 72.0606 22.4217 72.1133C23.5 72.1351 24.5754 71.9955 25.6123 71.6992C26.6823 71.3944 27.7006 70.9312 28.6335 70.3251C29.9758 69.3587 31.0457 68.0619 31.7394 66.5603L32.1723 65.5627C32.3642 65.0919 32.6918 64.6889 33.1135 64.4051C33.4793 64.2092 33.8995 64.1398 34.3088 64.2074C34.5313 64.1928 34.7545 64.1928 34.977 64.2074C35.6641 64.3203 36.05 65.1486 35.9182 66.4192C35.758 67.3629 35.4398 68.2729 34.977 69.1109C34.4988 70.0138 33.9074 70.8519 33.217 71.6051C31.7729 73.1282 29.9943 74.2946 28.0217 75.0121C27.6641 75.1533 27.3159 75.2662 26.9582 75.3792L25.8006 75.6803C25.4106 75.7751 25.0143 75.8412 24.6147 75.878C24.2192 75.9409 23.8198 75.9755 23.4194 75.9815C21.8049 76.0452 20.1927 75.8058 18.6664 75.2756L18.6194 75.2192Z" fill="black"/>
<path d="M74.0083 17.3178C73.6356 17.7359 73.2295 18.1231 72.7942 18.4755C72.4953 18.7213 72.1809 18.9477 71.853 19.1531C71.5345 19.3239 71.2043 19.4717 70.8648 19.5955C70.4074 19.8084 69.9228 19.9573 69.4248 20.0378C69.0384 20.0581 68.6517 20.0038 68.2859 19.8778C67.906 19.7672 67.5745 19.5318 67.3448 19.2096C67.2224 19.0872 67.213 18.8519 67.1471 18.7108C67.082 18.553 67.0562 18.3818 67.0718 18.2119C67.062 17.8338 67.1227 17.4572 67.2506 17.1013C67.5279 16.3468 67.9079 15.6342 68.3801 14.9837C68.6624 14.5413 68.7942 14.2966 68.9918 14.0425C69.1904 13.7732 69.4284 13.5353 69.6977 13.3366C69.8765 13.2143 70.1024 13.4402 70.2906 13.779C70.507 14.1097 70.5972 14.5073 70.5448 14.899L70.3095 15.5672H70.253C70.0554 15.6964 69.8987 15.8792 69.8012 16.0943C69.6695 16.3296 69.8012 16.4896 69.8859 16.4708C70.01 16.4596 70.1328 16.4375 70.253 16.4049C70.3991 16.4024 70.5432 16.3704 70.6765 16.3108L70.9024 16.1978C71.0476 16.1042 71.186 16.0004 71.3165 15.8872C71.4918 15.7402 71.6584 15.583 71.8154 15.4166C71.9447 15.2777 72.0642 15.1299 72.173 14.9743C72.3074 14.8055 72.4037 14.6097 72.4554 14.4002C72.5419 14.1793 72.5419 13.9339 72.4554 13.7131C72.4176 13.6358 72.3589 13.5706 72.2859 13.5249C72.2509 13.5035 72.2128 13.4877 72.173 13.4778C72.173 13.4778 72.0789 13.4778 72.0883 13.4778V13.4778V13.4778L72.3424 13.0072V13.0072V13.0072C72.3376 13.051 72.3376 13.0952 72.3424 13.139C72.3335 13.2203 72.3335 13.3024 72.3424 13.3837C72.4128 13.6053 72.5108 13.8172 72.6342 14.0143C72.7189 14.1272 72.6342 14.0708 72.4271 13.9578C72.2201 13.8449 71.9471 13.5813 71.4859 13.186L70.8271 12.659C70.1212 12.1602 69.6695 11.4072 70.0742 10.7672C70.4139 10.164 70.9737 9.71545 71.6365 9.51546C71.8672 9.45459 72.104 9.41986 72.3424 9.41193C72.6075 9.40653 72.8725 9.42861 73.133 9.47781C73.6442 9.5887 74.1237 9.81394 74.5354 10.1366L74.7518 10.306L74.9118 10.4472C75.0038 10.5489 75.0857 10.6592 75.1565 10.7766C75.2407 10.8859 75.3353 10.9868 75.4389 11.0778C75.5612 11.1625 75.5706 11.3319 75.6365 11.4543C75.8314 11.998 75.9332 12.5708 75.9377 13.1484V13.8919L75.6271 14.9837C75.4295 15.3225 75.2318 15.6519 75.0624 15.9813C74.5448 16.6872 74.3565 16.9225 74.0648 17.3555L74.0083 17.3178Z" fill="black"/>
<path d="M69.4904 86.6721C68.9572 87.009 68.3563 87.2243 67.7304 87.3027C67.0931 87.3813 66.4463 87.3004 65.848 87.0674C65.4577 86.9538 65.0932 86.7652 64.7751 86.5121C64.5384 86.2894 64.3211 86.047 64.1257 85.7874C63.9098 85.4995 63.7355 85.1827 63.608 84.8462C63.399 84.2421 63.322 83.6002 63.3821 82.9638C63.4206 82.4252 63.5281 81.8938 63.7021 81.3827C63.8245 81.0338 64.0166 80.7136 64.2668 80.4415C64.5475 80.1254 64.9456 79.9383 65.368 79.9238C65.6221 79.9238 65.6974 80.4791 65.7915 81.0344C65.8395 81.4304 65.9541 81.8154 66.1304 82.1732C66.1304 82.3144 66.008 82.8132 65.9421 83.4062C65.9233 83.5493 65.9803 83.692 66.0927 83.7827C66.2527 83.896 66.4193 83.9997 66.5916 84.0932C66.8202 84.3296 67.1556 84.4295 67.4763 84.3568C67.7466 84.291 67.9899 84.143 68.1727 83.9332C68.4927 83.6321 68.7468 83.105 68.6433 82.8603C68.5398 82.6156 68.4268 82.9168 68.2668 82.9732C68.1068 83.0297 68.1727 83.0485 68.1163 83.0579C67.9092 83.0579 67.7774 82.9168 67.5798 82.1168L67.4292 81.5991C67.2233 81.1188 67.3708 80.56 67.7868 80.2438C68.1509 80.0592 68.5553 79.9687 68.9633 79.9803C69.5426 79.9919 70.1004 80.2011 70.5445 80.5732C71.0544 80.9907 71.4091 81.5675 71.5515 82.2109C71.659 82.7166 71.659 83.2393 71.5515 83.745C71.2951 84.9567 70.5801 86.0223 69.5563 86.7191L69.4904 86.6721Z" fill="black"/>
<path d="M63.8624 58.6362C63.826 58.5182 63.7401 58.422 63.6271 58.3726L62.9494 58.015C62.9494 58.015 62.8459 58.015 62.9494 58.015C63.0529 58.015 63.0059 58.015 63.0341 57.9585C63.0939 57.8352 63.126 57.7003 63.1282 57.5632C63.0914 57.4096 63.0443 57.2587 62.9871 57.1115C62.8633 56.4058 62.5362 55.7516 62.0459 55.2291C61.8399 55.0071 61.5758 54.8473 61.2835 54.7679C60.9165 54.6738 60.6341 54.7115 60.3424 54.5985C60.1371 54.3302 60.0428 53.9933 60.0788 53.6573C60.0788 53.1962 60.3894 52.6315 60.8318 52.622C61.542 52.5848 62.247 52.7619 62.8553 53.1303C63.3885 53.4744 63.8231 53.9511 64.1165 54.5138C64.5733 55.0984 64.9676 55.7293 65.2929 56.3962C65.67 57.3077 65.6322 58.3382 65.1894 59.2197L65.0294 59.4738V59.5397V59.5397C64.852 59.7332 64.6286 59.8789 64.38 59.9632C64.2273 60.0088 64.0687 60.031 63.9094 60.0291C63.7846 60.0177 63.6615 59.9924 63.5424 59.9538C63.2403 59.8397 62.9694 59.6559 62.7518 59.4173C62.2059 58.815 61.98 58.2409 61.5941 57.7515C61.297 57.4215 60.9829 57.1074 60.6529 56.8103C60.583 56.7622 60.5169 56.7087 60.4553 56.6503C60.2671 56.4338 60.3612 56.302 60.6529 55.7656L60.8412 55.4079C61.0029 55.0078 61.4501 54.8049 61.8576 54.9468C62.3845 55.1297 62.8798 55.3932 63.3259 55.7279C63.6901 56.0126 64.0076 56.3524 64.2671 56.735C64.4215 56.932 64.557 57.1431 64.6718 57.3656V57.4409V57.4409L64.5965 57.5444C64.5306 57.6197 64.4553 57.742 64.4082 57.7797C64.3612 57.8173 64.3235 57.8738 64.2859 57.9303C64.1622 58.11 64.058 58.3025 63.9753 58.5044C63.9638 58.5571 63.9638 58.6117 63.9753 58.6644V58.6644L63.8624 58.6362Z" fill="black"/>
<path d="M6.5354 35.473C6.28265 35.1472 6.0738 34.7896 5.91423 34.4094C5.75509 34.0235 5.66586 33.6124 5.6507 33.1953C5.63301 32.8153 5.67107 32.4348 5.76364 32.0659C5.82576 31.7158 5.93005 31.3745 6.07423 31.0494C6.17443 30.802 6.29402 30.5628 6.43187 30.3341C6.55157 30.0988 6.71439 29.8881 6.91187 29.713C7.52108 29.1577 8.2747 28.7858 9.08599 28.64C9.76324 28.5187 10.4549 28.4997 11.1378 28.5835C11.7169 28.6527 12.2919 28.7532 12.8601 28.8847C13.6896 28.9979 14.4016 29.5319 14.7425 30.2965C14.8366 30.5788 14.206 30.88 13.5848 31.1906C13.3005 31.3268 13.0268 31.4841 12.766 31.6612C12.5213 31.8118 12.3801 31.9247 12.333 31.9059C11.9001 31.7741 11.1189 31.6518 10.3283 31.5012C9.93735 31.432 9.54941 31.6376 9.38717 32C9.27909 32.1174 9.21004 32.2653 9.18952 32.4235C9.15323 32.5682 9.13428 32.7167 9.13305 32.8659C9.18117 33.1405 9.33704 33.3845 9.56599 33.5435C10.0618 33.9461 10.663 34.1977 11.2978 34.2682C11.5605 34.2853 11.8243 34.2599 12.0789 34.193L12.8319 34.0424C12.9331 34.0085 13.037 33.9833 13.1425 33.9671C13.5283 33.9671 13.6413 34.1177 13.933 34.8424L14.1213 35.3318C14.3468 35.8127 14.2191 36.3852 13.8107 36.7247C13.2287 37.1519 12.5658 37.4561 11.8625 37.6188C11.1857 37.6827 10.5031 37.6414 9.83893 37.4965C8.53948 37.2116 7.36341 36.5231 6.47893 35.5294L6.5354 35.473Z" fill="black"/>
<path d="M42.1118 49.8072C42.4681 49.3187 42.8515 48.8505 43.2601 48.4048C43.4106 48.2448 43.4954 48.019 43.6648 47.8684C44.2554 47.3123 44.9056 46.823 45.6036 46.4095C45.933 46.2213 46.2436 46.0048 46.5448 45.7884C46.9901 45.3543 47.6439 45.2119 48.2295 45.4213C48.4365 45.5154 48.3236 46.3154 48.2295 47.106C48.1926 47.4656 48.1769 47.827 48.1824 48.1884C48.1824 48.4895 48.2483 48.659 48.1824 48.6966C48.027 48.8002 47.8552 48.8765 47.6742 48.9225C47.5161 48.9746 47.3512 49.0032 47.1848 49.0072C47.0059 49.0072 46.7989 49.0072 46.5824 49.0637C46.0648 49.139 45.7824 49.5437 45.3965 49.8166C44.9539 50.1375 44.5297 50.4832 44.1259 50.8519C43.8735 51.0792 43.6347 51.3212 43.4106 51.5766C43.0488 51.9451 42.7328 52.3559 42.4695 52.8001C42.3126 53.1522 42.1989 53.522 42.1306 53.9013C42.1306 53.9766 42.1306 54.0613 42.0742 54.1366C41.9895 54.4095 41.8577 54.4566 41.4248 54.419H41.1236C40.8211 54.4016 40.5769 54.1654 40.5495 53.8637C40.5227 53.0142 40.7036 52.1709 41.0765 51.4072C41.3619 50.8479 41.6924 50.3128 42.0648 49.8072H42.1118Z" fill="black"/>
<path d="M32.6905 50.6254C33.1871 51.0529 33.6526 51.5153 34.0835 52.0089C34.2341 52.1878 34.4411 52.3195 34.5917 52.5172C34.8292 52.8762 35.031 53.2576 35.1941 53.656C35.3447 54.0701 35.4294 54.4842 35.5329 54.8795C35.6095 55.1993 35.707 55.5137 35.8247 55.8207C36.0368 56.2164 36.0841 56.6797 35.9564 57.1101C35.8905 57.2513 35.4011 57.2889 34.8835 57.2701C34.3658 57.2513 33.8105 57.1948 33.7164 57.0348C33.3543 56.5695 33.1003 56.0294 32.9729 55.4536C32.8491 55.1008 32.623 54.7928 32.3235 54.5689C32.0388 54.2274 31.7238 53.9124 31.3823 53.6278C31.1564 53.4584 30.94 53.2513 30.6953 53.0725C30.3296 52.778 29.9199 52.543 29.4811 52.376C29.1235 52.2819 28.7658 52.2254 28.4082 52.1219C28.3304 52.1095 28.2546 52.0873 28.1823 52.056C27.9 51.9336 27.8717 51.6795 27.9282 51.2372V50.9266C27.9971 50.6101 28.1996 50.339 28.4835 50.1831C28.9065 50.0159 29.3446 49.8899 29.7917 49.8066C30.1955 49.7177 30.6161 49.7438 31.0058 49.8819C31.6071 50.0445 32.1857 50.2816 32.7282 50.5878L32.6905 50.6254Z" fill="black"/>
</svg>
