<svg width="96" height="96" viewBox="0 0 96 96" fill="none" xmlns="http://www.w3.org/2000/svg">
<path d="M55.482 71.8204L63.9526 70.7004C63.9526 70.7004 75.8209 50.6816 76.5738 49.9945C77.9385 48.771 65.5809 72.7334 65.5809 72.7334L53.082 73.9757L55.482 71.8204Z" fill="black"/>
<path d="M29.5811 64.4137L33.4775 70.249L64.7434 19.416H57.9293L29.5811 64.4137V64.4137Z" fill="black"/>
<path d="M44.1035 74.0325L54.1365 73.0913L74.8988 37.7125C74.7294 37.9949 70.4941 29.9102 70.4941 29.9102L44.1035 74.0325Z" fill="black"/>
<path d="M64.2157 25.1656L62.851 22.7468L62.5122 22.1726L62.3334 21.8997C62.3312 21.8778 62.3312 21.8557 62.3334 21.8338C62.3151 21.7463 62.28 21.6632 62.2299 21.5891C62.1779 21.5503 62.1209 21.5186 62.0604 21.495H61.9663C61.9663 21.495 61.891 21.495 61.8157 21.495H61.571C60.9122 21.4385 60.2346 21.3915 59.5381 21.3632C58.3522 21.3068 57.1569 21.4385 55.9522 21.3632C51.7075 21.2597 47.4063 21.0244 43.124 21.015C41.2372 21.0271 39.3523 21.1371 37.4769 21.3444C36.2722 21.4573 35.0675 21.6456 33.8628 21.7491C32.6335 21.7873 31.4035 21.699 30.1922 21.4856C29.4204 21.335 29.4487 20.4126 30.004 19.3491C30.6223 18.0831 31.7093 17.1075 33.0346 16.6291C37.998 15.9442 43.0176 15.7582 48.0181 16.0738C51.0393 16.2715 54.164 15.9515 57.2699 15.9891C58.3804 15.9891 59.5004 16.0268 60.6299 16.102L61.4863 16.1679L62.4275 16.2432C62.8666 16.2594 63.3023 16.3257 63.7263 16.4409C64.1405 16.5334 64.5465 16.6593 64.9404 16.8173C65.6694 17.3822 66.2829 18.0819 66.7475 18.8785C67.0957 19.4244 67.3969 19.9326 67.6887 20.4597C68.7616 22.2856 69.7499 24.1209 70.7757 25.9279C72.3287 28.6668 73.7969 31.462 75.4816 34.0973C76.771 36.1491 78.3052 37.9938 79.7357 39.895C80.0557 40.3091 80.4134 40.6856 80.6769 41.1279C80.9245 41.4522 81.1242 41.8103 81.2699 42.1915C81.3939 42.4691 81.4488 42.7727 81.4299 43.0762C81.2982 43.6416 81.0336 44.1675 80.6581 44.6103C80.4887 44.8362 80.3663 45.0809 80.2063 45.2503C79.8865 45.5502 79.4347 45.664 79.011 45.5515C78.6929 45.5086 78.3783 45.4425 78.0699 45.3538C77.7132 45.2438 77.3897 45.0465 77.1287 44.7797C75.5245 43.217 74.0833 41.4952 72.8275 39.6409C71.5287 37.7585 70.3334 35.8762 69.1663 33.9468C67.4346 31.0668 65.8157 28.1115 64.1216 25.2597L64.2157 25.1656Z" fill="black"/>
<path d="M25.8633 34.4365C25.1292 35.5941 24.3857 36.7612 23.6704 37.947C23.4162 38.38 23.2751 38.8882 23.0021 39.2929C22.0609 40.7894 20.9033 42.2294 19.9339 43.7447C19.511 44.4167 19.1367 45.1181 18.8139 45.8435C18.3642 46.7952 17.7235 47.6442 16.9315 48.3376C16.6492 48.5447 16.1974 48.2059 15.7927 47.6506C15.3352 47.1284 15.0754 46.4623 15.0586 45.7682L15.3974 44.2812C15.5626 43.8099 15.7673 43.3534 16.0092 42.9165C16.472 42.005 17.0136 41.1358 17.628 40.3188C18.2661 39.2324 18.829 38.1034 19.3127 36.94C19.9809 35.7259 20.6868 34.5212 21.3833 33.307C21.8068 32.5635 22.2492 31.82 22.6633 31.067C23.2657 29.9094 24.0374 28.827 24.6586 27.6788C25.1292 26.7376 25.4209 25.7965 25.8915 24.8553C25.9818 24.6418 26.0855 24.4344 26.2021 24.2341C26.3654 23.9368 26.6474 23.7228 26.9778 23.6456C27.3081 23.5684 27.6557 23.6352 27.9339 23.8294C28.1033 23.9141 28.2727 23.9894 28.4327 24.0835C28.9176 24.4247 29.1833 24.999 29.1292 25.5894C28.9174 27.3813 28.481 29.1394 27.8304 30.8223C27.7257 31.1427 27.6032 31.4569 27.4633 31.7635L26.9645 32.6576L25.9574 34.4553L25.8633 34.4365Z" fill="black"/>
<path d="M26.5691 57.5058C27.3503 58.8988 28.1315 60.3294 28.9503 61.6564C29.2421 62.1552 29.6468 62.5976 29.8915 63.0682C30.9174 64.8376 31.9056 66.6352 33.0162 68.3388C33.5294 69.0653 34.0824 69.7628 34.6727 70.4282L35.7644 71.6894C35.9432 71.9058 36.1032 72.1223 36.2538 72.3294C36.4044 72.5364 36.395 72.5458 36.4703 72.6682C36.5456 72.7905 36.5738 72.8564 36.6209 72.9599C36.7244 73.2235 36.4232 73.9011 35.7268 74.2588C34.9823 74.7023 34.0626 74.7343 33.2891 74.3435C32.7621 73.9576 32.2632 73.5529 31.8021 73.1482C31.5653 72.95 31.3391 72.7396 31.1244 72.5176L30.5597 71.7929C29.8362 70.8223 29.2059 69.7855 28.6774 68.6964C27.9106 67.4489 27.0484 66.2626 26.0985 65.1482C25.1574 63.8399 24.2915 62.5035 23.4068 61.167L21.788 58.7294C21.0278 57.433 20.2016 56.1764 19.3127 54.9647C18.5553 54.1022 17.7509 53.2821 16.9032 52.5082C16.7199 52.3392 16.5529 52.1532 16.4044 51.9529C15.8774 51.1811 15.9432 50.7576 16.6209 49.9952C16.7646 49.817 16.9186 49.6473 17.0821 49.487C17.6082 48.9804 18.4051 48.8808 19.0397 49.2423C19.5372 49.4864 20.0126 49.773 20.4609 50.0988C20.8844 50.4376 21.2891 50.7858 21.6844 51.1623C22.4527 51.9118 23.1785 52.7037 23.8585 53.5341C24.3668 54.1458 24.8562 54.7858 25.3362 55.4164C25.8162 56.047 26.2021 56.7623 26.6538 57.4211L26.5691 57.5058Z" fill="black"/>
<path d="M71.5949 67.5202L69.5149 71.1061L68.969 72.0472L68.696 72.5084L68.5455 72.7437L68.3007 73.1014C68.0007 73.5887 67.6539 74.0458 67.2655 74.4661C66.8301 74.8634 66.2921 75.1308 65.7125 75.2378C65.5024 75.2962 65.2886 75.3402 65.0725 75.3696L64.4702 75.4731L63.6796 75.5955C63.1717 75.6824 62.6596 75.742 62.1455 75.7743C58.5502 75.9437 55.0396 76.0002 51.5102 76.0943C49.9384 76.0943 48.376 76.2449 46.8043 76.4049C45.8215 76.5476 44.8319 76.6387 43.8396 76.6778C42.8343 76.6962 41.8288 76.6585 40.8278 76.5649C40.1972 76.4896 40.2066 75.9908 40.6396 75.3131C41.2229 74.4053 42.0657 73.6937 43.0584 73.2708C43.5467 73.0797 44.0465 72.9194 44.5549 72.7908L46.0796 72.5084C47.0866 72.3202 48.1031 72.1696 49.1196 72.0378C50.1337 71.892 51.1547 71.7978 52.1784 71.7555C53.2043 71.7555 54.2396 71.7555 55.2749 71.8308C57.7597 71.8189 60.2409 71.6365 62.7007 71.2849L63.6419 71.1814H64.0937C64.3855 71.1814 64.4796 70.899 64.7055 70.6355C65.3925 69.5437 66.1172 68.339 66.8043 67.1625C67.6513 65.6943 68.5078 64.2261 69.336 62.739C70.5972 60.4896 71.9149 58.2496 73.1007 55.9719C74.0419 54.1931 74.7102 52.339 75.5949 50.5225C75.7925 50.1178 75.9713 49.7037 76.1972 49.3084C76.3717 48.9722 76.5833 48.6565 76.8278 48.3672C77.0334 48.1865 77.2692 48.0431 77.5243 47.9437C77.9638 47.7596 78.4588 47.7596 78.8984 47.9437C79.0968 48.0116 79.2889 48.0967 79.4725 48.1978C79.7459 48.413 79.9138 48.7352 79.9337 49.0825C79.9706 49.2909 79.9926 49.5016 79.9996 49.7131C80.0177 49.9905 79.9987 50.269 79.9431 50.5414C79.3502 52.0755 78.6631 53.7037 77.9102 55.3414C77.1572 56.979 76.3384 58.6166 75.5007 60.2543C74.2584 62.7014 72.9313 65.1202 71.6419 67.5766L71.5949 67.5202Z" fill="black"/>
<path d="M42.3998 31.7552L36.1034 40.7622C35.3504 41.8634 34.7104 43.0399 33.9387 44.1316C31.2218 47.9842 28.4516 51.8116 25.6281 55.614C24.3951 57.3081 23.2751 59.0869 22.1645 60.8469C21.4493 61.9763 20.7998 63.134 20.0469 64.254C19.2505 65.3552 18.3456 66.3736 17.3457 67.294C16.7057 67.8775 16.1975 67.294 15.9245 66.2775C15.7759 65.6611 15.7001 65.0293 15.6987 64.3952C15.6895 63.6439 15.8302 62.8984 16.1128 62.2022C18.8127 57.4873 21.8315 52.9622 25.1481 48.6587C27.2281 46.0987 28.9128 43.1057 30.7293 40.3199L36.9222 31.1434L40.6869 25.4963L43.5104 21.1952C44.4516 19.774 45.3928 18.3716 46.334 16.9034C47.0398 15.774 47.6893 14.6257 48.3198 13.4775L49.261 11.7457C49.5904 11.181 49.9575 10.6257 50.3057 10.0799C50.654 9.53398 50.8987 9.13869 51.2469 8.62104C51.6783 7.95707 52.2231 7.37408 52.8563 6.89869C53.2767 6.63551 53.7788 6.53509 54.2681 6.61633C54.4743 6.63029 54.679 6.66178 54.8798 6.71045C55.181 6.82339 55.2845 7.13398 55.294 7.65163C55.3125 8.29758 55.1905 8.93984 54.9363 9.53398C54.1428 11.8088 53.1996 14.0285 52.1128 16.1787C51.0398 18.2587 49.8163 20.414 48.5646 22.541C46.6822 25.694 44.5269 28.7152 42.5034 31.8116L42.3998 31.7552Z" fill="black"/>
<path d="M47.6983 40.7052L41.4489 49.9664C40.696 51.0958 40.0654 52.3005 39.2936 53.4299C36.5831 57.3734 33.8442 61.317 31.0489 65.2134C29.8348 66.9546 28.7054 68.7711 27.6136 70.5781C26.8983 71.7358 26.2395 72.9217 25.4866 74.0699C24.6771 75.2006 23.7564 76.2474 22.7383 77.1946C22.0889 77.797 21.5807 77.2511 21.3172 76.1781C21.1645 75.5624 21.0886 74.9302 21.0913 74.2958C21.074 73.5326 21.2117 72.7737 21.496 72.0652C24.1814 67.2448 27.1874 62.61 30.4936 58.1923C32.5642 55.557 34.1831 52.4887 36.0372 49.637L42.2019 40.2252L45.9666 34.4181L48.7901 30.004C49.7313 28.5452 50.6725 27.077 51.6136 25.5899C52.3007 24.4229 52.9219 23.2464 53.5431 22.0229L54.4842 20.2534C54.8042 19.6699 55.1525 19.1052 55.5007 18.5311C55.8489 17.957 56.0842 17.524 56.4419 17.0346C56.8512 16.3525 57.3768 15.7472 57.9948 15.2464C58.4034 14.9767 58.8902 14.8509 59.3783 14.8887C59.5884 14.8782 59.7989 14.8782 60.0089 14.8887C60.3195 14.9734 60.4513 15.2652 60.4889 15.7546C60.512 16.3973 60.4031 17.038 60.1689 17.637C59.4098 19.9834 58.4851 22.2731 57.4019 24.4887C56.2819 26.7099 55.0772 28.9217 53.8348 31.077C51.9525 34.3052 49.8442 37.4299 47.8395 40.6017L47.6983 40.7052Z" fill="black"/>
<path d="M53.7881 43.3977L46.974 54.0236C46.1552 55.3224 45.4587 56.6871 44.6305 57.9859C41.694 62.5318 38.7387 67.0777 35.7269 71.5954C34.4093 73.6095 33.1858 75.6989 31.9622 77.7601C31.1905 79.0965 30.4658 80.4518 29.6564 81.7695C28.7804 83.076 27.7813 84.2957 26.6728 85.4118C25.9293 86.1271 25.4587 85.5436 25.2328 84.4142C24.9348 82.9043 25.0719 81.3409 25.6281 79.9059C28.5728 74.3903 31.8314 69.0482 35.3881 63.9059C37.6187 60.8471 39.3975 57.3177 41.4116 54.0612L48.1222 43.2659C49.5152 41.0542 50.9458 38.833 52.2822 36.6212L55.4352 31.5859C56.4987 29.9107 57.5622 28.2448 58.5787 26.5601C59.3787 25.2518 60.1034 23.9248 60.8375 22.5977C61.534 21.2446 62.3102 19.934 63.1622 18.673C63.5293 18.1083 63.8775 17.5436 64.2916 16.9977C64.6117 16.5634 64.9574 16.1485 65.3269 15.7554C65.584 15.4693 65.8784 15.2192 66.2022 15.0118C66.4515 14.8681 66.7213 14.7634 67.0022 14.7012C67.2542 14.6543 67.5126 14.6543 67.7646 14.7012C67.9795 14.724 68.1911 14.7714 68.3952 14.8424C68.6775 14.9836 68.7246 15.3318 68.6681 15.7836C68.6293 16.0792 68.5696 16.3717 68.4893 16.6589C68.3768 17.0364 68.2352 17.4045 68.0658 17.7601C66.9269 20.1412 65.9858 22.7859 64.6116 25.1954C63.2375 27.6048 61.9293 30.1271 60.5364 32.6024C58.4187 36.2542 56.094 39.8118 53.8916 43.4354L53.7881 43.3977Z" fill="black"/>
<path d="M62.6534 49.016L56.0652 59.0207C55.2746 60.2348 54.6064 61.5336 53.8064 62.7854C50.964 67.0521 48.0809 71.2999 45.157 75.5289C43.877 77.4113 42.6911 79.3689 41.5334 81.3078C40.7805 82.5501 40.084 83.8301 39.2934 85.0725C38.4409 86.2917 37.4734 87.4263 36.404 88.4607C35.717 89.1195 35.2181 88.5642 34.9734 87.4536C34.8351 86.798 34.7751 86.1282 34.7946 85.4583C34.7961 84.6539 34.956 83.8575 35.2652 83.1148C38.1218 77.9361 41.2899 72.9356 44.7523 68.1407C46.917 65.3172 48.6393 61.9948 50.5876 58.9078L57.0723 48.7619L61.044 42.5125L64.037 37.7501C65.0346 36.1407 66.0981 34.5595 67.0393 32.9595C67.7734 31.7172 68.4511 30.456 69.1099 29.1948L70.1076 27.3125C70.4558 26.6913 70.8323 26.0889 71.2087 25.4772C71.5852 24.8654 71.8205 24.3948 72.197 23.8678C72.6515 23.1385 73.2203 22.4871 73.8817 21.9383C74.3058 21.631 74.8295 21.4934 75.3499 21.5525C75.5587 21.5532 75.7668 21.5753 75.9711 21.6183C76.2723 21.7219 76.3758 22.0419 76.3758 22.5595C76.3664 23.2349 76.229 23.9023 75.9711 24.5266C75.1015 27.0031 74.0864 29.4262 72.9311 31.7831C71.7358 34.1454 70.4464 36.4889 69.1664 38.8607C67.1711 42.3336 64.9499 45.6936 62.8417 49.1195L62.6534 49.016Z" fill="black"/>
<path d="M69.5241 52.9592L63.8771 61.5616C63.1994 62.6157 62.6441 63.7357 61.9947 64.7804C59.5476 68.4572 57.0598 72.109 54.5312 75.7357C53.4112 77.3545 52.4135 79.0486 51.4159 80.7239C50.7665 81.7969 50.1924 82.9074 49.5335 83.971C48.7918 85.0275 47.933 85.9968 46.9735 86.8604C46.3618 87.4063 45.8535 86.8604 45.5524 85.8345C45.3758 85.2473 45.2746 84.6401 45.2512 84.0274C45.2021 83.3206 45.3048 82.6114 45.5524 81.9474C47.927 77.4779 50.6095 73.1789 53.5806 69.0816C55.4629 66.6439 56.9029 63.7827 58.5688 61.1286L64.1218 52.3851L67.5194 46.9921L70.0794 42.8886C70.9359 41.5239 71.8018 40.1686 72.6018 38.7851C73.2229 37.7121 73.7876 36.6204 74.3429 35.5192L75.1712 33.8627C75.4629 33.3263 75.7829 32.7992 76.1124 32.2721C76.4418 31.7451 76.6394 31.331 76.9688 30.8792C77.3608 30.2419 77.8684 29.6833 78.4653 29.2321C78.8797 28.9806 79.3721 28.8902 79.8488 28.978C80.0494 28.9985 80.2477 29.0363 80.4418 29.091C80.7335 29.2039 80.8465 29.5051 80.8841 29.9663C80.9266 30.5582 80.8399 31.1523 80.63 31.7074C79.9601 33.8648 79.1457 35.9747 78.1924 38.0227C77.1947 40.0745 76.1218 42.1263 75.0206 44.1592C73.3359 47.1616 71.4253 50.051 69.6276 53.0063L69.5241 52.9592Z" fill="black"/>
</svg>
