<svg width="96" height="96" viewBox="0 0 96 96" fill="none" xmlns="http://www.w3.org/2000/svg">
<path d="M36.5276 37.3138C37.0418 37.1003 37.5362 36.8421 38.0052 36.5421C38.1747 36.4291 38.2311 36.2409 38.4005 36.1185C39.0753 35.6894 39.7058 35.1945 40.2829 34.6409C40.5252 34.3647 40.7136 34.0454 40.8382 33.6997C41.017 33.2668 41.0547 32.7585 41.5911 32.5044C41.7511 32.4291 42.4382 32.7774 43.0782 33.2291C43.7182 33.6809 44.3111 34.2268 44.2358 34.5091C43.9682 35.5486 43.3664 36.4712 42.5229 37.135C41.9676 37.5491 41.7511 38.2174 41.2241 38.7068C40.6719 39.2301 40.0662 39.6938 39.417 40.0903C39.0311 40.335 38.6452 40.5421 38.2782 40.7679C37.7135 41.0879 37.1582 41.3891 36.6594 41.7091C36.3067 42.0132 35.9908 42.3575 35.7182 42.735C35.6429 42.7915 35.5864 42.8856 35.5017 42.9327C35.21 43.1209 34.89 42.9327 34.3723 42.415L34.0147 42.0668C33.6505 41.7188 33.449 41.2339 33.4594 40.7303C33.5128 40.4382 33.582 40.1491 33.6664 39.8644C33.7635 39.6232 33.8799 39.3903 34.0147 39.1679C34.1405 38.9538 34.282 38.7493 34.4382 38.5562L34.6547 38.2832L34.9276 38.095C35.4547 37.7374 36.01 37.4738 36.49 37.1538L36.5276 37.3138Z" fill="black"/>
<path d="M30.9177 33.8121C29.8327 32.4439 28.6799 31.1309 27.4635 29.878C27.0118 29.4263 26.4753 29.078 26.033 28.6168C24.433 27.0168 22.7482 25.4921 20.9882 24.0145C20.1987 23.3821 19.3652 22.8065 18.4941 22.2921C17.3269 21.7232 16.2307 21.0187 15.2282 20.1933C14.9365 19.8921 15.2753 19.3651 15.8871 18.9604C16.5313 18.4875 17.3563 18.335 18.1271 18.5463C19.3954 19.0558 20.628 19.65 21.8165 20.3251C23.0225 20.9963 24.1335 21.8256 25.12 22.791C26.3153 23.958 27.8306 24.7957 29.12 25.8874C30.5435 27.0734 31.9068 28.3299 33.2047 29.6521C33.9953 30.4898 34.7859 31.3086 35.5482 32.1651C36.7341 33.4263 37.7788 34.8098 38.9553 36.0615C39.3977 36.5604 39.8965 37.0027 40.3953 37.4639C40.8941 37.9251 41.3365 38.4051 41.7788 38.9133C41.9906 39.117 42.1857 39.3373 42.3624 39.5721C42.4342 39.675 42.5002 39.7818 42.56 39.8921C42.5931 40.0032 42.6182 40.1164 42.6353 40.231C42.6733 40.4204 42.6733 40.6156 42.6353 40.8051C42.5213 41.2047 42.2961 41.5638 41.9859 41.8404C41.8355 42.0126 41.6752 42.1761 41.5059 42.3298C40.8547 42.7931 40.0017 42.8618 39.2847 42.5086C38.2329 41.9408 37.2425 41.2659 36.3294 40.4945C35.908 40.111 35.5235 39.6888 35.1812 39.2333C34.8047 38.791 34.4471 38.3486 34.0988 37.8874C33.0165 36.5698 31.9906 35.1674 30.8235 33.878L30.9177 33.8121Z" fill="black"/>
<path d="M33.5247 40.0252C34.5186 40.2494 35.524 40.4191 36.5364 40.5335C36.9956 40.5887 37.4575 40.617 37.92 40.6182C38.1176 40.6182 38.3435 40.6182 38.5223 40.6182H38.7764H38.8988C39.1247 40.6182 39.2564 40.4299 39.3882 40.2888C39.4604 40.2254 39.5237 40.1525 39.5764 40.0723C39.6211 40.0171 39.6532 39.9529 39.6706 39.8841L39.8117 39.5076C40.0041 38.8933 40.1427 38.2635 40.2259 37.6252C40.4194 36.2348 40.4981 34.8309 40.4612 33.4276C40.4281 32.148 40.315 30.8718 40.1223 29.6064C39.7559 27.9784 39.5697 26.3151 39.567 24.6464C39.567 24.1099 40.3012 24.0158 41.1388 24.2793C42.108 24.5394 42.928 25.1858 43.407 26.0676C44.0781 27.7156 44.6255 29.4112 45.0447 31.1405C45.2495 32.023 45.3506 32.9264 45.3459 33.8323C45.3762 34.7752 45.3353 35.7191 45.2235 36.6558C45.1012 37.7852 45.0635 38.9523 44.9223 40.2323C44.9223 40.5617 44.8188 40.8629 44.7906 41.2958C44.6851 41.7168 44.5563 42.1315 44.4047 42.5382C44.1113 43.3636 43.6276 44.1084 42.9929 44.7123C42.2453 45.3177 41.3647 45.737 40.4235 45.9358C39.6837 46.09 38.9298 46.1657 38.1741 46.1617C36.8828 46.1494 35.595 46.0266 34.3247 45.7946C32.8188 45.5405 31.3694 45.1829 29.9388 44.8535C27.7647 44.2982 25.6753 43.5546 23.5576 42.9711C21.92 42.4911 20.2164 42.2558 18.5317 41.7476C18.1553 41.6441 17.7694 41.5593 17.4023 41.4182C16.8974 41.1628 16.493 40.7452 16.2541 40.2323C16.1391 39.7362 16.1652 39.2179 16.3294 38.7358C16.3815 38.5031 16.4475 38.2736 16.527 38.0488C16.6962 37.6933 16.9865 37.4096 17.3459 37.2488C17.7703 36.9803 18.2562 36.8248 18.7576 36.797C19.13 36.7592 19.5052 36.7592 19.8776 36.797L20.9129 36.9758C21.6188 37.1076 22.3153 37.2582 23.0117 37.4182C24.4235 37.7476 25.8353 38.1335 27.247 38.5005C29.3459 39.037 31.4635 39.6205 33.5435 39.9593L33.5247 40.0252Z" fill="black"/>
<path d="M56.6871 57.8403C57.5624 57.3509 58.4565 56.8992 59.3412 56.5227C59.6411 56.3207 59.9557 56.1413 60.2824 55.9862C60.8753 55.7603 61.4871 55.6003 62.08 55.4309L63.9624 55.1392C64.479 55.0337 64.9835 54.876 65.4682 54.6686C66.0563 54.2899 66.7723 54.1643 67.4541 54.3203C67.6894 54.3956 67.8682 55.2615 67.9435 56.1274C68.0188 56.9933 68.0188 58.0098 67.7553 58.1792C66.8689 58.8944 65.8054 59.3563 64.6777 59.5156C63.9899 59.6601 63.3454 59.9631 62.7953 60.4003C62.0988 60.7486 61.3835 61.0968 60.6965 61.5015C60.2702 61.7459 59.8614 62.0195 59.473 62.3203C58.8697 62.7561 58.3087 63.2476 57.7977 63.7886C57.6379 64.0297 57.5142 64.2929 57.4306 64.5698C57.3835 64.7109 57.3553 64.8615 57.3177 65.0027C57.2663 65.1306 57.2033 65.2535 57.1294 65.3698C57.0786 65.4793 57.0221 65.5861 56.96 65.6898C56.6588 66.0286 56.3012 65.9815 55.3412 65.5486L54.7012 65.2568C54.0792 65.0094 53.6066 64.4882 53.4212 63.845C53.2177 63.0931 53.2177 62.3005 53.4212 61.5486C53.6486 60.8815 53.9652 60.2484 54.3624 59.6662C55.0356 58.936 55.8013 58.2969 56.64 57.765L56.6871 57.8403Z" fill="black"/>
<path d="M69.0918 62.4524L72.7813 66.2171C73.2236 66.6689 73.7224 67.0171 74.1836 67.4877C75.7177 69.1348 77.2236 70.7912 78.6824 72.4948C79.3318 73.2477 80.0377 73.9442 80.7436 74.6218C81.7234 75.4234 82.5686 76.3767 83.2471 77.4453C83.4354 77.803 82.946 78.1983 82.2495 78.3865C81.5366 78.6646 80.7371 78.6129 80.066 78.2453C79.1248 77.483 78.0895 76.7112 77.1483 75.8924C76.1818 75.0924 75.3017 74.1934 74.5224 73.21C73.4611 72.0832 72.2986 71.0562 71.0495 70.1418L67.1907 66.7818C66.3907 66.0948 65.5907 65.4077 64.7718 64.7583C63.5535 63.7444 62.2776 62.8017 60.9507 61.9348C59.8683 61.3324 58.7201 60.8806 57.6565 60.2971C57.4213 60.1748 57.1671 60.0806 56.9507 59.9395L56.6401 59.723C56.577 59.6396 56.5204 59.5515 56.4707 59.4595C56.3822 59.3016 56.3218 59.1297 56.2918 58.9512C56.264 58.538 56.3383 58.1242 56.5083 57.7465C56.593 57.5206 56.6589 57.3042 56.753 57.1065C57.1459 56.4147 57.8976 56.006 58.6918 56.0524C59.0091 56.0371 59.3267 56.072 59.633 56.1559L60.5083 56.3724C61.0888 56.534 61.6606 56.7256 62.2213 56.9465C63.2677 57.4952 64.2522 58.1546 65.1577 58.9136C66.5413 59.9959 67.8401 61.21 69.1483 62.3865L69.0918 62.4524Z" fill="black"/>
<path d="M63.8031 57.3605C62.7993 57.198 61.7877 57.088 60.7725 57.0311C60.2831 57.0311 59.8313 57.0311 59.389 57.0311C59.1913 57.0311 58.9654 57.0311 58.7866 57.0876H58.5325H58.4101C58.1843 57.0876 58.0713 57.2946 57.949 57.4452C57.8798 57.5159 57.8197 57.5949 57.7701 57.6805C57.7288 57.7329 57.6998 57.7941 57.6854 57.8593L57.5631 58.2452C57.4129 58.8637 57.3122 59.4931 57.2619 60.1276C57.1444 61.5243 57.1444 62.9285 57.2619 64.3252C57.3687 65.5904 57.5542 66.8477 57.8172 68.0899C58.2773 69.6919 58.5613 71.3393 58.6643 73.0028C58.6643 73.5487 57.9678 73.6805 57.1207 73.464C56.1496 73.2774 55.2965 72.703 54.7584 71.8734C54.0053 70.2673 53.376 68.606 52.876 66.904C52.6145 66.0379 52.4566 65.1438 52.4054 64.2405C52.3336 63.3007 52.3336 62.3568 52.4054 61.417C52.4619 60.2876 52.4054 59.1111 52.4996 57.8311C52.4996 57.5017 52.5654 57.2005 52.5654 56.7581C52.6487 56.3229 52.7555 55.8924 52.8854 55.4687C53.133 54.6282 53.5747 53.8577 54.1749 53.2193C54.8847 52.5739 55.7356 52.1033 56.6596 51.8452C57.3921 51.6514 58.1428 51.5347 58.8996 51.497C60.1906 51.4289 61.4852 51.4761 62.7678 51.6381C64.2831 51.7981 65.7513 52.0711 67.2007 52.3534C69.3937 52.7864 71.5301 53.4076 73.676 53.897C75.3419 54.2828 77.0549 54.424 78.7678 54.8381C79.1526 54.9057 79.533 54.9969 79.9066 55.1111C80.4296 55.3302 80.8616 55.7223 81.1301 56.2217C81.2668 56.7079 81.2668 57.2225 81.1301 57.7087C81.0909 57.947 81.0375 58.1827 80.9701 58.4146C80.8256 58.7791 80.5551 59.0797 80.2078 59.2617C79.7967 59.5545 79.3168 59.7361 78.8149 59.7887C78.4474 59.844 78.0754 59.863 77.7043 59.8452L76.5749 59.7228C75.869 59.6287 75.1631 59.5252 74.4572 59.4028C73.036 59.1581 71.6337 58.857 70.1749 58.5652C68.0384 58.1511 65.8925 57.6993 63.8031 57.4828V57.3605Z" fill="black"/>
<path d="M36.3669 60.665C35.9399 59.9811 35.4345 59.3493 34.861 58.7827C34.6351 58.5568 34.3339 58.4344 34.1081 58.2086C33.3502 57.3671 32.5011 56.6127 31.5763 55.9591C31.1916 55.6973 30.7492 55.5326 30.2869 55.4791C30.0457 55.4595 29.8033 55.4595 29.5622 55.4791C29.3412 55.4887 29.1231 55.4259 28.941 55.3003C28.5547 54.7674 28.3205 54.1395 28.2634 53.4839C28.1222 52.5427 28.5269 51.4697 29.2045 51.3568C30.2299 51.1822 31.2821 51.2564 32.2728 51.5733C33.1148 51.8348 33.874 52.3117 34.4751 52.9568C35.2307 53.565 36.0332 54.1126 36.8751 54.5944C37.7133 55.2414 38.4943 55.9593 39.2092 56.7403C39.661 57.2391 40.0845 57.7756 40.4892 58.3215C41.0709 59.182 41.5929 60.0813 42.0516 61.0133C42.4281 61.7097 43.0586 62.3121 43.4539 63.0274C43.5216 63.1864 43.5782 63.35 43.6234 63.5168C43.6576 63.6527 43.6576 63.795 43.6234 63.9309C43.5379 64.0684 43.422 64.1843 43.2845 64.2697C42.9381 64.497 42.5565 64.6656 42.1551 64.7686L41.5151 64.9662C41.1696 65.0446 40.8136 65.0668 40.461 65.0321C40.0842 64.9991 39.712 64.9265 39.3504 64.8156C39.0116 64.6086 38.6634 64.4391 38.4092 64.2509C38.2325 64.0675 38.0719 63.8691 37.9292 63.658C37.6759 63.3052 37.4494 62.934 37.2516 62.5474C36.9948 61.9409 36.6796 61.361 36.3104 60.8156L36.3669 60.665Z" fill="black"/>
<path d="M30.419 64.2218C28.9602 65.0782 27.5296 66.0477 26.1272 67.0453C25.619 67.4218 25.1861 67.9018 24.6872 68.2782C22.8802 69.6053 21.1108 71.0171 19.3602 72.4665C18.5947 73.1129 17.8775 73.8144 17.2143 74.5653C16.4106 75.5774 15.4771 76.4793 14.4378 77.2477C14.0896 77.4641 13.6566 77.0124 13.4025 76.3065C13.0815 75.5865 13.1023 74.7601 13.459 74.0571C14.2184 72.9636 15.0352 71.9111 15.9061 70.9041C16.7694 69.883 17.7557 68.9725 18.8425 68.1935C20.0917 67.1258 21.2854 65.9949 22.419 64.8053C23.7649 63.5912 25.1955 62.4524 26.6449 61.3418C27.5861 60.683 28.4613 60.0147 29.4025 59.3841C30.7955 58.443 32.3108 57.5582 33.7602 56.6265C34.844 55.8132 35.9859 55.0803 37.1766 54.4335C37.4496 54.3018 37.7037 54.123 37.9861 54.0194C38.2117 53.9125 38.4653 53.8796 38.7108 53.9253C38.9091 53.9462 39.1012 54.007 39.2755 54.1041C39.6313 54.3296 39.9103 54.6578 40.0755 55.0453C40.1884 55.2524 40.3108 55.45 40.3955 55.6477C40.6284 56.3959 40.4653 57.2112 39.9625 57.8124C39.7978 58.0538 39.6015 58.2722 39.379 58.4618C39.1719 58.6594 38.9743 58.8477 38.7672 59.0265C38.3625 59.3747 37.9672 59.7794 37.5531 60.1088C36.6587 60.6977 35.7352 61.2411 34.7861 61.7371C33.3743 62.5465 31.9061 63.3465 30.4943 64.3065L30.419 64.2218Z" fill="black"/>
<path d="M33.1101 50.3873C34.398 50.3603 35.6864 50.4074 36.9689 50.5284C37.6542 50.5914 38.3358 50.6888 39.0113 50.8202C39.3784 50.9049 39.7266 50.9802 40.1031 51.0932L40.6395 51.2532C40.8785 51.3218 41.1114 51.4099 41.336 51.5167C42.7377 51.9758 43.884 52.9993 44.4984 54.3402C44.626 54.6474 44.736 54.9616 44.8278 55.2814C44.9125 55.6014 44.9784 55.912 45.0348 56.2226L45.1195 56.6932C45.1057 56.8403 45.1057 56.9884 45.1195 57.1355V57.8414C45.0794 58.6971 44.9819 59.5493 44.8278 60.392C44.5266 62.0014 44.1219 63.5073 43.7078 64.9849C43.3407 66.2932 42.9454 67.5826 42.6066 68.8626C42.2555 70.5361 41.6559 72.1477 40.8278 73.6437C40.536 74.1049 39.8866 73.8414 39.2748 73.2108C38.5647 72.5215 38.1497 71.5835 38.1172 70.5943C38.2678 68.9096 38.4278 67.2343 38.6254 65.6155C38.7245 64.8092 38.8914 64.0126 39.1242 63.2343L39.7454 60.9284C39.9863 60.0592 40.0598 59.1522 39.9619 58.2555L39.8866 57.7473L39.8301 57.4932C39.7846 57.327 39.7149 57.1684 39.6231 57.0226C39.503 56.8607 39.3445 56.7314 39.1619 56.6461C38.7949 56.4769 38.4096 56.3506 38.0137 56.2696C37.0184 56.0729 36.007 55.9689 34.9925 55.959C33.6337 55.8982 32.2723 55.9265 30.9172 56.0437C28.7981 56.174 26.6962 56.5049 24.6395 57.032C23.1253 57.5416 21.668 58.2071 20.2913 59.0179C19.9901 59.1779 19.7172 59.3943 19.416 59.5355C18.9683 59.7117 18.4741 59.7316 18.0137 59.592C17.5803 59.3535 17.1969 59.034 16.8842 58.6508C16.708 58.4848 16.5415 58.3088 16.3854 58.1237C16.1662 57.8086 16.0878 57.4166 16.1689 57.0414C16.2118 56.4801 16.4365 55.9482 16.8089 55.5261C17.3614 54.8695 18.0358 54.3262 18.7948 53.9261C19.5076 53.5062 20.2463 53.1321 21.0066 52.8061C22.5296 52.1714 24.1039 51.6676 25.7125 51.3002C28.1459 50.7501 30.6199 50.3976 33.1101 50.2461V50.3873Z" fill="black"/>
<path d="M62.664 45.4449C61.6962 45.0977 60.7529 44.6858 59.8405 44.2119C59.4678 44.0765 59.1059 43.9129 58.7581 43.7225C58.1513 43.3051 57.6091 42.8009 57.1487 42.226C56.7538 41.6426 56.4374 41.0097 56.2075 40.3437C56.0193 39.7884 55.831 39.2802 55.6805 38.7813C55.4464 38.157 55.3129 37.4993 55.2852 36.8331C55.2852 36.626 55.4734 36.5696 55.784 36.6355C56.1691 36.7012 56.5279 36.8741 56.8193 37.1343C57.2805 37.6425 57.7605 38.1319 58.1087 38.5366C58.4686 38.8841 58.805 39.2551 59.1157 39.6472C59.304 39.8355 59.4546 40.099 59.7181 40.2213C59.9816 40.3437 60.264 40.4755 60.5557 40.626C61.2415 40.9686 61.9605 41.2398 62.7016 41.4355C63.2035 41.5779 63.7124 41.6941 64.2263 41.7837C65.0289 41.9774 65.8431 42.1188 66.664 42.2072C67.3134 42.2072 67.9722 42.0849 68.6122 42.1319C68.7562 42.1176 68.9012 42.1176 69.0452 42.1319C69.5346 42.4237 69.6569 42.7719 69.6569 43.4778C69.6569 43.6378 69.6569 43.7978 69.6569 43.9484C69.5992 44.4655 69.3301 44.9356 68.9134 45.2472C68.6388 45.4918 68.3191 45.6805 67.9722 45.8025C67.6804 45.9343 67.3793 46.0472 67.0781 46.1507C66.4942 46.2307 65.902 46.2307 65.3181 46.1507C64.8683 46.1133 64.4217 46.0441 63.9816 45.9437L62.5981 45.5766L62.664 45.4449Z" fill="black"/>
<path d="M61.4684 31.9018C62.7955 30.5465 64.1696 29.2194 65.5531 27.9018C66.0614 27.4218 66.4943 26.8571 66.9837 26.3959C68.8486 24.7841 70.8031 23.2789 72.8378 21.8877C73.779 21.3041 74.5884 20.6077 75.4543 20.0053C76.0096 19.6006 76.5367 19.1582 77.1202 18.7724C77.7083 18.4025 78.3408 18.1085 79.0026 17.8971C79.4261 17.7747 79.7367 18.4053 79.8214 19.2241C79.9835 20.0326 79.784 20.8715 79.2755 21.5206L76.4049 24.1182L74.9367 25.3888C74.4473 25.8124 73.8543 26.1418 73.3178 26.5371C72.042 27.5448 70.8974 28.7084 69.9108 30.0006C68.6778 31.3088 67.4826 32.6641 66.2967 34.0477C65.572 34.9135 64.8378 35.7606 64.1602 36.6547C63.0717 37.9848 62.0568 39.3736 61.1202 40.8147C60.7626 41.37 60.5273 42.0194 60.2261 42.6029C59.9249 43.1865 59.6237 43.8077 59.2849 44.3818C59.1624 44.6519 59.0209 44.9129 58.8614 45.1629C58.7899 45.2656 58.7113 45.3631 58.6261 45.4547C58.5226 45.53 58.419 45.5771 58.3249 45.6335C58.14 45.7172 57.9431 45.7712 57.7414 45.7935C57.2804 45.7949 56.8268 45.6782 56.4237 45.4547C56.1884 45.3418 55.9437 45.2571 55.7367 45.1347C55.0141 44.6451 54.6001 43.8134 54.6449 42.9418C54.6319 42.6085 54.67 42.2752 54.7578 41.9535C54.8237 41.6429 54.9084 41.3418 54.9931 41.0124C55.1626 40.41 55.3602 39.8171 55.5861 39.2241C56.1782 38.1459 56.8783 37.1305 57.6755 36.1935C58.8237 34.7159 60.0943 33.2947 61.3649 31.8641L61.4684 31.9018Z" fill="black"/>
<path d="M56.9033 41.7845C56.8803 41.8548 56.8803 41.9306 56.9033 42.0009C56.9033 42.0009 56.9033 42.0668 56.9691 42.1233C57.0386 42.1504 57.1049 42.1852 57.1668 42.2268C57.9157 42.4026 58.6856 42.4723 59.4538 42.4339C60.1033 42.4339 60.7809 42.2645 61.4868 42.2362C64.0746 42.1754 66.6501 41.8602 69.1762 41.2951C70.3096 41.0441 71.4232 40.7107 72.508 40.2974C73.8506 39.6862 75.2421 39.1887 76.668 38.8103C77.1291 38.7256 77.4491 39.3468 77.4774 40.2033C77.5469 41.1808 77.1737 42.1378 76.4609 42.8103C75.1308 43.7894 73.713 44.6432 72.2256 45.3609C71.485 45.7118 70.7043 45.971 69.9009 46.1327C69.1013 46.3232 68.2902 46.4616 67.4727 46.5468C65.5056 46.7539 63.6138 47.5445 61.5433 47.8362C60.9699 47.9204 60.391 47.9613 59.8115 47.9586H58.9174L57.9762 47.9021C57.6604 47.8839 57.3461 47.8462 57.035 47.7892C56.6848 47.744 56.3387 47.6716 55.9997 47.5727C55.2141 47.3703 54.4735 47.0224 53.8162 46.5468C53.4193 46.2441 53.0648 45.8896 52.7621 45.4927C52.4611 45.1214 52.2139 44.7095 52.028 44.2692C51.834 43.8951 51.6824 43.5005 51.5762 43.0927C51.4533 42.7144 51.3589 42.3275 51.2938 41.9351C51.0062 39.7988 51.0062 37.6337 51.2938 35.4974C51.4162 33.8974 51.3691 32.3068 51.5668 30.7068C51.5843 30.3531 51.6252 30.001 51.6891 29.6527C51.8444 29.1589 52.1806 28.742 52.6303 28.4856C53.0926 28.3262 53.5859 28.2779 54.0703 28.3445C54.3244 28.3445 54.5691 28.3445 54.7856 28.4198C55.158 28.5148 55.4887 28.7298 55.7268 29.0315C56.0773 29.3777 56.3249 29.8143 56.4421 30.2927C56.6303 30.94 56.7035 31.6154 56.6586 32.288C56.6586 32.928 56.6586 33.568 56.6115 34.1703C56.6115 35.4221 56.4891 36.6551 56.4797 37.8221C56.4859 38.6402 56.5393 39.4572 56.6397 40.2692C56.7204 40.7577 56.8497 41.2369 57.0256 41.6998L56.9033 41.7845Z" fill="black"/>
</svg>
