<svg width="96" height="96" viewBox="0 0 96 96" fill="none" xmlns="http://www.w3.org/2000/svg">
<path d="M46.0326 17.5141C44.4232 17.5894 42.8138 17.6741 41.2044 17.8059C40.6209 17.8059 40.0562 18.0506 39.4632 18.0883C38.4279 18.1636 37.3832 18.2106 36.3291 18.22C35.275 18.2294 34.2303 18.2953 33.1856 18.3706C32.2649 18.4563 31.3524 18.6137 30.4562 18.8412C29.8911 19.0239 29.3069 19.1407 28.715 19.1894C28.0824 19.2147 27.4492 19.1546 26.8326 19.0106C26.4279 18.9071 26.3997 18.3047 26.5785 17.5612C26.7598 16.7552 27.1913 16.0271 27.8115 15.4812C28.071 15.3046 28.3486 15.1563 28.6397 15.0389L29.5056 14.813C30.0891 14.6718 30.6726 14.54 31.2656 14.4365C32.4635 14.2124 33.6799 14.1021 34.8985 14.1071C35.641 14.0891 36.3793 13.9913 37.1009 13.8153C37.8256 13.6741 38.5597 13.5047 39.3032 13.4106C40.9315 13.1941 42.5691 13.0341 44.2068 12.8741C45.2044 12.7706 46.2209 12.6953 47.2279 12.5824C48.7526 12.413 50.2962 12.3283 51.8021 12.0553C52.3856 11.9706 52.9597 11.7447 53.5432 11.6412C54.1275 11.5174 54.7182 11.4263 55.3126 11.3683C55.5747 11.3293 55.8386 11.3041 56.1032 11.293C56.3229 11.2956 56.5413 11.3273 56.7526 11.3871C56.9226 11.4672 57.0734 11.5827 57.195 11.7259C57.4282 11.9953 57.59 12.3189 57.6656 12.6671C57.6656 12.8459 57.7785 13.0247 57.8068 13.1847C57.8442 13.4816 57.7741 13.7821 57.6091 14.0318C57.4168 14.3831 57.1689 14.7009 56.875 14.973L55.4444 15.773L53.9856 16.5636C53.7483 16.687 53.4895 16.7636 53.2232 16.7894L52.4515 16.9306C51.9338 17.0153 51.4068 17.0906 50.8797 17.1471C49.3079 17.3541 47.6985 17.4577 46.0891 17.6365L46.0326 17.5141Z" fill="black"/>
<path d="M49.3447 24.611C46.6624 24.9027 43.9706 25.2039 41.2976 25.5521C40.3565 25.6745 39.4153 25.9286 38.3894 26.0416C34.9353 26.4463 31.4812 26.8227 28.0365 27.2933C26.5118 27.4816 24.9965 27.8016 23.5094 28.131C21.6198 28.6974 19.6713 29.0448 17.7024 29.1663C17.0812 29.1663 16.9776 28.2251 17.2976 27.2839C17.5945 26.1862 18.3994 25.2973 19.4624 24.8933C23.3482 23.7582 27.3472 23.0544 31.3871 22.7945C33.8247 22.6533 36.2718 21.9851 38.7188 21.5992C41.4106 21.1851 44.1212 20.818 46.8224 20.4416L51.8012 19.7451C54.3141 19.3686 56.8459 19.0674 59.3306 18.5686C61.2129 18.1733 63.0953 17.5239 64.9776 16.978C65.3918 16.8557 65.7871 16.6957 66.2106 16.6016C67.7635 16.2439 68.3188 16.4698 68.8647 17.6839C69.0044 17.952 69.127 18.2286 69.2318 18.5121C69.3741 18.9939 69.3179 19.5126 69.0757 19.9528C68.8336 20.3929 68.4255 20.718 67.9424 20.8557C64.576 22.1608 61.0656 23.0581 57.4859 23.5286C54.8129 23.9616 52.1024 24.291 49.4106 24.6863L49.3447 24.611Z" fill="black"/>
<path d="M53.7405 37.7015C50.2299 38.2004 46.7099 38.7086 43.2087 39.2545C41.9287 39.4521 40.677 39.791 39.444 39.9792C34.9264 40.638 30.3993 41.2686 25.8817 41.9745C23.877 42.2757 21.8911 42.6992 19.9334 43.151C17.4469 43.8663 14.897 44.3391 12.3193 44.5627C11.5005 44.5627 11.3781 43.6215 11.8675 42.5392C12.3976 41.2535 13.4691 40.2681 14.7946 39.8474C19.8944 38.4142 25.1094 37.4285 30.3805 36.9015C33.5711 36.6098 36.7617 35.7251 39.9711 35.151C43.444 34.5204 46.9734 33.9368 50.5028 33.3627L57.0252 32.271C60.3099 31.6968 63.6134 31.198 66.8605 30.5015C69.3734 29.9557 71.7922 29.1368 74.2581 28.4404C74.804 28.2898 75.3217 28.0921 75.877 27.9604C77.9287 27.4992 78.7005 27.7345 79.3311 29.0333C79.5003 29.3216 79.6512 29.6202 79.7828 29.9274C80.1593 30.9627 79.4628 31.9792 78.0228 32.5439C73.5773 34.1249 68.9967 35.2968 64.3381 36.0451C60.837 36.6945 57.2887 37.231 53.7687 37.8427L53.7405 37.7015Z" fill="black"/>
<path d="M55.3503 31.669C52.4515 32.0267 49.5526 32.3749 46.6632 32.7796C45.5997 32.9208 44.5738 33.2031 43.5197 33.3349C39.755 33.8055 36.0656 34.2761 32.3479 34.7561C30.6915 34.9725 29.0538 35.3114 27.4444 35.6972C25.4035 36.3025 23.3008 36.6751 21.1762 36.8078C20.4985 36.8078 20.395 35.8667 20.7526 34.8596C21.1047 33.7076 21.9807 32.7898 23.115 32.3843C27.3093 31.1716 31.6176 30.3957 35.9715 30.069C38.5973 29.8996 41.2326 29.1749 43.8679 28.742C46.7762 28.262 49.6844 27.8008 52.6021 27.3961L57.9762 26.5772C60.6773 26.1443 63.4162 25.7772 66.0797 25.2125C68.1503 24.7796 70.1268 24.0737 72.1503 23.4808C72.5926 23.349 73.0256 23.1702 73.4773 23.0667C75.1621 22.6808 75.755 22.9161 76.3009 24.1772C76.4326 24.4596 76.5926 24.742 76.6962 25.0337C76.8375 25.5467 76.7692 26.0948 76.5061 26.5573C76.2431 27.0199 75.807 27.3588 75.2938 27.4996C71.6504 28.8944 67.862 29.8762 63.9997 30.4267C61.1103 30.9349 58.1926 31.3678 55.2844 31.782L55.3503 31.669Z" fill="black"/>
<path d="M47.2089 54.3413C44.3854 54.7555 41.4771 55.1696 38.6254 55.6308C37.5807 55.7908 36.5642 56.0825 35.5195 56.2425L24.4607 57.8331C22.8324 58.0778 21.2042 58.4261 19.6136 58.7743C17.5876 59.3797 15.5015 59.7615 13.3924 59.9131C12.7242 59.9131 12.6395 59.0849 13.0066 58.1343C13.3946 57.0394 14.2664 56.185 15.3689 55.819C19.5174 54.6498 23.7641 53.8622 28.056 53.4661C30.6536 53.2308 33.2513 52.5249 35.8583 52.0072C38.7289 51.4708 41.5995 50.9908 44.4795 50.4919L49.7877 49.5508C52.4607 49.0708 55.1619 48.6096 57.7971 48.0637C59.8489 47.6025 61.8066 46.9061 63.8207 46.3225C64.263 46.1908 64.6866 46.0213 65.1383 45.9178C66.8136 45.5319 67.4066 45.739 67.9619 46.859C68.1044 47.1141 68.2301 47.3782 68.3383 47.6496C68.6583 48.5908 68.1124 49.4472 66.936 49.9272C63.3406 51.2895 59.6211 52.2982 55.8301 52.939C53.0066 53.4849 50.0983 53.9366 47.2277 54.4449L47.2089 54.3413Z" fill="black"/>
<path d="M56.6016 47.0759C52.8369 47.6312 49.0722 48.1959 45.3075 48.7983C43.9239 49.0242 42.578 49.3818 41.2039 49.5889C36.338 50.3042 31.4722 51.0383 26.6251 51.81C24.4792 52.1394 22.3333 52.6006 20.2345 53.0806C17.5544 53.8269 14.8148 54.3401 12.0463 54.6147C11.171 54.6618 11.1051 53.7394 11.6133 52.6759C12.2608 51.3835 13.4167 50.4186 14.8039 50.0124C20.2961 48.5097 25.8975 47.4398 31.5569 46.8124C34.9827 46.4642 38.418 45.5418 41.9098 44.93L53.2792 42.963L60.2816 41.7677C63.811 41.1371 67.3686 40.5724 70.851 39.8853C73.5616 39.3018 76.1592 38.4547 78.8133 37.7394C79.4063 37.5794 79.9616 37.3818 80.5639 37.2406C82.7663 36.7512 83.538 36.9583 84.2345 38.1818C84.3811 38.4491 84.51 38.7258 84.6204 39.01C85.0063 39.9983 84.2439 40.9959 82.6816 41.5606C77.8802 43.1841 72.9539 44.4117 67.9522 45.2312C64.1875 45.9371 60.4227 46.5394 56.5922 47.2077L56.6016 47.0759Z" fill="black"/>
<path d="M57.9568 57.4945C54.3709 58.031 50.7757 58.5674 47.1992 59.1416C45.8909 59.3486 44.6109 59.6874 43.3027 59.8851L29.4674 62.0027C27.4251 62.3133 25.3921 62.7557 23.3968 63.2074C20.8488 63.9172 18.2448 64.4084 15.6133 64.6757C14.7757 64.6757 14.6721 63.8286 15.1992 62.7933C15.8095 61.5577 16.9081 60.6331 18.2298 60.2427C23.4507 58.816 28.7751 57.7996 34.1545 57.2027C37.4015 56.8733 40.6674 55.9886 43.9427 55.3957L54.7474 53.5133L61.4015 52.3839C64.7521 51.8004 68.1404 51.2451 71.4439 50.5768C74.0133 50.0216 76.4886 49.2216 78.9733 48.5439C79.5286 48.3933 80.0651 48.1957 80.6298 48.0639C82.7286 47.6027 83.4533 47.8004 84.1215 49.0051C84.2864 49.2667 84.4372 49.5369 84.5733 49.8145C84.9404 50.7557 84.2157 51.6968 82.691 52.2616C78.1287 53.8045 73.448 54.9723 68.6957 55.7533C65.1098 56.4216 61.4957 56.9863 57.8909 57.6357L57.9568 57.4945Z" fill="black"/>
<path d="M59.4434 69.1272C56.394 69.6072 53.3352 70.0684 50.2952 70.6143C49.1846 70.8025 48.1023 71.1319 46.9917 71.3107L35.1987 73.1931C33.4481 73.466 31.7258 73.8613 30.0223 74.2754C27.8621 74.9455 25.633 75.3686 23.3775 75.5366C22.6623 75.5366 22.5681 74.5954 22.9446 73.5978C23.3301 72.3952 24.2512 71.4393 25.4387 71.0095C29.8543 69.706 34.3773 68.7989 38.954 68.299C41.7775 68.026 44.4881 67.179 47.2646 66.6237C50.3234 66.0213 53.3917 65.466 56.4599 64.8919L62.107 63.8566C64.9305 63.3013 67.8481 62.8401 70.6623 62.1907C72.8552 61.6919 74.9446 60.9201 77.0905 60.3084C77.5611 60.1672 78.0317 59.979 78.5023 59.866C80.2905 59.4519 80.9211 59.6778 81.5328 60.939C81.6879 61.2159 81.8262 61.5019 81.947 61.7954C82.2858 62.7931 81.7023 63.7625 80.4505 64.2801C76.6197 65.7313 72.6578 66.8093 68.6199 67.499C65.5893 68.1107 62.5117 68.6095 59.4623 69.1931L59.4434 69.1272Z" fill="black"/>
<path d="M53.4117 65.1671L44.8564 66.6353C43.8211 66.8235 42.8046 67.1153 41.7599 67.2941L30.7481 69.1294C29.1105 69.4024 27.4917 69.7694 25.9011 70.1459C23.8724 70.7492 21.7882 71.1465 19.6799 71.3318C19.0211 71.3318 18.9458 70.5882 19.3222 69.7129C19.7629 68.6791 20.6323 67.8886 21.7034 67.5482C25.8452 66.3601 30.075 65.5041 34.3528 64.9882C36.9411 64.7059 39.5293 63.9341 42.1269 63.4165L50.7387 61.7506L56.0281 60.7341C58.6917 60.2071 61.3834 59.7365 63.9999 59.0965C66.0422 58.6071 67.9905 57.9012 69.9858 57.2894C70.4281 57.1577 70.8517 56.9882 71.294 56.8753C72.9599 56.4518 73.5528 56.6212 74.1175 57.6471C74.2589 57.8752 74.3877 58.1108 74.5034 58.3529C74.8234 59.1718 74.2869 60 73.1105 60.4894C69.5179 61.8528 65.8106 62.8922 62.0328 63.5953C59.2093 64.1977 56.3199 64.7059 53.4587 65.2612L53.4117 65.1671Z" fill="black"/>
<path d="M59.4816 76.9501C57.2887 77.3548 55.0769 77.7878 52.8934 78.2583C52.0839 78.4278 51.3122 78.7195 50.5028 78.8701C47.6792 79.4348 44.7616 79.9336 41.891 80.4419C40.611 80.6489 39.3592 80.9783 38.1263 81.2889C36.5606 81.8324 34.9252 82.1494 33.2698 82.2301C32.7334 82.2301 32.6298 81.3642 32.8745 80.4513C33.0542 79.4775 33.6968 78.6523 34.5969 78.2395C37.769 77.2186 41.0356 76.5186 44.3475 76.1501C46.3727 75.8084 48.3725 75.3304 50.3334 74.7195C52.5263 74.183 54.7475 73.6748 56.9781 73.176L61.1004 72.2348C63.1804 71.7736 65.2886 71.3972 67.3404 70.8889C68.931 70.4842 70.4463 69.863 72.0463 69.3454C72.3945 69.2325 72.7239 69.0819 73.0722 68.9972C74.3804 68.6678 74.851 68.8936 75.3404 70.0607C75.4639 70.3215 75.5738 70.5885 75.6698 70.8607C75.9576 71.7501 75.5157 72.7116 74.6534 73.0725C71.9351 74.244 69.0937 75.1058 66.1828 75.6419C64.0087 76.1125 61.8063 76.583 59.5945 77.0254L59.4816 76.9501Z" fill="black"/>
<path d="M59.7354 82.3046C58.5024 82.4835 57.2601 82.6529 56.0271 82.8599C55.5754 82.9352 55.1612 83.1235 54.7095 83.1799C53.1095 83.4152 51.5001 83.6129 49.8718 83.7446C49.1635 83.8386 48.4623 83.9801 47.773 84.1682C46.9049 84.4942 45.9791 84.6384 45.053 84.5917C44.7518 84.5917 44.6671 83.9611 44.7707 83.3023C44.8742 82.6435 45.1377 81.9093 45.6083 81.7023C47.2903 80.9498 49.077 80.4579 50.9071 80.2435C52.04 80.1188 53.1566 79.8759 54.2389 79.5187C55.4718 79.2646 56.7048 79.0293 57.9377 78.794L60.2248 78.3517C61.3918 78.154 62.5683 78.0035 63.6977 77.7211C64.1401 77.6176 64.5542 77.4199 64.9965 77.3164C65.4295 77.1855 65.8694 77.0786 66.3142 76.9964C66.51 76.952 66.7079 76.9174 66.9071 76.8929C67.6695 76.8458 67.9518 76.9964 68.1871 77.5423C68.2454 77.6482 68.2957 77.7583 68.3377 77.8717C68.4012 78.3312 68.1773 78.7829 67.773 79.0105C67.0859 79.4999 66.3895 80.0082 65.6648 80.4882C64.9221 80.8621 64.1511 81.1768 63.3589 81.4293C62.7754 81.6364 62.1824 81.8152 61.5895 81.994C60.9701 82.1639 60.3416 82.299 59.7071 82.3987L59.7354 82.3046Z" fill="black"/>
</svg>
