<svg width="96" height="96" viewBox="0 0 96 96" fill="none" xmlns="http://www.w3.org/2000/svg">
<path d="M73.4683 69.7599C71.0452 72.1088 68.2538 74.045 65.2048 75.4916C62.2272 76.8833 59.0877 77.8982 55.8589 78.5128C53.5599 79.001 51.2237 79.2938 48.8754 79.3881C40.6149 79.5782 32.4821 77.3257 25.4966 72.9128C22.4013 70.949 19.6348 68.5097 17.2989 65.6846C15.7832 63.8657 14.5171 61.8527 13.5342 59.6987C12.6713 57.4979 12.2307 55.1543 12.2354 52.7905C12.2354 51.3316 13.2424 51.4728 14.4942 52.4046C16.0836 53.6324 17.4521 55.1219 18.5413 56.8093C20.1391 60.3079 22.5033 63.4023 25.4589 65.8634C28.549 68.4666 32.0468 70.5431 35.8119 72.0093C40.4519 73.8916 45.8636 74.1175 50.946 73.6658C56.5689 73.2964 61.9783 71.3706 66.5695 68.1034C69.3546 66.045 71.7028 63.4536 73.4777 60.4799C76.2267 55.8443 77.8962 50.6491 78.3624 45.2799C78.6495 41.1359 78.3709 36.9722 77.5342 32.9034C77.3648 32.0093 77.1295 31.1434 76.9601 30.2493C76.546 26.8987 76.6495 25.7881 78.0424 24.6775C78.2974 24.4257 78.5677 24.19 78.8519 23.9716C79.6424 23.4069 81.3083 24.5081 82.2683 27.0869C83.0355 29.0046 83.5818 31.0033 83.8966 33.0446C84.2568 35.1261 84.4738 37.2299 84.546 39.3411C84.6955 43.7024 84.2426 48.0635 83.2001 52.3011C81.663 58.925 78.3318 64.9979 73.5719 69.854L73.4683 69.7599Z" fill="black"/>
<path d="M30.4375 26.9189C30.7857 29.9683 32.6775 33.8177 35.6046 35.1636C36.8657 35.7471 38.7387 35.38 39.0587 33.7612C39.4919 30.9079 38.909 27.9931 37.4116 25.5259C36.811 24.344 35.9205 23.3337 34.8234 22.5895C34.0211 22.1695 33.0691 22.1472 32.2481 22.5291C31.4271 22.9111 30.8308 23.6536 30.6351 24.5377C29.7881 27.4459 34.3246 28.6883 35.1716 25.78L35.2751 25.4036L34.1928 26.8153L33.6375 26.9753L31.9999 26.2883C33.5904 27.5589 34.9457 30.4389 34.541 32.5095L37.9951 31.0977C36.4986 30.1737 35.4705 28.6521 35.1716 26.9189C35.1324 25.636 34.1016 24.6051 32.8187 24.5659C31.5234 24.5762 30.476 25.6236 30.4657 26.9189H30.4375Z" fill="black"/>
<path d="M44.6873 20.6212C45.045 23.7365 47.0026 27.8965 49.9955 29.2988C51.2567 29.8823 53.1391 29.5059 53.4497 27.8871C53.8689 24.9146 53.2471 21.8886 51.6897 19.3223C51.0878 18.1199 50.1868 17.0925 49.0732 16.3388C48.2802 15.9183 47.3374 15.8876 46.5187 16.2556C45.6999 16.6236 45.097 17.349 44.885 18.2212C44.0379 21.1388 48.5838 22.3812 49.4214 19.4729L49.5344 19.0965L48.452 20.5082L47.8873 20.6682L46.2214 19.9812C47.8779 21.3082 49.3273 24.48 48.9132 26.6259L52.3673 25.2235C50.9367 24.5553 49.5438 22.1553 49.3932 20.6118C49.0544 17.6376 44.3391 17.6 44.6873 20.6118V20.6212Z" fill="black"/>
</svg>
