<svg width="96" height="96" viewBox="0 0 96 96" fill="none" xmlns="http://www.w3.org/2000/svg">
<path d="M77.5096 54.5395C76.7389 53.9083 76.1454 53.0878 75.7872 52.1583C75.622 51.8066 75.5261 51.4263 75.5049 51.0383C75.5813 49.8444 76.2206 48.7578 77.2272 48.1112C77.5755 47.8853 77.8578 47.6689 78.1684 47.4618C78.4772 47.1698 78.8622 46.9708 79.279 46.8877C79.4202 46.8877 79.6649 47.1889 79.8343 47.5936C80.0037 47.9983 80.1166 48.5348 79.9661 48.7042C79.6451 49.2159 79.252 49.6787 78.799 50.0783C78.5731 50.1818 78.799 50.4359 78.8649 50.5018C78.883 50.7395 78.9906 50.9616 79.1661 51.123C79.6323 51.5948 80.263 51.8679 80.9261 51.8853C81.1075 51.8562 81.2808 51.7888 81.4343 51.6877C81.5755 51.6218 81.6884 51.5183 81.7919 51.4712C81.8955 51.4242 81.8672 51.3771 81.9143 51.3771C82.2263 51.695 82.481 52.0643 82.6672 52.4689L82.9402 52.9018C83.2479 53.3543 83.3047 53.9322 83.0908 54.4359C82.9586 54.7843 82.7261 55.0857 82.4225 55.3018C82.1636 55.5053 81.8826 55.6789 81.5849 55.8195C81.0137 55.9657 80.4149 55.9657 79.8437 55.8195C78.9989 55.5862 78.2065 55.1932 77.5096 54.6618V54.5395Z" fill="black"/>
<path d="M12.4933 32.1498C12.3392 31.6084 12.2352 31.0539 12.1827 30.4934C12.1827 30.211 12.1827 29.9287 12.1827 29.6463C12.1704 29.3681 12.1957 29.0895 12.258 28.8181C12.2773 28.4034 12.3468 27.9925 12.4651 27.5945C12.9643 26.305 13.8567 25.2052 15.0157 24.451C15.2604 24.291 15.4674 24.1028 15.7121 23.9522L16.4557 23.5757C17.0581 23.2253 17.736 23.0251 18.4321 22.9922C18.658 22.9922 18.7051 23.2934 18.658 23.6792C18.6285 24.0822 18.4701 24.465 18.2063 24.771L17.8392 25.0251L17.5286 25.3263C17.331 25.5334 17.1145 25.6934 16.9263 25.8816C16.7305 26.0471 16.5229 26.1981 16.3051 26.3334C16.098 26.484 15.9286 26.6628 15.7027 26.8228C15.4711 27.0314 15.2935 27.2929 15.1851 27.5851C15.091 27.8957 15.0251 28.1969 14.931 28.5263C14.7752 29.2299 14.7752 29.9591 14.931 30.6628C14.9674 30.8891 15.0306 31.1102 15.1192 31.3216L15.2321 31.651L15.4016 31.9522C15.7127 32.5959 16.1864 33.1474 16.7757 33.5522C17.0173 33.675 17.2734 33.7667 17.538 33.8251C17.7979 33.8568 18.0556 33.904 18.3098 33.9663C18.4194 33.9759 18.5296 33.9759 18.6392 33.9663C19.0439 34.0416 19.1663 34.2392 19.2604 34.804C19.2604 34.9357 19.3169 35.0675 19.3357 35.1992C19.4052 35.636 19.1193 36.0504 18.6863 36.1404C18.3274 36.2737 17.949 36.3468 17.5663 36.3569C17.173 36.4067 16.7736 36.3648 16.3992 36.2345C16.0241 36.1051 15.6591 35.9478 15.3074 35.764C14.9874 35.5475 14.658 35.3122 14.3663 35.0675C13.499 34.2724 12.8508 33.2677 12.4839 32.1498H12.4933Z" fill="black"/>
<path d="M22.1402 35.2746C19.7102 36.826 16.7283 37.2515 13.9614 36.4417C12.9381 36.1907 11.9771 35.7327 11.1378 35.0958C9.6381 33.9169 8.68593 32.1758 8.50253 30.277C8.33898 28.5124 8.80946 26.7472 9.82959 25.2982C10.7201 24.1148 11.9833 23.266 13.4155 22.8887C15.0656 22.402 16.8326 22.495 18.4225 23.1523C18.8931 23.3593 18.7331 23.6134 18.2719 23.877C17.6477 24.225 16.9884 24.5058 16.3049 24.7146C15.1318 24.9332 14.0855 25.5892 13.3778 26.5499C13.1614 26.964 12.8978 27.237 12.7096 27.6605C12.4996 28.0963 12.3629 28.5638 12.3049 29.044C12.2615 29.3589 12.2839 29.6794 12.3708 29.9852C12.4294 30.2849 12.5409 30.5717 12.7002 30.8323C13.0453 31.3471 13.5104 31.7702 14.0555 32.0652C15.4821 32.8348 17.1741 32.9414 18.6861 32.357C19.6363 32.0224 20.4521 31.3882 21.0108 30.5499C21.4103 29.9537 21.6262 29.2535 21.6319 28.5358C21.5701 27.8325 21.2316 27.1826 20.6908 26.7287C19.6787 25.9807 18.4936 25.5015 17.2461 25.3358L16.4178 25.2511C16.034 25.2333 15.6626 25.1095 15.3449 24.8934C15.0956 24.6154 14.8951 24.2972 14.7519 23.9523C14.6766 23.7734 14.5731 23.6134 14.5166 23.4629C14.4193 23.1779 14.4882 22.8625 14.6955 22.644C14.8273 22.456 14.9822 22.2852 15.1566 22.1358C15.3646 21.9728 15.6109 21.8658 15.8719 21.8252C17.5998 21.4232 19.4055 21.5112 21.0861 22.0793C22.0421 22.3894 22.9146 22.9142 23.6366 23.6134C24.5033 24.42 25.1676 25.4196 25.5755 26.5311C25.8932 27.4363 26.0119 28.3994 25.9237 29.3546C25.8489 30.2138 25.6193 31.0524 25.2461 31.8299C24.5833 33.2802 23.535 34.5206 22.2155 35.4158L22.1402 35.2746Z" fill="black"/>
<path d="M42.6762 48.9317C39.822 49.1546 37.0004 48.2027 34.8645 46.2964C33.9768 45.5479 33.3097 44.5718 32.935 43.4728C32.4527 41.68 32.675 39.7705 33.5562 38.1364C33.9256 37.4321 34.374 36.7721 34.8927 36.1693C35.4145 35.6144 35.9988 35.1217 36.6339 34.7011C37.7197 33.9217 38.9474 33.3621 40.248 33.054C41.949 32.6565 43.7341 33.1777 44.9539 34.4281C45.3021 34.8046 45.0198 35.0211 44.4739 35.2187C43.928 35.4164 43.1186 35.7176 42.5915 35.8493L42.2056 35.934L41.8103 36.0658C41.699 36.1128 41.5919 36.1695 41.4903 36.2352C41.3785 36.2652 41.2709 36.3095 41.1703 36.367C40.753 36.5673 40.3612 36.8169 40.0033 37.1105C39.2726 37.7886 38.5783 38.5049 37.9233 39.2564C37.549 39.674 37.3355 40.2111 37.3209 40.7717C37.3312 41.1936 37.4512 41.6056 37.6692 41.967C37.95 42.4384 38.3621 42.8178 38.855 43.0587C39.4911 43.4115 40.1866 43.6443 40.9068 43.7458C41.6281 43.8976 42.3802 43.7553 42.9962 43.3505C43.4008 43.0149 43.6604 42.5362 43.7209 42.014C43.8396 41.3357 43.7646 40.6376 43.5045 39.9999C43.1265 39.0433 42.3549 38.2957 41.3868 37.9481C41.3008 37.923 41.2093 37.923 41.1233 37.9481C41.1233 37.9481 41.1233 37.9481 41.1233 37.8352C41.1298 37.8137 41.1298 37.7908 41.1233 37.7693V37.7693C41.1324 37.7132 41.1324 37.656 41.1233 37.5999C41.0778 37.3875 41.005 37.1819 40.9068 36.9881C40.7939 36.7434 40.6527 36.4517 40.5021 36.1787C40.3689 35.9469 40.2212 35.7237 40.0598 35.5105C39.8178 35.1191 39.7561 34.6424 39.8903 34.2023C40.0377 33.4413 40.6877 32.8807 41.4621 32.847C42.7463 32.6804 44.0479 32.9774 45.1327 33.6846C45.9887 34.2528 46.7295 34.9777 47.3162 35.8211C47.8586 36.5844 48.2895 37.421 48.5962 38.3058C48.7549 38.7765 48.8807 39.2576 48.9727 39.7458C49.402 42.0515 48.8679 44.4325 47.4951 46.334C46.8801 47.118 46.1032 47.76 45.2174 48.2164C44.4298 48.6184 43.5804 48.8857 42.7045 49.007L42.6762 48.9317Z" fill="black"/>
<path d="M35.1197 67.6323C34.6984 68.6642 33.9813 69.5484 33.0585 70.1735C32.8413 70.3276 32.6115 70.463 32.3714 70.5782L32.0232 70.7382L31.7032 70.8417C31.2835 70.9879 30.8521 71.0981 30.4138 71.1712L29.3502 71.3217C28.952 71.3188 28.5549 71.2778 28.1644 71.1994C27.4556 70.9885 26.8093 70.6072 26.282 70.0888C26.0333 69.864 25.8318 69.5921 25.6891 69.2888C25.5304 69.0215 25.41 68.7331 25.3314 68.4323C25.0445 67.4105 25.0445 66.3294 25.3314 65.3076C25.5194 64.4709 25.8608 63.6763 26.3385 62.9641C26.8847 61.9843 27.8839 61.3417 29.002 61.2512C29.3408 61.2512 29.3785 61.7123 29.3314 62.2864C29.3223 62.7791 29.2398 63.2676 29.0867 63.7359C28.5575 64.6145 28.3356 65.6443 28.4561 66.6629C28.4635 66.7913 28.4989 66.9166 28.5597 67.03L28.6632 67.1147C28.6632 67.1147 28.6632 67.19 28.7385 67.19C28.7639 67.2001 28.7865 67.2163 28.8044 67.237C28.8044 67.237 28.8702 67.237 28.8891 67.237C28.9079 67.237 29.0208 67.237 29.0867 67.237C29.1526 67.237 29.3502 67.237 29.4914 67.237C29.6326 67.237 29.8585 67.1147 30.0561 67.077C30.3381 67.0037 30.5909 66.8461 30.7808 66.6253C31.0589 66.279 31.2055 65.8457 31.1949 65.4017C31.2595 64.6337 30.9639 63.8793 30.3949 63.3594C30.2637 63.2327 30.0556 63.2327 29.9244 63.3594C29.8491 63.4817 29.8773 63.6512 29.8208 63.7641C29.7941 63.8357 29.756 63.9024 29.7079 63.9617C29.6455 64.006 29.5752 64.0379 29.5008 64.0559C29.3736 64.0366 29.2498 63.9985 29.1338 63.9429C28.7478 63.7631 28.3737 63.5587 28.0138 63.3312L27.4585 63.0017C27.1702 62.8135 26.9391 62.5498 26.7902 62.2394C26.5452 61.8572 26.4638 61.3927 26.5644 60.95C26.8447 60.2752 27.3075 59.6918 27.9008 59.2653C28.7462 58.749 29.7411 58.5334 30.7244 58.6535C31.6973 58.7971 32.6069 59.2224 33.3408 59.877C33.9384 60.3792 34.4364 60.9889 34.8091 61.6747C35.2925 62.5733 35.5781 63.5649 35.6467 64.5829C35.73 65.6274 35.5855 66.6774 35.2232 67.6606L35.1197 67.6323Z" fill="black"/>
<path d="M61.8111 59.1052C61.3621 59.3083 60.8869 59.4477 60.3993 59.5193L59.6746 59.604L58.9405 59.5099C58.4527 59.4503 57.9803 59.3003 57.5475 59.0675L57.2181 58.9264L56.964 58.7099C56.7676 58.5698 56.5791 58.419 56.3993 58.2581C55.8345 57.8149 55.3829 57.244 55.0817 56.5923C54.8681 56.0506 54.7688 55.4706 54.7899 54.8887C54.8016 54.4257 54.8615 53.9652 54.9687 53.5146C55.146 52.6776 55.4473 51.8719 55.8628 51.124C56.2044 50.4617 56.6282 49.8451 57.124 49.2887C57.4874 48.8627 57.9741 48.5601 58.517 48.4228C59.1168 48.2821 59.748 48.4321 60.2205 48.8275C60.484 49.0723 60.164 49.3828 59.8064 49.7687C59.6205 49.9391 59.4646 50.1396 59.3452 50.3617C59.268 50.5097 59.2291 50.6747 59.2322 50.8417C59.2322 50.9828 59.2322 51.0299 59.0817 51.1805C58.94 51.3627 58.811 51.5546 58.6958 51.7546C58.4149 52.272 58.1666 52.8063 57.9522 53.3546C57.8323 53.6773 57.8159 54.0292 57.9052 54.3617C57.9388 54.5355 57.9893 54.7058 58.0558 54.8699C58.2476 55.2949 58.6628 55.5754 59.1287 55.5946C59.4771 55.6026 59.8148 55.4743 60.0699 55.237C60.5212 54.8623 60.6871 54.2437 60.484 53.6934C60.2581 53.2699 59.6087 53.2323 59.2511 53.3075C59.1741 53.3371 59.0956 53.3622 59.0158 53.3828C58.7146 53.3828 58.7052 53.1099 58.7052 51.9711V51.1805C58.7052 50.2958 59.0722 49.6275 59.8722 49.5052C60.5037 49.4148 61.1475 49.4695 61.7546 49.6652C62.0899 49.7331 62.4093 49.864 62.6958 50.0511C62.9944 50.2029 63.2701 50.3962 63.5146 50.6252C64.5462 51.5432 65.1068 52.8789 65.0393 54.2581C65.0521 54.5115 65.0267 54.7653 64.964 55.0111C64.9252 55.2649 64.8718 55.5163 64.804 55.764C64.6403 56.2468 64.4191 56.7081 64.1452 57.1381C63.6014 57.9981 62.8464 58.7045 61.9522 59.1899L61.8111 59.1052Z" fill="black"/>
<path d="M62.1965 21.2792C62.3023 21.6304 62.6407 21.8586 63.0059 21.8251C63.1565 21.8251 63.1283 21.5898 63.2506 21.5427C63.7024 21.3357 63.7118 20.6015 63.1001 20.018C63.0379 19.9435 62.961 19.8826 62.8742 19.8392C62.7526 19.7395 62.62 19.6543 62.4789 19.5851C62.2041 19.4345 61.9094 19.3236 61.6036 19.2557C61.2929 19.194 60.9731 19.194 60.6624 19.2557C60.5906 19.2664 60.5177 19.2664 60.4459 19.2557C60.3839 19.2946 60.3176 19.3262 60.2483 19.3498C60.0789 19.3498 59.9471 19.5192 59.7589 19.6133C59.5706 19.7074 59.0436 19.5192 58.7424 18.9545C58.5684 18.6119 58.4997 18.2255 58.5448 17.8439C58.6334 17.359 58.9154 16.9309 59.3259 16.658C59.533 16.5451 59.7495 16.4227 59.9659 16.3192C60.1812 16.2422 60.4013 16.1793 60.6248 16.1309C61.0549 16.0217 61.4995 15.9804 61.9424 16.0086C62.3436 16.0377 62.7409 16.1071 63.1283 16.2157C63.4869 16.3309 63.8388 16.466 64.1824 16.6204L64.6906 16.9027L65.0295 17.1098C65.1424 17.1757 65.3024 17.1945 65.3871 17.298C65.7636 17.6557 66.1401 17.9851 66.4977 18.3521C66.8431 18.6909 67.158 19.0594 67.4389 19.4533C67.6301 19.8352 67.7906 20.2318 67.9189 20.6392C68.0592 21.106 68.1723 21.5805 68.2577 22.0604C68.3432 22.5004 68.3779 22.9488 68.3612 23.3968C68.308 24.3073 67.9798 25.1803 67.4201 25.9004C66.156 27.4332 64.2476 28.2864 62.2624 28.2062C61.0971 28.2036 59.9524 27.8987 58.9401 27.3215C57.4279 26.4757 56.4415 24.9271 56.3142 23.1992C56.2442 22.5737 56.2442 21.9423 56.3142 21.3168C56.4032 20.5959 56.6233 19.8974 56.9636 19.2557C57.1031 18.9249 57.2766 18.6095 57.4812 18.3145C57.8191 17.9039 58.2711 17.6026 58.7801 17.4486C59.2525 17.4324 59.7088 17.6211 60.0318 17.9662C60.2404 18.1359 60.4384 18.3182 60.6248 18.5121C60.9001 18.8095 61.1143 19.1581 61.2553 19.538C61.378 19.7579 61.4819 19.9877 61.5659 20.2251C61.6977 20.658 61.9424 20.7709 62.093 20.7992C62.1661 20.825 62.2458 20.825 62.3189 20.7992C62.2425 20.8797 62.2204 20.9976 62.2624 21.1004L62.1965 21.2792Z" fill="black"/>
<path d="M85.5281 54.2297C84.721 54.9483 83.7524 55.4616 82.7046 55.7261C81.7336 55.9646 80.7229 55.9935 79.7399 55.8108C79.0742 55.7219 78.4226 55.5479 77.8011 55.2932C77.2989 55.0248 76.823 54.7097 76.3799 54.352C75.8845 53.9933 75.4492 53.558 75.0905 53.0626C74.3385 51.9876 74.1298 50.6239 74.5258 49.3732C74.7861 48.4618 75.2244 47.6109 75.8152 46.8697C76.18 46.3782 76.6371 45.9626 77.1611 45.6461C77.7235 45.3002 78.3969 45.1824 79.0434 45.3167C79.4669 45.4297 79.2693 45.8438 79.0434 46.2579C78.8175 46.672 78.6575 47.265 78.4599 47.4908C78.0139 48.0038 77.6919 48.6124 77.5187 49.2697C77.4418 49.5462 77.3945 49.8302 77.3775 50.1167C77.3733 50.2999 77.3891 50.4829 77.4246 50.6626C77.5706 50.9907 77.8271 51.2571 78.1493 51.4156C78.3666 51.5333 78.5896 51.6401 78.8175 51.7356L79.4669 51.9708C80.354 52.3081 81.3425 52.2534 82.1869 51.8203C82.4425 51.6745 82.6742 51.4904 82.874 51.2744C83.0505 51.1108 83.1998 50.9202 83.3164 50.7097C83.5105 50.4054 83.5781 50.0372 83.5046 49.6838C83.4003 49.3255 83.131 49.0386 82.7799 48.912C82.6406 48.8608 82.4949 48.8292 82.3469 48.8179C82.1529 48.799 81.9575 48.799 81.7634 48.8179C81.3775 48.8179 81.0011 48.9779 80.6528 49.025C80.4928 49.025 80.3517 49.1285 80.2011 49.1473C79.9612 49.1844 79.7178 49.1079 79.5422 48.9403C79.2931 48.6938 79.0779 48.4152 78.9022 48.112L78.5352 47.5756C78.3499 47.299 78.2729 46.964 78.3187 46.6344C78.4076 46.2593 78.6238 45.9267 78.9305 45.6932C79.1782 45.4766 79.4575 45.2988 79.7587 45.1661C80.0621 45.0187 80.3768 44.8959 80.6999 44.7991C81.3369 44.6241 82.002 44.5761 82.6575 44.6579C83.0039 44.6934 83.347 44.7564 83.6834 44.8461C84.1012 44.9979 84.5097 45.1738 84.9069 45.3732C85.311 45.5864 85.6872 45.8488 86.0269 46.1544C86.2014 46.2991 86.3649 46.4564 86.5164 46.625L86.9211 47.1614C87.6968 48.2822 87.9251 49.6933 87.5422 51.0014C87.517 51.1681 87.4761 51.3319 87.4199 51.4908L87.2034 51.9614C87.0745 52.2851 86.9236 52.5996 86.7517 52.9026C86.5634 53.1567 86.3564 53.4861 86.1775 53.6838C85.9987 53.8814 85.8293 54.0885 85.6222 54.2767L85.5281 54.2297Z" fill="black"/>
<path d="M68.0504 78.1273C67.4253 77.4261 66.9967 76.5722 66.8081 75.652C66.7261 75.3434 66.6694 75.0286 66.6387 74.7108C66.6387 74.419 66.714 74.1367 66.7704 73.8637C66.8531 73.6047 66.9635 73.3554 67.0998 73.1202C67.3213 72.6598 67.5961 72.227 67.9187 71.8308C68.1774 71.5307 68.4194 71.2165 68.6434 70.8896C68.9116 70.4866 69.2818 70.1618 69.7163 69.9484C69.8669 69.892 70.1116 70.1837 70.3093 70.5508C70.5069 70.9178 70.7046 71.3696 70.601 71.5861C70.3118 72.2391 69.972 72.8685 69.5846 73.4684C69.4636 73.767 69.4373 74.0956 69.5093 74.4096C69.5365 74.7799 69.6598 75.1367 69.8669 75.4449C70.2956 76.004 70.9219 76.3778 71.6175 76.4896C71.9104 76.461 72.1805 76.3191 72.3704 76.0943C72.3704 76.0943 72.4269 76.0096 72.474 76.0002C72.521 75.9908 72.474 76.0002 72.5587 76.0002C72.6271 76.0392 72.6903 76.0866 72.7469 76.1414L73.3116 76.6402L73.641 76.9225C74.0271 77.2291 74.1811 77.7438 74.0269 78.212C73.6733 78.8455 73.0798 79.3102 72.3798 79.5014C71.7359 79.6841 71.0567 79.7035 70.4034 79.5578C69.4829 79.3102 68.651 78.8078 68.0034 78.1084L68.0504 78.1273Z" fill="black"/>
<path d="M77.6696 74.9445C77.3697 76.2942 76.6437 77.5118 75.599 78.4174C74.7098 79.1845 73.6669 79.7525 72.5402 80.0833C71.7851 80.3486 70.9959 80.5039 70.1966 80.5445C69.8307 80.5451 69.4654 80.5136 69.1049 80.4504C68.7289 80.4102 68.3592 80.3249 68.0037 80.1963C67.2537 79.9639 66.5676 79.5613 65.999 79.0198C64.9772 77.9906 64.3994 76.6018 64.3896 75.1516C64.3397 74.0103 64.5657 72.8739 65.0484 71.8386C65.3979 71.1741 65.9014 70.6029 66.5166 70.1727L67.0061 69.881C67.1849 69.8151 67.3637 69.768 67.5425 69.721C67.893 69.6156 68.2615 69.5835 68.6249 69.6268C69.0766 69.6268 68.9825 70.041 68.7378 70.5116C68.6249 70.7563 68.4743 70.9916 68.3519 71.2457C68.2582 71.4806 68.1448 71.7073 68.0131 71.9233C67.9566 71.9986 67.9096 72.0739 67.8531 72.1398C67.7966 72.2057 67.7778 72.3186 67.7402 72.4033C67.6656 72.5726 67.6088 72.7493 67.5708 72.9304C67.5708 73.0998 67.5049 73.3068 67.4484 73.4763C67.3919 73.6457 67.4484 73.8527 67.4484 74.0504C67.4532 74.7435 67.6175 75.4262 67.9284 76.0457C67.9284 76.121 68.0414 76.1774 68.0978 76.2527C68.1526 76.3242 68.2282 76.3769 68.3143 76.4033C68.3924 76.459 68.4741 76.5093 68.559 76.5539L68.8602 76.6198C69.3416 76.6695 69.8279 76.6409 70.3002 76.5351C71.4157 76.3942 72.4167 75.7805 73.0484 74.8504C73.1917 74.5992 73.2785 74.3197 73.3025 74.0316C73.3326 73.7449 73.3135 73.4553 73.2461 73.1751C73.1933 72.7476 72.9734 72.3584 72.6343 72.0927C72.259 71.8526 71.7944 71.7971 71.3731 71.9421C70.9358 72.0956 70.5306 72.3286 70.1778 72.6292C69.7832 72.9673 69.4092 73.3288 69.0578 73.7116C68.8978 73.8716 68.7755 74.0692 68.6061 74.2198C67.8531 74.5963 67.4108 74.4833 66.5261 73.8527C66.3284 73.7021 66.1214 73.5798 65.9331 73.4292C65.2917 72.886 65.0881 71.9834 65.4343 71.2174C65.5298 70.8818 65.6792 70.5639 65.8766 70.2763C66.0803 70.0175 66.2971 69.7693 66.5261 69.5327C67.0096 69.0352 67.5497 68.5962 68.1355 68.2245C68.8424 67.7902 69.6146 67.4724 70.4225 67.2833L71.2319 67.1045C71.5049 67.1045 71.7778 67.1045 72.0602 67.1045C72.6076 67.1043 73.1525 67.1804 73.679 67.3304C76.9825 68.1021 78.4414 72.3468 77.7919 75.001L77.6696 74.9445Z" fill="black"/>
</svg>
