<svg width="96" height="96" viewBox="0 0 96 96" fill="none" xmlns="http://www.w3.org/2000/svg">
<path d="M71.2855 46.3095C70.2071 40.6654 68.7513 35.1 66.9278 29.6507C66.5978 28.7121 66.2113 27.7943 65.7702 26.9025L65.469 26.366L65.3654 26.1966C65.3051 26.0827 65.2044 25.9955 65.0831 25.9519L64.9137 25.886L64.2925 25.6884C63.8878 25.5566 63.4454 25.4625 63.0125 25.3401C62.156 25.1048 61.2713 24.9166 60.3866 24.7378C58.6078 24.3707 56.7913 24.079 54.9655 23.8531C51.3513 23.3731 47.5866 23.2319 43.8784 23.0625C40.5727 22.9971 37.2667 23.1733 33.9866 23.5895C29.7984 24.0978 25.7043 25.0013 21.5725 25.6319C20.2831 25.8201 20.1137 24.8131 20.9231 23.5143C22.1357 21.7295 23.978 20.4688 26.0807 19.9848C30.4843 18.9516 34.968 18.2967 39.4831 18.0272C40.6125 17.9519 41.7325 17.8954 42.8619 17.886C43.9913 17.8766 45.1207 17.886 46.2502 17.886C47.3796 17.886 48.509 17.9895 49.629 18.1025C50.749 18.2154 51.8878 18.3095 53.0172 18.4695C55.709 18.8178 58.4572 19.1284 61.2431 19.5519C62.636 19.7495 64.0666 20.0413 65.4502 20.3425L66.5796 20.6437L67.4078 20.8695C67.6713 20.9543 67.916 21.0766 68.1796 21.1801C69.1295 21.771 69.8803 22.6333 70.3349 23.6554C71.0577 25.0907 71.6865 26.5715 72.2172 28.0884C72.7443 29.5378 73.2149 30.9778 73.6666 32.4178C74.6078 35.3072 75.3419 38.2154 76.0666 41.1425C76.9513 44.7378 77.676 48.3707 78.2407 52.0695C78.7277 54.9381 78.9169 57.8492 78.8055 60.7566C78.7559 61.6055 78.5945 62.4441 78.3255 63.2507C78.2317 63.4993 78.1217 63.7414 77.996 63.9754C77.9302 64.0978 77.836 64.2295 77.7513 64.3613L77.6855 64.4554V64.5213L77.7043 64.6437C77.6616 64.843 77.6018 65.0382 77.5255 65.2272C77.4694 65.3308 77.4032 65.4285 77.3278 65.519L77.0454 65.7448C76.6507 66.0144 76.2197 66.2267 75.7654 66.3754C75.3359 66.5325 74.8955 66.6583 74.4478 66.7519L73.8172 66.9119L73.2902 67.0154L72.2455 67.2225C67.9631 67.966 63.8407 68.766 59.6525 69.406C58.7113 69.5566 57.8266 69.6695 56.8949 69.7543C53.4219 70.0084 52.2737 69.7543 51.4172 68.8131C51.2082 68.619 51.0191 68.4046 50.8525 68.1731C50.4384 67.439 51.7937 66.5919 54.2407 65.8672L56.9984 65.0672C57.9396 64.7943 58.8807 64.5401 59.8219 64.3519L65.469 63.1095C67.3513 62.7143 69.2337 62.3001 71.116 61.886C71.5678 61.7731 72.0007 61.6601 72.4525 61.5754H72.6125H72.6784H72.8196H72.9607H73.0266V61.5754C73.0266 61.5754 73.0831 61.4343 73.1207 61.359V61.2837V61.2837V61.2837C76.3678 63.7307 74.0619 61.9519 74.7396 62.4978V62.4978L74.5796 62.3754C74.4752 62.3037 74.365 62.2407 74.2502 62.1872C74.0996 62.0931 73.9584 62.0178 73.8078 61.9425L73.0454 61.6319H72.9419V61.6319V61.6319C72.9419 61.6319 72.9419 61.5472 72.9419 61.4625C72.9813 61.2511 73.0065 61.0373 73.0172 60.8225C73.0505 60.2363 73.0505 59.6487 73.0172 59.0625C72.9607 57.7825 72.8102 56.4084 72.6125 55.0248C72.2266 52.2578 71.6713 49.3778 71.0031 46.6107L71.2855 46.3095Z" fill="black"/>
<path d="M76.17 44.681C75.4171 40.7846 74.5512 36.8881 73.5347 33.0575C73.0171 31.1752 72.4712 29.2458 71.85 27.4105C71.5394 26.4693 71.2006 25.6128 70.8524 24.8316L70.7018 24.4928L70.6265 24.3516C70.5877 24.2501 70.4905 24.1828 70.3818 24.1822C70.3818 24.1822 70.3253 24.1822 70.3065 24.1822L70.1747 24.1728L69.4782 24.0222C69.0171 23.9093 68.5371 23.8622 68.0194 23.7775C67.0469 23.6144 66.0586 23.4826 65.0547 23.3822C61.4782 22.9869 57.8171 22.9305 54.1747 22.8458C47.738 22.6664 41.2964 22.9021 34.89 23.5516C33.29 23.7305 31.69 23.8905 30.1182 24.1634C29.3277 24.2952 28.5371 24.3987 27.7559 24.5493L25.4124 25.0293C24.6312 25.1705 23.8782 25.3869 23.1159 25.594C22.3535 25.801 21.5724 25.961 20.8477 26.2434L18.6265 26.9963C18.1088 27.2034 17.77 27.3822 17.3182 27.5893C17.2251 27.6217 17.1365 27.666 17.0547 27.721C17.0357 27.8047 17.0357 27.8915 17.0547 27.9752C17.0674 28.1456 17.0894 28.3153 17.1206 28.4834L17.2147 29.0575L17.4312 30.1022C17.723 31.4952 18.0618 32.9258 18.3724 34.3093L20.5088 42.7234C22.3912 49.9046 24.3582 57.114 25.1112 64.5963C25.3088 66.9493 24.3488 66.7234 23.1441 64.954C21.3637 62.1408 20.0599 59.053 19.2853 55.8152C17.4688 48.521 15.4077 41.3022 13.5535 33.9046L12.8853 31.081L12.5371 29.434C12.3281 28.5618 12.227 27.6673 12.2359 26.7705C12.2578 26.3694 12.3468 25.9749 12.4994 25.6034C12.5517 25.4235 12.6415 25.2567 12.763 25.114L13.2618 24.8034L15.2477 23.5516C16.2459 22.8703 17.3447 22.3495 18.5041 22.0081C18.9841 21.8293 19.4453 21.6599 19.9535 21.5093L21.4124 21.1234C22.3535 20.8787 23.3512 20.5963 24.3206 20.4363C25.29 20.2763 26.2594 20.0505 27.2288 19.881L30.1747 19.4669C39.5631 18.2154 49.0358 17.7087 58.5041 17.9516C59.6147 17.9516 60.7159 18.0458 61.8265 18.1305C62.9371 18.2152 64.0477 18.2716 65.1677 18.4034C66.2877 18.5352 67.3888 18.6293 68.5182 18.8081C69.0735 18.8928 69.6288 18.9493 70.203 19.0622L72.283 19.4669C72.5465 19.5705 72.8194 19.6552 73.0924 19.7493C73.3532 19.876 73.5917 20.0445 73.7982 20.2481C74.2254 20.6568 74.5901 21.1261 74.8806 21.641C75.0218 21.8858 75.1818 22.1869 75.2759 22.3846L75.5394 22.9493C75.7088 23.3163 75.8594 23.6834 76.01 24.0505C76.5841 25.4999 77.0641 26.9399 77.5159 28.3799C78.4006 31.2505 79.1629 34.1305 79.8688 37.0293C81.397 43.2399 82.5194 49.5434 83.2288 55.8999C83.5181 58.3702 83.6031 60.8602 83.483 63.3446C83.483 63.674 83.4265 63.994 83.3888 64.3328C83.3512 64.6716 83.2571 65.1516 83.1724 65.5563C83.0057 66.3875 82.6517 67.1697 82.1371 67.8434C81.4974 68.3856 80.7044 68.7146 79.8688 68.7846C79.6618 68.7846 79.4453 68.8599 79.2288 68.8787L78.6453 68.9446L77.7041 69.0293C72.8571 69.3681 68.1418 69.5752 63.4453 70.0363C56.2622 70.7061 49.1493 71.9876 42.1841 73.8669C40.6594 74.2905 39.1818 74.7046 37.6759 75.1658C34.8524 75.9846 33.0359 76.5869 31.7088 76.9163C30.7519 77.2062 29.7425 77.2802 28.7535 77.1328C28.4007 77.0939 28.0515 77.0278 27.7088 76.9352C27.2947 76.7375 27.5677 76.2481 28.4524 75.5046C29.8141 74.4416 31.2994 73.5473 32.8759 72.841L35.1818 71.7963L37.5347 70.8552C39.1214 70.2216 40.7392 69.6688 42.3818 69.1987C45.6665 68.2575 49.0359 67.4387 52.4335 66.7799C55.8312 66.121 59.2947 65.6222 62.7865 65.1987C66.2782 64.7752 69.7324 64.5493 73.1394 64.2575L76.9041 63.9752L77.7982 63.8905H78.1841V63.8905V63.6834C78.1841 63.4387 78.203 63.1846 78.2406 62.921C78.3059 61.7769 78.3059 60.6299 78.2406 59.4858C77.8279 54.5327 77.0891 49.6122 76.0288 44.7563L76.17 44.681Z" fill="black"/>
</svg>
