<svg width="96" height="96" viewBox="0 0 96 96" fill="none" xmlns="http://www.w3.org/2000/svg">
<path d="M19.0499 28.8083C18.9072 29.0482 18.8263 29.3199 18.8146 29.5989C18.7714 29.868 18.8469 30.1427 19.0217 30.3518C19.7493 31.2064 20.7442 31.7902 21.8452 32.0083C22.6845 32.1504 23.5444 32.1119 24.3676 31.8953C25.1308 31.7529 25.8555 31.4515 26.4946 31.0106C27.8786 30.0319 28.7602 28.4925 28.904 26.8036C28.9646 25.9183 28.8263 25.0308 28.4993 24.2059C27.7899 22.6256 26.6012 21.3085 25.1017 20.4412C24.1093 19.8631 23.0548 19.3989 21.9582 19.0577C21.3464 18.8412 20.8193 18.6248 20.3017 18.4742C19.8843 18.3308 19.4438 18.2669 19.0029 18.2859C18.8072 18.319 18.609 18.2434 18.4852 18.0883C18.2869 17.8059 18.2869 17.4295 18.4852 17.1471C18.8799 16.6101 19.4665 16.246 20.1229 16.1306C20.8689 15.9565 21.6451 15.9565 22.3911 16.1306C22.9464 16.2624 23.6805 16.4412 24.3393 16.6671C25.0201 16.8921 25.6837 17.1658 26.3252 17.4859C27.6679 18.1438 28.8823 19.0363 29.9111 20.1212C31.0184 21.285 31.8344 22.6944 32.2923 24.2342C32.7582 25.8259 32.7582 27.5178 32.2923 29.1095C31.7531 30.9934 30.7159 32.6971 29.2899 34.0412C27.8449 35.4412 25.9798 36.3275 23.9817 36.5636C23.7182 36.5636 23.4452 36.62 23.1723 36.6295H22.3629C21.8271 36.6133 21.2943 36.544 20.7723 36.4224C19.7385 36.1934 18.7453 35.8095 17.8264 35.2836C16.8347 34.7352 15.969 33.985 15.2852 33.0812C14.5283 32.0708 14.1188 30.8425 14.1182 29.58C14.1557 28.1063 14.7124 26.693 15.6899 25.5895C16.6185 24.5283 17.8673 23.7982 19.2476 23.5095C20.3015 23.2957 21.3944 23.3838 22.4005 23.7636C23.3751 24.143 24.2345 24.7689 24.8946 25.58C26.0311 27.0669 26.723 28.8454 26.8899 30.7095C27.0772 32.1339 26.9909 33.5809 26.6358 34.973C26.257 36.4571 25.4483 37.7963 24.3111 38.8224C23.8531 39.2998 23.3187 39.6974 22.7299 39.9989C22.0215 40.3969 21.2269 40.6166 20.4146 40.6389C20.1716 40.6364 19.9316 40.5852 19.7088 40.4883C19.4959 40.3624 19.2971 40.2141 19.1158 40.0459C18.9584 39.9256 18.8075 39.7968 18.664 39.66C18.3346 39.3495 18.7958 38.173 19.8123 37.2883C20.1547 36.9468 20.4694 36.5785 20.7535 36.1871C21.0264 35.82 21.3088 35.5283 21.497 35.2459C21.684 34.9511 21.8357 34.6351 21.9488 34.3048C22.0687 33.9967 22.1724 33.6825 22.2593 33.3636C22.3416 33.0168 22.3982 32.6645 22.4288 32.3095C22.4613 31.94 22.4613 31.5684 22.4288 31.1989C22.3724 30.4513 22.1877 29.7191 21.8829 29.0342C21.7329 28.6794 21.5119 28.3591 21.2335 28.093C21.0396 27.9459 20.7983 27.8756 20.5558 27.8953C19.9548 27.939 19.4215 28.2968 19.1535 28.8365L19.0499 28.8083Z" fill="black"/>
<path d="M36.6411 66.9172C35.7911 67.6508 35.2526 68.6806 35.1352 69.7972C35.1148 70.1612 35.2728 70.5123 35.5587 70.7384L35.6717 70.8607L35.8411 70.9643L36.1893 71.1996C36.4811 71.2937 36.8105 71.4913 37.0646 71.5572C37.7075 71.7524 38.4047 71.6339 38.947 71.2372C39.634 70.7343 40.1762 70.0591 40.5187 69.2796C40.9415 68.3959 41.1786 67.4349 41.2152 66.456C41.3038 64.3062 40.7073 62.1838 39.5117 60.3949C38.3676 58.7431 36.861 57.3749 35.107 56.3949C32.8602 55.0375 30.2872 54.3154 27.6623 54.3054C26.8529 54.3054 26.8623 54.0984 27.5493 53.6654C28.7257 52.9981 30.0825 52.7181 31.427 52.8654C34.5056 53.2185 37.4319 54.3955 39.8976 56.2725C41.2005 57.2488 42.3003 58.4701 43.1352 59.8678C43.9934 61.2876 44.5687 62.86 44.8293 64.4984C45.1507 66.5588 44.9435 68.6671 44.227 70.6254C43.8532 71.6427 43.3229 72.5954 42.6552 73.449C41.8882 74.4432 40.8531 75.1975 39.6717 75.6231C38.3587 76.0438 36.9441 76.024 35.6434 75.5666C34.4367 75.1851 33.337 74.5241 32.434 73.6372C31.4546 72.6251 30.8933 71.2806 30.8623 69.8725C30.851 68.6207 31.1761 67.3888 31.8034 66.3054C32.4932 65.0929 33.4255 64.0356 34.5423 63.1996C35.6587 62.3595 36.9426 61.7689 38.307 61.4678C40.3344 61.0357 42.4471 61.27 44.3305 62.136C46.1613 62.9602 47.7376 64.2603 48.8952 65.9007C50.7113 68.3819 51.6814 71.3813 51.6623 74.456C51.7005 75.1108 51.6626 75.7677 51.5493 76.4137C51.0411 78.776 50.4764 79.3784 49.3564 79.5666C49.1186 79.6272 48.8762 79.6681 48.6317 79.689C47.8976 79.689 47.4364 78.616 47.427 77.0631C47.427 76.489 47.427 75.9149 47.3329 75.3596C47.2387 74.8043 47.3329 74.2772 47.267 73.7502C47.2197 72.7562 47.0586 71.771 46.787 70.8137C46.2727 69.0245 45.1764 67.458 43.6717 66.3619C43.128 65.986 42.5274 65.7 41.8929 65.5149C41.2781 65.3602 40.6414 65.3124 40.0105 65.3737C38.7473 65.5015 37.5735 66.0834 36.707 67.0113L36.6411 66.9172Z" fill="black"/>
<path d="M62.7951 39.9151C63.4602 38.3893 64.8388 37.2928 66.4751 36.988C67.2643 36.8323 68.0764 36.8323 68.8656 36.988C69.4834 37.1129 70.0839 37.312 70.6539 37.581C71.6591 38.0537 72.591 38.6686 73.4209 39.4069C74.2472 40.1173 74.9724 40.9375 75.5762 41.8445C76.5879 43.2335 77.1674 44.8901 77.2421 46.6069C77.2563 48.2284 76.6887 49.8012 75.6421 51.0398C74.7344 52.1012 73.6116 52.9578 72.348 53.5528C70.0255 54.7407 67.4193 55.262 64.8186 55.0586C62.5619 54.9012 60.3838 54.1654 58.4939 52.9222C56.1291 51.4077 54.304 49.1839 53.2798 46.5692C52.9504 45.7786 53.5621 45.628 54.4656 45.8916C55.5975 46.2863 56.6266 46.9295 57.4774 47.7739C58.9645 49.3903 60.8858 50.5437 63.0115 51.0963C64.0292 51.3707 65.0834 51.485 66.1362 51.4351C67.2369 51.4031 68.3273 51.2129 69.3739 50.8704C70.6425 50.493 71.7697 49.7459 72.6115 48.7245C73.267 47.8799 73.4544 46.7626 73.1104 45.7504C72.6828 44.388 71.8526 43.187 70.7292 42.3057C70.1626 41.8285 69.5282 41.4384 68.8468 41.148C68.567 41.0358 68.277 40.9507 67.9809 40.8939C67.7856 40.8517 67.5834 40.8517 67.388 40.8939C66.8565 40.9911 66.4646 41.4457 66.4468 41.9857C66.4274 42.6061 66.7487 43.1875 67.2845 43.501C69.2892 45.0069 72.8468 44.2916 74.908 42.3716C76.4718 40.9906 77.0798 38.8205 76.4609 36.828C76.3386 36.4139 76.1221 36.0469 75.9998 35.6233C75.7486 35.0594 75.5745 34.4643 75.4821 33.8539C75.5433 33.3558 75.6898 32.8718 75.9151 32.4233C76.028 32.2163 76.1033 31.981 76.2068 31.8116C76.3104 31.6422 76.7245 31.4539 77.2515 31.5763C77.9999 31.7117 78.671 32.1211 79.1339 32.7245C79.362 32.9931 79.5726 33.276 79.7645 33.5716C79.9712 33.8738 80.1598 34.1881 80.3292 34.5128C80.6823 35.2046 80.9358 35.9429 81.0821 36.7057C81.3731 38.3301 81.2136 40.0032 80.6209 41.5433C79.3822 44.562 76.8807 46.8845 73.7786 47.8963C72.6407 48.2973 71.446 48.5133 70.2398 48.5363C68.9454 48.5579 67.6615 48.3011 66.4751 47.7833C65.8306 47.4998 65.2262 47.1328 64.6774 46.6916C64.022 46.1791 63.4776 45.5387 63.0774 44.8092C62.2081 43.2877 62.0699 41.4557 62.7009 39.821L62.7951 39.9151Z" fill="black"/>
</svg>
