<svg width="96" height="96" viewBox="0 0 96 96" fill="none" xmlns="http://www.w3.org/2000/svg">
<path d="M21.6202 67.4701C21.7912 67.2203 21.9333 66.952 22.0437 66.6701V66.6701V66.6701C22.081 66.6636 22.1193 66.6636 22.1566 66.6701C22.2698 66.6352 22.38 66.5911 22.486 66.5383C22.6649 66.3877 22.3825 66.6418 22.3354 66.8018C22.3354 66.8018 22.2319 66.7454 22.0625 66.7266H21.959V66.7266C21.959 66.7266 21.959 66.7266 21.8554 66.7266C21.5521 66.7917 21.2558 66.8862 20.9707 67.0089C19.7648 67.5419 18.5299 68.007 17.2719 68.4018C16.3224 68.6759 15.3195 68.7082 14.3543 68.496C14.0721 68.4109 13.8006 68.2941 13.5449 68.1477C13.1747 67.923 12.8773 67.5962 12.6884 67.2066C12.3589 66.2905 12.379 65.2851 12.7449 64.383C12.9113 64.0073 13.1231 63.6533 13.3754 63.3289C13.6578 63.0183 13.9496 62.7171 14.3166 62.3877C15.2767 61.5428 16.3547 60.8421 17.5166 60.3077C17.8034 60.1717 18.083 60.0209 18.3543 59.856C18.5707 59.7242 18.8625 59.5642 18.8531 59.5171C18.9209 59.4552 18.9726 59.3777 19.0037 59.2913C19.02 59.2535 19.0422 59.2185 19.0696 59.1877L19.1166 59.0089L19.1731 58.7642V58.7642H19.3425C19.42 58.7421 19.4955 58.7138 19.5684 58.6795C19.501 58.7734 19.4442 58.8744 19.399 58.9807C19.399 59.0277 19.3425 58.9807 19.239 58.9807C18.4335 59.006 17.6367 59.1552 16.8766 59.423C16.0013 59.6771 15.1072 59.9501 14.166 60.1854C13.5731 60.3266 13.4319 59.8466 13.6578 59.1218C13.9796 58.1403 14.6491 57.3102 15.5402 56.7877C16.0295 56.5265 16.5322 56.2909 17.046 56.0818C17.6477 55.8302 18.2811 55.6624 18.9284 55.583C19.4225 55.5217 19.9237 55.5536 20.406 55.6771C20.7768 55.7748 21.1273 55.9373 21.4413 56.1571C21.83 56.418 22.1523 56.7661 22.3825 57.1736C22.7228 57.7919 22.8856 58.4922 22.8531 59.1971C22.8411 59.4279 22.8128 59.6575 22.7684 59.8842C22.7278 60.0993 22.6679 60.3104 22.5896 60.5148C22.5049 60.7501 22.4107 60.9854 22.3072 61.2113C22.1928 61.4188 22.0671 61.6199 21.9307 61.8136L21.7237 62.096C21.6766 61.9736 21.6766 61.9736 21.6766 61.9736L21.5354 62.0866H21.2907C20.9326 62.1531 20.5801 62.2475 20.2366 62.3689C19.6154 62.5666 19.2954 63.0466 19.3802 63.4418C19.4554 63.6395 19.719 63.6207 19.8978 63.583L20.4154 63.4324C20.8138 63.286 21.2274 63.185 21.6484 63.1313C21.7237 63.1313 21.7331 63.1313 22.0719 63.1313C22.4107 63.1313 22.5425 63.1877 22.7778 63.2254C23.0253 63.2718 23.2679 63.3411 23.5025 63.4324C23.7688 63.5163 24.0222 63.6367 24.2554 63.7901C24.5109 63.9514 24.7449 64.1443 24.9519 64.3642C25.4992 65.0159 25.7844 65.8479 25.7519 66.6983C25.7175 67.767 25.4132 68.8096 24.8672 69.7289C24.6067 70.1894 24.2906 70.6161 23.926 70.9995C23.8131 71.103 23.7472 71.1971 23.606 71.3101C23.4649 71.423 23.3237 71.536 23.2107 71.6113C22.998 71.7455 22.778 71.868 22.5519 71.9783C21.8649 72.2795 21.2625 72.4583 20.566 72.7689C20.2362 72.9065 19.9209 73.0768 19.6249 73.2771C19.3425 73.456 19.0131 73.7666 19.1825 74.1148C19.3519 74.463 19.719 74.3877 20.0296 74.3689C20.3402 74.3501 20.6884 74.2936 20.9707 74.256C21.4716 74.1741 21.981 74.1583 22.486 74.2089H22.6743L22.8719 74.2936C23.1471 74.4018 23.4091 74.5407 23.6531 74.7077C24.3324 75.111 24.8235 75.7679 25.0178 76.5336C25.0305 77.0267 24.8109 77.4972 24.4249 77.8042C24.2601 77.9764 24.0806 78.1339 23.8884 78.2748C23.5611 78.4554 23.1767 78.5026 22.8154 78.4066C22.4267 78.3455 22.0567 78.1975 21.7331 77.9736C21.5592 77.8308 21.3617 77.7193 21.1496 77.6442L20.9896 77.5783H20.9049L20.6225 77.4936C20.4149 77.4051 20.1877 77.3727 19.9637 77.3995C19.7002 77.3995 19.4649 77.3995 19.1354 77.456C18.5109 77.536 17.8826 77.5831 17.2531 77.5971C16.9918 77.5945 16.7309 77.5756 16.4719 77.5407C16.2649 77.5407 16.0202 77.4654 15.8602 77.4183C15.5704 77.3415 15.2896 77.2343 15.0225 77.0983C14.8406 77.0225 14.6671 76.9279 14.5049 76.816C14.2846 76.6785 14.085 76.5106 13.9119 76.3171C13.665 76.0301 13.4907 75.688 13.4037 75.3195C13.315 75.014 13.2768 74.6961 13.2907 74.3783L13.3849 73.6536C13.4136 73.2093 13.5669 72.782 13.8272 72.4207C13.9177 72.2492 14.0353 72.0934 14.1754 71.9595C14.326 71.8089 14.4484 71.6583 14.6178 71.5077L15.1354 71.0277C15.3519 70.8771 15.606 70.736 15.8319 70.5854C16.0578 70.4348 16.3307 70.2842 16.5849 70.1336C16.8485 69.9724 17.122 69.8278 17.4037 69.7007L19.1637 68.863L20.0484 68.4301L20.6225 68.1289C20.693 68.1017 20.7653 68.0797 20.839 68.063V68.063L21.0743 68.4018C21.237 68.6196 21.413 68.827 21.6013 69.023L21.7425 69.1736V69.1736V69.1736V69.1736L20.7166 68.063V68.063V68.063C20.9943 67.8678 21.2256 67.614 21.3943 67.3195L21.6202 67.4701Z" fill="black"/>
<path d="M25.8361 64.486L26.1467 66.6225C26.2126 67.3472 26.2973 68.0625 26.3444 68.7778C26.3444 69.3049 26.5138 69.8037 26.5232 70.3307C26.5184 72.1798 26.3324 74.0239 25.9679 75.8366C25.8456 76.646 25.7232 77.446 25.6103 78.246C25.4899 79.3078 25.1084 80.3231 24.4997 81.2013C24.2832 81.4743 23.7938 81.2013 23.3232 80.759C22.8276 80.372 22.4925 79.8156 22.382 79.1966C22.454 77.3517 22.6616 75.5146 23.0032 73.7002C23.0952 72.5319 23.0509 71.357 22.8714 70.199C22.815 69.5496 22.7679 68.9002 22.6738 68.2602C22.5797 67.6202 22.5044 66.9613 22.382 66.3119C22.2597 65.5119 22.0526 64.7308 21.8644 63.9402C21.5915 62.7483 21.2135 61.583 20.735 60.4578C20.2497 59.6403 19.6955 58.8658 19.0785 58.1425C18.9561 57.9731 18.8056 57.8319 18.6926 57.6531C18.2973 56.9943 18.4103 56.6555 19.1726 56.006C19.3514 55.8649 19.5114 55.7049 19.6997 55.5731C20.2152 55.1227 20.9747 55.0914 21.5256 55.4978C21.91 55.7869 22.2748 56.1013 22.6173 56.439C22.9349 56.8012 23.2185 57.1918 23.4644 57.606C23.9697 58.4375 24.3982 59.3133 24.7444 60.2225C25.2475 61.5922 25.6563 62.9947 25.9679 64.4202L25.8361 64.486Z" fill="black"/>
<path d="M47.6714 40.7584C44.3415 45.3594 40.1156 49.2395 35.2478 52.1655C34.3726 52.6925 33.4878 53.2102 32.6031 53.7184C31.7141 54.217 30.8 54.6694 29.8643 55.0737C27.4409 56.1128 24.9429 56.9685 22.3914 57.6337C21.1208 57.9443 19.8596 58.2831 18.5702 58.509C17.9302 58.6314 17.2996 58.7631 16.6878 58.8761L15.7467 59.0078H15.342C15.1455 59.0254 14.9505 59.0568 14.7584 59.1019C14.6359 59.2519 14.5844 59.4476 14.6173 59.6384C14.6225 59.834 14.6414 60.029 14.6737 60.2219V60.3819L14.7396 60.6737L14.8902 61.3137C15.229 62.7631 15.6808 64.2408 16.0949 65.7467C16.509 67.2525 16.7349 68.8149 16.9608 70.3772C17.2932 72.434 17.3565 74.5253 17.149 76.5984C16.8987 78.7724 16.0699 80.8395 14.749 82.5843C13.8078 83.6478 13.2902 82.8572 13.0173 81.549C12.8667 80.8902 12.7255 80.0902 12.6126 79.2714C12.4616 78.4079 12.4111 77.5299 12.462 76.6549C12.5391 75.1454 12.5045 73.6322 12.3584 72.1278C12.1711 70.5243 11.9009 68.9316 11.549 67.3561C11.3231 65.7372 11.1443 64.0337 10.8243 62.2549L10.5514 60.5231C10.4676 60.1259 10.411 59.7234 10.382 59.3184C10.344 58.9366 10.344 58.552 10.382 58.1702C10.4685 57.47 10.7674 56.8131 11.2384 56.2878C11.8043 55.8206 12.4824 55.5092 13.2055 55.3843L14.4667 55.1867L15.0878 55.1019L15.4267 55.0549C15.8878 55.0549 16.3678 54.9514 16.782 54.8761C21.4267 54.108 25.9152 52.5885 30.0714 50.3772C34.6859 48.0799 38.7922 44.8794 42.1467 40.9655C44.2136 38.521 46.0063 35.8572 47.4926 33.0219C48.2455 31.7702 48.9514 30.4714 49.6949 29.1537C50.0714 28.4855 50.4667 27.8361 50.8996 27.1208C51.367 26.1774 52.2674 25.5232 53.309 25.3702H53.8831C54.0304 25.361 54.1782 25.361 54.3255 25.3702C54.6422 25.3891 54.9569 25.4331 55.2667 25.5019C55.8909 25.6299 56.487 25.869 57.0267 26.2078C58.0723 26.9213 58.8479 27.9654 59.229 29.1725C59.8168 31.2336 59.904 33.4052 59.4831 35.5067C59.3126 36.5162 59.0736 37.513 58.7678 38.4902C58.4417 39.4603 58.0421 40.4042 57.5726 41.3137C57.177 42.1242 56.7274 42.9072 56.2267 43.6572C55.5519 44.69 54.6862 45.5844 53.6761 46.2925C53.151 46.6693 52.4883 46.7997 51.8596 46.6502C51.6038 46.6192 51.3535 46.5527 51.1161 46.4525C50.4478 46.0761 51.0502 44.8808 52.1796 43.1208C53.7908 40.4379 54.9334 37.5002 55.5584 34.4337C55.8824 33.1037 55.9081 31.7184 55.6337 30.3772C55.547 29.9782 55.3478 29.6124 55.0596 29.3231C54.7598 29.0639 54.3824 28.9116 53.9867 28.8902C53.9085 28.8803 53.8295 28.8803 53.7514 28.8902C53.7514 28.8902 53.7514 28.8902 53.7984 28.8902C53.8455 28.8902 53.7984 28.8902 53.7984 28.8902C53.7309 28.9723 53.671 29.0606 53.6196 29.1537L53.4126 29.4643C53.2902 29.7372 53.1961 29.9819 53.0831 30.2643L51.7937 33.7937C51.5578 34.4183 51.2844 35.028 50.9749 35.6196C50.6549 36.2125 50.3161 36.7961 49.9773 37.3796C49.2808 38.5372 48.5561 39.6855 47.7655 40.7961L47.6714 40.7584Z" fill="black"/>
<path d="M55.4171 85.9822C53.0077 85.8033 50.7112 85.4551 48.3301 85.1539C47.4736 85.0222 46.6171 85.0128 45.7701 84.8716C42.7865 84.3445 39.8218 83.7233 36.8759 83.0551C35.5677 82.7445 34.2501 82.5092 32.9324 82.2551C32.0948 82.0951 31.2383 81.9351 30.3912 81.728L29.7512 81.5398L29.2054 81.1916C28.806 80.9507 28.4253 80.6801 28.0665 80.3822C27.6148 80.0057 27.8595 79.7233 28.4712 79.441C28.7724 79.2716 29.1771 79.0645 29.5912 78.8575C29.8171 78.7539 30.0618 78.641 30.3065 78.5469L30.6736 78.4151C30.783 78.4018 30.8936 78.4018 31.003 78.4151C34.1842 79.0363 37.5912 79.4033 40.8854 80.3822C42.9383 80.8154 45.0211 81.0922 47.1159 81.2104C49.4124 81.4802 51.7057 81.703 53.9959 81.8786L56.1136 81.9916H58.2124C59.2143 81.9682 60.2139 81.8834 61.2054 81.7375C61.4294 81.7091 61.6501 81.6587 61.8642 81.5869C62.07 81.5333 62.2713 81.4641 62.4665 81.3798C62.6742 81.2867 62.8755 81.1798 63.0689 81.0598C63.2264 80.9667 63.3773 80.863 63.5206 80.7492C63.8717 80.4926 64.1055 80.1063 64.1701 79.6763C64.1988 79.2668 63.9589 78.886 63.5771 78.7351C63.4337 78.6832 63.2855 78.6454 63.1348 78.6222C63.0396 78.5922 62.9527 78.5406 62.8806 78.4716C62.8054 78.352 62.7484 78.222 62.7112 78.0857C62.5759 77.6217 62.5312 77.136 62.5795 76.6551C62.5795 76.3916 62.5795 76.1375 62.5795 75.9022C62.6241 75.4874 62.8475 75.1127 63.1912 74.8763C63.4187 74.7068 63.6613 74.5587 63.9159 74.4339C64.0665 74.3775 64.1983 74.2457 64.3865 74.2645L64.9983 74.3775C66.3189 74.6376 67.4942 75.3831 68.2924 76.4669C68.6704 77.0183 68.9536 77.6291 69.1301 78.2739C69.2131 78.9462 69.1781 79.6278 69.0265 80.288C68.8383 81.6528 67.6242 82.7728 66.5042 83.761C65.9944 84.1818 65.4461 84.5537 64.8665 84.8716L64.1795 85.2104C63.907 85.326 63.6272 85.4235 63.3418 85.5022C62.6069 85.7461 61.8454 85.9009 61.0736 85.9633C60.7406 86.0177 60.4039 86.046 60.0665 86.048H59.1254C58.4759 86.048 57.8736 86.048 57.243 86.048C56.6124 86.048 56.0007 86.048 55.3607 85.9916L55.4171 85.9822Z" fill="black"/>
<path d="M72.9602 67.0273C73.1014 67.2156 73.2143 67.4132 73.3461 67.6109L73.5249 67.9026C73.5629 68.0248 73.585 68.1513 73.5908 68.2791C73.5908 68.7967 73.7132 69.305 73.7132 69.8132V70.5567C73.746 70.8003 73.746 71.0472 73.7132 71.2909L73.572 72.0061C73.5121 72.2135 73.4267 72.4127 73.3179 72.5991C73.1861 72.8814 73.0732 73.1544 72.9508 73.3803C72.8441 73.6248 72.7082 73.8555 72.5461 74.0673C72.013 74.758 71.3434 75.3315 70.579 75.752C69.8854 76.1577 69.1329 76.453 68.3484 76.6273C67.6825 76.8092 66.9964 76.9072 66.3061 76.9191C65.3963 77.0224 64.484 76.7467 63.7837 76.1567C63.5673 75.9685 63.8496 75.6203 64.2355 75.2909C64.5467 74.9753 64.9316 74.7424 65.3555 74.6132C65.9043 74.6038 66.4491 74.5183 66.9743 74.3591C67.5368 74.2166 68.0874 74.0309 68.6214 73.8038C69.2493 73.4866 69.719 72.925 69.9202 72.2509C70.052 71.9214 70.0802 71.6579 70.1555 71.4791C70.2118 71.2418 70.2371 70.9982 70.2308 70.7544C70.2561 70.4085 70.0703 70.0815 69.7602 69.9261C69.6381 69.8755 69.5123 69.8346 69.3837 69.8038C69.2866 69.7958 69.1891 69.7958 69.092 69.8038H68.7343C68.2073 69.8038 67.652 69.7097 67.059 69.6344C66.0855 69.5955 65.1179 69.4632 64.1696 69.2391C63.9497 69.1927 63.7329 69.1329 63.5202 69.0603C63.3805 68.9627 63.2621 68.8378 63.172 68.6932C63.1341 68.5164 63.1341 68.3336 63.172 68.1567C63.278 67.7307 63.4632 67.3284 63.7179 66.9709C63.8496 66.7638 63.972 66.5567 64.1132 66.3685C64.34 66.0696 64.6133 65.8091 64.9226 65.5967C65.2356 65.3478 65.5658 65.1214 65.9108 64.9191C66.1975 64.8431 66.4904 64.7927 66.7861 64.7685C66.993 64.7561 67.2004 64.7561 67.4073 64.7685C67.7986 64.7334 68.1924 64.7334 68.5837 64.7685C68.979 64.7685 69.4496 65.1073 70.6167 65.3144L72.019 65.8603L72.5743 66.3591L73.0355 66.9332L72.9602 67.0273Z" fill="black"/>
<path d="M65.4408 53.9822C67.069 54.6316 68.782 55.2622 70.5608 56.0998C71.2699 56.362 71.9459 56.7063 72.5749 57.1257C73.881 58.0194 74.8697 59.3046 75.3984 60.7963C75.5718 61.4891 75.6634 62.1998 75.6714 62.9139C75.6767 63.2957 75.6452 63.6771 75.5773 64.0528C75.4953 64.4539 75.3625 64.8429 75.182 65.2104C74.8529 65.8561 74.3676 66.4094 73.7702 66.8198C73.237 67.162 72.6523 67.4162 72.0384 67.5728C70.6481 68.0532 69.1252 67.9721 67.7937 67.3469C67.389 67.1398 67.5773 66.6881 68.0008 66.2081C68.4383 65.6496 69.0165 65.2176 69.6761 64.9563C70.5048 64.9278 71.3055 64.6489 71.9726 64.1563C72.0841 64.0488 72.1625 63.9117 72.1984 63.761C72.2566 63.3899 72.2566 63.0121 72.1984 62.641C72.185 62.498 72.1598 62.3563 72.1231 62.2175C72.0977 62.1219 72.0597 62.0301 72.0102 61.9445C71.8969 61.7398 71.7394 61.5629 71.549 61.4269C71.0568 61.058 70.5268 60.7425 69.9678 60.4857C68.4779 59.7182 66.9296 59.0699 65.3373 58.5469L62.1467 57.4551C60.5298 56.8506 58.9574 56.1336 57.4408 55.3092C56.0897 54.7179 54.8236 53.9487 53.6761 53.0222C53.4139 52.8055 53.1714 52.5662 52.9514 52.3069C52.1984 51.2528 52.4149 50.6504 53.2055 50.0386C53.3852 49.8893 53.5738 49.751 53.7702 49.6245C54.4011 49.2814 55.1629 49.2814 55.7937 49.6245C56.6314 50.1045 57.3278 50.5657 58.1467 50.9328C58.9655 51.2998 59.822 51.7328 60.7914 52.1092C62.222 52.6645 63.7561 53.3233 65.4314 53.8598L65.4408 53.9822Z" fill="black"/>
<path d="M65.7795 24.0719C65.9113 24.3261 65.5442 24.4578 64.8948 24.5237C64.596 24.5155 64.3017 24.4484 64.0289 24.3261C63.8837 24.1884 63.7485 24.0406 63.6242 23.8837C63.5678 23.799 63.3889 22.5378 63.2666 22.1143C63.1756 21.7228 63.1439 21.3199 63.1725 20.919C63.1725 20.119 63.1725 19.3284 63.116 18.5566C63.1087 18.384 63.1342 18.2115 63.1913 18.0484C63.4041 17.4872 63.4563 16.8777 63.3419 16.2884C63.3419 16.1849 63.3419 16.0908 63.2195 15.9966C62.995 15.3956 62.8957 14.7551 62.9278 14.1143C63.1066 13.5778 63.1442 13.0508 63.3419 12.4861C63.3419 12.4108 63.3419 12.3355 63.4548 12.2413C63.6507 12.1402 63.7547 11.9205 63.7089 11.7049C63.7089 11.5919 63.7089 11.4696 63.7089 11.3472C63.7424 11.2171 63.7897 11.0909 63.8501 10.9708C63.9464 10.825 64.0534 10.6866 64.1701 10.5566C64.3148 10.4543 64.4943 10.4137 64.6689 10.4437C64.8101 10.519 64.9701 10.3966 65.1113 10.359C65.1643 10.3504 65.2183 10.3504 65.2713 10.359C65.5434 10.5373 65.8043 10.7321 66.0525 10.9425C66.2985 11.1621 66.5195 11.4083 66.7113 11.6766L66.8525 12.0061C66.9674 12.239 67.0618 12.4815 67.1348 12.7308C67.2854 13.2766 67.4266 13.8602 67.4736 13.9731C67.5207 14.0861 67.4736 14.2272 67.4078 14.359C67.3419 14.4908 67.7842 16.1002 67.756 16.1755C67.756 16.5237 67.8595 16.8813 67.5583 17.2296C67.5273 17.2984 67.5273 17.3772 67.5583 17.4461C67.5606 18.0527 67.4685 18.656 67.2854 19.2343C67.2195 19.5261 67.2195 19.8366 67.1725 20.1284C67.1725 20.1849 67.116 20.2413 67.0972 20.2884C67.0545 20.3483 67.0227 20.4152 67.0031 20.4861C66.9372 21.1919 66.6736 21.879 66.6642 22.5755C66.6642 22.7449 66.2219 23.4508 66.2313 23.639C66.2407 23.8272 65.7231 23.9684 65.7795 24.0719Z" fill="black"/>
<path d="M73.8925 37.5863C73.7983 37.7934 73.516 37.6992 73.1301 37.4734C72.9688 37.3534 72.8448 37.1903 72.7725 37.0028C72.7862 36.8412 72.8113 36.6808 72.8478 36.5228C72.8478 36.4381 73.6101 35.4404 73.8642 35.0734C74.1015 34.7218 74.3866 34.405 74.7113 34.1322C75.3297 33.5644 76.0082 33.0657 76.7348 32.6451C76.9002 32.5491 77.0822 32.4852 77.2713 32.4569C77.9056 32.3568 78.5193 32.1533 79.0878 31.8545C79.1819 31.8545 79.2948 31.7886 79.3607 31.6475C79.9698 31.2334 80.671 30.9749 81.403 30.8945C81.7136 30.951 82.0054 30.9416 82.3442 31.0169L83.2289 31.2239C83.3136 31.2239 83.3983 31.2239 83.483 31.3369C83.6807 31.6381 83.8407 31.5816 84.0101 31.6098C84.2564 31.6271 84.4966 31.6943 84.716 31.8075C84.8493 31.9019 84.9641 32.0199 85.0548 32.1557C85.1583 32.2686 85.0548 32.6639 85.0548 32.711C85.0548 32.7581 85.0548 33.0216 85.0548 33.191V33.3604C84.6652 33.7499 84.2433 34.1057 83.7936 34.4239L83.5301 34.5275L82.9654 34.7722C82.5607 34.9604 82.1278 35.0451 82.0242 35.1204C81.9207 35.1957 81.8266 35.1204 81.723 35.1204C81.6195 35.1204 80.4807 35.6569 80.4336 35.6663C80.1607 35.6663 79.9442 35.9016 79.596 35.7322C79.5436 35.7019 79.479 35.7019 79.4266 35.7322C78.9786 35.9043 78.5196 36.0458 78.0525 36.1557C77.8172 36.231 77.6007 36.3534 77.3654 36.4286C77.3654 36.4286 77.2619 36.4286 77.2148 36.4286C77.1529 36.4142 77.0885 36.4142 77.0266 36.4286C76.4589 36.6217 75.9131 36.8741 75.3983 37.1816C75.2854 37.2569 74.5701 37.3981 74.4572 37.511C74.3442 37.6239 73.9301 37.5016 73.8925 37.5863Z" fill="black"/>
</svg>
