<svg width="96" height="96" viewBox="0 0 96 96" fill="none" xmlns="http://www.w3.org/2000/svg">
<path d="M46.2347 69.5737C45.1871 70.9652 44.0556 72.2916 42.8465 73.5454C41.6223 74.7919 40.3276 75.9671 38.9689 77.0654C38.4512 77.4513 37.9712 77.8654 37.4818 78.2702C36.9908 78.6706 36.4787 79.0445 35.9477 79.3902C34.0597 80.5718 32.0651 81.5738 29.99 82.3831C28.983 82.8349 27.9195 83.1266 26.8936 83.4937C25.8677 83.8607 24.8136 84.1243 23.75 84.3407C22.6865 84.5572 21.8677 84.7925 20.9265 84.9525C19.9853 85.1125 19.0442 85.3478 18.103 85.4702C15.7392 85.9819 13.3105 86.1247 10.903 85.8937C10.15 85.7996 10.2253 85.056 10.7995 84.2372C11.4971 83.2464 12.5192 82.5306 13.6889 82.2137C15.9571 81.7431 18.1595 81.1878 20.2771 80.5572C22.3947 79.9266 24.6253 79.4654 26.7712 78.7313C29.3556 77.7728 31.7466 76.3573 33.83 74.5525C36.222 72.6578 38.3884 70.4946 40.2865 68.1054C41.4785 66.6132 42.5665 65.0409 43.543 63.3996C45.0538 60.8607 46.3297 58.1892 47.3547 55.4184C48.0388 53.2109 48.6012 50.9675 49.0395 48.6984C49.1618 48.1902 49.2277 47.6819 49.3783 47.1831C49.9618 45.3007 50.583 44.8584 52.2018 45.0843C52.6082 45.131 53.0108 45.2064 53.4065 45.3102C54.602 45.6454 55.3285 46.8549 55.063 48.0678C54.4995 52.4081 53.2908 56.6399 51.4771 60.6231C50.0684 63.8024 48.3603 66.8404 46.3759 69.696L46.2347 69.5737Z" fill="black"/>
<path d="M65.5104 47.6351L65.8116 48.8304C65.9245 49.3669 65.9998 49.9033 66.0563 50.4022C66.1707 51.3135 66.2148 52.2323 66.188 53.1504C66.1732 53.813 65.9455 54.4531 65.5386 54.9763C65.4539 55.0892 65.2657 55.1551 65.1622 55.3245C65.0256 55.4062 64.876 55.4635 64.7198 55.4939C64.4505 55.5175 64.1797 55.5175 63.9104 55.4939C63.4034 55.4782 62.9032 55.373 62.4328 55.1833C61.7488 54.8641 61.0938 54.4862 60.4751 54.0539C60.1833 53.8563 59.8916 53.6586 59.6092 53.4892L58.8563 53.0375C58.5551 52.8586 58.2539 52.6892 57.9151 52.5292C57.3045 52.2025 56.6761 51.9103 56.0328 51.6539C54.7048 51.131 53.3266 50.7462 51.9198 50.5057C50.6471 50.3051 49.3572 50.2357 48.0704 50.2986C46.4233 50.2986 44.7857 50.5622 43.0916 50.4681C42.5645 50.4681 42.5363 49.8281 42.9033 49.1598C43.3431 48.3289 44.1232 47.7309 45.0398 47.5222C45.9401 47.3649 46.848 47.255 47.7598 47.1928C48.6795 47.1631 49.6002 47.1851 50.5175 47.2586C52.3863 47.4048 54.2263 47.807 55.9857 48.4539C57.0398 48.8492 58.1128 49.2351 59.1763 49.6775L59.9951 50.0163L60.5316 50.2704C60.6934 50.3506 60.8477 50.4451 60.9928 50.5528L61.548 50.9575C61.6504 51.0353 61.7648 51.0958 61.8869 51.1363C61.9433 51.1363 62.028 51.1363 62.0563 51.1363C62.0884 51.0993 62.1081 51.0532 62.1128 51.0045C62.1537 50.5613 62.1315 50.1145 62.0469 49.6775L61.9528 49.1598L61.661 48.1339C61.4822 47.4563 61.2751 46.7786 61.0492 46.1198C60.4263 44.0905 59.5604 42.1438 58.4704 40.3222C57.6375 39.0472 56.5898 37.9263 55.3739 37.0092C55.1292 36.8304 54.8657 36.7081 54.6304 36.5669C54.3001 36.4154 54.0003 36.2049 53.7457 35.9457C53.5815 35.6478 53.452 35.332 53.3598 35.0045C53.3033 34.8351 53.228 34.6751 53.181 34.5151C53.1339 34.3551 53.181 34.0257 53.5386 33.781C53.9928 33.4467 54.5672 33.3202 55.1198 33.4328C57.0051 33.856 58.718 34.8404 60.0328 36.2563C60.6656 36.8789 61.2189 37.5775 61.6798 38.3363C62.1484 39.0679 62.5757 39.8252 62.9598 40.6045C64.0728 42.8488 64.9709 45.1934 65.6422 47.6069L65.5104 47.6351Z" fill="black"/>
<path d="M63.2696 53.2359V53.1606V52.9912V52.6241C63.2696 52.1724 63.3167 51.683 63.2696 51.2218C63.2538 50.2215 63.1878 49.2226 63.072 48.2288C62.8254 46.1754 62.413 44.1452 61.839 42.1583C61.3893 40.7665 60.8356 39.4105 60.1826 38.1018C59.9355 37.5808 59.6524 37.0776 59.3355 36.5959C59.1849 36.3888 59.0343 36.2006 58.9026 36.05C58.8323 35.9599 58.7462 35.8834 58.6485 35.8241C58.4414 35.6735 58.3849 35.7206 57.6226 35.7206C56.9915 35.7254 56.362 35.782 55.7402 35.89C53.1128 36.3724 50.574 37.2515 48.2108 38.4971C46.0959 39.6237 44.0999 40.9606 42.2532 42.4877C41.0485 43.4288 39.8626 44.4924 38.752 45.5559C37.6535 46.552 36.6074 47.6044 35.6179 48.7088C35.1755 49.2547 34.3661 49.1041 34.0837 47.8618C33.8694 46.1497 34.4164 44.4297 35.5802 43.1559C36.7546 41.87 38.0122 40.6627 39.3449 39.5418C40.6774 38.4479 42.0728 37.4328 43.5237 36.5018C46.4674 34.5537 49.715 33.1097 53.1332 32.2288C53.6602 32.1159 54.1779 31.9653 54.7237 31.8618L56.3896 31.5888C56.9355 31.4853 57.5379 31.4947 58.112 31.4383C58.9349 31.3314 59.7714 31.4518 60.5308 31.7865C61.2397 32.1211 61.8785 32.5874 62.4132 33.1606C62.8477 33.617 63.2443 34.108 63.599 34.6288C64.2407 35.5627 64.7922 36.5554 65.2461 37.5935C66.188 39.7795 66.9253 42.048 67.4485 44.37C68.0096 46.6543 68.3562 48.986 68.4837 51.3347C68.4837 51.7018 68.4837 52.0783 68.4837 52.4547V53.2924V53.6783C68.4872 54.6796 68.302 55.6726 67.9379 56.6053C67.7587 57.0508 67.4895 57.4545 67.1473 57.7912C66.7864 58.1186 66.3685 58.377 65.9143 58.5535C64.9739 58.843 63.9859 58.9453 63.0061 58.8547C62.6264 58.8181 62.2492 58.7583 61.8767 58.6759C61.519 58.5912 61.2555 58.4877 60.9355 58.3935L60.4837 58.2524L60.0979 58.1018L59.3355 57.7912L56.4743 56.5112C54.6363 55.687 52.7506 54.9735 50.8273 54.3747C47.9979 53.5643 45.0455 53.271 42.112 53.5088C41.5096 53.5088 40.9449 53.7441 40.352 53.7818C39.759 53.8194 39.4108 53.9606 38.9967 53.97C38.8211 53.9801 38.6452 53.9801 38.4696 53.97C38.3199 53.9679 38.1711 53.9458 38.0273 53.9041C37.3813 53.6441 36.8343 53.1861 36.4649 52.5959C36.2202 52.2853 35.9379 52.003 35.7402 51.6547C35.3993 51.1346 35.3993 50.4619 35.7402 49.9418C35.955 49.5901 36.2215 49.2729 36.5308 49.0006C36.9098 48.6465 37.368 48.3883 37.8673 48.2477C41.081 47.1389 44.524 46.8668 47.872 47.4571C51.0388 48.0705 54.1178 49.0726 57.039 50.4406C58.0837 50.9206 59.1096 51.3818 60.0979 51.8806L61.5379 52.5677C61.9614 52.7559 62.479 53.01 62.7049 53.0759L62.912 53.17V53.17V53.17H62.9779C63.0043 53.1755 63.0318 53.1694 63.0535 53.1532C63.0751 53.1369 63.0887 53.1122 63.0908 53.0853L63.2696 53.2359Z" fill="black"/>
<path d="M72.0887 33.6126C72.1358 33.9137 71.6652 33.9796 70.9969 34.0267C70.6987 34.0182 70.4087 33.9269 70.1593 33.7632C70.0208 33.5396 69.9042 33.3032 69.811 33.0573C69.7648 32.6476 69.7648 32.234 69.811 31.8243C69.8863 31.222 70.0463 30.582 70.1122 30.2432C70.2515 29.6106 70.4965 29.006 70.8369 28.4549C71.1528 27.8955 71.5148 27.3635 71.9193 26.8643C72.3082 26.3574 72.7261 25.8735 73.171 25.4149C73.3617 25.199 73.5958 25.0258 73.8581 24.9067C74.7183 24.4455 75.5181 23.8796 76.2393 23.222C76.3616 23.1185 76.5216 23.0432 76.5687 22.8267C76.6158 22.6102 77.1805 22.1679 77.8487 21.782C78.3434 21.4628 78.8825 21.2186 79.4487 21.0573C79.9193 21.0008 80.3899 20.982 80.8699 20.9443C81.3513 20.9474 81.8321 20.9788 82.3099 21.0385C82.451 21.0385 82.5734 20.9726 82.7146 21.1326C82.9231 21.3968 83.2568 21.5296 83.5899 21.4808C83.9876 21.5112 84.3735 21.6301 84.7193 21.829C84.9114 21.9687 85.0745 22.1446 85.1993 22.3467C85.331 22.5161 85.1993 23.0243 85.1052 23.0902C85.011 23.1561 85.0205 23.5043 85.0016 23.7302C85.0016 23.7961 85.0016 23.8996 85.0016 23.9561C85.0016 24.0126 84.531 24.3043 84.164 24.6243C83.9256 24.8772 83.6641 25.1072 83.3828 25.3114C83.2709 25.3496 83.1636 25.4001 83.0628 25.462C82.835 25.5654 82.6148 25.6849 82.404 25.8196C82.1593 25.9702 81.8958 26.0832 81.6981 26.1867L81.3028 26.4596C81.2087 26.5537 81.0487 26.5067 80.8981 26.4596C80.6287 26.6227 80.3736 26.8085 80.1358 27.0149C79.7687 27.3067 79.4299 27.6455 79.3922 27.6455C79.044 27.7867 78.8558 28.1632 78.3193 28.0879C78.2363 28.0834 78.1561 28.1182 78.1028 28.182C77.5907 28.6193 77.0499 29.0218 76.484 29.3867C76.2221 29.6109 75.9826 29.8599 75.7687 30.1302C75.7687 30.1773 75.6463 30.1867 75.5899 30.2243C75.5109 30.2516 75.4375 30.2931 75.3734 30.3467C75.1179 30.6808 74.8379 30.9954 74.5358 31.2879C74.2549 31.5647 74.017 31.8819 73.8299 32.229C73.6859 32.3991 73.5215 32.5508 73.3405 32.6808C73.1636 32.8222 73.0138 32.9944 72.8981 33.189C72.7663 33.3302 72.051 33.4714 72.0887 33.6126Z" fill="black"/>
<path d="M59.5233 22.6375C59.6269 22.9293 59.1563 22.9575 58.3939 22.807C58.0382 22.7145 57.6987 22.5686 57.3869 22.374C57.2269 22.1858 57.0763 22.0069 56.9633 21.8469C56.8504 21.6869 56.7751 20.5764 56.6339 20.1622C56.5634 19.8081 56.5634 19.4435 56.6339 19.0893C56.7469 18.374 56.7939 17.6493 56.8504 16.9058C56.8668 16.7372 56.925 16.5755 57.0198 16.4352C57.3363 15.9269 57.4722 15.3267 57.4057 14.7317C57.4057 14.6375 57.4057 14.534 57.2833 14.4211C57.0811 13.7681 57.0811 13.0693 57.2833 12.4164C57.6427 11.9392 57.9758 11.4428 58.281 10.9293C58.281 10.8634 58.281 10.7693 58.4786 10.7317C58.9398 10.6375 58.8927 10.4587 58.9586 10.2987C59.0462 10.0652 59.1735 9.84866 59.3351 9.65871C59.5067 9.54316 59.6981 9.46021 59.8998 9.41401C60.1961 9.39793 60.4922 9.44942 60.7657 9.5646C60.9445 9.70577 61.2551 9.67754 61.5186 9.71519L61.7916 9.76224C62.2134 10.2403 62.5651 10.7758 62.8363 11.3528V11.6634L62.9022 12.3317C62.9022 12.8399 63.0151 13.367 63.0339 13.4799C63.0527 13.5928 62.9304 13.687 62.8551 13.7905C62.7798 13.894 62.8551 15.3811 62.8551 15.4375C62.7516 15.7481 62.8551 16.087 62.4222 16.3787C62.3375 16.3787 62.3469 16.5011 62.3375 16.5575C62.2582 17.1096 62.103 17.648 61.8763 18.1575C61.7916 18.4352 61.7255 18.7182 61.6786 19.0046C61.6786 19.0517 61.6033 19.0987 61.5657 19.1458C61.5159 19.1952 61.4746 19.2524 61.4433 19.3152C61.3116 20.0022 60.9445 20.6234 60.8692 21.3387C60.8692 21.5081 60.1539 22.1105 60.1257 22.2799C60.0975 22.4493 59.4857 22.534 59.5233 22.6375Z" fill="black"/>
<path d="M40.5586 30.252C40.6151 30.572 40.2669 30.7509 39.7492 30.8167C39.5125 30.8142 39.2824 30.7386 39.0904 30.6003C38.9847 30.4391 38.8873 30.2726 38.7986 30.1014C38.7133 29.4582 38.5555 28.8268 38.328 28.2191C38.1619 27.8062 38.0266 27.3815 37.9233 26.9485C37.6716 26.0889 37.357 25.249 36.9822 24.4356C36.9282 24.2459 36.9028 24.0492 36.9069 23.852C36.9219 23.1631 36.7247 22.4863 36.3422 21.9132C36.2763 21.8097 36.248 21.6967 36.0692 21.6591C35.5493 21.1139 35.1374 20.4752 34.8551 19.7767C34.7704 19.1838 34.7233 18.5344 34.5916 17.8944C34.5916 17.8003 34.488 17.7626 34.5916 17.5932C34.7572 17.4048 34.7572 17.1228 34.5916 16.9344C34.4718 16.696 34.3741 16.4471 34.2998 16.1909C34.3009 15.981 34.3293 15.7722 34.3845 15.5697C34.5121 15.3189 34.7121 15.1123 34.9586 14.9767C35.1751 14.9297 35.2975 14.6567 35.4669 14.4685C35.5217 14.4014 35.5815 14.3385 35.6457 14.2803C36.0413 14.2918 36.4324 14.3681 36.8033 14.5062C37.211 14.6248 37.6029 14.7923 37.9704 15.005L38.2998 15.3344C38.488 15.532 38.761 15.7862 39.0057 16.0591C39.3752 16.469 39.709 16.9099 40.0033 17.3767C40.1163 17.4991 40.0975 17.6967 40.1069 17.8662C40.1163 18.0356 40.3892 18.3838 40.6716 18.8732C40.8664 19.2082 41.0424 19.5539 41.1986 19.9085C41.4057 20.3288 41.4589 20.8083 41.3492 21.2638C41.3101 21.3473 41.3101 21.4438 41.3492 21.5273C41.5595 22.2613 41.6578 23.0228 41.641 23.7862C41.641 24.172 41.6975 24.5579 41.7163 24.9438C41.7061 25.0179 41.6872 25.0906 41.6598 25.1603C41.6465 25.2508 41.6465 25.3427 41.6598 25.4332C41.6598 26.3744 41.5186 27.2591 41.4998 28.172C41.4998 28.3885 41.0575 29.3579 41.0198 29.5932C40.9822 29.8285 40.5398 30.1485 40.5586 30.252Z" fill="black"/>
</svg>
