<svg width="96" height="96" viewBox="0 0 96 96" fill="none" xmlns="http://www.w3.org/2000/svg">
<path d="M34.7387 51.5386C34.4296 50.6685 34.2242 49.765 34.127 48.8468C34.0068 47.9578 33.9847 47.0583 34.0611 46.1645C34.192 44.3724 34.6817 42.6248 35.5011 41.0257C35.8399 40.4704 36.1317 39.8868 36.4893 39.3598C36.8467 38.834 37.2364 38.3311 37.6564 37.8539C39.1405 36.2564 40.8495 34.8835 42.7293 33.7786C43.6705 33.2327 44.5552 32.6774 45.5529 32.2257L46.9552 31.5009L48.3952 30.8609C49.2517 30.4845 50.0987 30.0986 50.9552 29.7598C51.8117 29.4209 52.6587 29.0257 53.5152 28.6962C54.6164 28.2821 55.7176 27.8398 56.8282 27.4445C57.9522 27.0615 59.1182 26.815 60.3011 26.7104C61.0352 26.588 60.9787 26.7574 60.4799 27.2186C60.2258 27.4445 59.887 27.7927 59.4635 28.2068C59.2418 28.4058 59.0059 28.5883 58.7576 28.7527L58.3529 29.0257C58.2023 29.0821 58.0611 29.1574 57.9011 29.2139C53.5239 30.939 49.2445 32.9027 45.0823 35.0962C42.628 36.4356 40.4803 38.2724 38.7764 40.4892C37.8628 41.6414 37.1848 42.9622 36.7811 44.3762L36.5646 45.4492L36.4517 46.5598V47.6892L36.574 48.7904C36.8426 50.6109 37.6338 52.3143 38.8517 53.6939C40.8828 55.8168 43.2444 57.5967 45.8446 58.9645C47.8587 60.1221 49.9482 61.1104 51.9435 62.4751C52.3764 62.7856 52.8187 63.068 53.2423 63.4162C54.6823 64.8468 54.8987 65.5809 54.6352 66.2398C54.5994 66.3833 54.5554 66.5247 54.5035 66.6633C54.3529 66.9739 53.4117 66.7198 52.4423 65.9386C49.4023 63.6609 45.5435 61.9009 41.7693 59.3504C40.3093 58.4429 38.9523 57.3794 37.7223 56.1786C36.4146 54.8607 35.387 53.292 34.7011 51.5668L34.7387 51.5386Z" fill="black"/>
<path d="M40.546 38.3989C38.7038 39.838 37.3125 41.7748 36.5366 43.98C36.4331 44.5447 36.2448 45.0906 36.1695 45.6741L36.0848 46.5589L36.0378 47.0012V47.4247C36.0255 47.9777 36.076 48.5302 36.1884 49.0718C36.2543 49.3447 36.2919 49.6177 36.3578 49.8906L36.6495 50.6624C37.3778 52.2298 38.43 53.6252 39.7366 54.7565C42.3506 57.0805 45.2625 59.046 48.3954 60.6012L53.3648 63.1894L55.8025 64.5165L58.306 65.8341C61.4277 67.3907 64.3013 69.4016 66.8331 71.8012C68.407 73.4012 69.7846 75.1832 70.9366 77.1094C71.4961 78.0725 71.9535 79.0914 72.3013 80.1494C72.4707 80.6765 72.6495 81.1941 72.8095 81.7212L73.1766 83.3306C73.459 84.6671 73.0354 84.5824 72.0943 83.7541C71.5954 83.3494 71.0495 82.7283 70.2872 82.0789C69.9201 81.74 69.5343 81.3824 69.1578 80.9965C68.9675 80.794 68.763 80.6053 68.546 80.4318C68.386 80.2153 68.1978 79.9989 68.0378 79.773C66.8696 78.2163 65.5206 76.804 64.019 75.5659C62.5404 74.3332 60.9877 73.1923 59.3695 72.1494C57.6232 71.1133 55.823 70.1708 53.9766 69.3259C53.5343 69.1189 52.8284 68.7518 52.4331 68.5259L51.0684 67.7447L48.2448 66.1447C45.9672 64.8365 43.539 63.6224 41.0919 62.173C38.5119 60.7407 36.2077 58.8604 34.2872 56.62C33.7507 55.9543 33.2691 55.2461 32.8472 54.5024L32.226 53.3541L31.7554 52.1212C31.4563 51.2981 31.2418 50.4466 31.1154 49.58C31.0184 48.7238 30.9681 47.8629 30.9648 47.0012C31.0859 43.6303 32.2391 40.3779 34.2684 37.6836C35.4921 36.1178 36.9343 34.7359 38.5507 33.58C40.1141 32.4807 41.7706 31.5202 43.5013 30.7094C46.0569 29.5282 48.7001 28.5465 51.4072 27.773C52.0754 27.5753 52.7343 27.3683 53.346 27.1706C53.9578 26.973 54.5978 26.7753 55.2284 26.5306C55.859 26.2859 56.4519 26.06 57.0448 25.7871C57.6428 25.532 58.2271 25.2461 58.7954 24.9306C62.2695 23.0902 65.2516 20.4436 67.4919 17.213C67.7355 16.8753 67.9586 16.5232 68.1601 16.1589C68.3766 15.8012 68.5931 15.453 68.8001 15.0859C69.4184 14.1474 70.1108 13.2598 70.8707 12.4318C71.3667 11.9565 71.9864 11.6304 72.659 11.4906C72.9463 11.4064 73.2386 11.3404 73.5343 11.293C73.9672 11.293 74.2213 11.6506 74.3343 12.3941C74.4768 13.475 74.364 14.5742 74.0048 15.6036C73.7265 16.6154 73.3383 17.5938 72.8472 18.5212L72.0284 19.8765C71.7366 20.3189 71.4166 20.7424 71.0872 21.1753C69.7903 22.8942 68.2926 24.4519 66.626 25.8153C63.2642 28.508 59.4358 30.5594 55.3319 31.8671L51.1625 33.213C49.8448 33.6459 48.5554 34.1541 47.3037 34.6341C44.8911 35.5873 42.6304 36.8872 40.5931 38.493L40.546 38.3989Z" fill="black"/>
<path d="M71.3034 34.8969C71.9177 35.5507 72.4869 36.2457 73.0069 36.9769C73.2711 37.3435 73.5162 37.7236 73.741 38.1157C73.9924 38.4814 74.2218 38.8617 74.4281 39.2545C74.8359 40.0702 75.1789 40.9168 75.4539 41.7863C75.5857 42.2192 75.7457 42.6522 75.8398 43.0945L76.0751 44.4216L76.1881 45.0898C76.1881 45.3157 76.1881 45.5322 76.1881 45.7581L76.3104 47.0851C76.3104 47.9792 76.1692 48.9204 76.0939 49.8239C75.7351 51.645 75.0427 53.384 74.0516 54.9534C72.7122 57.118 70.9673 59.0035 68.9128 60.5063C65.5238 62.7 61.9074 64.5208 58.1269 65.9369C56.3198 66.6616 54.5975 67.3581 52.8469 68.1298C50.8704 68.9675 49.1481 69.4569 47.4069 70.191C44.3871 71.4 41.5714 73.0666 39.0586 75.1322C35.9189 77.8242 33.2943 81.0643 31.3128 84.6945C30.6351 85.8428 30.3716 85.6357 30.2022 84.3181C30.2022 83.9981 30.1457 83.6028 30.1269 83.151C30.104 82.6481 30.1261 82.1441 30.1928 81.6451C30.2451 80.3811 30.5659 79.1426 31.1339 78.0122C33.4423 73.6581 36.9589 70.0631 41.261 67.6592C43.3124 66.4871 45.4522 65.4769 47.661 64.6381L49.2328 64.0451L49.9857 63.7816L50.6445 63.5463L52.2351 62.9157L53.8445 62.3134C56.3816 61.4155 58.8561 60.3496 61.2516 59.1228C63.5032 57.9786 65.6079 56.5659 67.5198 54.9157C70.0038 52.939 71.4011 49.8999 71.2845 46.7275V45.7863L71.1339 44.8451C71.0318 44.2043 70.8711 43.5742 70.6539 42.9628C70.552 42.6584 70.4261 42.3626 70.2775 42.0781C70.1579 41.7747 70.0131 41.4819 69.8445 41.2028C68.0364 38.324 65.4792 35.9913 62.4469 34.4545C60.0555 33.1591 57.5625 32.0606 54.9928 31.1698C53.7222 30.7275 52.3292 30.2757 50.9834 29.7581C49.6375 29.2404 48.301 28.6851 46.9928 28.0639C42.8417 26.2496 39.0241 23.7523 35.6986 20.6757C34.9444 19.9821 34.2429 19.2334 33.5998 18.4357C31.4445 15.1416 31.6045 13.6357 32.3104 12.5063C32.4504 12.244 32.6142 11.9951 32.7998 11.7628C33.1104 11.4616 33.5622 11.5934 34.1457 11.9886C34.4469 12.1863 34.7575 12.4592 35.1434 12.7698C35.5292 13.0804 35.8681 13.4757 36.301 13.8992C36.8751 14.5581 37.6092 15.0851 38.1834 15.7345L39.1245 16.6757L40.0657 17.5604C41.4092 18.7129 42.8272 19.7756 44.3104 20.7416C45.8434 21.7343 47.4407 22.6241 49.0916 23.4051C50.7729 24.2117 52.5016 24.9157 54.2681 25.5134L56.4045 26.2381C57.1481 26.4922 57.8916 26.7651 58.6351 27.0475C60.1128 27.631 61.5998 28.2428 63.0586 28.9863C66.1456 30.4327 68.9601 32.4003 71.3786 34.8028L71.3034 34.8969Z" fill="black"/>
<path d="M57.2793 15.6687L54.4558 15.5369C54.1047 15.5557 53.7528 15.5557 53.4017 15.5369C52.1593 15.3581 50.917 15.1322 49.7028 14.9252C49.1664 14.8122 48.6205 14.784 48.084 14.7087C47.3887 14.687 46.7017 14.5503 46.0511 14.304C45.844 14.2193 45.9193 13.9181 46.1452 13.6263C46.3711 13.2864 46.7299 13.0574 47.1334 12.9958C48.4767 12.9281 49.8231 12.9596 51.1617 13.0899C51.9932 13.1251 52.8262 13.0715 53.6464 12.9299C54.5875 12.9299 55.5287 12.9299 56.4699 12.864H58.2205C59.1146 12.864 60.0087 12.864 60.8934 12.7887C61.2397 12.7574 61.5828 12.6976 61.9193 12.6099L62.437 12.4875C62.6094 12.4782 62.7822 12.4782 62.9546 12.4875C63.105 12.4781 63.2559 12.4781 63.4064 12.4875C63.9711 12.5534 64.1499 12.7793 64.2252 13.4287C64.2252 13.5793 64.2723 13.7299 64.2817 13.8899C64.3113 14.3624 64.0657 14.8096 63.6511 15.0381C63.1149 15.3848 62.5122 15.6156 61.8817 15.7158C61.2846 15.7802 60.6845 15.8116 60.084 15.8099H57.2887L57.2793 15.6687Z" fill="black"/>
<path d="M54.0144 18.7285C54.4008 18.8609 54.7974 18.9616 55.2003 19.0297C55.3414 19.0297 55.4826 19.0297 55.6332 19.0297C56.1791 19.105 56.7814 19.1803 57.365 19.2367C57.618 19.2701 57.8743 19.2701 58.1273 19.2367C58.4313 19.126 58.7645 19.126 59.0685 19.2367C59.2755 19.3497 59.0685 20.9967 58.7579 21.1191C58.1431 21.2819 57.499 21.3012 56.8755 21.1756C56.4755 21.1641 56.0759 21.2117 55.6897 21.3167C55.2228 21.3497 54.7542 21.3497 54.2873 21.3167C54.005 21.3167 53.7132 21.3167 53.4403 21.2414C53.0305 21.16 52.6152 21.1097 52.1979 21.0909C51.8759 21.1313 51.5599 21.2103 51.2567 21.3262C51.189 21.3493 51.1198 21.3682 51.0497 21.3826C50.7861 21.3826 50.7203 21.2226 50.7203 20.5544V20.0367C50.698 19.6494 50.8261 19.2684 51.0779 18.9732C51.5801 18.639 52.1801 18.4833 52.7814 18.5309C53.1837 18.5271 53.5849 18.5714 53.9767 18.6626L54.0144 18.7285Z" fill="black"/>
<path d="M49.7406 80.4683L52.5642 80.6847C52.903 80.6847 53.2418 80.6847 53.59 80.6847C54.8136 80.8824 56.0277 81.1083 57.2418 81.2683C57.7783 81.353 58.3148 81.3624 58.8512 81.4C59.5411 81.3896 60.2289 81.4783 60.8936 81.6636C61.1006 81.7389 61.0536 82.04 60.8936 82.3506C60.6907 82.702 60.3489 82.9515 59.9524 83.0377C58.5939 83.2022 57.2224 83.2306 55.8583 83.1224C55.0147 83.098 54.1706 83.1484 53.3359 83.273C52.3948 83.273 51.4536 83.273 50.5124 83.273H48.7712C47.8865 83.273 47.0018 83.273 46.1171 83.273C45.7719 83.3033 45.4292 83.3567 45.0912 83.433L44.5736 83.5553C44.4012 83.565 44.2283 83.565 44.0559 83.5553C43.9055 83.5647 43.7546 83.5647 43.6042 83.5553C43.03 83.48 42.8606 83.2541 42.8042 82.6141C42.8042 82.4541 42.8042 82.3036 42.8042 82.153C42.7707 81.7014 42.9875 81.2678 43.3689 81.0236C43.9081 80.6867 44.51 80.4626 45.1383 80.3647C45.7447 80.2998 46.3543 80.2684 46.9642 80.2706C47.9053 80.2706 48.8465 80.3365 49.7877 80.3553L49.7406 80.4683Z" fill="black"/>
<path d="M53.383 77.2413C52.8295 77.1245 52.2703 77.0366 51.7077 76.9778C51.5006 76.9778 51.2935 76.9778 51.0865 76.9778C50.343 76.9025 49.5806 76.8084 48.8277 76.7707C48.4938 76.7595 48.1596 76.7816 47.83 76.8366C47.4083 76.9542 46.9624 76.9542 46.5406 76.8366C46.2677 76.7237 46.5406 75.0766 46.9924 74.9542C47.8208 74.7749 48.6736 74.7367 49.5147 74.8413C50.0483 74.862 50.5824 74.8178 51.1053 74.7095C51.6888 74.7095 52.2912 74.7095 52.8935 74.7095C53.2606 74.7095 53.6277 74.7095 53.9947 74.7095C54.5594 74.7095 55.1147 74.8413 55.6606 74.8319C56.0949 74.7946 56.5259 74.7254 56.95 74.6248C57.0441 74.6248 57.1383 74.5684 57.2324 74.5684C57.5806 74.5684 57.6841 74.7378 57.6935 75.406C57.7029 75.5564 57.7029 75.7073 57.6935 75.8578C57.7349 76.2622 57.5726 76.6607 57.2606 76.9213C56.5694 77.2668 55.8021 77.4319 55.03 77.4013C54.4796 77.4151 53.929 77.3868 53.383 77.3166V77.2413Z" fill="black"/>
<path d="M56.1977 42.0785C55.3319 41.975 54.4566 41.8714 53.5813 41.7867C53.2678 41.8048 52.9536 41.8048 52.6401 41.7867C51.5107 41.6079 50.3813 41.4197 49.2519 41.3067C48.7504 41.2738 48.2474 41.2738 47.746 41.3067C47.1044 41.4131 46.4479 41.3875 45.8166 41.2314C45.6189 41.1656 45.6471 40.7138 45.8166 40.2903C45.986 39.8667 46.2683 39.3491 46.6354 39.3491C47.9224 39.1247 49.2355 39.093 50.5319 39.255C51.3327 39.3064 52.1366 39.278 52.9319 39.1703C53.8166 39.1703 54.7013 39.2361 55.5954 39.2738L57.233 39.3585C58.0613 39.3585 58.8895 39.4526 59.7083 39.3585C60.3577 39.3585 60.9883 39.2173 61.6377 39.1797C61.7807 39.1513 61.9278 39.1513 62.0707 39.1797C62.516 39.2705 62.8328 39.6665 62.8236 40.1209C62.8236 40.2432 62.8236 40.3656 62.8236 40.4785C62.7811 40.8717 62.554 41.2212 62.2119 41.4197L61.7977 41.7114C61.6703 41.7868 61.5345 41.8468 61.393 41.8903C61.1107 41.9938 60.8283 42.0879 60.546 42.1632C60.2657 42.2521 59.9795 42.3213 59.6895 42.3703H58.8236C57.9577 42.3703 57.0824 42.2573 56.2071 42.2103L56.1977 42.0785Z" fill="black"/>
<path d="M56.4802 47.3305L52.7154 47.0576C52.2543 47.0576 51.7743 47.0576 51.3319 47.0576C49.7037 46.9353 48.066 46.6905 46.4378 46.587C45.7137 46.5447 44.9878 46.5447 44.2637 46.587C43.341 46.7087 42.4053 46.6928 41.4872 46.54C41.1954 46.4741 41.2143 45.9847 41.4872 45.4953C41.6794 44.9642 42.1185 44.5603 42.6637 44.4129C44.5363 44.1687 46.4304 44.1339 48.3107 44.3094C49.4496 44.4411 50.626 44.2341 51.7931 44.2529L55.6331 44.3564H57.9954H59.7837C60.386 44.3564 60.979 44.3564 61.5719 44.3564C62.5131 44.3564 63.3884 44.1494 64.2919 44.0458C64.492 44.0225 64.6942 44.0225 64.8943 44.0458C65.6378 44.1211 65.8354 44.3282 66.0519 44.8647C66.0951 44.9844 66.1297 45.1071 66.1554 45.2317C66.2307 45.627 65.9296 46.0035 65.3931 46.267C64.6082 46.6454 63.7704 46.9024 62.9084 47.0294C62.0707 47.1894 61.2143 47.3023 60.3672 47.387C59.7406 47.4322 59.1115 47.4322 58.4849 47.387L56.6025 47.3305H56.4802Z" fill="black"/>
<path d="M53.9197 53.3641L51.9244 53.1665C51.6797 53.1665 51.4444 53.1665 51.1997 53.1665C50.3433 53.0535 49.4868 52.9218 48.6303 52.8559C48.2546 52.8229 47.8767 52.8229 47.5009 52.8559C47.0228 52.9545 46.5296 52.9545 46.0515 52.8559C45.7503 52.7618 46.0515 51.3406 46.6162 51.237C47.5987 51.0864 48.5984 51.0864 49.5809 51.237C50.1893 51.2416 50.797 51.1944 51.3974 51.0959C52.0562 51.0959 52.7244 51.0959 53.4021 51.0959H54.635C55.262 51.1295 55.8904 51.1295 56.5174 51.0959C56.9948 51.0068 57.464 50.8778 57.9197 50.71C58.0233 50.71 58.1268 50.6253 58.2303 50.6065C58.6162 50.5406 58.748 50.7006 58.8609 51.35C58.8609 51.5006 58.9174 51.6512 58.9362 51.8018C59.0667 52.236 58.9127 52.7056 58.5503 52.9782C57.7376 53.3747 56.8367 53.5561 55.9339 53.5053C55.2656 53.5053 54.5974 53.5053 53.9292 53.4394L53.9197 53.3641Z" fill="black"/>
</svg>
