<svg width="96" height="96" viewBox="0 0 96 96" fill="none" xmlns="http://www.w3.org/2000/svg">
<path d="M62.1568 64.6275C58.9129 68.2613 55.0981 71.3417 50.8627 73.7475C50.0815 74.1616 49.3191 74.6134 48.5568 75.0463C47.7803 75.4793 46.9789 75.8658 46.1568 76.204C43.2829 77.2842 40.3057 78.0663 37.2721 78.5381C34.2967 79.0324 31.2793 79.2278 28.265 79.1216C25.6111 79.0685 22.9637 78.839 20.3403 78.4346C18.6571 78.1974 16.9997 77.8036 15.3897 77.2581C13.7959 76.6568 12.2769 75.8735 10.8627 74.924C9.98736 74.331 10.3074 74.0581 11.3144 73.9169C11.9603 73.8313 12.6111 73.7873 13.2627 73.7852C14.1071 73.6918 14.9593 73.6918 15.8038 73.7852C16.2085 73.7852 16.6038 73.8416 16.9897 73.8981C17.3756 73.9546 17.7521 74.0581 18.1474 74.1052C18.9285 74.1899 19.6909 74.3122 20.4721 74.3875C21.2532 74.4628 22.025 74.5099 22.8062 74.5475C23.5874 74.5852 24.3685 74.604 25.1497 74.5475C26.7121 74.5475 28.2744 74.4816 29.8556 74.3687C31.4368 74.2558 33.0085 74.2463 34.5615 74.0958C36.4847 73.9018 38.3794 73.4881 40.2085 72.8628C42.0251 72.2223 43.7983 71.4646 45.5168 70.5946C49.3147 68.6502 52.7574 66.0792 55.7003 62.9899C56.6162 62.0335 57.4832 61.0314 58.2979 59.9875C58.7027 59.4605 59.1356 58.9522 59.5121 58.4063L60.6509 56.7875C62.862 53.4129 64.5234 49.7088 65.5732 45.8134C66.261 42.828 66.5428 39.7635 66.4109 36.7028C66.4674 36.044 66.3262 35.3946 66.345 34.7263C66.3638 34.0581 66.4015 33.5969 66.4391 33.1734C66.5013 32.7876 66.6286 32.4153 66.8156 32.0722C67.1183 31.5046 67.5793 31.037 68.1427 30.7263C68.3918 30.5566 68.6494 30.3995 68.9144 30.2558C69.3379 30.0675 69.7521 30.2558 70.2132 30.6699C70.8328 31.3136 71.3274 32.0668 71.6721 32.891C71.8791 33.6534 72.0203 34.4252 72.1897 35.2158L72.4156 36.411L72.5379 37.6158C72.6321 38.4247 72.6699 39.2392 72.6509 40.0534C72.6509 40.8628 72.5662 41.6816 72.5003 42.5099C72.4344 43.3381 72.2838 44.1381 72.1709 44.9663C72.0392 45.7777 71.8665 46.5819 71.6532 47.3758C71.465 48.1852 71.1921 48.9758 70.9568 49.7758C70.7215 50.5758 70.3544 51.3287 70.0156 52.1099C68.117 56.6921 65.506 60.9454 62.2791 64.7122L62.1568 64.6275Z" fill="black"/>
<path d="M71.6539 23.5818C71.0468 23.012 70.3247 22.5788 69.5363 22.3112C68.9102 22.1255 68.2368 22.1861 67.6539 22.4806C67.0744 22.8563 66.5542 23.3162 66.1104 23.8453C65.028 24.887 64.0966 26.075 63.3434 27.3747C62.4586 28.7771 61.6304 30.2547 60.8586 31.7512C60.2025 33.0942 59.6488 34.4848 59.2022 35.9112L58.3457 38.603C58.0763 39.4412 57.7621 40.2643 57.4045 41.0688C57.2257 41.3606 56.3786 41.6147 55.5222 40.9559C54.561 40.1858 54.0372 38.9942 54.1198 37.7653C54.2768 36.7285 54.4905 35.7011 54.7598 34.6877C55.061 33.7026 55.3998 32.7332 55.7763 31.7794C56.5236 29.8583 57.45 28.0117 58.5434 26.2641C59.2022 25.21 59.7857 24.0806 60.4257 22.9041C60.7622 22.2555 61.1362 21.627 61.5457 21.0218C61.7599 20.7191 61.9925 20.43 62.2422 20.1559C62.4848 19.8662 62.7525 19.5985 63.0422 19.3559C64.3771 18.1128 66.0509 17.294 67.8516 17.003C69.6536 16.7845 71.4781 17.1508 73.0563 18.0477C74.6935 18.9833 76.1605 20.1894 77.3951 21.6147C79.1022 23.6138 80.6534 25.7408 82.0351 27.9771C83.1269 29.643 84.4069 31.1677 85.4892 32.8618C85.7384 33.2284 85.9557 33.6157 86.1386 34.0194C86.7786 35.5441 86.5904 36.2218 85.4704 37.003C85.2268 37.1904 84.9722 37.3633 84.7081 37.5206C83.7684 37.9618 82.6487 37.6965 82.0069 36.8806C81.4006 36.2919 80.8346 35.663 80.3128 34.9983C79.8139 34.33 79.3716 33.643 78.8634 32.9559C77.9222 31.5818 77.0281 30.1324 76.0869 28.8336C74.8502 26.9323 73.3479 25.2176 71.6257 23.7418L71.6539 23.5818Z" fill="black"/>
</svg>
