<svg width="96" height="96" viewBox="0 0 96 96" fill="none" xmlns="http://www.w3.org/2000/svg">
<path d="M54.2245 51.7298C50.8739 56.6333 47.7962 61.8192 44.8127 67.0898C44.2794 68.0498 43.7711 69.0286 43.288 70.0263L42.5351 71.5133L41.6598 73.1792C41.1139 74.1863 40.5209 75.2215 39.9468 76.191C39.6551 76.6992 39.3445 77.1321 39.0057 77.5933C38.7211 77.9991 38.4065 78.3829 38.0645 78.7415C37.547 79.3245 36.9031 79.7816 36.1821 80.078C35.8259 80.1887 35.4538 80.2395 35.0809 80.2286H35.0339C35.0339 80.2757 35.0339 80.1251 35.0339 80.3321H34.9398H34.7986L34.5915 80.1627C34.4395 80.0969 34.2917 80.0214 34.1492 79.9368C33.5678 79.4578 33.0118 78.9489 32.4833 78.4121C32.2104 78.0262 31.9374 77.6592 31.6833 77.2451L30.9304 75.9274L29.5092 73.1792L28.568 71.2968C27.5139 68.9721 26.4598 66.6663 25.3774 64.3886C23.9186 61.2733 22.168 58.2898 20.4927 55.3533C19.4104 53.471 18.1962 51.6827 17.0574 49.8945C16.5021 48.9533 15.9374 48.0874 15.3633 47.2404C14.8417 46.407 14.2497 45.6198 13.5939 44.8874C13.4453 44.7399 13.3186 44.5719 13.2174 44.3886C13.1619 44.2496 13.1619 44.0946 13.2174 43.9557C13.3021 43.7015 13.7257 43.4192 14.5068 43.4004C15.5426 43.4093 16.5663 43.6236 17.5186 44.031C18.7272 44.544 19.8214 45.2927 20.7374 46.2333C21.1704 46.6757 21.5751 47.1086 21.9704 47.5698L23.0527 48.9721C23.7492 49.9133 24.4362 50.8545 25.0857 51.7957C25.7351 52.7368 26.3751 53.7251 26.968 54.7039C27.5609 55.6827 28.0974 56.7086 28.6433 57.7157C29.7257 59.7392 30.7421 61.7721 31.7209 63.8333C32.2104 64.8592 32.6621 65.8945 33.1515 66.9298L33.8386 68.4827L34.1586 69.2733L34.3186 69.6686C34.3649 69.7645 34.3997 69.8656 34.4221 69.9698C34.5302 70.5955 34.7468 71.1975 35.0621 71.7486C35.1006 71.815 35.1447 71.878 35.1939 71.9368C35.2153 71.9645 35.2483 71.9808 35.2833 71.9808C35.3183 71.9808 35.3513 71.9645 35.3727 71.9368C35.4757 71.8445 35.5673 71.7403 35.6457 71.6263C35.7962 71.391 35.9374 71.1368 36.0692 70.8827L37.5657 67.9839C40.3892 62.5533 43.1562 57.0568 46.2433 51.711C48.1257 48.4074 50.1304 45.1698 52.2386 41.9886C55.4403 37.1721 58.9322 32.5549 62.6951 28.1627C65.6315 24.7463 68.5021 21.2451 72.1915 18.2992C72.9907 17.6136 73.8366 16.9847 74.7233 16.4168C75.4342 15.9812 76.1841 15.6125 76.9633 15.3157C77.527 15.1271 78.1199 15.0411 78.7139 15.0615C79.63 15.0862 80.4909 15.5046 81.0762 16.2098C81.3858 16.4979 81.6693 16.8129 81.9233 17.151C82.6198 18.2992 81.6221 19.7957 79.8809 21.4145C78.5257 22.5251 77.2174 23.6921 75.8715 24.878C74.5257 26.0639 73.2268 27.3251 71.9374 28.6427C69.271 31.3725 66.7573 34.2475 64.408 37.2545C60.7969 41.9258 57.4323 46.7827 54.328 51.8051L54.2245 51.7298Z" fill="black"/>
</svg>
