<svg width="96" height="96" viewBox="0 0 96 96" fill="none" xmlns="http://www.w3.org/2000/svg">
<path d="M46.6996 76.5303C47.2455 77.2456 46.8125 78.0832 45.8243 78.9867C45.3332 79.3188 44.7349 79.4532 44.149 79.3632C43.7201 79.0374 43.3174 78.6787 42.9443 78.2903C42.7467 78.0456 40.8737 73.9985 40.1208 72.6997C39.4344 71.4189 38.8308 70.0954 38.3137 68.7373C37.2031 66.0079 35.989 63.3256 34.709 60.6809C34.4375 60.088 34.214 59.4742 34.0408 58.8456C33.4358 56.6781 32.5365 54.6039 31.3678 52.6809C31.2208 52.3253 30.9801 52.0163 30.6714 51.7867C29.8941 50.8269 29.2132 49.7929 28.6384 48.6997C27.9754 47.6247 27.3752 46.5123 26.8408 45.3679C26.2008 43.4856 25.382 41.7067 24.6478 39.8526C24.5443 39.5891 24.3184 39.382 24.3937 39.0244C24.4871 38.3713 24.2951 37.7096 23.8667 37.2079C23.4422 36.4687 23.0619 35.7051 22.7278 34.9209C22.6145 34.4498 22.5701 33.9647 22.5961 33.4809C22.5961 33.0291 23.4055 32.6714 23.5372 32.7185C23.989 32.8691 24.1396 32.3703 24.422 32.1256C24.5148 32.0351 24.6156 31.9532 24.7231 31.8809C25.5506 32.3261 26.3297 32.856 27.0478 33.462C27.9111 34.0868 28.726 34.7758 29.4855 35.5232L30.2478 36.4644C30.6808 37.0479 31.2925 37.8009 31.8667 38.6103L34.4172 42.2809C34.652 42.6607 34.8206 43.0776 34.9161 43.5138C35.0196 43.6926 38.2196 48.6997 38.2949 48.935C38.954 50.0128 39.3864 51.2138 39.5655 52.4644C39.5948 52.7118 39.6854 52.9479 39.829 53.1514C40.7352 55.0586 41.4966 57.0312 42.1067 59.0526C42.4549 60.0691 42.8972 61.0479 43.2831 62.0456C43.3329 62.2371 43.3675 62.4322 43.3867 62.6291C43.4208 62.8745 43.4743 63.1168 43.5467 63.3538C44.4878 65.7067 45.0714 68.1914 46.0408 70.535C46.2761 71.0809 46.5396 73.9138 46.7937 74.535C46.9349 74.8456 46.4925 76.2479 46.6996 76.5303Z" fill="black"/>
<path d="M67.0297 67.4287C67.4532 68.2381 66.9261 69.0099 65.8438 69.8005C65.4955 70.0452 64.3755 70.1676 64.1873 69.9417C63.8179 69.5149 63.4842 69.0584 63.1897 68.577C62.8911 67.6491 62.6398 66.7067 62.4367 65.7534C62.1355 64.3228 61.7591 62.7134 61.6085 61.8946C61.2864 60.3111 61.1131 58.701 61.0908 57.0852C60.9528 53.7974 60.9528 50.5064 61.0908 47.2123C61.1368 46.4799 61.2438 45.7527 61.4108 45.0381C61.6838 43.8052 61.9473 42.5817 62.1167 41.3393C62.2861 40.097 62.4838 38.864 62.6061 37.5746C62.6957 37.159 62.6957 36.7291 62.6061 36.3134C62.6232 34.9392 62.8001 33.5715 63.1332 32.2381C63.3838 30.8362 63.7393 29.4551 64.1967 28.1064C65.1379 26.0923 65.9473 24.0687 66.9073 22.1017C67.0391 21.8193 67.0673 21.4805 67.3873 21.2923C67.9578 20.8777 68.3563 20.2682 68.5073 19.5793C68.8538 18.7186 69.2758 17.8903 69.7685 17.104C70.0822 16.7116 70.4534 16.3689 70.8697 16.0875C71.2273 15.7958 71.9426 16.3134 71.9708 16.4734C72.0744 16.9534 72.5638 16.7934 72.912 16.8875C73.0338 16.9096 73.1514 16.9509 73.2602 17.0099C73.3213 17.9524 73.2834 18.8988 73.1473 19.8334C73.0971 20.8742 72.9871 21.9112 72.8179 22.9393C72.8179 22.9393 72.6579 23.4381 72.4791 24.144C72.3002 24.8499 72.0555 25.7817 71.8108 26.7323C71.5661 27.6828 71.3779 28.6805 71.1991 29.4711C71.0202 30.2617 70.9355 30.8734 70.9073 31.0805C70.8102 31.5133 70.6483 31.9289 70.4273 32.3134C70.3708 32.4075 70.145 33.9228 69.9097 35.4287C69.6744 36.9346 69.5426 38.4499 69.505 38.5628C69.4201 39.7813 69.1438 40.9787 68.6861 42.1111C68.5897 42.3374 68.5385 42.5804 68.5355 42.8264C68.3473 44.9064 67.9708 46.977 67.7261 49.0664C67.6226 50.1393 67.5944 51.2123 67.585 52.2852C67.5619 52.4791 67.5241 52.6711 67.472 52.8593C67.4115 53.0999 67.3736 53.3457 67.3591 53.5934C67.2413 56.1604 67.2947 58.7324 67.5191 61.2923C67.5191 61.8758 67.2932 64.7275 67.4061 65.4052C67.5191 65.7817 66.8697 67.1087 67.0297 67.4287Z" fill="black"/>
</svg>
