<svg width="96" height="96" viewBox="0 0 96 96" fill="none" xmlns="http://www.w3.org/2000/svg">
<path d="M64.1958 58.416C61.2499 62.4442 58.1817 66.3783 54.8781 70.1619C51.555 74.0959 47.762 77.6076 43.584 80.6183L42.3793 81.3995L41.0805 82.1807C40.6245 82.442 40.1494 82.6686 39.6593 82.8583C39.164 83.0978 38.6472 83.29 38.1158 83.4324C37.5658 83.6188 36.9981 83.7481 36.4217 83.8183C35.8235 83.906 35.2191 83.9438 34.6146 83.9313C33.5461 83.8809 32.486 83.7168 31.4523 83.4419C28.0837 82.523 24.9278 80.953 22.1628 78.8207C20.7408 77.7449 19.4739 76.478 18.3981 75.056C17.2199 73.5256 16.4376 71.7282 16.1205 69.823C15.9598 68.8287 15.9598 67.815 16.1205 66.8207C16.2088 66.3406 16.3251 65.866 16.4687 65.3995L16.8923 64.2042C17.4598 62.645 18.1327 61.1262 18.9064 59.6583C20.4345 56.7751 22.2273 54.0402 24.2617 51.4889C26.0631 49.2145 28.0427 47.087 30.1817 45.1266C31.2746 44.1239 32.4316 43.1933 33.6452 42.3407C33.9558 42.1242 34.257 41.9077 34.5864 41.7101L35.5275 41.1266L36.017 40.8348L36.5817 40.5619C36.9623 40.3776 37.3554 40.2203 37.7581 40.0913C39.8164 39.4136 42.0227 39.3223 44.1299 39.8277C46.1953 40.2807 48.128 41.2052 49.777 42.5289C51.4416 43.9231 52.6483 45.7858 53.2405 47.8748C53.5631 48.951 53.653 50.0835 53.504 51.1971C53.3596 52.2909 52.9738 53.339 52.3746 54.2654C52.2134 54.4992 52.0373 54.7224 51.8475 54.9336C51.7067 55.0699 51.5485 55.187 51.377 55.2818C51.104 55.4418 50.9064 55.4324 50.7746 55.2818C50.4923 55.0466 50.5581 54.2936 50.4923 53.3148C50.4848 52.2074 50.1896 51.1209 49.6358 50.1619C49.3275 49.6488 48.9507 49.1802 48.5158 48.7689C47.9927 48.333 47.4426 47.9307 46.8687 47.5642C46.6 47.4071 46.3449 47.2277 46.1064 47.0277C45.8511 46.8439 45.5838 46.6772 45.3064 46.5289C44.7558 46.2205 44.1756 45.9683 43.5746 45.776C42.4609 45.4432 41.286 45.3691 40.1393 45.5595C39.6055 45.6441 39.086 45.8025 38.5958 46.0301L37.617 46.576C37.2875 46.7548 36.9581 46.9807 36.6758 47.1783C35.307 48.0444 34.013 49.0235 32.8075 50.1054C30.2691 52.3711 27.9728 54.8945 25.9558 57.6348C23.8878 60.2983 22.1849 63.2262 20.8923 66.3407C20.8048 66.5444 20.7355 66.7554 20.6852 66.9713C20.6238 67.1453 20.5797 67.325 20.5534 67.5077C20.5177 67.6909 20.4957 67.8765 20.4875 68.063C20.4688 68.2476 20.4688 68.4337 20.4875 68.6183C20.5463 69.4151 20.7707 70.1909 21.1464 70.896C22.088 72.5387 23.3916 73.9453 24.9581 75.0089C26.6082 76.1921 28.4134 77.1422 30.3228 77.8324C31.2418 78.1674 32.1859 78.4286 33.1464 78.6136C33.5946 78.6955 34.0471 78.7521 34.5017 78.783C34.8922 78.7977 35.2833 78.7724 35.6687 78.7077C35.9092 78.6985 36.147 78.6541 36.3746 78.576L37.0523 78.3877C37.5134 78.1618 37.9934 78.0019 38.4452 77.7571C38.897 77.5124 39.3864 77.2489 39.8475 76.9383C40.3087 76.6277 40.7887 76.3171 41.2311 75.9971C43.0952 74.5875 44.8478 73.0362 46.4734 71.3571C49.8121 67.8958 52.9066 64.2069 55.7346 60.3171C59.2757 55.5073 62.5526 50.5086 65.5511 45.343C67.2734 42.3783 68.9299 39.3571 70.4075 36.2983C71.1417 34.7642 71.8287 33.2113 72.4123 31.6771C72.6938 30.9344 72.9357 30.1773 73.137 29.4089L73.2593 28.9007C73.3232 28.5301 73.3232 28.1513 73.2593 27.7807C73.2142 27.7051 73.1824 27.6223 73.1652 27.536L73.0805 27.216C73.0098 26.9882 72.9249 26.765 72.8264 26.5477C72.6325 26.1161 72.4157 25.6951 72.177 25.2866C71.6982 24.4811 71.1333 23.73 70.4923 23.0466C68.3485 20.805 65.6034 19.2298 62.5864 18.5101C62.2451 18.4323 61.8993 18.3757 61.5511 18.3407L61.0617 18.2936H60.6381C60.1771 18.3263 59.7311 18.4718 59.3393 18.7171C58.1232 19.5513 57.011 20.5276 56.0264 21.6254C55.0099 22.6795 54.0311 23.8371 52.9299 24.9571C51.5349 26.5141 49.925 27.8642 48.1487 28.9666C47.1629 29.5318 46.0007 29.7065 44.8923 29.456C44.4344 29.3925 43.9838 29.2853 43.5464 29.136C42.9346 28.8348 42.9064 28.1007 43.3393 27.0466C44.004 25.5705 44.8964 24.208 45.984 23.0089C47.8664 20.8536 49.5699 18.6418 51.7064 16.3171C52.9161 14.9165 54.3202 13.6963 55.8758 12.6936C56.3964 12.3841 56.9409 12.1166 57.504 11.8936C58.1576 11.6497 58.8363 11.4793 59.5275 11.3854C60.7078 11.2407 61.9027 11.266 63.0758 11.4607C66.8498 12.1058 70.375 13.7724 73.2687 16.2795C74.7452 17.5354 76.0518 18.9781 77.1558 20.5713C77.7177 21.4057 78.2118 22.2838 78.6334 23.1971C78.863 23.6549 79.0642 24.1264 79.2358 24.6089L79.4711 25.3336L79.6217 25.7854C79.6854 25.9523 79.7296 26.126 79.7534 26.303C79.8476 26.7924 79.8946 27.2913 79.9417 27.7901C79.9887 28.2889 79.8852 28.8066 79.8664 29.3148C79.8455 29.741 79.7792 30.1638 79.6687 30.576C79.584 30.9054 79.5087 31.2818 79.4052 31.5171C78.5632 34.1094 77.5086 36.6278 76.2523 39.0466C75.0946 41.3618 73.8617 43.583 72.5817 45.7571C70.0217 50.1336 67.2452 54.3313 64.3558 58.4536L64.1958 58.416Z" fill="black"/>
</svg>
