<svg width="96" height="96" viewBox="0 0 96 96" fill="none" xmlns="http://www.w3.org/2000/svg">
<path d="M53.9829 61.5581C51.8935 63.9675 49.8135 66.3864 47.6582 68.7675L46.0582 70.5558L45.23 71.4405L44.0159 72.777C42.1335 74.9134 40.2512 76.6264 38.3688 78.424C37.9547 78.7064 37.4935 79.0734 37.117 79.2805L36.1759 79.4781C35.6582 79.5911 35.1406 79.7228 34.6229 79.8546C34.4871 79.8893 34.3447 79.8893 34.2088 79.8546C34.0362 79.7921 33.8742 79.7032 33.7288 79.5911C33.5222 79.4183 33.3359 79.2225 33.1735 79.0075C32.3883 77.911 31.9759 76.5914 31.997 75.2428C31.9993 73.3533 32.1345 71.4663 32.4018 69.5958L32.797 66.6687L32.8441 66.3111V66.0946L32.9194 65.6617L33.0606 64.8052C33.437 62.5275 33.8135 60.2593 34.2276 58.0099C34.6418 55.7605 35.0653 53.5111 35.4323 51.2711C35.6112 50.1605 35.7806 49.0405 35.9312 47.9393L36.0818 46.6875C36.1008 46.4181 36.1008 46.1476 36.0818 45.8781C36.0818 45.6428 36.0818 45.3322 35.7994 45.257C35.5731 45.1761 35.3338 45.1378 35.0935 45.144C34.8459 45.13 34.5976 45.13 34.35 45.144L33.0888 45.2287C31.0747 45.3981 28.9947 45.5864 26.9053 45.6522C24.1755 45.7931 21.4386 45.6289 18.7453 45.1628C16.0051 44.628 13.4019 43.5426 11.0935 41.9722C9.68175 40.937 10.4535 40.3064 12.0347 40.0899C14.2792 39.8214 16.5478 39.8214 18.7923 40.0899C21.1667 40.4627 23.5723 40.5983 25.9735 40.4946C28.4582 40.4193 30.9147 40.1181 33.6912 39.8734C34.4535 39.7134 35.1029 39.7134 35.7523 39.7134C36.3825 39.7112 37.0119 39.7584 37.6347 39.8546C38.1974 39.9312 38.7423 40.1064 39.2441 40.3722C39.7172 40.6443 40.1483 40.9835 40.5241 41.3793C41.2304 42.2671 41.6122 43.3696 41.6065 44.504C41.6408 45.131 41.6408 45.7594 41.6065 46.3864L41.5312 47.3275C41.5312 47.6005 41.5312 47.704 41.5312 47.9017C41.2018 50.7252 40.7029 53.3322 40.1759 55.977C39.5547 59.1393 38.9806 62.3487 38.5006 65.5675L38.2559 67.3275L38.1618 68.1181C38.1053 68.6452 38.0394 69.1628 38.0018 69.7652C37.9736 69.987 37.9736 70.2116 38.0018 70.4334C38.0018 70.5652 38.1335 70.6499 38.2088 70.5652C38.2819 70.5139 38.3511 70.4573 38.4159 70.3958L39.2912 69.6711C39.5829 69.3699 39.9123 69.0687 40.2323 68.7299C40.3829 68.5511 40.5523 68.4099 40.7218 68.2405L41.8323 66.9793C43.3382 65.1628 44.8723 63.3652 46.3594 61.5111C49.139 58.104 51.881 54.653 54.5853 51.1581L66.9147 35.2805C70.0488 31.1487 72.8912 26.8946 76.11 22.7722C76.7906 21.8437 77.5195 20.9515 78.2935 20.0993C79.0841 19.3275 79.7712 18.7158 80.3735 18.217C80.8368 17.7553 81.3827 17.385 81.9829 17.1252C82.9087 16.8622 83.8919 16.8819 84.8065 17.1817C85.1545 17.2646 85.4947 17.378 85.8229 17.5205C86.2747 17.7746 86.2841 18.3393 86.0865 19.2428C85.9557 19.801 85.7922 20.3509 85.597 20.8899C85.5504 21.0409 85.4938 21.1887 85.4276 21.3322L85.1829 21.737C85.0135 22.0287 84.8159 22.3299 84.6088 22.6781C83.9876 23.6193 83.3382 24.4475 82.7265 25.4264C82.1147 26.4052 81.3994 27.2428 80.7123 28.1464C79.3759 30.0287 77.9547 31.817 76.5523 33.7087C73.7288 37.417 70.83 41.2381 67.8088 45.0028C63.3382 50.4993 58.7265 56.0711 54.1053 61.6428L53.9829 61.5581Z" fill="black"/>
</svg>
