<svg width="96" height="96" viewBox="0 0 96 96" fill="none" xmlns="http://www.w3.org/2000/svg">
<path d="M22.4772 74.3739C22.4772 74.3739 18.1102 70.9198 21.8749 67.2492C22.875 66.167 24.3088 65.592 25.7796 65.6833C27.2503 65.7745 28.602 66.5223 29.4608 67.7198C30.1949 68.8304 30.9478 71.3433 29.2443 72.8962C27.3233 74.3766 24.8404 74.9187 22.4772 74.3739V74.3739Z" fill="black"/>
<path d="M23.7571 53.9975C21.4888 52.4069 19.8606 46.6281 27.7006 45.3764C27.7006 45.3764 29.9876 44.9905 30.6182 48.7646C31.2488 52.5387 29.4041 52.6893 27.5218 53.6587C25.6394 54.6281 24.4912 54.5434 23.7571 53.9975Z" fill="black"/>
<path d="M20.0581 33.4786C19.3756 32.9946 18.8988 32.2728 18.7216 31.4551C18.5374 28.8415 20.2424 26.4679 22.7781 25.808C27.6534 24.5468 29.9216 27.0221 30.5992 29.1586C31.2769 31.2951 30.3451 33.3563 27.5216 34.3257C25.0463 35.1633 22.4016 35.3892 20.0581 33.4786Z" fill="black"/>
<path d="M64.6331 31.4939C62.6378 31.3245 60.6205 31.2085 58.5813 31.1457C57.8472 31.1457 57.1131 31.2869 56.3696 31.221C53.7531 31.0234 51.099 30.7975 48.4543 30.7128C47.2811 30.6954 46.1082 30.7583 44.9437 30.901C43.4301 31.1929 41.8675 31.1023 40.3978 30.6375C39.9178 30.4587 39.9931 29.5645 40.3978 28.5951C40.8025 27.6257 41.4331 26.5245 42.2801 26.2704L43.3719 25.9692C43.7321 25.8951 44.0968 25.8448 44.4637 25.8187C45.2072 25.7528 45.9507 25.7057 46.7037 25.6775C48.231 25.6188 49.7605 25.6817 51.2778 25.8657C53.1601 26.101 55.0425 25.6587 56.9249 25.5928C58.9954 25.5928 61.0849 25.5928 63.1743 25.6869L67.0331 25.8469C68.9907 25.9222 70.9484 26.1104 72.9154 26.1669C74.4817 26.0588 76.0529 26.0399 77.6213 26.1104C77.9868 26.1258 78.3512 26.1604 78.7131 26.2139C79.2528 26.2832 79.7381 26.5772 80.0496 27.0234C80.2666 27.5213 80.2868 28.0829 80.106 28.5951C80.0401 28.9151 79.9743 29.2351 79.8801 29.5363C79.5977 30.4335 78.895 31.1362 77.9978 31.4187C76.8206 31.6881 75.6253 31.8705 74.4213 31.9645C73.8378 31.9645 73.179 31.9645 72.539 31.9645C71.899 31.9645 71.2778 31.8987 70.6566 31.8892L67.7201 31.7387C66.779 31.6728 65.7343 31.6351 64.7366 31.6163L64.6331 31.4939Z" fill="black"/>
<path d="M62.6659 50.7506C60.7177 50.5906 58.7318 50.4682 56.7459 50.4024C56.0306 50.4024 55.3153 50.5435 54.5812 50.4777C52.0118 50.28 49.4142 50.0541 46.8259 49.9694C45.675 49.9534 44.5243 50.0131 43.3812 50.1482C41.8962 50.4449 40.3598 50.3541 38.92 49.8847C38.4495 49.7059 38.5247 48.8118 38.92 47.8424C39.3153 46.873 39.9365 45.7718 40.7365 45.5177L41.7718 45.2635C42.1293 45.1959 42.4909 45.1519 42.8542 45.1318C43.5789 45.0565 44.3036 45.0188 45.0471 44.9906C46.5431 44.9274 48.0417 44.9903 49.5271 45.1788C51.3436 45.4141 53.1883 44.9718 55.033 44.8965C57.0659 44.8965 59.1177 44.8965 61.16 44.9906L64.9247 45.1506C66.8071 45.2259 68.7647 45.4141 70.7036 45.48C72.2489 45.39 73.7982 45.39 75.3436 45.48C75.7028 45.4959 76.0609 45.5304 76.4165 45.5835C77.7624 45.9506 78.0918 46.5247 77.7624 47.9553C77.6871 48.2753 77.6306 48.5953 77.5271 48.8965C77.2461 49.7945 76.5428 50.4978 75.6447 50.7788C74.4922 51.0461 73.3222 51.2317 72.1436 51.3341C71.5695 51.3341 70.9389 51.3341 70.3271 51.3341C69.7153 51.3341 69.0942 51.2682 68.4447 51.2588L65.6212 51.1082C64.68 51.0424 63.6824 51.0047 62.6942 50.9859L62.6659 50.7506Z" fill="black"/>
<path d="M64.3312 71.9077C62.176 71.7477 59.983 71.6159 57.743 71.55C56.943 71.55 56.1524 71.6912 55.3524 71.6253C52.5289 71.4182 49.7054 71.2018 46.8065 71.1077C45.549 71.0955 44.2919 71.1584 43.0418 71.2959L41.8371 71.4465C41.423 71.4465 41.0183 71.4465 40.6042 71.4465C39.7636 71.4352 38.9293 71.2988 38.1289 71.0418C37.6207 70.863 37.696 69.9688 38.1289 68.9994C38.466 67.9861 39.19 67.1471 40.143 66.6653L41.3195 66.3641C41.7368 66.2942 42.158 66.2502 42.5807 66.2324C43.3901 66.1571 44.1901 66.1194 45.0089 66.0912C46.6581 66.0245 48.31 66.0843 49.9501 66.27C51.9548 66.5053 53.9877 66.063 56.0207 65.9971C58.2607 65.9971 60.5101 65.9971 62.7595 66.1006L66.9195 66.2512C69.0277 66.3265 71.136 66.5147 73.2536 66.5524C74.9007 66.5524 76.5665 66.2888 78.3171 66.4771C78.703 66.4771 79.0983 66.4771 79.4842 66.5806L79.9736 66.703C80.12 66.7606 80.2617 66.8299 80.3971 66.91C80.6155 67.0272 80.8027 67.1951 80.943 67.3994C81.1956 67.8917 81.2397 68.4649 81.0654 68.99C81.0125 69.3079 80.9402 69.6222 80.8489 69.9312C80.559 70.8542 79.8167 71.5645 78.8818 71.8135C78.6089 71.8135 78.2607 71.9359 77.9407 71.9924C77.6207 72.0488 77.3007 72.1053 76.9995 72.143C76.3413 72.2703 75.6742 72.3458 75.0042 72.3688C74.3642 72.3688 73.6395 72.3688 72.9618 72.3688L70.816 72.3124L67.6254 72.1618C66.5524 72.1053 65.4607 72.0677 64.3689 72.0488L64.3312 71.9077Z" fill="black"/>
<path d="M24.5288 36.886C21.7388 36.8635 19.0794 35.7005 17.1688 33.6671C16.4054 32.9151 15.809 32.0108 15.4182 31.013C14.8809 29.2985 14.9473 27.4516 15.6064 25.7801C16.7329 22.9074 19.1515 20.7366 22.1288 19.926C23.0734 19.7096 24.0548 19.7096 24.9994 19.926C25.9031 20.1388 26.7107 20.6452 27.2959 21.366C27.6535 21.8083 26.9006 22.5518 26.0159 23.2483C25.3791 23.8184 24.6703 24.3025 23.9076 24.6883C23.6379 24.678 23.3689 24.7229 23.117 24.8201C22.8416 24.8816 22.571 24.9634 22.3076 25.0648C21.5442 25.4209 20.8668 25.9378 20.3217 26.5801C19.9673 27.0104 19.7861 27.5574 19.8135 28.1142C19.8359 28.5981 19.9748 29.0695 20.2182 29.4883C20.4982 30.0139 20.9061 30.4606 21.4041 30.7871C21.9683 31.1795 22.6102 31.4459 23.2864 31.5683C24.1882 31.7484 25.1208 31.6966 25.997 31.4177C27.3403 31.1103 28.4478 30.1645 28.9617 28.886C29.2817 27.9448 28.717 27.3613 28.0864 26.8342C27.9345 26.7248 27.7928 26.602 27.6629 26.4671C27.4346 26.2393 27.3176 25.9228 27.3429 25.6013C27.4543 25.1104 27.6282 24.6359 27.8606 24.1895C27.9829 23.926 28.0864 23.653 28.2088 23.4177C28.4066 23.0175 28.7402 22.7006 29.15 22.5236C29.6443 22.2675 30.2267 22.2434 30.7406 22.4577C31.161 22.6372 31.5642 22.8545 31.9453 23.1071C32.1335 23.2483 32.3312 23.3895 32.5288 23.5495C32.7125 23.721 32.8824 23.9067 33.037 24.1048C34.1547 25.5222 34.6505 27.3321 34.4112 29.1213C34.34 29.7164 34.188 30.299 33.9594 30.853C33.5811 31.8534 33.0265 32.7779 32.3217 33.5824C30.3158 35.7494 27.5005 36.9866 24.5476 36.9989L24.5288 36.886Z" fill="black"/>
<path d="M25.96 56.8297C23.3861 57.041 20.8275 56.2711 18.7976 54.6744C18.4212 54.4014 18.0729 54.1097 17.7153 53.8085C17.3541 53.4848 17.0376 53.1145 16.7741 52.7073C15.8572 51.2536 15.4653 49.5299 15.6635 47.8226C15.7607 47.0153 15.9997 46.2315 16.3694 45.5073C16.7357 44.8273 17.2093 44.2108 17.7717 43.6814C18.6855 42.8047 19.7591 42.1114 20.9341 41.6391C22.3119 40.9394 23.9064 40.7978 25.3859 41.2438C25.847 41.4226 25.64 42.185 25.2635 42.9003C24.887 43.6155 24.4164 44.5097 23.927 44.7261C23.1157 45.0358 22.3737 45.5028 21.7435 46.1003C21.5127 46.3306 21.3047 46.5828 21.1223 46.8532C20.9529 47.1073 20.7835 47.352 20.567 47.6344C20.3314 47.9892 20.2924 48.4396 20.4635 48.8297C20.6402 49.2513 20.8921 49.6372 21.207 49.9685C21.9793 50.9227 23.0938 51.5374 24.3129 51.6814C25.1247 51.7828 25.949 51.6826 26.7129 51.3897C27.2748 51.1782 27.7896 50.8584 28.2282 50.4485C28.5876 50.1032 28.7799 49.6192 28.7553 49.1214C28.7161 48.6788 28.5494 48.2571 28.2753 47.9073C27.9831 47.5142 27.6485 47.1544 27.2776 46.8344C27.127 46.6838 26.9106 46.5803 26.7694 46.4297C26.2141 45.8555 26.327 45.4226 27.0329 44.2932C27.2023 44.0391 27.3435 43.7661 27.5129 43.5214C28.0002 42.6568 29.0752 42.3191 29.9694 42.7497C30.6559 43.1018 31.2742 43.5735 31.7953 44.1426C32.3622 44.7505 32.8263 45.4466 33.1694 46.2038C33.5897 47.1228 33.811 48.1203 33.8188 49.1308C33.8393 50.3098 33.5539 51.4739 32.9906 52.5097C32.7863 52.8898 32.5501 53.2518 32.2847 53.592C32.0212 53.912 31.7388 54.185 31.4564 54.4673C30.9348 54.9317 30.3671 55.3416 29.7623 55.6908C28.5805 56.349 27.2833 56.7739 25.9412 56.9426L25.96 56.8297Z" fill="black"/>
<path d="M28.9058 75.2577C27.6663 75.8563 26.3254 76.2171 24.9528 76.3212C23.6048 76.4473 22.2451 76.339 20.934 76.0012C19.882 75.7699 18.8888 75.3246 18.0164 74.6929C17.215 74.0536 16.5711 73.239 16.134 72.3118C15.7107 71.4304 15.4889 70.4659 15.4846 69.4882C15.4695 68.6016 15.5966 67.7182 15.8611 66.8718C16.1125 66.0156 16.5388 65.2208 17.1128 64.5377C18.0509 63.3739 19.2375 62.4348 20.5858 61.7894C21.3802 61.398 22.2216 61.1102 23.0893 60.933C23.9535 60.8488 24.8255 60.9614 25.6399 61.2624C26.1481 61.46 26.0446 62.1282 25.6399 62.9565C25.2835 63.8313 24.7771 64.6371 24.1434 65.3377C23.6164 65.6012 23.0987 65.7612 22.694 66.0247C22.3313 66.2382 21.9908 66.4872 21.6775 66.7682C21.4306 66.9982 21.2125 67.2574 21.0281 67.54C20.9717 67.6059 20.9434 67.6906 20.887 67.7659C20.8081 67.8386 20.7385 67.9208 20.6799 68.0106C20.5365 68.2063 20.4106 68.4141 20.3034 68.6318C20.0657 69.0835 20.0382 69.6168 20.2281 70.0906C20.4541 70.5263 20.7961 70.8911 21.2164 71.1447C21.8259 71.5392 22.5185 71.7872 23.2399 71.8694C24.0439 71.9668 24.8592 71.9061 25.6399 71.6906C26.5973 71.4499 27.466 70.9405 28.1434 70.2224C28.6348 69.7113 28.9935 69.0876 29.1881 68.4059C29.3509 67.6697 29.2717 66.9005 28.9622 66.2129C28.474 65.2076 27.525 64.5047 26.4211 64.3306C26.2234 64.3306 26.0446 64.3306 25.894 64.3306C25.6448 64.4056 25.3767 64.3007 25.2446 64.0765C24.9964 63.7782 24.7639 63.4672 24.5481 63.1447L24.1434 62.5988C23.9358 62.293 23.9002 61.9018 24.0493 61.5635C24.1455 61.3148 24.2753 61.0805 24.4352 60.8671C24.6606 60.618 24.9456 60.4302 25.2634 60.3212C26.3133 60.066 27.4158 60.1349 28.4258 60.5188C29.3867 60.8808 30.2526 61.4569 30.9575 62.2035C31.6432 62.9142 32.1892 63.7475 32.5669 64.66C32.7552 65.1118 32.9528 65.6012 33.1222 66.0529C33.2801 66.5582 33.3842 67.0788 33.4328 67.6059C33.4802 68.0155 33.4802 68.4292 33.4328 68.8388C33.417 69.2717 33.3507 69.7013 33.2352 70.1188C33.0438 70.9083 32.726 71.6615 32.294 72.3494C31.4451 73.6144 30.3017 74.6543 28.9622 75.38L28.9058 75.2577Z" fill="black"/>
</svg>
