<svg width="96" height="96" viewBox="0 0 96 96" fill="none" xmlns="http://www.w3.org/2000/svg">
<path d="M29.1912 67.9672C29.1912 67.6943 30.9888 76.4378 34.0853 70.6307C35.0265 68.8802 31.93 78.1602 31.93 78.1602C31.93 78.1602 28.8806 73.3413 29.1912 67.9672Z" fill="black"/>
<path d="M70.4709 35.6392L65.7086 40.0439C65.1344 40.5804 64.598 41.1545 64.0144 41.6816L57.7933 47.2251C56.8521 48.0345 55.9768 48.9004 55.0733 49.7286C54.5104 50.2851 53.9199 50.8129 53.3038 51.3098C52.9838 51.5451 52.6544 51.7616 52.3627 51.9781C52.0709 52.1945 51.6474 52.3734 51.2991 52.571C50.9509 52.7686 50.8286 52.571 51.0168 52.1757C51.315 51.5162 51.6742 50.886 52.0897 50.2933C53.125 49.1169 54.3391 48.091 55.4686 46.971C56.598 45.851 57.7838 44.7875 58.998 43.7334C60.438 42.4628 61.765 40.9569 63.1391 39.5545L67.685 34.9239C68.6262 33.9828 69.5674 33.0416 70.4521 32.1004C71.8262 30.6322 73.2756 29.1828 74.518 27.6486C75.473 26.447 76.3561 25.1899 77.1627 23.8839C77.3415 23.6016 77.5015 23.3098 77.6897 23.0369C78.0097 22.5475 78.2544 22.2463 78.5744 22.0957C78.9182 22.102 79.2611 22.1335 79.6003 22.1898C79.798 22.1898 80.005 22.1898 80.1744 22.1898C80.3438 22.1898 80.6544 22.3781 80.7862 22.7734C80.8514 23.0155 80.8705 23.2677 80.8427 23.5169C80.8209 23.7588 80.747 23.9932 80.6262 24.2039C79.1688 26.7478 77.356 29.0708 75.2427 31.1028C73.718 32.6651 72.1274 34.171 70.5368 35.6957L70.4709 35.6392Z" fill="black"/>
<path d="M54.6686 62.6685C55.8639 62.9226 57.031 63.252 58.1886 63.6096C58.6121 63.732 59.0451 63.8261 59.4686 63.9767C60.926 64.5259 62.3388 65.1866 63.6945 65.9532C64.2968 66.3014 64.918 66.6026 65.5204 66.8944C65.9216 67.1001 66.3029 67.3427 66.6592 67.6191C66.9866 67.948 67.2655 68.322 67.4874 68.7296C67.6286 68.9838 67.4027 69.1438 66.998 69.2473C66.5235 69.3793 66.0267 69.4114 65.5392 69.3414C65.345 69.2991 65.162 69.2156 65.0027 69.0967L64.5133 68.7767L63.4686 68.1649L61.3227 66.9414C60.3968 66.4868 59.4207 66.1425 58.4145 65.9155C57.3227 65.5861 56.2121 65.3132 55.0921 65.0685C54.3957 64.9367 53.6992 64.8049 52.9933 64.7108L51.3933 64.532C50.8568 64.532 50.3204 64.4661 49.7839 64.4661C48.9572 64.5232 48.1361 64.6428 47.3274 64.8238C47.1486 64.8238 46.9698 64.9179 46.791 64.9461C46.1227 64.9461 45.8498 64.7955 45.7086 64.1367C45.7086 63.9955 45.6145 63.8638 45.5863 63.7414C45.5054 63.2531 45.7815 62.7759 46.2451 62.6026C46.99 62.2943 47.7832 62.119 48.5886 62.0849C49.4031 62.0238 50.2211 62.0238 51.0357 62.0849C52.2581 62.1742 53.4742 62.3345 54.678 62.5649L54.6686 62.6685Z" fill="black"/>
<path d="M61.3421 46.264L48.9562 55.977C47.4504 57.1628 46.0198 58.4146 44.5045 59.5911C43.1319 60.5505 41.8693 61.6583 40.7398 62.8946C40.4469 63.2022 40.1324 63.4884 39.7986 63.7511C39.6951 63.8452 39.6762 63.8546 39.648 63.864C39.6154 63.8912 39.5869 63.9229 39.5633 63.9581C39.4692 64.0805 39.3562 64.2123 39.2621 64.3534C38.8574 64.9181 38.5468 65.6146 38.1515 66.2358C37.3757 67.6554 36.6996 69.1271 36.128 70.6405L35.9021 71.2146L35.6386 71.9487L34.9515 73.7464C34.5374 74.904 34.1609 76.0617 33.7562 76.937C33.4788 77.5416 33.1245 78.1078 32.7021 78.6217C32.5451 78.8455 32.3209 79.0136 32.0621 79.1017H31.9115C31.9115 79.224 31.9115 79.1017 31.9115 79.1676V79.1676V79.1676H31.8362C31.7462 79.1388 31.6582 79.1042 31.5727 79.064C31.4019 78.9795 31.2435 78.8718 31.1021 78.744C30.9515 78.6217 30.8292 78.4993 30.6974 78.3864C30.5739 78.2449 30.4577 78.0973 30.3492 77.944C30.1282 77.6456 29.9299 77.331 29.7562 77.0029C29.544 76.6486 29.3554 76.2807 29.1915 75.9017C29.0535 75.4813 28.9029 75.0577 28.7398 74.6311C28.5515 74.057 28.4386 73.3699 28.2503 72.7487L28.0056 71.7134C27.9115 71.3934 27.8456 70.9323 27.7986 70.7723L27.5256 69.3417C27.4096 68.8725 27.3371 68.3936 27.3092 67.9111L27.1021 65.1628C27.0584 64.7314 27.0427 64.2975 27.0551 63.864C27.052 63.4951 27.0206 63.1269 26.9609 62.7628C26.9609 62.5652 26.9609 62.4711 26.9609 62.3487C26.9635 62.2108 27.0133 62.0779 27.1021 61.9723C27.4662 61.6141 28.0311 61.5591 28.4574 61.8405C29.3154 62.3027 30.0634 62.9448 30.6503 63.7228C31.3327 64.6073 31.8 65.6384 32.0151 66.7346C32.0998 67.224 32.2127 67.6758 32.2503 68.2028V70.377C32.2503 70.5464 32.2503 70.4993 32.2503 70.4993V70.4993C32.2111 70.5926 32.2111 70.6978 32.2503 70.7911C32.3068 70.9134 32.3445 70.9134 32.4668 70.7911L32.5703 70.6499V70.6499C32.5703 70.6499 32.5703 70.6499 32.6174 70.537L32.6739 70.3581L32.8998 69.6428C33.2198 68.7017 33.5586 67.7605 33.9539 66.8193C34.1892 66.2452 34.4339 65.6711 34.6974 65.097C34.8386 64.8052 34.9703 64.5134 35.1209 64.2217C35.2715 63.9299 35.4598 63.657 35.6386 63.3746C36.0267 62.7764 36.4576 62.207 36.928 61.6711C37.0998 61.5028 37.2821 61.3456 37.4739 61.2005L37.8221 60.9276C38.0551 60.7361 38.3003 60.56 38.5562 60.4005C39.0645 60.0711 39.6009 59.7699 40.0809 59.4593L41.4268 58.1323L44.1092 55.7323L55.9115 45.304L59.5539 42.0852C60.7774 41.0311 62.0009 39.977 63.2151 38.904C66.8951 35.6664 70.5845 32.4099 74.0762 29.0217C75.4221 27.6946 76.7021 26.3299 77.9539 24.9464C79.2056 23.5628 80.4103 22.1228 81.6339 20.7581C82.1609 20.1276 82.7256 19.5628 83.3092 18.9887C84.0639 18.2031 84.9182 17.5196 85.8503 16.9558C86.1418 16.7886 86.4604 16.674 86.7915 16.617C87.1045 16.586 87.4197 16.586 87.7327 16.617C87.9868 16.617 88.2598 16.617 88.4386 16.617C88.9374 16.664 88.8998 18.3017 87.6386 20.2781C87.1868 21.0311 86.6974 21.7276 86.208 22.4523L85.4645 23.5346C85.2103 23.8923 84.9186 24.2123 84.6456 24.5511C83.4409 25.9001 82.2362 27.2115 81.0315 28.4852C79.808 29.7464 78.5468 30.9887 77.2668 32.2499L73.4268 35.8828C69.5115 39.4405 65.5241 42.926 61.4645 46.3393L61.3421 46.264Z" fill="black"/>
<path d="M66.2839 33.803C63.1467 35.6854 60.0094 37.5677 56.8722 39.4501C55.7333 40.1465 54.6604 40.9371 53.5216 41.6242L41.4839 48.8995C39.6863 49.963 37.9451 51.1301 36.2322 52.2877C34.0338 53.7874 31.7421 55.1454 29.371 56.3536C28.6275 56.7207 28.5239 56.4101 28.8439 55.6571C29.3579 54.4981 30.0787 53.4425 30.971 52.5418L32.4675 51.1583L33.2204 50.4524L34.0298 49.8313C35.109 49.003 36.2008 48.1936 37.3051 47.403C38.4157 46.6124 39.5169 45.8124 40.6839 45.0971C41.851 44.3818 43.0275 43.6289 44.251 42.9983C47.1216 41.3983 49.8416 39.3371 52.6463 37.5113C55.7333 35.5065 58.8581 33.5489 61.9639 31.5818L67.7239 27.9583C70.6133 26.076 73.5592 24.3254 76.3828 22.4054C78.5757 20.9183 80.6557 19.3371 82.8204 17.8407C83.3004 17.5113 83.7616 17.163 84.251 16.8995C86.1333 15.7607 87.0745 15.8454 87.8275 16.3724C88.0151 16.4814 88.1944 16.6041 88.3639 16.7395C88.6086 16.9748 88.5898 17.3136 88.3639 17.756C88.1026 18.3407 87.7247 18.8659 87.2533 19.2995C86.4157 20.156 85.4839 20.8524 84.571 21.643C83.6581 22.4336 82.6886 23.1583 81.7475 23.9113C79.8145 25.4225 77.7937 26.8179 75.6957 28.0901C72.6086 30.0665 69.4463 31.9677 66.2839 33.9254V33.803Z" fill="black"/>
<path d="M59.8173 66.038C58.6359 65.6212 57.4286 65.2816 56.2032 65.0216C55.7514 64.9086 55.262 64.9557 54.8291 64.8616C54.0291 64.6827 53.2196 64.6168 52.3914 64.4945C51.5638 64.3932 50.7311 64.3398 49.8973 64.3345C49.1607 64.3392 48.4274 64.434 47.7138 64.6168C46.8245 64.9305 45.8896 65.0959 44.9467 65.1063C44.6361 65.1063 44.4761 64.3063 44.542 63.5063C44.6079 62.7063 44.9279 61.878 45.4832 61.7274C47.5433 61.2121 49.689 61.1384 51.7796 61.511C53.0314 61.7274 54.3396 61.6239 55.6102 61.8027C57.0042 62.0057 58.3796 62.3204 59.7232 62.7439C60.5514 63.0168 61.3702 63.2804 62.1702 63.591C63.3938 64.0333 64.5514 64.6357 65.7373 65.1533C66.6835 65.5084 67.6048 65.9266 68.4949 66.4051C68.6738 66.5368 68.8714 66.6498 69.0408 66.8004C69.6526 67.3933 69.7185 67.7416 69.4549 68.3063C69.4091 68.4287 69.3557 68.5481 69.2949 68.6639C68.976 69.044 68.4568 69.1897 67.9867 69.031C67.5632 68.9368 67.102 68.8898 66.6785 68.8145C66.2766 68.7307 65.8874 68.5946 65.5208 68.4098L63.262 67.4686C62.1215 66.9752 60.9523 66.5509 59.7608 66.198L59.8173 66.038Z" fill="black"/>
<path d="M80.8904 37.3141C80.401 38.4153 79.9493 39.5353 79.4693 40.6553C78.9893 41.7753 78.5281 42.8859 78.0763 44.0247C77.7469 44.8435 77.5304 45.7094 77.2104 46.5376C76.081 49.4553 75.0081 52.4106 74.1422 55.4129C73.7846 56.8059 73.4269 58.1047 73.1446 59.4506C72.9751 60.3071 72.8246 61.1729 72.6928 62.0294C72.4979 62.8553 72.3471 63.691 72.241 64.5329C72.241 64.9471 72.0151 65.1071 71.5446 64.6647C70.9417 63.9442 70.5593 63.0652 70.4434 62.1329C70.3989 60.2451 70.5059 58.3566 70.7634 56.4859C71.1163 54.657 71.6167 52.8598 72.2599 51.1118C73.0222 49.0035 73.4551 46.7353 74.1422 44.5235C74.9046 42.1423 75.7046 39.8176 76.6646 37.4553C77.2387 36.0341 77.8504 34.6318 78.4528 33.2012C79.394 31.0553 80.4104 28.9471 81.3799 26.8388C81.7751 26.02 82.1046 25.1824 82.4622 24.3447C82.7877 23.4911 83.1779 22.6636 83.6293 21.8694C83.8363 21.5212 83.9963 21.1541 84.241 20.8153C85.1257 19.5635 85.7093 19.3471 86.6034 19.6953C86.8132 19.7613 87.0177 19.8431 87.2151 19.94C87.8363 20.3071 87.921 21.1259 87.554 22.0576C86.9987 23.46 86.6128 24.9659 85.8693 26.3494L83.874 30.6788C82.9328 32.8624 81.8881 35.0741 80.994 37.3329L80.8904 37.3141Z" fill="black"/>
<path d="M50.3208 37.2373L35.6385 43.2608C33.8502 43.995 32.1279 44.8514 30.3396 45.5855L20.9279 49.4632L19.7796 49.9526L19.1961 50.2161L18.7349 50.4232L17.7091 50.8185C17.0032 51.1102 16.2126 51.4397 15.3843 51.8255C15.1961 51.9102 15.0173 51.995 14.8479 52.0891C14.7578 52.1322 14.6752 52.1894 14.6032 52.2585C14.6596 52.2585 14.7632 52.2585 14.8479 52.2585L15.9302 52.3338C16.6832 52.3808 17.4549 52.4279 18.1514 52.5032C18.3773 52.5032 18.6032 52.5502 18.8196 52.5879C18.8855 52.5879 18.8949 52.5879 19.0173 52.5879L19.3938 52.6726L20.1373 52.842C21.1418 53.0801 22.1267 53.3948 23.0832 53.7832C24.0895 54.1844 25.0388 54.716 25.9067 55.3644C26.8204 56.0795 27.5176 57.0341 27.9208 58.122C28.1749 58.7997 28.062 59.1573 27.8549 59.2232C27.6479 59.2891 27.2526 59.1008 26.6879 58.9032C25.9751 58.6842 25.2308 58.5856 24.4855 58.6114C23.6462 58.5313 22.8169 58.3674 22.0102 58.122C21.2022 57.8704 20.3784 57.6724 19.5443 57.5291C19.1114 57.4538 18.6785 57.3785 18.2361 57.322L17.8973 57.2655L17.1632 57.162C16.6549 57.162 16.1185 57.1055 15.5914 57.0773L14.0385 56.8891L12.4291 56.7291L10.7632 56.5973L9.92553 56.5408C9.6717 56.5318 9.41943 56.4971 9.17258 56.4373C8.51457 56.3069 7.89203 56.0374 7.3467 55.6467C7.03177 55.4621 6.79689 55.1669 6.68788 54.8185C6.6248 54.5951 6.59624 54.3634 6.60317 54.1314C6.61834 54.0001 6.61834 53.8675 6.60317 53.7361C6.5841 53.6082 6.5841 53.4782 6.60317 53.3502C6.69922 52.6357 7.03035 51.9735 7.54435 51.4679C8.04906 50.9296 8.64894 50.4892 9.31376 50.1691L9.61494 50.0091L10.1232 49.8773C10.4432 49.7926 10.8196 49.7079 11.0643 49.6232L12.4385 49.0397L15.0832 47.9479L16.3632 47.4773L16.9561 47.2326L17.2291 47.1291L17.3985 47.0632C21.822 45.3126 26.1891 43.0161 30.5749 41.0208L45.2479 34.4985L54.2173 30.4514C58.7161 28.3808 63.3185 26.4797 67.7326 24.2961C69.4455 23.4585 71.1114 22.555 72.7585 21.6326L77.7373 19.0161C78.4714 18.6302 79.1679 18.2255 79.9114 17.8491C80.6549 17.4726 81.1632 17.2279 81.6432 17.0114C82.059 16.8517 82.4871 16.7258 82.9232 16.635C83.4681 16.5084 84.0347 16.5084 84.5796 16.635C84.7914 16.674 85.005 16.7023 85.2196 16.7197C85.5396 16.7667 85.5208 17.1902 85.1632 17.7832C84.64 18.5836 84.0063 19.3061 83.2808 19.9291C80.4573 22.0467 77.5585 24.0044 74.5279 25.8867C71.422 27.6091 68.222 29.2185 64.9938 30.7997C62.5938 31.9573 60.2502 33.1338 57.7467 34.2161L50.3773 37.3597L50.3208 37.2373Z" fill="black"/>
</svg>
