<svg width="96" height="96" viewBox="0 0 96 96" fill="none" xmlns="http://www.w3.org/2000/svg">
<path d="M20.7044 58.3336C19.9515 58.0794 19.6409 57.3924 19.4527 56.5265C19.3962 56.2347 19.7256 55.6606 19.9797 55.67C20.4597 55.67 20.9774 55.7547 21.448 55.8394C21.7397 55.9053 25.7868 57.6183 27.1797 58.1453C28.5127 58.6711 29.8138 59.2745 31.0762 59.9524L38.6056 64.2347C39.1614 64.554 39.6875 64.9226 40.1774 65.3359C41.8696 66.7338 43.7095 67.9426 45.6644 68.9406C45.9738 69.1535 46.3281 69.292 46.6997 69.3453C47.368 69.3453 52.3468 72.5642 52.9397 73.11C54.3233 74.4653 55.7633 75.6889 57.2409 76.9783C57.448 77.1571 57.7397 77.2418 57.8056 77.5994C57.975 78.4089 58.5115 78.6536 58.9821 79.0206C59.6404 79.5267 60.2689 80.0703 60.8644 80.6489C61.1179 81.0185 61.3205 81.4205 61.4668 81.8442C61.655 82.23 61.0715 82.7853 60.9115 82.7853C60.4691 82.7853 60.5256 83.2842 60.3844 83.5853C60.3405 83.6942 60.2802 83.7958 60.2056 83.8865C58.3606 83.6036 56.5414 83.1724 54.7656 82.5971C54.7656 82.5971 54.3233 82.39 53.7303 82.0512L51.5844 80.8653C49.9656 79.9242 48.2809 79.0394 47.9233 78.87C47.5676 78.657 47.2496 78.3867 46.9821 78.07C46.8409 77.9194 41.9562 75.3312 41.815 75.1524C40.8165 74.5634 39.9332 73.798 39.208 72.8936C39.0669 72.7092 38.8869 72.5582 38.6809 72.4512C37.0339 71.3783 35.5374 70.0983 33.975 68.8842C33.2315 68.263 32.3468 67.7359 31.5374 67.1336C31.3941 67.0138 31.2618 66.8815 31.1421 66.7383C30.9866 66.5698 30.8166 66.4155 30.6339 66.2771C28.648 64.9877 26.8692 63.3971 24.8644 62.1265C24.4127 61.8253 22.5209 59.9712 21.975 59.67C21.6833 59.51 20.9962 58.4277 20.7044 58.3336Z" fill="black"/>
<path d="M15.7159 34.7855C14.829 34.375 14.2244 33.5271 14.1253 32.5549C14.0594 32.2255 14.4641 31.6137 14.7653 31.6984C15.3394 31.8207 15.9135 31.9337 16.4782 32.0937C16.8076 32.2066 21.7018 34.5972 23.4053 35.3313C25.0421 36.0595 26.641 36.87 28.1959 37.7596C31.3206 39.6419 34.4171 41.5243 37.5229 43.3407C38.2125 43.7598 38.8729 44.2252 39.4994 44.7337C41.6716 46.4469 43.9823 47.9769 46.4076 49.3078C46.7875 49.5779 47.2156 49.7728 47.6688 49.8819C48.4594 50.0043 54.85 53.9102 55.5935 54.5878C57.4288 56.1878 59.3112 57.7125 61.1747 59.2937C61.4476 59.5102 61.7959 59.6419 61.9276 60.0184C62.2382 60.8843 62.8688 61.2043 63.5182 61.6466C64.3674 62.2482 65.1784 62.902 65.9465 63.6043C66.3245 64.0182 66.6415 64.4841 66.8876 64.9878C67.1418 65.4207 66.4829 66.0043 66.2947 65.9855C65.7676 65.9855 65.8712 66.5031 65.7112 66.8137C65.6703 66.9318 65.6063 67.0406 65.5229 67.1337C63.3124 66.5729 61.1503 65.8365 59.0571 64.9313L50.5865 60.056C50.1417 59.7832 49.7363 59.4507 49.3818 59.0678C49.1935 58.9078 43.1982 55.4255 42.9724 55.3031C41.7239 54.574 40.5808 53.6779 39.5747 52.6396C39.3784 52.4249 39.1459 52.2465 38.8876 52.1125C36.7982 50.8043 34.8406 49.289 32.8453 47.8302C31.8288 47.0772 30.7465 46.4278 29.7018 45.7219C29.5203 45.5818 29.3475 45.431 29.1841 45.2702C28.9743 45.07 28.7511 44.8844 28.5159 44.7149C25.9841 43.1337 23.6876 41.176 21.1653 39.5949C20.5912 39.2184 18.1347 36.969 17.4476 36.5643C16.9865 36.216 16.0924 34.9266 15.7159 34.7855Z" fill="black"/>
<path d="M22.0498 14.9457C21.5559 14.7021 21.1533 14.3061 20.9015 13.8163C20.6209 13.3025 20.454 12.7344 20.4121 12.1504C20.4121 11.774 20.9862 11.2093 21.2968 11.3034L22.238 11.4822L23.2356 11.6893C23.3392 11.6893 23.7439 11.8869 24.3745 12.141C25.0051 12.3951 25.7674 12.8281 26.5956 13.2422C28.2709 14.061 30.1439 14.974 31.1133 15.4069C32.9956 16.2634 34.765 17.2893 36.5345 18.2304L47.2074 24.621C47.9963 25.0983 48.751 25.6297 49.4662 26.2116C51.9577 28.1649 54.6085 29.9059 57.3909 31.4163C57.8306 31.719 58.3218 31.9391 58.8403 32.0657C59.7815 32.1881 67.0098 36.7716 67.8662 37.4681C69.9839 39.2751 72.1674 40.9881 74.3227 42.7575C74.6333 43.0022 75.0286 43.1622 75.198 43.5669C75.6221 44.3528 76.2799 44.9875 77.0803 45.3834C78.0623 46.0603 79.005 46.7925 79.9039 47.5763C80.3319 48.0307 80.7018 48.5365 81.005 49.0822C81.325 49.5622 80.6286 50.1457 80.4215 50.1269C79.8286 50.0704 79.9792 50.654 79.8286 50.9834C79.7877 51.1015 79.7237 51.2103 79.6403 51.3034C77.1229 50.636 74.6544 49.7964 72.2521 48.7904L62.3039 43.4257C61.7899 43.1253 61.3156 42.7617 60.8921 42.3434C60.6662 42.1646 53.6639 38.3622 53.4286 38.1457C52.0827 37.2046 50.6051 36.4799 49.4851 35.1434C49.2517 34.9068 48.9816 34.7098 48.6851 34.5599C46.2662 33.0822 43.9792 31.3787 41.6921 29.7222C40.5156 28.8751 39.2639 28.1504 38.0592 27.3504C37.8476 27.1908 37.6464 27.0179 37.4568 26.8328C37.2148 26.6047 36.9569 26.3939 36.6851 26.2022C33.7768 24.3951 31.1039 22.2116 28.2145 20.4328C27.5462 20.0093 24.7227 17.421 23.9321 16.9504C23.4615 16.6681 22.4545 15.1622 22.0498 14.9457Z" fill="black"/>
</svg>
