<svg width="96" height="96" viewBox="0 0 96 96" fill="none" xmlns="http://www.w3.org/2000/svg">
<path d="M47.3773 45.4274C45.9279 46.7545 44.5537 48.138 43.1043 49.5027C41.6549 50.8674 40.3467 52.3262 39.0196 53.7756C38.0596 54.8486 37.2502 56.025 36.309 57.0603C34.6337 58.9427 32.9961 60.9098 31.349 62.858C29.702 64.8062 28.0643 66.7921 26.5773 68.8721C25.909 69.8133 25.2596 70.7545 24.6384 71.6956L22.869 74.5945C22.1161 75.8274 21.3632 77.0697 20.6479 78.3592C20.2808 78.9897 19.9043 79.6109 19.509 80.2415L18.9067 81.1827C18.6902 81.4839 18.4079 81.738 18.1632 82.0203C17.4949 82.698 17.2879 82.4627 17.1184 81.5121C16.9764 80.8953 16.9194 80.262 16.949 79.6298C16.9932 78.8296 17.1647 78.0417 17.4573 77.2956C17.7396 76.5898 18.022 75.8839 18.3232 75.1874L19.2643 73.1262C19.8898 71.7465 20.584 70.3989 21.3443 69.0886C22.8623 66.4621 24.5638 63.946 26.4361 61.5592C27.0008 60.8439 27.5373 60.1003 28.0643 59.3286C28.5914 58.5568 29.1561 57.738 29.7208 56.9756C30.8032 55.4603 31.8761 53.9074 33.0714 52.4768L35.0196 50.0956C35.6879 49.3145 36.3749 48.5615 37.0526 47.7898C37.7302 47.018 38.4079 46.2556 39.1043 45.5027L41.222 43.2721L42.5302 41.9074L43.8384 40.5803C44.7796 39.705 45.6173 38.7921 46.5396 37.9356C47.9514 36.6462 49.3632 35.3192 50.7843 34.0862L52.9302 32.2039C53.6549 31.5921 54.3796 30.9709 55.0855 30.3215C57.2784 28.3545 59.3114 26.2462 61.5796 24.2886C62.0879 23.865 62.5208 23.4133 63.0949 23.0086C63.8029 22.4424 64.6525 22.0811 65.5514 21.9639C66.2404 21.9661 66.8951 22.2644 67.349 22.7827C67.6356 23.0318 67.9089 23.2957 68.1679 23.5733C68.949 24.5145 68.6008 25.9168 67.4714 27.1215C64.0267 30.698 60.0455 34.0109 56.1773 37.5309L53.9937 39.4886L51.829 41.4933C50.3796 42.8203 48.9396 44.1756 47.509 45.5403L47.3773 45.4274Z" fill="black"/>
<path d="M61.2874 29.8403C61.2874 29.8403 55.7627 48.3438 67.6404 50.5462C79.2921 52.6732 75.358 21.3697 79.9604 13.7179C80.0827 13.5109 48.3651 10.1038 41.2592 23.3744C39.8945 25.9344 39.0662 29.2756 41.4286 31.5344C43.791 33.7932 47.038 34.4709 50.0027 34.4709C55.4898 34.5744 61.1086 30.4427 61.2874 29.8403Z" fill="black"/>
</svg>
