<svg width="96" height="96" viewBox="0 0 96 96" fill="none" xmlns="http://www.w3.org/2000/svg">
<path d="M29.4553 57.8614C28.4668 57.4042 27.5504 56.8049 26.7353 56.0825C25.8677 55.3176 25.1579 54.3904 24.6459 53.3531C24.1512 52.3582 23.8327 51.2851 23.7047 50.1814C23.545 49.097 23.5641 47.9937 23.7612 46.9155C24.164 44.7755 25.2039 42.8071 26.7447 41.2684C28.0866 39.9232 29.6377 38.8043 31.3377 37.9555C34.4859 36.4069 37.8648 35.3802 41.3424 34.9155C42.1989 34.8025 43.0742 34.7084 43.9683 34.6614C44.8624 34.6143 45.7565 34.6614 46.6412 34.6614C48.3821 34.7703 50.1125 35.0094 51.8177 35.3767C56.7152 36.4243 61.375 38.3744 65.5589 41.1272C67.3859 42.3764 69.0992 43.7842 70.6789 45.3343C71.0647 45.739 71.4694 46.1155 71.8365 46.539L72.9377 47.819L73.973 49.2684C74.3024 49.7672 74.5565 50.3131 74.8483 50.8308C75.9113 52.9816 76.4621 55.3493 76.4577 57.7484C76.445 60.0868 75.9483 62.3973 74.9989 64.5343C74.085 66.623 72.8107 68.5345 71.2341 70.1814C70.4346 71.0188 69.5657 71.787 68.6365 72.4778C68.1753 72.8072 67.6953 73.1367 67.2436 73.419C66.7375 73.725 66.2125 73.9985 65.6718 74.2378C63.5494 75.212 61.2294 75.6792 58.8953 75.6025C57.5782 75.5539 56.298 75.1542 55.1871 74.4449C54.0105 73.6391 53.1753 72.4248 52.8436 71.0378C52.5768 69.8786 52.6288 68.6687 52.9942 67.5367C53.3133 66.5226 53.7693 65.5569 54.3494 64.6661C55.45 62.9555 56.8496 61.4571 58.4812 60.2425C61.6967 57.7788 65.6709 56.514 69.7189 56.6661C74.9461 56.8358 79.8268 59.3227 83.0365 63.452C83.4328 63.9563 83.7885 64.4913 84.1 65.052C84.4314 65.6017 84.7299 66.1705 84.9942 66.7555C85.5244 67.927 85.8796 69.1701 86.0483 70.4449C86.3303 72.8911 86.1709 75.368 85.5777 77.7578C85.2577 79.2072 84.9942 79.8002 84.8624 79.7343C84.7306 79.6684 84.6742 78.9343 84.5424 77.692C84.369 76.0268 84.0381 74.3817 83.5542 72.779C83.2417 71.8051 82.8449 70.8604 82.3683 69.9555C81.882 68.9801 81.2987 68.0562 80.6271 67.1978C80.3466 66.792 80.0317 66.411 79.6859 66.059C79.5304 65.8645 79.3571 65.6849 79.1683 65.5225C79.0796 65.4341 78.9818 65.3552 78.8765 65.2872L78.613 65.0237C78.2575 64.6819 77.8768 64.3673 77.4742 64.0825C77.0851 63.7761 76.6693 63.5052 76.2318 63.2731C74.52 62.3046 72.6322 61.687 70.6789 61.4567C66.7675 60.8661 62.7989 62.0771 59.8836 64.7508C59.1785 65.4252 58.5475 66.1729 58.0012 66.9814C57.5257 67.6455 57.1778 68.3923 56.9753 69.1837C56.8507 69.6608 56.9183 70.1677 57.1636 70.5955C57.4975 71.0353 57.998 71.3179 58.5471 71.3767C60.4394 71.6038 62.3577 71.3042 64.0906 70.5108C64.3259 70.4167 64.533 70.3037 64.7589 70.2002C64.9695 70.0964 65.1738 69.9801 65.3706 69.852C65.7942 69.5414 66.2553 69.2778 66.66 68.9108C67.4809 68.2916 68.2405 67.5951 68.9283 66.8308C69.7551 65.8689 70.4572 64.8063 71.0177 63.6684C71.5586 62.528 71.9387 61.318 72.1471 60.0731C72.4495 58.2254 72.3108 56.3324 71.7424 54.5484C71.6483 54.2567 71.5071 53.9837 71.3942 53.692C71.2862 53.4005 71.1506 53.12 70.9894 52.8543C69.5999 50.5828 67.7809 48.6039 65.6342 47.0284C63.4273 45.3423 61.0524 43.8883 58.5471 42.6896C53.0318 40.0355 46.9047 38.5955 41.013 39.7249C38.0484 40.1734 35.1831 41.1285 32.5424 42.5484C31.3228 43.2186 30.2404 44.1127 29.3518 45.1837C28.5651 46.1583 28.1248 47.3668 28.1 48.619C28.0315 50.1539 28.6243 51.6445 29.7283 52.7131C31.0306 53.7715 32.614 54.4258 34.2836 54.5955C38.0027 55.0602 41.7787 54.6838 45.333 53.4943C48.0099 52.522 50.5138 51.1271 52.7494 49.3625C54.989 47.702 56.7992 45.5303 58.0294 43.0284C59.1491 40.63 59.197 37.8689 58.1612 35.4331C57.0173 32.9182 55.2835 30.7163 53.1071 29.0143C49.661 26.2924 45.6568 24.3642 41.38 23.3672C40.3256 23.0917 39.2575 22.8718 38.18 22.7084C37.1071 22.5296 36.0153 22.4543 34.933 22.332C32.7648 22.2094 30.5903 22.2566 28.4294 22.4731L27.0083 22.5955C26.5471 22.5955 26.0671 22.7649 25.6247 22.8496L24.2318 23.1131L22.8483 23.4708L21.5777 23.7814C21.1918 23.8943 20.8342 24.0261 20.4765 24.139C19.78 24.3649 19.1118 24.4967 18.5377 24.7225C17.3989 25.1555 16.42 25.4002 15.6577 25.6637C14.4983 26.0986 13.2611 26.2877 12.0247 26.219C11.5681 26.2127 11.1124 26.1781 10.66 26.1155C10.0859 25.9555 10.3306 25.3061 11.2906 24.1296C11.5587 23.7946 11.8512 23.48 12.1659 23.1884C12.533 22.8967 12.9471 22.5767 13.4083 22.2472C14.4958 21.4774 15.6558 20.8155 16.8718 20.2708C20.95 18.3774 25.3517 17.2786 29.8412 17.0331C34.4424 16.7247 39.0627 17.1956 43.5071 18.4261C48.1368 19.6706 52.4509 21.8806 56.1659 24.9108C58.115 26.5115 59.8124 28.3961 61.2012 30.5014C61.9271 31.6407 62.5267 32.8557 62.9894 34.1249C63.461 35.4723 63.7429 36.8787 63.8271 38.3037C63.9205 40.4327 63.5345 42.5556 62.6977 44.5155C61.9093 46.3197 60.8492 47.9924 59.5542 49.4755C57.1153 52.1967 54.1838 54.432 50.9142 56.0637C50.1236 56.4778 49.3047 56.8543 48.4765 57.2025C47.6122 57.571 46.7257 57.8853 45.8224 58.1437C44.0951 58.6094 42.337 58.9522 40.5612 59.1696C38.7601 59.3949 36.9414 59.4453 35.1306 59.3202C33.1599 59.2047 31.2239 58.7493 29.4083 57.9743L29.4553 57.8614Z" fill="black"/>
</svg>
