<svg width="96" height="96" viewBox="0 0 96 96" fill="none" xmlns="http://www.w3.org/2000/svg">
<path d="M66.5916 52.8761C61.9704 52.1984 57.1798 51.8314 52.361 51.3325C49.9422 51.0878 47.5045 50.7961 45.0575 50.3914C43.8057 50.2125 42.6575 49.9773 41.2928 49.742L38.7987 49.2337C38.3415 49.1412 37.8916 49.0153 37.4528 48.8572L36.0316 48.4055C35.3771 48.2368 34.7452 47.9903 34.1492 47.6714C33.6881 47.4074 33.2587 47.0917 32.8692 46.7302C32.5263 46.3663 32.2435 45.9501 32.0316 45.4972C31.8014 44.9741 31.7294 44.395 31.8245 43.8314C32.0302 42.7676 32.6239 41.8183 33.4904 41.1678C33.6973 40.9523 33.9242 40.7569 34.1681 40.5843L35.0528 40.0667C35.354 39.8972 35.6269 39.709 35.9469 39.5584L36.9822 39.1349L37.9234 38.7584C38.2245 38.6455 38.5351 38.5796 38.8645 38.4855L39.8057 38.2125L40.2575 38.0808L40.5681 38.0149C41.3963 37.8361 42.2151 37.6949 43.0245 37.5725C44.6434 37.3372 46.2245 37.1867 47.7775 37.0455C50.7139 36.8693 53.6297 36.4411 56.4928 35.7655C56.8127 35.6896 57.1272 35.5922 57.434 35.4737C57.5943 35.4206 57.7489 35.3512 57.8951 35.2667C58.1547 35.1081 58.3147 34.8273 58.3187 34.5231C58.3074 34.1861 58.1996 33.8595 58.0081 33.582C57.6951 33.0644 57.3011 32.6004 56.841 32.2078C55.7415 31.2865 54.538 30.4968 53.2551 29.8549C51.9092 29.1396 50.5916 28.4902 49.1987 27.9161C44.1474 26.0085 38.8651 24.7805 33.4904 24.2643C30.0543 23.8562 26.5977 23.6457 23.1375 23.6337C21.4151 23.6337 19.6834 23.6337 17.9516 23.7278C16.2198 23.822 14.4598 23.8878 12.8222 24.1043C11.7963 24.2267 11.3445 24.2643 11.2975 24.1043C11.2504 23.9443 11.6739 23.5114 12.5492 23.0314C13.7423 22.4278 15.0074 21.9787 16.3139 21.6949C18.1233 21.2307 19.9736 20.9438 21.8387 20.8384C25.492 20.6313 29.1551 20.6691 32.8034 20.9514C36.4672 21.2159 40.1106 21.7126 43.7116 22.4384C47.398 23.1936 50.9789 24.3946 54.3751 26.0149C56.2037 26.8271 57.9186 27.8744 59.4763 29.1302C59.9155 29.4955 60.3217 29.8986 60.6904 30.3349C60.8934 30.5613 61.082 30.8002 61.2551 31.0502L61.5187 31.4455C61.6034 31.5867 61.6975 31.7749 61.7822 31.9349C62.5464 33.3177 62.7162 34.9516 62.2528 36.462C61.9164 37.3232 61.3337 38.0663 60.5775 38.5984C60.2069 38.8677 59.8095 39.0979 59.3916 39.2855C59.0849 39.4361 58.7707 39.5712 58.4504 39.6902C57.8763 39.8972 57.3022 40.0667 56.7281 40.2549C56.154 40.4431 55.5704 40.5749 54.9963 40.6972C52.6904 41.1772 50.4222 41.4125 48.2292 41.6384C46.1217 41.8584 44.0287 42.201 41.961 42.6643C41.3398 42.8055 41.2551 42.8431 41.0198 42.909L40.4834 43.0878C40.1558 43.2229 39.8409 43.3867 39.5422 43.5772C39.3822 43.6902 39.1845 43.8502 39.194 44.0667C39.2034 44.2831 39.401 44.4055 39.561 44.4996C39.9311 44.6761 40.3192 44.8118 40.7187 44.9043H40.8787H40.9539L41.0198 45.0267L41.6034 45.1584C41.9987 45.2525 42.3281 45.3467 42.9869 45.4502C44.1445 45.6667 45.3116 45.8549 46.4881 46.0243C51.194 46.6831 56.0128 47.022 60.8692 47.4831C63.8622 47.7655 66.874 48.1043 69.8763 48.6031L72.1351 49.0078L74.3751 49.4878L75.4198 49.7043L76.6716 49.949C77.7634 50.1749 78.8269 50.4384 79.834 50.749C80.8264 51.0395 81.7758 51.4605 82.6575 52.0008C83.4086 52.4353 84.052 53.0337 84.5398 53.7514C84.8097 54.2061 84.9436 54.7287 84.9257 55.2572C84.8927 55.782 84.6761 56.2784 84.314 56.6596C83.5859 57.3722 82.6987 57.9013 81.7257 58.2031C80.5308 58.6194 79.3029 58.9342 78.0551 59.1443L76.1069 59.5208L74.7234 59.7561C72.841 60.0761 71.0622 60.3678 69.274 60.6972C67.4933 61.0299 65.731 61.454 63.994 61.9678L63.4763 62.1373L63.0998 62.269C62.8551 62.3631 62.6104 62.4572 62.3751 62.5702C61.9204 62.7624 61.5174 63.0591 61.1987 63.4361C61.0003 63.7185 61.0003 64.0949 61.1987 64.3772C61.3984 64.6508 61.6683 64.8654 61.9798 64.9984C62.5615 65.2689 63.175 65.4649 63.8057 65.582C66.1681 66.1843 68.5775 66.8243 70.9963 67.3796L75.3916 68.3678C80.8975 69.6855 82.5728 70.542 83.3728 72.2267C83.5874 72.587 83.764 72.9687 83.8998 73.3655C84.1257 74.5702 81.6787 74.8431 77.5845 74.1184C73.8857 73.4408 70.1116 72.669 66.2904 71.6996L63.4669 70.9372L62.7798 70.7584L62.4128 70.6549L61.7916 70.4384C61.4057 70.3255 60.9351 70.1561 60.5022 70.0055C60.0692 69.8549 59.6363 69.6761 59.2128 69.4973C57.7046 68.8955 56.3989 67.877 55.4481 66.5608C55.0742 65.9361 54.8339 65.2407 54.7422 64.5184L54.6951 63.9443L54.7704 63.3702V63.229C54.714 63.229 54.7704 63.1349 54.7704 63.0878L54.8363 62.8243C54.8363 62.6455 54.9116 62.4572 54.9587 62.2972L55.6175 61.102C55.7337 60.8966 55.8796 60.7095 56.0504 60.5467C56.2016 60.3544 56.3685 60.1749 56.5492 60.0102C57.3983 59.2898 58.3499 58.6998 59.3728 58.2596C59.9338 58.0045 60.5089 57.7814 61.0951 57.5914L62.0363 57.2808L62.6104 57.1208C63.2881 56.9231 63.9469 56.7631 64.6057 56.6031C65.9234 56.2925 67.2598 56.0478 68.4928 55.822C69.7257 55.5961 71.0622 55.3702 72.3234 55.1631L75.2504 54.6737V54.6737C75.2504 54.6737 75.3351 54.6737 75.354 54.6737C75.3608 54.6588 75.3608 54.6416 75.354 54.6267V54.6267V54.6267L74.4787 54.4384L72.4175 53.9961C71.7775 53.8643 71.1469 53.7231 70.5351 53.6102C69.2457 53.3655 67.9375 53.1678 66.6292 52.989L66.5916 52.8761Z" fill="black"/>
</svg>
