<svg width="96" height="96" viewBox="0 0 96 96" fill="none" xmlns="http://www.w3.org/2000/svg">
<path d="M34.7866 36.4511C36.9307 34.6122 39.2842 33.0327 41.7984 31.7452C42.6831 31.2464 43.5396 30.7382 44.4431 30.2864C46.0337 29.5335 47.6431 28.837 49.2619 28.1688L54.1372 26.2864C55.5678 25.7311 56.9607 25.11 58.3631 24.4982C60.1796 23.7735 62.0054 23.077 63.8596 22.4182C64.4337 22.2205 64.4054 22.3429 64.029 22.7382C63.4173 23.3976 62.7462 23.9994 62.0243 24.5358C61.1866 25.1194 60.349 25.6841 59.5019 26.2394C58.6548 26.7947 57.7325 27.1805 56.8384 27.6323C55.0501 28.5264 53.2337 29.3547 51.4078 30.1264C49.195 31.1106 47.0478 32.236 44.9796 33.4958C42.6919 34.7757 40.508 36.2327 38.4478 37.8535C37.817 38.3472 37.2138 38.875 36.6407 39.4347L35.7937 40.2629L35.0219 41.157C34.6346 41.5827 34.2909 42.0462 33.996 42.5405C33.6842 43.0285 33.4074 43.5381 33.1678 44.0652C32.68 45.1725 32.2956 46.3225 32.0196 47.5005C31.6395 49.3308 31.3972 51.187 31.2949 53.0535C31.2949 53.4676 31.2949 53.8629 31.2478 54.2676C31.0501 55.7735 30.8431 56.2347 30.2219 56.6017C30.089 56.6916 29.9507 56.7733 29.8078 56.8464C29.3654 57.0347 28.8666 56.3852 28.6031 55.1617C27.9191 51.3749 28.267 47.4737 29.6101 43.8676C30.1103 42.3772 30.8167 40.9643 31.709 39.67C32.189 39.0676 32.6501 38.5029 33.149 37.9288L34.7019 36.3476L34.7866 36.4511Z" fill="black"/>
<path d="M44.923 53.4211C42.4878 55.6545 40.1873 58.0304 38.0336 60.5364C37.2336 61.4776 36.603 62.4846 35.8312 63.4164C33.0586 66.7274 30.4636 70.1833 28.0571 73.7693C27.0182 75.3846 26.0754 77.0596 25.2336 78.7858C24.2655 81.0608 22.9995 83.1971 21.4689 85.1387C20.9512 85.7411 20.1512 85.2234 19.5865 84.1976C18.8501 82.998 18.6358 81.5495 18.9936 80.1881L19.6712 78.3811C19.9245 77.7915 20.2104 77.2165 20.5277 76.6587C21.1238 75.5168 21.7512 74.3968 22.4101 73.2987C23.7416 71.0768 25.2227 68.948 26.843 66.927C28.8195 64.5081 30.3536 61.6564 32.2736 59.1246C34.3955 56.3329 36.6573 53.6503 39.0501 51.087L41.3089 48.7717L43.6242 46.5128C44.8289 45.4023 46.0148 44.2823 47.2854 43.247C47.9348 42.7199 48.4901 42.2117 49.1677 41.6658C49.8454 41.1199 50.523 40.6399 51.1724 40.1599C52.1584 39.4444 53.1012 38.6713 53.996 37.8446C54.4289 37.4493 54.8336 37.0446 55.2101 36.6399C55.5865 36.2352 56.0007 35.8964 56.3489 35.5199C56.6971 35.1434 56.9136 34.8423 57.1959 34.5317C57.8309 33.5878 58.9499 33.0905 60.0759 33.2517C60.3771 33.2517 60.6877 33.2517 61.0171 33.2517C61.5092 33.3006 61.9224 33.6431 62.0618 34.1176C62.3108 34.8596 62.3108 35.6626 62.0618 36.4046C61.6487 37.7557 61.0125 39.0282 60.1795 40.1693C59.4387 41.2391 58.5408 42.191 57.5159 42.9928C55.6336 44.5834 53.8077 45.7411 52.4242 47.0023C49.9771 49.1293 47.4454 51.2281 45.1207 53.5905L44.923 53.4211Z" fill="black"/>
<path d="M59.3048 23.482C61.175 22.7267 62.998 21.8592 64.7637 20.8843C65.7048 20.3761 66.4672 19.7455 67.3143 19.1808C67.5537 19.0517 67.7806 18.9004 67.9919 18.729L68.679 18.0796L70.0437 16.7902C70.4672 16.4043 70.9848 15.849 71.5401 15.3408L73.1025 13.7878C73.6013 13.3078 74.1943 12.6867 74.759 12.1125L76.4625 10.3525L76.3495 10.9831C76.3495 11.1243 76.3495 11.1902 76.3495 11.2843V11.8396V12.6584C76.3572 12.7681 76.3572 12.8782 76.3495 12.9878L75.926 16.2443L75.0507 22.8325L74.2507 28.4231C74.0625 29.6843 73.8554 30.9361 73.5825 32.1878C72.6484 36.6328 71.3386 40.9904 69.6672 45.2137C68.8401 47.3465 67.8975 49.4327 66.8437 51.4631C65.8034 53.5254 64.5813 55.4909 63.1919 57.3361C60.7529 60.711 57.6888 63.5865 54.166 65.8067C51.8722 67.1902 49.3467 68.1468 46.7119 68.6302C44.0686 69.1364 41.3527 69.13 38.7119 68.6114C37.1119 68.3196 37.4695 67.6137 38.8343 66.9267C40.8125 66.0241 42.8783 65.3271 44.999 64.8467C49.445 63.9348 53.4538 61.5507 56.3778 58.0796C57.882 56.3221 59.2239 54.4321 60.3872 52.4325C61.6548 50.3673 62.7958 48.2268 63.8037 46.0231C65.0414 43.2707 66.0122 40.4058 66.7025 37.4678C67.4178 34.4843 68.1048 31.4537 68.6978 28.4231L69.4131 24.9125L69.6578 23.6796L69.7143 23.3502V23.1902V23.1431V23.1431V23.1902L69.5072 23.3596C69.4165 23.435 69.3344 23.5202 69.2625 23.6137C68.9331 23.802 68.4625 24.1596 67.9825 24.442C67.7472 24.5925 67.4837 24.7337 67.2201 24.8749L66.3731 25.3455C66.0625 25.5243 65.7425 25.6843 65.4319 25.8443C61.5113 27.7576 57.4528 29.3747 53.2907 30.682C50.2225 31.7078 47.1354 32.649 44.1613 33.7408C41.2419 34.7069 38.4871 36.1128 35.9919 37.9102C35.1222 38.585 34.3632 39.3916 33.7425 40.3008C33.1102 41.2569 32.5653 42.2681 32.1143 43.3219C31.2192 45.39 30.6845 47.5959 30.5331 49.8443C30.4719 50.819 30.4719 51.7966 30.5331 52.7714C30.5895 53.7125 30.6648 54.4372 30.7213 55.0772C30.7592 55.6162 30.7592 56.1571 30.7213 56.6961C30.7062 57.0913 30.63 57.4818 30.4954 57.8537C30.3293 58.1802 30.1406 58.4947 29.9307 58.7949C29.7519 59.0584 29.639 59.369 29.5166 59.5384C29.3943 59.7078 28.9707 59.6043 28.2178 59.0302C28.0484 58.8796 27.7566 58.729 27.6531 58.5031C27.5495 58.2772 27.3613 58.0325 27.2107 57.7502C26.8751 57.1061 26.6101 56.4277 26.4201 55.7267C25.2314 50.7499 25.8035 45.5151 28.039 40.9125C28.6073 39.7378 29.2748 38.6137 30.0343 37.5525C30.8684 36.3776 31.8668 35.3285 32.999 34.4372C35.0642 32.8203 37.3371 31.4876 39.7566 30.4749C43.1354 29.0161 46.486 27.9525 49.7613 26.8514C53.0366 25.7502 56.2366 24.6867 59.2766 23.3784L59.3048 23.482Z" fill="black"/>
</svg>
