<svg width="96" height="96" viewBox="0 0 96 96" fill="none" xmlns="http://www.w3.org/2000/svg">
<path d="M77.7579 37.1032C78.3508 36.915 78.9249 36.7173 79.4991 36.5103L79.7155 36.435C79.7908 36.435 79.772 36.435 79.8002 36.435H79.9038H80.092C80.3919 36.401 80.6164 36.1438 80.6097 35.842C80.5892 35.7274 80.5333 35.622 80.4497 35.5409L80.3179 35.3903C80.2414 35.3019 80.1722 35.2074 80.1108 35.1079C80.0486 35.0001 79.9794 34.8963 79.9038 34.7973L79.5555 34.3738C79.3297 34.0784 79.0877 33.7956 78.8308 33.5268C78.3132 32.9809 77.8144 32.3691 77.2402 31.8138C76.0609 30.6671 74.8029 29.6041 73.4755 28.6326C72.2662 27.7691 71.0093 26.9741 69.7108 26.2515C68.034 25.2447 66.4908 24.0304 65.1179 22.6373C64.7038 22.1762 64.9955 21.9126 65.692 21.7809C66.6475 21.5856 67.6343 21.6049 68.5814 21.8373L71.4049 22.7126C72.3125 23.0551 73.2015 23.4446 74.0685 23.8797C75.9028 24.7448 77.6331 25.8152 79.2261 27.0703C80.1673 27.8703 81.2873 28.5479 82.3038 29.4138C82.8214 29.8185 83.3297 30.2797 83.8285 30.7409L84.0167 30.9197L84.2426 31.155L84.6849 31.635C84.9987 31.9616 85.2881 32.3108 85.5508 32.6797C86.1902 33.5091 86.6284 34.4757 86.8308 35.5032C87.0034 36.5056 86.8655 37.5368 86.4355 38.4585C85.9729 39.3649 85.302 40.1487 84.4779 40.7456C84.0658 41.0503 83.6317 41.324 83.1791 41.5644L82.5391 41.9032L82.0591 42.1103C80.5256 42.8222 78.9546 43.4506 77.3532 43.9926C74.9908 44.8303 72.6473 45.5079 70.3791 46.4679C68.6873 47.197 67.0376 48.0202 65.4379 48.9338C65.0897 49.122 64.7602 49.3385 64.4026 49.4985C64.2505 49.5753 64.0933 49.6414 63.932 49.6962C63.7786 49.7091 63.6243 49.7091 63.4708 49.6962C63.2216 49.7081 62.9719 49.6891 62.7273 49.6397C62.2829 49.5426 61.877 49.3167 61.5602 48.9903C61.3856 48.8526 61.219 48.7049 61.0614 48.5479C60.6191 48.0585 60.8355 47.1738 61.5697 46.0162C61.8285 45.6194 62.1458 45.264 62.5108 44.962L63.5555 44.0209C64.2708 43.4373 65.0144 42.8726 65.7767 42.355C66.5391 41.8373 67.3014 41.3197 68.1014 40.8773C68.9014 40.435 69.7391 40.1338 70.5485 39.7856C72.9861 38.7785 75.3579 37.9032 77.6449 36.962L77.7579 37.1032Z" fill="black"/>
<path d="M13.419 65.0934C12.9014 64.6228 12.3837 64.1522 11.8755 63.6534L10.7649 62.571C10.3519 62.1477 9.97415 61.6912 9.6355 61.2063C8.30034 59.3803 8.09695 56.9614 9.10845 54.9381C9.49462 54.2275 9.96207 53.5642 10.5014 52.9616C10.812 52.6887 11.132 52.3781 11.4426 52.1428C11.7532 51.9075 12.0261 51.7287 12.3179 51.531C12.6096 51.3334 12.8826 51.1451 13.0802 51.0604L13.7202 50.7216C14.1437 50.4957 14.5767 50.3075 15.0096 50.1193C15.428 49.9173 15.8624 49.7504 16.3084 49.6204C16.7508 49.4698 17.1837 49.3287 17.6167 49.2157C19.3579 48.7075 21.0708 48.3216 22.7461 47.9357C24.2332 47.5875 25.6732 47.164 27.0755 46.7122C28.9108 46.2228 30.7084 45.771 32.5908 45.404C33.1837 45.3098 33.2873 45.6863 33.0237 46.3451C32.6473 47.2875 32.0149 48.1057 31.1979 48.7075C30.3414 49.2722 29.4661 49.8087 28.6002 50.3075C27.7265 50.7475 26.8313 51.1433 25.9179 51.4934C24.1296 52.2087 22.3602 52.8298 20.6002 53.3757C20.0777 53.5421 19.5681 53.7465 19.0755 53.9875C18.5955 54.2416 18.1343 54.5051 17.6543 54.7781C17.1743 55.051 16.7132 55.3522 16.3273 55.6534L16.1673 55.7663L16.0732 55.8416L15.8661 55.9922L15.5084 56.2369C15.0511 56.4502 14.7501 56.8998 14.7273 57.404C14.7651 57.6642 14.8688 57.9104 15.0284 58.1193C15.1041 58.2357 15.1891 58.3459 15.2826 58.4487L15.4708 58.6369L15.8284 58.9381C17.0237 59.8793 18.2473 60.9145 19.5179 61.8745C21.4567 63.3051 23.4426 64.7734 25.5602 66.0345C27.1602 67.0698 28.892 67.9169 30.5108 68.9522C30.8684 69.1969 31.2449 69.3851 31.5837 69.6581C31.7343 69.7898 31.8755 69.9028 31.9979 70.0251C32.0956 70.1566 32.1837 70.295 32.2614 70.4393C32.3926 70.6691 32.4908 70.9162 32.5532 71.1734C32.6447 71.6251 32.5988 72.0939 32.4214 72.5193C32.3534 72.7301 32.2748 72.9374 32.1861 73.1404C31.8849 73.7334 30.9814 73.8275 29.7108 73.6957C29.2728 73.6585 28.8437 73.5504 28.4402 73.3757L27.2355 72.9616C26.4261 72.6793 25.6261 72.3875 24.8261 72.0863C24.0261 71.7851 23.2073 71.4651 22.4167 71.1451C21.6261 70.8251 20.892 70.2981 20.1296 69.8463C18.9908 69.1781 17.852 68.4628 16.7132 67.7098C15.544 66.9618 14.4161 66.1512 13.3343 65.2816L13.419 65.0934Z" fill="black"/>
<path d="M34.8301 54.7974L43.8278 55.8797C44.9195 56.0021 46.0207 55.9738 47.1125 56.1244L52.8725 56.8962C54.7548 57.1597 56.7219 57.4044 58.6325 57.7527C60.336 58.0444 62.0584 58.195 63.7525 58.3927C64.8443 58.4962 65.9548 58.6091 67.0466 58.7785C67.6079 58.8424 68.1644 58.943 68.7125 59.0797L69.5313 59.315C69.8325 59.418 70.1279 59.5374 70.416 59.6727C71.1595 60.0209 70.7078 60.5479 69.9737 61.0562C69.1292 61.7229 68.0937 62.1021 67.0184 62.1385C64.8443 62.1385 62.6419 62.1385 60.4301 62.0256C59.3196 62.0256 58.2278 61.9127 57.1172 61.8374C56.0048 61.7349 54.8988 61.5715 53.8043 61.3479C51.0919 60.9917 48.3609 60.7969 45.6254 60.7644L36.609 60.0962L31.0654 59.7291C28.2419 59.5409 25.4184 59.2962 22.6607 59.3056C20.496 59.3056 18.3596 59.635 16.2231 59.8421C15.7525 59.8421 15.2819 59.955 14.8207 59.955C13.0701 59.955 12.5148 59.6068 12.129 58.2797C12.0285 57.9712 11.9468 57.6569 11.8843 57.3385C11.7054 56.3315 12.4301 55.4562 13.7666 55.1268C15.7025 54.596 17.691 54.2803 19.696 54.1856C21.7101 54.0538 23.7525 54.0538 25.7854 54.1009C28.816 54.1479 31.856 54.3456 34.8772 54.6185L34.8301 54.7974Z" fill="black"/>
<path d="M59.0195 36.1158C56.0924 35.4946 53.156 34.8828 50.2101 34.3463C49.1371 34.1393 48.0454 34.0922 46.9724 33.8852L41.3254 32.7934C39.443 32.4263 37.5607 32.1346 35.6783 31.7393C34.0056 31.4423 32.3186 31.2319 30.6242 31.1087C29.5418 31.0052 28.4689 30.9769 27.396 30.8922L25.8148 30.7605L25.0242 30.6569L24.3277 30.5911C23.763 30.5158 23.5842 29.904 24.083 29.1605C24.8192 28.2083 25.9157 27.6021 27.1136 27.4852C29.3688 27.3283 31.6307 27.2875 33.8901 27.3628C35.0101 27.4099 36.1395 27.4758 37.2595 27.6075C38.3817 27.7421 39.4944 27.9464 40.5913 28.2193C43.236 28.8311 46.0501 28.8969 48.7795 29.264C51.7818 29.6781 54.7654 30.1487 57.7583 30.6287L63.2736 31.5228C66.0971 31.984 68.836 32.5299 71.6218 32.8499C73.7771 33.104 75.9418 33.0475 78.1065 33.1511C78.5865 33.1511 79.0477 33.1511 79.5371 33.2358C81.2971 33.4899 81.796 33.9416 81.956 35.3063C82.0089 35.6178 82.0435 35.932 82.0595 36.2475C82.0595 37.2734 81.2124 37.9981 79.8854 38.1299C78.905 38.2554 77.9183 38.3245 76.9301 38.3369C75.9889 38.3369 74.9536 38.3369 73.956 38.2428C71.9607 38.1111 69.9654 37.8758 67.9513 37.6216C64.9771 37.2358 61.9936 36.7369 59.0289 36.1911L59.0195 36.1158Z" fill="black"/>
</svg>
