<svg width="96" height="96" viewBox="0 0 96 96" fill="none" xmlns="http://www.w3.org/2000/svg">
<path d="M36.4216 73.9692C43.6655 76.6944 51.5437 77.2632 59.1039 75.6068C60.9807 75.1904 62.8193 74.6174 64.6004 73.8939C66.3659 73.194 68.0665 72.3405 69.6828 71.3433C72.8639 69.3856 75.4428 66.7127 76.431 63.4845C76.8156 62.2937 76.9938 61.0459 76.9581 59.795C76.885 55.8314 75.3576 52.0329 72.6663 49.1221C69.289 45.6454 64.8595 43.3794 60.0639 42.675C55.1607 41.8445 50.1267 42.2786 45.4381 43.9362C43.2256 44.7349 41.2215 46.0216 39.5745 47.7009C38.8115 48.5358 38.1742 49.4775 37.6828 50.4962C37.1623 51.523 36.7824 52.6152 36.5533 53.7433C36.0782 55.8672 36.5152 58.0931 37.7581 59.8797C38.4312 60.7965 39.2332 61.6111 40.1392 62.2986C41.111 63.0014 42.1516 63.6037 43.2451 64.0962C47.3056 65.8386 51.7812 66.3776 56.1392 65.6492C58.2496 65.294 60.2683 64.523 62.0781 63.3809C63.7439 62.3613 64.9893 60.7786 65.5886 58.9197C65.8699 57.8727 65.7172 56.7564 65.1651 55.8233C64.5074 54.8078 63.6 53.9782 62.5298 53.4139C60.2008 52.1167 57.5482 51.5156 54.8875 51.6821C53.6397 51.7604 52.4248 52.114 51.3298 52.7174C50.3105 53.3023 49.4707 54.1551 48.9016 55.1833C48.762 55.432 48.6394 55.6898 48.5345 55.955C48.4592 56.1997 48.4028 56.4539 48.3275 56.6703C48.1725 57.112 48.1725 57.5933 48.3275 58.035C48.5349 58.5767 48.8558 59.0677 49.2686 59.475C49.7571 59.9316 50.29 60.3384 50.8592 60.6892C52.3745 61.6303 53.1181 62.0162 52.9957 62.1856C52.8733 62.355 51.951 62.308 50.3133 61.9692C49.2689 61.7501 48.2633 61.3757 47.3298 60.8586C47.0286 60.7174 46.7745 60.4633 46.3886 60.2656C46.0895 59.9702 45.8097 59.6558 45.551 59.3245C44.9346 58.5469 44.541 57.6165 44.4122 56.6327V56.2374C44.3086 56.0962 44.4122 55.9645 44.4122 55.8327C44.4122 55.7009 44.4686 55.3245 44.5063 55.0609C44.5871 54.5571 44.7163 54.0623 44.8922 53.5833C45.0654 53.1259 45.2665 52.6795 45.4945 52.2468C45.7581 51.8139 46.031 51.3621 46.3322 50.9292C47.7243 49.1815 49.6413 47.9277 51.8004 47.3527C53.6346 46.8325 55.5487 46.6538 57.4475 46.8256C59.2776 46.9938 61.0744 47.4217 62.7839 48.0962C64.6001 48.8036 66.2645 49.8514 67.6875 51.1833C68.4971 51.9709 69.1713 52.8867 69.6828 53.8939C70.2194 54.9559 70.5393 56.114 70.6239 57.3009C70.7169 59.5452 70.0541 61.7557 68.7416 63.5786C67.5631 65.1699 66.0823 66.5132 64.3839 67.5315C62.8177 68.5188 61.1148 69.2704 59.3298 69.7621C57.6377 70.2429 55.8993 70.5426 54.1439 70.6562C50.6837 70.8893 47.2101 70.4874 43.8945 69.4703C40.3776 68.4548 37.2026 66.5029 34.7086 63.8233C33.3696 62.3285 32.4022 60.5388 31.8851 58.5997C31.3983 56.6718 31.3758 54.6558 31.8192 52.7174C32.0196 51.8058 32.2934 50.9119 32.6381 50.0445C33.0023 49.2077 33.4107 48.3909 33.8616 47.5974C34.8136 46.0294 36.0153 44.6274 37.4192 43.4468C39.0635 42.1084 40.9007 41.0263 42.8686 40.2374C44.7684 39.4791 46.7389 38.9116 48.751 38.5433C52.741 37.7798 56.8333 37.7161 60.8451 38.355C64.9478 38.9574 68.8696 40.4477 72.3369 42.7221C74.0903 43.9212 75.6734 45.3523 77.0428 46.9762C78.4112 48.6152 79.4931 50.4735 80.2428 52.4727C81.0891 54.6428 81.5632 56.9401 81.6451 59.268C81.7591 61.669 81.3446 64.0658 80.431 66.2892C79.5033 68.4754 78.1463 70.4533 76.4404 72.1056C74.8104 73.6809 72.9854 75.041 71.0098 76.1527C67.1786 78.3319 63.0171 79.8706 58.6898 80.708C54.3989 81.5314 50.0113 81.7279 45.6639 81.2915C40.2984 80.7948 35.0779 79.274 30.2851 76.8115C25.3919 74.336 21.2393 70.612 18.2475 66.0162C16.0175 62.4984 14.6532 58.5021 14.2663 54.355C13.8769 50.2673 14.2568 46.1429 15.3863 42.195C16.5142 38.2658 18.3271 34.5667 20.7416 31.268C23.1368 28.0274 26.0122 25.171 29.2686 22.7974C34.2739 19.1272 39.979 16.5229 46.031 15.1456C49.0502 14.4361 52.1437 14.0917 55.2451 14.1197C58.3886 14.1112 61.518 14.5388 64.5439 15.3903C65.2183 15.5514 65.8817 15.7557 66.5298 16.0021C67.1886 16.2374 67.8475 16.435 68.4875 16.7174C69.7897 17.2454 71.0484 17.8748 72.2522 18.5997C72.8169 18.948 73.3816 19.2303 73.8616 19.5974L75.2451 20.6327C76.0487 21.2383 76.8068 21.9021 77.5133 22.6186C78.123 23.1876 78.6718 23.8184 79.151 24.5009C79.5676 25.0201 79.9571 25.5604 80.3181 26.1197C80.8242 26.9634 81.2587 27.8481 81.6169 28.7645C81.8165 29.4333 81.918 30.1276 81.9181 30.8256C81.9697 31.3577 81.9697 31.8935 81.9181 32.4256C81.7675 33.0374 80.9769 32.5762 79.8098 31.3245C78.064 29.457 76.2099 27.694 74.2569 26.0445L72.8451 24.8774L71.3392 23.8421C70.8344 23.4975 70.3096 23.1832 69.7675 22.9009C69.231 22.628 68.7228 22.2797 68.1581 22.0445C65.9418 20.998 63.6106 20.2146 61.2122 19.7103C58.7578 19.2562 56.2626 19.0606 53.7675 19.1268C51.2317 19.2387 48.7114 19.5821 46.2381 20.1527C36.4216 22.5339 27.2357 29.0092 22.6239 37.9315C20.8952 41.2186 19.8273 44.8126 19.4804 48.5103L19.3581 51.3339C19.3623 52.2462 19.4189 53.1575 19.5275 54.0633C19.6267 54.9616 19.7744 55.8538 19.9698 56.7362C20.2145 57.5927 20.431 58.468 20.7604 59.2962C22.0293 62.7007 24.1098 65.744 26.8216 68.1621C29.6508 70.6539 32.919 72.5976 36.4592 73.8939L36.4216 73.9692Z" fill="black"/>
</svg>
