<svg width="96" height="96" viewBox="0 0 96 96" fill="none" xmlns="http://www.w3.org/2000/svg">
<path d="M46.8068 45.5152C44.1998 48.4517 41.6868 51.5199 39.2774 54.6917C38.3363 55.8305 37.6304 57.0823 36.7174 58.2211C33.5363 62.2681 30.4304 66.4187 27.541 70.7105C26.2139 72.5929 25.028 74.5787 23.861 76.5364C23.108 77.7881 22.4304 79.0964 21.6021 80.3011C20.7739 81.5058 19.8327 82.6823 18.8633 83.8211C18.2421 84.527 17.9692 84.2164 17.9221 83.2752C17.8055 81.8506 17.9425 80.4166 18.3268 79.0399C18.4492 78.6823 18.5527 78.3058 18.6939 77.9576L19.1268 76.9505L20.068 74.8987C20.708 73.534 21.3574 72.1787 22.0445 70.8329C23.4026 68.1257 24.9763 65.5323 26.7504 63.0776C28.8774 60.1129 30.5151 56.6964 32.5857 53.5529C33.6868 51.8117 34.8821 50.1364 36.1245 48.4893C37.3668 46.8423 38.6186 45.2046 39.8892 43.5952C41.4829 41.6125 43.1237 39.6611 44.8115 37.7411C47.3433 34.8234 50.0915 32.094 52.8304 29.3458C54.9214 27.1436 57.1401 25.0662 59.4751 23.1246C59.9848 22.6682 60.551 22.2791 61.1598 21.967C63.5221 20.8846 64.5574 21.0917 65.5739 22.1081C65.8159 22.3245 66.0394 22.5606 66.2421 22.814C66.8351 23.6517 66.3268 24.8658 65.2257 26.1458C64.821 26.6446 64.4257 27.087 64.0398 27.614C63.648 28.0886 63.2234 28.5352 62.7692 28.9505C61.9127 29.8352 61.0468 30.6823 60.1904 31.5952C59.3339 32.5081 58.5151 33.4776 57.5739 34.2964L56.2092 35.614L54.8445 36.9881C52.1527 39.7081 49.461 42.5787 46.948 45.6281L46.8068 45.5152Z" fill="black"/>
<path d="M72.398 23.7638C72.5038 21.7831 72.1829 19.8027 71.4568 17.9568C71.1968 17.3632 70.7681 16.8591 70.2238 16.5073C70.0732 16.5073 69.9697 16.3756 69.7815 16.3097L69.0944 16.1403C68.5912 16.0423 68.0817 15.9794 67.5697 15.9521C65.9249 15.9328 64.2822 16.0778 62.6662 16.385C59.6082 16.8896 56.5983 17.6515 53.6685 18.6626C50.6728 19.6746 47.7322 20.8432 44.8591 22.1638C42.3085 23.3591 39.7862 24.6579 37.3297 26.0038C35.758 26.8791 34.205 27.7921 32.6238 28.7238C31.0427 29.6556 29.5274 30.6062 28.0968 31.6132C27.2403 32.2626 27.1556 32.0273 27.6262 31.1144C28.5141 29.6873 29.6301 28.4155 30.9297 27.3497C33.8588 24.9841 36.9296 22.7997 40.125 20.8085C43.4379 18.9381 46.8859 17.3179 50.4403 15.9615C52.5674 15.1521 54.7227 14.2862 56.9532 13.505C59.2076 12.6711 61.5322 12.0411 63.8991 11.6226C65.2615 11.3971 66.6405 11.2869 68.0215 11.2932C69.5916 11.2895 71.1456 11.6099 72.5862 12.2344C72.9721 12.4603 73.3674 12.6673 73.7156 12.9215C74.0638 13.1756 74.3744 13.4862 74.6568 13.7779C74.9391 14.0697 75.1838 14.4179 75.4379 14.7191C75.664 15.0427 75.8714 15.3789 76.0591 15.7262C76.7475 17.0193 77.2362 18.4091 77.5085 19.8485C78.0829 23.0821 78.197 26.3807 77.8474 29.6462C77.359 34.4043 76.535 39.1219 75.3815 43.7638C74.666 47.3794 73.7485 50.9521 72.6332 54.465C72.3697 55.2462 72.1344 56.0273 71.7862 56.8085C71.3872 57.8835 70.7427 58.8503 69.9038 59.6321C69.2867 60.1028 68.4789 60.2433 67.7391 60.0085C67.3681 59.9357 67.0054 59.8254 66.6568 59.6791C66.12 59.3888 65.7661 58.8472 65.7156 58.2391C65.6434 57.4522 65.743 56.6591 66.0074 55.9144C66.8638 53.0909 67.6074 50.0697 68.3415 47.0015C69.0756 43.9332 69.9603 40.8179 70.6003 37.6744C71.6909 33.1208 72.2468 28.4556 72.2568 23.7732L72.398 23.7638Z" fill="black"/>
</svg>
