<svg width="96" height="96" viewBox="0 0 96 96" fill="none" xmlns="http://www.w3.org/2000/svg">
<path d="M38.6663 42.0044C42.0451 42.0044 45.6874 41.4962 49.5463 41.2797C51.533 41.1434 53.5266 41.1434 55.5133 41.2797C56.5456 41.3558 57.573 41.4878 58.591 41.675L59.3627 41.8162C59.6357 41.8915 59.9086 41.948 60.1816 42.0327C60.721 42.1754 61.252 42.3482 61.7721 42.5503C64.8339 43.6489 67.5336 45.5703 69.5745 48.1033C70.487 49.3044 71.1843 50.6545 71.6357 52.0938C72.1038 53.587 72.2325 55.1658 72.0121 56.715C71.9027 57.4744 71.7198 58.2215 71.4663 58.9456C71.1923 59.6226 70.878 60.2826 70.5251 60.9221C69.8153 62.1097 68.9478 63.1957 67.9463 64.1503C66.0503 65.9243 63.8754 67.3743 61.5086 68.4421C59.2517 69.4904 56.8967 70.3132 54.478 70.8985C50.2553 71.9046 45.9245 72.3851 41.5839 72.3291C36.1008 72.3097 30.6611 71.3549 25.4992 69.5056C23.9463 68.7715 24.2474 68.5644 25.7627 68.3385C28.149 68.0505 30.5586 68.0095 32.9533 68.2162C34.2804 68.3291 35.6074 68.395 36.9251 68.4233C38.2427 68.4515 39.551 68.5268 40.8592 68.5174C43.4532 68.5256 46.0436 68.3242 48.6051 67.915C51.1356 67.5148 53.6243 66.8847 56.0404 66.0327C58.4069 65.2079 60.6587 64.0851 62.7416 62.6915C63.9049 61.8902 64.9207 60.8935 65.7439 59.7456C66.5116 58.7233 66.9925 57.5147 67.1369 56.2444C67.3533 53.9009 65.8098 51.5385 63.5886 49.8538C62.3611 48.9116 60.9744 48.1976 59.4945 47.7456C59.1369 47.6233 58.7604 47.5762 58.3933 47.4633C58.0263 47.3503 57.5839 47.3221 57.1792 47.2468C56.343 47.1251 55.5011 47.0466 54.6569 47.0115C51.0603 46.9669 47.4651 47.1807 43.8992 47.6515C41.5394 47.9066 39.1667 48.0229 36.7933 47.9997C35.5558 47.9673 34.321 47.8667 33.0945 47.6985C31.718 47.4835 30.3936 47.0143 29.1886 46.315C27.1226 45.1942 25.6532 43.2223 25.1698 40.9221C24.7922 38.7056 25.2954 36.4293 26.5722 34.5785C27.1159 33.7666 27.7267 33.0016 28.398 32.2915C29.0407 31.6124 29.7193 30.9684 30.431 30.3621C31.1325 29.7661 31.8645 29.2069 32.6239 28.6868C33.0004 28.4233 33.3769 28.1503 33.7627 27.9056L34.9298 27.2091C39.7708 24.2972 45.2091 22.5209 50.8357 22.0138C52.0869 21.8957 53.3444 21.858 54.6004 21.9009C55.5969 21.9815 56.5872 22.1261 57.5651 22.3338C58.2132 22.5098 58.8434 22.7461 59.4474 23.0397C60.3133 23.4233 60.9551 24.1831 61.1886 25.1009C61.3141 25.4767 61.3993 25.8647 61.4427 26.2585C61.4427 26.8609 60.9251 27.2562 60.0969 27.4444C59.6074 27.5418 59.1088 27.586 58.6098 27.5762C57.9645 27.6268 57.3163 27.6268 56.671 27.5762C54.5221 27.4947 52.3703 27.6113 50.2427 27.9244C48.0965 28.2798 45.984 28.815 43.9274 29.5244C41.8877 30.2772 39.9243 31.2226 38.0639 32.348C36.2489 33.3947 34.5943 34.6975 33.151 36.2162C32.8874 36.4703 32.6992 36.7715 32.4545 37.0444L32.1157 37.4585L31.8804 37.7974C31.6133 38.1553 31.4095 38.5564 31.278 38.9833C31.1835 39.2355 31.1576 39.5083 31.2027 39.7738C31.2317 40.0178 31.3333 40.2473 31.4945 40.4327C31.7449 40.7253 32.0482 40.9679 32.3886 41.148C32.8568 41.3851 33.3582 41.5501 33.8757 41.6374C34.2364 41.7068 34.601 41.754 34.9674 41.7785C35.3533 41.835 35.758 41.8538 36.1627 41.8727C36.9722 41.9291 37.8098 41.8727 38.6569 41.8727L38.6663 42.0044Z" fill="black"/>
<path d="M40.9154 56.8175C40.4448 52.9963 39.8707 49.1751 39.2683 45.3633C39.0519 43.9704 38.6848 42.6057 38.4589 41.2128C37.7154 36.2998 36.8872 31.3869 35.8707 26.5116C35.4001 24.3657 34.9295 22.201 34.2707 20.1116C33.8942 18.7563 33.4425 17.4292 33.0472 16.0834C32.6519 14.7375 32.2942 13.401 32.0495 12.0081C31.8989 11.1328 32.6989 10.9445 33.7436 11.3586C35.1085 11.9187 36.2043 12.9842 36.8025 14.3328C37.9319 17.0622 38.9295 19.8104 39.7766 22.6057C40.5691 25.4277 41.1603 28.3024 41.546 31.2081C41.8044 32.9705 42.1594 34.7175 42.6095 36.441C43.0142 38.1916 43.466 39.9422 43.833 41.6928C44.2001 43.5751 44.586 45.561 44.906 47.4998L45.8472 53.3351L46.873 60.5351C47.1366 62.3516 47.3813 64.1775 47.5883 66.0033C47.7954 67.8292 48.0495 69.6457 48.2848 71.4622C48.4919 72.8645 48.7648 74.2857 49.0001 75.6504C49.2819 77.0442 49.4924 78.4516 49.6307 79.8669C49.6307 80.4975 49.7436 81.1092 49.753 81.7492C49.784 82.6193 49.6166 83.4851 49.2636 84.281C48.9999 84.7843 48.5511 85.1656 48.0119 85.3445C47.762 85.4578 47.504 85.5522 47.2401 85.6269C46.4025 85.7963 45.6683 84.8269 45.1789 83.2363C43.5883 78.5304 43.1554 73.4763 42.4213 68.3469C41.8942 64.5822 41.4236 60.6857 40.8025 56.8457L40.9154 56.8175Z" fill="black"/>
<path d="M54.9957 37.3641C55.0773 41.0347 55.2498 44.7084 55.5133 48.3852C55.598 49.7217 55.8804 51.0394 55.9745 52.3758C56.1345 54.7382 56.3886 57.0817 56.5769 59.4629C56.7651 61.8441 56.9816 64.1688 57.311 66.5405C57.6009 68.6205 57.9967 70.6844 58.4969 72.7241C58.7886 74.0229 59.2028 75.2935 59.5133 76.5923C59.8153 77.8989 60.0416 79.2219 60.191 80.5547C60.2663 81.3923 59.5133 81.4958 58.5251 81.0817C57.2321 80.4843 56.2038 79.4325 55.6357 78.1264C53.8918 72.7744 52.7769 67.2375 52.3133 61.6276C52.1439 59.9523 51.9745 58.2582 51.711 56.5547C51.4475 54.8511 51.2122 53.157 51.0239 51.4629C50.638 47.6982 50.3839 43.9335 50.1769 40.1688C50.0922 39.0111 50.0733 37.8441 50.0263 36.6864C49.9792 35.5288 49.8945 34.39 49.8945 33.2323C49.8286 29.7217 49.8945 26.1923 49.8945 22.6911C49.8945 21.3358 49.8945 19.99 49.8945 18.6347C49.8945 17.2794 49.8945 15.9429 49.9886 14.5688C49.9886 13.9758 50.0357 13.3829 50.1016 12.7805C50.4404 10.5311 50.9016 9.84407 51.8898 9.58054C52.1147 9.50858 52.3443 9.45198 52.5769 9.41113C53.311 9.41113 53.7533 10.3523 53.7816 11.9053C53.8663 14.2205 54.0169 16.6111 54.1863 19.0017C54.2333 20.197 54.3839 21.4205 54.4498 22.6441V24.5264L54.5439 26.4088C54.6569 30.0605 54.958 33.75 55.0898 37.4394L54.9957 37.3641Z" fill="black"/>
</svg>
