<svg width="96" height="96" viewBox="0 0 96 96" fill="none" xmlns="http://www.w3.org/2000/svg">
<path d="M68.6597 60.907C70.0621 57.9046 71.4174 54.8364 72.6974 51.7493C73.1586 50.6199 73.488 49.4434 73.9492 48.314C75.6056 44.3328 77.2621 40.3517 78.7303 36.2952C79.408 34.507 79.8503 32.634 80.4056 30.8364C80.7162 29.6693 81.0362 28.4928 81.3468 27.3258C81.5068 26.7423 81.6856 26.1681 81.8739 25.594C82.1068 25.026 82.3805 24.4756 82.6927 23.947C83.0786 23.2787 83.6339 23.4481 84.2833 24.2387C84.6931 24.7399 85.0496 25.2824 85.3468 25.8576C85.6276 26.5159 85.7189 27.2395 85.6103 27.947C85.4127 29.2176 85.1774 30.4693 84.9139 31.7117C84.7821 32.3423 84.6503 32.954 84.4903 33.594L83.8974 35.4011C83.0854 37.8098 82.1428 40.1725 81.0739 42.4787C79.8033 45.2458 79.0221 48.3046 77.9303 51.2128C76.735 54.4034 75.455 57.5658 74.1656 60.7093C73.3468 62.6481 72.4903 64.5776 71.615 66.507C71.1162 67.6176 70.5892 68.7187 70.0056 69.8293C69.7233 70.3752 69.4096 70.9305 69.0645 71.4952C68.8856 71.7776 68.735 72.0505 68.4997 72.3611C68.2536 72.7056 67.9694 73.0213 67.6527 73.3023C66.997 73.8329 66.3051 74.3172 65.5821 74.7517C63.3155 76.4523 60.724 77.6695 57.968 78.3281C57.6584 78.4037 57.3439 78.4572 57.0268 78.4881C56.7157 78.5379 56.4004 78.5568 56.0856 78.5446C55.204 78.6137 54.3283 78.352 53.6292 77.8105C53.1519 77.2269 52.9619 76.4599 53.1115 75.7211C53.1234 75.2797 53.1643 74.8395 53.2339 74.4034C53.4602 73.1173 54.4624 72.1076 55.7468 71.8717C56.5468 71.7776 57.2903 71.5328 58.0056 71.4576C58.7209 71.3823 59.4456 71.3164 60.1703 71.1846C60.9257 71.0507 61.671 70.8652 62.4009 70.6293C62.7815 70.5104 63.1383 70.3257 63.455 70.0834L63.9539 69.7446L64.1892 69.5564L64.3115 69.4623C64.3115 69.4623 64.3115 69.4623 64.368 69.4623C64.4245 69.4623 64.3209 69.5187 64.4245 69.3587C64.8008 68.7863 65.1433 68.1923 65.4503 67.5799C65.8174 66.9023 66.175 66.1776 66.5327 65.4434C67.2386 63.9752 67.935 62.4599 68.5939 60.9258L68.6597 60.907Z" fill="black"/>
<path d="M18.7022 49.574C20.1234 46.374 21.5916 43.2022 23.1539 40.0681C23.7092 38.9199 24.1892 37.7246 24.7916 36.5952C25.8269 34.5905 26.9563 32.614 28.161 30.6564C28.4716 30.1764 28.801 29.7152 29.1022 29.2069L29.5916 28.4822L30.1469 27.7669C30.5154 27.2605 30.9213 26.7823 31.361 26.3364L32.0669 25.6211C32.3587 25.3952 32.6787 25.1693 33.0081 24.9622C35.0792 23.9286 37.3774 23.4333 39.6904 23.5222C42.4979 23.3411 45.2705 24.225 47.4551 25.9975C48.1986 26.7316 47.5681 27.0422 46.6928 27.3905C45.5858 27.9245 44.411 28.3045 43.201 28.5199L42.3445 28.5858C42.0677 28.6369 41.7838 28.6369 41.5069 28.5858C40.961 28.5293 40.4151 28.4728 39.8786 28.4634C38.8813 28.4081 37.8809 28.4618 36.8951 28.6234C36.6909 28.6498 36.4894 28.6939 36.2928 28.7552C36.1045 28.8116 35.9163 28.8399 35.7845 28.8964L35.5586 28.9622L35.3986 29.0281C35.3045 29.0281 35.1257 29.2069 34.9563 29.3387C34.7869 29.4705 34.6081 29.6022 34.4198 29.7811L33.8457 30.4022C33.4173 30.8328 33.0151 31.2885 32.641 31.7669C32.1525 32.3318 31.7118 32.9362 31.3234 33.574C30.9187 34.2234 30.5139 34.8728 30.1657 35.5693C29.4504 36.9152 28.7634 38.3364 28.0857 39.7387C26.5892 42.8164 25.1022 45.9316 23.7469 49.1505C22.8904 51.0328 22.0716 53.0187 21.3469 55.0046C20.1892 58.0069 19.0034 61.0281 18.1187 64.0964C17.4973 66.4776 17.004 68.8905 16.641 71.3246C16.5469 71.8516 16.4904 72.3787 16.3775 72.9058C16.3034 73.3205 16.1996 73.7294 16.0669 74.1293C15.9393 74.4112 15.7642 74.6691 15.5492 74.8916C15.166 75.2662 14.6625 75.4929 14.1281 75.5316C13.8608 75.5858 13.5905 75.6235 13.3187 75.6446C12.4716 75.6446 11.9163 74.7034 11.7939 73.0752C12.2174 68.4088 13.2489 63.8178 14.8622 59.4187C15.9916 56.0869 17.2998 52.8305 18.6269 49.5364L18.7022 49.574Z" fill="black"/>
<path d="M14.8158 57.78C16.6982 52.7353 18.7217 47.7565 20.5664 42.7212C21.2346 40.8953 21.6958 39.0129 22.3546 37.1871C23.1076 35.1071 23.8417 33.0176 24.5193 30.9376C24.8582 29.9024 25.1782 28.8576 25.4135 27.8129L25.7617 26.2694V26.0718C25.7617 26.0153 25.7617 25.9494 25.8088 25.8082C25.8262 25.5806 25.8577 25.3543 25.9029 25.1306C25.9456 24.9036 25.9739 24.6741 25.9876 24.4435V23.7376C26.0665 22.8367 26.3056 21.957 26.6935 21.14C26.8373 20.8113 27.0106 20.4963 27.2111 20.1988C27.4764 19.8743 27.8292 19.6326 28.2276 19.5024C29.012 19.2411 29.8413 19.1419 30.6652 19.2106C31.0888 19.2106 31.5593 19.3047 32.0111 19.3518C32.4629 19.3988 32.9523 19.6624 33.4041 19.8506C34.5523 20.3588 35.7288 20.6694 36.3311 20.8953L38.5146 21.6012C39.9641 22.0435 41.4041 22.4388 42.8252 22.7776C44.6605 23.2294 46.5052 23.4082 48.2841 23.7188C50.0178 24.0157 51.7788 24.123 53.5358 24.0388C54.5617 23.9447 54.9005 24.7259 54.1664 26.0435C53.6559 26.8585 52.9672 27.5471 52.1523 28.0576C51.1254 28.7666 49.9447 29.2214 48.7076 29.3847C47.6292 29.4985 46.5439 29.5331 45.4605 29.4882C44.4064 29.3941 43.3617 29.2718 42.3546 29.1118C40.3123 28.8012 38.3546 28.3588 36.4629 27.8788L35.0605 27.5024L34.3641 27.3235L34.0252 27.2294L33.7617 27.1541L33.6488 27.0788L33.5829 27.0129C33.5396 26.959 33.4889 26.9115 33.4323 26.8718C33.2931 26.7367 33.1156 26.648 32.9241 26.6176C32.7947 26.6989 32.6853 26.8083 32.6041 26.9376C32.5414 26.9882 32.4874 27.0486 32.4441 27.1165V27.1635C32.4441 27.1635 32.4441 27.1635 32.397 27.2671L32.237 27.7376L31.9264 28.6788C31.7288 29.2812 31.5217 29.8929 31.3146 30.5047C30.9758 31.7188 30.6276 32.9329 30.2793 34.1565C29.6017 36.5847 28.9146 39.0035 28.1052 41.3471C26.3264 46.5141 24.3876 51.5871 22.4582 56.6506C21.2911 59.7753 20.1146 62.8812 19.0323 66.0059C18.2229 68.3682 17.4041 70.7118 16.7358 73.0929L16.5382 73.8082L16.397 74.3259C16.3144 74.6766 16.2516 75.0317 16.2088 75.3894C16.1806 75.5671 16.1806 75.7482 16.2088 75.9259C16.2392 76.1079 16.3916 76.2446 16.5758 76.2553C16.9292 76.3259 17.2884 76.3637 17.6488 76.3682H18.5241H19.4652L22.3923 76.2647C24.4061 76.1619 26.4245 76.1902 28.4346 76.3494C29.3858 76.4078 30.3303 76.5463 31.2582 76.7635C32.0629 76.9713 32.8356 77.2879 33.5546 77.7047C33.8532 77.879 34.1256 78.0944 34.3641 78.3447C34.5838 78.5484 34.7767 78.7793 34.9382 79.0318C35.5011 79.7464 35.5826 80.7282 35.1452 81.5259C34.9832 81.8439 34.7702 82.1332 34.5146 82.3824C34.0526 82.6354 33.5197 82.7281 32.9993 82.6459C32.3707 82.6592 31.7419 82.6309 31.117 82.5612C29.7244 82.2585 28.3063 82.0884 26.8817 82.0529C25.3005 81.9871 23.6346 81.9776 21.9029 81.9776H19.2393H18.1099H16.8017C16.3251 81.9569 15.8478 81.9948 15.3805 82.0906C14.9292 82.1652 14.4672 82.1427 14.0252 82.0247C13.5923 81.9682 13.2064 81.8647 12.7923 81.7894C12.3782 81.7141 12.1523 81.4412 11.8511 81.3C11.5035 81.1301 11.2077 80.8701 10.9946 80.5471C10.89 80.4407 10.7925 80.3275 10.7029 80.2082L10.6276 80.1047V80.1047C10.7029 80.0388 10.6276 80.1047 10.6276 80.0482V79.9918L10.4299 79.7753C10.2087 79.4758 10.0459 79.1374 9.94993 78.7776C9.88405 78.5988 9.79935 78.4388 9.75229 78.26L9.67699 77.6859C9.52679 77.2875 9.43794 76.8686 9.41346 76.4435C9.41346 76.0294 9.41346 75.6059 9.41346 75.1824C9.40139 74.8652 9.43628 74.5481 9.51699 74.2412C9.57346 73.9149 9.63935 73.6012 9.71464 73.3C9.8464 72.6788 10.0535 71.86 10.1099 71.6341C10.2982 70.9282 10.4958 70.2318 10.6935 69.5541C11.0982 68.1988 11.5311 66.8718 11.9735 65.5635C12.8582 62.9376 13.7805 60.3682 14.6841 57.7988L14.8158 57.78Z" fill="black"/>
<path d="M69.4694 59.654C71.5024 54.3646 73.46 49.0376 75.2577 43.654C75.9165 41.6964 76.3306 39.6729 77.0083 37.7246C78.1659 34.2893 79.3047 30.8352 80.2177 27.3717C80.453 26.5152 80.6694 25.6587 80.8483 24.8117C80.9424 24.3882 81.0271 23.974 81.1024 23.5599L81.2247 22.9011C81.335 22.5057 81.2843 22.0827 81.0836 21.7246C80.7813 21.4391 80.3881 21.2692 79.973 21.2446C79.7827 21.2156 79.5911 21.1967 79.3989 21.1882H78.3165C77.5353 21.1882 76.7259 21.1882 75.9071 21.254C74.26 21.3105 72.5753 21.3858 70.853 21.3387C68.5532 21.357 66.2643 21.0205 64.0671 20.3411C62.9329 19.9332 61.8595 19.3727 60.8765 18.6752C59.8866 17.9554 59.0218 17.0778 58.3165 16.0776C57.4789 14.7787 58.6741 14.3176 60.2741 14.1952C61.0741 14.1482 62.0059 14.1199 62.8906 14.1293C63.77 14.0861 64.651 14.1685 65.5071 14.374C67.1602 14.8195 68.8594 15.0722 70.5706 15.127C72.453 15.2023 74.3918 15.127 76.5377 15.0517H78.1941C78.7965 15.0517 79.1353 15.0517 80.3871 15.0987C82.3294 15.0597 84.2195 15.7288 85.7047 16.9811C88.6318 19.3999 87.1824 24.9058 86.853 26.2987C86.2036 28.9434 85.6012 31.5317 84.9706 34.1387C84.34 36.7458 83.7847 39.3434 83.0883 41.8846C81.3942 47.4093 79.54 52.9152 77.6294 58.3646C76.453 61.7246 75.22 65.0752 73.9965 68.4164C73.2624 70.4399 72.4906 72.454 71.6812 74.4776L70.9753 76.247C70.6836 76.9623 70.3824 77.6587 70.0341 78.3458C69.7382 78.9887 69.3687 79.5951 68.933 80.1529L68.2647 80.8117C68.0542 81.0653 67.7469 81.2189 67.4177 81.2352C66.7589 81.1693 66.1 81.0658 65.413 80.9811C64.7259 80.8964 63.9636 80.5293 63.2294 80.2752C62.8718 80.1623 62.533 80.0399 62.1565 79.9364L61.413 79.7481C60.9424 79.6352 60.4718 79.5411 60.0012 79.447C59.0671 79.2977 58.1235 79.2159 57.1777 79.2023C55.2483 79.2023 53.3659 79.2023 51.4647 79.3999C50.6271 79.3999 49.8083 79.654 48.9706 79.6917C47.8548 79.8985 46.7057 79.8339 45.62 79.5034C44.8017 79.0602 44.1727 78.3342 43.8506 77.4611C43.6061 77.0122 43.3862 76.5503 43.1918 76.0776C42.922 75.2999 43.0909 74.4372 43.6341 73.8187C44.3525 72.9426 45.3487 72.3382 46.4577 72.1058C48.2184 71.6369 50.0165 71.322 51.8318 71.1646C52.773 71.0987 53.7141 71.0234 54.6553 71.0423H56.0859L57.5071 71.2117C59.3894 71.4846 61.2718 71.9458 63.22 72.407C63.4553 72.4634 63.6906 72.5387 63.9259 72.6046C64.0698 72.6573 64.2177 72.6983 64.3683 72.727V72.727V72.727C64.3683 72.727 64.3683 72.7929 64.4341 72.567L64.82 71.6258L66.3541 67.6917C67.3612 65.0376 68.3589 62.3646 69.3094 59.6729L69.4694 59.654Z" fill="black"/>
</svg>
