<svg width="173" height="150" viewBox="0 0 173 150" fill="none" xmlns="http://www.w3.org/2000/svg">
<g id="vectorly-UNI-bubble-chat-dotted" clip-path="url(#clip0_615_10495)">
<g id="vectorly-UNI-bubble-chat-dotted_2">
<path id="ellipse182" d="M49.0285 73.5469C52.7687 73.5469 55.8007 70.6783 55.8007 67.1397C55.8007 63.6011 52.7687 60.7324 49.0285 60.7324C45.2883 60.7324 42.2562 63.6011 42.2562 67.1397C42.2562 70.6783 45.2883 73.5469 49.0285 73.5469Z" fill="black"/>
<path id="ellipse184" d="M87.6227 73.0743C91.3629 73.0743 94.3949 70.2057 94.3949 66.667C94.3949 63.1284 91.3629 60.2598 87.6227 60.2598C83.8825 60.2598 80.8505 63.1284 80.8505 66.667C80.8505 70.2057 83.8825 73.0743 87.6227 73.0743Z" fill="black"/>
<path id="ellipse186" d="M123.67 73.0743C127.41 73.0743 130.442 70.2057 130.442 66.667C130.442 63.1284 127.41 60.2598 123.67 60.2598C119.93 60.2598 116.898 63.1284 116.898 66.667C116.898 70.2057 119.93 73.0743 123.67 73.0743Z" fill="black"/>
<path id="path236" fill-rule="evenodd" clip-rule="evenodd" d="M41.7828 113.585C41.6821 113.507 41.4293 113.315 41.2214 113.204C40.1664 112.634 38.543 112.141 36.5629 111.545C29.3027 109.371 17.6767 106.145 9.4848 96.5965C4.69079 91.0102 1.0505 83.2696 0.144954 72.3032C-1.43407 52.837 9.98287 34.0584 29.7289 20.5109C41.337 12.5468 55.8249 6.38464 72.1313 2.97268C86.2519 0.0190925 101.743 -0.851801 117.9 0.895716C161.277 5.66844 180.554 40.8021 170.222 70.401C162.114 93.6315 135.553 113.679 87.5385 112.152C86.9823 112.138 86.5424 111.677 86.5562 111.124C86.5703 110.568 87.0332 110.13 87.5894 110.144C133.927 111.004 159.527 91.8382 167.087 69.3353C176.399 41.6214 157.948 9.19211 117.451 5.14704C101.771 3.54849 86.7624 4.51964 73.076 7.42453C57.4105 10.7477 43.486 16.6291 32.3003 24.2466C13.9314 36.7542 2.93434 53.9113 4.28015 71.9824C5.00568 81.9203 8.18012 88.9791 12.4683 94.0813C21.5732 104.919 35.5 107.087 41.3298 109.416C42.636 109.938 43.61 110.496 44.2061 111.081C44.8689 111.728 45.1956 112.442 45.2364 113.207C45.5016 118.134 43.6361 123.861 40.9419 129.298C37.6711 135.901 33.2242 142.086 30.325 145.822C35.5026 143.911 41.9912 140.313 48.5477 136.194C62.2459 127.585 76.1998 116.653 79.1962 113.378C79.568 112.966 80.2056 112.932 80.6197 113.301C81.0335 113.671 81.068 114.307 80.6962 114.719C77.7038 118.091 63.7252 129.427 49.9447 138.365C41.094 144.103 32.3066 148.827 26.5199 149.956C25.9051 150.073 25.284 149.79 24.9705 149.251C24.6574 148.71 24.72 148.031 25.1272 147.558C25.1272 147.558 33.0502 138.225 38.0082 127.88C40.3317 123.033 42.024 117.965 41.7828 113.585Z" fill="black"/>
</g>
</g>
<defs>
<clipPath id="clip0_615_10495">
<rect width="173" height="150" fill="white"/>
</clipPath>
</defs>
</svg>
