<svg width="155" height="79" viewBox="0 0 155 79" fill="none" xmlns="http://www.w3.org/2000/svg">
<g id="vectorly-UNI-cloud" clip-path="url(#clip0_615_10541)">
<g id="vectorly-UNI-cloud_2">
<path id="path1676" fill-rule="evenodd" clip-rule="evenodd" d="M124.819 75.3677C125.372 75.3648 125.824 75.8151 125.827 76.3687C125.83 76.9252 125.38 77.3756 124.827 77.3785C124.827 77.3785 106.4 77.9035 84.4278 78.351C75.6955 78.5288 66.4076 78.6951 57.4949 78.8013C49.4785 78.8988 41.7715 78.9619 35.0468 78.959C23.5078 78.9561 14.8699 78.8041 12.553 78.7353C6.44977 78.5144 1.09414 72.4131 0.15188 65.0639C-0.587033 59.2952 1.29177 52.8581 7.51809 48.541C13.3435 44.5135 18.47 44.4848 22.6371 46.074C29.6768 48.7589 33.8955 56.2171 33.8955 56.2171C34.1761 56.6962 34.0158 57.313 33.5375 57.5941C33.0592 57.8753 32.4463 57.7146 32.1656 57.2356C32.1656 57.2356 28.156 50.6779 21.7607 48.5208C18.2666 47.3389 14.0423 47.5856 9.35103 51.0967C4.47649 54.7312 3.10464 59.9205 3.84355 64.5332C4.68557 69.8113 8.2398 74.4841 12.6446 74.5214C14.953 74.5558 23.5536 74.4181 35.0411 74.3837C41.7629 74.3608 49.4699 74.3894 57.4834 74.4382C66.3961 74.4956 75.6841 74.5989 84.4164 74.7165C106.389 75.0062 124.819 75.3677 124.819 75.3677Z" fill="black"/>
<path id="path1682" fill-rule="evenodd" clip-rule="evenodd" d="M27.8667 49.7225C27.9641 50.2704 27.6033 50.7924 27.0562 50.8928C26.5121 50.9932 25.9909 50.6289 25.8906 50.0839C22.9379 35.8358 25.902 24.5078 32.0195 16.2435C35.127 12.0468 39.0678 8.64476 43.4899 6.05735C49.8021 2.36552 57.111 0.314501 64.4028 0.0333827C71.8807 -0.253473 79.3471 1.30993 85.6995 4.66327C98.8882 11.6252 107.555 26.2922 101.809 48.7673C101.683 49.3095 101.142 49.645 100.604 49.5188C100.065 49.3925 99.7274 48.8533 99.8534 48.314C104.207 27.4998 96.1044 14.3676 83.8207 8.3809C78.0125 5.54967 71.3079 4.33621 64.5832 4.61733C61.0662 4.76362 57.5435 5.30291 54.1411 6.26675C49.0403 7.71247 44.2144 10.0876 40.0931 13.4094C30.8882 20.8304 25.2318 32.9186 27.8667 49.7225Z" fill="black"/>
<path id="path1688" fill-rule="evenodd" clip-rule="evenodd" d="M102.591 43.8043C102.23 44.2231 101.595 44.269 101.177 43.9047C100.758 43.5404 100.713 42.9035 101.076 42.4847C106.249 35.9989 112.444 32.769 118.335 31.8998C121.522 31.4322 124.63 31.6847 127.465 32.4907C132.795 34.0053 137.18 37.5336 139.402 42.2036C140.995 45.5455 141.479 49.487 140.459 53.7037C146.058 52.6653 150.323 54.2746 152.714 57.2292C155.776 61.0128 155.971 67.2031 151.497 73.1353C151.182 73.5914 150.555 73.7033 150.099 73.3878C149.647 73.0694 149.532 72.4439 149.85 71.9878C153.018 67.0195 152.92 62.166 150.288 59.3462C147.906 56.7903 143.518 56.2367 137.979 58.7295C137.191 59.0565 136.283 58.87 135.688 58.259C135.092 57.6508 134.926 56.7386 135.267 55.9584C137.108 51.5638 136.851 47.5076 135.272 44.1686C133.563 40.56 130.301 37.8062 126.248 36.4292C119.291 34.0656 110.232 35.626 102.591 43.8043Z" fill="black"/>
</g>
</g>
<defs>
<clipPath id="clip0_615_10541">
<rect width="155" height="79" fill="white"/>
</clipPath>
</defs>
</svg>
