<svg width="96" height="96" viewBox="0 0 96 96" fill="none" xmlns="http://www.w3.org/2000/svg">
<path d="M18.871 49.64C19.3291 51.8737 19.7683 54.1168 20.1887 56.3694C20.3487 57.1882 20.5463 57.9976 20.6687 58.8259C21.0828 61.7529 21.384 64.6988 21.544 67.6635C21.6569 68.9717 21.6475 70.2988 21.6851 71.5976C21.6851 72.4353 21.6851 73.2917 21.6004 74.1294C21.5279 74.9754 21.3799 75.8133 21.1581 76.6329C21.0263 77.1411 20.7251 77.0094 20.4334 76.5294C20.0457 75.8586 19.8321 75.1015 19.8122 74.327L19.6522 71.8894C19.5487 71.0706 19.4545 70.2611 19.3792 69.4517C19.304 68.6423 19.2192 67.8141 19.1628 66.9953C19.1063 66.1764 19.0216 65.3388 18.9557 64.5106C18.712 62.4732 18.3315 60.4545 17.8169 58.4682C17.3463 56.2564 16.8757 54.0258 16.4051 51.8047C16.0945 50.44 15.7934 49.0659 15.464 47.7011C14.9557 45.64 14.5228 43.5411 13.9204 41.4988C13.4969 39.9082 12.9792 38.3741 12.5087 36.7929C12.4145 36.4447 12.2922 36.1058 12.2263 35.7482C12.1604 35.3906 12.151 35.127 12.1416 34.8823C12.1467 34.6745 12.1816 34.4685 12.2451 34.2706C12.3336 33.9686 12.5229 33.7061 12.7816 33.527C12.8876 33.4363 13.001 33.3544 13.1204 33.2823C13.4875 33.0941 13.9863 33.5647 14.504 34.44C15.1157 35.767 15.5769 37.16 16.0851 38.5811C16.311 39.2964 16.5463 40.0117 16.7816 40.727L17.3557 42.9388C17.9204 45.1506 18.4287 47.3811 18.9463 49.6211L18.871 49.64Z" fill="black"/>
<path d="M30.3625 26.91C24.935 28.6946 19.6625 30.9201 14.5978 33.5641L13.9484 33.9312C13.8635 33.9758 13.7817 34.0261 13.7036 34.0818C13.6472 34.1476 13.506 34.1853 13.5436 34.2794L13.6472 34.5429C13.7225 34.7218 13.6472 34.5994 13.9013 35.3429C15.0119 39.1076 15.8401 42.7782 16.6401 46.5053C17.4401 50.2323 18.146 53.95 18.7954 57.6865C19.3601 61.0088 19.9342 64.3406 20.4989 67.6347C21.1766 71.87 21.9107 76.1712 21.6001 80.5571C21.506 81.9312 20.6589 81.7147 19.8307 80.6229C18.6833 79.0216 17.9347 77.1695 17.6472 75.2206C16.386 66.75 14.4378 58.3829 13.0166 49.8088C12.5554 47.3523 11.9719 44.9053 11.2942 42.4676C10.9366 41.2629 10.5884 40.03 10.1931 38.8441C10.0048 38.2512 9.826 37.6394 9.60953 37.0653L9.28011 36.1241C9.1107 35.5971 8.88482 35.1076 8.706 34.6088L8.56482 33.4606L8.4707 32.6794V32.6794L8.65894 32.7359V32.6512V32.557L8.706 32.3782C8.72917 32.2538 8.77719 32.1354 8.84717 32.03C9.2012 31.5828 9.62746 31.1979 10.1084 30.8912C10.6166 30.5618 11.1342 30.2323 11.6519 29.95L12.6778 29.2912C14.0048 28.5476 15.3507 27.8606 16.706 27.2018C19.4072 25.8841 22.1648 24.6888 24.9507 23.5782C28.3766 22.2229 31.8684 21.0182 35.3978 19.9453C40.744 18.35 46.1813 17.0771 51.6801 16.1335C53.8072 15.757 55.9154 15.3618 58.0331 15.0135C60.1508 14.6445 62.2875 14.3931 64.4331 14.2606C65.3742 14.2041 66.3154 14.1194 67.2566 14.1194C68.0099 14.1089 68.7627 14.1656 69.506 14.2888C70.0207 14.3706 70.5255 14.5063 71.0119 14.6935C71.7076 14.9565 72.2676 15.4893 72.5648 16.1712C72.7346 16.4548 72.8765 16.7542 72.9884 17.0653C73.2236 18.0535 71.7648 18.7406 69.2989 19.1265C62.0236 20.1429 54.5319 20.8394 46.9931 22.4206C41.3764 23.5765 35.8451 25.1142 30.4378 27.0229L30.3625 26.91Z" fill="black"/>
<path d="M63.219 69.8742C59.9437 70.3542 56.6308 70.966 53.4119 71.7566C52.2261 72.0483 51.0778 72.4625 49.9013 72.7731C47.8119 73.2813 45.7225 73.8554 43.6425 74.4389C41.5625 75.0225 39.4637 75.5966 37.4119 76.3213C35.5766 76.9142 33.7884 77.6483 32.0378 78.4013C29.7793 79.4014 27.4555 80.2473 25.0825 80.9331C24.3296 81.1401 24.2637 80.7542 24.6402 80.0483C25.2105 78.9634 26.0179 78.0208 27.0025 77.2907L28.6119 76.2178L29.4119 75.6813L30.2684 75.2483C31.3978 74.6648 32.5555 74.1283 33.7131 73.6013C36.0481 72.5441 38.4502 71.6418 40.9037 70.9001C43.8778 70.1001 46.8237 68.8295 49.8355 67.9166C53.1484 66.9283 56.5178 66.0907 59.9061 65.366C61.9955 64.9142 64.1037 64.5472 66.2119 64.1895C69.4119 63.6625 72.6496 63.3331 75.8966 63.0978L79.6613 62.7495C80.3013 62.6836 80.9508 62.6742 81.6002 62.6272C82.2496 62.5801 82.899 62.6272 83.5672 62.7589C84.1593 62.8059 84.7474 62.894 85.3272 63.0225C86.1653 63.166 86.9454 63.5446 87.5766 64.1142C87.9664 64.5563 88.1267 65.1554 88.0096 65.7331C87.9893 66.0292 87.9389 66.3225 87.859 66.6083C87.6937 67.0418 87.3513 67.3842 86.9178 67.5495C86.4094 67.7679 85.8617 67.88 85.3084 67.8789C84.3672 67.8789 83.4261 67.9731 82.4096 68.0672C81.4076 68.1993 80.3989 68.2747 79.3884 68.2931C77.3366 68.3966 75.2002 68.5472 73.0355 68.7731C69.8166 69.046 66.5225 69.4319 63.2472 70.006L63.219 69.8742Z" fill="black"/>
<path d="M66.3724 44.2368C63.8734 47.0916 61.5266 50.0762 59.3418 53.178C58.5418 54.3168 57.8924 55.5403 57.1488 56.6886L56.8853 57.1027L56.5465 57.6392C56.2453 58.138 55.9818 58.6745 55.6806 59.1451C54.9762 59.5052 54.2942 59.9075 53.6382 60.3498C53.5792 60.3959 53.5162 60.4369 53.45 60.4721H53.1959H52.6782C52.3206 60.4721 51.8312 60.4721 51.4171 60.4721L51.0218 60.3309C50.8898 60.2322 50.764 60.1253 50.6453 60.0109L49.9112 59.3709L49.1865 58.7309C48.988 58.512 48.7741 58.3075 48.5465 58.1192L46.89 56.6792L43.6147 53.5733C42.0053 52.0392 40.33 50.5615 38.6924 49.0839C37.6476 48.1427 36.5653 47.2015 35.53 46.2603C34.4947 45.3192 33.5065 44.3498 32.4994 43.3145C31.8876 42.6933 32.1512 42.5145 32.9794 42.6556C34.2875 42.9093 35.5399 43.3937 36.6782 44.0862C39.1253 45.6862 41.4876 47.3615 43.7935 49.1027C46.0994 50.8439 48.2924 52.7168 50.4476 54.5803L51.0029 55.0415C51.1253 55.1733 51.1159 55.1827 51.1818 55.2486L51.3418 55.418L51.4265 55.5027C51.4265 55.5027 51.4924 55.6533 51.5206 55.7192C51.6178 55.7356 51.7127 55.7641 51.8029 55.8039L51.9441 55.9074H52.0194C52.0194 55.9074 52.0194 55.9074 52.0194 55.8321C52.0947 55.6533 52.1982 55.4745 52.2829 55.2862C52.2829 55.2862 53.1394 53.7333 53.7606 52.7827C55.9126 49.4222 58.2438 46.1799 60.7441 43.0698C62.2688 41.1874 63.8688 39.3051 65.5065 37.4698C68.0172 34.7174 70.6785 32.1064 73.4782 29.6486C74.57 28.7074 75.6241 27.7192 76.7253 26.778C77.8394 25.8093 79.0433 24.9489 80.3206 24.2086C80.8676 23.864 81.4332 23.5498 82.0147 23.2674C82.7978 22.8354 83.6715 22.5936 84.5653 22.5615C85.1405 22.6041 85.6723 22.8836 86.0335 23.3333C86.225 23.5265 86.4012 23.7341 86.5606 23.9545C86.9935 24.698 86.3535 25.6862 85.0924 26.6086C83.21 27.9451 81.4876 29.5921 79.6147 31.0792C77.7418 32.5662 75.9629 34.2886 74.1841 36.058C72.8853 37.3851 71.5582 38.7121 70.2688 40.0862C68.9794 41.4603 67.7182 42.9098 66.5041 44.3498L66.3724 44.2368Z" fill="black"/>
</svg>
