<svg width="96" height="96" viewBox="0 0 96 96" fill="none" xmlns="http://www.w3.org/2000/svg">
<path d="M53.5438 51.0738L45.205 50.7162C44.1885 50.7162 43.1815 50.7915 42.165 50.7162C38.5885 50.5342 35.0089 50.3209 31.4262 50.0762C29.8356 49.9632 28.245 50.0009 26.6638 50.0197C25.6474 50.0197 24.6309 50.095 23.605 50.0197C23.0826 50.0174 22.5608 49.9828 22.0427 49.9162C21.7791 49.9162 21.5156 49.8409 21.2615 49.7844L20.8474 49.6997L20.3391 49.5397C19.4827 49.2385 20.1038 48.4762 20.7344 47.6573L21.1768 47.055C21.3711 46.8526 21.582 46.6669 21.8074 46.4997C22.2402 46.1508 22.7684 45.9408 23.3227 45.8973C27.3945 45.57 31.4861 45.57 35.558 45.8973C38.0906 46.0481 40.63 46.0481 43.1627 45.8973L51.5485 46.0009C53.2709 46.0009 54.9933 46.0573 56.7156 46.0573C59.3227 46.0573 61.9391 46.1232 64.5274 45.9726C66.5321 45.8597 68.4991 45.4738 70.4944 45.2197C70.9274 45.1632 71.3603 45.0597 71.8027 45.0315C73.4591 44.9468 73.9862 45.295 74.3344 46.6597C74.4308 46.9687 74.5093 47.2829 74.5697 47.6009C74.7061 48.6861 73.9634 49.6861 72.885 49.8691C69.3138 50.813 65.6329 51.2783 61.9391 51.2526C59.1156 51.2526 56.3485 51.2526 53.5438 51.1868V51.0738Z" fill="black"/>
<path d="M12.9881 53.577L12.5269 53.1912C12.5269 53.1441 12.2916 53.0123 12.1599 52.9088L11.7364 52.57L10.174 51.2523L7.5293 48.6829L8.82812 47.2147C9.214 46.8006 9.59047 46.377 9.94812 45.9535C10.3058 45.53 10.8893 45.1629 11.3881 44.7865C11.8869 44.41 12.2352 44.2312 12.6493 43.9582C12.8375 43.8359 13.0917 43.657 13.2234 43.5912L13.6375 43.3559L15.3128 42.4147L18.6352 40.6265C19.5764 40.0994 20.5175 39.4782 21.4587 38.8759C22.5729 38.0024 23.8138 37.3042 25.1387 36.8053C25.5716 36.6641 25.9011 37.3229 25.9858 38.1512C26.132 38.997 25.8703 39.8622 25.2799 40.4853C23.0602 42.2573 20.6705 43.8053 18.1458 45.1065C17.3739 45.5111 16.6454 45.9936 15.9717 46.5465L15.2752 47.1112C15.145 47.2219 15.0065 47.3226 14.8611 47.4123C14.5732 47.5715 14.3074 47.7677 14.0705 47.9959C14.014 47.9959 14.0234 48.0429 14.0705 48.0617V48.1182C14.0934 48.1567 14.122 48.1916 14.1552 48.2217L14.3528 48.4476C14.5034 48.5982 14.6634 48.7582 14.8517 48.9276C15.2248 49.2342 15.6144 49.5201 16.0187 49.7841C16.4987 50.1135 16.9599 50.4335 17.4775 50.7253C18.9474 51.714 20.4889 52.5917 22.0893 53.3512C23.3454 53.842 24.6627 54.1586 26.0046 54.2923C26.2869 54.2923 26.5881 54.2923 26.8422 54.377C27.0547 54.3958 27.2557 54.4814 27.4164 54.6217C27.5554 54.7351 27.6544 54.8902 27.6987 55.0641C27.7902 55.621 27.806 56.1877 27.7458 56.7488C27.7458 57.0782 27.7458 57.3982 27.6799 57.69C27.6326 58.1844 27.4319 58.6517 27.1058 59.0265C26.7722 59.4762 26.2754 59.777 25.7222 59.8641C24.9838 59.9189 24.2413 59.8618 23.5199 59.6947C22.8335 59.5482 22.1599 59.3468 21.5058 59.0923C20.2358 58.573 19.0138 57.9431 17.854 57.21C16.1222 56.1465 14.5222 54.9135 12.9034 53.7088L12.9881 53.577Z" fill="black"/>
<path d="M81.0261 48.3343L81.5343 48.099C81.6566 48.0425 81.6284 48.099 81.6472 48.099V48.099C81.7191 48.1081 81.7918 48.1081 81.8637 48.099C82.0505 48.0733 82.23 48.0093 82.3908 47.9108C82.4227 47.8554 82.4227 47.7873 82.3908 47.7319C82.3249 47.6002 82.1084 47.5249 82.0331 47.3931L81.7978 47.0919C81.7459 47.0253 81.6893 46.9624 81.6284 46.9037L81.3272 46.5461C80.8943 46.1225 80.4425 45.699 79.9908 45.2849C79.0496 44.4567 78.1649 43.6378 77.1672 42.8661C76.317 42.1782 75.4208 41.5493 74.4849 40.9837C73.2457 40.3341 72.0997 39.5205 71.0778 38.5649C70.7766 38.2355 71.2096 37.6237 71.9155 37.2096C72.6191 36.7038 73.5242 36.5705 74.3437 36.8519C76.9483 38.1413 79.3618 39.7852 81.5155 41.7367C82.1824 42.3311 82.89 42.8784 83.6331 43.3743L84.2355 43.7978L85.0637 44.4002C85.6002 44.7767 86.1837 45.3414 86.7296 45.7649C86.97 45.97 87.1877 46.2003 87.379 46.4519L87.9531 47.139L89.0355 48.579C87.7514 49.6749 86.4032 50.6932 84.9978 51.6284C84.1131 52.2119 83.7272 52.4002 83.1719 52.7296L81.5908 53.6708C79.9908 54.6119 78.3343 55.3743 76.7531 56.3249C75.5296 57.059 74.4472 58.0567 73.1766 58.9037C72.9133 59.1217 72.6296 59.3139 72.3296 59.4778C72.0915 59.6158 71.8233 59.6933 71.5484 59.7037C71.3207 59.7172 71.0943 59.6614 70.899 59.5437C70.4544 59.1691 70.114 58.686 69.9108 58.1414C69.779 57.8402 69.6378 57.5578 69.5437 57.2755C69.3951 56.8011 69.3533 56.2997 69.4213 55.8072C69.454 55.5413 69.5012 55.2774 69.5625 55.0167C69.6089 54.8006 69.7093 54.5999 69.8543 54.4331C70.6704 53.6021 71.6063 52.8979 72.6308 52.3437C73.6566 51.7414 74.7672 51.2143 75.8872 50.6684C77.5531 49.8684 79.2943 49.1155 80.9602 48.2496L81.0261 48.3343Z" fill="black"/>
</svg>
