<svg width="96" height="96" viewBox="0 0 96 96" fill="none" xmlns="http://www.w3.org/2000/svg">
<path d="M75.6548 41.6534C72.6524 54.4345 41.4619 70.8769 33.283 73.0416C33.0345 73.1251 32.7609 73.083 32.5489 72.9287L29.2266 70.1992C29.2266 70.1992 54.5348 57.851 58.9772 53.5781C63.4195 49.3051 75.3913 40.6934 75.3913 40.6934L75.6548 41.6534Z" fill="black"/>
<path d="M28.2852 73.6902C26.1545 72.2965 24.1848 70.6709 22.4123 68.8431C20.6643 66.9721 19.1591 64.8882 17.9323 62.6408C15.496 58.1069 14.3379 52.9961 14.5817 47.8549C14.6482 46.004 14.8717 44.1621 15.2499 42.349C15.6089 40.5386 16.1513 38.7695 16.8688 37.069C19.3899 31.0907 23.5745 25.9621 28.9252 22.2925C31.5882 20.4869 34.5069 19.091 37.584 18.1513C38.3652 17.9631 39.1276 17.709 39.9182 17.5772L42.2993 17.1537L44.6899 16.9749C45.4899 16.8996 46.2899 16.9749 47.0805 16.9749H48.144L49.1982 17.0878C49.8946 17.1725 50.6005 17.2102 51.297 17.3231C52.682 17.5564 54.0522 17.8706 55.4005 18.2643C56.7401 18.6469 58.0568 19.1057 59.344 19.6384C59.9935 19.9019 60.6052 20.2313 61.2264 20.5231C61.8734 20.7961 62.5021 21.1105 63.1088 21.4643C66.2811 23.2033 69.1024 25.5171 71.4287 28.2878C73.7516 31.1112 75.3076 34.4856 75.9464 38.0855C75.9464 39.2337 75.8523 39.7325 75.6076 39.7513C75.3629 39.7702 74.9487 39.309 74.2335 38.6031L68.5864 32.0996C64.5051 27.3239 58.9707 24.0178 52.8311 22.6878C49.7855 21.9597 46.6473 21.6963 43.5229 21.9066C41.9696 22.0377 40.4301 22.299 38.9205 22.6878C37.3904 23.1217 35.8958 23.6724 34.4499 24.3349C30.9389 26.0564 27.8653 28.5539 25.4617 31.6384C22.9896 34.7902 21.1692 38.4022 20.1064 42.2643C18.877 46.4663 18.757 50.9151 19.7582 55.1772C20.8103 59.4596 23.0251 63.3681 26.1582 66.4713C28.1095 68.4191 30.3277 70.0797 32.7464 71.4031C35.1638 72.7509 37.7726 73.722 40.4829 74.2831C44.5396 75.1796 48.7547 75.0633 52.7558 73.9443C56.7745 72.6874 60.5222 70.689 63.8052 68.0525C66.2407 65.9648 68.3086 63.4833 69.9229 60.7113C71.4744 57.9541 72.6188 54.9869 73.3205 51.9019L73.5558 50.8949C73.6217 50.556 73.6593 50.2172 73.7158 49.8784C73.8005 49.2008 73.9605 48.5231 74.0076 47.836C74.3558 45.2666 74.2617 43.6102 74.4688 42.4243C74.5549 41.9102 74.6808 41.4036 74.8452 40.909C75.0429 40.476 75.2123 40.1372 75.3817 39.7984C75.5511 39.4596 75.6546 39.0925 75.777 38.8572C76.0029 38.509 76.3605 38.8102 77.104 39.7984C77.7698 40.7852 78.1982 41.9126 78.3558 43.0925C78.4501 43.6148 78.5067 44.1433 78.5252 44.6737C78.7031 47.9434 78.3858 51.2212 77.584 54.396C76.718 57.6527 75.3765 60.7638 73.6029 63.629C72.6656 65.0654 71.6277 66.4335 70.497 67.7231C69.9415 68.382 69.3509 69.0104 68.7276 69.6055L66.7793 71.3184L66.2993 71.7513L65.7723 72.1278L64.7087 72.909C63.9935 73.389 63.3158 73.9443 62.5629 74.349L60.2852 75.5443C59.9088 75.7419 59.5323 75.9584 59.1464 76.1372L57.9511 76.6172L56.1911 77.3325C55.5981 77.5879 54.988 77.8018 54.3652 77.9725C53.7252 78.1513 53.0852 78.349 52.4829 78.4996L50.5346 78.8478C47.9458 79.2176 45.3199 79.2492 42.7229 78.9419C37.5981 78.2699 32.6758 76.5115 28.2852 73.7843V73.6902Z" fill="black"/>
<path d="M67.3443 50.4238C62.0678 54.5394 56.4145 58.1476 50.4596 61.2002C48.3043 62.3014 46.1678 63.4967 44.0125 64.4379C40.1725 66.2261 36.2729 67.8951 32.3137 69.4449C28.3218 70.986 24.235 72.2686 20.0784 73.2849C18.2195 73.7702 16.3339 74.1473 14.4313 74.4143C13.4425 74.544 12.4443 74.5881 11.4478 74.5461C10.3668 74.5279 9.30068 74.2909 8.31369 73.8496C7.58796 73.5044 6.96503 72.9756 6.50663 72.3155C6.06587 71.6456 5.78862 70.8816 5.69722 70.0849C5.60609 69.3413 5.63788 68.5877 5.79134 67.8543C5.95143 67.1728 6.19153 66.5125 6.50663 65.8873C7.69915 63.5087 9.64952 61.5948 12.0502 60.4473C12.8219 60.099 13.2831 60.2026 13.349 60.4473C13.4149 60.692 13.1984 61.2096 12.8878 61.8402C12.5772 62.4708 12.1443 63.2332 11.6643 64.1367C11.4196 64.5696 11.1937 65.0779 10.9207 65.5202L10.0266 66.9696C9.54974 67.652 9.2461 68.4402 9.14192 69.2661C9.11974 69.5835 9.15481 69.9023 9.24545 70.2073C9.30063 70.4062 9.41968 70.5815 9.58428 70.7061C10.2433 71.123 11.0068 71.3449 11.7866 71.3461C12.8591 71.3935 13.9336 71.3399 14.996 71.1861C16.116 71.0449 17.2549 70.8285 18.3937 70.5743C19.5325 70.3202 20.6619 69.9249 21.7913 69.5673C24.0502 68.8332 26.309 68.0238 28.5678 67.1767C34.1142 65.0825 39.5267 62.6497 44.7749 59.892C47.7113 58.4332 50.5913 56.9649 53.3678 55.2991C56.1443 53.6332 58.8643 51.8449 61.4807 49.9249C64.7113 47.5594 67.8064 45.0142 70.7513 42.3014C72.9725 40.212 75.1372 38.0849 77.2266 35.8449C78.2525 34.7343 79.2502 33.5767 80.2949 32.4285C81.3396 31.2802 82.3184 30.1696 83.2031 29.0026C83.8869 28.1255 84.4768 27.1792 84.9631 26.179C85.076 25.9343 85.1984 25.699 85.2831 25.4543L85.4243 25.0967C85.4569 25.0103 85.4852 24.9224 85.509 24.8332C85.5949 24.5522 85.6424 24.261 85.6502 23.9673C85.6455 23.6854 85.5008 23.4243 85.2643 23.2708C85.0274 23.1334 84.7568 23.0649 84.4831 23.0732C84.1666 23.089 83.8519 23.1299 83.5419 23.1955C83.0467 23.2833 82.5634 23.4286 82.1019 23.6285C81.2489 23.987 80.443 24.4485 79.7019 25.0026C78.6013 25.6032 77.4597 26.1253 76.2855 26.5649C75.9033 26.6549 75.5107 26.6929 75.1184 26.6779C74.7514 26.6136 74.3896 26.5224 74.036 26.4049C73.7255 26.3014 73.3772 26.2638 73.1607 26.1602C72.7843 25.9908 72.8219 25.5579 73.076 24.6826C73.513 23.5299 74.2995 22.5426 75.3255 21.859C77.2555 20.3897 79.5186 19.4198 81.9137 19.0355C82.6101 18.8524 83.3223 18.7358 84.0408 18.6873C85.0398 18.6086 86.0446 18.7302 86.996 19.0449C87.9098 19.3556 88.7117 19.9284 89.3019 20.692C89.878 21.4747 90.188 22.4214 90.1866 23.3932C90.1301 24.4141 89.9175 25.4203 89.556 26.3767C89.4962 26.5725 89.4239 26.7642 89.3396 26.9508L89.1419 27.412C89.0007 27.7226 88.8502 28.0049 88.6996 28.3061C88.1099 29.4295 87.4201 30.4974 86.6384 31.4967C85.1702 33.379 83.5702 35.0543 82.1678 36.6261C77.6601 41.6633 72.7257 46.3018 67.4196 50.4896L67.3443 50.4238Z" fill="black"/>
<path d="M37.0485 42.7251C36.6549 42.9683 36.2389 43.1732 35.8061 43.3369C35.3866 43.4562 34.9587 43.5443 34.5261 43.6004C33.7332 43.6702 32.9341 43.6034 32.1638 43.4028L31.345 43.1957C31.0661 43.0981 30.7955 42.9785 30.5356 42.8381C29.6014 42.3017 28.8752 41.4662 28.4744 40.4663C28.2864 39.983 28.1875 39.4696 28.1826 38.951C28.1826 38.6969 28.1826 38.4522 28.2673 38.2169L28.4556 37.5204C28.7222 36.7539 29.1416 36.0495 29.6885 35.4499C30.3244 34.672 31.2404 34.1752 32.2391 34.0663C32.5403 34.0663 32.5497 34.3016 32.4273 34.6593C32.292 35.0608 32.074 35.4295 31.7873 35.7416C31.5178 35.9617 31.2912 36.2297 31.1191 36.5322C30.9557 36.8096 30.8381 37.1115 30.7709 37.4263C30.7034 37.7067 30.6717 37.9945 30.6767 38.2828C30.6956 38.5523 30.6956 38.8227 30.6767 39.0922C30.6767 39.7793 31.3356 40.231 32.0603 40.504C32.8963 40.8602 33.8341 40.8971 34.6956 40.6075C35.1662 40.399 35.5584 40.0464 35.8156 39.6004C36.2526 38.858 36.3519 37.9643 36.0885 37.144C35.8582 36.5189 35.4571 35.9711 34.9309 35.5628C34.8045 35.4922 34.6848 35.4103 34.5732 35.3181C34.2138 34.9978 34.0836 34.4921 34.2438 34.0381C34.2438 33.9063 34.2909 33.7651 34.3191 33.6334C34.432 33.2099 34.8556 32.9934 35.5614 33.0499C36.6601 33.2384 37.6586 33.8043 38.385 34.6499C38.7802 35.0995 39.0982 35.6115 39.3261 36.1651C39.4014 36.4569 39.4673 36.7581 39.5144 37.0593C39.5614 37.3604 39.5144 37.6804 39.5614 38.0004C39.5378 39.896 38.6245 41.6703 37.0956 42.791L37.0485 42.7251Z" fill="black"/>
</svg>
