<svg width="96" height="96" viewBox="0 0 96 96" fill="none" xmlns="http://www.w3.org/2000/svg">
<path d="M46.2532 49.2401C45.8576 48.7828 45.5077 48.2879 45.2085 47.7624C44.8856 47.2466 44.6265 46.6936 44.4367 46.1154C44.0664 45.0339 43.8788 43.8984 43.8814 42.7554C43.8012 42.0234 43.8012 41.2849 43.8814 40.553C44.4261 38.3561 45.3843 36.283 46.705 34.4448C47.232 33.673 47.6462 32.8542 48.0791 32.0448C48.5172 30.8732 49.4455 29.9518 50.6203 29.5224C51.0438 29.4095 51.8626 30.4071 52.6156 31.5271C53.3685 32.6471 54.1497 33.8801 54.0085 34.3507L53.8014 34.9436L53.6979 35.2448L53.5379 35.4989C53.312 35.8377 53.0862 36.1765 52.832 36.5154C52.313 37.2212 51.7504 37.8939 51.1473 38.5295C50.3662 39.3577 50.4885 40.4777 50.4038 41.353C50.2879 42.1818 50.3951 43.0265 50.7144 43.8001C50.9668 44.3421 51.352 44.8115 51.8344 45.1648C52.7136 45.8805 53.7592 46.3628 54.8744 46.5671C55.3571 46.6326 55.8476 46.6134 56.3238 46.5107C56.8038 46.5107 57.265 46.4165 57.7732 46.4071C57.9879 46.3727 58.2052 46.357 58.4226 46.3601C58.5125 46.3678 58.601 46.3868 58.6862 46.4165C58.7664 46.4656 58.8393 46.5258 58.9026 46.5954C59.0348 46.7294 59.1374 46.8897 59.2038 47.066C59.374 47.5817 59.4536 48.123 59.4391 48.6659C59.4391 48.9954 59.4391 49.3154 59.4391 49.6071C59.4307 50.5955 59.0072 51.5347 58.272 52.1954C58.0329 52.3974 57.7628 52.5595 57.472 52.6754C57.2081 52.8019 56.938 52.915 56.6626 53.0142C56.1137 53.2146 55.5462 53.3596 54.9685 53.4471C53.7837 53.4085 52.6121 53.1863 51.4956 52.7883C49.445 52.1088 47.593 50.9355 46.1026 49.3718L46.2532 49.2401Z" fill="black"/>
<path d="M82.9492 51.6971C81.9014 58.6576 78.7598 65.1344 73.9422 70.2665C71.5926 72.7829 68.8955 74.9507 65.9328 76.7041C62.9616 78.4302 59.7475 79.6993 56.3986 80.4688C51.6206 81.5367 46.6911 81.7502 41.8386 81.0994C37.5806 80.4894 33.449 79.1959 29.6033 77.2688C27.7032 76.2808 25.8952 75.1249 24.201 73.8147C22.4307 72.5725 20.8049 71.1361 19.3539 69.5324C16.3661 66.3195 14.2277 62.4115 13.1327 58.1629C12.8635 57.1114 12.6498 56.0464 12.4927 54.9724C12.3798 53.89 12.248 52.8171 12.2386 51.7347C12.2292 50.6524 12.2386 49.5888 12.2857 48.5159C12.3327 47.4429 12.4739 46.3794 12.6527 45.3441C13.2419 41.6383 14.2752 38.0169 15.7304 34.5582C17.2 31.1078 19.1348 27.8747 21.481 24.9488C24.464 21.0496 28.3627 17.9462 32.8316 15.9135C35.1107 14.9658 37.5243 14.3815 39.9845 14.1818C41.2003 14.097 42.4205 14.097 43.6363 14.1818C44.8372 14.253 46.0253 14.4678 47.1751 14.8218C48.568 15.4712 49.1139 15.8288 49.0575 15.9512C48.3927 16.1522 47.7171 16.3156 47.0339 16.4406C45.8104 16.8547 44.1445 17.1935 42.328 17.9182L40.9351 18.5018C40.4645 18.7182 39.9939 18.9535 39.5045 19.1606C38.5633 19.6029 37.5375 20.0359 36.5398 20.5535C35.6462 20.9992 34.7789 21.4957 33.9422 22.0406C33.0544 22.5342 32.1993 23.0844 31.3822 23.6877C29.7685 24.9116 28.2889 26.3029 26.968 27.8382C24.2906 31.0367 22.1485 34.6472 20.6245 38.53C19.0139 42.4212 18.0812 46.5594 17.8669 50.7653C17.7966 52.8103 17.9832 54.8561 18.4222 56.8547C18.5219 57.3574 18.6508 57.854 18.808 58.3418C18.9395 58.837 19.0998 59.3241 19.288 59.8006C19.4388 60.2937 19.6179 60.7776 19.8245 61.25C20.0127 61.73 20.2386 62.1912 20.4739 62.6618C22.884 67.3299 26.8343 71.0208 31.6551 73.1088C36.5824 75.3281 41.9415 76.4244 47.3445 76.3182C53.2076 76.4007 58.9631 74.7399 63.881 71.5465C68.7671 68.2995 72.5952 63.6927 74.8928 58.2947C76.3087 55.0297 77.0114 51.5001 76.9539 47.9418C76.9208 44.498 75.7826 41.1558 73.7069 38.4077C72.8999 37.3666 71.8997 36.491 70.761 35.8288C69.5987 35.1889 68.3173 34.7949 66.9963 34.6712C65.6325 34.5387 64.2563 34.6277 62.921 34.9347L61.9233 35.2171C61.5845 35.3112 61.2645 35.4524 60.9351 35.5653C60.4699 35.7567 60.02 35.9832 59.5892 36.2429L58.8269 36.6571C58.5727 36.8265 58.3186 37.0335 58.0645 37.2218L57.0386 37.8618C56.8938 37.9576 56.7351 38.0306 56.568 38.0782L56.1351 38.2288L55.2692 38.53L54.601 38.7182L53.961 38.9065C53.6692 38.7935 53.528 38.5394 53.3398 38.3418C52.9913 37.8798 52.6887 37.3849 52.4363 36.8641C51.884 35.5458 51.4248 34.1903 51.0622 32.8077L50.5069 30.7935C50.3657 30.2853 50.2245 29.7865 50.1022 29.2594L49.9704 28.6947L51.7869 28.7606C51.9239 28.7752 52.0614 28.7383 52.1727 28.6571C52.1491 28.822 52.1787 28.9902 52.2575 29.1371C52.2575 29.2594 52.3798 29.3912 52.4645 29.57C52.5492 29.7488 52.6527 29.8806 52.7657 30.0782L52.9539 30.3512L53.048 30.4829V30.5582V30.5582V30.5582C52.9199 30.6681 52.7974 30.7843 52.681 30.9065C52.3487 31.254 52.0346 31.6184 51.7398 31.9982C50.4392 33.6806 49.2866 35.4724 48.2951 37.3535C47.8057 38.2947 47.3539 39.2359 46.9586 40.1771C46.761 40.6571 46.5822 41.1182 46.4316 41.5982C46.35 41.8367 46.2747 42.072 46.2057 42.3041L46.121 42.6335V42.8312C46.0039 43.3454 46.0039 43.8793 46.121 44.3935C46.3264 44.8579 46.7314 45.2041 47.2222 45.3347C47.4511 45.4193 47.6874 45.4823 47.928 45.5229H48.0975H48.1727H48.3327L49.0198 45.6265C49.961 45.7394 50.9022 45.7865 51.9751 45.8524H52.4363H52.6527L53.0386 45.8053C53.2815 45.7607 53.5265 45.7292 53.7727 45.7112C53.9252 45.6623 54.0834 45.6339 54.2433 45.6265H54.6669C54.7986 45.6265 54.9586 45.6265 55.0151 45.4665C55.0501 45.2526 55.0102 45.0332 54.9022 44.8453C54.7745 44.5744 54.6767 44.2903 54.6104 43.9982C54.5428 43.352 54.565 42.6996 54.6763 42.0594C54.6763 41.6641 54.5727 41.0429 54.6763 40.7041C54.7798 40.3653 54.921 40.2712 55.288 40.2806C55.5158 40.2997 55.7403 40.3471 55.9563 40.4218C56.3674 40.5853 56.7696 40.7707 57.161 40.9771C58.5014 41.7985 59.7618 42.7438 60.9257 43.8006C62.1322 45.0064 62.9627 46.5366 63.3163 48.2053C63.4246 48.7521 63.4246 49.3149 63.3163 49.8618C63.2527 50.1939 63.1317 50.5124 62.9586 50.8029C62.7881 51.0652 62.5786 51.3001 62.3375 51.4994C61.901 51.8844 61.4092 52.2016 60.8786 52.4406C60.1911 52.7897 59.4371 52.9886 58.6669 53.0241C57.5939 53.2312 56.408 53.3159 55.2033 53.4571C54.6104 53.5041 53.9892 53.5794 53.321 53.6077L51.6739 53.6641C50.006 53.7438 48.3345 53.6238 46.6951 53.3065L46.3563 53.2406L45.848 53.1277C45.5186 53.0429 45.208 52.9394 44.9069 52.8453C44.5866 52.7553 44.2722 52.6453 43.9657 52.5159C43.6414 52.4108 43.3266 52.2785 43.0245 52.1206C41.8395 51.5693 40.7843 50.7739 39.928 49.7865C39.0752 48.8039 38.4915 47.6171 38.2339 46.3418C37.9896 45.024 38.0088 43.6709 38.2904 42.3606C38.4188 41.6742 38.5854 40.9955 38.7892 40.3277C38.9586 39.7818 39.0716 39.3865 39.2316 38.9912C39.5327 38.1629 39.8527 37.3724 40.1727 36.61C40.8526 35.1234 41.613 33.675 42.4504 32.2712C43.2786 30.8877 44.1539 29.5512 45.1422 28.2147C45.6504 27.5371 46.168 26.8782 46.7986 26.1535C47.1715 25.7304 47.5674 25.3283 47.9845 24.9488C48.3916 24.5881 48.8365 24.2725 49.3116 24.0076L49.6598 23.8288C49.8369 23.7396 50.0192 23.6611 50.2057 23.5935L50.5445 23.4712L51.0622 23.3394L51.608 23.2547C51.9213 23.2311 52.2359 23.2311 52.5492 23.2547L53.0198 23.3018L53.2551 23.3488L53.5845 23.4241C54.0351 23.5481 54.4684 23.7283 54.8739 23.9606C55.2732 24.1867 55.6404 24.4652 55.9657 24.7888C56.1261 24.9493 56.2769 25.119 56.4175 25.2971C56.5469 25.4558 56.6663 25.6224 56.7751 25.7959C56.9286 26.0527 57.0639 26.32 57.1798 26.5959C57.2772 26.835 57.359 27.0802 57.4245 27.33C57.4993 27.6397 57.5527 27.9542 57.5845 28.2712L57.4057 27.4524C57.4904 27.7818 57.5751 28.1488 57.6504 28.5065L57.8198 29.2218V29.2218V29.2218V29.2218L58.0269 29.1465C58.8949 28.8274 59.7812 28.5603 60.681 28.3465C62.5056 27.899 64.3864 27.7245 66.2622 27.8288C68.1992 27.9287 70.1068 28.3452 71.9092 29.0618C73.7599 29.8035 75.4551 30.8857 76.9069 32.2524C82.4222 37.7018 83.8339 45.2029 83.0245 51.7253L82.9492 51.6971Z" fill="black"/>
</svg>
