<svg width="96" height="96" viewBox="0 0 96 96" fill="none" xmlns="http://www.w3.org/2000/svg">
<path d="M44.4754 53.3023C45.4731 52.8788 46.4801 52.4552 47.4401 51.9658C47.7978 51.7964 48.0707 51.5046 48.3813 51.3352L50.2636 50.4505C50.9036 50.1588 51.5719 49.9046 52.146 49.5752C52.6793 49.2826 53.1702 48.9185 53.6048 48.4929C54.1042 47.9257 54.7585 47.5168 55.4872 47.3164C55.7413 47.3164 56.2966 47.6741 56.7389 48.3235C57.2179 48.9358 57.4161 49.7219 57.2848 50.4882C57.1719 50.7235 57.0589 50.9305 56.946 51.1376L56.7766 51.4576L56.5413 51.7023C56.2455 52.0157 55.9312 52.3111 55.6001 52.587C54.929 53.1314 54.1762 53.5666 53.3695 53.8764C52.4551 54.3165 51.5958 54.863 50.8095 55.5046C49.8683 56.0788 48.8142 56.5964 47.8072 57.1141L45.9248 58.0552C44.9836 58.5541 44.0425 58.9964 43.1578 59.5611C42.535 60.1072 41.9472 60.6919 41.3978 61.3117C41.2609 61.4379 41.1129 61.5513 40.9554 61.6505C40.8279 61.7196 40.6862 61.7582 40.5413 61.7635C40.3813 61.7283 40.2325 61.6539 40.1083 61.547C39.7766 61.2843 39.4931 60.9658 39.2707 60.6058C39.1389 60.3988 38.9978 60.2011 38.8848 60.0129C38.683 59.6731 38.5547 59.2948 38.5083 58.9023C38.4425 58.5129 38.4425 58.1152 38.5083 57.7258C38.6719 57.3466 38.8606 56.9788 39.0731 56.6246C39.2973 56.3455 39.5496 56.09 39.826 55.8623C40.3701 55.4117 40.9563 55.0146 41.5766 54.6764C42.5178 54.1399 43.4589 53.7352 44.4001 53.1893L44.4754 53.3023Z" fill="black"/>
<path d="M51.967 48.353C51.2611 47.7695 50.5364 47.186 49.7929 46.6401C49.52 46.4424 49.2 46.3389 48.927 46.1224C47.9858 45.3789 47.0447 44.5977 46.1035 43.8636C45.6705 43.553 45.2376 43.2236 44.7858 42.9224C44.1458 42.6318 43.5938 42.1773 43.1858 41.6048C43.0635 41.3977 43.3929 40.9742 43.8635 40.5883C44.3341 40.2024 44.927 39.826 45.2847 39.9295C45.9251 40.095 46.5539 40.3025 47.167 40.5507C47.7588 40.863 48.2908 41.2772 48.7388 41.7742C49.4031 42.2713 50.1353 42.6707 50.9129 42.9601C51.7129 43.393 52.5035 43.9013 53.3035 44.353L54.7811 45.2942C55.5178 45.7685 56.278 46.2051 57.0588 46.6024C57.68 46.9036 58.4705 46.913 59.1482 47.1671C59.3082 47.2029 59.4655 47.2501 59.6188 47.3083C60.1364 47.6095 60.1082 47.986 59.4494 49.0401C59.2988 49.2754 59.1576 49.5201 58.9976 49.746C58.6434 50.3579 58.0724 50.8147 57.3976 51.026C56.2155 51.121 55.0432 50.7494 54.1317 49.9907C53.407 49.5295 52.7105 48.9554 51.9576 48.4471L51.967 48.353Z" fill="black"/>
<path d="M41.5296 83.1947C36.1536 82.5882 31.0087 80.6718 26.546 77.6136C24.3662 76.0518 22.3984 74.2137 20.6919 72.1453C18.9612 70.1146 17.4852 67.88 16.2966 65.4912C14.6116 62.0761 13.4352 58.4328 12.8048 54.6771C11.6299 48.04 12.2805 41.2084 14.6872 34.9124C17.1376 28.6485 21.3968 23.2556 26.9225 19.4206C31.7873 16.025 37.4422 13.9348 43.346 13.35C47.1082 12.9399 50.9143 13.2595 54.5554 14.2912C55.4636 14.5344 56.3588 14.8234 57.2378 15.1571L58.5084 15.7595C58.9319 15.9665 59.3272 16.2112 59.7413 16.4371L60.946 17.1336C61.3413 17.3783 61.7178 17.6512 62.0943 17.9053L63.2331 18.6865C63.6001 18.9595 63.9578 19.2512 64.3154 19.5336C66.0754 20.9924 65.4919 21.2371 63.4684 21.0395C62.5272 20.9077 61.059 20.8136 59.4684 20.663C58.659 20.663 57.7931 20.5971 56.9178 20.5218C56.466 20.5218 56.0331 20.4653 55.5625 20.5218C55.0919 20.5783 54.6966 20.3053 54.2448 20.23C52.6967 19.8776 51.1232 19.6478 49.539 19.543L48.3625 19.4771C47.9672 19.4771 47.5719 19.4771 47.1766 19.4771C46.3929 19.4347 45.6074 19.4347 44.8237 19.4771C41.6797 19.5753 38.5759 20.212 35.6472 21.3595C34.1692 21.9329 32.7402 22.6254 31.3743 23.43C30.0077 24.2651 28.7109 25.2094 27.4966 26.2536C25.0045 28.3536 22.8907 30.8653 21.2472 33.6795C19.2148 37.1962 17.993 41.1222 17.6707 45.1712C17.3911 49.3154 17.7755 53.4777 18.8096 57.5006C19.3622 59.7013 20.1544 61.8349 21.1719 63.863C22.1658 65.8867 23.4325 67.7646 24.9366 69.4442C28.0019 72.7694 31.9016 75.2133 36.2307 76.5218C41.6983 78.0882 47.4766 78.2243 53.0119 76.9171C57.267 75.9328 61.3459 74.3013 65.106 72.0794C66.9505 71.0103 68.6763 69.7483 70.2543 68.3147C71.0188 67.6106 71.7181 66.8389 72.3437 66.0089L73.2848 64.7759C73.5578 64.343 73.7931 63.8347 74.0566 63.43C75.5755 60.6422 76.4049 57.5311 76.4754 54.3571C76.5358 51.2161 76.0485 48.0885 75.0354 45.1147C74.5648 43.8159 74.0943 42.5642 73.4919 41.35C72.466 38.9971 71.6096 37.5853 71.3084 36.3336C71.1728 35.795 71.1032 35.2419 71.1013 34.6865C71.1277 34.1546 71.2389 33.6304 71.4307 33.1336C71.5764 32.6357 71.7556 32.1483 71.9672 31.6747C72.3625 30.9783 73.1437 30.8936 74.2731 31.43C75.8727 32.2781 77.225 33.5266 78.1978 35.0536C80.2348 37.9632 81.7654 41.1962 82.7248 44.6159C83.6754 48.2139 83.9624 51.955 83.5719 55.6559C82.9149 61.5063 80.4054 66.9937 76.4096 71.3171L74.339 73.3218C73.9897 73.6668 73.6119 73.9816 73.2096 74.263L72.0519 75.11C70.9504 75.9148 69.7999 76.6503 68.6072 77.3124C67.4307 77.9336 66.2731 78.5924 65.059 79.1947C62.6328 80.3454 60.1141 81.2899 57.5296 82.0183C52.3351 83.5051 46.9041 83.9843 41.5296 83.43V83.1947Z" fill="black"/>
<path d="M58.9787 55.7983C58.1599 56.2688 57.3222 56.7394 56.494 57.1347L56.0422 57.37L55.694 57.53L55.0069 57.8594L52.2587 59.1206C50.4328 59.9426 48.5912 60.7332 46.734 61.4924C46.0563 61.7747 45.3881 62.0853 44.7199 62.4335L43.5246 62.9512C42.9599 63.1959 42.3575 63.4218 41.7834 63.6194C40.8318 64.0036 39.8407 64.2814 38.8281 64.4477C38.0367 64.5811 37.2241 64.4132 36.5504 63.9771C36.1081 63.8171 36.0234 63.4218 35.8163 63.0359L35.3269 61.8783C35.1228 60.8998 35.0156 59.9036 35.0069 58.9041C34.9504 56.6077 35.0069 55.7512 35.0069 54.3865L35.1857 50.5747C35.2704 48.3347 35.1857 46.0853 35.0916 43.883C35.0163 42.4618 34.8751 41.0594 34.781 39.6477C34.72 38.9561 34.7012 38.2615 34.7246 37.5677L34.9128 35.5159C34.9975 34.7818 35.6375 34.5088 36.7199 35.0924C37.3668 35.4706 37.9537 35.9432 38.461 36.4947C38.7685 36.8063 39.0371 37.1539 39.261 37.53C39.4495 37.9091 39.5766 38.3158 39.6375 38.7347C40.0613 41.6773 40.3346 44.6396 40.4563 47.61C40.6243 50.5364 40.5803 53.4711 40.3246 56.3912C40.2399 57.1253 40.174 57.1724 40.1457 57.53C40.1066 57.8244 40.1355 58.1239 40.2304 58.4053C40.521 58.3813 40.8048 58.3048 41.0681 58.1794L42.0751 57.7935C45.6328 56.3065 49.2187 54.6688 52.701 52.9183L53.501 52.5041L53.8963 52.3253L54.7151 51.93C55.3348 51.6479 55.9191 51.2941 56.4563 50.8759C56.5599 50.8006 56.6916 50.6218 56.5316 50.5465L56.2493 50.2924C56.0412 50.1355 55.8431 49.9658 55.6563 49.7841L54.781 49.1724L54.3293 48.8524L54.0846 48.683L53.6328 48.41C52.5128 47.6947 51.3928 46.9888 50.254 46.3112C49.1151 45.6335 47.7128 44.9559 46.4893 44.203C45.2121 43.4717 43.9743 42.6738 42.781 41.8124C42.2446 41.4171 41.6987 41.0312 41.181 40.5794C40.7702 40.2039 40.4096 39.7768 40.1081 39.3088C39.8902 38.9541 39.7312 38.5663 39.6375 38.1606C39.5354 37.494 39.7087 36.8146 40.1175 36.2783C40.278 36.0188 40.464 35.776 40.6728 35.5535C41.0681 35.248 41.5732 35.1217 42.0657 35.2053C42.7155 35.2399 43.3534 35.393 43.9481 35.6571C45.9999 36.5983 48.2022 37.6712 50.5363 38.7159C51.1089 38.9922 51.6623 39.3066 52.1928 39.6571L53.8399 40.6547L57.1716 42.7535L58.3575 43.5065C58.9222 43.8735 59.4493 44.2594 59.9481 44.6547L61.4728 45.8312L62.7904 47.0265C63.2023 47.321 63.5274 47.7208 63.7316 48.1841L64.0893 48.7771C64.1556 48.9646 64.2091 49.1564 64.2493 49.3512L64.3904 49.9065C64.4184 50.1315 64.4184 50.3591 64.3904 50.5841C64.2681 50.9794 64.2775 51.3277 64.1457 51.7041C63.9734 52.0939 63.7688 52.4685 63.534 52.8241C63.2017 53.2359 62.8331 53.617 62.4328 53.963C62.1504 54.1324 61.9057 54.3112 61.6046 54.4618C61.3067 54.6045 61.0175 54.7647 60.7387 54.9418C60.221 55.29 59.6846 55.6194 59.1293 55.9394L58.9787 55.7983Z" fill="black"/>
</svg>
