<svg width="96" height="96" viewBox="0 0 96 96" fill="none" xmlns="http://www.w3.org/2000/svg">
<path d="M54.7846 72.829C54.7846 72.829 56.9587 84.7914 57.9658 85.0643C59.9987 85.5161 65.7681 83.342 66.587 82.3255C67.6223 80.9796 64.6199 69.7514 64.874 69.6855C67.0481 68.7443 72.4034 65.149 73.3446 63.022C74.5117 60.4055 53.5799 34.3161 48.3658 33.8455C44.9964 33.5537 41.6458 69.9396 42.7752 73.2808C43.434 75.182 54.9823 72.622 54.7846 72.829Z" fill="black"/>
<path d="M22.8507 25.883C22.5589 25.9677 22.5401 25.5253 22.653 24.8006C22.7293 24.4632 22.8699 24.1436 23.0671 23.8594C23.2557 23.7367 23.454 23.6296 23.6601 23.5394C23.773 23.4924 25.2224 23.6618 25.7495 23.6994C26.231 23.7435 26.7018 23.8676 27.1424 24.0665C28.0528 24.4093 28.934 24.8247 29.7777 25.3089C29.9641 25.4287 30.1268 25.5819 30.2577 25.7606C30.7087 26.3605 31.2791 26.8605 31.933 27.2289C32.046 27.2853 32.1213 27.3889 32.3095 27.3512C32.4977 27.3136 34.1919 28.6218 34.286 28.9041C34.5589 29.6289 34.7942 30.2406 35.0389 30.8994C35.0389 30.9936 35.1707 31.0406 35.0954 31.21C34.926 31.6053 35.0954 31.7183 35.1895 31.8971C35.3117 32.1628 35.3941 32.445 35.4342 32.7347C35.4249 32.9275 35.3868 33.1179 35.3213 33.2994C35.3213 33.4689 34.8789 33.6759 34.813 33.6759C34.7471 33.6759 34.5024 33.8641 34.3519 33.9771C34.303 34.0235 34.2494 34.0645 34.1919 34.0994C33.5538 33.9928 32.9246 33.8387 32.3095 33.6383L32.0366 33.45L31.4248 33.0547C30.9542 32.8006 30.4836 32.5183 30.3895 32.4618C30.2954 32.4053 30.2671 32.2641 30.2201 32.1418C30.173 32.0194 28.8366 31.3041 28.7895 31.2665C28.5636 31.0406 28.2248 30.9559 28.1777 30.4853C28.1777 30.3912 28.1024 30.363 28.046 30.3347C27.5746 30.0047 27.1365 29.6296 26.7377 29.2147C26.5119 29.0359 26.2671 28.8853 26.0319 28.7159C25.9919 28.6716 25.96 28.6207 25.9377 28.5653C25.9073 28.4969 25.8623 28.4359 25.806 28.3865C25.2542 27.9799 24.6648 27.6269 24.046 27.3324C23.8954 27.2853 23.3777 26.5794 23.1801 26.5324C22.9824 26.4853 22.973 25.8547 22.8507 25.883Z" fill="black"/>
<path d="M42.6811 12.0093C42.4175 11.9058 42.7375 11.5952 43.3399 11.1246C43.6247 10.9201 43.9433 10.7671 44.2811 10.6729C44.5146 10.6944 44.745 10.7417 44.9681 10.814C45.0905 10.8611 46.0505 11.9058 46.4175 12.254C46.7332 12.5668 46.9688 12.9509 47.1046 13.374C47.4058 14.1929 47.7352 14.9834 47.9987 15.8023C48.0617 15.9868 48.0779 16.1841 48.0458 16.3764C47.973 17.0379 48.077 17.7069 48.347 18.3152C48.347 18.4187 48.347 18.5317 48.5634 18.5976C48.9805 19.2361 49.2059 19.9808 49.2128 20.7434C49.0058 21.374 48.7422 21.9952 48.5258 22.6258C48.5258 22.7199 48.5258 22.7952 48.3752 22.8893C47.9705 23.1058 48.0458 23.2752 47.9987 23.4634C47.8797 23.7311 47.7347 23.9864 47.5658 24.2258C47.4207 24.3334 47.2664 24.4279 47.1046 24.5081C46.9165 24.5789 46.7091 24.5789 46.5211 24.5081C46.3893 24.4046 46.1822 24.5081 46.0128 24.5081C45.9533 24.5129 45.8935 24.5129 45.834 24.5081C45.7775 24.5081 45.467 24.1881 45.0622 23.887C44.756 23.7163 44.4871 23.4859 44.2717 23.2093C44.2341 23.1093 44.1901 23.0119 44.1399 22.9176L43.8481 22.2964C43.7274 22.0888 43.6175 21.8752 43.5187 21.6564C43.4828 21.5239 43.4356 21.3948 43.3775 21.2705C43.3211 21.167 43.3775 21.0446 43.4622 20.9317C43.547 20.8187 42.9446 19.4823 42.9352 19.4258C42.9352 19.1152 42.747 18.8423 43.0481 18.4846C43.0862 18.4276 43.0862 18.3534 43.0481 18.2964C42.9374 17.7675 42.8932 17.2268 42.9164 16.687C42.8758 16.4195 42.816 16.1553 42.7375 15.8964C42.7375 15.8964 42.7375 15.7834 42.7375 15.727C42.7551 15.6623 42.7551 15.594 42.7375 15.5293C42.6389 14.8897 42.4846 14.2598 42.2764 13.647C42.2764 13.5152 42.427 12.7058 42.3328 12.574C42.2387 12.4423 42.7846 12.0564 42.6811 12.0093Z" fill="black"/>
<path d="M58.0036 25.6566C58.1448 25.9672 57.6366 26.0143 56.7707 25.9672C56.3723 25.9194 55.9861 25.7981 55.6319 25.6095C55.4569 25.4124 55.3023 25.198 55.1707 24.9695C55.0954 24.8284 55.1707 23.1813 55.0954 22.6072C55.081 22.0797 55.1607 21.5538 55.3307 21.0543C55.6027 20.0561 55.952 19.0806 56.3754 18.1366C56.47 17.9253 56.6079 17.7361 56.7801 17.5813C57.3542 17.0231 57.7866 16.3358 58.0413 15.5766C58.0884 15.4543 58.1731 15.3507 58.0413 15.1625C58.2202 14.28 58.6147 13.4555 59.1895 12.7625C59.8295 12.3201 60.366 11.8213 60.9778 11.3884C61.0625 11.3225 61.0625 11.2001 61.2884 11.2378C61.5665 11.3374 61.8756 11.217 62.0131 10.9554C62.245 10.7137 62.5235 10.5216 62.8319 10.3907C63.0676 10.3398 63.3115 10.3398 63.5472 10.3907C63.7825 10.3907 64.2719 10.946 64.3001 11.0307C64.3942 11.2754 64.7142 11.4166 64.9401 11.6048L65.1848 11.8025C65.2611 12.1549 65.2958 12.515 65.2884 12.8754C65.3368 13.2283 65.3368 13.5861 65.2884 13.939L65.1284 14.2684L64.7989 14.9743C64.5731 15.5201 64.3378 16.0848 64.3095 16.2166C64.2813 16.3484 64.1213 16.4143 63.9989 16.4895C63.8766 16.5648 63.3684 18.2401 63.3307 18.306C63.1142 18.6072 63.0766 19.0025 62.5495 19.1531C62.446 19.1531 62.4366 19.2566 62.4084 19.3225C62.1231 19.909 61.7727 20.4615 61.3636 20.9695C61.1999 21.2531 61.0583 21.5489 60.9401 21.8543C60.9401 21.9107 60.8366 21.939 60.7801 21.986C60.7236 22.0331 60.6389 22.0895 60.6107 22.1554C60.1801 22.8068 59.8174 23.5006 59.5284 24.226C59.4719 24.3954 58.7189 25.0166 58.6907 25.2237C58.6625 25.4307 57.9472 25.5343 58.0036 25.6566Z" fill="black"/>
</svg>
