<svg width="96" height="96" viewBox="0 0 96 96" fill="none" xmlns="http://www.w3.org/2000/svg">
<path d="M38.713 38.0462C36.9247 40.9545 35.1553 43.8815 33.4424 46.8556C32.8118 47.938 32.3035 49.0768 31.673 50.1498L28.3412 55.7968C27.2871 57.6792 26.2706 59.618 25.2635 61.5851C24.3788 63.3356 23.5977 65.1521 22.7412 66.9309C22.2309 68.1019 21.6364 69.2342 20.9624 70.3192C20.2664 71.4004 19.4759 72.4177 18.6 73.3592C18.0447 73.9333 17.7247 73.5756 17.6588 72.7192C17.5518 71.5253 17.6994 70.3223 18.0918 69.1898C18.3271 68.6251 18.4965 68.0227 18.76 67.4674L19.513 65.7827L20.9906 62.3474C21.9585 59.9569 23.0841 57.6334 24.36 55.3921C25.1506 54.018 25.9224 52.5686 26.6188 51.2133C27.3153 49.858 28.0212 48.3898 28.7647 46.9874C30.4024 43.938 32.0871 40.9168 33.8 37.8956L37 32.3427C38.6471 29.5192 40.3788 26.8086 41.9694 24.0227C42.5906 22.9403 43.1553 21.8392 43.7106 20.7286C44.2659 19.618 44.8118 18.5168 45.4612 17.4627C45.7435 17.0015 45.9788 16.5215 46.28 16.0603C46.647 15.4248 47.1327 14.8657 47.7106 14.4133C48.1127 14.157 48.5971 14.0628 49.0659 14.1498C49.2872 14.1624 49.5074 14.1907 49.7247 14.2345C50.0541 14.3286 50.2235 14.6298 50.2706 15.1003C50.3146 15.7141 50.2147 16.3297 49.9788 16.898C49.2266 19.0285 48.3272 21.1041 47.2871 23.1098C46.2047 25.1615 45.0659 27.1568 43.9459 29.1709C42.2612 32.1451 40.5671 35.138 38.8071 38.0933L38.713 38.0462Z" fill="black"/>
<path d="M48.9805 46.2343L43.9828 54.5072C43.3805 55.5143 42.8817 56.5778 42.2699 57.5849C40.1334 61.2178 37.884 64.7378 35.6817 68.2766C34.7405 69.839 33.8558 71.4954 32.9428 73.0766C31.8821 75.1782 30.6513 77.1896 29.2628 79.0907C28.8017 79.6743 28.2181 79.2507 27.8699 78.3472C27.4305 77.204 27.4541 75.9345 27.9358 74.8084C28.4346 73.7166 28.9523 72.6343 29.4793 71.5519C29.7523 71.0154 30.0158 70.4696 30.2981 69.9425L31.2393 68.3896C32.4628 66.3315 33.7554 64.3017 35.117 62.3001C35.9236 61.0891 36.6589 59.8321 37.3193 58.5354L38.2605 56.5684C38.5993 55.9096 38.9475 55.2507 39.3146 54.6013C40.9146 51.7778 42.524 48.9543 44.1711 46.1307L47.1923 40.9166C48.6981 38.2719 50.1946 35.6178 51.644 32.9637C52.1993 31.9284 52.6981 30.8743 53.2064 29.8107C53.6933 28.7396 54.2335 27.6936 54.8252 26.6766C55.0887 26.2343 55.3146 25.7825 55.597 25.3496C56.6605 23.7496 57.2534 23.4107 58.3075 23.6272C58.5499 23.6564 58.7893 23.7068 59.0228 23.7778C59.757 24.0413 59.8699 25.0484 59.3711 26.3754C58.6516 28.351 57.8124 30.2808 56.8581 32.1543C55.917 34.0366 54.844 35.919 53.8087 37.8013C52.284 40.6249 50.6464 43.4484 49.1028 46.2719L48.9805 46.2343Z" fill="black"/>
<path d="M63.4563 48.8032L59.0327 56.662C58.4869 57.6032 58.0916 58.6384 57.4892 59.5796C55.5127 62.949 53.2539 66.0549 51.2492 69.3396C50.308 70.789 49.5645 72.3043 48.8116 73.8008C47.8792 75.7655 46.7935 77.6537 45.5645 79.4479C45.1598 80.0032 44.6233 79.6737 44.3221 78.8737C43.8862 77.828 43.8296 76.6627 44.1621 75.5796C44.5386 74.5161 44.9057 73.4526 45.3386 72.4173C45.7716 71.382 46.2798 70.3937 46.8163 69.4055C47.8378 67.4138 48.9657 65.4785 50.1951 63.6079C51.6633 61.3396 52.8116 58.8267 54.101 56.4455C55.5316 53.829 56.9465 51.1906 58.3457 48.5302L60.9245 43.5984L64.8492 36.069C65.8469 34.1302 66.628 32.1067 67.588 30.1584C67.8045 29.7255 68.0116 29.3114 68.2563 28.8973C69.1974 27.4008 69.8186 27.0902 70.9198 27.3349C71.1678 27.3759 71.413 27.4325 71.6539 27.5043C72.4257 27.7867 72.5951 28.7655 72.2751 30.0267C71.7581 31.9123 71.0908 33.7535 70.2798 35.5326C69.4986 37.3396 68.6986 39.1467 67.748 40.8973L63.5692 48.8032H63.4563Z" fill="black"/>
<path d="M66.166 62.7608L62.9471 67.4102C62.5518 67.9749 62.2601 68.5961 61.8648 69.1514C60.4812 71.1467 59.0412 73.1325 57.8177 75.1937C57.2651 76.1086 56.7594 77.051 56.3024 78.0172C55.8042 79.2909 55.1732 80.5086 54.4201 81.6502C54.1565 81.989 53.6295 81.6502 53.2342 81.0855C52.7735 80.4646 52.6242 79.6662 52.8295 78.9208C53.9058 76.2773 55.2559 73.7537 56.8577 71.3914C57.7989 69.989 58.5518 68.3514 59.4177 66.8455C60.3589 65.189 61.413 63.589 62.4577 61.989L64.3401 59.0337C65.2812 57.5372 66.3071 56.069 67.1636 54.5255C67.8318 53.3302 68.3118 52.0502 68.886 50.8267C69.0177 50.5537 69.1118 50.262 69.253 49.9984C69.7895 49.0572 70.1942 48.8502 71.1354 49.1608C71.3563 49.2187 71.5732 49.291 71.7848 49.3772C72.483 49.6873 72.8176 50.4886 72.5471 51.2031C72.1983 52.4118 71.7416 53.5868 71.1824 54.7137C70.6083 55.8337 69.9495 56.9255 69.3001 58.0078C68.3024 59.6267 67.2295 61.189 66.2036 62.789L66.166 62.7608Z" fill="black"/>
<path d="M47.1084 30.3097L56.6049 35.1756C57.7531 35.7591 58.9578 36.2391 60.0967 36.8415L66.139 40.0603C67.0802 40.5968 68.1814 41.1521 69.1696 41.7262L72.1343 43.505C73.8723 44.5717 75.6292 45.5411 77.4049 46.4132C78.5343 46.9779 79.7108 47.4297 80.8308 48.0038L84.2472 49.745C84.9531 50.1121 84.7272 50.5262 83.9084 50.8462C82.7014 51.2809 81.3955 51.3625 80.1437 51.0815C79.4741 50.9256 78.8142 50.7307 78.1672 50.4979C77.5272 50.2532 76.9061 49.9803 76.2849 49.7073C75.0425 49.1615 73.8378 48.5591 72.6614 47.9473C70.3178 46.705 68.059 45.4909 65.8284 44.1826C63.1084 42.5826 60.0119 41.3591 57.1037 39.9756L47.4472 35.2791C45.4708 34.3379 43.488 33.4156 41.499 32.5121C38.4872 31.1285 35.4755 29.6885 32.3978 28.5591C31.2025 28.0979 30.0072 27.7309 28.7837 27.3638L26.9672 26.8462L25.179 26.2626C24.6519 26.0838 24.1249 25.9426 23.5978 25.7356C22.8869 25.5164 22.2208 25.1721 21.6308 24.7191C21.2866 24.3808 21.0761 23.9296 21.0378 23.4485C20.9928 23.2282 20.9645 23.0048 20.9531 22.7803C20.9531 22.4321 21.2167 22.2062 21.6684 22.0556C22.2778 21.8677 22.9233 21.829 23.5508 21.9426C25.9015 22.218 28.2229 22.7031 30.4872 23.3921C32.7555 24.1073 35.0237 24.945 37.2731 25.8391C40.6049 27.1756 43.9178 28.6062 47.1461 30.1779L47.1084 30.3097Z" fill="black"/>
<path d="M38.0162 38.9124L47.6821 43.6841C48.8586 44.2676 50.0821 44.7382 51.2586 45.3218L63.5786 51.5618C65.395 52.5029 67.2868 53.2747 69.1127 54.1312C71.5315 55.1164 73.875 56.2772 76.1245 57.6041C76.8115 58.0559 76.4445 58.63 75.5409 58.9876C74.325 59.43 72.9921 59.43 71.7762 58.9876L68.0115 57.5382C67.3903 57.2935 66.7692 57.0488 66.1292 56.7759L64.3221 55.9194C61.9127 54.7712 59.5315 53.5288 57.188 52.23C54.3645 50.6959 51.2586 49.5288 48.2939 48.1735C45.0374 46.6676 41.7809 45.1524 38.5339 43.5994L35.5786 42.2159C34.5809 41.7735 33.5739 41.3406 32.5574 40.9265C29.4703 39.6653 26.3456 38.4041 23.1927 37.3688C21.9692 36.9735 20.7268 36.6441 19.4939 36.3429C18.2609 36.0418 17.0186 35.7688 15.795 35.4018C15.2586 35.2606 14.7221 35.1476 14.1856 34.9971C12.2092 34.4041 11.6633 33.9994 11.4374 32.9735C11.3732 32.7452 11.326 32.5124 11.2962 32.2771C11.2398 31.5429 12.2374 31.11 13.8562 31.2512C18.6468 31.5618 23.268 33.1335 27.8798 34.7429C31.2962 35.9853 34.6939 37.3312 38.0539 38.8465L38.0162 38.9124Z" fill="black"/>
<path d="M36.5956 55.1847C39.3344 56.6718 42.0544 58.1588 44.8027 59.5894C45.8097 60.1165 46.8638 60.5306 47.8615 61.0388L53.1321 63.7588C54.9015 64.6435 56.7085 65.4906 58.5344 66.3188C60.1533 67.0435 61.8285 67.6835 63.4756 68.3423C65.6377 69.1121 67.7007 70.1357 69.6215 71.3918C70.2144 71.8153 69.885 72.2388 69.0944 72.4929C68.0287 72.8086 66.8943 72.8086 65.8285 72.4929L62.5721 71.5329L59.3533 70.3376C57.2074 69.5188 55.0615 68.6435 52.9438 67.6082C51.6732 66.9776 50.3368 66.46 49.0003 65.8671C47.6638 65.2741 46.3462 64.7282 45.0662 64.1071C42.2427 62.7329 39.4191 61.2835 36.6615 59.8529C34.9391 58.9776 33.2356 58.0835 31.5133 57.2365C28.8968 55.9471 26.2427 54.6388 23.6168 53.5094C21.5556 52.6435 19.4285 52.0506 17.3297 51.3823C16.8591 51.2412 16.3885 51.1 15.9556 50.9212C14.2709 50.2341 13.8285 49.7729 13.7815 48.7471C13.7629 48.5153 13.7629 48.2824 13.7815 48.0506C13.8474 47.3259 14.7227 47.0059 16.1438 47.1753C17.1786 47.2944 18.206 47.4704 19.2215 47.7023C20.2285 47.9565 21.245 48.2388 22.2427 48.5588C24.275 49.189 26.2624 49.9562 28.1909 50.8553C31.0709 52.1635 33.838 53.6318 36.6615 55.0529L36.5956 55.1847Z" fill="black"/>
<path d="M39.8039 67.0909C41.5733 67.9474 43.3615 68.7756 45.1215 69.6792C45.7615 69.9992 46.4391 70.2345 47.0791 70.5733L53.7803 74.2156C54.778 74.7427 55.7944 75.2133 56.8203 75.6556C58.1489 76.1594 59.4127 76.8198 60.585 77.6227C60.9427 77.9051 60.585 78.4227 60.0109 78.8086C59.3552 79.2668 58.5231 79.3921 57.7615 79.1474C55.0742 78.0596 52.4587 76.8022 49.9309 75.3827C48.3546 74.5789 46.7295 73.8747 45.065 73.2745C43.258 72.5215 41.4791 71.6933 39.6815 70.8933C38.5709 70.4039 37.4697 69.9521 36.3497 69.4439C34.6556 68.738 32.9709 67.9851 31.2486 67.4015C29.9121 66.9403 28.5191 66.6862 27.1827 66.3474C26.8815 66.2721 26.5803 66.2251 26.2415 66.1309C25.1403 65.7827 24.8862 65.4156 24.9991 64.418C25.0097 64.1907 25.0349 63.9644 25.0744 63.7403C25.2566 62.9821 26.0028 62.5012 26.7686 62.6486C28.0634 62.7826 29.3448 63.0251 30.5991 63.3733C31.8603 63.7498 33.1027 64.2015 34.3639 64.6815C36.2462 65.4062 38.0156 66.2156 39.8415 67.0062L39.8039 67.0909Z" fill="black"/>
<path d="M21.4426 43.8901C22.5721 42.083 23.6921 40.276 24.7744 38.4501C25.1697 37.7818 25.4803 37.0665 25.8756 36.4077C27.2591 34.0548 28.6991 31.7018 30.0168 29.3395C30.5857 28.2738 31.0947 27.1772 31.5415 26.0548C32.0326 24.5923 32.663 23.1804 33.4238 21.8383C33.9603 21.0101 35.8615 23.0712 35.2591 24.803C34.1582 27.8299 32.7352 30.7297 31.0144 33.4524C29.9885 35.0901 29.1321 36.916 28.1909 38.6383C27.1273 40.5207 26.0168 42.403 24.9062 44.2101L22.8638 47.6171C21.8473 49.3489 20.7838 51.0524 19.8615 52.8124C19.1462 54.1771 18.6097 55.636 17.9791 57.0195C17.8473 57.3301 17.7438 57.6407 17.5932 57.9607C17.0473 59.0901 16.6521 59.3348 15.7768 59.1654C15.5737 59.1324 15.3726 59.0885 15.1744 59.0336C14.525 58.8265 14.2803 58.0924 14.5438 57.2077C15.4403 54.4966 16.6268 51.8901 18.0826 49.4336C19.1273 47.5512 20.2473 45.716 21.3297 43.8618L21.4426 43.8901Z" fill="black"/>
</svg>
