<svg width="96" height="96" viewBox="0 0 96 96" fill="none" xmlns="http://www.w3.org/2000/svg">
<path d="M17.3926 69.4763C16.5658 68.6929 15.909 67.7479 15.4632 66.6998C15.0583 65.7424 14.7799 64.7362 14.6349 63.7069C14.4045 61.8275 14.4552 59.9242 14.7855 58.0598C14.9775 56.7315 15.2926 55.4239 15.7267 54.1539C17.2745 49.675 20.1917 45.7964 24.0655 43.0669C25.8356 41.8805 27.8319 41.073 29.929 40.6951C30.6002 40.5774 31.2806 40.5207 31.962 40.5257C32.641 40.5529 33.3172 40.6283 33.9855 40.7516L34.9643 40.9116C35.2749 41.0433 35.5761 41.2033 35.9055 41.3539C36.4936 41.6522 37.0597 41.9918 37.5996 42.3704C38.2679 42.8316 38.0326 43.0386 37.2514 43.2363C36.8561 43.3398 36.3102 43.4151 35.7455 43.5751C35.4443 43.6598 35.1338 43.7445 34.8043 43.8104C34.6443 43.8104 34.4843 43.8104 34.3243 43.9139H33.8632C32.8194 43.8302 31.7693 43.8808 30.7385 44.0645C29.7262 44.1981 28.7358 44.4639 27.7926 44.8551C26.8182 45.2948 25.8938 45.8375 25.0349 46.4739C24.1441 47.1687 23.3129 47.9369 22.5502 48.7704C20.7051 50.9927 19.4147 53.6219 18.7855 56.441C18.3687 57.9593 18.1163 59.5181 18.0326 61.0904C17.9382 62.5814 18.1827 64.0745 18.7479 65.4575C19.1122 66.2368 19.6615 66.9153 20.3479 67.4339C21.0492 68.0181 21.8582 68.4594 22.729 68.7328C25.3926 69.561 28.5173 68.7328 31.1996 67.3869C32.2464 66.8464 33.2446 66.2166 34.1832 65.5045C34.6632 65.1469 35.1243 64.7798 35.5855 64.4033L37.0067 63.3398C37.4208 63.0198 37.8067 62.6904 38.2396 62.3986C38.7895 61.9493 39.4054 61.5874 40.0655 61.3257C40.4749 61.2161 40.9079 61.2325 41.3079 61.3728C41.4742 61.4119 41.6377 61.4623 41.7973 61.5233C42.0138 61.6457 42.0232 61.8998 41.8914 62.3233C41.7018 62.9067 41.3797 63.4383 40.9502 63.8763C37.8922 67.6433 33.7946 70.4285 29.1667 71.8857C27.1999 72.5059 25.1188 72.6764 23.0773 72.3845C20.9161 72.047 18.9079 71.0626 17.3173 69.561L17.3926 69.4763Z" fill="black"/>
<path d="M57.0916 37.6554C55.8304 39.6319 54.6163 41.693 53.3834 43.7919L49.6751 50.0695C47.2614 54.4135 44.59 58.6093 41.6751 62.6342C39.4903 65.7143 36.8426 68.4382 33.8257 70.7095C31.0191 72.7585 27.7571 74.0956 24.3198 74.606C22.4576 74.8632 20.5606 74.6463 18.8045 73.9754C17.0534 73.298 15.5093 72.1755 14.3245 70.7189C13.1645 69.317 12.3317 67.674 11.8869 65.9095C11.6847 65.0693 11.5339 64.2175 11.4351 63.3589C11.341 62.5213 11.3222 61.6836 11.2939 60.846C11.3302 57.5182 11.9679 54.2245 13.1763 51.1236C14.2145 48.3318 15.7946 45.7729 17.8257 43.5942C19.9373 41.3304 22.6998 39.7781 25.7316 39.1519C26.2083 39.0271 26.6978 38.9576 27.1904 38.9448L28.6681 38.8413C29.1669 38.8413 29.6092 38.8413 30.1457 38.9072C30.6822 38.973 31.0869 39.0389 31.5857 39.133C33.4502 39.528 35.2564 40.1607 36.9598 41.0154C38.5801 41.8227 40.1515 42.7246 41.6657 43.7166C43.1904 44.6578 44.5645 45.7589 46.0234 46.7095C47.8116 47.9048 47.3692 48.2813 45.3457 48.0648C43.9872 47.89 42.6438 47.6131 41.3269 47.2366C39.6033 46.6868 37.918 46.0233 36.2822 45.2507C34.8154 44.5539 33.279 44.0145 31.6987 43.6413L30.5787 43.4342C30.2116 43.4342 29.8445 43.3401 29.4775 43.3307C29.1169 43.3121 28.7557 43.3121 28.3951 43.3307L27.3316 43.3872C26.9773 43.3875 26.6251 43.4414 26.2869 43.5472C25.9481 43.6319 25.5998 43.6695 25.261 43.773C24.6068 43.9997 23.9764 44.2897 23.3787 44.6389C22.0943 45.369 20.9527 46.3256 20.0092 47.4625C17.9974 49.9427 16.5865 52.8547 15.8869 55.9707L15.6139 57.166L15.4445 58.3895C15.2939 59.2083 15.3222 60.0178 15.2375 60.846V62.0695V62.6813L15.3034 63.2742C15.3598 63.6695 15.3881 64.093 15.4539 64.4695C15.5152 64.8354 15.6001 65.1969 15.7081 65.5519C16.1786 67.2707 17.2379 68.7697 18.701 69.7872C20.1871 70.8023 22.0082 71.2036 23.7834 70.9072C25.7568 70.5404 27.6476 69.8198 29.3645 68.7801L30.0234 68.4036L30.6445 67.9519C31.0587 67.6413 31.4916 67.3778 31.8869 67.0107C32.6933 66.3537 33.4631 65.6531 34.1928 64.9119C35.0304 64.1213 35.7645 63.2083 36.5363 62.333C37.3081 61.4578 37.9857 60.4978 38.6539 59.5095C40.0281 57.6272 41.2892 55.5378 42.5034 53.4578C43.7175 51.3778 44.8845 49.2319 46.0798 47.086L49.6657 40.6672C51.1245 38.0319 52.621 35.3401 54.3716 32.7801C56.1046 30.1387 58.1596 27.7233 60.4892 25.5895C64.141 22.3519 69.1292 20.206 74.2963 20.8083C75.5915 21.0085 76.8446 21.4219 78.0045 22.0319C81.4303 23.9011 83.8453 27.1992 84.5928 31.0295C84.8093 32.0147 84.8948 33.0243 84.8469 34.0319C84.8184 34.5366 84.7618 35.0393 84.6775 35.5378C84.5795 36.0175 84.457 36.4918 84.3104 36.9589C83.8009 38.8676 82.9003 40.6496 81.6657 42.1919L80.7245 43.3119C80.3951 43.6695 80.0092 43.9707 79.6516 44.3001C78.916 44.9381 78.136 45.5231 77.3175 46.0507C75.7045 47.0287 73.999 47.8452 72.2257 48.4883C70.7233 49.0578 69.1899 49.5417 67.6328 49.9378C65.6324 50.4898 63.571 50.7902 61.4963 50.8319C60.4473 50.8231 59.4297 50.4729 58.5975 49.8342C58.2606 49.6066 57.9455 49.3482 57.6563 49.0625C57.2892 48.5919 57.6563 48.046 58.5975 47.4436C60.0048 46.6182 61.5369 46.027 63.134 45.693C66.0369 45.0168 68.8893 44.1394 71.6704 43.0672C74.147 42.1402 76.3532 40.6101 78.0892 38.6154L78.5787 37.8625C78.6634 37.7401 78.7575 37.6272 78.8328 37.4954L79.021 37.0813L79.4069 36.2719C79.5198 35.9895 79.5857 35.6789 79.6798 35.3872C79.8715 34.8467 79.9917 34.2835 80.0375 33.7119C80.0665 33.1611 80.035 32.6087 79.9434 32.0648C79.5436 29.7347 78.1758 27.6829 76.1787 26.4178C75.4926 25.9592 74.7157 25.6543 73.901 25.5236C73.4753 25.451 73.0432 25.4226 72.6116 25.4389L71.1716 25.5707C69.2461 25.8793 67.4154 26.6193 65.8163 27.7354C64.035 28.9437 62.4482 30.4163 61.1104 32.1025C59.6674 33.8917 58.3497 35.7786 57.1669 37.7495L57.0916 37.6554Z" fill="black"/>
</svg>
