<svg width="96" height="96" viewBox="0 0 96 96" fill="none" xmlns="http://www.w3.org/2000/svg">
<path d="M39.0566 66.6528C36.7321 66.375 34.4896 65.6222 32.4683 64.441C31.7417 64.0391 31.0464 63.5829 30.3883 63.0763C28.1713 61.2743 26.2638 59.122 24.7413 56.7045C24.0636 55.6598 23.4048 54.6057 22.8589 53.5328C22.0684 52.1718 21.4037 50.7416 20.873 49.2598C20.5248 48.3187 21.6166 49.2598 22.5107 50.7563C24.0646 53.4585 25.8702 56.0079 27.9036 58.3704C29.158 59.7724 30.637 60.9556 32.2801 61.8716C33.161 62.3834 34.0797 62.8271 35.0283 63.1987C35.9658 63.5832 36.9403 63.8702 37.9366 64.0551C39.1753 64.3018 40.4411 64.3841 41.7013 64.2998C43.6206 64.2062 45.5063 63.7595 47.2636 62.9822C48.5655 62.3157 49.7717 61.4767 50.8495 60.4881C51.1036 60.2998 51.3107 60.0645 51.5554 59.8669C52.4966 59.1045 52.8166 58.9257 53.4378 59.1893C53.5883 59.2457 53.7483 59.2834 53.8801 59.3493C54.313 59.5657 54.2848 60.2904 53.7013 61.081C52.026 63.641 49.0989 65.2504 46.0777 66.154C43.7898 66.813 41.3956 67.0208 39.0283 66.7657L39.0566 66.6528Z" fill="black"/>
<path d="M59.235 17.5222L60.8444 17.8046C61.3835 17.9297 61.9146 18.0869 62.435 18.2752C63.4788 18.6171 64.4873 19.0583 65.4468 19.5928C66.1298 19.9791 66.7926 20.4 67.4327 20.854C69.3938 22.647 70.9915 24.8007 72.1385 27.1975L72.5527 27.9411L72.9197 28.7034C73.1908 29.1921 73.4358 29.6948 73.6538 30.2093C73.9174 30.8681 74.2091 31.5175 74.4538 32.1858C74.6799 32.8672 74.8499 33.566 74.9621 34.2752C75.0185 34.7175 74.6044 34.7834 74.0209 34.5952C73.3273 34.368 72.7305 33.9138 72.3268 33.3058C71.988 32.7128 71.6021 32.1481 71.2633 31.5646C71.1033 31.2728 70.8962 30.9999 70.7268 30.7175L70.2562 29.8517C69.6162 28.7034 68.9574 27.5834 68.2609 26.4822C68.0659 26.1353 67.8218 25.8183 67.5362 25.5411C67.2727 25.2587 66.9997 24.967 66.708 24.7034L65.7668 24.0164L65.2962 23.6681L64.7974 23.3764C63.3927 22.4309 61.8058 21.7897 60.1385 21.494L58.548 21.2681H56.9197C56.5025 21.2668 56.0863 21.3078 55.6774 21.3905L54.435 21.5693C53.6089 21.7433 52.7947 21.9696 51.9974 22.247C51.3792 22.4776 50.7863 22.7709 50.228 23.1222C49.6633 23.4611 49.0891 23.7528 48.5433 24.1481C48.3132 24.3193 48.071 24.4734 47.8185 24.6093C46.8774 25.0893 46.4162 24.9952 45.7574 24.2987C45.6068 24.1387 45.4374 23.9881 45.3056 23.8187C44.869 23.1951 44.9973 22.3388 45.5974 21.8705C46.0634 21.3843 46.5601 20.9285 47.0844 20.5058C47.6375 20.1161 48.2161 19.764 48.8162 19.4517C49.422 19.0963 50.0508 18.7819 50.6985 18.5105C51.3574 18.2658 52.0444 18.0775 52.7315 17.8799C53.7836 17.641 54.849 17.465 55.9221 17.3528C56.468 17.3528 57.0233 17.3528 57.5785 17.3528C58.1316 17.3329 58.6853 17.3549 59.235 17.4187V17.5222Z" fill="black"/>
<path d="M31.3385 61.4654C33.5428 63.4928 36.296 64.8253 39.2537 65.296C40.291 65.3918 41.3365 65.3411 42.3596 65.1454C46.0208 64.7031 49.6914 62.0395 52.3737 58.6419C53.5314 57.1011 54.4807 55.4144 55.1973 53.6254C56.1385 51.3195 56.6467 48.9195 57.4373 46.5572C57.6914 45.8136 58.5385 45.9925 59.3196 46.8113C60.2905 47.8733 60.6962 49.3349 60.4114 50.7454C59.2592 56.4814 56.2009 61.6592 51.7337 65.4372C50.3219 66.597 48.8173 67.6389 47.2349 68.5525C45.5635 69.4997 43.7268 70.1194 41.8232 70.3783C39.7431 70.6263 37.6345 70.4567 35.6208 69.8795C33.694 69.3279 31.8558 68.5039 30.162 67.4325C28.1501 66.1447 26.3014 64.6184 24.6561 62.8866C22.2539 60.2852 20.2266 57.3613 18.6326 54.1995C17.2868 51.808 16.1893 49.2851 15.3573 46.6701C15.165 46.0815 15.0109 45.481 14.8961 44.8725C14.529 42.5572 15.1314 41.7478 16.5808 41.3242C16.8964 41.1935 17.2203 41.0835 17.5502 40.9948C18.6985 40.8536 19.5832 41.7007 20.1102 43.0089C21.4077 46.9565 23.1774 50.7329 25.3808 54.256C26.9647 56.9482 28.9989 59.3485 31.3949 61.3525L31.3385 61.4654Z" fill="black"/>
<path d="M9.07982 35.6122C10.3528 32.9599 12.6335 30.9266 15.4139 29.9651H15.5928C16.2327 29.8085 16.894 29.7577 17.5504 29.8145C17.8871 29.8528 18.2206 29.9157 18.5481 30.0028C18.7081 30.0592 18.8869 30.1063 19.0281 30.1628L19.4045 30.3416C20.8092 31.1357 22.0876 32.135 23.1975 33.3063C24.2233 34.3322 25.1645 35.3487 26.1245 36.3369C26.9625 37.1895 27.8622 37.9791 28.8163 38.6992C30.021 39.6404 31.2351 40.4028 32.2986 41.3345C32.6186 41.6169 32.3645 42.2757 31.6775 42.7463C30.88 43.3373 29.8344 43.476 28.9104 43.1134C27.4002 42.3751 25.9819 41.4622 24.6845 40.3934C23.4622 39.4025 22.3053 38.3336 21.221 37.1934C20.5961 36.5566 19.8867 36.0088 19.1128 35.5651C18.7656 35.36 18.4039 35.1807 18.0304 35.0287L17.5504 34.831C17.4584 34.8082 17.3698 34.7734 17.2869 34.7275C17.1184 34.666 16.9375 34.6466 16.7598 34.671C16.5569 34.7279 16.3587 34.8002 16.1669 34.8875C15.9267 35.0169 15.697 35.1648 15.4798 35.3298C14.9914 35.7233 14.5634 36.1863 14.2092 36.704C13.5444 37.6739 12.9978 38.7197 12.581 39.8192C11.8939 41.6015 11.4385 43.4646 11.2257 45.3628C11.1472 46.8449 11.1944 48.331 11.3669 49.8051C11.3669 50.1345 11.4328 50.4545 11.4233 50.7463C11.3763 51.9604 11.0751 52.3463 9.95511 52.6287C9.70099 52.6851 9.44688 52.7604 9.19276 52.7981C8.30956 52.8998 7.49403 52.3127 7.31041 51.4428C6.85495 50.031 6.61384 48.559 6.59511 47.0757C6.50907 43.1112 7.31311 39.1779 8.94805 35.5651L9.07982 35.6122Z" fill="black"/>
<path d="M65.3151 24.2052C63.3187 22.3574 60.7376 21.2683 58.021 21.1276C57.5221 21.1276 57.0233 21.1276 56.5245 21.2029C56.0257 21.2781 55.5833 21.4099 55.0374 21.4476C51.212 22.2933 47.7892 24.4181 45.3339 27.4711C44.7291 28.1598 44.1725 28.8894 43.668 29.6546C43.1974 30.4546 42.7268 31.2264 42.2845 32.0546C41.1833 34.1534 40.4021 36.384 39.1786 38.4829C38.7927 39.1323 38.0115 38.7652 37.4186 37.8617C36.6863 36.7491 36.4993 35.3639 36.9104 34.097C37.8192 31.6046 39.003 29.2213 40.4398 26.9911C41.9184 24.6697 43.795 22.6274 45.9833 20.9581C46.6704 20.4781 47.3386 19.9605 48.0445 19.4805C48.7504 19.0005 49.4657 18.5393 50.2657 18.1252L51.4327 17.4758L52.6751 16.9676C53.5078 16.6463 54.3677 16.4006 55.2445 16.2334C59.1378 15.5765 63.138 16.3165 66.5386 18.3229C68.5098 19.5325 70.2815 21.0406 71.7904 22.7934C73.9431 25.3898 75.6856 28.3003 76.9574 31.424C78.0606 33.7538 78.9764 36.1677 79.6963 38.6429C79.8711 39.187 80.0033 39.744 80.0915 40.3087C80.1718 40.7558 80.2065 41.2099 80.1951 41.664C80.1651 41.9923 80.0724 42.3118 79.9221 42.6052C79.5929 43.137 79.0578 43.5085 78.4445 43.6311C78.137 43.7449 77.8227 43.8392 77.5033 43.9134C76.2964 44.0031 75.2017 43.2069 74.9151 42.0311C74.1998 40.1487 73.5598 38.2664 72.8163 36.384C72.0727 34.5017 71.1974 32.7793 70.3221 30.9817C69.0918 28.4314 67.3638 26.153 65.2398 24.2805L65.3151 24.2052Z" fill="black"/>
<path d="M86.0024 47.4712C85.3992 48.7167 84.5547 49.83 83.5177 50.7464C83.1977 50.9912 82.8777 51.2264 82.5765 51.4429C82.2753 51.6594 81.88 51.7912 81.5224 51.9512C81.1521 52.0887 80.7712 52.1957 80.3835 52.2712L79.8094 52.4029H79.2353C78.697 52.4555 78.1548 52.4555 77.6165 52.4029L76.8447 52.2806C76.604 52.2214 76.3705 52.1362 76.1482 52.0264C74.7541 51.3802 73.5054 50.4581 72.4777 49.3159C71.5397 48.3314 70.6895 47.2669 69.9365 46.1347C69.2682 45.1935 68.6 44.2523 67.96 43.3112C67.042 42.1013 66.4519 40.6748 66.2471 39.17C66.2471 38.6806 66.8965 38.5676 67.7059 38.6617C68.1235 38.712 68.534 38.8099 68.9294 38.9535C69.2993 39.0595 69.6277 39.2763 69.8706 39.5747C71.4141 41.6264 72.9765 43.6876 74.5765 45.617C75.4738 46.6453 76.7023 47.3278 78.0494 47.5464C78.529 47.7065 79.0475 47.7065 79.5271 47.5464C80.0867 47.346 80.5614 46.9609 80.873 46.4547C81.4458 45.5738 81.9074 44.6255 82.2471 43.6312C82.84 41.9935 83.4518 40.2335 83.9506 38.4735C84.3365 37.0994 84.5153 35.65 84.8918 34.2664C84.9633 33.9474 85.0545 33.6331 85.1647 33.3253C85.6635 32.2429 86.1059 32.0359 87.2259 32.2994C87.48 32.3653 87.7341 32.4123 87.9694 32.497C88.7589 32.7706 89.2599 33.5474 89.1835 34.3794C89.142 35.5989 88.9876 36.8119 88.7224 38.0029C88.4965 39.2076 88.2047 40.3747 87.913 41.617C87.4541 43.6427 86.8438 45.631 86.0871 47.5653L86.0024 47.4712Z" fill="black"/>
</svg>
