<svg width="96" height="96" viewBox="0 0 96 96" fill="none" xmlns="http://www.w3.org/2000/svg">
<path d="M16.5801 26.229C16.5801 26.229 20.7965 21.2031 22.5095 22.6902C24.0624 24.036 24.3165 26.8407 24.3165 26.8407L19.0083 32.5443L16.5801 26.229Z" fill="black"/>
<path d="M35.2719 16.2439C25.9354 22.7757 19.573 40.5921 21.2389 43.7921C22.133 45.5145 11.8271 42.5027 11.8271 42.5027L31.5919 14.7568L35.2719 16.2439Z" fill="black"/>
<path d="M27.8467 72.7232C33.6883 70.7907 39.6114 69.0966 45.6161 67.6409C47.7997 67.1138 49.9738 66.5115 52.2044 66.0879C56.0161 65.3726 59.8655 64.8173 63.7432 64.4597C64.6844 64.375 65.6255 64.2903 66.642 64.2244L69.315 64.0644C69.7369 64.0598 70.1582 64.0283 70.5761 63.9703C70.6746 63.9541 70.77 63.9223 70.8585 63.8762C70.9422 63.8043 70.9722 63.6878 70.9338 63.5844L70.6797 63.0197L70.5667 62.7844L70.3032 62.2385L69.7385 61.1185L68.562 58.7656C67.7714 57.2032 67.0091 55.622 66.2561 54.0597C65.315 52.0267 64.3738 49.975 63.555 47.8479C63.1506 46.7726 62.805 45.6761 62.5197 44.5632C62.3615 44.0039 62.2606 43.43 62.2185 42.8503C62.1428 42.2635 62.1051 41.6725 62.1055 41.0809C62.1055 39.575 62.962 39.7632 64.0914 40.7326C64.757 41.3207 65.3857 41.9494 65.9738 42.615C66.6782 43.4846 67.2288 44.4682 67.602 45.5232C68.5903 48.262 69.7761 51.0009 71.0185 53.7303C71.6459 55.0981 72.2734 56.4628 72.9008 57.8244L73.842 59.8667L73.9644 60.1209L74.2091 60.5915L74.7173 61.5797C75.0561 62.2385 75.4044 62.8879 75.6585 63.5373L75.8185 64.375V65.0715C75.8056 65.2961 75.7612 65.5179 75.6867 65.7303C75.6011 65.9877 75.4739 66.2293 75.3103 66.4456C74.5949 67.287 73.5846 67.8225 72.4867 67.942C71.8373 68.0362 71.1973 68.1209 70.5197 68.1585L69.522 68.2244H68.9291L66.755 68.2997C61.3903 68.4785 55.9126 69.655 50.5479 70.8409C44.6467 72.1491 38.7832 73.7585 32.9855 75.622C31.1973 76.1867 29.4279 76.7891 27.6491 77.3915C25.8703 77.9938 24.4867 78.5491 21.9173 79.6785L21.4185 79.8856L20.1385 80.055L19.4985 80.1397C19.282 80.2338 19.075 80.0832 18.9055 79.942C18.2592 79.2662 17.7819 78.447 17.5126 77.5515C17.3526 77.0715 17.2114 76.6103 17.0891 76.0832L16.8161 74.9632C16.6655 74.2667 16.5244 73.5609 16.3832 72.8644C15.8561 70.0409 15.442 67.2173 15.122 64.4691C14.4573 60.0332 14.1426 55.552 14.1808 51.0667C14.19 50.0502 14.2592 49.0351 14.3879 48.0267C14.569 46.6304 15.0611 45.2924 15.8279 44.1115C16.3391 43.5224 17.0307 43.1187 17.795 42.9632C18.0418 42.8898 18.2934 42.8332 18.5479 42.7938C18.8867 42.7938 18.9432 43.1703 19.0844 43.895C19.3057 44.8414 19.3598 45.8193 19.2444 46.7844C19.1408 48.5444 19.075 50.3609 19.0938 52.2338C19.1126 54.1067 19.2161 55.9985 19.3761 57.9562C19.6961 61.8244 20.1667 65.7962 20.8632 69.6926C21.155 71.3491 21.5032 73.0809 21.8891 74.5867C21.8891 74.5867 21.8891 74.6809 21.8891 74.6715L22.482 74.4926H22.5573L22.7173 74.4362L23.1691 74.2762L24.1103 73.9467C25.3338 73.5044 26.5667 73.062 27.7997 72.6479L27.8467 72.7232Z" fill="black"/>
<path d="M14.7921 42.7092C14.7385 42.7733 14.697 42.8467 14.6698 42.9257C14.6698 43.0292 14.745 43.048 14.8015 43.0668C14.8796 43.0767 14.9587 43.0767 15.0368 43.0668H15.225H15.3286L15.7803 42.9633C18.2368 42.3515 20.7592 41.5892 23.3098 40.8268C25.145 40.2715 26.9521 39.6033 28.8062 39.0668C35.3709 37.1015 42.0627 35.5889 48.8345 34.5398C51.868 34.0766 54.9255 33.7875 57.9921 33.6739C59.9856 33.5901 61.9825 33.6845 63.9592 33.9562C64.962 34.0914 65.951 34.3151 66.9145 34.6245C67.8929 34.9519 68.8383 35.371 69.738 35.8762C70.8392 36.5445 70.3027 37.1186 69.0886 37.4386C68.3517 37.6395 67.5993 37.778 66.8392 37.8527C65.9041 38.0047 64.9507 38.0047 64.0156 37.8527C60.3556 37.3453 56.646 37.3042 52.9756 37.7304C49.2109 38.1068 45.4462 38.7657 41.6815 39.4904C37.0289 40.5457 32.446 41.8878 27.9592 43.5092L20.4298 45.9562C19.1498 46.3515 17.8603 46.7374 16.5333 47.0857C15.5643 47.3585 14.5765 47.5599 13.578 47.688C12.7174 47.8116 11.8401 47.7441 11.0086 47.4904C10.484 47.3698 10.016 47.0744 9.68152 46.6527C9.47506 46.2155 9.38432 45.7327 9.41799 45.2504C9.52359 44.1242 9.84302 43.0286 10.3592 42.0221L10.7639 41.1939L11.1592 40.4409L11.7709 39.3398C12.185 38.6151 12.618 37.8998 13.0509 37.1939C15.7235 32.9728 18.6071 28.8892 21.6909 24.9586C23.9754 21.8491 26.4326 18.8703 29.0509 16.0362C29.6533 15.4151 30.2368 14.7939 30.9333 14.2198C33.4745 12.1021 34.8298 11.8762 35.9121 12.6292C36.1754 12.7803 36.4189 12.9637 36.6368 13.1751C36.9032 13.5894 36.8649 14.1296 36.5427 14.5021C36.0851 15.1677 35.5371 15.7664 34.9145 16.2809C32.5567 18.5245 30.3555 20.927 28.3262 23.4715C26.1709 26.088 24.0533 28.8362 22.0109 31.6598C20.505 33.7586 19.0368 35.8951 17.6439 38.0692C16.9568 39.1515 16.2792 40.2433 15.658 41.3445L15.1968 42.1727L14.9898 42.5492V42.5492C14.9656 42.579 14.9436 42.6104 14.9239 42.6433L14.7921 42.7092Z" fill="black"/>
<path d="M56.4491 31.0303L51.7432 27.7832C51.1691 27.3879 50.5291 27.0773 49.955 26.6632C47.9586 25.1324 46.0512 23.489 44.242 21.7409C43.4608 20.9409 42.5573 20.282 41.7385 19.5479C40.605 18.6688 39.6795 17.5505 39.0279 16.2726C38.8208 15.8585 39.3291 15.482 40.0914 15.2656C40.8994 14.9802 41.7844 15.0037 42.5761 15.3314C42.8585 15.5197 43.1503 15.7079 43.4514 15.8679L43.8938 16.1314L44.2703 16.4609C44.7597 16.9126 45.2114 17.402 45.7667 17.7973C46.7079 18.7385 47.7432 19.6044 48.7032 20.6209C49.3009 21.2065 49.9641 21.7212 50.6797 22.155L52.8256 23.5385C54.3691 24.5926 55.9503 25.6467 57.5314 26.7009L60.5056 28.6397C62.0208 29.5809 63.442 30.7667 64.9291 31.7738C66.0773 32.5644 67.3573 33.1573 68.4208 34.0514C68.6719 34.2266 68.9109 34.4184 69.1361 34.6256C69.955 35.435 70.0773 35.8585 69.7479 36.5832C69.6726 36.7432 69.6161 36.9126 69.5314 37.0632C69.2397 37.5432 68.5903 37.6185 67.7714 37.3267C67.1785 37.1103 66.6232 36.8561 66.0208 36.6491L65.1361 36.3197C64.8538 36.2067 64.5997 36.0373 64.3267 35.8962C63.2444 35.3314 62.1997 34.7009 61.1173 34.0891C59.5173 33.2138 58.002 32.1314 56.4114 31.1244L56.4491 31.0303Z" fill="black"/>
<path d="M13.4464 20.6487C13.4464 20.5922 13.4935 20.5546 13.4464 20.4887L13.5029 20.3381C13.8036 19.7677 14.1945 19.2497 14.6605 18.804C14.9997 18.4831 15.3719 18.1991 15.7711 17.9569C16.4707 17.5288 17.2117 17.1725 17.9829 16.8934C18.5368 16.6544 19.1098 16.4623 19.6958 16.3193C19.9782 16.2628 20.204 16.2251 20.5335 16.1875C20.9251 16.1212 21.3225 16.0959 21.7193 16.1122C22.4496 16.1159 23.1652 16.3176 23.7899 16.6957C24.0895 16.8735 24.3338 17.1309 24.4958 17.4393C24.5614 17.5875 24.6118 17.742 24.6464 17.9004C24.6914 18.0634 24.7198 18.2306 24.7311 18.3993C24.7594 18.7658 24.7594 19.1339 24.7311 19.5004C24.7311 19.8675 24.7311 20.2534 24.7311 20.4416C24.7183 21.268 24.7529 22.0945 24.8346 22.9169C24.9908 23.9714 24.9589 25.0453 24.7405 26.0887C24.637 26.4181 24.0064 26.3899 23.3288 26.1451C22.6511 25.9004 21.8888 25.4204 21.7288 24.8275C21.4277 23.8066 21.2724 22.7483 21.2676 21.684V20.8934V20.4981C21.2676 20.404 21.2676 20.4228 21.2676 20.404H21.324C21.4736 20.2863 21.5769 20.1197 21.6158 19.9334C21.6158 19.6604 21.3993 19.6228 21.2017 19.6228H21.0511H20.7688L19.9405 19.7734C19.3004 19.879 18.6707 20.0396 18.0582 20.2534C17.7701 20.3546 17.4901 20.4773 17.2205 20.6204C17.0025 20.7342 16.7947 20.8664 16.5993 21.0157C16.5063 21.0931 16.4268 21.1853 16.364 21.2887C16.2928 21.4279 16.2633 21.5848 16.2793 21.7404C16.3058 22.0153 16.3466 22.2887 16.4017 22.5593C16.6692 23.8433 17.0438 25.1026 17.5217 26.324C17.9457 27.2298 18.4697 28.0853 19.084 28.8746C19.197 29.0534 19.357 29.1946 19.4699 29.3734C19.6457 29.5936 19.727 29.8745 19.6958 30.1546C19.608 30.441 19.4532 30.7024 19.244 30.9169C19.1217 31.0675 19.0182 31.2181 18.8958 31.3593C18.7143 31.583 18.4404 31.7113 18.1523 31.7075C17.8084 31.7002 17.4769 31.5776 17.2111 31.3593C15.72 29.893 14.6116 28.0832 13.9829 26.0887C13.7097 25.3491 13.5018 24.5869 13.3617 23.811C13.2864 23.4251 13.2205 23.0016 13.1735 22.5593V22.1922C13.1544 22.0233 13.1544 21.8528 13.1735 21.684C13.1765 21.3354 13.2175 20.9883 13.2958 20.6487H13.4464Z" fill="black"/>
<path d="M28.232 57.4201C28.825 58.0507 37.8038 55.4248 38.312 55.1707C38.8202 54.9166 37.6438 48.5072 36.7497 46.6437C36.2602 45.6178 26.8767 47.3684 26.8767 47.3684C26.5473 47.4248 26.8955 56.0178 28.232 57.4201Z" fill="black"/>
<path d="M56.3543 52.6585C55.9873 53.4396 46.632 53.7408 46.0767 53.6655C45.5214 53.5902 44.6273 47.1243 44.9002 45.0537C45.0414 43.9243 54.5096 42.6632 54.5096 42.6632C54.8579 42.6349 57.1826 50.9079 56.3543 52.6585Z" fill="black"/>
<path d="M71.3091 67.7263C74.5208 66.8357 77.7791 66.1225 81.0691 65.5898C81.4362 65.5145 81.7938 65.4393 82.0103 65.3734H82.1327V65.3734V65.3734L82.1985 65.5145L82.2927 65.7404C82.4056 66.0228 82.6127 66.3616 82.7068 66.5498C82.7636 66.6618 82.8297 66.7689 82.9044 66.8698C82.9544 66.9558 83.011 67.0376 83.0738 67.1145L83.2338 67.2934C83.2749 67.3314 83.319 67.366 83.3656 67.3969C83.535 67.491 83.4503 67.3969 83.2338 67.5381C83.1837 67.5681 83.1364 67.6028 83.0927 67.6416V67.6416V67.6416L81.7091 68.931V68.931V68.931V68.931V68.931V68.8745L81.5774 68.8087L81.3233 68.6581C81.1974 68.6039 81.0685 68.5567 80.9374 68.5169C79.6148 68.1095 78.2449 67.8754 76.8621 67.8204C74.543 67.7722 72.2231 67.8697 69.9162 68.1122C61.6626 68.7929 53.4669 70.0509 45.3891 71.8769C41.775 72.6675 38.1986 73.6651 34.7068 74.7757C32.4762 75.5193 30.2174 76.1781 27.9774 76.8745L24.608 77.9287L22.8574 78.4275C22.3021 78.6063 21.7091 78.7193 21.1444 78.8981C19.7138 79.2651 19.7797 79.0016 20.6833 77.9569C22.1281 76.2625 23.902 74.8793 25.8974 73.891C27.008 73.3451 28.128 72.8087 29.248 72.3004L30.9421 71.5381L32.6833 70.9357C35.0174 70.1451 37.3891 69.4393 39.7233 68.771C44.4617 67.4171 49.2849 66.3796 54.1609 65.6651C60.015 64.8463 66.0291 63.5757 72.1938 63.2557C73.9116 63.1569 75.6337 63.1569 77.3515 63.2557C79.2257 63.3138 81.0784 63.6729 82.8385 64.3193L83.6009 64.7145L83.9774 64.9122C84.0997 64.9969 84.2315 65.1098 84.3633 65.2134L84.7397 65.5334L84.975 65.7593L85.0691 65.8345L85.2574 66.0698L85.3515 66.2016L85.4738 66.4181C85.5657 66.5862 85.6323 66.767 85.6715 66.9545C85.7141 67.1942 85.7141 67.4396 85.6715 67.6793C85.652 67.921 85.5882 68.1571 85.4833 68.3757C85.348 68.6703 85.1524 68.9333 84.9091 69.1475C84.7789 69.2582 84.6405 69.3589 84.495 69.4487C84.1841 69.6296 83.8522 69.7718 83.5068 69.8722C83.2527 69.9569 83.0268 70.0134 82.8009 70.0698C82.3491 70.1734 81.935 70.2675 81.5209 70.3428C79.8738 70.6722 78.3021 70.9734 76.7397 71.284C72.8894 72.0961 69.1308 73.2943 65.5209 74.8604C61.6407 76.5574 58.009 78.7737 54.7256 81.4487L54.8856 81.2887C54.7002 81.1077 54.4913 80.9526 54.2644 80.8275C54.1859 80.7709 54.096 80.7324 54.0009 80.7145C53.9554 80.6972 53.9052 80.6972 53.8597 80.7145V80.7145C53.9068 80.6776 53.9373 80.6234 53.9444 80.564C54.04 80.3393 54.1003 80.1012 54.1233 79.8581V79.6228C54.1233 79.5287 54.1233 79.6228 54.1233 79.6228H54.2268H54.4621C54.8197 79.6228 55.2433 79.5098 55.648 79.4251C56.4762 79.2557 57.3233 79.0393 58.1609 78.8228C62.7162 77.6463 67.1303 76.1216 71.855 75.1616C72.8997 74.9545 73.9256 74.7287 75.0362 74.6157C76.5854 74.3599 78.1741 74.4958 79.6574 75.011C80.1383 75.2161 80.5593 75.5399 80.8809 75.9522C81.1337 76.2892 81.2722 76.698 81.2762 77.1193C81.3078 77.4458 81.2388 77.7742 81.0786 78.0604C80.7962 78.4087 80.3256 78.3428 79.8738 78.4934C79.582 78.571 79.2817 78.6121 78.9797 78.6157L77.5115 78.7004C75.6619 78.8794 73.8279 79.194 72.0244 79.6416C70.1421 80.1028 68.1844 80.5828 66.2174 81.1851L60.2786 82.7004C59.2527 82.9828 58.2268 83.2651 57.135 83.5193C56.5797 83.651 56.0433 83.7828 55.3656 83.8863C54.9155 83.9681 54.4582 84.0028 54.0009 83.9898C53.8914 84.0021 53.781 84.0021 53.6715 83.9898C53.5261 83.9756 53.3816 83.9536 53.2386 83.924C52.9973 83.8606 52.7613 83.7788 52.5327 83.6793C52.2944 83.5717 52.0701 83.4358 51.8644 83.2745C51.6225 83.0877 51.4099 82.8656 51.2338 82.6157C50.9879 82.2715 50.8061 81.8857 50.6974 81.4769C50.598 81.0116 50.598 80.5305 50.6974 80.0651C50.7155 79.9459 50.7471 79.8291 50.7915 79.7169C50.862 79.4459 50.963 79.1839 51.0927 78.9357L51.215 78.7569C51.2903 78.644 51.3844 78.5216 51.4691 78.4181L51.6291 78.2298L51.8456 78.0416L52.7868 77.2416C58.2717 72.8797 64.5486 69.6198 71.2715 67.6416L71.3091 67.7263Z" fill="black"/>
</svg>
