<svg width="96" height="96" viewBox="0 0 96 96" fill="none" xmlns="http://www.w3.org/2000/svg">
<path d="M61.3222 59.0046C63.3192 59.4839 65.2643 60.1586 67.1292 61.0188C68.0139 61.414 68.8986 61.8376 69.6422 62.1105C70.028 62.2611 70.4422 62.3646 70.8469 62.5058C71.2516 62.647 71.6563 62.7129 72.0704 62.7693C73.2484 62.9625 74.45 62.9625 75.628 62.7693C77.728 62.4636 79.6675 61.4707 81.1433 59.9458C81.9192 59.1799 82.5562 58.285 83.0257 57.3011C83.4803 56.3419 83.7181 55.2943 83.7222 54.2329C83.7174 52.3081 82.8378 50.49 81.3316 49.2917C80.8492 48.873 80.3257 48.504 79.7692 48.1905C79.1978 47.9009 78.6065 47.6524 77.9998 47.447C76.767 46.9794 75.5104 46.5772 74.2351 46.2423C73.4163 46.007 73.5292 45.6682 74.3104 45.3011C75.5706 44.6731 76.9988 44.4653 78.3857 44.7082L79.5339 45.0282L80.6633 45.4988C81.0467 45.6497 81.4153 45.8355 81.7645 46.054C82.1354 46.2532 82.4909 46.4797 82.828 46.7317C84.2784 47.7447 85.4032 49.1572 86.0657 50.7976C86.7279 52.4481 86.9137 54.2514 86.6022 56.0023C86.2893 57.6724 85.6006 59.2495 84.588 60.614C83.4184 62.2236 81.9482 63.5915 80.2586 64.6423C78.5181 65.6817 76.5511 66.2824 74.5269 66.3929C72.3855 66.4848 70.2475 66.1455 68.2398 65.3952C66.2727 64.6423 64.6728 63.8611 62.9033 63.3246C60.738 62.6561 58.5014 62.2454 56.2398 62.1011C52.738 61.8839 49.2229 62.1244 45.7833 62.8164C43.1407 63.3923 40.5427 64.1566 38.0092 65.1035C37.4445 65.2917 36.908 65.5176 36.3433 65.7246C34.2351 66.4399 33.5198 66.4023 32.701 65.574C32.5107 65.3967 32.3344 65.2047 32.1739 64.9999C31.7222 64.3129 32.3998 63.4188 33.9339 62.694C38.6965 60.4926 43.7802 59.066 48.9928 58.4682C49.9904 58.3458 50.9975 58.2423 52.0233 58.214L53.5575 58.1482H55.101C57.191 58.1828 59.2722 58.4288 61.3128 58.8823L61.3222 59.0046Z" fill="black"/>
<path d="M25.8966 63.5318C28.2046 63.4187 30.4914 63.0365 32.7107 62.393C35.1107 61.6683 37.6425 60.8589 40.2401 60.1624C42.9168 59.3797 45.6566 58.8318 48.4284 58.5248C51.3286 58.2193 54.2586 58.3622 57.1154 58.9483C57.6425 59.0424 58.1601 59.1648 58.6684 59.306C59.1766 59.4471 59.7225 59.5695 60.1743 59.7107L62.9319 60.5389L68.1649 62.1013C69.5704 62.5441 71.0132 62.8591 72.4754 63.0424C73.7946 63.2305 75.1368 63.1795 76.4378 62.8918C77.7172 62.6172 78.9275 62.0857 79.9954 61.3295C81.1401 60.5507 82.1563 59.5981 83.0072 58.506C83.8438 57.479 84.459 56.2902 84.8143 55.0142C85.1345 53.8655 85.075 52.6441 84.6449 51.5318C84.1436 50.3951 83.2707 49.4625 82.1696 48.8871C81.5685 48.5597 80.9384 48.2887 80.2872 48.0777C79.555 47.901 78.8135 47.7659 78.066 47.673C76.6637 47.4848 75.1672 47.3813 73.6237 47.1554C71.9527 46.9693 70.326 46.4982 68.8143 45.7624C68.4068 45.5448 68.0167 45.2962 67.6472 45.0189C67.2621 44.7239 66.9089 44.3895 66.5931 44.0213L66.1507 43.4377C66.019 43.2213 65.8966 42.9765 65.7837 42.7413L65.6519 42.3836L65.5484 41.9977C65.474 41.7415 65.4174 41.4805 65.379 41.2166C65.3146 40.2618 65.4328 39.3035 65.7272 38.393C65.9719 37.6024 66.2637 36.8683 66.499 36.2377C66.8044 35.5833 66.9862 34.8782 67.0354 34.1577C67.0253 33.647 66.7828 33.1688 66.3766 32.8589C66.1074 32.6316 65.8245 32.421 65.5296 32.2283L65.0966 32.0118L64.5978 31.833C64.2302 31.7398 63.8556 31.6769 63.4778 31.6448C63.0825 31.5789 62.6778 31.5224 62.2637 31.4942C60.5388 31.4025 58.8104 31.5868 57.1437 32.0401C55.4025 32.4477 53.7376 33.1308 52.2119 34.0636C50.3766 35.3436 50.4237 35.1365 51.5907 33.386C52.4704 32.1789 53.5124 31.0989 54.6872 30.1766C56.461 28.8409 58.5191 27.9326 60.7013 27.5224C61.8463 27.3129 63.0129 27.2465 64.1743 27.3248C65.5208 27.4565 66.8253 27.8668 68.0049 28.5295C69.3723 29.2938 70.4752 30.4558 71.1672 31.8613C71.3322 32.2979 71.4705 32.7443 71.5813 33.1977C71.6369 33.6193 71.6715 34.0433 71.6849 34.4683C71.6849 34.8636 71.6096 35.2589 71.5625 35.6448L71.299 36.6518C71.0094 37.6188 70.6476 38.5626 70.2166 39.4754C70.0128 39.9036 69.8763 40.3608 69.8119 40.8307C69.8119 40.8307 69.8119 40.8965 69.8119 40.9248C69.8231 40.968 69.8231 41.0133 69.8119 41.0566C69.9337 41.2159 70.0761 41.3583 70.2354 41.4801C70.7012 41.81 71.2248 42.0494 71.779 42.186C73.4497 42.5544 75.1512 42.7656 76.8613 42.8165C77.8025 42.8918 78.8378 42.9483 79.9484 43.1177C80.2213 43.1177 80.5131 43.2024 80.8049 43.2589C81.0966 43.3154 81.3884 43.3624 81.746 43.466C82.3525 43.626 82.9444 43.8369 83.5154 44.0966C84.6994 44.5817 85.7986 45.252 86.7719 46.0824C87.2819 46.5362 87.7511 47.0338 88.1743 47.5695C88.5974 48.1221 88.9603 48.7185 89.2566 49.3483C89.8405 50.5933 90.1609 51.9455 90.1978 53.3201C90.2265 54.5945 90.0517 55.8654 89.6801 57.0848C89.2569 58.4686 88.6423 59.7864 87.8543 61.0001C87.4701 61.5975 87.0522 62.1726 86.6025 62.7224C86.1508 63.2508 85.6667 63.7505 85.1531 64.2189C83.1296 66.2344 80.6306 67.7073 77.8872 68.5013C75.167 69.1774 72.3342 69.2672 69.5766 68.7648C67.1031 68.3259 64.6721 67.6741 62.3107 66.8166L58.5931 65.5271C57.4745 65.144 56.3336 64.8297 55.1766 64.586C52.8641 64.1597 50.5014 64.0773 48.1649 64.3413C45.7072 64.638 43.2794 65.1449 40.9084 65.8565C39.6849 66.2142 38.4613 66.5907 37.219 66.986C35.9766 67.3813 34.7813 67.786 33.3978 68.1624C30.0692 69.1145 26.6054 69.5057 23.1484 69.3201C21.2523 69.2169 19.3989 68.7167 17.7084 67.8518C15.8034 66.8591 14.381 65.138 13.7649 63.0801C13.3712 61.6598 13.2593 60.1763 13.4354 58.713C13.4985 57.9759 13.6502 57.2491 13.8872 56.5483C14.1189 55.9066 14.386 55.2781 14.6872 54.666C14.9507 54.1013 15.2237 53.5648 15.4401 53.066C15.5625 52.8118 15.6378 52.586 15.7319 52.3507C15.7546 52.2611 15.7829 52.1731 15.8166 52.0871L15.8731 51.8518C16.0602 51.1734 15.8532 50.4473 15.3366 49.9695C15.0198 49.6776 14.669 49.4248 14.2919 49.2166C13.8496 48.9624 13.3507 48.7177 12.8237 48.473C11.5797 47.975 10.3932 47.3438 9.28485 46.5907C8.62464 46.1093 8.05974 45.5093 7.61897 44.8213C7.4117 44.4723 7.22624 44.1108 7.06368 43.7389C6.91931 43.3557 6.80293 42.9625 6.71544 42.5624C6.40176 40.952 6.67557 39.2824 7.48721 37.8566C8.04759 36.8546 8.78779 35.9644 9.67074 35.2307C10.4877 34.5496 11.3893 33.977 12.3531 33.5271C14.2024 32.5936 16.1877 31.9583 18.2354 31.6448C22.1921 31.1126 26.2148 31.362 30.0754 32.3789C31.7524 32.7774 33.4001 33.2899 35.0072 33.913C36.2715 34.3902 37.4879 34.9858 38.6401 35.6918C39.4319 36.1546 40.1786 36.6902 40.8707 37.2918C41.3581 37.6989 41.7802 38.1782 42.1225 38.713C42.3564 39.1555 42.5305 39.627 42.6401 40.1154C42.7649 40.4906 42.8624 40.8743 42.9319 41.2636C42.9319 41.7718 42.3296 41.8377 41.1343 41.6966C39.4917 41.3711 37.8865 40.8792 36.3437 40.2283C34.8566 39.6918 33.379 39.146 31.8919 38.666C30.4076 38.2078 28.8995 37.8308 27.3743 37.5366C24.4514 36.9221 21.4418 36.8392 18.4896 37.2918C17.1735 37.5112 15.9019 37.9435 14.7249 38.5718C14.2225 38.8252 13.7544 39.1415 13.3319 39.513C12.996 39.7984 12.7153 40.1429 12.5037 40.5295C12.3839 40.7395 12.3162 40.975 12.306 41.2166C12.321 41.3738 12.3797 41.5238 12.4754 41.6495C12.4754 41.7154 12.4754 41.706 12.4754 41.7154C12.4754 41.7248 12.4754 41.7154 12.5225 41.7154L12.6449 41.8095L12.8613 41.9507C13.4277 42.2706 14.0158 42.5505 14.6213 42.7883C15.1954 43.033 15.8731 43.3154 16.626 43.7295C17.5177 44.1494 18.3449 44.6945 19.0825 45.3483C20.0328 46.2256 20.7921 47.2893 21.3131 48.473C21.7415 49.6791 21.8644 50.9725 21.6707 52.2377C21.6049 52.5577 21.5766 52.8871 21.4825 53.1789L21.2001 54.1201C21.0307 54.5342 20.8707 54.9671 20.7201 55.3154C20.4001 56.0589 20.099 56.6613 19.8637 57.1977C19.6542 57.6118 19.481 58.0432 19.346 58.4871C19.3056 58.6064 19.2772 58.7293 19.2613 58.8542L19.186 59.5413C19.1118 60.2202 19.1988 60.907 19.4401 61.546C19.6273 61.9762 19.9607 62.3263 20.3813 62.5342C22.1061 63.2502 23.9831 63.5221 25.8401 63.3248L25.8966 63.5318Z" fill="black"/>
</svg>
