<svg width="96" height="96" viewBox="0 0 96 96" fill="none" xmlns="http://www.w3.org/2000/svg">
<path d="M57.8793 71.0825L58.6605 70.5931C58.924 70.4237 59.1499 70.2072 59.3946 70.019C59.8958 69.6446 60.362 69.2257 60.7875 68.7672C61.0195 68.5558 61.2307 68.3225 61.4181 68.0707C61.6158 67.826 61.8322 67.5813 62.0393 67.346C62.2183 67.1102 62.3848 66.8652 62.5381 66.6119C62.7117 66.3703 62.8659 66.1154 62.9993 65.8495C63.1687 65.4448 63.3381 65.0401 63.4699 64.626C63.5511 64.188 63.6547 63.7545 63.7805 63.3272C64.0907 61.7213 64.0715 60.069 63.724 58.4707C63.3542 56.8198 62.6247 55.2709 61.5875 53.9343C61.1144 53.3372 60.5672 52.8027 59.9593 52.3437C59.3347 51.9068 58.6581 51.5495 57.9452 51.2801L57.2581 51.0166C57.0199 50.9489 56.7779 50.8954 56.5334 50.8566C56.0519 50.7349 55.5606 50.6561 55.0652 50.6213C54.5663 50.6213 54.0675 50.5554 53.5593 50.5178L52.0063 50.5837C51.3569 50.5837 51.3758 50.386 51.8746 50.0095C52.6845 49.3452 53.6611 48.9155 54.6981 48.7672C57.1847 48.5074 59.6872 49.0801 61.8134 50.3954C63.9904 51.7326 65.6343 53.7857 66.4628 56.2025C67.5488 59.0543 67.851 62.1449 67.3381 65.1531C67.2717 65.5754 67.158 65.989 66.9993 66.386L66.5758 67.5907L65.9828 68.7201C65.7954 69.0966 65.575 69.4557 65.324 69.7931C64.8712 70.4635 64.361 71.0933 63.7993 71.6754L62.9711 72.5601L62.0299 73.3601C60.5164 74.6415 58.8109 75.6768 56.9758 76.4284C56.2905 76.7206 55.5861 76.9659 54.8675 77.1625C54.1522 77.379 53.4087 77.4825 52.684 77.6425C51.9593 77.8025 51.2063 77.8213 50.4628 77.8401C49.7198 77.8778 48.9753 77.8778 48.2322 77.8401C45.8973 77.7692 43.5934 77.2848 41.4275 76.4095C40.933 76.2375 40.4594 76.0101 40.0158 75.7319C39.4043 75.4139 38.9098 74.9096 38.604 74.2919C38.4262 73.7916 38.4851 73.2377 38.764 72.786C38.8717 72.5128 39.0007 72.2484 39.1499 71.9954C39.7804 71.209 40.8872 70.9941 41.7663 71.4872C43.2655 72.0619 44.7958 72.5521 46.3499 72.9554C47.8966 73.276 49.4799 73.3836 51.0558 73.2754C53.4843 73.1103 55.8301 72.3262 57.8699 70.9978L57.8793 71.0825Z" fill="black"/>
<path d="M31.3472 58.1133C32.0464 61.4978 33.6055 64.6451 35.8743 67.2521C38.2434 69.8939 41.2224 71.9166 44.5519 73.1439C46.974 73.9535 49.5399 74.2421 52.0813 73.9909C52.614 73.9565 53.1429 73.8778 53.6625 73.7556L54.4813 73.6333C54.7449 73.5674 55.0084 73.4733 55.2719 73.398C56.3704 73.1177 57.4366 72.7234 58.4531 72.2215C59.4823 71.7088 60.4704 71.1172 61.4084 70.4521C62.3367 69.7981 63.2087 69.0677 64.0155 68.2686C64.7507 67.4758 65.3831 66.5936 65.8978 65.6427C66.3727 64.7097 66.6907 63.7049 66.839 62.6686C67.1128 60.5078 66.6732 58.3166 65.5872 56.4286C64.5606 54.7107 63.0696 53.3176 61.286 52.4098C59.4308 51.4703 57.3796 50.9833 55.3002 50.9886C52.5609 50.9815 49.8676 51.6921 47.4884 53.0498C46.297 53.755 45.164 54.5544 44.1002 55.4403C42.9718 56.3266 41.9373 57.3264 41.0131 58.4239C39.8554 59.8262 39.6578 59.5156 39.959 57.8027C40.2094 56.6173 40.5783 55.4602 41.0602 54.3486C41.3939 53.5797 41.8071 52.8479 42.2931 52.1651C42.5781 51.7978 42.8929 51.4547 43.2343 51.1392C43.5512 50.8113 43.8909 50.5063 44.2507 50.2262C47.0821 47.9905 50.4758 46.5802 54.0578 46.1509C57.8189 45.6813 61.6327 46.3986 64.966 48.2027C66.7167 49.1308 68.2552 50.4128 69.4837 51.9674C70.7228 53.5535 71.6403 55.3662 72.1849 57.3039C72.4449 58.2561 72.6213 59.2292 72.7119 60.2121L72.7778 61.7086C72.7778 62.2074 72.7213 62.7156 72.6743 63.2145C72.4463 65.1993 71.8256 67.1189 70.8484 68.8615C68.6026 72.6776 65.3014 75.763 61.3425 77.7462C59.4212 78.7719 57.3695 79.5318 55.2437 80.0051L53.6625 80.3439C53.126 80.438 52.5707 80.4474 52.0249 80.4945C51.479 80.5415 50.9425 80.5886 50.3966 80.5698L48.7778 80.4851C44.0858 80.0784 39.5928 78.4029 35.7802 75.638C31.9953 72.9967 28.947 69.4333 26.9237 65.2851C26.5983 64.6533 26.3183 63.9991 26.086 63.3274C25.8182 62.6567 25.5981 61.9679 25.4272 61.2662L24.9002 59.2051C24.7872 58.4992 24.6743 57.7933 24.5802 57.0874C24.3203 54.278 24.5238 51.445 25.1825 48.7015C26.1846 44.6719 27.8857 40.8493 30.2084 37.4074C31.3344 35.722 32.5536 34.1006 33.8602 32.5509C35.1778 31.0356 36.5331 29.5486 37.9825 28.1745C42.3464 23.7372 47.4401 20.0825 53.0413 17.3698C54.294 16.7597 55.5864 16.2346 56.9096 15.798C58.6989 15.1565 60.6101 14.928 62.5002 15.1298C63.0385 15.1995 63.5607 15.3619 64.0437 15.6098C64.4437 15.8501 64.7898 16.1706 65.0602 16.5509C65.336 16.8344 65.5762 17.1505 65.7755 17.4921C66.2084 18.6309 64.3166 19.478 61.3143 20.6827C56.6991 22.4827 52.3712 24.9463 48.4672 27.9956C44.3708 31.0039 40.7068 34.5602 37.5778 38.5651C35.3174 41.4356 33.5345 44.6518 32.2978 48.0898C31.1197 51.2786 30.843 54.7304 31.4978 58.0662L31.3472 58.1133Z" fill="black"/>
</svg>
