<svg width="96" height="96" viewBox="0 0 96 96" fill="none" xmlns="http://www.w3.org/2000/svg">
<path d="M72.4895 49.8362C72.6438 49.7721 72.7946 49.6999 72.9413 49.6197C73.0256 49.5766 73.0995 49.5156 73.1578 49.4409C73.1578 49.3468 73.1578 49.3468 73.0919 49.2997C73.026 49.2527 72.8001 49.1586 72.5836 49.0739L72.2448 48.9515H72.1507L71.7648 48.8668L70.6354 48.5562L61.5813 46.5515C58.5036 45.8644 55.3978 45.3092 52.3201 44.5186L46.9554 43.1256C44.7409 42.6145 42.5697 41.9317 40.4613 41.0833L39.6801 40.6221C39.4324 40.4993 39.2041 40.3407 39.0025 40.1515C38.6682 39.8802 38.3736 39.5634 38.1272 39.2103C37.9145 38.9343 37.7196 38.6451 37.5436 38.3444C37.4788 38.2736 37.4363 38.1852 37.4213 38.0903C37.4106 37.9582 37.4332 37.8255 37.4872 37.7044C37.5605 37.5213 37.6553 37.3476 37.7695 37.1868C38.3076 36.4502 38.9701 35.8132 39.7272 35.3044C40.9766 34.5502 42.3094 33.9437 43.6989 33.4974C45.2331 32.9421 46.8048 32.4244 48.4048 31.9162L50.2872 31.3233L51.6613 30.8809L57.5625 29.0644C62.2683 27.6339 66.8801 25.968 71.4542 24.3586C74.3813 23.3139 77.2895 22.1844 80.1978 21.0927C81.666 20.5782 83.1342 20.0543 84.6025 19.5209L86.8048 18.7774C87.5483 18.5421 88.3295 18.4197 89.0919 18.2409C90.9742 17.8456 91.1531 18.768 90.0989 20.5562C89.4519 21.7105 88.6115 22.7452 87.6142 23.615C86.3479 24.7246 84.9033 25.6124 83.3413 26.2409C80.3483 27.455 77.3366 28.5939 74.3154 29.6856C72.8095 30.2315 71.2942 30.768 69.7789 31.2762L65.186 32.7256C62.1303 33.6668 59.0621 34.5766 55.9813 35.455L51.3695 36.7633C51.2848 36.7633 51.1342 36.8386 51.1248 36.8292H50.946H50.6731L49.9954 36.9139C49.35 37.0177 48.7185 37.1945 48.1131 37.4409C48.0378 37.4409 47.9436 37.5162 47.9154 37.5915C47.8872 37.6668 48.0095 37.6668 48.0566 37.7044L48.4331 37.8644C48.6966 37.968 48.9789 38.0621 49.2519 38.1562L50.1931 38.4103L51.3225 38.6739L56.9695 39.8315C60.8942 40.6221 64.866 41.3468 68.8378 42.0809L75.7836 43.3609C77.3285 43.6137 78.8586 43.9499 80.3672 44.368C81.3867 44.7863 82.3534 45.3233 83.2472 45.968C83.4256 46.1182 83.5953 46.2784 83.7554 46.448C83.9697 46.6332 84.1072 46.8915 84.1413 47.1727C84.1405 47.8766 83.9308 48.5644 83.5389 49.1492C83.1536 49.8031 82.6889 50.4069 82.1554 50.9468C80.7861 52.2517 79.2737 53.3978 77.6472 54.3633C77.233 54.6362 76.7907 54.8903 76.3672 55.1539C75.9436 55.4174 75.426 55.6903 75.2001 55.8221L73.4025 56.7633C72.1978 57.4033 70.9836 58.015 69.7601 58.6456C62.3709 62.123 54.77 65.1313 47.0025 67.6527C41.0354 69.6668 35.2001 71.7468 29.1201 73.375C27.7931 73.7327 26.4942 74.1374 25.1295 74.4292C23.3567 74.9169 21.5148 75.1046 19.6801 74.9844C19.1305 74.889 18.6037 74.691 18.1272 74.4009C17.6971 74.101 17.3134 73.7395 16.9883 73.328C16.6763 73.0065 16.387 72.6637 16.1225 72.3021C15.8025 71.7468 16.1225 71.1633 16.9319 70.3444C18.0271 69.3489 19.364 68.6577 20.8095 68.3397C31.1625 65.328 42.0801 62.335 52.706 58.4009C56.6495 56.9421 60.5554 55.3703 64.3766 53.695C66.2589 52.8292 68.1413 51.9256 70.0236 50.9656L71.426 50.2315L72.0942 49.855H72.1601L72.3295 49.7986L72.4895 49.8362Z" fill="black"/>
<path d="M68.8374 15.681C69.8463 15.5328 70.8457 15.3254 71.8303 15.0599C72.188 14.9657 72.5174 14.7681 72.8844 14.674C74.1644 14.2975 75.5292 14.0434 76.8374 13.6199C77.4147 13.4306 77.9804 13.2075 78.5315 12.9516C79.2301 12.575 79.9931 12.3324 80.7809 12.2363C81.035 12.2363 81.1386 12.6504 81.1103 13.1775C81.112 13.6676 80.9069 14.1358 80.5456 14.4669C79.2429 15.3029 77.8427 15.9761 76.3762 16.4716C75.435 16.754 74.635 17.3281 73.7127 17.6857C72.7903 18.0434 71.6609 18.4387 70.6068 18.7587C69.9574 18.9375 69.308 19.1163 68.6397 19.2763C67.6515 19.5304 66.6256 19.6904 65.628 19.9352C64.8656 20.1516 64.1221 20.5093 63.3409 20.8104C63.1621 20.8669 62.9927 20.9516 62.8139 20.9893C62.155 21.121 61.9292 20.8669 61.7597 19.794C61.7597 19.5493 61.675 19.3046 61.6562 19.0504C61.5083 18.3997 61.716 17.7194 62.2021 17.2622C63.3517 16.6467 64.6122 16.266 65.9103 16.1422C66.8515 15.9916 67.7927 15.8693 68.8092 15.6434L68.8374 15.681Z" fill="black"/>
<path d="M45.0166 79.8118C44.2637 80.0188 43.4825 80.16 42.6919 80.3106L40.3672 80.7718C39.8025 80.8941 39.2661 81.1294 38.6919 81.2329C36.6684 81.5906 34.6261 81.8918 32.6025 82.1741C31.7084 82.3153 30.8331 82.56 29.9672 82.7859C29.4025 82.8894 28.8472 83.04 28.2731 83.1247C27.6915 83.1907 27.1042 83.1907 26.5225 83.1247C26.1555 83.1247 26.099 82.5506 26.2778 81.92C26.4241 81.2243 26.8361 80.6131 27.4261 80.2165L28.9696 79.6141C29.4872 79.4165 30.0331 79.2659 30.5696 79.1153C31.6598 78.803 32.7698 78.564 33.8919 78.4C35.2535 78.0839 36.5783 77.6266 37.8449 77.0353L42.2496 75.4823C43.1908 75.2 44.1319 74.9365 45.0166 74.6353C46.4002 74.1741 47.8402 73.7788 49.1672 73.1953C50.1929 72.6706 51.1832 72.0795 52.1319 71.4259C52.3578 71.2941 52.5555 71.1153 52.7814 71.0118C53.6472 70.6259 54.0425 70.8612 54.6637 72.1318C54.8049 72.4235 54.9555 72.7059 55.0778 73.007C55.5106 73.7934 55.4367 74.7614 54.8896 75.4729C53.3277 76.8311 51.501 77.8502 49.5249 78.4659C48.0755 79.0023 46.5696 79.407 45.0731 79.9247L45.0166 79.8118Z" fill="black"/>
</svg>
