<svg width="96" height="96" viewBox="0 0 96 96" fill="none" xmlns="http://www.w3.org/2000/svg">
<path d="M16.1546 75.6427L16.9264 75.5486C17.1781 75.5354 17.4261 75.4814 17.6605 75.3886L18.9781 74.8615C19.8565 74.5411 20.7092 74.1541 21.5287 73.7039C23.157 72.8286 24.757 71.9251 26.3475 70.9933C27.9381 70.0615 29.5193 69.1109 31.0534 68.1698C31.8346 67.6804 32.6158 67.2286 33.3875 66.6827L35.6746 65.0921C38.7683 62.9298 41.7231 60.5754 44.5217 58.0427C46.0529 56.6595 47.4461 55.1307 48.6817 53.478C49.4343 52.4511 50.0247 51.3147 50.4322 50.1086C50.5524 49.6919 50.6436 49.2673 50.7052 48.838C50.7569 48.3945 50.7757 47.9478 50.7617 47.5015C50.7258 47.0566 50.6374 46.6174 50.4981 46.1933C50.3569 45.7698 50.1499 45.3745 49.9993 44.9509C49.7738 44.7039 49.5721 44.436 49.397 44.1509L48.9828 43.5204C48.7005 43.1062 48.3993 42.7956 48.1075 42.4286C47.8158 42.0615 47.524 41.7227 47.2322 41.3839L46.2911 40.4427C45.6887 39.7839 45.0675 39.2004 44.4087 38.5604C43.7499 37.9204 43.157 37.3839 42.5264 36.8286C39.9475 34.598 37.3028 32.5462 34.6111 30.5698C29.2401 26.6545 23.6997 23.0215 17.9899 19.6709C17.1522 19.1721 15.4393 21.9015 16.2017 22.438C21.4911 26.2027 26.6205 30.278 31.4958 34.5509C33.924 36.6874 36.2864 38.8804 38.4887 41.1392C39.5899 42.278 40.6628 43.4262 41.6322 44.6027L42.357 45.478L42.997 46.3627C43.2176 46.6457 43.4218 46.9411 43.6087 47.2474C43.7405 47.5109 44.0511 47.9156 43.9475 47.9062C44.0322 47.9062 43.9475 47.9062 43.9475 47.9062V47.9062C43.7106 48.3817 43.4132 48.8246 43.0628 49.2239C42.0373 50.3921 40.9062 51.4633 39.684 52.4239C36.9875 54.5472 34.1582 56.4963 31.2134 58.2592C28.2111 60.0474 25.237 61.9298 22.1499 63.6333C19.0628 65.3368 15.7781 66.7392 13.2181 69.0356C12.8322 69.6098 15.1852 75.6992 16.1546 75.6427Z" fill="black"/>
<path d="M42.7989 81.4113C47.2224 80.2913 50.573 77.7972 54.2059 75.6325C57.8389 73.4678 61.3118 71.1149 64.7 68.5737C68.1449 66.0507 71.4502 63.3424 74.6012 60.4607C76.2512 58.9461 77.7923 57.317 79.213 55.5855C79.9951 54.635 80.6972 53.6213 81.3118 52.5549C82.1066 51.2287 82.6013 49.7445 82.7612 48.2066C82.8555 47.1429 82.6841 46.0724 82.2624 45.0913C82.1494 44.8372 82.0083 44.5925 81.8765 44.3572C81.8295 44.2666 81.7726 44.1814 81.7071 44.1031L81.6224 43.8772L81.0953 43.1525C80.3826 42.2235 79.6158 41.3373 78.7989 40.4984C78.0459 39.6702 77.2553 38.936 76.4741 38.1549L74.093 35.9902C70.8459 33.1666 67.5047 30.7102 64.0224 28.3102C57.1641 23.5542 50.0644 19.1562 42.7518 15.1337C41.7353 14.569 40.1165 17.3549 41.0671 17.9572C47.9276 22.4318 54.5528 27.257 60.9165 32.4137C64.0789 34.9831 67.1471 37.656 69.9989 40.4513L72.1071 42.5784C72.7471 43.3031 73.4247 44.0184 73.9894 44.7431C74.5721 45.4468 75.1157 46.182 75.6177 46.9455L75.9847 47.4913L76.0694 47.6325V47.6984C76.2106 47.6137 75.7683 47.9055 76.3989 47.5102V47.5102L76.4836 47.4631H76.4271C76.3551 47.471 76.2826 47.471 76.2106 47.4631C76.1262 47.4734 76.0409 47.4734 75.9565 47.4631C75.8049 47.9647 75.5729 48.4383 75.2694 48.8655C74.8047 49.5642 74.2854 50.225 73.7165 50.8419C72.452 52.2557 71.0936 53.5826 69.6506 54.8137C66.5541 57.3438 63.3244 59.7064 59.9753 61.8913C56.6059 64.1031 53.2271 66.3619 49.7541 68.4796C46.2812 70.5972 42.5918 72.376 39.6271 74.9737C39.1189 75.5666 41.6977 81.5619 42.7989 81.4113Z" fill="black"/>
</svg>
