<svg width="96" height="96" viewBox="0 0 96 96" fill="none" xmlns="http://www.w3.org/2000/svg">
<path d="M32.4141 60.2065C31.9812 57.9759 31.4259 55.7642 30.7953 53.5618C30.5412 52.7618 30.1459 52.0183 29.9106 51.2089C29.44 49.8065 29.1012 48.3853 28.64 46.9171C28.1789 45.4489 27.6989 44.0936 27.2094 42.6442C26.7111 41.4107 26.1294 40.2127 25.4683 39.0583L24.8283 37.9571C24.6306 37.5806 24.4518 37.1948 24.273 36.7995C23.9153 36.0099 23.6469 35.1828 23.473 34.3336C23.3694 33.7783 24.0753 33.4677 25.0353 33.4489C26.1052 33.3886 27.1561 33.7501 27.9624 34.4559C28.2636 34.8042 28.5459 35.143 28.8283 35.5006C29.0867 35.8654 29.3224 36.2458 29.5341 36.6395C29.9765 37.4018 30.4 38.1924 30.7859 38.9924C31.5763 40.6064 32.228 42.2845 32.7341 44.0089C33.3177 46.0983 34.5224 48.0183 35.2094 50.1265C36.0189 52.4136 36.6589 54.7759 37.2612 57.1289C37.6094 58.5877 37.9577 60.0465 38.2494 61.5053C38.7483 63.7171 39.0306 65.9759 39.5106 68.1595C39.8306 69.8724 40.5459 71.5006 40.8 73.223C40.9002 73.5904 40.9726 73.9648 41.0165 74.343C41.0538 74.6556 41.0538 74.9716 41.0165 75.2842C40.9698 75.5171 40.87 75.7361 40.7247 75.9242C40.3926 76.2998 39.9518 76.5629 39.4636 76.6771C39.2048 76.7761 38.9409 76.8609 38.673 76.9312C37.6976 77.042 36.7559 76.5355 36.3106 75.6606C35.9718 74.9548 35.6612 74.2395 35.3694 73.5336C35.2189 73.1759 35.0683 72.8183 34.9365 72.4606C34.8047 72.103 34.7389 71.7359 34.6259 71.3689C34.4377 70.6348 34.2871 69.9006 34.1459 69.1571C34.0047 68.4136 33.8353 67.6795 33.7036 66.9265C33.2424 64.7242 32.8753 62.4748 32.3012 60.2724L32.4141 60.2065Z" fill="black"/>
<path d="M60.7821 57.7788C61.4315 55.4729 62.2221 53.1952 62.9938 50.927C63.3044 50.1082 63.455 49.2423 63.775 48.4329C64.3739 47.0062 65.0462 45.6114 65.7891 44.254C66.4856 42.8799 67.2574 41.5435 67.9633 40.1976C68.6503 39.0305 69.1491 37.7693 69.7327 36.574C70.3536 34.9429 71.3163 33.4636 72.5562 32.2352C72.9609 31.8493 73.5915 32.2917 74.128 33.0917C74.7613 33.9284 75.0508 34.9755 74.9374 36.0188C74.4714 37.6322 73.8407 39.1933 73.055 40.6776C72.3303 42.1835 71.5868 43.6705 70.7209 45.1293C69.695 46.8988 69.2997 48.9788 68.6033 50.9176C67.8315 53.0446 67.1538 55.2188 66.5044 57.4117C66.1468 58.7764 65.7609 60.1317 65.4691 61.5246C64.9641 63.6152 64.5807 65.7332 64.3209 67.8682C64.1515 69.5246 64.415 71.2093 64.3209 72.8564C64.3209 73.214 64.3209 73.5811 64.3209 73.9482C64.2886 74.2334 64.2255 74.5142 64.1327 74.7858C64.0378 74.9968 63.8962 75.1835 63.7185 75.3317C63.3139 75.623 62.8331 75.7898 62.335 75.8117C62.0527 75.8117 61.7797 75.9058 61.5068 75.9152C60.5315 75.8567 59.7022 75.1826 59.4456 74.2399C59.248 73.4682 59.0785 72.687 58.9562 71.9058C58.8934 71.5105 58.837 71.1152 58.7868 70.7199C58.7586 70.3283 58.7586 69.9351 58.7868 69.5435C58.845 67.9669 58.999 66.3954 59.248 64.8376C59.6056 62.4846 60.1327 60.1317 60.6974 57.7788H60.7821Z" fill="black"/>
<path d="M71.963 19.5856C73.2876 19.1887 74.6505 18.9331 76.0289 18.8232C76.4054 18.8232 76.7818 18.8232 77.1866 18.8232C77.6177 18.826 78.0482 18.8543 78.476 18.9079C79.4647 19.0551 80.4202 19.3736 81.2995 19.8491C82.5648 20.5722 83.5071 21.7501 83.9348 23.1432C84.0938 23.6215 84.2103 24.1128 84.283 24.6115C84.3395 25.035 84.3866 25.4397 84.4336 25.8538C84.4995 26.6727 84.5371 27.4632 84.5466 28.2538C84.5466 29.8162 84.5466 31.3409 84.443 32.8468C84.3866 34.1832 84.443 35.5197 84.3866 36.8374C84.3866 37.6844 84.3866 38.5315 84.3301 39.3879C84.2316 40.2548 84.013 41.1037 83.6807 41.9103C83.4642 42.4279 82.843 42.2397 82.1936 41.7221C81.4278 41.1681 80.8708 40.3724 80.6124 39.4632C80.4054 36.235 80.1418 32.9974 80.1418 29.7879C80.1319 28.831 79.9861 27.8804 79.7089 26.9644C79.581 26.535 79.427 26.1138 79.2477 25.7032C79.1536 25.4585 79.1536 25.4209 79.116 25.3362C79.0783 25.2515 79.116 25.1762 79.0313 25.0915C78.9632 24.8989 78.8344 24.7338 78.6642 24.6209C78.4832 24.4925 78.2728 24.4116 78.0524 24.3856C77.1587 24.3471 76.2648 24.4584 75.4077 24.715C74.142 25.0388 72.9025 25.4572 71.6995 25.9668C69.7921 26.7427 67.9719 27.7175 66.2689 28.875C65.0289 29.8591 63.8561 30.925 62.7583 32.0656C62.5136 32.3009 62.3066 32.5738 62.0524 32.7997C61.1113 33.6091 60.603 33.5809 59.4642 32.7997C59.2007 32.6303 58.9277 32.4703 58.683 32.2821C57.8468 31.654 57.641 30.485 58.2124 29.6091C59.8458 26.7351 62.2179 24.35 65.083 22.7009C67.2425 21.3867 69.5285 20.2925 71.9066 19.435L71.963 19.5856Z" fill="black"/>
<path d="M24.4807 25.9009C23.8223 25.5395 23.1243 25.2553 22.4007 25.0539C22.1997 25.0019 21.9953 24.9642 21.7889 24.9409C21.6572 24.9409 21.5725 24.8845 21.4595 24.9409C21.3466 24.9974 21.3842 25.0162 21.3278 25.0445C21.2713 25.0727 21.1866 25.308 21.1113 25.4304C20.9584 25.7527 20.7888 26.0669 20.6031 26.3715C19.1082 28.8254 17.9168 31.4517 17.0548 34.1927C16.6701 35.4212 16.393 36.6809 16.2266 37.9574C16.1136 38.7762 16.0572 39.5951 15.9725 40.4045C15.8529 41.2034 15.6895 41.9952 15.4831 42.7762C15.3513 43.2657 14.7113 43.2845 13.9772 42.8515C13.0831 42.3292 12.4559 41.4485 12.2548 40.4327C12.1183 36.797 12.7004 33.1701 13.9678 29.7598C14.796 27.7362 15.0783 25.4868 16.1419 23.2562L16.6689 22.3151C16.9376 21.9004 17.2535 21.5182 17.6101 21.1762C18.3 20.4772 19.1543 19.9626 20.0948 19.6798C21.6391 19.2639 23.2687 19.2867 24.8007 19.7457C26.3777 20.2141 27.8799 20.905 29.2619 21.7974C31.2111 23.0691 33.0555 24.4949 34.7772 26.0609C36.1881 27.1635 37.5273 28.3549 38.7866 29.628C39.0781 29.9057 39.3486 30.2045 39.596 30.5221C40.4619 31.7457 40.3678 32.4045 39.3607 33.3457C39.1455 33.5675 38.916 33.775 38.6736 33.9668C37.8871 34.5458 36.8154 34.5458 36.0289 33.9668L32.5466 31.5668C31.3701 30.8233 30.4101 29.8633 29.3089 29.0539C27.825 27.8323 26.1895 26.8073 24.4431 26.0045L24.4807 25.9009Z" fill="black"/>
</svg>
