<svg width="96" height="96" viewBox="0 0 96 96" fill="none" xmlns="http://www.w3.org/2000/svg">
<path d="M30.073 28.3712C22.9953 31.1006 17.2448 63.7312 23.3812 69.9241C31.3342 77.9617 70.1765 71.1288 70.1765 71.1288C70.1765 71.1288 73.5177 75.5429 67.8518 76.6159C62.1859 77.6888 18.2518 80.1641 16.0024 73.4347C13.753 66.7053 15.4848 40.3994 18.9483 33.1523C22.4118 25.9053 30.073 28.3712 30.073 28.3712Z" fill="black"/>
<path d="M31.7666 79.3624C29.4137 79.2118 27.0607 79.033 24.7078 78.7977C23.5219 78.6848 22.336 78.5248 21.1125 78.3836C20.5101 78.3083 19.889 78.2142 19.2301 78.0918L18.7219 77.9883C18.4647 77.9389 18.2102 77.876 17.9596 77.8001C17.455 77.6543 16.9757 77.4321 16.5384 77.1413L15.7478 76.3789C15.5219 76.0965 15.3243 75.7765 15.1172 75.4377C14.9196 75.1698 14.7612 74.875 14.6466 74.5624C14.5331 74.3105 14.4326 74.0529 14.3454 73.7907C14.0528 72.868 13.8326 71.924 13.6866 70.9671C13.426 69.2406 13.2783 67.4988 13.2443 65.753C13.1501 62.7507 13.1313 59.7954 13.329 56.8589C13.6678 52.106 14.2701 47.4471 14.9854 42.7413C15.3619 40.3977 15.7854 38.0354 16.2937 35.7295C16.5478 34.5624 16.8207 33.3954 17.1501 32.2095C17.3101 31.6166 17.5078 31.0236 17.7054 30.4118C17.8393 30.0232 17.9965 29.6429 18.176 29.273C18.3721 28.8715 18.6019 28.4874 18.8631 28.1248C19.3149 27.6766 19.8572 27.3301 20.4537 27.1083C20.7597 26.9852 21.0742 26.8845 21.3948 26.8071C21.6301 26.7318 21.856 26.6754 22.0725 26.6283C24.3763 26.1484 26.7044 25.7933 29.0466 25.5648C31.3431 25.3201 33.6207 25.1318 35.8984 25.0001C38.816 24.8213 41.7619 24.6801 44.7266 24.7742C47.8357 24.757 50.9149 25.3818 53.7713 26.6095C54.1589 26.8015 54.4849 27.0982 54.7125 27.466C54.8682 27.6615 54.8682 27.9386 54.7125 28.1342C54.1417 28.5265 53.5037 28.8104 52.8301 28.9718C51.7997 29.3409 50.7503 29.655 49.6866 29.913C49.0234 30.0788 48.3508 30.2045 47.6725 30.2895C46.9266 30.3373 46.1784 30.3373 45.4325 30.2895C41.2957 30.1063 37.1523 30.1346 33.0184 30.3742C30.9384 30.4966 28.8584 30.6471 26.8348 30.873C25.8184 30.986 24.8113 31.1271 23.8796 31.2966L23.2113 31.4283L22.9007 31.4942H22.7784V31.4942C22.7196 31.4805 22.6584 31.4805 22.5996 31.4942C22.5634 31.524 22.5317 31.5589 22.5054 31.5977C22.5054 31.5977 22.5054 31.5977 22.5054 31.6636L22.4113 31.8707L22.2325 32.3601C21.9972 33.0189 21.7807 33.7436 21.5643 34.4777C21.1501 35.946 20.7643 37.4707 20.4066 39.0048C18.9499 45.9978 18.1183 53.1067 17.9219 60.2471C17.8184 62.7224 17.7901 65.1977 17.9219 67.6071C17.9819 68.7764 18.1234 69.94 18.3454 71.0895C18.3905 71.3538 18.4534 71.6148 18.5337 71.8707C18.5907 72.1114 18.6662 72.3474 18.7596 72.5766C18.8074 72.7284 18.8738 72.8738 18.9572 73.0095C19.0277 73.1184 19.1098 73.2194 19.2019 73.3107C19.3284 73.3832 19.4647 73.4371 19.6066 73.4707L19.9831 73.5554L20.4725 73.6495C21.1407 73.7718 21.8372 73.866 22.5431 73.9601C23.9548 74.1107 25.3666 74.2236 26.8348 74.3177C31.6913 74.6377 36.5854 74.7977 41.4701 74.8354C48.8514 74.9996 56.236 74.7419 63.5878 74.0636C64.8526 73.9221 66.1092 73.7147 67.3525 73.4424L67.8043 73.3389L68.096 73.2542L68.576 73.0942C68.7298 73.032 68.8778 72.9565 69.0184 72.8683C69.1726 72.7954 69.2739 72.6434 69.2819 72.473C69.3187 72.0786 69.3187 71.6816 69.2819 71.2871C69.2819 70.5718 69.1501 69.8283 69.0843 69.0942L68.5478 64.6048C68.3878 63.3718 68.1807 62.1671 68.049 60.9154C67.794 59.2614 67.7592 57.5809 67.9454 55.9177C68.0876 54.9857 68.5957 54.1489 69.3572 53.593C69.6638 53.3285 69.9984 53.0981 70.3549 52.906C70.9196 52.6989 71.4372 53.0566 71.8984 53.8471C72.5176 55.0202 72.9193 56.2957 73.0843 57.6118C73.5078 60.153 73.8937 62.7413 74.2137 65.3954C74.3643 66.7224 74.5054 68.0589 74.5996 69.4424L74.6748 70.4871V71.033V71.306C74.6848 71.447 74.6848 71.5885 74.6748 71.7295L74.5996 73.6118C74.4811 74.2094 74.3303 74.8001 74.1478 75.3813L73.9313 75.7577C73.809 75.8424 73.7619 75.993 73.6584 76.0966C73.5548 76.2001 73.4984 76.3413 73.4043 76.4542L73.0843 76.746C72.6265 77.1397 72.1085 77.4574 71.5501 77.6871C71.2667 77.818 70.9742 77.9281 70.6748 78.0166C70.3737 78.1201 70.0631 78.2048 69.7337 78.2801C69.4043 78.3554 69.0654 78.4495 68.8584 78.4871L68.3031 78.5907C66.8631 78.8636 65.4796 79.033 64.1243 79.1742C61.3948 79.4471 58.7125 79.5883 56.0207 79.6824C47.9266 79.9366 39.8607 79.6824 31.776 79.3342L31.7666 79.3624Z" fill="black"/>
<path d="M70.3825 32.8311C68.6413 34.4123 66.9001 36.0123 65.1966 37.6405C64.886 37.9417 64.6037 38.2711 64.3213 38.5817C64.0254 38.9127 63.7112 39.2269 63.3801 39.5229C61.0366 41.4994 58.6742 43.4664 56.406 45.5088C55.3989 46.4499 54.4766 47.3911 53.5825 48.3982C52.4125 49.6817 51.106 50.8336 49.686 51.8335C49.2248 52.1252 48.8766 51.7017 48.7448 50.9488C48.5452 50.0066 48.6817 49.0243 49.1307 48.1723L50.5895 45.9511C51.0978 45.2358 51.6907 44.5958 52.2554 43.937C53.4298 42.6041 54.6872 41.3467 56.0201 40.1723C57.5516 38.651 58.9791 37.0285 60.2931 35.3158C61.9307 33.6029 63.6531 31.937 65.3472 30.2617L68.5001 27.1652C70.0625 25.5746 71.7378 24.0782 73.206 22.4594C73.7778 21.8186 74.309 21.1428 74.7966 20.4358C75.3237 19.7582 75.8601 19.0805 76.406 18.4311C76.6163 18.1144 76.8807 17.8373 77.1872 17.6123C78.3637 16.8123 78.9754 16.8123 79.9166 17.3676C80.1304 17.4781 80.3378 17.6006 80.5378 17.7346C81.1495 18.1958 81.2248 19.0994 80.8672 20.1817C79.8319 23.4382 77.6107 25.6123 75.4836 27.9652C73.8931 29.6782 72.1331 31.2594 70.4766 32.9441L70.3825 32.8311Z" fill="black"/>
<path d="M78.7032 20.8693V20.5398C78.7032 20.4928 78.7032 20.474 78.7032 20.4363C78.7032 20.3987 78.7032 20.3704 78.7032 20.3234C78.71 20.2325 78.71 20.1413 78.7032 20.0504C78.7032 19.8434 78.4584 19.8528 78.2514 19.8151H78.3079L78.0914 19.881L77.649 20.0316C77.3412 20.1522 77.027 20.2558 76.7079 20.3422C74.5149 20.7845 72.1996 21.1893 69.9596 21.7916C68.9672 22.0742 67.9929 22.4168 67.042 22.8175C65.8975 23.4533 64.653 23.8893 63.362 24.1069C62.9573 24.1069 62.562 23.2316 62.4867 22.2245C62.4114 21.2175 62.6561 19.994 63.3714 19.6363C64.6107 18.9996 65.894 18.4523 67.2114 17.9987C68.5636 17.6045 69.9502 17.3398 71.3526 17.2081C72.2076 17.1046 73.0518 16.9251 73.8749 16.6716L75.1267 16.314C75.5596 16.2293 75.9926 16.1634 76.4349 16.1069L77.169 16.0316H77.5643C77.7487 16.0552 77.9353 16.0552 78.1196 16.0316C78.4792 15.9895 78.8424 15.9895 79.202 16.0316C79.5395 16.0306 79.8764 16.0589 80.209 16.1163C80.5353 16.167 80.8524 16.2653 81.1502 16.4081C81.3003 16.4735 81.4279 16.5815 81.5173 16.7187C81.6166 16.8379 81.7077 16.9637 81.7902 17.0951C82.092 17.6828 82.2834 18.3208 82.3549 18.9775C82.4208 19.4198 82.4773 19.834 82.5055 20.2292V21.1045L82.5714 22.8457C82.6279 24.5869 82.5714 26.3281 82.6373 28.0598C82.6937 29.3963 82.9855 30.7234 83.1267 32.0881C83.1945 32.3981 83.1945 32.7192 83.1267 33.0293C83.0807 33.4619 82.8957 33.8681 82.5996 34.1869C82.2651 34.417 81.8752 34.5534 81.4702 34.5822C81.268 34.6195 81.0637 34.6446 80.8584 34.6575C80.5133 34.6668 80.1773 34.5458 79.9173 34.3187C79.5777 34.085 79.3129 33.7582 79.1549 33.3775L78.7784 32.5022C78.6904 32.2206 78.6336 31.9303 78.609 31.6363C78.5337 31.0622 78.4867 30.4787 78.4584 29.8951C78.402 28.7187 78.4584 27.5234 78.4584 26.3187C78.4584 24.5398 78.5808 22.7328 78.5337 21.001L78.7032 20.8693Z" fill="black"/>
</svg>
