<svg width="96" height="96" viewBox="0 0 96 96" fill="none" xmlns="http://www.w3.org/2000/svg">
<path d="M50.7592 28.2168C50.7592 28.2168 54.044 34.2121 51.3145 40.0756C48.5851 45.9392 41.3851 48.7909 40.284 49.1486C39.1828 49.5062 46.9287 49.6003 46.9287 49.6003C46.9287 49.6003 54.2134 46.8992 55.6063 42.8992C56.9992 38.8992 56.8392 34.7203 55.804 32.9227C54.7687 31.125 50.7592 28.2168 50.7592 28.2168Z" fill="black"/>
<path d="M58.4678 41.8261C57.9693 43.409 57.1775 44.8841 56.1337 46.1743C55.6136 46.8638 55.0203 47.4949 54.3643 48.0567C53.7695 48.5437 53.1404 48.9872 52.4819 49.3837C50.1072 50.6994 47.578 51.7142 44.9525 52.4049C43.2207 52.9131 41.7243 53.5531 40.2466 54.1273C37.637 55.1626 35.2095 56.6082 33.056 58.4096C30.9079 60.1898 29.2034 62.4453 28.0772 64.9978C27.8406 65.5633 27.6456 66.1452 27.4937 66.739C27.3525 67.332 27.2678 67.9437 27.1831 68.5555C27.0984 69.1673 27.0984 69.779 27.1831 70.4378L27.2584 71.379C27.2605 71.6938 27.2825 72.0082 27.3243 72.3202C27.5485 73.9233 27.9331 75.4999 28.4725 77.0261C28.9713 78.6167 29.5549 80.2543 30.1196 81.9296C30.4584 82.9837 29.8372 83.172 28.7078 82.7108C27.0219 82.0116 25.5855 80.8211 24.5855 79.2943C23.5068 77.5384 22.6858 75.6366 22.1478 73.6473C21.5893 71.5372 21.4962 69.331 21.8749 67.1814C22.1866 65.0224 22.8848 62.9374 23.936 61.0261C24.4483 60.1126 25.0271 59.2381 25.6678 58.4096C26.3192 57.5957 27.0269 56.8283 27.7855 56.1131C31.264 52.6685 35.4035 49.9633 39.9549 48.1602C42.4207 47.2849 44.7455 46.692 46.816 45.8637C48.7386 45.2398 50.4473 44.0887 51.7478 42.5414C53.1288 40.4868 53.6084 37.9564 53.0749 35.539C52.5583 33.5024 51.7465 31.5524 50.6655 29.7508C49.4485 27.67 48.4668 25.4604 47.7384 23.1626C47.1454 21.2005 46.9534 19.1392 47.1737 17.1014C47.4344 15.0164 48.2322 13.0348 49.489 11.3508C49.9939 10.6175 50.5709 9.93643 51.2113 9.31785C52.039 8.51107 53.0498 7.91686 54.1572 7.58608C54.8097 7.4407 55.4932 7.5774 56.0396 7.96255C56.3091 8.10906 56.5671 8.27581 56.8113 8.46138C57.489 9.07314 56.9243 10.4378 55.6913 11.9061C54.8731 12.9223 54.1366 14.0017 53.489 15.1343C52.9896 16.0872 52.7037 17.1374 52.6513 18.212C52.6212 19.3325 52.7835 20.4499 53.1313 21.5155C53.5576 22.7682 54.1193 23.9706 54.8066 25.1014C56.2162 27.3691 57.3894 29.7754 58.3078 32.2826C58.8123 33.803 59.0976 35.3875 59.1549 36.9884C59.2081 38.6263 59.0016 40.2622 58.5431 41.8355L58.4678 41.8261Z" fill="black"/>
<path d="M59.4941 63.7371C64.8306 61.4406 65.4988 59.2288 66.6094 56.8571C68.1247 53.5818 67.4 49.3936 67.4 49.3936C69.0514 50.588 70.0033 52.5234 69.9412 54.5606C69.9412 58.0994 66.9388 60.33 65.16 62.2971C63.3812 64.2641 59.4941 63.7371 59.4941 63.7371Z" fill="black"/>
<path d="M66.1951 65.7796C64.3311 66.7645 62.3385 67.4837 60.2751 67.9161C58.3927 68.3584 56.5104 68.6408 54.7786 68.9325C53.5174 69.1584 52.3316 69.5537 51.1363 69.8267C49.1094 70.2753 47.1461 70.974 45.2916 71.9067C43.5651 72.7739 42.1629 74.1728 41.2916 75.8972C41.2069 76.0855 41.1033 76.2737 41.028 76.4714L40.8492 77.0925C40.7046 77.4763 40.6158 77.8788 40.5857 78.2878C40.5586 79.1383 40.6377 79.9887 40.821 80.8196C41.0924 81.9197 41.527 82.9729 42.1104 83.9443C42.261 84.1796 42.3927 84.4337 42.5622 84.6502C42.6865 84.9012 42.828 85.1434 42.9857 85.3749C43.2854 85.8588 43.639 86.3072 44.0398 86.7114C44.5386 87.2102 44.3504 87.6996 43.3622 87.9725C42.6995 88.1257 42.0107 88.1257 41.348 87.9725C40.9196 87.8954 40.5024 87.7658 40.1057 87.5867C39.8892 87.4925 39.7104 87.3608 39.4845 87.2478C39.3015 87.0995 39.1314 86.9357 38.9763 86.7584C37.8613 85.5119 36.9812 84.0738 36.3786 82.5137C35.6636 80.8518 35.4163 79.026 35.6633 77.2337C36.2204 73.7669 38.2079 70.6934 41.141 68.7631C44.1984 66.742 47.5742 65.2498 51.1269 64.349C54.8916 63.4078 58.3927 63.1255 61.4798 61.949C63.2605 61.3701 64.8316 60.2802 65.9974 58.8149C66.7825 57.6735 67.2679 56.353 67.4092 54.9749C67.4723 53.396 67.3395 51.8153 67.0139 50.269C66.7352 48.7717 66.7097 47.2383 66.9386 45.7325C67.2203 44.1481 67.8645 42.6503 68.821 41.3561C69.2181 40.8045 69.6655 40.2909 70.1574 39.822C70.5517 39.4581 70.9877 39.1421 71.4563 38.8808C71.8137 38.7291 72.1974 38.6492 72.5857 38.6455C73.1833 38.6204 73.7651 38.8415 74.1951 39.2572C74.4075 39.4191 74.6058 39.5986 74.788 39.7937C75.0283 40.1564 75.0741 40.6142 74.9104 41.0172C74.7486 41.6144 74.5147 42.1896 74.2139 42.7302C73.0374 44.2267 72.2563 46.0714 72.388 47.1537C72.4445 47.7843 72.4539 48.5372 72.5951 49.5631C72.7363 50.589 72.9622 51.8596 73.0469 53.4125C73.1219 54.6437 73.0237 55.8793 72.7551 57.0831C72.0131 60.8478 69.6421 64.0907 66.2798 65.9396L66.1951 65.7796Z" fill="black"/>
</svg>
