<svg width="96" height="96" viewBox="0 0 96 96" fill="none" xmlns="http://www.w3.org/2000/svg">
<path d="M32.5665 36.8614C32.2183 39.0073 27.7383 40.9085 27.7383 36.8614C27.7759 33.7555 33.0559 34.1132 32.5665 36.8614Z" fill="black"/>
<path d="M42.0443 27.9754C41.7996 29.5001 38.5996 30.8554 38.5996 27.9754C38.5996 25.7542 42.3643 26.0271 42.0443 27.9754Z" fill="black"/>
<path d="M18.0543 64.5112C17.7907 66.1018 14.459 67.5136 14.459 64.5112C14.459 62.1959 18.3837 62.4783 18.0543 64.5112Z" fill="black"/>
<path d="M51.0427 53.1797C50.7886 54.7044 47.6074 56.0597 47.6074 53.1797C47.6262 50.968 51.391 51.2315 51.0427 53.1797Z" fill="black"/>
<path d="M46.5251 33.7735C46.1769 35.9194 41.6875 37.8206 41.6875 33.7735C41.6875 30.6676 46.9769 31.0441 46.5251 33.7735Z" fill="black"/>
<path d="M49.3013 79.675C48.906 82.1127 43.8613 84.2303 43.8613 79.6656C43.8613 76.1738 49.8096 76.5974 49.3013 79.675Z" fill="black"/>
<path d="M38.7978 46.4331C38.4307 48.6449 33.8096 50.6119 33.8096 46.4331C33.8096 43.2237 39.259 43.619 38.7978 46.4331Z" fill="black"/>
<path d="M46.5251 57.293C46.224 59.1754 42.3369 60.7942 42.3369 57.293C42.3369 54.5918 46.9204 54.9213 46.5251 57.293Z" fill="black"/>
<path d="M27.7868 56.1274C26.9209 57.5674 23.1562 57.6427 24.3138 54.7156C25.2174 52.4944 28.8974 54.2921 27.7868 56.1274Z" fill="black"/>
<path d="M22.478 17.2653C22.5815 14.7617 27.4568 11.9758 28.0121 16.6158C28.4356 20.1641 22.3368 20.4464 22.478 17.2653Z" fill="black"/>
<path d="M75.9925 30.8553C76.096 28.54 80.6043 25.9612 81.1125 30.2529C81.5078 33.5376 75.8607 33.8012 75.9925 30.8553Z" fill="black"/>
<path d="M14.1202 79.4305C14.2049 77.4916 17.979 75.3364 18.4025 78.9316C18.7319 81.6799 14.0072 81.8963 14.1202 79.4305Z" fill="black"/>
<path d="M64.7177 51.1566C64.8213 48.7943 69.4236 46.1684 69.9413 50.5448C70.346 53.8766 64.5671 54.159 64.7177 51.1566Z" fill="black"/>
<path d="M38.9951 74.5179C39.0798 72.4756 43.0515 70.2074 43.5033 73.9909C43.8609 76.8803 38.8821 77.1156 38.9951 74.5179Z" fill="black"/>
<path d="M17.4331 37.1703C16.9138 38.1332 16.1873 38.969 15.3061 39.6173C15.052 39.8056 14.7414 39.6173 14.8731 39.2409C15.1367 38.582 15.3908 37.9044 15.7202 37.255C16.388 36.0243 17.1265 34.8333 17.932 33.6879C19.0117 32.1224 20.1807 30.6203 21.4331 29.1891C22.9668 27.3755 24.6966 25.7373 26.5908 24.3044C30.5784 21.2275 35.3487 19.3298 40.3602 18.8267C41.5321 18.7501 42.709 18.8261 43.8614 19.0526C45.9722 19.4234 47.971 20.2699 49.7061 21.5279C51.3979 22.7604 52.8227 24.3228 53.8943 26.1209C54.252 26.7044 54.5437 27.335 54.9296 27.8714C55.3202 28.5439 55.6358 29.2572 55.8708 29.9985C56.0684 30.5444 56.2567 31.175 56.4355 31.8244C56.6143 32.4738 56.7743 33.1985 56.9155 33.7538C57.1183 34.7284 57.4342 35.676 57.8567 36.5773C58.0515 36.9146 58.2818 37.2301 58.5437 37.5185C59.1918 38.2369 60.0997 38.6671 61.0661 38.7138C62.6002 38.9679 64.1625 39.2409 65.7249 39.6079C66.1867 39.6471 66.6354 39.7817 67.0425 40.0032C67.9109 40.5272 68.8678 40.8877 69.8661 41.0667C71.2264 41.5078 72.5164 42.1417 73.6967 42.9491C74.2952 43.3673 74.8227 43.879 75.259 44.4644C75.6731 44.9726 74.9955 45.3209 74.7884 45.2738C74.1861 45.1326 74.412 45.6597 74.2896 45.9138C74.2565 46.0075 74.2053 46.0938 74.139 46.1679C72.9656 45.82 71.7666 45.565 70.5531 45.4056C70.1014 45.3397 69.612 45.3303 69.1696 45.2644L67.9084 45.1044C67.1461 45.0009 66.5531 44.9444 66.3649 44.8973C66.3649 44.8973 65.6496 44.7373 64.6331 44.5679C63.6167 44.3985 62.2425 44.2009 60.812 44.022L60.2661 43.9562L59.5884 43.8526C59.1184 43.7687 58.6533 43.6588 58.1955 43.5232C57.2856 43.2386 56.4206 42.8267 55.6261 42.2997C54.6609 41.6135 53.8339 40.7514 53.1884 39.7585C52.7476 39.0278 52.4297 38.2298 52.2472 37.3962C52.2472 37.3114 51.9743 36.6244 51.7296 35.6738C51.6073 35.2126 51.4755 34.6667 51.3531 34.1303C51.2308 33.5938 51.1178 33.1138 50.9767 32.615C50.6318 31.307 50.1359 30.0436 49.499 28.8503C48.8027 27.5871 47.9453 26.4197 46.9484 25.3773C46.7604 25.1641 46.5336 24.9885 46.2802 24.8597C44.2849 23.655 41.4802 23.335 38.619 23.5703C37.1389 23.7019 35.6758 23.9826 34.252 24.4079C33.9978 24.4926 33.7249 24.5397 33.4614 24.6056C33.14 24.6762 32.8252 24.7738 32.5202 24.8973C29.1315 26.2387 26.0345 28.2235 23.4002 30.742C23.099 31.0432 22.1767 31.8526 21.3108 32.7656C20.6022 33.479 19.936 34.2332 19.3155 35.0244C18.9673 35.4197 17.6684 36.7279 17.4331 37.1703Z" fill="black"/>
<path d="M77.9599 52.814C78.0098 52.4903 78.2036 52.2065 78.487 52.0422C78.5717 51.9764 78.7693 52.0422 78.7882 52.1364C78.807 52.2305 78.7882 52.5787 78.8635 52.7481C78.9388 52.9175 78.7411 54.8187 78.6846 55.4964C78.6323 56.1511 78.5221 56.7999 78.3552 57.4352C78.0538 58.752 77.6381 60.04 77.1129 61.2846C76.9717 61.5471 76.7978 61.7906 76.5952 62.0093C75.928 62.7728 75.3266 63.5914 74.7976 64.4564C74.6813 64.5852 74.6059 64.7458 74.5811 64.9175C74.3537 65.4214 74.0558 65.8904 73.6964 66.3105C73.3599 66.7651 72.9852 67.1902 72.5764 67.5811L70.4682 69.1528C70.3646 69.2187 70.3082 69.3411 70.1388 69.3317C69.7341 69.3317 69.5929 69.5199 69.3952 69.6987C69.1017 69.9403 68.7866 70.1545 68.4541 70.3387C68.2513 70.4089 68.038 70.4439 67.8235 70.4422C67.6164 70.4422 67.3435 70.0564 67.3529 69.9811C67.3529 69.7646 67.1082 69.6987 66.967 69.567C66.9099 69.5241 66.8592 69.4734 66.8164 69.4164C67.0468 68.6374 67.3625 67.8862 67.7576 67.1764C67.8235 67.1764 69.6399 64.8705 69.8282 64.5881C69.9367 64.4494 70.075 64.3368 70.2329 64.2587C70.3176 64.2587 71.5882 62.3011 71.6258 62.2258C71.9552 61.8775 72.1341 61.4352 72.567 61.1999C72.6507 61.1491 72.7165 61.0734 72.7552 60.9834C72.9717 60.6446 73.1976 60.3058 73.4423 59.9858C73.6711 59.66 73.9161 59.3459 74.1764 59.0446C74.4588 58.7246 74.647 58.3575 74.8917 58.0187C74.8917 57.9622 75.0141 57.9152 75.0611 57.8493C75.1314 57.7841 75.1945 57.7115 75.2493 57.6328C75.8483 56.795 76.3682 55.9033 76.8023 54.9693C77.0826 54.5004 77.3371 54.0166 77.5646 53.5199C77.7173 53.2969 77.8496 53.0607 77.9599 52.814V52.814Z" fill="black"/>
<path d="M52.04 66.4611C52.6417 66.8907 52.81 67.7117 52.4259 68.3434C52.3318 68.5881 51.7483 68.8893 51.5789 68.8046C51.24 68.6446 50.92 68.494 50.6377 68.334C50.1882 67.9851 49.7131 67.6705 49.2165 67.3928C48.5239 67.0594 47.7844 66.8341 47.0236 66.7246C46.0824 66.5646 45.0753 66.4799 44.0494 66.3952C41.8304 66.3317 39.6097 66.4293 37.4047 66.6869C36.8878 66.7247 36.3688 66.7247 35.8518 66.6869C34.0636 66.6869 32.2659 66.7999 30.3742 66.9034C30.0557 66.8889 29.7372 66.9303 29.433 67.0258C28.3329 67.1653 27.2175 67.1271 26.1294 66.9128C25.7286 66.852 25.3324 66.7639 24.9436 66.6493C24.5738 66.556 24.2094 66.4429 23.8518 66.3105C23.3773 66.1441 22.9253 65.9196 22.5059 65.6422C20.7719 64.4294 19.5115 62.6534 18.9389 60.6163C18.873 60.3528 18.6847 60.0893 18.7883 59.7975C19.0894 59.1481 18.7883 58.6493 18.8447 58.094C18.8393 57.3528 18.9214 56.6136 19.0894 55.8916C19.2114 55.5299 19.3791 55.1851 19.5883 54.8658C19.7483 54.5646 20.2753 54.7528 20.3412 54.8658C20.52 55.1669 20.7742 54.9316 21 54.8658C21.0778 54.8516 21.1575 54.8516 21.2353 54.8658C21.32 54.8658 21.6024 55.8069 22.073 56.6728C22.2803 57.0711 22.5195 57.4519 22.7883 57.8116C22.9083 57.9992 23.0032 58.2017 23.0706 58.414C23.2583 59.0563 23.5613 59.659 23.9647 60.1928C24.4111 60.7457 24.9955 61.171 25.6589 61.4258C25.8737 61.5483 26.0811 61.6834 26.28 61.8305C26.8924 62.0151 27.524 62.1288 28.1624 62.1693C29.1036 62.2634 30.2142 62.2446 30.2989 62.2446C31.1743 62.2385 32.0481 62.3237 32.9059 62.4987C33.0836 62.5267 33.2647 62.5267 33.4424 62.4987C34.9859 62.414 36.5765 62.4234 38.1483 62.4046L40.6424 62.3105C40.794 62.32 40.9449 62.3389 41.0942 62.3669C41.2918 62.3669 41.48 62.4234 41.6683 62.4234C43.7532 62.4276 45.8298 62.6868 47.8518 63.1952C48.0676 63.2577 48.2784 63.3364 48.4824 63.4305L49.4236 63.9293C49.7497 64.1101 50.064 64.3112 50.3647 64.5316C50.5744 64.6598 50.7755 64.8013 50.9671 64.9552C51.1865 65.1602 51.3766 65.3946 51.5318 65.6516C51.6602 65.9451 51.8315 66.2179 52.04 66.4611Z" fill="black"/>
</svg>
