<svg width="96" height="96" viewBox="0 0 96 96" fill="none" xmlns="http://www.w3.org/2000/svg">
<path d="M39.1497 69.0388C41.0433 68.0383 42.8587 66.8962 44.5803 65.6223C46.3685 64.3329 48.0156 62.9117 49.6344 61.4246C50.2274 60.8694 50.7921 60.2952 51.3568 59.7211C51.9215 59.147 52.4579 58.5447 53.0227 57.9705C57.0157 53.8555 60.6493 49.4063 63.8838 44.6717C65.3076 42.5644 66.5874 40.3633 67.7144 38.0835C68.4297 36.6341 69.0885 35.147 69.6721 33.6505C70.2556 32.1541 70.9332 30.7047 71.4227 29.1799C71.7521 28.2388 72.1097 28.3988 72.3638 29.3588C72.5462 30.0022 72.6443 30.6666 72.6556 31.3352C72.6925 31.7674 72.6925 32.2019 72.6556 32.6341L72.5803 33.3399C72.5243 33.5758 72.4552 33.8083 72.3732 34.0364C71.2416 37.3016 69.8047 40.4528 68.0815 43.4482C66.3928 46.4423 64.4633 49.2941 62.3121 51.9752C59.7332 55.1752 57.1638 58.5635 54.265 61.6694C51.0784 65.0786 47.5242 68.1246 43.6674 70.7517C41.2411 72.4239 38.5926 73.7481 35.7991 74.6858C33.597 75.4317 31.2553 75.6729 28.9474 75.3917C27.7295 75.2405 26.5512 74.8605 25.4744 74.2717C24.3101 73.6272 23.3708 72.6419 22.7827 71.4482C21.991 69.6776 21.7547 67.7087 22.105 65.8011C22.3556 64.0426 22.8963 62.3379 23.705 60.7564C24.0357 60.0683 24.4098 59.4018 24.825 58.7611C26.4532 56.4176 27.3756 55.9941 28.4109 56.1446C28.6469 56.1593 28.8805 56.2003 29.1074 56.267C29.7568 56.5305 29.4368 57.6976 28.6179 59.3446C28.0039 60.5529 27.4969 61.8126 27.1027 63.1094C26.6922 64.296 26.4114 65.5235 26.265 66.7705C26.1119 67.7094 26.2294 68.6725 26.6038 69.547C26.9242 70.2249 27.5266 70.7274 28.2509 70.9211C29.9236 71.4666 31.7135 71.5447 33.4274 71.147C35.4061 70.6982 37.3085 69.9626 39.0744 68.9635L39.1497 69.0388Z" fill="black"/>
<path d="M51.6582 76.418C52.9571 75.8828 54.2153 75.2537 55.4229 74.5356C55.8746 74.2721 56.2511 73.9145 56.6935 73.6509C58.2935 72.7196 59.8168 71.6621 61.2487 70.4886C61.8735 69.9579 62.4586 69.3822 62.9993 68.7662C63.3664 68.3898 63.6582 67.9474 64.044 67.5898C64.4299 67.2321 64.797 66.8651 65.1923 66.5168C65.4276 66.2909 65.6252 66.4698 65.7099 66.8745C65.8084 67.438 65.7363 68.0181 65.5029 68.5404C65.4464 68.6721 65.3993 68.8227 65.3335 68.9451L65.0793 69.2933L64.5617 69.9521C64.204 70.3945 63.837 70.818 63.4511 71.2227C62.6872 72.0447 61.8491 72.7945 60.9476 73.4627C59.8558 74.2533 58.8958 75.2792 57.7758 76.0886C56.5096 76.9642 55.1858 77.7535 53.8135 78.4509C52.9758 78.8745 52.1193 79.2698 51.244 79.618C49.9004 80.1512 48.5068 80.5485 47.084 80.8039C45.9624 81.0472 44.8145 81.1484 43.6676 81.1051C43.4086 81.1033 43.1503 81.0781 42.8958 81.0298C41.9546 80.7098 41.757 80.3333 41.7758 79.7968C41.7661 79.6715 41.7661 79.5457 41.7758 79.4204C41.8511 79.0439 42.3123 78.8274 42.9052 78.7521C43.3217 78.6675 43.7428 78.6078 44.1664 78.5733C44.5711 78.5074 44.9758 78.4604 45.3805 78.3568C46.1899 78.1968 46.9899 77.9427 47.837 77.7451C49.1321 77.418 50.3928 76.9673 51.6017 76.3992L51.6582 76.418Z" fill="black"/>
<path d="M34.8109 78.0274C33.5605 78.4732 32.2567 78.7517 30.9333 78.8557C29.4539 78.9617 27.9705 78.7166 26.6039 78.1404C25.2107 77.5246 24.0058 76.5503 23.1121 75.3168L22.5192 74.4415L22.0392 73.5004C21.7042 72.8111 21.4636 72.0798 21.3239 71.3263C20.978 68.7217 21.302 66.072 22.265 63.6274C23.0664 61.4246 24.0453 59.2906 25.1921 57.2463C27.4317 53.2219 30.1667 49.4941 33.3333 46.1498C36.4694 42.7745 40.0025 39.7912 43.8556 37.2651C46.6978 35.3834 49.7528 33.8448 52.9568 32.6816C56.2698 31.4792 59.7898 30.9512 63.3097 31.1286C66.4797 31.3198 69.5785 32.1489 72.4203 33.5663C73.9079 34.2795 75.2839 35.2053 76.505 36.3145C77.7957 37.5089 78.8107 38.9703 79.4792 40.5968C80.123 42.1833 80.443 43.8825 80.4203 45.5945C80.3935 47.1841 80.1722 48.7645 79.7615 50.3004C78.9606 53.2453 77.7605 56.0668 76.1945 58.6863C74.7008 61.2295 72.9809 63.633 71.0556 65.8674C69.1448 68.0668 67.0951 70.1417 64.9192 72.0792C60.5861 75.9893 55.6586 79.1853 50.3215 81.5474C49.1199 82.0727 47.8916 82.5346 46.6415 82.931C46.0109 83.1192 45.3709 83.298 44.7592 83.458C43.9133 83.6475 43.0465 83.7266 42.1803 83.6933C41.2945 83.6568 40.4232 83.4558 39.6109 83.1004C38.7998 82.7723 38.1736 82.1048 37.898 81.2745C37.4462 79.6086 38.5097 77.9145 39.705 76.5686C39.8462 76.4086 40.0156 76.211 40.138 76.0886L40.4862 75.7404C40.7215 75.5051 40.9568 75.2698 41.1921 75.0533C41.6627 74.5921 42.1333 74.1686 42.6415 73.7357C43.5827 72.8792 44.6274 72.0792 45.6533 71.298C47.6995 69.7457 49.8401 68.3218 52.0627 67.0345C54.9477 65.3167 58.0286 63.9517 61.2392 62.9686C62.9311 62.4652 64.6798 62.1774 66.4439 62.1121C68.3515 62.0318 70.2527 62.3825 72.0062 63.138C73.8023 63.9803 75.3111 65.3321 76.345 67.0251L77.0415 68.2674C77.2571 68.7264 77.4365 69.2016 77.578 69.6886C77.8422 70.6078 77.9907 71.5562 78.0203 72.5121C78.0814 74.2886 77.8492 76.0629 77.3333 77.7639C76.8601 79.4311 76.177 81.0313 75.3003 82.5263C74.1333 84.4086 73.1733 84.8886 73.0039 84.6251C72.8345 84.3615 73.1639 83.3168 73.4745 81.6604C73.8988 79.4912 74.0035 77.2716 73.785 75.0721C73.7023 73.8174 73.4392 72.5812 73.0039 71.4015C72.5098 70.3665 71.8044 69.4464 70.9333 68.7004C70.1107 68.0568 69.1399 67.6297 68.1097 67.458C66.8606 67.2697 65.5891 67.2856 64.345 67.5051C61.444 68.051 58.64 69.0248 56.025 70.3945C53.2722 71.7924 50.6404 73.4169 48.1568 75.251C46.8956 76.1921 45.6721 77.1333 44.5427 78.1215C44.2603 78.3757 43.9686 78.6298 43.7145 78.8839L43.2062 79.3733C43.1027 79.4674 43.1309 79.4298 43.0933 79.4768C43.0556 79.5239 43.0933 79.618 43.2062 79.6274H43.3662L43.7615 79.5427L44.2886 79.411C44.9945 79.2227 45.7097 78.9968 46.4156 78.7427C49.3101 77.6507 52.0828 76.2597 54.6886 74.5921C59.9858 71.1448 64.7218 66.9039 68.7309 62.018C71.1246 59.103 73.0779 55.8527 74.5286 52.371C75.9121 48.9639 76.5709 45.1616 75.3003 42.3098C74.6463 40.8513 73.567 39.6244 72.2039 38.7898C71.4659 38.3184 70.6953 37.9 69.898 37.538C69.4745 37.378 69.0603 37.1898 68.6368 37.0298L67.3474 36.6251C63.7978 35.7086 60.0735 35.7086 56.5239 36.6251C52.4426 37.6515 48.5724 39.3843 45.0886 41.7451C41.5263 44.1302 38.2568 46.9258 35.3474 50.0745C32.4001 53.2058 29.8694 56.7046 27.818 60.4839C26.8295 62.3415 26.0378 64.2972 25.4556 66.3192C24.9192 68.2863 24.778 70.291 25.5121 71.7498C25.9643 72.7479 26.6802 73.6037 27.5827 74.2251C28.023 74.4906 28.5027 74.6844 29.0039 74.7992C29.5422 74.9103 30.0935 74.9451 30.6415 74.9027C33.1292 74.5723 35.5066 73.6703 37.5874 72.2674C42.058 69.5286 46.058 65.7921 49.8697 62.018C55.7175 56.3377 60.7817 49.9029 64.9286 42.8839C66.9343 39.4198 68.4874 35.7127 69.5497 31.8533L69.898 30.451L70.1521 29.0016C70.3395 28.0708 70.4528 27.1267 70.4909 26.178C70.6163 24.4456 70.2127 22.7159 69.3333 21.218C68.6207 20.1799 67.6099 19.3824 66.4345 18.931C65.1326 18.4546 63.7634 18.1878 62.378 18.1404C59.4231 18.0473 56.4707 18.3898 53.6156 19.1568C50.6926 19.8999 47.8346 20.8788 45.0697 22.0839C42.3259 23.335 39.6854 24.8015 37.1733 26.4698C34.9427 27.9474 32.8627 29.5757 30.745 31.2886C28.778 32.8792 27.178 34.2533 25.8321 35.411C24.4862 36.5686 23.3568 37.4627 22.4062 38.1874C21.1122 39.2923 19.6164 40.1361 18.0015 40.6721C17.4727 40.8715 16.9281 41.0258 16.3733 41.1333C15.6956 41.1333 15.9592 40.2957 17.0133 38.6768C18.6746 36.2553 20.5419 33.9817 22.5945 31.8816C26.672 27.5767 31.2071 23.7296 36.1192 20.4086C37.3897 19.571 38.698 18.771 40.0533 18.0274C41.4229 17.2603 42.8336 16.5691 44.2792 15.9568C47.1808 14.7468 50.186 13.8018 53.258 13.1333C56.5016 12.3838 59.8357 12.1017 63.1592 12.2957C65.055 12.432 66.9137 12.8903 68.6556 13.651C70.675 14.5245 72.4095 15.946 73.6627 17.7545C74.8475 19.5247 75.5573 21.5697 75.7239 23.6933C75.8788 25.504 75.7902 27.3273 75.4603 29.1145C74.9084 32.3275 73.9894 35.4664 72.7215 38.4698C70.8609 42.7882 68.535 46.8909 65.785 50.7051C63.0963 54.4361 60.1494 57.9741 56.9662 61.2933C53.8181 64.589 50.494 67.712 47.0086 70.6486C45.2125 72.1575 43.3267 73.5561 41.3615 74.8368C39.3321 76.1973 37.1451 77.3066 34.8486 78.1404L34.8109 78.0274Z" fill="black"/>
</svg>
