<svg width="159" height="143" viewBox="0 0 159 143" fill="none" xmlns="http://www.w3.org/2000/svg">
<g id="vectorly-UNI-pie-chart" clip-path="url(#clip0_615_10646)">
<g id="vectorly-UNI-pie-chart_2">
<path id="path426" fill-rule="evenodd" clip-rule="evenodd" d="M74.9701 69.7857L136.862 98.1194C137.606 98.4685 137.934 99.3392 137.602 100.086C132.06 112.787 122.885 123.574 111.385 131.145C100.153 138.542 86.6968 142.866 72.2291 142.945C52.3549 143.024 34.3118 135.074 21.2372 122.152C8.13621 109.203 0.0377401 91.2622 0 71.4597C0.0415286 51.6611 8.14377 33.7241 21.2448 20.779C34.3193 7.86385 52.3587 -0.0819312 72.2291 0.000637306C88.0032 0.0832058 102.577 5.21027 114.375 13.8654C126.4 22.6856 135.552 35.1541 140.162 49.6155C140.283 49.9909 140.249 50.4 140.064 50.749C139.875 51.0981 139.558 51.357 139.176 51.4697L74.9701 69.7857ZM71.7798 68.5997L136.873 49.1013C132.173 35.9498 123.512 24.6673 112.329 16.6578C101.044 8.58071 87.1839 3.8403 72.2291 3.91537C53.5102 3.99417 36.596 11.6246 24.3558 23.8716C12.1458 36.0811 4.58725 52.8997 4.62502 71.4597C4.59104 90.0198 12.1533 106.835 24.3633 119.044C36.6035 131.28 53.514 138.91 72.2291 138.982C85.938 139.06 98.7218 135.086 109.448 128.202C120.103 121.367 128.733 111.673 134.219 100.199L71.6364 70.4801C71.2551 70.3037 71.0209 69.9096 71.0549 69.4893C71.0851 69.0726 71.3758 68.7198 71.7798 68.5997Z" fill="black"/>
<path id="path428" fill-rule="evenodd" clip-rule="evenodd" d="M104.192 9.61778C104.464 9.13192 105.079 8.9537 105.571 9.22395C106.06 9.49132 106.239 10.1037 105.967 10.5924C105.967 10.5924 95.9322 30.0213 87.0279 46.7449C81.325 57.4627 76.076 67.0535 74.5376 69.8537C74.9771 71.4636 75.9777 75.1379 77.256 79.9965C78.4908 84.6913 79.9889 90.4901 81.5361 96.5965C86.4293 115.879 91.9153 138.177 91.9153 138.177C92.0628 138.714 91.7418 139.266 91.2039 139.413C90.6631 139.56 90.1049 139.243 89.9574 138.706C89.9574 138.706 83.3088 116.724 77.6898 97.6372C75.9083 91.594 74.2397 85.8413 72.9123 81.1752C71.0354 74.5916 69.8352 70.17 69.8352 70.17C69.6762 69.595 69.7514 68.9798 70.0406 68.4565C70.0406 68.4565 76.2698 57.3334 83.5113 44.8158C93.0027 28.4142 104.192 9.61778 104.192 9.61778Z" fill="black"/>
<path id="path430" fill-rule="evenodd" clip-rule="evenodd" d="M154.11 52.7545C158.422 58.8982 159.706 67.1982 158.624 75.1101C157.487 83.4359 153.682 91.2759 148.213 95.8614C147.6 96.3559 146.747 96.4364 146.053 96.0626C146.053 96.0626 134.32 90.0856 122.657 83.9677C119.47 82.2945 116.292 80.5983 113.359 79.0171C105.565 74.8225 99.4835 71.4617 99.4835 71.4617C98.7143 71.0534 98.2689 70.2226 98.3528 69.3602C98.4367 68.4977 99.0324 67.7703 99.8653 67.5145C99.8653 67.5145 109.793 64.5964 121.081 61.3649C135.867 57.133 152.964 52.352 152.964 52.352C153.395 52.2197 153.861 52.3836 154.11 52.7545ZM152.823 54.5255C149.416 55.6726 134.927 60.5427 122.139 64.766C115.864 66.8388 109.999 68.7507 106.074 70.0243C108.553 71.3151 111.864 73.0429 115.537 74.9835C118.484 76.5389 121.662 78.2293 124.826 79.9457C134.222 85.0372 143.568 90.215 146.755 91.9889C151.247 87.9841 154.379 81.5068 155.613 74.6385C156.869 67.6639 156.189 60.2725 152.823 54.5255Z" fill="black"/>
<path id="path432" fill-rule="evenodd" clip-rule="evenodd" d="M135.656 43.3153C136.009 42.884 136.648 42.818 137.082 43.1687C137.516 43.5195 137.582 44.1548 137.229 44.5861C137.229 44.5861 136.758 46.0178 135.824 47.9009C135.621 48.3063 135.393 48.7059 135.127 49.1141C134.962 49.3728 134.791 49.6316 134.586 49.8644C134.051 50.4653 133.447 50.9713 132.865 51.437C131.237 52.748 129.93 53.5128 129.93 53.5128C129.577 53.944 128.938 54.0102 128.504 53.6594C128.071 53.3087 128.004 52.6733 128.357 52.242C128.357 52.242 128.843 50.8103 129.8 48.9617C130.141 48.3005 130.517 47.6076 131 46.9636C131.185 46.7164 131.405 46.4979 131.625 46.2851C131.975 45.943 132.319 45.6383 132.68 45.3594C134.34 44.0657 135.656 43.3153 135.656 43.3153Z" fill="black"/>
<path id="path434" fill-rule="evenodd" clip-rule="evenodd" d="M133.377 38.5736C133.729 38.1432 134.367 38.0783 134.801 38.429C135.238 38.7792 135.302 39.4137 134.95 39.8441C134.95 39.8441 133.692 42.2661 131.802 45.2924C131.377 45.9727 130.908 46.6642 130.405 47.3615C130.087 47.8071 129.762 48.2574 129.402 48.6788C128.473 49.7601 127.467 50.7571 126.516 51.6747C123.953 54.1508 121.835 55.8802 121.835 55.8802C121.483 56.3143 120.844 56.3791 120.41 56.0283C119.977 55.6776 119.91 55.0401 120.262 54.6097C120.262 54.6097 121.535 52.1992 123.45 49.1963C124.161 48.0864 124.936 46.9026 125.813 45.778C126.153 45.3391 126.53 44.9321 126.903 44.5293C127.49 43.9013 128.072 43.302 128.655 42.7513C131.252 40.2904 133.377 38.5736 133.377 38.5736Z" fill="black"/>
<path id="path436" fill-rule="evenodd" clip-rule="evenodd" d="M130.829 34.1548C131.184 33.7217 131.818 33.6594 132.256 34.0089C132.69 34.3597 132.756 34.9965 132.402 35.4251C132.402 35.4251 130.404 38.7572 127.588 42.9065C126.948 43.8511 126.256 44.8137 125.528 45.7887C125.06 46.4163 124.587 47.0498 124.081 47.6496C122.773 49.1921 121.385 50.6558 120.086 52.0027C116.599 55.6125 113.74 58.2448 113.74 58.2448C113.389 58.6765 112.749 58.7448 112.315 58.3939C111.877 58.0445 111.815 57.4063 112.166 56.9746C112.166 56.9746 114.179 53.6538 117.021 49.5241C118.079 47.9854 119.234 46.3395 120.492 44.7487C120.978 44.1311 121.507 43.5399 122.025 42.9607C122.838 42.0508 123.646 41.1793 124.445 40.3646C127.958 36.7789 130.829 34.1548 130.829 34.1548Z" fill="black"/>
<path id="path438" fill-rule="evenodd" clip-rule="evenodd" d="M128.042 30.034C128.392 29.6015 129.035 29.5325 129.467 29.8887C129.903 30.2343 129.966 30.8716 129.611 31.306C129.611 31.306 126.911 35.5016 123.211 40.7289C122.365 41.9237 121.458 43.1495 120.51 44.393C119.903 45.1907 119.289 45.9957 118.636 46.7733C116.972 48.7563 115.217 50.6679 113.581 52.4208C109.216 57.1104 105.647 60.6096 105.647 60.6096C105.292 61.0441 104.655 61.1058 104.222 60.7549C103.788 60.404 103.719 59.774 104.073 59.3395C104.073 59.3395 106.788 55.1552 110.514 49.9474C111.913 47.9924 113.434 45.8993 115.048 43.8723C115.679 43.082 116.35 42.3138 117.007 41.5654C118.04 40.3866 119.061 39.2568 120.063 38.1887C124.462 33.5198 128.042 30.034 128.042 30.034Z" fill="black"/>
<path id="path440" fill-rule="evenodd" clip-rule="evenodd" d="M125.022 26.1916C125.376 25.7603 126.013 25.6935 126.444 26.0506C126.883 26.3988 126.95 27.0302 126.596 27.4615C126.596 27.4615 123.221 32.481 118.669 38.75C117.626 40.1858 116.514 41.663 115.364 43.1558C114.619 44.1186 113.869 45.0939 113.077 46.0388C111.066 48.4465 108.968 50.7768 107.011 52.9269C101.794 58.6582 97.552 62.976 97.552 62.976C97.195 63.4135 96.5608 63.4741 96.1272 63.1232C95.6935 62.7723 95.6238 62.1374 95.978 61.7061C95.978 61.7061 99.3678 56.6979 103.946 50.4479C105.662 48.1069 107.529 45.5898 109.494 43.135C110.261 42.1745 111.065 41.2471 111.86 40.3286C113.096 38.9 114.325 37.513 115.526 36.2076C120.767 30.5015 125.022 26.1916 125.022 26.1916Z" fill="black"/>
<path id="path442" fill-rule="evenodd" clip-rule="evenodd" d="M121.787 22.6177C122.136 22.1899 122.78 22.119 123.213 22.47C123.647 22.8209 123.71 23.4596 123.361 23.8875C123.361 23.8875 119.338 29.6968 113.973 36.9603C112.749 38.6223 111.439 40.3384 110.086 42.0799C109.213 43.1997 108.333 44.333 107.411 45.4361C105.066 48.2524 102.634 50.9908 100.371 53.5133C94.3406 60.2391 89.4523 65.3502 89.4523 65.3502C89.1036 65.778 88.4598 65.8489 88.0293 65.4912C87.5957 65.1402 87.5296 64.5083 87.8783 64.0804C87.8783 64.0804 91.9139 58.2787 97.3061 51.0342C99.3275 48.3209 101.528 45.3958 103.828 42.5318C104.725 41.4134 105.658 40.3282 106.582 39.253C108.021 37.5754 109.448 35.9492 110.83 34.4177C116.884 27.7176 121.787 22.6177 121.787 22.6177Z" fill="black"/>
<path id="path444" fill-rule="evenodd" clip-rule="evenodd" d="M118.333 19.3066C118.693 18.8669 119.328 18.8054 119.761 19.1564C120.201 19.5032 120.263 20.1443 119.907 20.5759C119.907 20.5759 115.277 27.1314 109.129 35.3506C107.727 37.2262 106.227 39.1776 104.68 41.1547C103.692 42.4182 102.682 43.7064 101.643 44.9564C98.9771 48.1637 96.2313 51.2878 93.6645 54.1823C86.8621 61.8514 81.3601 67.713 81.3601 67.713C81.0002 68.1527 80.3655 68.2142 79.9319 67.8632C79.4983 67.5122 79.4301 66.8753 79.7857 66.4437C79.7857 66.4437 84.4354 59.8913 90.6 51.7029C92.9248 48.6183 95.4391 45.3075 98.0502 42.0632C99.0704 40.7943 100.131 39.5512 101.176 38.3286C102.809 36.4145 104.422 34.5605 105.987 32.8076C112.823 25.1527 118.333 19.3066 118.333 19.3066Z" fill="black"/>
<path id="path446" fill-rule="evenodd" clip-rule="evenodd" d="M114.69 16.2333C115.04 15.8041 115.685 15.7315 116.119 16.0825C116.552 16.4335 116.614 17.0737 116.264 17.5028C116.264 17.5028 110.999 24.8352 104.05 34.0356C102.46 36.1377 100.77 38.3244 99.0285 40.5383C97.908 41.9593 96.7736 43.3995 95.6055 44.8098C92.6114 48.4161 89.5328 51.9477 86.6745 55.1996C79.0608 63.8624 72.9284 70.4927 72.9284 70.4927C72.5729 70.9257 71.9373 70.9869 71.4999 70.6435C71.0702 70.2849 71.0047 69.6525 71.3541 69.2233C71.3541 69.2233 76.638 61.8944 83.6099 52.7202C86.2264 49.278 89.0794 45.5559 92.013 41.9163C93.1621 40.4873 94.3532 39.0881 95.5282 37.7042C97.3516 35.5614 99.156 33.4717 100.902 31.4967C108.543 22.8525 114.69 16.2333 114.69 16.2333Z" fill="black"/>
<path id="path448" fill-rule="evenodd" clip-rule="evenodd" d="M110.837 13.4163C111.188 12.9817 111.829 12.9184 112.263 13.2693C112.696 13.6202 112.759 14.2575 112.411 14.6863C112.411 14.6863 109.278 19.4069 105.036 25.2968C104.066 26.6431 103.027 28.0327 101.948 29.4382C101.255 30.3398 100.556 31.2497 99.8169 32.1326C97.9277 34.3864 95.9532 36.5665 94.1128 38.5732C89.2058 43.9254 85.2081 47.9477 85.2081 47.9477C84.8547 48.3789 84.2162 48.4456 83.7825 48.0947C83.3489 47.7438 83.2808 47.109 83.6343 46.6777C83.6343 46.6777 86.7792 41.965 91.0479 36.0943C92.6471 33.8964 94.3902 31.5296 96.2282 29.2315C96.9474 28.3305 97.703 27.4624 98.4465 26.605C99.6093 25.2697 100.762 23.9764 101.893 22.7544C106.825 17.4273 110.837 13.4163 110.837 13.4163Z" fill="black"/>
<path id="path450" fill-rule="evenodd" clip-rule="evenodd" d="M106.77 10.8555C107.126 10.4205 107.763 10.3582 108.196 10.7092C108.63 11.0601 108.7 11.6904 108.344 12.1254C108.344 12.1254 107.494 14.0414 106.102 16.4637C105.789 17.0082 105.444 17.5455 105.062 18.0971C104.825 18.443 104.576 18.7999 104.301 19.1187C103.572 19.955 102.775 20.6946 102.012 21.3846C99.9427 23.252 98.235 24.4895 98.235 24.4895C97.8815 24.9185 97.2423 24.9867 96.8087 24.6357C96.3776 24.2788 96.3076 23.6485 96.6636 23.2136C96.6636 23.2136 97.5307 21.3028 98.9468 18.9056C99.4693 18.0245 100.039 17.0957 100.712 16.2177C100.973 15.878 101.268 15.568 101.563 15.2673C102.026 14.7826 102.488 14.3356 102.954 13.924C105.06 12.0706 106.77 10.8555 106.77 10.8555Z" fill="black"/>
</g>
</g>
<defs>
<clipPath id="clip0_615_10646">
<rect width="159" height="143" fill="white"/>
</clipPath>
</defs>
</svg>
