<svg width="96" height="96" viewBox="0 0 96 96" fill="none" xmlns="http://www.w3.org/2000/svg">
<path d="M17.2472 78.2043C38.433 71.9926 58.9225 62.2702 80.7578 58.5526C84.9272 57.8373 83.1672 51.4843 79.0072 52.1996C57.1719 55.9643 36.6542 65.6396 15.4966 71.842C11.4213 73.0278 13.1625 79.3902 17.2472 78.2043Z" fill="black"/>
<path d="M17.5384 30.9299C18.7729 33.276 20.8999 35.0264 23.4396 35.7864C24.7563 36.1831 26.1845 35.8617 27.2043 34.9394C28.2174 33.7346 28.5697 32.107 28.1455 30.5911C27.5878 28.2047 26.2374 26.078 24.3149 24.5582C23.384 23.6321 22.1439 23.0824 20.8326 23.0146C19.1683 23.1226 17.8284 24.4226 17.6702 26.0829C17.3742 27.3316 18.0931 28.5968 19.3173 28.9817C20.4184 29.2829 22.0373 28.6052 22.2067 27.3346C22.261 27.1602 22.2957 26.9803 22.3102 26.7982C22.3667 26.6194 22.3102 26.6664 22.2443 26.9582L21.6796 27.5135C21.4074 27.6646 21.0949 27.7271 20.7855 27.6923C20.6161 27.6923 20.729 27.8335 20.4937 27.617C20.5973 27.7017 21.3314 28.1911 20.9926 27.9088C21.2821 28.1545 21.5586 28.4152 21.8208 28.6899C22.0937 28.9723 22.3479 29.2641 22.5926 29.5652C23.0632 30.1394 22.3667 29.2264 22.7714 29.8005L23.0161 30.1394C23.1761 30.3746 23.2984 30.6664 23.4679 30.8923C23.6373 31.1182 23.3549 30.4688 23.4208 30.7699C23.4867 31.0711 23.5714 31.297 23.6184 31.5605C23.7032 32.0594 23.6184 31.1088 23.6184 31.8523C23.6184 32.0499 23.7408 32.3041 23.6184 32.1441C23.6184 31.9935 23.6184 31.9746 23.6184 32.097C23.6184 32.2194 23.6184 32.2005 23.7032 31.8805C23.8556 31.6445 24.0707 31.4555 24.3243 31.3346C24.6632 31.1652 23.9949 31.3346 24.6914 31.2499C24.2867 31.2499 25.049 31.3535 24.7667 31.2499L24.3526 31.1464C23.929 31.0241 24.5408 31.2499 24.2867 31.1464C23.1195 30.622 22.1689 29.7112 21.5949 28.5676C20.2114 25.8758 16.1455 28.257 17.5384 30.9488V30.9299Z" fill="black"/>
<path d="M51.1856 22.3838C51.3038 23.7088 50.9722 25.035 50.2444 26.1485C50.4044 25.9508 50.028 26.365 50.0091 26.4026C50.1503 26.1485 50.0091 26.3461 50.1597 26.3179C50.6868 26.205 50.875 26.4308 51.3456 26.5061L51.4209 26.6285C51.3429 26.5147 51.2737 26.3951 51.2138 26.2708C51.1493 26.1602 51.0957 26.0436 51.0538 25.9226C50.9691 25.7155 50.9503 25.4614 50.8468 25.2638C50.7432 25.0661 50.8468 25.7344 50.8468 25.4708C50.9032 24.9344 50.8468 24.3791 50.8468 23.8426L50.9503 23.3344C50.9503 23.5791 50.9503 23.5038 50.9503 23.3344C51.0162 22.9767 51.0821 22.6191 51.1762 22.2614C51.2486 21.9642 51.3397 21.6718 51.4491 21.3861C51.5527 21.0944 51.3174 21.772 51.4491 21.3861C51.4491 21.292 51.5809 21.2073 51.6185 21.1132C51.5056 21.4614 51.5432 21.2638 51.3927 21.3673C50.9867 21.6487 50.4804 21.7445 49.9997 21.6308C49.708 21.6308 49.4821 21.245 49.9056 21.7532C50.8333 22.6545 52.3097 22.6545 53.2374 21.7532C54.129 20.8215 54.129 19.3531 53.2374 18.4214C52.4118 17.264 50.9723 16.7149 49.5856 17.0285C48.3401 17.5183 47.3961 18.5633 47.035 19.852C46.1844 21.9374 45.9207 24.2157 46.2727 26.4402C46.8656 29.3485 49.5668 32.3791 52.635 30.365C55.0068 28.812 56.1268 25.1508 55.8915 22.4497C55.8664 21.1607 54.8275 20.1218 53.5385 20.0967C52.2433 20.107 51.1958 21.1544 51.1856 22.4497V22.3838Z" fill="black"/>
</svg>
