<svg width="96" height="96" viewBox="0 0 96 96" fill="none" xmlns="http://www.w3.org/2000/svg">
<path d="M40.9218 88.2255C40.3506 88.2397 39.7803 88.1732 39.2277 88.0279L38.4654 87.8208C38.2301 87.7267 38.023 87.6138 37.8065 87.5102L37.1854 87.1808C36.9971 87.0585 36.8277 86.9173 36.6583 86.7855C36.2813 86.5158 35.9398 86.1995 35.6418 85.8443C35.3971 85.562 35.1148 85.3173 34.8607 85.0443C34.6396 84.7421 34.4354 84.4279 34.2489 84.1032C34.0059 83.5054 33.8813 82.8661 33.8818 82.2208C33.9 81.8998 33.9634 81.5829 34.0701 81.2796C34.1872 80.9906 34.3256 80.7106 34.4842 80.442C35.2189 79.4219 36.3111 78.7162 37.543 78.4655C37.9833 78.3529 38.4294 78.2649 38.8795 78.202C39.295 78.1532 39.7129 78.1281 40.1312 78.1267C41.2616 78.0226 42.3786 78.4341 43.1712 79.2467C43.4254 79.5196 42.9454 80.0561 42.3807 80.5643C41.816 81.0726 41.2795 81.6185 40.9783 81.6279C40.4221 81.6125 39.8661 81.6631 39.3218 81.7785H39.1242C39.0583 81.7785 38.9642 81.7785 38.9736 81.7785C38.9373 81.7491 38.8958 81.7268 38.8512 81.7126C38.7092 81.6507 38.554 81.6248 38.3995 81.6373C38.1881 81.6317 38.0098 81.7934 37.9948 82.0043C38.0149 82.1837 38.0797 82.3552 38.183 82.5032C38.2448 82.6054 38.314 82.7029 38.3901 82.7949C38.3901 82.7949 38.4936 82.8985 38.5877 82.9643L38.8418 83.1526C38.9959 83.2769 39.1671 83.3783 39.3501 83.4538C39.4987 83.5403 39.661 83.6008 39.8301 83.6326C40.1514 83.7074 40.4893 83.6534 40.7712 83.482C40.967 83.3594 41.1027 83.1607 41.1456 82.9337C41.1885 82.7068 41.1347 82.4722 40.9971 82.2867C40.5948 81.9601 40.0834 81.7986 39.5665 81.8349C39.4383 81.8495 39.3089 81.8495 39.1807 81.8349C38.7289 81.6185 38.7289 81.1667 38.983 79.849L39.1524 78.9079C39.2438 78.0187 39.8656 77.274 40.7242 77.0255C41.0295 76.9369 41.3491 76.9081 41.6654 76.9408C41.9826 76.9886 42.2969 77.0546 42.6065 77.1385C43.2849 77.3378 43.9224 77.6565 44.4889 78.0796C44.7923 78.3503 45.0754 78.6428 45.336 78.9549C45.6355 79.2784 45.8661 79.6595 46.0136 80.0749C46.1077 80.2914 46.1924 80.4985 46.2677 80.7149C46.343 80.9314 46.3712 81.1855 46.4183 81.4302C46.5097 81.9108 46.535 82.4016 46.4936 82.889C46.3775 84.3917 45.6742 85.7882 44.536 86.7761C43.5519 87.6948 42.2833 88.2494 40.9407 88.3479L40.9218 88.2255Z" fill="black"/>
<path d="M59.5195 20.5364C59.8822 22.3961 60.0462 24.2891 60.009 26.1834C59.9984 28.0061 59.8442 29.8251 59.5478 31.6234C59.3219 32.9223 59.1901 34.2211 58.8795 35.4917C57.76 39.9067 56.2967 44.2273 54.5031 48.414C53.7031 50.2493 52.9407 52.1129 52.1219 53.9199C51.0772 56.2352 50.089 58.6258 48.3572 60.5834C47.8301 61.1952 47.416 60.8093 47.1619 59.9058C47.0271 59.3573 46.9545 58.7953 46.9454 58.2305C46.9128 57.8988 46.9128 57.5646 46.9454 57.2329C47.0136 56.9097 47.1145 56.5944 47.2466 56.2917C49.2325 51.7082 50.7948 47.0023 52.7713 42.3434C53.8099 39.445 54.5387 36.4448 54.9454 33.3929C55.5971 30.127 55.9124 26.803 55.8866 23.4729C55.8451 22.483 55.7255 21.498 55.529 20.527C55.3359 19.61 55.0193 18.7235 54.5878 17.8917C53.962 16.7223 52.8717 15.8713 51.5854 15.5482C50.9615 15.4166 50.3145 15.4424 49.7031 15.6234C49.0613 15.8278 48.4618 16.1467 47.9337 16.5646C46.2113 17.9764 45.1101 20.1411 44.169 22.2964C43.9713 22.7858 43.7925 23.2376 43.6042 23.7552C43.3786 24.438 43.0132 25.0662 42.5313 25.5999C42.3682 25.762 42.1768 25.8927 41.9666 25.9858C41.7433 26.0572 41.5129 26.1045 41.2795 26.127C41.0537 26.127 40.8372 26.2023 40.6678 26.2023C40.1407 26.2023 39.6701 25.1482 39.9713 23.5952C40.5817 21.2324 41.5667 18.9827 42.889 16.9317C43.6487 15.7763 44.5712 14.7366 45.6278 13.8446C46.8851 12.7747 48.4306 12.1002 50.0701 11.9058C52.6494 11.7158 55.1653 12.7641 56.8466 14.7293C58.2387 16.4148 59.1896 18.4201 59.6137 20.5646L59.5195 20.5364Z" fill="black"/>
<path d="M40.5077 16.1881C41.2403 14.371 42.2257 12.6663 43.4348 11.1246C44.1981 10.1781 45.1181 9.36951 46.1548 8.734C47.3735 7.97391 48.7752 7.55764 50.2112 7.5293C51.5594 7.53721 52.8871 7.85947 54.0889 8.47047C55.1198 8.99857 56.0704 9.67038 56.9124 10.4658C57.3357 10.8237 57.7177 11.2278 58.0512 11.6705C58.3995 12.0939 58.7142 12.5439 58.9924 13.0164L59.7077 14.4281C59.9242 14.8987 60.0654 15.3693 60.2348 15.8399C61.0926 18.4225 61.5218 21.128 61.5054 23.8493C61.3616 28.2594 60.7014 32.6376 59.5383 36.894C58.4587 41.0108 57.1324 45.0589 55.5665 49.0164C54.1642 52.5175 52.743 56.0093 51.1242 59.3693C50.1149 61.5719 48.9805 63.715 47.7265 65.7881C46.4693 67.9703 44.8008 69.8881 42.8136 71.4352C41.3924 72.3764 41.2042 71.4822 41.4583 70.0328C41.5618 69.2799 41.7312 68.3575 41.9665 67.294C42.0781 66.744 42.2195 66.2004 42.3901 65.6658C42.6044 65.0946 42.8624 64.5408 43.1618 64.0093C45.326 59.9276 47.2127 55.7047 48.8089 51.3693C50.4183 46.9928 52.0842 42.6164 53.5148 38.1364C55.2 32.7873 55.8078 27.1571 55.303 21.5716C55.0018 18.6916 54.0795 16.0752 52.4795 14.5693C52.2721 14.3875 52.0519 14.2208 51.8206 14.0705C51.6133 13.9042 51.3856 13.765 51.143 13.6564C50.8108 13.4737 50.4396 13.3736 50.0606 13.3646C49.6376 13.3985 49.2328 13.5519 48.8936 13.8069C48.4047 14.1624 47.9703 14.5872 47.6042 15.0681C46.5367 16.5308 45.6753 18.1332 45.0442 19.8305C44.3564 21.6498 43.7843 23.5108 43.3312 25.4022C41.8951 31.2261 41.0438 37.1787 40.7901 43.1716C40.6553 47.7641 40.8187 52.3604 41.2795 56.9317C41.3924 57.9293 41.4959 58.8987 41.6089 59.9058C41.7218 60.9128 41.7501 61.5999 41.7689 62.2493C41.7682 62.7928 41.7146 63.335 41.6089 63.8681C41.5353 64.2549 41.3986 64.6269 41.2042 64.9693C40.9982 65.2746 40.7547 65.5528 40.4795 65.7975C40.2348 66.014 40.0183 66.2964 39.8112 66.4469C39.1995 66.9364 37.7406 65.5058 37.0442 62.6822C35.3689 54.2116 35.3877 45.2799 36.2348 36.3293C36.5736 32.9975 37.0536 29.6658 37.6371 26.2964C38.2268 22.8252 39.1568 19.4206 40.4136 16.1317L40.5077 16.1881Z" fill="black"/>
</svg>
