<svg width="96" height="96" viewBox="0 0 96 96" fill="none" xmlns="http://www.w3.org/2000/svg">
<path d="M23.8857 61.9107C20.0881 66.2967 16.6481 70.9799 13.5986 75.9154C11.7163 79.0495 16.6198 81.8918 18.4739 78.7389C21.2611 74.2107 24.4085 69.9145 27.8857 65.8918C30.1916 63.1154 26.2198 59.0965 23.8951 61.8918L23.8857 61.9107Z" fill="black"/>
<path d="M43.1141 43.2672C39.227 46.4389 35.4717 49.7613 31.8858 53.2625C29.2882 55.813 33.2788 59.8507 35.8858 57.2625C39.4623 53.7519 43.2176 50.4295 47.1047 47.2295C49.9282 44.933 45.8999 40.9519 43.1141 43.2389V43.2672Z" fill="black"/>
<path d="M60.817 30.0619C57.9935 31.8407 55.17 33.7419 52.497 35.7089C51.081 36.5953 50.6022 38.4323 51.4053 39.8972C52.177 41.2054 54.2288 41.9678 55.5935 40.9889C58.2947 39.0125 61.0617 37.1113 63.9041 35.3419C67.2358 33.2619 64.1676 27.9631 60.817 30.0619V30.0619Z" fill="black"/>
<path d="M50.7466 26.5227C56.0511 23.9412 61.8026 22.4043 67.6878 21.9956C69.7976 21.8239 71.9151 21.7642 74.0313 21.8168C75.4525 21.8168 77.3913 22.438 78.7372 22.1839L79.1983 22.278C80.2995 22.6168 79.8948 22.0521 78.003 20.5839C77.8444 21.3546 77.7313 22.134 77.6642 22.918C77.2078 24.9887 76.6423 27.0339 75.9701 29.045C74.6807 33.1674 73.043 37.2427 72.1489 41.478C71.3866 45.0168 76.8548 46.5321 77.5889 42.9744C78.8219 37.1862 81.3536 31.6803 82.7466 25.9674C83.5183 22.8897 84.9489 18.278 81.0713 16.9227C77.1936 15.5674 72.1678 16.0286 68.2995 16.3015C61.208 16.7144 54.2691 18.5315 47.8854 21.6474C44.6383 23.2756 47.4901 28.1415 50.7089 26.5227H50.7466Z" fill="black"/>
</svg>
