<svg width="96" height="96" viewBox="0 0 96 96" fill="none" xmlns="http://www.w3.org/2000/svg">
<path d="M53.7579 41.9561C51.3862 44.5538 49.0521 47.142 46.6897 49.7773C45.8332 50.7185 45.0709 51.7632 44.2144 52.7138L35.1132 62.7656C33.7768 64.2714 32.5062 65.8432 31.2638 67.3961C30.4732 68.4032 29.6921 69.4291 28.8826 70.4173L28.2615 71.1608L27.565 71.8291C27.0944 72.2714 26.6238 72.7044 26.0779 73.1185C25.5321 73.5326 25.1368 73.175 25.0803 72.2526C25.0663 71.6867 25.12 71.1211 25.2403 70.5679C25.3084 70.248 25.3996 69.9334 25.5132 69.6267L25.7109 69.1185C25.8048 68.9646 25.9086 68.8168 26.0215 68.6761C29.2309 64.5914 32.5438 60.5538 36.1956 56.742C38.3697 54.455 40.3368 51.8197 42.4544 49.382C44.7697 46.6997 47.1603 44.0456 49.485 41.3914L53.8426 36.5067C56.045 34.0314 58.3038 31.5938 60.4309 29.1091L62.8968 26.2008C63.7062 25.2597 64.5344 24.3185 65.3909 23.3773C65.7673 22.9632 66.1062 22.5397 66.5015 22.135C68.0168 20.6667 68.6568 20.3561 69.5132 20.6103C69.711 20.6471 69.9037 20.7071 70.0873 20.7891C70.6238 21.0714 70.3791 22.0314 69.485 23.255L67.4991 25.9091L65.4285 28.7326L64.365 30.0879C63.9979 30.5491 63.6026 31.0291 63.2168 31.4338L60.8826 34.0879C58.5391 36.7232 56.1768 39.3773 53.8332 42.0126L53.7579 41.9561Z" fill="black"/>
<path d="M55.4054 38.9535C52.996 41.7771 50.5866 44.6006 48.2148 47.4806C47.3583 48.5253 46.5772 49.6359 45.7113 50.6712C42.643 54.3418 39.5466 57.9841 36.5254 61.6924C35.1889 63.33 33.9183 65.043 32.6854 66.7465C31.8854 67.8288 31.1701 68.9677 30.3042 70.0312C29.4523 71.0921 28.5411 72.1039 27.5748 73.0618C26.963 73.6547 26.5301 73.1841 26.4266 72.2053C26.3127 70.8715 26.6188 69.5354 27.3019 68.3841C27.6517 67.7896 28.0383 67.2175 28.4595 66.6712L29.6925 65.0053C30.5113 63.8947 31.3489 62.803 32.2054 61.7112C33.9089 59.5371 35.6689 57.3912 37.523 55.3018C39.7348 52.77 41.683 49.9465 43.7725 47.2547C46.0783 44.2994 48.4219 41.3818 50.7654 38.4547L55.1042 33.0712C57.2972 30.3512 59.556 27.6688 61.6925 24.9206C63.3301 22.7747 64.7701 20.5441 66.3325 18.3324C66.6807 17.8524 66.9819 17.3912 67.3678 16.9112C68.7889 15.2171 69.4666 14.8594 70.5019 15.123C70.7382 15.1689 70.971 15.2318 71.1983 15.3112C71.8854 15.6312 71.7819 16.723 70.9819 18.1347C68.4312 22.3475 65.6013 26.3847 62.5113 30.2194C60.2148 33.1559 57.9089 36.1112 55.5183 38.9912L55.4054 38.9535Z" fill="black"/>
<path d="M55.8851 37.2032C53.2592 40.4973 50.6239 43.7915 48.0357 47.1044C47.0945 48.3185 46.2851 49.6174 45.3251 50.8691L40.2522 57.2221C38.5298 59.3115 36.798 61.4009 35.1133 63.5185C33.6169 65.4009 32.2898 67.3868 30.8969 69.3444C30.031 70.615 29.2216 71.9138 28.3369 73.1656C27.3853 74.3779 26.3507 75.5226 25.2404 76.5915C24.5345 77.2503 23.9886 76.7421 23.7157 75.5844C23.3697 74.0118 23.5075 72.3714 24.111 70.8785C27.3608 65.4917 31.0202 60.3628 35.0569 55.5374C37.5416 52.7138 39.6592 49.3538 41.9651 46.2668C44.5251 42.8785 47.1322 39.5185 49.7204 36.1585L54.511 29.9468C56.8733 26.775 59.471 23.7444 61.7769 20.535C63.6122 18.0973 65.118 15.4715 66.9439 13.0056C67.3392 12.4691 67.7157 11.9138 68.1486 11.3962C69.8522 9.63617 70.7839 9.23147 71.7627 9.47617C71.9897 9.50028 72.2136 9.54759 72.431 9.61735C73.0522 9.89029 72.8357 11.0291 72.1016 12.6668C69.871 17.655 66.6804 22.3326 63.5275 27.0762C61.2216 30.6244 58.5486 33.9279 55.998 37.3256L55.8851 37.2032Z" fill="black"/>
<path d="M55.1039 73.213C53.7581 74.2765 52.3463 75.3589 50.991 76.4318C50.4922 76.8271 50.0498 77.2883 49.5698 77.6836C47.8098 79.0671 46.0404 80.4506 44.3369 81.8906C43.5745 82.5212 42.9063 83.2648 42.2004 83.9424C41.375 84.8522 40.4882 85.7044 39.5463 86.493C39.2451 86.7095 38.8122 86.3895 38.6051 85.7871C38.4782 85.4379 38.4269 85.0658 38.4545 84.6953C38.4702 84.3126 38.5978 83.9428 38.8216 83.6318C40.4274 81.5155 42.3854 79.6913 44.6098 78.2389C45.9181 77.2977 47.0381 76.1401 48.2616 75.1048C49.4851 74.0695 50.991 72.8648 52.3651 71.7636L54.8592 69.7118L56.7416 68.1683C57.391 67.6695 58.0498 67.1706 58.6804 66.653C59.6216 65.8436 60.5628 64.9495 61.5039 64.1306C61.7204 63.9518 61.8992 63.7542 62.1439 63.5848C62.4437 63.3334 62.7983 63.1561 63.1792 63.0671C63.452 63.0027 63.7389 63.0806 63.9416 63.2742C64.0433 63.3466 64.135 63.432 64.2145 63.5283C64.3203 63.7112 64.3409 63.9312 64.271 64.1306C64.2012 64.4077 64.0692 64.6651 63.8851 64.8836C62.4545 66.5495 60.8263 68.2624 59.1322 69.8906C58.5206 70.4968 57.8731 71.0656 57.1933 71.5942L55.1604 73.2506L55.1039 73.213Z" fill="black"/>
<path d="M58.5773 68.4887L53.7585 72.9405C53.1749 73.4864 52.6761 74.1169 52.0926 74.6534C50.0126 76.5358 47.9043 78.4181 45.8526 80.3569C44.9513 81.2172 44.0967 82.1252 43.2926 83.0769C42.182 84.2252 41.2973 85.5805 39.6785 86.2675C39.1891 86.5028 38.822 86.0134 38.6149 85.204C38.4919 84.7554 38.4193 84.2945 38.3985 83.8299C38.3698 83.5766 38.3698 83.3208 38.3985 83.0675C38.4647 82.8496 38.5699 82.6455 38.7091 82.4652C39.2079 81.8346 39.7161 81.204 40.2338 80.5828C40.7514 79.9617 41.3632 79.4252 41.9467 78.8511C43.1261 77.7175 44.3638 76.6462 45.6549 75.6417C47.184 74.3072 48.6328 72.8836 49.9938 71.3781L54.6996 66.7758L57.6173 63.9522C59.0667 62.4934 60.6008 61.1287 61.9843 59.6134C63.0667 58.4464 63.9608 57.1475 64.9585 55.924C65.1843 55.6511 65.3726 55.3593 65.6173 55.1052C66.5585 54.164 67.0196 54.0416 67.9043 54.5875C68.1114 54.7193 68.3279 54.8322 68.5161 54.9734C69.1321 55.5196 69.2186 56.4501 68.7138 57.1005C67.1572 59.5469 65.3498 61.8243 63.3208 63.8958C61.8338 65.5146 60.2243 67.0205 58.6149 68.6017L58.5773 68.4887Z" fill="black"/>
<path d="M59.2913 64.9028C57.5595 66.7193 55.7901 68.5169 54.0207 70.3146C53.3807 70.9734 52.8348 71.7075 52.1383 72.3569C49.8607 74.6628 47.5736 76.9593 45.3807 79.3404C44.4395 80.4134 43.4983 81.5051 42.5572 82.5875C41.5219 83.9898 40.336 85.4863 39.1689 86.6534C38.8113 87.011 38.3689 86.8228 38.1619 86.1263C37.9313 85.1701 38.069 84.1621 38.5478 83.3028C39.4889 81.6557 40.5525 80.0651 41.663 78.531C42.7736 76.9969 44.1478 75.7075 45.5031 74.371C47.1689 72.8275 48.4866 70.8887 49.9925 69.1381C51.6583 67.2557 53.343 65.3734 55.0936 63.491L58.2748 60.0557C59.8748 58.3051 61.5219 56.5828 62.9807 54.7757C64.1572 53.3734 65.1925 51.9522 66.3219 50.484C66.5464 50.1422 66.8085 49.8265 67.1031 49.5428C68.2325 48.5451 68.7878 48.404 69.5501 48.6769C69.7249 48.7281 69.8949 48.7942 70.0583 48.8746C70.5572 49.1381 70.5195 49.9287 70.0583 50.9734L69.5501 52.1498C69.3635 52.522 69.1561 52.8833 68.9289 53.2322C68.496 53.9381 67.9878 54.644 67.5642 55.3404C66.641 56.7581 65.6088 58.1017 64.4772 59.3593C62.8207 61.2416 61.0701 63.124 59.376 65.0063L59.2913 64.9028Z" fill="black"/>
</svg>
