<svg width="96" height="96" viewBox="0 0 96 96" fill="none" xmlns="http://www.w3.org/2000/svg">
<path d="M23.6199 54.2778C24.1938 58.71 25.8062 62.9441 28.3258 66.6355C29.2729 67.9671 30.341 69.2084 31.5163 70.3437C33.4704 72.4789 35.775 74.2646 38.3305 75.6237C40.9577 77.0129 43.793 77.9665 46.7258 78.4472C49.3916 78.8772 52.0982 78.9973 54.7916 78.8049C56.514 78.7013 58.2458 78.4755 59.9775 78.2402C61.7093 78.0049 63.4881 77.9296 65.2669 77.7602C66.3681 77.6849 66.3211 78.0802 65.5211 78.7954C64.2552 79.9297 62.7863 80.8143 61.1916 81.4025C57.5057 82.3832 53.7115 82.8986 49.8975 82.9366C47.942 82.9401 45.9918 82.7318 44.081 82.3155C43.1263 82.1184 42.1836 81.867 41.2575 81.5625L39.8458 81.0919C39.3846 80.9131 38.9046 80.6966 38.481 80.499C34.1516 78.6166 29.7846 76.0096 26.6599 72.3107C23.2006 68.301 20.7513 63.5216 19.5163 58.3719L19.3563 57.7978L19.2622 57.2049L19.0646 55.9907C18.905 55.2075 18.7918 54.4156 18.7258 53.619C18.5753 52.0363 18.5282 50.4455 18.5846 48.8566C18.7615 44.068 19.8175 39.3527 21.6999 34.946L22.2458 33.6943L22.8387 32.4613L23.4505 31.2284L23.7516 30.579L24.1093 29.9955C24.5987 29.2143 25.0505 28.4143 25.5775 27.6519C26.1046 26.8896 26.7634 26.2307 27.3658 25.5249C27.8894 24.9024 28.4656 24.3261 29.0881 23.8025C29.5646 23.3701 30.0675 22.9677 30.594 22.5978C30.9956 22.3972 31.4146 22.2334 31.8458 22.1084C32.3885 21.906 32.9813 21.8796 33.5399 22.0331C33.7462 22.0677 33.9481 22.1245 34.1422 22.2025C34.3963 22.3343 34.3399 22.6731 34.0763 23.1437C33.7017 23.8616 33.2504 24.5369 32.7305 25.1578C28.9583 29.8053 26.1722 35.1724 24.5422 40.9319C23.3375 45.2551 23.0649 49.7849 23.7422 54.2213L23.6199 54.2778Z" fill="black"/>
<path d="M44.3252 38.6064C44.0743 42.1071 44.881 45.6025 46.6405 48.6393C47.329 49.721 48.1407 50.719 49.0593 51.6134C50.6522 53.3074 52.5122 54.7286 54.5652 55.8205C56.7029 56.9484 59.0061 57.7299 61.3887 58.1358C63.5416 58.4792 65.7338 58.4982 67.8923 58.1923C70.7158 57.8534 73.3699 57.1758 76.1652 56.564C77.0499 56.3852 77.2193 57.0346 76.7676 58.0134C76.092 59.3822 74.9361 60.4543 73.5205 61.0252C72.7676 61.317 72.0052 61.5899 71.224 61.8064C70.4503 62.0527 69.6611 62.2477 68.8617 62.3899C68.0617 62.5217 67.2429 62.5781 66.4335 62.6534C65.624 62.7287 64.7958 62.7287 63.977 62.6534C60.6711 62.5842 57.4129 61.8512 54.3958 60.4981C52.5607 59.6799 50.7839 58.7365 49.0782 57.6746C47.3498 56.5639 45.7984 55.1997 44.4758 53.6275C41.618 50.1578 39.9224 45.8778 39.6287 41.3923C39.4585 38.7233 39.6805 36.0438 40.2876 33.4393C40.7159 31.4509 41.4324 29.5358 42.4146 27.7546C43.4167 26.0016 44.6201 24.3718 46.0005 22.8981C46.4993 22.2958 47.0735 21.7875 47.6099 21.2134C48.1464 20.6393 48.7205 20.1405 49.3229 19.6699C50.4971 18.6537 51.7566 17.7405 53.0876 16.9405C53.6861 16.5902 54.3164 16.2971 54.9699 16.0652C55.4761 15.8726 55.9992 15.7277 56.5323 15.6323C56.9131 15.5783 57.2997 15.5783 57.6805 15.6323C58.2396 15.7277 58.7483 16.0137 59.1205 16.4417C59.2937 16.6083 59.4541 16.7876 59.6005 16.9781C59.9864 17.5899 59.1958 18.4558 57.9064 19.604C57.3887 19.9146 56.8993 20.3099 56.4099 20.6581C56.1652 20.837 55.9299 21.0346 55.6946 21.2228C55.4593 21.4111 55.1864 21.524 54.9511 21.7028C53.9629 22.3523 53.0029 23.0299 52.1276 23.764C50.2971 25.1697 48.7076 26.864 47.4217 28.7805C46.5061 30.1882 45.811 31.7275 45.3605 33.3452C44.8919 35.0631 44.6142 36.8275 44.5323 38.6064H44.3252Z" fill="black"/>
<path d="M22.5187 46.0332C22.2105 47.6575 22.028 49.3032 21.9729 50.9556C21.9316 52.5979 22.0229 54.2409 22.2458 55.8685C22.7725 59.1316 23.8854 62.2723 25.5305 65.1391C25.7958 65.6757 26.1109 66.1862 26.4717 66.6638L27.5634 68.1226C28.4011 68.9979 29.154 70.005 30.067 70.7673C31.6235 72.2861 33.3512 73.6189 35.2152 74.7391C37.1323 75.8539 39.1606 76.7655 41.267 77.4591C45.585 78.8723 50.1395 79.4192 54.6693 79.0685C55.6856 79.0135 56.6976 78.8972 57.6999 78.7203C58.7033 78.5758 59.6967 78.3684 60.674 78.0991C62.6235 77.5789 64.5155 76.8631 66.3211 75.9626C70.9611 73.6756 74.9423 70.1556 79.1117 66.7956C80.4199 65.7415 80.7493 66.4003 80.2411 67.925C79.3442 70.2922 77.8879 72.4073 75.9964 74.0897C73.8345 76.0506 71.4752 77.7822 68.9564 79.2568C66.3679 80.7555 63.5745 81.8684 60.6646 82.5603L59.5729 82.8144L58.4811 83.012C57.7564 83.125 57.0317 83.2756 56.2976 83.3697C54.8324 83.5437 53.3588 83.638 51.8834 83.652C50.4036 83.6771 48.9235 83.6173 47.4505 83.4732C46.7164 83.3979 45.9823 83.2662 45.2481 83.1626L44.1564 82.9838L43.074 82.7297C39.5419 81.9431 36.1167 80.736 32.8717 79.1344C29.5856 77.4564 26.6248 75.2064 24.1282 72.4897C21.3851 69.4777 19.2531 65.9616 17.8505 62.1368C17.1663 60.2298 16.6744 58.2592 16.3823 56.2544C16.077 54.2714 15.9542 52.2646 16.0152 50.2591C16.1884 45.387 17.2472 40.5872 19.1399 36.0944C21.8577 29.2074 26.5622 23.2842 32.6552 19.0779C35.0395 17.4945 37.6013 16.1962 40.2881 15.2097C42.9799 14.2908 45.7684 13.6844 48.5987 13.4026C49.8505 13.2521 51.0646 13.2144 52.3634 13.1768C57.0129 13.3368 58.387 14.1179 59.0646 15.8873C59.2458 16.2705 59.3877 16.6709 59.4881 17.0826C59.5823 17.7321 59.1399 18.2497 58.3023 18.6073C57.8137 18.8059 57.301 18.9388 56.7776 19.0026C56.1752 19.0873 55.4976 19.125 54.7352 19.1909C50.3379 19.266 45.9799 20.0347 41.8223 21.4685C39.8489 22.2154 37.9568 23.1615 36.1752 24.2921C34.395 25.4566 32.764 26.8347 31.3187 28.3956C29.0834 30.8251 27.2244 33.5756 25.8034 36.5556C25.0561 38.0735 24.4268 39.6468 23.9211 41.2615C23.3908 42.8463 22.9848 44.47 22.707 46.1179L22.5187 46.0332Z" fill="black"/>
</svg>
