<svg width="96" height="96" viewBox="0 0 96 96" fill="none" xmlns="http://www.w3.org/2000/svg">
<path d="M58.6704 38.2059L58.7174 36.1918V35.1848V34.5636V34.5636V34.5636C58.7868 34.3386 58.8402 34.109 58.8774 33.8765C58.9946 33.1317 59.0669 32.3806 59.0939 31.6271C59.1089 31.3799 59.0834 31.132 59.0186 30.893C59.0217 30.8711 59.0217 30.849 59.0186 30.8271C59.0186 30.8271 58.9715 30.8742 58.9621 30.893L58.8963 31.0624C58.8704 31.143 58.8323 31.2192 58.7833 31.2883C58.5668 31.6177 58.181 32.1448 57.428 33.1706L55.1315 36.1165C54.5951 36.8506 53.9551 37.5 53.3527 38.1871L52.4115 39.2036L51.4704 40.1448C49.189 42.4694 46.6648 44.5424 43.941 46.3283C42.1408 47.4119 40.2244 48.2896 38.228 48.9448C37.2267 49.2744 36.1961 49.5076 35.1504 49.6412C34.098 49.726 33.0404 49.726 31.988 49.6412C30.6798 49.5095 30.8774 48.8695 31.8092 47.9471C32.0445 47.7118 32.3174 47.4577 32.628 47.1942C32.9386 46.9306 33.268 46.6012 33.6257 46.3C33.9833 45.9989 34.3598 45.6789 34.7551 45.3589C35.1672 45.0898 35.6017 44.8568 36.0539 44.6624C37.6699 43.9279 39.2112 43.0391 40.6563 42.0083C41.3715 41.4906 42.1151 41.0012 42.8492 40.5024C43.5833 40.0036 44.2798 39.42 44.9574 38.8177C46.3602 37.5917 47.6866 36.281 48.9292 34.893C49.5315 34.1871 50.2092 33.5377 50.8115 32.7848L51.7057 31.7024L52.1574 31.1565L52.2798 31.0059L52.4492 30.7236L52.7974 30.14C53.3339 29.2459 53.8704 28.333 54.4068 27.4295L55.1786 26.0836C55.4421 25.6412 55.7057 25.0106 55.9692 24.493L57.5221 21.1895L58.2939 19.5236L58.388 19.3165V19.213V19.213L58.5292 19.0812L58.8115 18.8365L60.9198 16.9542L62.0586 16.013C62.0976 15.9957 62.142 15.9957 62.181 16.013C62.2583 16.0276 62.33 16.0634 62.388 16.1165C62.4731 16.1846 62.5518 16.2602 62.6233 16.3424C62.7592 16.5016 62.882 16.6716 62.9904 16.8506C63.2163 17.2271 63.4327 17.6318 63.6586 18.0742C64.2657 19.3704 64.6264 20.7683 64.7221 22.1965C64.9104 24.0789 64.9857 26.2718 65.061 28.38L65.1551 31.5612V33.1612V34.6765C65.0986 38.0365 65.0515 41.3965 64.9951 44.7471C64.9386 49.8295 64.741 54.9306 64.7974 59.9753C64.7974 63.8906 65.2398 67.74 65.4186 71.6365C65.4186 72.493 65.5598 73.34 65.5598 74.2059C65.5598 77.4248 65.0327 78.46 63.2633 79.0342C62.868 79.1882 62.4623 79.314 62.0492 79.4106C60.6845 79.6083 59.6774 78.2812 59.3763 75.9753C58.5752 68.88 58.2294 61.7407 58.341 54.6012C58.341 49.1895 58.4068 43.7589 58.4351 38.3377L58.6704 38.2059Z" fill="black"/>
</svg>
