<svg width="96" height="96" viewBox="0 0 96 96" fill="none" xmlns="http://www.w3.org/2000/svg">
<path d="M41.7171 74.8021C39.998 73.6207 38.4385 72.2225 37.0771 70.6421C35.6174 69.0002 34.5063 67.079 33.8112 64.995C33.6983 64.5997 33.5571 64.2138 33.4536 63.8091L33.2089 62.595C33.0801 61.7828 33.0485 60.9582 33.1148 60.1385C33.3325 57.4018 34.2355 54.7639 35.7406 52.4679C37.1995 50.2728 39.0886 48.3965 41.2936 46.9526C43.1864 45.6991 45.213 44.6605 47.3359 43.8562C48.0042 43.6021 48.6912 43.4044 49.3783 43.1691C50.0653 42.9338 50.7712 42.8397 51.4583 42.7268C51.809 42.6529 52.1643 42.6026 52.5218 42.5762H53.623C54.3499 42.5882 55.0718 42.699 55.7689 42.9056C56.6536 43.1597 56.503 43.8468 55.8253 44.7879C55.4454 45.3473 54.9999 45.8592 54.4983 46.3126C54.2343 46.5596 53.9545 46.7891 53.6606 46.9997L53.2089 47.2821C53.0464 47.3371 52.8795 47.3781 52.71 47.4044C47.985 48.1662 43.6067 50.357 40.1642 53.6821C39.1642 54.7247 38.4313 55.9937 38.0277 57.3809L37.8583 57.8985C37.8583 58.0679 37.7924 58.2562 37.7642 58.4256C37.6832 58.7798 37.6204 59.1379 37.5759 59.4985C37.4987 60.1985 37.4767 60.9034 37.51 61.6068C37.6512 64.5432 39.6559 67.4797 42.31 69.635C43.9575 71.0057 45.7966 72.1282 47.7689 72.9668C50.8111 74.2422 54.0704 74.9196 57.3689 74.9621C59.8829 74.9046 62.3699 74.4307 64.7289 73.5597L66.2442 72.995C68.1265 72.3738 68.8324 72.4021 69.7736 73.4279C69.9962 73.6519 70.2066 73.8875 70.4042 74.1338C71.0065 74.9432 70.5077 76.1197 68.983 76.9573C64.4559 79.6397 58.63 80.1762 53.1995 79.3291C51.16 79.0006 49.1581 78.471 47.223 77.7479C45.2625 76.9918 43.391 76.0228 41.6418 74.8585L41.7171 74.8021Z" fill="black"/>
<path d="M32.2586 49.4082C33.3708 48.0682 34.6931 46.9176 36.1739 46.0012C36.8548 45.574 37.5586 45.1844 38.2821 44.8341C38.9748 44.5205 39.685 44.2471 40.4092 44.0153C43.0933 43.185 45.8462 42.596 48.6351 42.2553C51.2798 41.8976 53.9056 41.6812 56.3151 41.3894L60.0798 40.9C61.3315 40.74 62.5362 40.5612 63.7221 40.3635C67.1198 39.7706 70.3762 38.5565 71.9574 36.8906C72.0986 36.7024 72.2586 36.5141 72.428 36.3259C72.5345 36.1148 72.654 35.9105 72.7856 35.7141C72.8704 35.4788 72.9362 35.2435 73.0304 35.0176C73.1245 34.7918 73.1621 34.3871 73.2374 34.0765C73.4681 32.7911 73.4681 31.4748 73.2374 30.1894C72.6703 27.5011 71.2068 25.0852 69.0868 23.3376C66.8736 21.4412 64.1864 20.1822 61.3127 19.6953C58.5011 19.1308 55.5816 19.5147 53.0115 20.7871C52.7347 20.9224 52.4674 21.0765 52.2115 21.2482C51.9719 21.396 51.7424 21.5595 51.5245 21.7376C51.1143 22.099 50.7507 22.51 50.4421 22.9612C49.7564 24.01 49.2388 25.1596 48.908 26.3682C48.2041 28.7421 48.3302 31.2851 49.2656 33.5776C49.8154 35.0189 50.6992 36.3091 51.8445 37.3424C53.0754 38.4302 54.4421 39.3539 55.9104 40.0906C57.4832 40.8532 59.1172 41.4828 60.7951 41.9729C62.5352 42.4795 64.3048 42.8787 66.0939 43.1682C68.3339 43.5635 68.0421 44.2224 65.9904 44.9094C65.3767 45.1215 64.7473 45.2852 64.108 45.3988C63.2975 45.5654 62.4769 45.6786 61.6515 45.7376C59.5155 45.9666 57.3559 45.82 55.2704 45.3047C54.208 45.0297 53.1643 44.687 52.1456 44.2788L50.6209 43.6671C50.1033 43.3941 49.6233 43.0553 49.1245 42.7259C47.0746 41.3205 45.3719 39.4665 44.1456 37.3047C43.8251 36.7484 43.5452 36.1696 43.308 35.5729C43.1056 34.9549 42.936 34.3265 42.7998 33.6906C42.5326 32.4539 42.4063 31.191 42.4233 29.9259C42.4674 27.5285 42.9789 25.1627 43.9292 22.9612C44.4162 21.8382 45.0187 20.769 45.7268 19.7706C46.1267 19.2354 46.5639 18.729 47.0351 18.2553C47.2862 17.9942 47.5534 17.749 47.8351 17.5212C48.1072 17.2864 48.3966 17.0725 48.7009 16.8812C50.7187 15.5663 52.9936 14.6968 55.3739 14.3306C59.8615 13.6828 64.4377 14.526 68.3998 16.7306C70.7634 17.9889 72.8907 19.6481 74.6868 21.6341C76.5472 23.7224 77.8858 26.2222 78.5927 28.9282C78.9379 30.3066 79.1024 31.7239 79.0821 33.1447C79.0716 33.8469 79.0182 34.5478 78.9221 35.2435C78.8207 36.0071 78.6506 36.7599 78.4139 37.4929C77.9085 39.0154 77.0582 40.4005 75.9292 41.54C74.8796 42.5743 73.6724 43.4352 72.3527 44.0906C69.7726 45.3034 67.0355 46.1493 64.2209 46.6035C62.8845 46.8576 61.5762 47.0553 60.2962 47.2529L56.4374 47.8365C53.8209 48.1847 51.308 48.4671 48.8515 48.8906C46.483 49.2464 44.1582 49.8489 41.9151 50.6882C40.6475 51.1114 39.4512 51.7238 38.3668 52.5047L37.9809 52.7871L37.6233 53.0788C37.3783 53.2821 37.1573 53.5126 36.9645 53.7659L36.3339 54.5659L36.0233 54.9612L35.7786 55.3941C34.3534 57.6607 33.9149 60.4108 34.5645 63.0082C34.8238 64.0192 35.2029 64.9955 35.6939 65.9165C35.9856 66.3588 36.2492 66.8576 36.5504 67.2718L37.5668 68.5329C39.0583 70.1674 40.8068 71.5471 42.7433 72.6176C43.7336 73.1666 44.7585 73.6507 45.8115 74.0671C46.8736 74.4371 47.9543 74.7513 49.0492 75.0082C51.2455 75.5172 53.4961 75.7543 55.7504 75.7141C59.1141 75.6955 62.4025 74.7158 65.228 72.8906C67.8116 71.2196 69.6287 68.5938 70.2821 65.5871C70.5044 64.342 70.5044 63.0674 70.2821 61.8224C69.9376 60.1511 69.4656 58.5086 68.8704 56.9094C68.7251 56.3881 68.646 55.8505 68.6351 55.3094C68.6692 54.785 68.7672 54.2666 68.9268 53.7659C69.036 53.2668 69.1807 52.7761 69.3598 52.2976C69.708 51.6012 70.4892 51.5259 71.6939 52.1282C73.3868 53.2157 74.7018 54.8003 75.4586 56.6647C76.3162 58.5408 76.8111 60.5623 76.9174 62.6224C77.0315 64.7662 76.7113 66.9111 75.9762 68.9282C75.2189 70.9535 74.1066 72.8275 72.6915 74.4624C71.3047 76.0625 69.664 77.4234 67.8351 78.4906C64.2391 80.5145 60.1872 81.5898 56.0609 81.6153C54.0815 81.6566 52.1026 81.5116 50.1504 81.1824C48.204 80.8682 46.2892 80.3832 44.428 79.7329C41.578 78.7264 38.9086 77.2678 36.5221 75.4129C34.039 73.4895 31.9842 71.0694 30.4892 68.3071C27.8392 63.8303 27.5064 58.3516 29.5951 53.5871C29.9412 52.8235 30.3276 52.079 30.7527 51.3565L32.1174 49.3141L32.2586 49.4082Z" fill="black"/>
</svg>
