<svg width="96" height="96" viewBox="0 0 96 96" fill="none" xmlns="http://www.w3.org/2000/svg">
<path d="M40.1569 80.0586C38.5005 80.0586 36.8346 79.9833 35.1593 79.908L30.1052 79.6915C28.8628 79.6256 27.6016 79.6915 26.3405 79.5127C25.1916 79.3124 24.0567 79.0389 22.9428 78.6939C21.6785 78.3087 20.4839 77.724 19.404 76.9621C19.0929 76.7347 18.803 76.4796 18.5381 76.1997L18.1334 75.7386C18.0344 75.6158 17.9433 75.4869 17.8605 75.3527C17.5109 74.8511 17.1964 74.3259 16.9193 73.7809C16.3705 72.7088 15.9534 71.5743 15.6769 70.4021C15.2303 68.4324 15.0187 66.4168 15.0463 64.3974C14.9653 61.9098 15.3254 59.4276 16.1099 57.0656C16.3828 56.3409 17.0981 56.595 17.7663 57.348C18.1551 57.7745 18.4729 58.2607 18.7075 58.788C18.9998 59.3716 19.1452 60.0178 19.131 60.6703C19.0906 62.8772 19.2576 65.083 19.6299 67.2586C19.8056 68.2375 20.0381 69.2055 20.3263 70.1574C20.6251 71.0809 21.0327 71.9655 21.5405 72.7927C21.7099 73.2727 22.811 73.875 24.0722 74.1197C25.3334 74.3644 26.764 74.4774 28.1757 74.7033C29.5875 74.9292 31.3381 75.0703 32.9569 75.1456C34.5757 75.2209 36.2134 75.2209 37.8605 75.2303C39.884 75.2303 41.9169 75.2303 43.9499 75.2303C47.0275 75.155 50.1428 75.1644 53.2205 75.0327C55.6299 74.9292 57.9922 74.5715 60.4581 74.4962C61.0033 74.4585 61.5505 74.4585 62.0957 74.4962C64.1475 74.6844 64.7875 75.2303 64.9193 76.6233C64.9724 76.9341 64.9976 77.2491 64.9946 77.5644C64.9193 78.6092 64.0534 79.2492 62.7075 79.4468C58.764 79.955 54.5005 80.0397 50.1052 80.1621C46.8487 80.2468 43.5169 80.2562 40.1946 80.3033L40.1569 80.0586Z" fill="black"/>
<path d="M18.7078 66.4219C18.6325 68.4172 18.6043 70.4219 18.7078 72.3419C18.7078 73.2831 18.8113 74.2243 18.9243 75.0902C18.9243 75.3066 18.9807 75.5137 19.0184 75.7113C19.056 75.909 19.0184 75.9184 19.0184 75.9749V76.0408C19.0292 76.127 19.0481 76.2121 19.0749 76.2949C19.1219 76.5019 19.3196 76.5302 19.4984 76.5866L19.5454 76.6337H19.8654L20.5431 76.6996C21.0043 76.6996 21.4372 76.8219 21.936 76.8313C23.8654 76.916 25.8702 76.8972 27.9125 76.8313C30.8866 76.6996 33.8796 76.2855 36.9102 76.0408C42.2372 75.6172 47.6113 75.0996 53.0419 74.789L57.1925 74.5631L61.3054 74.4502C62.689 74.4502 64.0537 74.4502 65.456 74.5066L67.5549 74.6196C67.9031 74.6196 68.2607 74.7137 68.609 74.7608H68.8631H68.9854L69.2301 74.8172C69.2301 74.7137 69.2301 74.8172 69.2301 74.8172C69.4937 74.8172 69.8325 75.0055 70.049 74.8172C70.2471 74.6064 70.3922 74.3516 70.4725 74.0737C70.4725 73.9419 70.5572 73.8008 70.5949 73.6596L70.736 73.0855C70.849 72.5584 70.9525 72.0031 71.0278 71.4478C71.3287 69.1578 71.464 66.8491 71.4325 64.5396C71.3639 58.5827 70.6923 52.6481 69.4278 46.8266C69.1831 45.9608 69.1266 45.5466 69.3243 45.4619C69.5219 45.3772 69.9737 45.6502 70.6137 46.2808C71.4676 47.1605 72.2249 48.1291 72.8725 49.1702C73.7007 50.6385 74.2976 52.2258 74.6419 53.8761C75.5362 58.0536 76.056 62.3026 76.1949 66.5725C76.2813 68.7907 76.1964 71.0122 75.9407 73.2172C75.9407 73.4996 75.856 73.8008 75.809 74.1019C75.7715 74.2693 75.7464 74.4391 75.7337 74.6102L75.5549 75.3443C75.489 75.589 75.4419 75.8431 75.376 76.0784L75.1219 76.7843C74.9615 77.2427 74.75 77.6815 74.4913 78.0925C73.5617 79.7679 71.673 80.6707 69.7854 80.3419H68.3172L67.6113 80.2855L66.1431 80.2102L64.656 80.1161H63.1313C62.1149 80.1161 61.089 80.1161 60.0443 80.1161C58.9996 80.1161 57.9737 80.1161 56.9196 80.1161C49.5219 80.2761 41.8607 81.669 34.1149 82.4031C29.7848 82.8913 25.4258 83.0737 21.0702 82.949L19.3478 82.8172H18.9149L18.3125 82.6761L17.1078 82.2808L15.9031 81.989C15.5263 81.844 15.1835 81.623 14.896 81.3396C14.3172 80.7614 13.8596 80.0734 13.5502 79.316C13.3894 78.9344 13.2481 78.5449 13.1266 78.149C13.0702 77.9419 13.0137 77.7443 12.9666 77.5466L12.8631 77.0761C12.7313 76.4737 12.6372 75.8996 12.5619 75.3255C12.4113 74.1772 12.3172 73.0666 12.2702 71.956C12.1332 66.6321 12.4006 61.3054 13.0702 56.0219C13.5121 52.0084 14.2163 48.0281 15.1784 44.1066C15.4419 43.1655 15.7337 42.1208 16.1196 41.0949C16.6278 39.7961 17.1925 38.3937 18.5384 37.8572C19.1641 37.5752 19.8169 37.3576 20.4866 37.2078C21.0513 37.0761 21.5407 36.9819 22.0584 36.8878C23.0843 36.7184 24.0913 36.5772 25.089 36.4737C31.186 35.7051 37.3249 35.3153 43.4702 35.3066C44.8254 35.3066 46.1713 35.3066 47.5549 35.4384C48.1949 35.4949 48.7784 35.5608 49.3243 35.6455C49.8702 35.7302 50.3313 35.8902 50.7737 36.0219C51.5109 36.2275 52.224 36.5115 52.9007 36.869C53.8119 37.2911 54.5238 38.0502 54.8866 38.9866C55.0727 39.3315 55.215 39.6983 55.3102 40.0784C55.376 40.6431 54.849 41.0196 53.9266 41.1608C52.5968 41.3963 51.249 41.516 49.8984 41.5184C48.609 41.6031 47.329 41.5184 46.0207 41.5184C44.7125 41.5184 43.4043 41.5184 42.0772 41.5184C39.4325 41.5184 36.7407 41.6313 34.049 41.7725C32.7031 41.8478 31.3478 41.9231 30.0019 42.0361L27.9972 42.2149L26.0113 42.5161C24.7719 42.7042 23.5435 42.9587 22.3313 43.2784L22.1431 43.3349C22.0772 43.3349 22.1431 43.3349 22.1431 43.3349V43.3349V43.3349V43.4102L22.096 43.5513L21.9078 44.1537C21.776 44.5772 21.6537 45.0102 21.5407 45.4713C21.3054 46.4125 21.0984 47.3537 20.9007 48.2949C20.5243 50.2431 20.2043 52.2478 19.9596 54.2619C19.429 58.3208 19.1148 62.405 19.0184 66.4972L18.7078 66.4219Z" fill="black"/>
<path d="M49.7571 42.2988C50.0771 41.9412 50.4159 41.5929 50.6983 41.2259C50.6983 41.1694 50.7547 41.16 50.7641 41.16V41.16H50.8206L50.943 41.0847C51.0747 41.0188 51.263 40.9247 51.3006 40.7647C51.3275 40.6088 51.2975 40.4485 51.2159 40.3129C51.1579 40.2179 51.0726 40.1424 50.9712 40.0965L50.8959 39.927L50.67 39.7482C50.5128 39.6242 50.362 39.4923 50.2183 39.3529C47.9343 37.2398 45.4397 35.3664 42.7735 33.7623C42.1667 33.3896 41.5381 33.0533 40.8912 32.7553L39.95 32.3223L39.0088 31.8235C37.3533 31.0764 35.7768 30.1651 34.303 29.1035C33.8418 28.7365 34.1241 28.1623 34.8394 27.6729C35.7026 27.024 36.7627 26.6917 37.8418 26.7318C38.783 26.8823 39.7712 27.0423 40.7218 27.24C41.201 27.3285 41.6754 27.4416 42.143 27.5788C42.5853 27.767 43.0183 27.9553 43.4512 28.1623C45.2155 28.9725 46.8931 29.9595 48.4583 31.1082C50.3406 32.5388 52.6277 33.3859 54.6983 35.0047L55.1312 35.3718L55.5735 35.8047C55.8803 36.0783 56.1665 36.374 56.43 36.6894C56.9447 37.2812 57.3667 37.9476 57.6818 38.6659L57.8794 39.1929L57.9924 39.7482C57.9924 39.9365 57.9924 40.1247 58.0488 40.3223C58.1053 40.52 58.0488 40.6988 57.983 40.8776C57.9427 41.056 57.8925 41.232 57.8324 41.4047L57.5783 41.9129C57.4252 42.2557 57.2458 42.5861 57.0418 42.9012C56.543 43.5318 56.0441 44.1812 55.5453 44.7835C54.4536 46.0165 53.2959 47.1647 52.1383 48.2941C50.3594 49.9976 48.43 51.5129 46.5853 53.0659C45.1359 54.2612 43.8841 55.6918 42.3783 56.8306C42.0394 57.0753 41.7288 57.3482 41.3712 57.5647C41.2018 57.6588 41.0512 57.7529 40.9006 57.8188C40.7541 57.8691 40.6027 57.9038 40.4488 57.9223C39.6655 58.1066 38.8476 57.8068 38.3688 57.16C38.1806 56.9529 37.9735 56.7741 37.8135 56.567C37.3053 55.8894 37.4559 54.9106 38.0488 53.8847C38.9705 52.576 40.0447 51.3817 41.2488 50.327L44.703 47.1647C46.4525 45.6104 48.1087 43.9542 49.663 42.2047L49.7571 42.2988Z" fill="black"/>
<path d="M61.5872 24.1997C61.6719 24.4915 61.2013 24.435 60.4295 24.1997C60.0897 24.0469 59.7729 23.8473 59.4883 23.6068C59.3336 23.4113 59.1951 23.2036 59.0742 22.9856C59.0742 22.8821 59.1589 21.6868 59.1401 21.2538C59.1539 20.8759 59.2436 20.5047 59.4036 20.1621C59.6672 19.4562 59.893 18.7221 60.166 17.9879C60.2276 17.8228 60.3314 17.6768 60.4672 17.5644C60.9149 17.1446 61.2402 16.6111 61.4083 16.0209C61.4083 15.9268 61.5213 15.8515 61.4083 15.6915C61.2954 15.5315 62.1048 13.9597 62.3495 13.8091C62.9142 13.5079 63.3566 13.1409 63.9495 12.8679C64.0248 12.8679 64.0342 12.7362 64.2319 12.7832C64.693 12.9056 64.7401 12.7832 64.8719 12.6326C65.0698 12.4725 65.2922 12.3453 65.5307 12.2562C65.7243 12.2297 65.9206 12.2297 66.1142 12.2562C66.3602 12.3628 66.5765 12.5275 66.7448 12.7362C66.8295 12.9244 67.093 13.0185 67.2813 13.1597C67.3505 13.2053 67.4166 13.2556 67.4789 13.3103C67.5808 13.6149 67.644 13.9311 67.6672 14.2515C67.7374 14.5609 67.7815 14.8758 67.7989 15.1926C67.7989 15.1926 67.7048 15.6632 67.573 16.1338C67.4503 16.4633 67.3466 16.7995 67.2625 17.1409C67.2625 17.2444 67.1119 17.2821 67.0083 17.3385C66.9048 17.395 66.6036 18.7503 66.6036 18.7973C66.4436 19.0326 66.4248 19.3432 65.9166 19.4091C65.813 19.4091 65.8036 19.475 65.7754 19.5315C65.5165 19.9759 65.2001 20.3841 64.8342 20.7456C64.6734 20.9586 64.5317 21.1853 64.4107 21.4232C64.4107 21.4232 64.3166 21.4797 64.2695 21.5079C64.2225 21.5362 64.1283 21.5738 64.1001 21.6303C63.7163 22.145 63.3792 22.6931 63.093 23.2679C63.0366 23.4091 62.3119 23.8232 62.2648 23.9926C62.2177 24.162 61.5495 24.0868 61.5872 24.1997Z" fill="black"/>
<path d="M70.6709 36.6418C70.5015 36.9148 70.1815 36.5477 69.7862 35.8418C69.6171 35.4998 69.5118 35.1298 69.4756 34.7501C69.531 34.5161 69.6033 34.2865 69.6921 34.063C69.7485 33.9501 70.8874 33.0465 71.2544 32.6795C71.6056 32.3603 72.0102 32.1055 72.4497 31.9265L73.7297 31.343C74.1626 31.1736 74.6144 31.0418 75.0662 30.9101C75.2795 30.8582 75.5022 30.8582 75.7156 30.9101C76.4532 31.0121 77.2046 30.9246 77.8991 30.6559C78.0215 30.6559 78.1438 30.6559 78.2379 30.4301C78.3321 30.2042 80.4121 29.7901 80.6944 29.9218L81.7015 30.2606L82.6426 30.6748C82.7274 30.6748 82.8309 30.6748 82.9156 30.863C83.1038 31.3336 83.3015 31.2677 83.4897 31.3148C83.7745 31.3895 84.0428 31.5172 84.2803 31.6912C84.4314 31.8556 84.5553 32.0431 84.6474 32.2465C84.7199 32.5242 84.7199 32.8159 84.6474 33.0936C84.525 33.2818 84.6474 33.5736 84.6474 33.8277C84.6524 33.9155 84.6524 34.0035 84.6474 34.0912C84.1749 34.6273 83.6481 35.113 83.0756 35.5406L82.7462 35.6442C82.5579 35.7006 82.3038 35.7759 82.0591 35.8701C81.5509 36.0112 81.0238 36.143 80.9203 36.1995C80.8168 36.2559 80.6944 36.143 80.5721 36.0865C80.4497 36.0301 79.0379 36.6042 78.9721 36.6136C78.6521 36.6136 78.3603 36.8206 77.965 36.4818C77.8897 36.4159 77.8238 36.4818 77.7674 36.4818C77.2004 36.5942 76.6229 36.6447 76.045 36.6324C75.7487 36.6716 75.456 36.7346 75.1697 36.8206C75.1132 36.8206 75.0474 36.8206 74.9909 36.7548C74.9344 36.6889 74.8309 36.6889 74.765 36.7548C74.0408 36.8018 73.3225 36.9152 72.6191 37.0936C72.4685 37.1501 71.565 36.9053 71.3862 36.9995C71.2074 37.0936 70.7462 36.5289 70.6709 36.6418Z" fill="black"/>
</svg>
