<?xml version="1.0" encoding="UTF-8"?>
<!-- Generator: Adobe Illustrator 26.2.1, SVG Export Plug-In . SVG Version: 6.00 Build 0)  -->
<svg xmlns="http://www.w3.org/2000/svg" xmlns:xlink="http://www.w3.org/1999/xlink" version="1.1" id="Capa_1" x="0px" y="0px" viewBox="0 0 512 512" style="enable-background:new 0 0 512 512;" xml:space="preserve" width="512" height="512">
<g>
	<g>
		<circle style="fill:#52AFA6;" cx="261.539" cy="243.184" r="139.947"/>
		<g>
			<path style="fill:#241726;" d="M203.733,359.788c-0.076,0-0.151-0.006-0.227-0.024c-4.717-0.98-6.027-5.442-6.081-5.632     c-0.166-0.587,0.177-1.198,0.764-1.364c0.593-0.164,1.195,0.177,1.362,0.76c0.045,0.151,1.029,3.373,4.404,4.074     c0.598,0.123,0.982,0.708,0.857,1.306C204.704,359.43,204.244,359.788,203.733,359.788z"/>
			<path style="fill:#241726;" d="M205.431,350.132c-0.076,0-0.151-0.006-0.227-0.024c-4.721-0.98-6.027-5.447-6.081-5.634     c-0.164-0.589,0.177-1.198,0.764-1.364c0.591-0.164,1.195,0.175,1.362,0.762c0.047,0.155,1.031,3.373,4.404,4.074     c0.598,0.123,0.982,0.708,0.857,1.306C206.402,349.773,205.942,350.132,205.431,350.132z"/>
			<path style="fill:#241726;" d="M229.366,365.081c-4.73,0-7.397-3.461-7.512-3.614c-0.367-0.486-0.27-1.178,0.218-1.547     c0.481-0.36,1.176-0.272,1.543,0.214l0,0c0.093,0.119,2.3,2.958,6.077,2.73c0.589-0.022,1.126,0.449,1.152,1.057     c0.026,0.611-0.449,1.124-1.057,1.152C229.645,365.077,229.505,365.081,229.366,365.081z"/>
			<path style="fill:#241726;" d="M195.09,350.015c-0.076,0-0.151-0.006-0.227-0.024c-4.717-0.982-6.027-5.444-6.081-5.634     c-0.166-0.587,0.177-1.198,0.764-1.364c0.591-0.168,1.195,0.177,1.362,0.76c0.045,0.151,1.029,3.373,4.404,4.076     c0.598,0.123,0.982,0.71,0.857,1.306C196.061,349.657,195.602,350.015,195.09,350.015z"/>
			<path style="fill:#241726;" d="M216.182,358.312c-0.076,0-0.151-0.006-0.227-0.024c-4.719-0.98-6.027-5.444-6.081-5.632     c-0.164-0.589,0.177-1.198,0.764-1.364c0.593-0.164,1.195,0.177,1.362,0.76c0.043,0.145,1.023,3.373,4.404,4.074     c0.598,0.123,0.982,0.708,0.857,1.306C217.153,357.954,216.693,358.312,216.182,358.312z"/>
			<path style="fill:#241726;" d="M216.335,366.529c-0.032,0-0.063-0.002-0.095-0.004c-4.898-0.412-6.951-4.54-7.037-4.717     c-0.265-0.548-0.037-1.211,0.514-1.476c0.548-0.265,1.208-0.037,1.474,0.509c0.076,0.151,1.629,3.179,5.235,3.483     c0.609,0.052,1.06,0.585,1.008,1.193C217.386,366.094,216.902,366.529,216.335,366.529z"/>
		</g>
		<g>
			<path style="fill:#241726;" d="M186.226,138.13c-0.199,0-0.399-0.054-0.58-0.164c-0.518-0.322-0.68-1.001-0.36-1.521     c2.529-4.098,7.179-3.815,7.369-3.798c0.609,0.045,1.066,0.574,1.023,1.183c-0.045,0.609-0.565,1.081-1.178,1.023l0,0     c-0.138-0.019-3.52-0.19-5.332,2.753C186.957,137.945,186.595,138.13,186.226,138.13z"/>
			<path style="fill:#241726;" d="M194.73,143.016c-0.199,0-0.399-0.052-0.58-0.164c-0.518-0.319-0.68-1.001-0.36-1.521     c2.529-4.102,7.182-3.815,7.367-3.8c0.609,0.045,1.066,0.574,1.023,1.183c-0.045,0.609-0.574,1.079-1.178,1.023l0,0     c-0.136-0.015-3.515-0.19-5.33,2.756C195.462,142.83,195.099,143.016,194.73,143.016z"/>
			<path style="fill:#241726;" d="M172.404,160.791c-0.11,0-0.22-0.017-0.332-0.052c-0.58-0.181-0.904-0.803-0.721-1.385     c1.498-4.767,5.9-6.174,6.087-6.232c0.58-0.188,1.202,0.147,1.381,0.729c0.179,0.583-0.145,1.2-0.725,1.381     c-0.155,0.05-3.496,1.157-4.637,4.786C173.311,160.488,172.875,160.791,172.404,160.791z"/>
			<path style="fill:#241726;" d="M198.36,133.333c-0.199,0-0.399-0.054-0.58-0.164c-0.518-0.319-0.68-1.001-0.36-1.521     c2.529-4.102,7.179-3.817,7.367-3.8c0.609,0.045,1.066,0.574,1.023,1.183c-0.045,0.609-0.518,1.075-1.18,1.023     c-0.16-0.019-3.52-0.186-5.328,2.756C199.091,133.148,198.729,133.333,198.36,133.333z"/>
			<path style="fill:#241726;" d="M183.377,150.34c-0.199,0-0.399-0.052-0.58-0.164c-0.518-0.319-0.68-1.001-0.36-1.521     c2.529-4.102,7.182-3.815,7.367-3.8c0.609,0.045,1.066,0.574,1.023,1.183c-0.045,0.609-0.578,1.079-1.178,1.023l0,0     c-0.138-0.011-3.515-0.19-5.33,2.756C184.109,150.154,183.746,150.34,183.377,150.34z"/>
			<path style="fill:#241726;" d="M175.598,147.688c-0.155,0-0.313-0.032-0.462-0.101c-0.555-0.255-0.796-0.911-0.542-1.465     c2.056-4.465,6.636-4.991,6.83-5.011c0.602-0.076,1.15,0.375,1.213,0.984c0.063,0.606-0.375,1.148-0.98,1.213     c-0.151,0.017-3.539,0.442-5.056,3.737C176.416,147.45,176.014,147.688,175.598,147.688z"/>
		</g>
		<g>
			<path style="fill:#241726;" d="M310.038,309.761c-0.183,0-0.367-0.045-0.537-0.14l-113.294-63.009     c-0.36-0.199-0.578-0.583-0.568-0.995c0.011-0.41,0.25-0.781,0.619-0.962l113.294-55.309c0.55-0.261,1.208-0.041,1.478,0.507     c0.268,0.548,0.041,1.211-0.507,1.478l-111.391,54.381l111.443,61.979c0.533,0.296,0.725,0.969,0.427,1.502     C310.801,309.556,310.424,309.761,310.038,309.761z"/>
			<circle style="fill:#FDFFFF;" cx="196.744" cy="245.647" r="34.745"/>
			<circle style="fill:#FDFFFF;" cx="310.038" cy="190.338" r="34.745"/>
			<circle style="fill:#FDFFFF;" cx="310.038" cy="308.657" r="34.745"/>
		</g>
		<path style="fill:#FBFCFF;" d="M378.286,198.623c-0.49,0-0.937-0.328-1.068-0.822c-12.943-48.896-69.349-63.887-69.916-64.031    c-0.591-0.151-0.947-0.753-0.796-1.344c0.151-0.589,0.76-0.947,1.344-0.796c0.581,0.149,58.233,15.472,71.504,65.607    c0.155,0.589-0.196,1.195-0.785,1.351C378.473,198.612,378.378,198.623,378.286,198.623z"/>
		<path style="fill:#FBFCFF;" d="M383.068,215.52c0.515,0.016,0.963,0.393,1.052,0.923c1.235,7.371,2.294,20.669,2.305,20.803    c0.048,0.608-0.405,1.14-1.016,1.188c-0.587,0.055-1.14-0.405-1.188-1.016c-0.011-0.132-1.062-13.335-2.281-20.613    c-0.102-0.601,0.305-1.171,0.908-1.271C382.922,215.522,382.995,215.518,383.068,215.52z"/>
	</g>
	<path style="fill:#241726;" d="M467.155,343.379h-0.006l-4.274,0.041l4.488-3.129c0.501-0.35,0.624-1.038,0.274-1.539   c-0.352-0.503-1.044-0.619-1.539-0.274l-6.054,4.221l0.042-7.138c0.004-0.611-0.488-1.107-1.098-1.111h-0.006   c-0.606,0-1.101,0.49-1.105,1.098l-0.037,6.299l-3.789-4.003c-0.421-0.44-1.118-0.464-1.562-0.043   c-0.442,0.419-0.462,1.12-0.043,1.562l3.898,4.119l-7.079,0.067c-0.611,0.006-1.101,0.505-1.094,1.116   c0.006,0.606,0.498,1.094,1.105,1.094h0.011l6.457-0.061l-5.001,3.486c-0.501,0.35-0.624,1.038-0.274,1.539   c0.216,0.309,0.559,0.473,0.906,0.473c0.22,0,0.44-0.065,0.632-0.199l5.802-4.045l-0.043,7.191   c-0.004,0.611,0.488,1.107,1.098,1.111h0.006c0.606,0,1.101-0.49,1.105-1.098l0.04-6.792l4.038,4.267   c0.218,0.229,0.509,0.345,0.803,0.345c0.272,0,0.546-0.099,0.76-0.302c0.442-0.419,0.462-1.12,0.043-1.562l-4.229-4.468   l5.739-0.055c0.611-0.006,1.101-0.505,1.094-1.116C468.258,343.867,467.766,343.379,467.155,343.379z"/>
	<path style="fill:#241726;" d="M175.414,497.078h-0.006l-4.274,0.041l4.488-3.129c0.501-0.35,0.624-1.038,0.274-1.539   c-0.352-0.503-1.044-0.619-1.539-0.274l-6.054,4.221l0.042-7.138c0.004-0.611-0.488-1.107-1.098-1.111h-0.006   c-0.606,0-1.101,0.49-1.105,1.098l-0.037,6.299l-3.789-4.003c-0.421-0.44-1.118-0.464-1.562-0.043   c-0.442,0.419-0.462,1.12-0.043,1.562l3.898,4.119l-7.079,0.067c-0.611,0.006-1.101,0.505-1.094,1.116   c0.006,0.606,0.498,1.094,1.105,1.094h0.011l6.457-0.062l-5.001,3.486c-0.501,0.35-0.624,1.038-0.274,1.539   c0.216,0.309,0.559,0.473,0.906,0.473c0.22,0,0.44-0.065,0.632-0.199l5.802-4.045l-0.043,7.191   c-0.004,0.611,0.488,1.107,1.098,1.111h0.006c0.606,0,1.101-0.49,1.105-1.098l0.04-6.792l4.038,4.267   c0.218,0.229,0.509,0.345,0.803,0.345c0.272,0,0.546-0.099,0.76-0.302c0.442-0.419,0.462-1.12,0.043-1.562l-4.229-4.468   l5.739-0.055c0.611-0.006,1.101-0.505,1.094-1.116C176.517,497.566,176.025,497.078,175.414,497.078z"/>
	<path style="fill:#241726;" d="M44.985,125.962h-0.006l-4.274,0.041l4.488-3.129c0.501-0.35,0.624-1.038,0.274-1.539   c-0.352-0.503-1.044-0.619-1.539-0.274l-6.054,4.221l0.042-7.138c0.004-0.611-0.488-1.107-1.098-1.111h-0.006   c-0.606,0-1.101,0.49-1.105,1.098l-0.037,6.299l-3.789-4.003c-0.421-0.44-1.118-0.464-1.562-0.043   c-0.442,0.419-0.462,1.12-0.043,1.562l3.898,4.119l-7.079,0.067c-0.611,0.006-1.101,0.505-1.094,1.116   c0.006,0.606,0.498,1.094,1.105,1.094h0.011l6.457-0.061l-5.001,3.486c-0.501,0.35-0.624,1.038-0.274,1.539   c0.216,0.309,0.559,0.473,0.906,0.473c0.22,0,0.44-0.065,0.632-0.199l5.802-4.045l-0.043,7.191   c-0.004,0.611,0.488,1.107,1.098,1.111h0.006c0.606,0,1.101-0.49,1.105-1.098l0.04-6.792l4.038,4.267   c0.218,0.229,0.509,0.345,0.803,0.345c0.272,0,0.546-0.099,0.76-0.302c0.442-0.419,0.462-1.12,0.043-1.562l-4.229-4.468L45,128.171   c0.611-0.006,1.101-0.505,1.094-1.116C46.088,126.449,45.596,125.962,44.985,125.962z"/>
	<path style="fill:#241726;" d="M443.58,90.676l-0.005,0.005l-3.031,3.014l1.027-5.373c0.114-0.6-0.278-1.178-0.878-1.293   c-0.603-0.114-1.18,0.286-1.293,0.878l-1.386,7.249l-4.955-5.139c-0.423-0.44-1.122-0.452-1.562-0.028l-0.005,0.005   c-0.434,0.423-0.446,1.119-0.024,1.558l4.373,4.535l-5.508-0.22c-0.609-0.021-1.124,0.449-1.148,1.06   c-0.024,0.609,0.452,1.124,1.06,1.148l5.666,0.226l-5.019,4.992c-0.433,0.431-0.435,1.13-0.004,1.563   c0.428,0.429,1.121,0.435,1.555,0.012l0.008-0.008l4.579-4.553l-1.145,5.987c-0.114,0.6,0.279,1.178,0.878,1.293   c0.37,0.07,0.73-0.052,0.979-0.295c0.158-0.154,0.27-0.354,0.314-0.584l1.328-6.947l4.991,5.177   c0.423,0.44,1.122,0.452,1.562,0.028l0.005-0.005c0.434-0.423,0.446-1.119,0.024-1.558l-4.714-4.889l5.87,0.234   c0.316,0.012,0.606-0.109,0.816-0.313c0.195-0.19,0.321-0.452,0.333-0.747c0.024-0.609-0.452-1.124-1.06-1.148l-6.147-0.245   l4.07-4.047c0.433-0.431,0.435-1.13,0.004-1.563C444.71,90.255,444.017,90.249,443.58,90.676z"/>
	<path style="fill:#241726;" d="M463.405,232.732l-0.032,0.002c-4.208,0.197-7.79-3.067-7.987-7.276   c-0.196-4.19,3.052-7.772,7.242-7.986c2.072-0.097,4.026,0.607,5.535,1.982c1.507,1.373,2.391,3.253,2.486,5.29   C470.843,228.934,467.592,232.518,463.405,232.732z M462.763,219.677c-3.002,0.153-5.31,2.699-5.171,5.676   c0.139,2.992,2.686,5.312,5.676,5.173l0.08,1.102l-0.056-1.103c2.976-0.152,5.286-2.698,5.149-5.677   c-0.067-1.449-0.695-2.784-1.769-3.76C465.601,220.109,464.212,219.61,462.763,219.677z"/>
	<path style="fill:#241726;" d="M123.112,141.398l-0.032,0.002c-4.208,0.197-7.79-3.067-7.987-7.276   c-0.196-4.19,3.052-7.772,7.242-7.986c2.072-0.097,4.026,0.607,5.535,1.982c1.507,1.373,2.391,3.253,2.486,5.29   C130.55,137.6,127.299,141.184,123.112,141.398z M122.471,128.343c-3.002,0.153-5.31,2.699-5.171,5.676   c0.139,2.992,2.686,5.312,5.676,5.173l0.08,1.102L123,139.191c2.976-0.152,5.286-2.698,5.149-5.677   c-0.067-1.449-0.695-2.784-1.769-3.76C125.308,128.775,123.919,128.276,122.471,128.343z"/>
	<path style="fill:#241726;" d="M461.932,80.999l-0.032,0.002c-4.208,0.197-7.79-3.067-7.987-7.276   c-0.196-4.19,3.052-7.772,7.242-7.986c2.072-0.097,4.026,0.607,5.535,1.982c1.507,1.373,2.391,3.253,2.486,5.29   C469.37,77.202,466.119,80.786,461.932,80.999z M461.29,67.945c-3.002,0.153-5.31,2.699-5.171,5.676   c0.139,2.992,2.686,5.312,5.676,5.173l0.08,1.102l-0.056-1.103c2.976-0.152,5.286-2.698,5.149-5.677   c-0.067-1.449-0.695-2.784-1.769-3.76C464.128,68.377,462.739,67.877,461.29,67.945z"/>
	<path style="fill:#241726;" d="M256.433,506.837l-0.032,0.002c-4.208,0.197-7.79-3.067-7.987-7.276   c-0.196-4.19,3.052-7.772,7.242-7.986c2.072-0.097,4.026,0.607,5.535,1.982c1.507,1.373,2.391,3.253,2.486,5.29   C263.871,503.04,260.62,506.624,256.433,506.837z M255.791,493.783c-3.002,0.153-5.31,2.699-5.171,5.676   c0.139,2.992,2.686,5.312,5.676,5.173l0.08,1.102l-0.056-1.103c2.976-0.152,5.286-2.698,5.149-5.677   c-0.067-1.449-0.695-2.784-1.769-3.76C258.629,494.215,257.24,493.715,255.791,493.783z"/>
	<path style="fill:#241726;" d="M36.685,416.34c-0.675,0-1.2-0.496-1.273-1.206c-0.162-1.549-0.537-5.526-0.855-9.957   c-10.356-3.433-10.606-4.877-10.729-5.578c-0.095-0.552,0.125-1.101,0.591-1.461c1.252-0.973,6.251-2.935,9.581-4.182   c-0.214-10.274,0.857-12.417,2.641-12.496c0.356,0.015,0.691,0.138,0.913,0.414c0.032,0.041,3.081,3.856,6.595,8.511   c4.169-1.372,9.158-2.887,10.854-2.887c0.224,0,0.904,0,1.308,0.563c0.209,0.287,0.276,0.779,0.164,1.116   c-0.339,1.01-3.809,6.364-6.09,9.797c5.06,7.35,5.155,8.88,4.806,9.808c-0.175,0.468-0.555,0.805-1.038,0.926   c-0.222,0.054-0.486,0.082-0.809,0.082c-2.052,0-6.659-1.12-9.175-1.772C38.215,416.34,37.404,416.34,36.685,416.34z    M36.828,405.909c0.211,2.864,0.44,5.47,0.611,7.255c0.803-0.908,2.169-2.6,4.45-5.759   C40.192,406.934,38.483,406.429,36.828,405.909z M45.535,406.086c3.325,0.842,6.036,1.383,7.419,1.478   c-0.296-0.809-1.195-2.637-3.893-6.612C47.906,402.666,46.706,404.416,45.535,406.086z M36.659,403.54   c2.136,0.682,4.389,1.349,6.595,1.946c1.476-2.089,3.012-4.331,4.458-6.487c-1.26-1.795-2.728-3.813-4.374-6.016   c-2.341,0.788-4.762,1.64-7.089,2.495C36.325,397.873,36.463,400.579,36.659,403.54z M26.47,399.47   c0.971,0.626,3.312,1.752,7.926,3.323c-0.149-2.344-0.259-4.519-0.33-6.502C30.026,397.821,27.613,398.874,26.47,399.47z    M45.548,392.252c1.275,1.713,2.438,3.312,3.476,4.775c2.154-3.252,3.673-5.658,4.536-7.091   C52.026,390.269,49.436,390.987,45.548,392.252z M36.709,384.365c-0.274,1.062-0.589,3.448-0.514,8.78   c1.895-0.691,3.839-1.375,5.742-2.02C39.749,388.236,37.788,385.733,36.709,384.365z"/>
	<path style="fill:#241726;" d="M324.767,47.324c-0.818,0-1.59,0-3.744-8.573c-7.266-1.398-7.881-2.225-8.116-2.542   c-0.205-0.274-0.293-0.779-0.199-1.109c0.132-0.466,0.436-1.545,8.735-4.892c2.982-7.771,3.992-7.771,4.668-7.771   c0.347,0,0.826,0.248,1.036,0.527c0.535,0.719,1.019,2.581,1.752,5.561c0.229,0.932,0.505,2.056,0.665,2.553   c0.436,0.194,1.394,0.537,2.19,0.822c4.273,1.53,5.373,2.052,5.574,3.071c0.073,0.384-0.121,0.941-0.41,1.2   c-0.867,0.777-4.993,2.309-7.158,3.081c-3.515,7.995-4.266,8.036-4.929,8.071C324.811,47.324,324.787,47.324,324.767,47.324z    M315.719,35.259c1.45,0.419,4.098,1.021,6.409,1.452c0.425,0.078,0.766,0.399,0.87,0.82c0.591,2.393,1.362,5.119,1.918,6.674   c0.805-1.45,2.024-4.014,3.012-6.28c0.123-0.281,0.356-0.498,0.645-0.6c1.972-0.695,4.201-1.547,5.591-2.156   c-0.973-0.41-2.298-0.885-3.155-1.191c-2.436-0.874-2.894-1.062-3.209-1.482c-0.272-0.369-0.442-0.982-1.049-3.446   c-0.227-0.928-0.578-2.352-0.889-3.416c-0.725,1.381-1.737,3.731-2.525,5.809c-0.11,0.291-0.337,0.52-0.624,0.637   C320.152,33.103,317.243,34.406,315.719,35.259z"/>
	<path style="fill:#241726;" d="M170.818,411.237c-0.818,0-1.59,0-3.744-8.573c-7.264-1.398-7.9-2.253-8.114-2.54   c-0.207-0.276-0.296-0.781-0.201-1.111c0.132-0.464,0.436-1.543,8.737-4.89c2.982-7.773,3.992-7.773,4.665-7.773   c0.347,0,0.829,0.248,1.038,0.529c0.533,0.719,1.016,2.579,1.748,5.557c0.231,0.932,0.507,2.059,0.667,2.555   c0.436,0.194,1.396,0.537,2.195,0.824c4.268,1.53,5.369,2.05,5.57,3.071c0.073,0.382-0.121,0.939-0.41,1.2   c-0.865,0.777-4.991,2.309-7.156,3.079c-3.515,7.999-4.268,8.038-4.933,8.071C170.861,411.237,170.838,411.237,170.818,411.237z    M161.772,399.174c1.452,0.419,4.098,1.019,6.407,1.45c0.425,0.078,0.766,0.399,0.87,0.82c0.591,2.395,1.364,5.121,1.918,6.677   c0.805-1.448,2.024-4.014,3.015-6.282c0.123-0.281,0.356-0.498,0.645-0.6c1.974-0.695,4.204-1.547,5.589-2.154   c-0.971-0.41-2.294-0.885-3.153-1.191c-2.436-0.874-2.896-1.064-3.209-1.485c-0.274-0.367-0.445-0.982-1.051-3.448   c-0.229-0.926-0.578-2.348-0.889-3.412c-0.723,1.381-1.735,3.731-2.523,5.809c-0.11,0.291-0.337,0.52-0.624,0.637   C166.205,397.018,163.296,398.322,161.772,399.174z"/>
	<path style="fill:#241726;" d="M455.135,390.614c-0.818,0-1.593,0-3.746-8.573c-7.266-1.398-7.881-2.225-8.116-2.542   c-0.205-0.274-0.293-0.779-0.199-1.109c0.132-0.466,0.436-1.545,8.737-4.892c2.982-7.773,3.992-7.771,4.665-7.771   c0.347,0,0.829,0.248,1.038,0.529c0.533,0.716,1.016,2.579,1.75,5.559c0.229,0.932,0.505,2.056,0.665,2.553   c0.436,0.194,1.394,0.537,2.19,0.822c4.273,1.53,5.373,2.052,5.574,3.071c0.073,0.382-0.121,0.941-0.41,1.2   c-0.867,0.777-4.993,2.309-7.158,3.082c-3.515,7.995-4.264,8.036-4.927,8.071C455.178,390.614,455.154,390.614,455.135,390.614z    M446.085,378.549c1.45,0.419,4.098,1.021,6.409,1.452c0.425,0.078,0.766,0.399,0.87,0.82c0.591,2.393,1.362,5.119,1.918,6.674   c0.805-1.45,2.024-4.014,3.012-6.28c0.123-0.281,0.356-0.498,0.645-0.6c1.972-0.695,4.201-1.547,5.591-2.156   c-0.973-0.41-2.298-0.885-3.155-1.191c-2.436-0.874-2.894-1.062-3.209-1.482c-0.272-0.369-0.442-0.982-1.049-3.446   c-0.227-0.926-0.576-2.35-0.889-3.414c-0.723,1.381-1.735,3.729-2.523,5.807c-0.11,0.291-0.337,0.52-0.624,0.637   C450.519,376.393,447.608,377.697,446.085,378.549z"/>
	<g>
		<path style="fill:#241726;" d="M55.565,308.767c-0.272,0-0.542-0.101-0.753-0.306c-0.093-0.091-8.595-10.697-7.797-12.404    c0.49-1.049,0.74-1.567,14.898,3.571c0.572,0.207,0.87,0.842,0.66,1.416c-0.207,0.574-0.837,0.872-1.416,0.66    c-4.137-1.502-8.701-3.043-11.187-3.744c1.804,2.829,5.744,8.237,6.394,8.929c0.41,0.438,0.408,1.135-0.022,1.556    C56.126,308.659,55.845,308.767,55.565,308.767z"/>
		<path style="fill:#B1739A;" d="M72.27,311.382c0,0,1.305-17.204-8.024-15.337c-12.923,2.587-22.996,33.58-0.681,43.704    s33.357-7.854,33.357-7.854l-12.103-4.6c0,0,10.069-6.848,10.141-13.587s-7.73-1.873-7.73-1.873s10.283-14.142,3.557-15.531    C84.062,294.915,72.27,311.382,72.27,311.382z"/>
		<path style="fill:#241726;" d="M62.401,307.955c-0.173,0-0.345-0.015-0.516-0.052c-0.576-0.121-1.023-0.481-1.258-1.016    c-0.744-1.703,1.126-5.276,2.311-7.255c0.311-0.524,0.986-0.699,1.515-0.38c0.522,0.313,0.693,0.99,0.382,1.515    c-1.126,1.882-2.061,4.042-2.175,4.952c0.887-0.224,2.546-1.649,3.668-3.019c0.386-0.473,1.081-0.542,1.554-0.155    s0.542,1.081,0.155,1.554C67.263,305.046,64.697,307.955,62.401,307.955z"/>
		<path style="fill:#241726;" d="M81.028,326.701c-0.371,0-0.732-0.186-0.941-0.522c-0.322-0.518-0.162-1.2,0.356-1.521    c2.423-1.508,6.297-4.737,6.374-6.981c0.009-0.207-0.026-0.281-0.026-0.281c-0.552-0.24-3.207,0.865-5.436,2.315    c-0.401,0.268-0.93,0.235-1.303-0.071c-0.373-0.306-0.503-0.818-0.324-1.267c1.159-2.892,1.949-5.958,1.858-7.084    c-1.511,0.747-5.466,4.704-8.578,8.334c-0.397,0.464-1.096,0.52-1.558,0.121c-0.464-0.397-0.518-1.094-0.121-1.558    c8.8-10.272,10.686-9.363,11.31-9.065c1.457,0.706,1.517,3.127,0.188,7.214c1.776-0.861,3.832-1.521,5.106-0.807    c0.427,0.242,1.142,0.855,1.094,2.227c-0.145,4.145-6.674,8.319-7.419,8.781C81.427,326.647,81.226,326.701,81.028,326.701z"/>
		<path style="fill:#241726;" d="M72.742,336.744c-3.33,0-9.413-0.634-14.126-4.713c-4.078-3.533-6.198-8.839-6.295-15.774    c-0.009-0.611,0.479-1.111,1.09-1.12c0.552,0.076,1.111,0.479,1.12,1.09c0.088,6.271,1.944,11.023,5.52,14.123    c5.93,5.144,14.751,4.087,14.842,4.074c0.596-0.088,1.159,0.35,1.236,0.954c0.08,0.606-0.347,1.159-0.952,1.239    C75.059,336.632,74.144,336.744,72.742,336.744z"/>
	</g>
	<g>
		<path style="fill:#241726;" d="M473.747,160.801L473.747,160.801c-0.611-0.017-1.092-0.527-1.075-1.135    c0.017-0.6,0.509-1.075,1.105-1.075c0.011,0,0.022,0,0.03,0c0.934-0.019,7.553-0.973,10.837-1.659    c-2.24-1.29-6.528-3.479-10.494-5.393c-0.548-0.265-0.779-0.926-0.514-1.476c0.265-0.548,0.926-0.779,1.476-0.514    c13.567,6.547,13.364,7.089,12.956,8.17C487.406,159.494,473.915,160.801,473.747,160.801z"/>
		<path style="fill:#B1739A;" d="M459.463,150.348c0,0,11.401-12.95,16.58-4.969c7.175,11.055-7.97,39.911-30.802,31.012    c-22.832-8.899-17.677-29.358-17.677-29.358l11.746,5.449c0,0-2.132-11.989,2.641-16.747s6.739,4.224,6.739,4.224    s2.938-17.236,8.63-13.394S459.463,150.348,459.463,150.348z"/>
		<path style="fill:#241726;" d="M470.184,155.657c-0.341,0-0.675-0.104-0.978-0.306c-2.046-1.375-1.722-5.753-1.575-7.061    c0.069-0.609,0.624-1.036,1.221-0.975c0.606,0.069,1.042,0.615,0.975,1.221c-0.196,1.761-0.056,3.945,0.399,4.737    c0.572-0.721,1.465-2.896,2.026-5.017c0.158-0.587,0.755-0.952,1.351-0.785c0.589,0.155,0.941,0.762,0.785,1.351    c-0.589,2.227-1.836,6.064-3.578,6.72C470.605,155.618,470.394,155.657,470.184,155.657z"/>
		<path style="fill:#241726;" d="M454.153,156.779c-0.035,0-0.067-0.002-0.101-0.004c-0.606-0.054-1.055-0.591-1.001-1.2    c0.436-4.888,0.496-10.649-0.067-12.078c-0.645,0.537-2.404,3.386-3.735,6.396c-0.192,0.44-0.63,0.703-1.131,0.652    c-0.479-0.054-0.87-0.41-0.962-0.883c-0.511-2.564-1.56-5.196-2.186-5.494c-0.009,0.019-0.076,0.065-0.17,0.164    c-1.552,1.623-1.157,6.653-0.544,9.441c0.132,0.596-0.246,1.185-0.842,1.316c-0.589,0.121-1.185-0.244-1.316-0.842    c-0.19-0.855-1.765-8.442,1.105-11.443c0.954-0.993,1.886-0.904,2.359-0.77c1.392,0.406,2.359,2.341,2.984,4.217    c1.996-3.807,3.781-5.444,5.296-4.905c0.647,0.235,2.615,0.947,1.411,14.428C455.2,156.347,454.719,156.779,454.153,156.779z"/>
		<path style="fill:#241726;" d="M455.605,174.599c-0.46,0-0.921-0.019-1.383-0.058c-8.824-0.744-14.607-8.327-14.849-8.651    c-0.365-0.488-0.265-1.178,0.222-1.545c0.488-0.363,1.18-0.268,1.545,0.218c0.054,0.071,5.453,7.125,13.284,7.777    c4.717,0.401,9.415-1.597,13.964-5.913c0.44-0.419,1.142-0.401,1.56,0.041c0.421,0.442,0.404,1.142-0.041,1.56    C465.307,172.394,460.504,174.599,455.605,174.599z"/>
	</g>
	<g>
		<path style="fill:#FFFFFF;" d="M49.037,233.164c0,0-2.18-16.551,13.751-11.196s10.74,20.509,4.667,15.324    c-6.074-5.186,5.322-22.774,17.513-14.942c12.191,7.832,9.464,23.028,0.817,24.15c-8.647,1.121,5.235-17.694,16.128-6.074    c10.893,11.62-12.891,32.806-22.617,25.017s-2.115-20.361,0.219-12.699c2.333,7.662-3.959,15.175-21.21,14.878    c-17.251-0.297-9.399-26.838-3.369-19.112s-3.981,16.445-16.15,7.344S40.499,227.936,49.037,233.164z"/>
		<path style="fill:#241726;" d="M59.283,268.735l-0.997-0.009c-5.656-0.097-9.635-2.995-11.038-7.986    c-2.976-0.378-6.113-1.75-9.126-4.003c-4.767-3.567-6.383-8.981-4.43-14.853c2.003-6.014,7.33-10.727,12.134-10.727    c0.691,0,1.362,0.093,2.005,0.276c-0.022-2.302,0.334-6.223,2.669-8.888c2.611-2.976,6.91-3.554,12.639-1.625    c2.212,0.742,4.147,1.707,5.772,2.874c2.743-2.892,6.239-4.529,9.734-4.529c2.367,0,4.693,0.725,6.92,2.154    c5.267,3.386,8.465,8.591,8.729,14.102c3.092,0.088,5.926,1.482,8.427,4.15c3.39,3.617,4.016,8.478,1.759,13.685    c-3.431,7.922-12.803,14.87-20.053,14.87c-2.27,0-4.229-0.645-5.822-1.921c-0.762-0.611-1.448-1.269-2.054-1.968    C72.742,267.218,66.807,268.735,59.283,268.735z M49.592,260.827c0.984,2.788,3.323,5.598,8.733,5.69l0.958,0.009    c8.675,0,13.414-2.035,15.958-3.968c-2.43-3.932-2.242-8.226-0.891-10.887c0.781-1.536,1.914-2.419,3.11-2.419    c0.803,0,2.272,0.412,3.114,3.17c1.167,3.837,0.3,7.589-2.376,10.442c0.524,0.609,1.124,1.183,1.789,1.716    c1.191,0.954,2.684,1.437,4.441,1.437c6.366,0,14.956-6.454,18.027-13.539c1.331-3.077,2.182-7.535-1.347-11.297    c-2.076-2.216-4.387-3.375-6.866-3.45c-0.52,5.291-3.83,9.283-8.312,9.866c-0.304,0.039-0.585,0.056-0.842,0.056h-0.002    c-2.214,0-3.058-1.353-3.11-2.62c-0.127-3.116,4.368-8.358,10.114-9.35c-0.209-4.816-3.04-9.4-7.719-12.404    c-4.596-2.956-9.872-2.078-13.75,1.927c3.766,3.582,4.465,7.989,3.414,10.932c-1.17,3.278-4.575,4.316-7.296,1.994    c-3.353-2.861-2.27-8.45,0.757-12.632c-1.42-0.997-3.118-1.832-5.06-2.486c-4.814-1.618-8.265-1.303-10.274,0.99    c-2.764,3.151-2.037,8.957-2.028,9.016c0.054,0.423-0.138,0.839-0.494,1.07c-0.36,0.231-0.818,0.237-1.178,0.017    c-0.803-0.492-1.687-0.74-2.635-0.74c-3.843,0-8.347,4.135-10.036,9.214c-0.773,2.324-1.964,8.183,3.658,12.386    c2.456,1.836,4.972,3.019,7.354,3.466c-0.49-4.286,0.822-8.463,2.551-10.608c0.965-1.198,2.089-1.83,3.254-1.83    c0.807,0,2.018,0.317,3.202,1.834c2.141,2.745,2.628,5.839,1.334,8.491C55.865,258.939,53.01,260.626,49.592,260.827z     M77.459,251.461c-0.203,0-0.693,0.33-1.139,1.211c-0.988,1.946-1.152,5.25,0.574,8.338c1.901-2.229,2.46-5.006,1.564-7.945    C78.102,251.897,77.657,251.461,77.459,251.461z M52.606,248.205c-0.466,0-1.01,0.356-1.532,1.006    c-1.474,1.828-2.553,5.736-2.015,9.424c2.799-0.043,5.127-1.293,6.098-3.282c0.908-1.864,0.511-4.111-1.092-6.163    C53.715,248.74,53.178,248.205,52.606,248.205z M91.99,237.951c-4.633,1.029-7.876,5.285-7.807,6.994    c0.009,0.211,0.019,0.498,0.902,0.498c0,0,0,0,0.002,0c0.17,0,0.356-0.013,0.557-0.039    C88.958,244.975,91.446,241.986,91.99,237.951z M69.203,226.907c-2.613,3.64-3.112,7.768-1.031,9.547    c1.575,1.336,3.101,0.852,3.783-1.06C72.75,233.169,72.159,229.783,69.203,226.907z"/>
	</g>
	<g>
		<path style="fill:#FFFFFF;" d="M386.381,31.913c0,0-2.18-16.551,13.751-11.196c15.932,5.355,10.74,20.509,4.667,15.324    c-6.074-5.186,5.322-22.774,17.513-14.942s9.464,23.028,0.817,24.15s5.235-17.694,16.128-6.074    c10.893,11.62-12.891,32.806-22.617,25.017c-9.727-7.789-2.115-20.361,0.219-12.699s-3.959,15.175-21.21,14.878    s-9.399-26.838-3.369-19.112c6.03,7.726-3.981,16.445-16.15,7.344C363.96,45.501,377.843,26.685,386.381,31.913z"/>
		<path style="fill:#241726;" d="M396.626,67.485l-0.997-0.009c-5.654-0.097-9.635-2.995-11.036-7.986    c-2.976-0.378-6.113-1.75-9.126-4.003c-4.769-3.567-6.383-8.979-4.43-14.853c2-6.014,7.33-10.727,12.132-10.727    c0.693,0,1.362,0.093,2.005,0.276c-0.022-2.302,0.334-6.223,2.669-8.886c2.613-2.976,6.907-3.556,12.641-1.627    c2.212,0.742,4.147,1.707,5.772,2.874c2.741-2.892,6.239-4.529,9.732-4.529c2.367,0,4.696,0.725,6.92,2.154    c5.267,3.386,8.468,8.591,8.729,14.102c3.092,0.088,5.926,1.482,8.427,4.15c3.39,3.617,4.016,8.478,1.759,13.685    c-3.431,7.922-12.801,14.87-20.051,14.87c-2.27,0-4.229-0.645-5.822-1.921c-0.762-0.611-1.448-1.269-2.054-1.968    C410.084,65.968,404.15,67.485,396.626,67.485z M386.934,59.576c0.986,2.788,3.323,5.598,8.733,5.69l0.958,0.009    c8.675,0,13.416-2.035,15.958-3.968c-2.428-3.93-2.242-8.226-0.889-10.887c0.779-1.536,1.914-2.419,3.11-2.419    c0.801,0,2.272,0.412,3.112,3.17c1.17,3.837,0.302,7.589-2.374,10.442c0.524,0.609,1.122,1.183,1.789,1.716    c1.191,0.954,2.684,1.437,4.441,1.437c6.364,0,14.954-6.452,18.025-13.539c1.331-3.077,2.182-7.535-1.347-11.297    c-2.076-2.216-4.385-3.375-6.866-3.45c-0.52,5.291-3.83,9.283-8.312,9.864c-0.304,0.039-0.585,0.056-0.844,0.056l0,0    c-2.214,0.002-3.058-1.351-3.11-2.618c-0.125-3.118,4.368-8.358,10.116-9.35c-0.209-4.819-3.043-9.4-7.721-12.404    c-4.596-2.956-9.875-2.078-13.748,1.925c3.766,3.584,4.465,7.991,3.414,10.932c-1.172,3.282-4.579,4.318-7.298,1.996    c-3.351-2.861-2.268-8.453,0.76-12.632c-1.42-0.999-3.118-1.832-5.06-2.486c-4.812-1.616-8.26-1.301-10.272,0.984    c-2.758,3.138-2.041,8.966-2.033,9.024c0.054,0.421-0.138,0.837-0.496,1.068c-0.356,0.233-0.816,0.24-1.176,0.017    c-0.803-0.492-1.687-0.74-2.635-0.74c-3.843,0-8.345,4.135-10.036,9.216c-0.773,2.322-1.962,8.181,3.66,12.384    c2.456,1.836,4.97,3.019,7.354,3.466c-0.49-4.286,0.822-8.463,2.551-10.61c0.965-1.195,2.089-1.828,3.254-1.828    c0.805,0,2.015,0.317,3.2,1.834c2.141,2.745,2.628,5.839,1.334,8.491C393.207,57.688,390.353,59.376,386.934,59.576z     M414.804,50.211c-0.203,0-0.693,0.33-1.139,1.211c-0.99,1.946-1.152,5.25,0.574,8.338c1.901-2.229,2.458-5.006,1.562-7.945    C415.445,50.647,415,50.211,414.804,50.211z M389.951,46.955c-0.466,0-1.012,0.356-1.534,1.006    c-1.472,1.828-2.553,5.736-2.015,9.424c2.799-0.043,5.127-1.293,6.098-3.282c0.908-1.864,0.511-4.111-1.092-6.163    C391.058,47.49,390.521,46.955,389.951,46.955z M429.335,36.7c-4.633,1.029-7.876,5.283-7.807,6.994    c0.007,0.209,0.019,0.496,0.9,0.496l0,0c0.17,0,0.358-0.013,0.559-0.039C426.303,43.722,428.789,40.736,429.335,36.7z     M406.546,25.656c-2.611,3.638-3.112,7.768-1.029,9.547c1.573,1.34,3.101,0.846,3.781-1.06    C410.093,31.916,409.502,28.533,406.546,25.656z"/>
	</g>
	<path style="fill:#241726;" d="M427.285,237.113c-0.099,0-0.199-0.013-0.296-0.041c-0.328-0.091-0.598-0.328-0.727-0.645   c-0.354-0.865-8.623-21.29-4.05-30.893c1.105-2.318,2.861-3.854,5.22-4.566c0.585-0.177,1.176-0.268,1.752-0.268   c3.867,0,6.489,3.766,7.833,7.751c2.736-1.914,6.292-3.675,9.273-3.675c2.719,0,4.557,1.448,5.177,4.074   c2.044,8.662-20.897,26.085-23.521,28.042C427.753,237.038,427.52,237.113,427.285,237.113z M429.184,202.911   c-0.36,0-0.736,0.058-1.113,0.173c-1.763,0.533-3.025,1.644-3.863,3.403c-3.53,7.41,1.83,23.072,3.58,27.755   c7.421-5.712,22.902-19.056,21.529-24.881c-0.382-1.618-1.344-2.374-3.028-2.374c-2.261,0-5.6,1.452-8.647,3.737   c0.645,2.997,0.775,6.886-0.824,8.945c-1.036,1.325-2.641,1.696-4.441,0.971c-1.653-0.665-2.145-1.813-2.268-2.656   c-0.442-3.058,3.222-6.566,5.041-8.099C434.098,206.312,431.92,202.911,429.184,202.911z M435.699,212.339   c-2.52,2.318-3.548,4.324-3.403,5.328c0.041,0.276,0.179,0.63,0.906,0.924c0.852,0.345,1.429,0.293,1.871-0.278   C435.882,217.272,436.102,214.95,435.699,212.339z"/>
	<path style="fill:#241726;" d="M146.106,390.318c-0.235,0-0.468-0.076-0.66-0.22c-2.624-1.957-25.563-19.376-23.521-28.04   c0.619-2.628,2.458-4.076,5.177-4.076c2.609,0,5.995,1.353,9.275,3.671c1.344-3.983,3.964-7.747,7.831-7.747   c0.576,0,1.167,0.091,1.752,0.268c2.359,0.712,4.115,2.249,5.22,4.566c4.573,9.603-3.696,30.027-4.05,30.893   c-0.129,0.317-0.399,0.555-0.727,0.645C146.304,390.305,146.205,390.318,146.106,390.318z M127.101,360.192   c-1.683,0-2.646,0.755-3.028,2.374c-1.372,5.828,14.108,19.171,21.529,24.881c1.75-4.685,7.108-20.351,3.58-27.757   c-0.837-1.757-2.1-2.868-3.863-3.401c-3.248-0.984-5.889,2.758-7.08,6.802c1.819,1.532,5.483,5.043,5.041,8.099   c-0.123,0.846-0.615,1.992-2.268,2.656c-1.804,0.727-3.409,0.356-4.439-0.971c-1.601-2.059-1.47-5.947-0.826-8.942   C132.701,361.644,129.363,360.192,127.101,360.192z M137.692,365.543c-0.404,2.611-0.183,4.933,0.626,5.973   c0.442,0.57,1.016,0.624,1.871,0.278c0.725-0.291,0.865-0.647,0.904-0.924C141.24,369.868,140.213,367.861,137.692,365.543z"/>
	<polygon style="fill:#E6B300;" points="283.356,19.08 297.946,23.37 285.591,30.948 285.543,44.209 275.022,38.28 261.881,42.135    266.061,30.249 256.933,18.849 272.043,19.618 278.081,7.255  "/>
	<polygon style="fill:#E6B300;" points="219.627,406.742 231.355,397.061 230.709,411.54 241.666,419.011 230.86,424.403    226.691,437.447 219.187,427.326 204.63,428.498 213.734,416.414 206.877,404.485  "/>
	<g>
		<circle style="fill:#E3B000;" cx="449.615" cy="277.957" r="29.761"/>
		<g>
			<line style="fill:#FFFFFF;" x1="452.862" y1="257.605" x2="443.302" y2="276.654"/>
			<path style="fill:#241726;" d="M443.303,277.76c-0.168,0-0.337-0.037-0.496-0.117c-0.544-0.274-0.764-0.939-0.492-1.485     l9.56-19.05c0.274-0.548,0.941-0.766,1.485-0.492s0.764,0.939,0.492,1.485l-9.56,19.05     C444.097,277.538,443.707,277.76,443.303,277.76z"/>
		</g>
		<path style="fill:#241726;" d="M453.02,282.557c-0.166,0-0.332-0.037-0.49-0.114c-0.548-0.272-0.77-0.934-0.501-1.48l9.348-18.873    c0.274-0.55,0.939-0.766,1.48-0.501c0.548,0.272,0.77,0.934,0.501,1.48l-9.348,18.873    C453.817,282.332,453.426,282.557,453.02,282.557z"/>
		<path style="fill:#241726;" d="M446.372,294.865c-2.298,0-4.579-0.714-6.808-2.136c-9.875-6.299-4.911-20.435-4.696-21.035    c0.209-0.57,0.837-0.863,1.413-0.665c0.574,0.207,0.872,0.839,0.667,1.413c-0.047,0.132-4.577,13.077,3.802,18.422    c2.6,1.659,5.252,2.171,7.881,1.506c6.271-1.569,10.602-9.158,10.645-9.236c0.298-0.533,0.965-0.725,1.504-0.421    c0.531,0.298,0.721,0.971,0.423,1.502c-0.194,0.345-4.827,8.489-12.026,10.298C448.241,294.747,447.304,294.865,446.372,294.865z"/>
	</g>
	<g>
		<g>
			<path style="fill:#FFFFFF;" d="M71.436,147.767c0,0,3.257-9.455,4.99-16.164c1.733-6.708,12.189,3.415,7.894,15.424     c0,0,13.851-2.65,16.339,1.571s-2.346,7.252-2.346,7.252s8.752,0.795,9.683,3.589c1.265,3.796-5.749,6.378-5.749,6.378     s6.685-0.769,6.214,5.669c-0.471,6.438-37.644,17.293-44.66,19.059s-10.881-20.042-14.264-27.931     C47.812,158.587,71.436,147.767,71.436,147.767z"/>
			<path style="fill:#241726;" d="M63.003,191.75c-5.531,0-8.791-10.766-11.668-20.263c-0.995-3.289-1.936-6.396-2.814-8.44     c-0.796-1.86,1.021-6.418,22.021-16.087c0.662-1.949,3.323-9.868,4.812-15.634c0.695-2.682,2.499-2.971,3.243-2.971     c1.659,0,3.483,1.239,5.002,3.394c2.143,3.043,3.744,8.166,2.294,13.901c1.675-0.244,4.309-0.55,6.953-0.55     c4.734,0,7.6,0.962,8.763,2.937c1.662,2.818,0.675,5.33-0.747,7.022c3.051,0.492,7.374,1.61,8.181,4.029     c0.842,2.531-0.965,4.65-3.144,6.107c0.781,0.291,1.56,0.747,2.208,1.444c1.118,1.202,1.608,2.859,1.457,4.926     c-0.604,8.25-45.044,19.937-45.493,20.051C63.715,191.705,63.357,191.75,63.003,191.75z M78.598,130.565     c-0.188,0-0.764,0-1.103,1.314c-1.724,6.674-4.983,16.154-5.015,16.249c-0.099,0.285-0.309,0.518-0.585,0.645     c-11.791,5.399-21.765,11.663-21.342,13.405c0.924,2.156,1.882,5.319,2.896,8.668c2.354,7.775,5.876,19.702,10.082,18.625     c12.95-3.258,43.482-13.336,43.827-18.066c0.106-1.431-0.188-2.529-0.87-3.263c-1.049-1.129-2.864-1.249-3.595-1.249     c-0.302,0-0.498,0.019-0.524,0.022c-0.546,0.063-1.066-0.3-1.195-0.846c-0.129-0.542,0.166-1.096,0.691-1.288     c1.558-0.578,5.835-2.734,5.082-4.993c-0.419-1.26-4.855-2.486-8.733-2.838c-0.473-0.043-0.861-0.382-0.973-0.842     c-0.112-0.46,0.084-0.939,0.483-1.193c0.399-0.255,3.856-2.577,1.983-5.755c-0.408-0.691-1.839-1.849-6.86-1.849     c-4.074,0-8.276,0.794-8.319,0.803c-0.391,0.073-0.79-0.065-1.047-0.367s-0.334-0.716-0.201-1.09     c2.015-5.636,0.552-10.738-1.487-13.634C80.598,131.324,79.327,130.565,78.598,130.565z"/>
		</g>
		<path style="fill:#B1739A;" d="M42.359,154.352c0,0,16.575-6.452,18.378-4.197c1.803,2.255,15.787,40.454,12.125,43.086    s-17.067,7.924-20.114,3.559S35.613,157.38,42.359,154.352z"/>
		<g>
			<path style="fill:#FFFFFF;" d="M57.143,157.743c0,0,7.611,23.446,11.168,27.945"/>
			<path style="fill:#241726;" d="M68.311,186.793c-0.326,0-0.65-0.145-0.867-0.421c-3.636-4.601-11.04-27.323-11.353-28.288     c-0.188-0.58,0.129-1.204,0.71-1.392c0.578-0.19,1.206,0.129,1.392,0.71c2.613,8.045,8.269,24.166,10.986,27.602     c0.378,0.477,0.296,1.172-0.183,1.552C68.795,186.716,68.553,186.793,68.311,186.793z"/>
		</g>
	</g>
	<g>
		<path style="fill:#E17B8D;" d="M35.046,31.054c0,0,180.595-35.701,183.542-30.545s18.277,68.109,16.804,74.739    c-1.473,6.629-71.815,15.468-72.92,16.941c-3.563,4.751-0.368,23.938-5.524,23.938c-5.156,0-17.678-17.309-17.678-17.309    s-74.761,19.151-82.864,13.258C48.304,106.183,28.417,34,35.046,31.054z"/>
		<path style="fill:#FDFFFF;" d="M77.905,46.254c0,0-26.145-0.062-26.714,12.173c-0.676,14.54,14.54,12.512,20.289,17.584    c8.429,7.437-12.173,9.13-12.173,9.13l3.043,11.835c0,0,29.081-0.338,29.081-16.569s-20.627-9.13-25.023-18.598    c-2.88-6.203,13.864-5.749,13.864-5.749L77.905,46.254z"/>
		<path style="fill:#FDFFFF;" d="M86.198,43.334c0,0,9.995,45.418,11.022,45.122c1.027-0.297,10.949-2.938,10.949-2.938    l-4.676-18.127l9.543-1.642l4.69,17.789l11.963-2.897c0,0-8.36-43.998-9.388-43.702c-1.027,0.297-12.315,3.221-12.315,3.221    l3.18,13.328l-8.908,2.683l-3.421-15.707L86.198,43.334z"/>
		<path style="fill:#FDFFFF;" d="M146.452,31.931c0,0-14.202,2.367-15.555,2.705c-1.353,0.338,3.382,43.621,3.382,43.621    l13.526-2.705l-4.734-17.584l3.382-1.014l5.749,17.922c0,0,9.44-2.029,11.497-2.029C164.712,72.847,146.452,31.931,146.452,31.931    z M140.027,51.544c0,0-0.346-6.4,0.338-8.454c0.676-2.029,5.41,7.439,5.41,7.439L140.027,51.544z"/>
		<path style="fill:#FDFFFF;" d="M209.866,20.146c0,0-20.965,2.705-21.98,4.058s10.483,41.254,11.497,40.916    s21.303-3.72,21.303-4.734s-3.382-9.806-3.382-9.806l-11.497,2.029l-1.353-6.087l7.777-2.367l-2.029-8.454l-7.777,2.029    l-2.029-5.072l11.497-2.705L209.866,20.146z"/>
		<path style="fill:#FDFFFF;" d="M181.342,50.867c0,0,9.468-13.526-1.014-22.318c-7.048-5.911-21.303,0.676-23.332,1.014    l10.145,42.945l10.144-2.705l-3.72-15.555l8.116,14.541c0,0,9.806-2.029,11.159-2.705    C194.191,65.408,181.342,50.867,181.342,50.867z M171.535,44.443c-1.691,0-2.367-7.777-2.367-7.777s4.734-2.029,6.425,1.691    C177.284,42.075,173.226,44.443,171.535,44.443z"/>
	</g>
	<g>
		<path style="fill:#DA7F0F;" d="M330.699,489.522c0,0-99.897-10.383-88.854-30.591s75.139,1.696,80.713-6.963    c14.706-22.848-120.711-113.4-92.426-128.222c28.285-14.822,87.78,49.18,87.78,49.18s12.441-36.803,38.9-12.453    c0,0,0.201-32.326,27.509-15.772c17.518,10.619,13.521,9.745,13.521,9.745s9.603-18.096,27.118,1.568    c17.514,19.664,11.606,67.218,31.438,88.552c19.831,21.334-56.403,68.491-74.992,67.417S355.269,489.625,330.699,489.522z"/>
		<path style="fill:#241726;" d="M265.037,346.098c-6.569,0-17.708-4.827-21.739-6.681c-0.555-0.255-0.796-0.911-0.542-1.465    c0.255-0.555,0.915-0.794,1.465-0.542c10.021,4.605,21.836,8.135,23.45,5.794c0.529-0.766,1.044-4.465-14.57-19.822    c-0.436-0.427-0.44-1.126-0.013-1.562c0.429-0.436,1.129-0.44,1.562-0.013c16.087,15.824,16.381,20.418,14.84,22.654    C268.683,345.63,267.08,346.098,265.037,346.098z"/>
		<path style="fill:#241726;" d="M337.143,390.773c-0.531,0-1.001-0.386-1.088-0.928c-1.306-8.038-18.424-15.835-18.597-15.912    c-0.557-0.25-0.805-0.904-0.555-1.461c0.253-0.559,0.913-0.807,1.461-0.555c0.751,0.337,18.377,8.368,19.87,17.574    c0.099,0.602-0.311,1.17-0.913,1.267C337.262,390.769,337.203,390.773,337.143,390.773z"/>
		<path style="fill:#241726;" d="M366.048,371.158c-0.438,0-0.855-0.263-1.027-0.695c-2.296-5.759-10.479-8.711-10.561-8.74    c-0.576-0.203-0.878-0.835-0.675-1.409c0.205-0.576,0.833-0.883,1.409-0.675c0.375,0.132,9.21,3.308,11.881,10.004    c0.224,0.568-0.052,1.211-0.617,1.437C366.322,371.132,366.184,371.158,366.048,371.158z"/>
		<path style="fill:#241726;" d="M402.655,362.231c-0.531,0-1.001-0.386-1.088-0.928c-0.617-3.8-7.197-9.279-9.678-11.07    c-0.496-0.356-0.609-1.047-0.25-1.541c0.356-0.496,1.049-0.613,1.541-0.25c0.395,0.283,9.678,7.028,10.567,12.507    c0.099,0.602-0.311,1.17-0.913,1.267C402.773,362.227,402.715,362.231,402.655,362.231z"/>
		<path style="fill:#241726;" d="M262.991,469.876c-5.412,0-11.385-0.908-14.154-1.385c-0.602-0.106-1.006-0.678-0.902-1.277    c0.106-0.602,0.688-1.003,1.277-0.902c10.215,1.765,21.68,1.972,22.36-0.775c0.919-3.686-7.717-8.237-10.813-9.54    c-0.563-0.237-0.826-0.885-0.591-1.446c0.235-0.563,0.889-0.829,1.446-0.591c1.403,0.589,13.642,5.93,12.104,12.112    C272.984,469.017,268.254,469.876,262.991,469.876z"/>
		<path style="fill:#241726;" d="M293.225,382.233c-0.499,0-0.949-0.339-1.072-0.844c-0.145-0.591,0.218-1.189,0.811-1.334    c0.084-0.022,8.526-2.167,8.763-8.737c0.024-0.609,0.445-1.051,1.146-1.064c0.609,0.024,1.085,0.535,1.064,1.146    c-0.3,8.247-10.036,10.701-10.451,10.802C293.398,382.222,293.312,382.233,293.225,382.233z"/>
		<path style="fill:#241726;" d="M299.986,387.105c-0.466,0-0.898-0.296-1.051-0.764c-0.188-0.578,0.129-1.202,0.71-1.392    c0.084-0.028,8.42-2.805,8.235-7.831c-0.022-0.611,0.455-1.122,1.064-1.146c0.015,0,0.028,0,0.041,0    c0.591,0,1.083,0.468,1.105,1.064c0.246,6.692-9.355,9.883-9.762,10.015C300.213,387.088,300.098,387.105,299.986,387.105z"/>
		<path style="fill:#241726;" d="M296.581,476.455c-0.313,0-0.626-0.134-0.844-0.393c-0.395-0.466-0.334-1.163,0.132-1.556    c2.367-1.998,2.915-8.541,2.926-10.893c0.002-0.609,0.496-1.101,1.105-1.101c0.002,0,0.002,0,0.004,0    c0.611,0.002,1.103,0.498,1.101,1.109c-0.004,0.969-0.142,9.56-3.712,12.572C297.086,476.369,296.833,476.455,296.581,476.455z"/>
		<path style="fill:#241726;" d="M304.932,477.338c-0.257,0-0.516-0.088-0.725-0.27c-0.46-0.401-0.509-1.098-0.11-1.56    c3.293-3.789,1.088-9.458,1.064-9.514c-0.224-0.568,0.052-1.211,0.617-1.437c0.57-0.222,1.211,0.052,1.437,0.617    c0.112,0.283,2.717,6.989-1.448,11.784C305.547,477.208,305.241,477.338,304.932,477.338z"/>
		<path style="fill:#241726;" d="M333.252,366.78c-0.427,0-0.835-0.25-1.014-0.669c-0.242-0.559,0.017-1.208,0.576-1.45    c0.054-0.024,5.272-2.309,7.374-6.034c0.3-0.533,0.975-0.719,1.506-0.419c0.531,0.3,0.719,0.973,0.419,1.506    c-2.473,4.381-8.183,6.871-8.424,6.974C333.546,366.752,333.399,366.78,333.252,366.78z"/>
		<path style="fill:#241726;" d="M369.386,354.946c-0.322,0-0.641-0.14-0.859-0.41c-0.384-0.475-0.311-1.17,0.164-1.554    c4.346-3.515,6.484-8.122,6.506-8.17c0.255-0.552,0.917-0.794,1.463-0.546c0.555,0.255,0.801,0.908,0.548,1.463    c-0.095,0.207-2.361,5.116-7.128,8.97C369.876,354.866,369.63,354.946,369.386,354.946z"/>
	</g>
	<path style="fill:#241726;" d="M415.609,143.253c-0.14,0-0.285-0.026-0.423-0.084c-1.545-0.641-2.827-1.696-3.807-3.142   c-0.341-0.505-0.209-1.191,0.296-1.534c0.505-0.339,1.191-0.209,1.534,0.296c0.742,1.094,1.666,1.86,2.823,2.339   c0.563,0.233,0.831,0.88,0.598,1.444C416.452,142.997,416.042,143.253,415.609,143.253z M410.579,136.482   c-0.492,0-0.941-0.33-1.07-0.829c-0.334-1.301-0.589-2.779-0.773-4.516c-0.065-0.606,0.375-1.15,0.982-1.215   c0.598-0.076,1.15,0.373,1.215,0.982c0.173,1.629,0.408,3.002,0.716,4.197c0.151,0.591-0.203,1.193-0.794,1.347   C410.762,136.471,410.669,136.482,410.579,136.482z M409.53,127.708c-0.589,0-1.079-0.464-1.105-1.057   c-0.06-1.441-0.097-2.93-0.132-4.447c-0.013-0.611,0.47-1.116,1.079-1.131c0.58,0.019,1.116,0.47,1.131,1.079   c0.035,1.504,0.071,2.98,0.132,4.404c0.024,0.611-0.449,1.126-1.057,1.152C409.56,127.708,409.545,127.708,409.53,127.708z    M409.277,118.858c-0.593,0-1.083-0.47-1.105-1.066c-0.05-1.459-0.119-2.924-0.227-4.381c-0.043-0.609,0.412-1.137,1.023-1.183   c0.55-0.041,1.137,0.412,1.183,1.023c0.108,1.482,0.177,2.978,0.231,4.463c0.022,0.611-0.455,1.122-1.066,1.144   C409.303,118.858,409.29,118.858,409.277,118.858z M363.532,114.698c-1.4,0-2.495-0.749-3.008-2.052   c-0.222-0.568,0.058-1.208,0.626-1.433c0.563-0.224,1.206,0.056,1.433,0.626c0.255,0.647,0.723,0.777,1.599,0.561   c0.231-0.056,0.46-0.134,0.686-0.235c0.552-0.255,1.208,0,1.459,0.557s0,1.211-0.557,1.459c-0.352,0.158-0.71,0.283-1.07,0.369   C364.289,114.648,363.897,114.698,363.532,114.698z M368.579,111.377c-0.218,0-0.438-0.065-0.63-0.199   c-0.501-0.347-0.626-1.036-0.276-1.536c0.719-1.036,1.325-2.274,1.8-3.681c0.196-0.574,0.811-0.885,1.4-0.693   c0.578,0.194,0.889,0.822,0.693,1.4c-0.542,1.603-1.241,3.03-2.08,4.234C369.272,111.211,368.929,111.377,368.579,111.377z    M408.578,110.037c-0.539,0-1.012-0.395-1.092-0.945c-0.224-1.543-0.496-2.922-0.833-4.219c-0.155-0.591,0.199-1.193,0.79-1.347   c0.593-0.164,1.193,0.203,1.347,0.79c0.358,1.375,0.647,2.833,0.885,4.456c0.086,0.604-0.332,1.165-0.934,1.254   C408.686,110.032,408.632,110.037,408.578,110.037z M361.709,108.999c-0.095,0-0.194-0.013-0.291-0.039   c-0.589-0.162-0.937-0.77-0.775-1.357c0.38-1.383,0.969-2.835,1.754-4.316c0.287-0.539,0.952-0.747,1.493-0.457   c0.539,0.285,0.744,0.954,0.457,1.493c-0.697,1.316-1.243,2.654-1.573,3.863C362.639,108.677,362.194,108.999,361.709,108.999z    M371.495,103.116c-0.045,0-0.093-0.002-0.138-0.009c-0.606-0.076-1.036-0.626-0.96-1.232c0.125-1.006,0.188-2.033,0.188-3.053   c0-0.386-0.009-0.777-0.026-1.172c-0.03-0.609,0.44-1.126,1.051-1.154c0.602-0.086,1.126,0.442,1.154,1.051   c0.022,0.429,0.03,0.855,0.03,1.275c0,1.111-0.069,2.229-0.205,3.325C372.52,102.706,372.043,103.116,371.495,103.116z    M316.11,101.964c-0.423,0-0.87-0.056-1.329-0.166c-0.593-0.142-0.96-0.74-0.818-1.331c0.14-0.593,0.725-0.958,1.331-0.818   c1.221,0.298,2.067-0.015,2.719-0.947c0.35-0.501,1.038-0.621,1.539-0.27c0.498,0.35,0.621,1.038,0.27,1.539   C318.909,101.273,317.625,101.964,316.11,101.964z M406.287,101.528c-0.423,0-0.826-0.246-1.01-0.658   c-0.585-1.321-1.286-2.529-2.08-3.589c-0.367-0.488-0.27-1.18,0.22-1.545c0.486-0.371,1.18-0.27,1.545,0.22   c0.898,1.191,1.681,2.544,2.335,4.02c0.248,0.557-0.004,1.211-0.563,1.457C406.589,101.498,406.438,101.528,406.287,101.528z    M365.748,101.183c-0.233,0-0.466-0.073-0.665-0.222c-0.488-0.367-0.585-1.06-0.218-1.547c0.919-1.219,1.936-2.378,3.025-3.444   c0.438-0.425,1.137-0.421,1.562,0.017c0.427,0.436,0.419,1.135-0.017,1.562c-1.01,0.988-1.953,2.061-2.805,3.194   C366.413,101.032,366.083,101.183,365.748,101.183z M311.589,99.258c-0.369,0-0.729-0.186-0.939-0.522   c-0.781-1.258-1.282-2.818-1.489-4.635c-0.069-0.606,0.367-1.154,0.973-1.224c0.596-0.065,1.154,0.367,1.224,0.973   c0.168,1.491,0.563,2.743,1.17,3.72c0.322,0.518,0.162,1.2-0.356,1.521C311.99,99.204,311.79,99.258,311.589,99.258z    M320.208,96.263c-0.035,0-0.069-0.002-0.106-0.004c-0.606-0.056-1.053-0.596-0.997-1.204c0.045-0.475,0.067-0.98,0.067-1.502   c0-0.839-0.056-1.739-0.166-2.676c-0.073-0.606,0.36-1.154,0.967-1.226c0.587-0.088,1.154,0.358,1.226,0.967   c0.123,1.023,0.183,2.009,0.183,2.935c0,0.596-0.026,1.165-0.076,1.709C321.252,95.833,320.771,96.263,320.208,96.263z    M372.047,95.026c-0.343,0-0.684-0.162-0.9-0.464c-0.054-0.076-0.097-0.155-0.129-0.24c-0.479-0.035-0.898-0.382-1.001-0.874   c-0.289-1.375-0.695-2.741-1.204-4.063c-0.218-0.57,0.065-1.208,0.634-1.429c0.576-0.218,1.211,0.067,1.429,0.634   c0.496,1.293,0.902,2.622,1.206,3.962c1.055-0.706,2.151-1.338,3.274-1.884c0.542-0.263,1.211-0.041,1.476,0.509   c0.268,0.548,0.039,1.208-0.509,1.476c-1.254,0.611-2.475,1.34-3.634,2.167C372.494,94.959,372.269,95.026,372.047,95.026z    M401.017,94.588c-0.237,0-0.477-0.076-0.68-0.233c-1.055-0.822-2.246-1.53-3.537-2.1c-0.557-0.246-0.811-0.898-0.563-1.457   c0.244-0.557,0.9-0.809,1.457-0.563c1.457,0.641,2.803,1.441,4.003,2.376c0.481,0.375,0.568,1.07,0.192,1.552   C401.671,94.442,401.345,94.588,401.017,94.588z M379.96,91.194c-0.481,0-0.926-0.317-1.064-0.803   c-0.166-0.587,0.175-1.198,0.762-1.366c1.47-0.416,2.993-0.701,4.532-0.852c0.561-0.028,1.146,0.386,1.206,0.995   c0.058,0.606-0.386,1.146-0.995,1.206c-1.405,0.136-2.799,0.397-4.139,0.779C380.161,91.181,380.059,91.194,379.96,91.194z    M393.069,91c-0.082,0-0.164-0.009-0.248-0.028c-1.411-0.326-2.825-0.542-4.197-0.641c-0.609-0.045-1.064-0.576-1.021-1.185   c0.045-0.611,0.572-1.072,1.185-1.021c1.482,0.11,3.006,0.343,4.529,0.693c0.593,0.136,0.965,0.729,0.829,1.325   C394.03,90.654,393.574,91,393.069,91z M310.348,90.672c-0.05,0-0.099-0.002-0.149-0.011c-0.606-0.08-1.029-0.637-0.947-1.241   c0.199-1.474,0.55-2.987,1.047-4.497c0.188-0.578,0.814-0.902,1.394-0.703c0.578,0.19,0.896,0.814,0.703,1.394   c-0.453,1.381-0.775,2.76-0.956,4.1C311.367,90.268,310.892,90.672,310.348,90.672z M252.333,88.911   c-0.134,0-0.27-0.024-0.401-0.076c-0.568-0.222-0.85-0.861-0.628-1.431c0.026-0.067,0.656-1.675,1.927-4.132   c0.281-0.542,0.947-0.753,1.491-0.473c0.542,0.283,0.753,0.949,0.473,1.491c-1.215,2.341-1.826,3.901-1.832,3.917   C253.192,88.643,252.775,88.911,252.333,88.911z M319.265,87.51c-0.492,0-0.939-0.328-1.068-0.824   c-0.354-1.349-0.798-2.723-1.327-4.085c-0.218-0.57,0.065-1.211,0.632-1.431c0.576-0.214,1.211,0.065,1.431,0.632   c0.557,1.441,1.027,2.896,1.4,4.322c0.155,0.591-0.199,1.195-0.788,1.349C319.45,87.5,319.358,87.51,319.265,87.51z    M367.941,86.112c-0.38,0-0.751-0.199-0.956-0.552c-0.703-1.217-1.511-2.395-2.397-3.504c-0.38-0.477-0.304-1.172,0.173-1.554   c0.479-0.378,1.174-0.302,1.554,0.173c0.956,1.195,1.826,2.469,2.583,3.781c0.306,0.529,0.125,1.204-0.404,1.508   C368.318,86.065,368.128,86.112,367.941,86.112z M313.065,82.303c-0.173,0-0.347-0.041-0.509-0.125   c-0.542-0.281-0.753-0.947-0.47-1.489c0.641-1.232,1.375-2.425,2.184-3.55c-0.423-0.74-0.87-1.467-1.336-2.173   c-0.337-0.509-0.196-1.193,0.313-1.53c0.507-0.341,1.193-0.196,1.53,0.313c0.831,1.256,1.603,2.574,2.292,3.917   c0.281,0.542,0.067,1.208-0.477,1.487c-0.334,0.175-0.716,0.158-1.025-0.006c-0.555,0.824-1.064,1.681-1.521,2.561   C313.848,82.088,313.462,82.303,313.065,82.303z M256.386,81.028c-0.196,0-0.395-0.052-0.576-0.162   c-0.52-0.317-0.684-0.997-0.367-1.519c0.781-1.277,1.614-2.542,2.482-3.759c0.356-0.496,1.047-0.609,1.541-0.259   c0.496,0.354,0.613,1.044,0.259,1.541c-0.835,1.174-1.642,2.395-2.395,3.63C257.121,80.84,256.757,81.028,256.386,81.028z    M362.453,79.23c-0.272,0-0.544-0.099-0.757-0.3c-1.019-0.958-2.128-1.871-3.297-2.717c-0.494-0.358-0.606-1.049-0.248-1.543   c0.358-0.494,1.049-0.602,1.543-0.248c1.245,0.9,2.428,1.875,3.517,2.898c0.445,0.416,0.466,1.118,0.047,1.562   C363.04,79.114,362.747,79.23,362.453,79.23z M318.326,75.247c-0.291,0-0.58-0.114-0.798-0.341   c-0.421-0.44-0.406-1.139,0.035-1.562c1.118-1.07,2.328-2.039,3.597-2.881c0.503-0.332,1.189-0.203,1.532,0.311   c0.337,0.509,0.199,1.193-0.311,1.532c-1.161,0.768-2.268,1.655-3.291,2.635C318.876,75.146,318.6,75.247,318.326,75.247z    M355.325,74.047c-0.183,0-0.369-0.045-0.539-0.14c-1.23-0.688-2.529-1.331-3.861-1.914c-0.559-0.244-0.814-0.896-0.57-1.454   c0.246-0.559,0.898-0.807,1.454-0.57c1.398,0.611,2.762,1.286,4.055,2.009c0.533,0.298,0.723,0.971,0.425,1.504   C356.087,73.844,355.712,74.047,355.325,74.047z M261.534,73.838c-0.252,0-0.505-0.084-0.712-0.259   c-0.466-0.393-0.527-1.09-0.134-1.558c0.99-1.176,2.02-2.296,3.06-3.327c0.436-0.434,1.133-0.423,1.562,0.004   c0.432,0.434,0.427,1.133-0.004,1.562c-0.995,0.986-1.979,2.059-2.926,3.185C262.162,73.704,261.849,73.838,261.534,73.838z    M311.211,71.922c-0.315,0-0.628-0.134-0.846-0.395c-0.926-1.103-1.918-2.145-2.948-3.099c-0.447-0.416-0.475-1.116-0.06-1.562   c0.419-0.447,1.116-0.473,1.562-0.06c1.096,1.016,2.151,2.128,3.138,3.302c0.393,0.466,0.332,1.163-0.136,1.556   C311.714,71.837,311.462,71.922,311.211,71.922z M347.246,70.502c-0.117,0-0.237-0.019-0.354-0.058l-0.768-0.252   c-1.133-0.365-2.266-0.675-3.371-0.926c-0.596-0.134-0.969-0.725-0.833-1.321c0.134-0.596,0.723-0.973,1.321-0.833   c1.167,0.263,2.365,0.591,3.558,0.975l0.801,0.263c0.578,0.196,0.889,0.822,0.693,1.4   C348.138,70.213,347.706,70.502,347.246,70.502z M325.654,70.402c-0.429,0-0.837-0.252-1.016-0.673   c-0.24-0.561,0.024-1.211,0.585-1.448c1.396-0.593,2.874-1.066,4.391-1.407c0.609-0.125,1.187,0.244,1.321,0.837   c0.132,0.596-0.242,1.187-0.837,1.321c-1.388,0.311-2.738,0.742-4.012,1.282C325.946,70.374,325.799,70.402,325.654,70.402z    M338.641,68.581c-0.037,0-0.073-0.002-0.11-0.004c-1.476-0.147-2.894-0.17-4.249-0.108c-0.688,0.084-1.131-0.44-1.159-1.047   c-0.03-0.611,0.438-1.129,1.047-1.159c1.476-0.076,3.021-0.035,4.577,0.112c0.606,0.06,1.051,0.6,0.993,1.208   C339.683,68.154,339.202,68.581,338.641,68.581z M267.822,67.638c-0.322,0-0.643-0.14-0.861-0.412   c-0.382-0.475-0.306-1.172,0.168-1.554c1.211-0.973,2.46-1.86,3.712-2.637c0.516-0.317,1.198-0.164,1.521,0.356   c0.322,0.518,0.162,1.2-0.356,1.521c-1.176,0.729-2.352,1.564-3.491,2.482C268.31,67.558,268.066,67.638,267.822,67.638z    M304.733,65.946c-0.22,0-0.442-0.065-0.637-0.201c-1.157-0.816-2.384-1.554-3.645-2.19c-0.544-0.276-0.764-0.941-0.488-1.485   c0.274-0.546,0.941-0.76,1.485-0.488c1.357,0.686,2.676,1.478,3.921,2.354c0.499,0.352,0.617,1.042,0.268,1.541   C305.422,65.782,305.079,65.946,304.733,65.946z M275.319,63.003c-0.421,0-0.824-0.244-1.008-0.654   c-0.25-0.557,0-1.211,0.557-1.459c1.4-0.628,2.848-1.15,4.305-1.554c0.596-0.166,1.198,0.179,1.359,0.768   c0.164,0.587-0.179,1.198-0.768,1.359c-1.351,0.375-2.693,0.861-3.994,1.441C275.623,62.973,275.47,63.003,275.319,63.003z    M296.874,61.987c-0.114,0-0.231-0.017-0.345-0.056c-1.331-0.436-2.719-0.781-4.124-1.023c-0.602-0.106-1.006-0.675-0.902-1.277   s0.684-1.003,1.277-0.902c1.511,0.261,3.004,0.632,4.439,1.105c0.578,0.19,0.896,0.814,0.703,1.394   C297.772,61.691,297.338,61.987,296.874,61.987z M283.791,60.651c-0.55,0-1.029-0.412-1.094-0.975   c-0.073-0.606,0.36-1.154,0.967-1.226c1.172-0.14,2.402-0.261,3.558-0.207c0.337,0,0.675,0.004,1.016,0.015   c0.609,0.022,1.088,0.531,1.068,1.142c-0.019,0.609-0.455,1.081-1.142,1.068c-0.332-0.011-0.71-0.013-0.995-0.015   c-1.085,0-2.177,0.065-3.248,0.19C283.879,60.649,283.834,60.651,283.791,60.651z"/>
	<path style="fill:#241726;" d="M229.049,485.577c-0.095,0-0.192-0.011-0.287-0.037c-0.481-0.132-0.818-0.565-0.818-1.064   c0-0.196,0.056-0.395,0.155-0.565c0.056-0.095,0.557-0.973,0.891-2.318c0.147-0.593,0.738-0.952,1.34-0.805   c0.591,0.147,0.952,0.747,0.805,1.34c-0.391,1.569-0.965,2.615-1.129,2.9C229.805,485.374,229.436,485.577,229.049,485.577z    M177.348,479.608c-1.085,0-2.208-0.093-3.332-0.278c-0.602-0.099-1.01-0.667-0.911-1.269c0.099-0.604,0.678-1.016,1.269-0.911   c1.006,0.164,2.007,0.248,2.976,0.248c0.341,0.002,0.783-0.013,1.167-0.039c0.546-0.043,1.137,0.414,1.18,1.025   c0.043,0.609-0.416,1.137-1.025,1.18C178.237,479.595,177.793,479.604,177.348,479.608z M182.922,478.762   c-0.473,0-0.911-0.304-1.055-0.781c-0.179-0.583,0.147-1.2,0.732-1.379c1.267-0.391,2.536-0.921,3.878-1.625   c0.537-0.283,1.208-0.076,1.493,0.464c0.283,0.542,0.073,1.208-0.466,1.493c-1.465,0.766-2.857,1.349-4.258,1.778   C183.138,478.747,183.03,478.762,182.922,478.762z M230.275,478.579c-0.533,0-1.003-0.388-1.09-0.932   c-0.203-1.288-0.665-2.538-1.377-3.716c-0.315-0.522-0.149-1.202,0.373-1.517c0.522-0.311,1.202-0.149,1.517,0.373   c0.861,1.424,1.422,2.943,1.67,4.514c0.095,0.604-0.317,1.17-0.919,1.265C230.391,478.574,230.333,478.579,230.275,478.579z    M169.929,478.207c-0.132,0-0.263-0.024-0.395-0.073c-1.435-0.546-2.82-1.295-4.122-2.22c-0.496-0.354-0.613-1.044-0.259-1.541   c0.356-0.496,1.047-0.611,1.541-0.259c1.148,0.818,2.369,1.476,3.63,1.957c0.57,0.216,0.855,0.855,0.637,1.426   C170.792,477.938,170.374,478.207,169.929,478.207z M190.762,474.761c-0.352,0-0.699-0.168-0.913-0.481   c-0.343-0.505-0.214-1.191,0.289-1.536c1.204-0.822,2.378-1.692,3.543-2.566c0.488-0.365,1.178-0.265,1.547,0.222   c0.365,0.488,0.265,1.18-0.222,1.547c-1.191,0.891-2.391,1.782-3.621,2.622C191.193,474.699,190.977,474.761,190.762,474.761z    M162.771,473.18c-0.3,0-0.602-0.123-0.82-0.363c-0.988-1.092-1.923-2.326-2.777-3.664c-0.33-0.516-0.179-1.198,0.334-1.526   c0.511-0.332,1.198-0.183,1.526,0.334c0.79,1.236,1.651,2.372,2.557,3.371c0.408,0.453,0.373,1.152-0.078,1.562   C163.302,473.085,163.037,473.18,162.771,473.18z M225.929,471.093c-0.265,0-0.531-0.095-0.742-0.287   c-0.969-0.878-2.106-1.718-3.381-2.499c-0.52-0.319-0.684-0.999-0.367-1.519c0.319-0.524,1.006-0.684,1.519-0.367   c1.394,0.852,2.643,1.778,3.714,2.749c0.451,0.41,0.486,1.109,0.076,1.56C226.529,470.97,226.229,471.093,225.929,471.093z    M197.896,469.537c-0.343,0-0.684-0.162-0.9-0.464c-0.354-0.496-0.24-1.187,0.259-1.541c1.435-1.025,2.643-1.808,3.8-2.466   c0.529-0.3,1.204-0.119,1.506,0.414c0.302,0.529,0.117,1.204-0.414,1.506c-1.09,0.619-2.236,1.366-3.61,2.346   C198.342,469.47,198.118,469.537,197.896,469.537z M218.469,466.427c-0.153,0-0.309-0.032-0.457-0.099   c-0.373-0.17-0.755-0.334-1.15-0.498c-0.945-0.391-1.886-0.701-2.803-0.921c-0.593-0.145-0.958-0.74-0.816-1.334   c0.145-0.591,0.738-0.943,1.334-0.816c1.029,0.248,2.08,0.596,3.129,1.029c0.419,0.173,0.826,0.35,1.221,0.529   c0.555,0.252,0.801,0.908,0.548,1.463C219.289,466.188,218.888,466.427,218.469,466.427z M157.99,465.782   c-0.416,0-0.816-0.237-1.001-0.639c-0.619-1.334-1.185-2.751-1.683-4.214c-0.196-0.578,0.112-1.206,0.691-1.403   c0.576-0.192,1.204,0.112,1.403,0.691c0.473,1.39,1.008,2.734,1.593,3.994c0.257,0.555,0.017,1.211-0.535,1.467   C158.305,465.75,158.145,465.782,157.99,465.782z M205.614,465.303c-0.464,0-0.896-0.293-1.049-0.757   c-0.192-0.578,0.121-1.204,0.701-1.396c1.556-0.516,3.069-0.801,4.62-0.867c0.671-0.004,1.126,0.449,1.152,1.057   c0.026,0.611-0.449,1.124-1.057,1.152c-1.344,0.056-2.661,0.304-4.02,0.755C205.847,465.286,205.729,465.303,205.614,465.303z    M155.13,457.429c-0.501,0-0.954-0.341-1.075-0.848c-0.343-1.437-0.63-2.928-0.857-4.432c-0.091-0.602,0.324-1.165,0.928-1.256   c0.602-0.082,1.167,0.324,1.256,0.928c0.218,1.441,0.494,2.87,0.822,4.247c0.142,0.593-0.224,1.189-0.818,1.331   C155.301,457.42,155.214,457.429,155.13,457.429z M135.94,453.877c-0.002,0-0.006,0-0.011,0c-1.556-0.013-3.099-0.158-4.583-0.427   c-0.6-0.11-0.997-0.684-0.889-1.286c0.11-0.602,0.693-0.986,1.286-0.889c1.359,0.248,2.775,0.38,4.208,0.393   c0.609,0.006,1.098,0.505,1.094,1.116C137.038,453.389,136.546,453.877,135.94,453.877z M140.338,453.573   c-0.539,0-1.012-0.397-1.092-0.947c-0.086-0.604,0.332-1.165,0.937-1.252c1.359-0.194,2.766-0.496,4.178-0.893   c0.598-0.16,1.198,0.177,1.364,0.764c0.164,0.587-0.177,1.198-0.764,1.364c-1.506,0.423-3.008,0.744-4.463,0.954   C140.444,453.568,140.392,453.573,140.338,453.573z M127.293,452.278c-0.132,0-0.265-0.024-0.395-0.073   c-1.431-0.546-2.823-1.234-4.139-2.046c-0.52-0.319-0.682-1.001-0.363-1.519c0.322-0.522,1.008-0.682,1.519-0.363   c1.202,0.738,2.471,1.366,3.772,1.864c0.57,0.218,0.855,0.857,0.637,1.426C128.156,452.008,127.738,452.278,127.293,452.278z    M148.836,451.186c-0.432,0-0.844-0.257-1.021-0.68c-0.233-0.563,0.032-1.211,0.596-1.446c1.306-0.542,2.607-1.172,3.869-1.869   c0.129-0.071,0.265-0.114,0.401-0.129c-0.047-0.906-0.071-1.8-0.071-2.678c-0.002-0.412,0.002-0.829,0.013-1.243   c0.017-0.6,0.507-1.075,1.105-1.075c0.009,0,0.019,0,0.03,0c0.609,0.017,1.09,0.524,1.075,1.135   c-0.011,0.388-0.015,0.783-0.013,1.176c0,1.031,0.035,2.08,0.101,3.14c0.039,0.611-0.423,1.135-1.031,1.174   c-0.041,0.004-0.073,0.002-0.108,0.002c-0.097,0.175-0.244,0.328-0.432,0.432c-1.336,0.738-2.71,1.403-4.089,1.977   C149.121,451.158,148.978,451.186,148.836,451.186z M119.792,447.688c-0.259,0-0.518-0.091-0.727-0.274   c-1.154-1.01-2.233-2.106-3.213-3.256c-0.395-0.466-0.339-1.163,0.125-1.558c0.468-0.397,1.165-0.337,1.558,0.125   c0.908,1.07,1.914,2.089,2.984,3.028c0.46,0.401,0.505,1.101,0.104,1.558C120.405,447.561,120.099,447.688,119.792,447.688z    M156.563,446.922c-0.347,0-0.691-0.164-0.904-0.47c-0.352-0.501-0.229-1.189,0.27-1.539c1.195-0.837,2.328-1.733,3.368-2.661   c0.457-0.406,1.152-0.365,1.56,0.088c0.406,0.455,0.367,1.154-0.088,1.56c-1.105,0.986-2.307,1.933-3.571,2.82   C157.003,446.857,156.783,446.922,156.563,446.922z M163.125,441.025c-0.252,0-0.503-0.084-0.71-0.259   c-0.468-0.393-0.529-1.09-0.136-1.556c0.986-1.174,1.776-2.333,2.348-3.444c0.278-0.544,0.947-0.76,1.487-0.477   c0.542,0.278,0.757,0.943,0.477,1.487c-0.645,1.258-1.528,2.555-2.62,3.854C163.753,440.891,163.44,441.025,163.125,441.025z    M114.091,440.979c-0.369,0-0.729-0.186-0.939-0.522c-0.796-1.28-1.511-2.643-2.123-4.053c-0.242-0.559,0.015-1.211,0.574-1.454   c0.555-0.233,1.211,0.013,1.454,0.574c0.568,1.31,1.232,2.577,1.972,3.768c0.322,0.518,0.162,1.198-0.356,1.521   C114.493,440.925,114.292,440.979,114.091,440.979z M154.079,439.87c-0.05,0-0.101-0.004-0.151-0.011   c-0.606-0.082-1.029-0.639-0.945-1.243c0.222-1.629,0.544-3.14,0.954-4.493c0.177-0.583,0.785-0.913,1.379-0.736   c0.583,0.177,0.913,0.794,0.736,1.379c-0.378,1.239-0.673,2.635-0.88,4.147C155.096,439.469,154.623,439.87,154.079,439.87z    M166.712,433.153c-0.585,0-1.072-0.455-1.103-1.044c-0.063-1.17-0.624-2.039-1.711-2.665c-0.529-0.304-0.712-0.98-0.408-1.508   c0.304-0.533,0.984-0.712,1.508-0.408c1.739,0.999,2.712,2.542,2.816,4.46c0.032,0.611-0.434,1.131-1.042,1.163   C166.751,433.153,166.731,433.153,166.712,433.153z M110.572,432.911c-0.483,0-0.928-0.319-1.064-0.807   c-0.404-1.441-0.721-2.941-0.945-4.456c-0.088-0.604,0.33-1.165,0.932-1.256c0.621-0.071,1.165,0.328,1.256,0.932   c0.209,1.426,0.507,2.833,0.885,4.184c0.164,0.589-0.179,1.198-0.766,1.362C110.77,432.898,110.669,432.911,110.572,432.911z    M156.803,431.536c-0.214,0-0.427-0.06-0.617-0.188c-0.507-0.341-0.641-1.029-0.3-1.534c1.122-1.664,2.479-2.712,4.033-3.118   c0.596-0.153,1.195,0.205,1.349,0.792c0.153,0.591-0.201,1.193-0.792,1.349c-1.019,0.263-1.944,1.008-2.756,2.212   C157.506,431.366,157.157,431.536,156.803,431.536z M109.277,424.191c-0.596,0-1.085-0.473-1.105-1.072   c-0.011-0.371-0.015-0.742-0.015-1.111c0.002-1.154,0.052-2.298,0.147-3.429c0.05-0.609,0.606-1.031,1.193-1.008   c0.609,0.052,1.06,0.585,1.008,1.193c-0.091,1.07-0.136,2.154-0.138,3.245c0,0.345,0.004,0.695,0.015,1.044   c0.017,0.609-0.462,1.118-1.072,1.137C109.299,424.191,109.288,424.191,109.277,424.191z M110.013,415.402   c-0.071,0-0.142-0.006-0.214-0.022c-0.6-0.117-0.99-0.697-0.872-1.295c0.058-0.306,0.123-0.613,0.19-0.919   c-0.233-0.181-0.395-0.453-0.425-0.77c-0.054-0.576,0.345-1.092,0.906-1.191c0.14-0.514,0.289-1.023,0.449-1.526   c0.183-0.58,0.796-0.902,1.388-0.719c0.58,0.183,0.902,0.805,0.719,1.388c-0.058,0.183-0.114,0.369-0.17,0.555   c0.654-0.101,1.306-0.22,1.951-0.356c0.589-0.138,1.18,0.255,1.308,0.855c0.125,0.596-0.257,1.183-0.855,1.308   c-0.995,0.209-2.007,0.382-3.019,0.516c-0.097,0.425-0.19,0.855-0.272,1.284C110.993,415.037,110.531,415.402,110.013,415.402z    M105.38,413.563c-0.006,0-0.015,0-0.024,0c-1.534-0.032-3.062-0.155-4.538-0.367c-0.604-0.086-1.023-0.647-0.937-1.252   c0.088-0.606,0.647-1.016,1.252-0.937c1.385,0.199,2.823,0.315,4.27,0.345c0.609,0.013,1.094,0.518,1.081,1.129   C106.472,413.084,105.98,413.563,105.38,413.563z M96.651,412.301c-0.099,0-0.201-0.013-0.3-0.041   c-1.48-0.421-2.928-0.939-4.303-1.547c-0.557-0.246-0.811-0.898-0.563-1.457c0.244-0.557,0.9-0.811,1.457-0.563   c1.28,0.565,2.628,1.049,4.009,1.439c0.589,0.166,0.93,0.777,0.764,1.364C97.577,411.984,97.134,412.301,96.651,412.301z    M118.424,411.574c-0.462,0-0.891-0.291-1.047-0.753c-0.194-0.578,0.117-1.204,0.695-1.398c1.392-0.47,2.719-1.016,3.94-1.627   c0.55-0.274,1.208-0.05,1.482,0.494c0.272,0.546,0.052,1.211-0.494,1.482c-1.314,0.656-2.736,1.243-4.225,1.744   C118.66,411.554,118.541,411.574,118.424,411.574z M88.6,408.729c-0.203,0-0.408-0.056-0.591-0.17   c-0.345-0.22-0.688-0.449-1.029-0.684c-0.928-0.641-1.819-1.336-2.646-2.061c-0.457-0.404-0.503-1.103-0.101-1.56   c0.406-0.46,1.103-0.503,1.56-0.101c0.764,0.671,1.586,1.312,2.443,1.905c0.315,0.218,0.632,0.429,0.956,0.632   c0.516,0.326,0.669,1.01,0.343,1.526C89.323,408.548,88.965,408.729,88.6,408.729z M126.26,407.56   c-0.328,0-0.654-0.147-0.872-0.425c-0.375-0.481-0.289-1.176,0.192-1.552c1.219-0.949,2.132-1.957,2.639-2.911   c0.289-0.542,0.962-0.74,1.495-0.455c0.537,0.287,0.742,0.956,0.455,1.495c-0.662,1.241-1.75,2.458-3.23,3.615   C126.739,407.484,126.499,407.56,126.26,407.56z M112.689,406.992c-0.155,0-0.313-0.032-0.464-0.101   c-0.555-0.257-0.794-0.913-0.539-1.467c0.673-1.454,1.424-2.803,2.233-4.009c0.337-0.505,1.029-0.643,1.532-0.302   c0.507,0.339,0.643,1.025,0.302,1.532c-0.744,1.111-1.437,2.359-2.061,3.707C113.504,406.755,113.105,406.992,112.689,406.992z    M82.012,402.901c-0.324,0-0.645-0.142-0.863-0.414c-0.958-1.2-1.815-2.495-2.542-3.85c-0.289-0.537-0.086-1.206,0.451-1.495   c0.535-0.285,1.208-0.088,1.495,0.451c0.665,1.236,1.446,2.419,2.322,3.513c0.38,0.477,0.304,1.172-0.173,1.554   C82.497,402.821,82.254,402.901,82.012,402.901z M129.194,400.106c-0.365,0-0.723-0.181-0.934-0.514   c-0.397-0.63-1.068-1.215-1.996-1.744c-0.309-0.179-0.615-0.322-0.926-0.436c-0.572-0.214-0.863-0.85-0.65-1.422   c0.214-0.57,0.848-0.863,1.422-0.65c0.419,0.158,0.837,0.352,1.252,0.589c1.241,0.708,2.171,1.543,2.766,2.479   c0.326,0.516,0.173,1.198-0.343,1.526C129.602,400.05,129.397,400.106,129.194,400.106z M117.671,399.759   c-0.298,0-0.596-0.121-0.814-0.356c-0.412-0.449-0.384-1.148,0.065-1.562c1.329-1.221,2.717-2.08,4.126-2.546   c0.576-0.199,1.204,0.123,1.396,0.701c0.192,0.578-0.121,1.204-0.701,1.396c-1.109,0.367-2.227,1.066-3.323,2.076   C118.206,399.662,117.939,399.759,117.671,399.759z M77.849,395.161c-0.464,0-0.896-0.293-1.049-0.757   c-0.466-1.407-0.831-2.907-1.083-4.456c-0.099-0.602,0.309-1.172,0.911-1.269c0.589-0.101,1.172,0.306,1.269,0.911   c0.235,1.437,0.572,2.823,1.001,4.119c0.192,0.58-0.123,1.204-0.701,1.396C78.08,395.143,77.964,395.161,77.849,395.161z    M76.393,386.475c-0.596,0-1.088-0.475-1.105-1.072c-0.011-0.382-0.015-0.762-0.015-1.139c0-1.15,0.052-2.287,0.142-3.401   c0.05-0.606,0.552-1.047,1.191-1.01c0.609,0.05,1.06,0.583,1.01,1.191c-0.086,1.053-0.134,2.13-0.134,3.22   c0,0.356,0.004,0.714,0.015,1.075c0.017,0.611-0.462,1.12-1.072,1.137C76.414,386.475,76.403,386.475,76.393,386.475z    M77.09,377.679c-0.065,0-0.129-0.004-0.194-0.017c-0.602-0.106-1.001-0.68-0.896-1.28c0.257-1.45,0.585-2.933,0.973-4.409   c0.155-0.587,0.753-0.945,1.351-0.785c0.589,0.155,0.941,0.76,0.785,1.351c-0.373,1.416-0.688,2.838-0.934,4.227   C78.08,377.304,77.614,377.679,77.09,377.679z M79.332,369.132c-0.121,0-0.244-0.019-0.365-0.063   c-0.576-0.201-0.88-0.831-0.678-1.407c0.902-2.589,1.655-4.163,1.687-4.227c0.263-0.55,0.926-0.783,1.474-0.516   c0.55,0.263,0.781,0.924,0.516,1.474c-0.006,0.015-0.734,1.536-1.593,3.999C80.216,368.847,79.789,369.132,79.332,369.132z"/>
	<path style="fill:#241726;" d="M337.037,192.73c-0.507,0-0.965-0.35-1.079-0.865c-5.621-25.295-26.046-25.649-26.913-25.651   c-0.609-0.002-1.103-0.496-1.103-1.107c0.002-0.609,0.496-1.103,1.105-1.103c0.231,0,23.053,0.313,29.069,27.382   c0.132,0.596-0.244,1.185-0.839,1.318C337.197,192.721,337.115,192.73,337.037,192.73z"/>
	<path style="fill:#241726;" d="M216.24,242.817c-0.49,0-0.937-0.326-1.068-0.82c-5.589-20.964-23.694-19.805-23.89-19.81   c-0.576,0.076-1.139-0.406-1.185-1.016c-0.047-0.609,0.408-1.139,1.016-1.185c0.207-0.022,20.14-1.273,26.195,21.441   c0.158,0.589-0.194,1.195-0.783,1.353C216.43,242.806,216.333,242.817,216.24,242.817z"/>
	<path style="fill:#241726;" d="M331.142,310.579c-0.539,0-1.012-0.397-1.092-0.949c-2.79-19.536-21.823-22.513-22.632-22.63   c-0.604-0.088-1.023-0.647-0.937-1.252c0.086-0.604,0.656-1.01,1.249-0.937c0.216,0.03,21.48,3.308,24.507,24.507   c0.086,0.604-0.334,1.163-0.939,1.249C331.248,310.575,331.194,310.579,331.142,310.579z"/>
	<g>
		<path style="fill:#E17B8D;" d="M45.868,445.103c0,0,43.18-20.79,56.774-2.399c13.594,18.391,3.998,27.987,19.191,32.785    c15.193,4.798,15.993,4.798,11.195,10.395c-4.798,5.597-44.779,31.186-69.568,23.989S23.478,459.496,45.868,445.103z"/>
		<path style="fill:#FDFFFF;" d="M83.45,490.681c0,0-34.384-11.195-27.187-26.388c4.605-9.722,18.391,5.597,18.391,5.597    s-3.03-19.856,9.596-19.191C99.443,451.5,83.45,490.681,83.45,490.681z"/>
	</g>
</g>















</svg>
