<svg id="Layer_1" enable-background="new 0 0 512 512" viewBox="0 0 512 512" xmlns="http://www.w3.org/2000/svg"><path d="m65.09 331.93c-4.11-2.35-8.99-2.3-13.04.13l-45.39 27.06c-3.97 2.35-6.33 6.52-6.33 11.14v86.06c0 4.42 3.58 8.01 8.01 8.01h55.3c4.42 0 8.01-3.58 8.01-8.01v-113.13c0-4.7-2.45-8.91-6.56-11.26zm-9.46 116.38h-39.29v-76.31l39.29-23.42zm117.94-181.07c-4.11-2.35-8.99-2.3-13.03.13l-45.48 27.11c-3.91 2.39-6.24 6.53-6.24 11.09v150.75c0 4.42 3.58 8.01 8.01 8.01h55.3c4.42 0 8.01-3.58 8.01-8.01v-177.81c-.01-4.71-2.46-8.92-6.57-11.27zm-9.46 181.07h-39.29v-141l39.29-23.42zm117.9-245.75c-4.09-2.32-8.94-2.28-13.02.13l-45.4 27.08c-3.94 2.37-6.3 6.52-6.3 11.12v215.43c0 4.42 3.59 8.01 8.01 8.01h55.28c4.42 0 8.01-3.58 8.01-8.01v-242.5c-.01-4.75-2.46-8.96-6.58-11.26zm-9.44 245.75h-39.26v-205.69l39.26-23.42zm-272.24-136.44v-28.69c0-4.55 2.33-8.7 6.24-11.08l95.49-56.91c3.8-2.26 8.71-1.02 10.98 2.78s1.02 8.71-2.78 10.98l-93.92 55.97v21.57l388.03-231.36c6.12-3.61 14.06-1.62 17.74 4.41l9.8 16.47 14.34-56.65-56.67-14.33 9.8 16.43c1.77 2.94 2.29 6.43 1.45 9.8s-2.95 6.21-5.92 7.98l-265.77 158.42c-3.8 2.26-8.71 1.02-10.98-2.78-2.26-3.8-1.02-8.71 2.78-10.98l263.14-156.85-12.02-20.15c-2.69-4.51-2.4-10.15.73-14.37 3.11-4.19 8.41-6.1 13.51-4.86l66.86 16.91c6.95 1.79 11.13 8.87 9.37 15.78l-16.89 66.74c-1.23 5.08-5.43 8.89-10.68 9.64-5.2.78-10.3-1.64-13-6.17l-11.98-20.13-390.06 232.56c-2.05 1.24-4.33 1.87-6.62 1.87-2.2 0-4.41-.58-6.44-1.74-4.09-2.34-6.53-6.55-6.53-11.26zm504.53 129.25c-4.38-.67-8.45 2.35-9.12 6.72-5.19 34.3-48.08 41.16-83.15 40.84-.05 0-.09 0-.14 0-.73.01-1.45.01-2.17.01-41.97 0-68.89-10.46-77.91-30.29-11.41-25.09 4.95-67.46 42.72-111.27.77.08 1.56.13 2.35.13h70.16c.79 0 1.56-.05 2.33-.13 25.02 28.99 41.05 57.73 45.26 81.32.69 3.88 4.07 6.6 7.87 6.6.47 0 .94-.04 1.42-.13 4.35-.78 7.25-4.94 6.47-9.29-4.58-25.62-21.05-56.04-46.64-86.32 3.04-3.72 4.87-8.47 4.87-13.64 0-6.69-3.05-12.68-7.84-16.65l10.86-16.86c3.39-5.31 3.4-11.9.03-17.18s-9.3-8.07-15.51-7.29l-44.2 5.67-15.49-1.99v-122.21c0-4.71-2.44-8.92-6.53-11.26-4.08-2.33-8.95-2.29-13.06.13l-45.31 27.03c-4.02 2.34-6.42 6.51-6.42 11.17v215.35c-1.66 3.41-3.18 6.79-4.53 10.11-10.07 24.84-11.22 46.15-3.41 63.33 11.97 26.34 43.07 39.68 92.44 39.68.76 0 1.52 0 2.28-.01.77.01 1.53.01 2.28.01 73.08 0 93-29.54 96.77-54.47.7-4.37-2.31-8.45-6.68-9.11zm-57.24-121.04c3.07 0 5.57 2.51 5.57 5.6 0 3.07-2.5 5.57-5.57 5.57h-70.16c-3.03 0-5.6-2.55-5.6-5.57 0-3.04 2.56-5.6 5.6-5.6zm-33.05-30.83 44.13-5.65-13.18 20.46h-65.95l-13.18-20.46 21.15 2.71c.3.06.61.09.92.12l22.13 2.84c1.33.15 2.57.15 3.98-.02zm-72.81-111.27 39.29-23.44v114.78l-12.73-1.63c-6.24-.78-12.19 2.03-15.49 7.29-3.37 5.28-3.36 11.87.05 17.21l10.83 16.82c-4.8 3.97-7.86 9.96-7.86 16.66 0 5.17 1.83 9.92 4.88 13.64-7.01 8.3-13.36 16.63-18.97 24.88zm60.52 221.28c0 5.04 4.6 9.14 10.25 9.14h.91c.36 0 .71.03 1.06.08 13.57.97 24.3 11.85 24.3 25.11 0 11.2-7.68 20.71-18.26 23.96v4.96c0 4.42-3.58 8.01-8.01 8.01s-8.01-3.58-8.01-8.01v-4.96c-10.58-3.25-18.25-12.76-18.25-23.96 0-4.42 3.58-8.01 8.01-8.01s8.01 3.58 8.01 8.01c0 5.04 4.6 9.14 10.25 9.14s10.25-4.1 10.25-9.14c0-5.06-4.6-9.17-10.25-9.17-14.48 0-26.26-11.29-26.26-25.16 0-11.21 7.68-20.73 18.25-23.98v-4.96c0-4.42 3.58-8.01 8.01-8.01s8.01 3.58 8.01 8.01v4.96c10.58 3.26 18.26 12.77 18.26 23.98 0 4.42-3.58 8.01-8.01 8.01s-8.01-3.58-8.01-8.01c0-5.06-4.6-9.17-10.25-9.17s-10.26 4.11-10.26 9.17z"/></svg>