<svg id="Layer_1" viewBox="0 0 512 512" xmlns="http://www.w3.org/2000/svg" data-name="Layer 1"><path d="m24.832 139.955v152.7c.912 8.549 8.12 15.677 21.567 21.457 16.525 7.086 41.026 11.574 68.391 11.574a235.135 235.135 0 0 0 24.787-1.278l23.066-4.625 42.1-29.572v-150.262z" fill="#ffcd0c"/><path d="m137.516 207.379v111.365c.669 6.242 5.925 11.44 15.738 15.655 12.038 5.17 29.91 8.44 49.872 8.44s37.833-3.27 49.871-8.44c9.813-4.215 15.176-9.413 15.735-15.655v-111.365z" fill="#ffcd0c"/><g fill="#faa719"><ellipse cx="114.789" cy="139.946" rx="89.964" ry="33.039"/><path d="m137.526 275.6c-7.265.7-14.887 1.065-22.736 1.065-27.365 0-51.866-4.487-68.391-11.559-13.447-5.766-21.567-13.264-21.567-21.458v-51.848c0 8.208 8.12 15.692 21.567 21.457 16.525 7.086 41.026 11.56 68.391 11.56 7.849 0 15.471-.37 22.721-1.065z"/><ellipse cx="203.125" cy="207.379" rx="65.609" ry="24.095"/><path d="m137.52 283.006c0 5.979 5.924 11.441 15.737 15.644 12.038 5.169 29.91 8.44 49.872 8.44s37.833-3.271 49.871-8.44c9.813-4.2 15.737-9.665 15.737-15.644v-37.806c0 5.979-5.924 11.441-15.737 15.644-12.038 5.17-29.909 8.44-49.871 8.44s-37.834-3.27-49.872-8.44c-9.813-4.2-15.737-9.665-15.737-15.644z"/></g><ellipse cx="289.527" cy="74.084" fill="#ffcd0c" rx="74.314" ry="74.084"/><path d="m196.54 382.637h61.89v129.36h-61.89z" fill="#98ca3c"/><path d="m310.006 290.911h61.89v221.085h-61.89z" fill="#98ca3c"/><path d="m425.281 235.356h61.894v276.642h-61.894z" fill="#98ca3c"/><path d="m139.503 511.996v-82.667h-61.89l.011 82.671z" fill="#98ca3c"/><path d="m139.264 326.751c2.9 3.621 7.5 6.8 13.776 9.486 12.732 5.455 31.169 8.584 50.585 8.584s37.853-3.129 50.584-8.584c10.891-4.666 16.743-10.709 17.394-17.961.008-.089.012-.178.012-.268v-35.277c0-.014 0-.028 0-.042v-.023-37.293c0-.017 0-.033 0-.049s0-.017 0-.026v-37.349c0-14.673-26.94-25.875-63.385-26.751v-39.75c0-.047 0-.094 0-.142 0-10.073-9.969-19.273-28.071-25.906-17.154-6.285-39.9-9.746-64.048-9.746s-46.891 3.461-64.045 9.746c-18.102 6.633-28.066 15.833-28.066 25.906 0 .074.006.147.007.221v150.7a3.1 3.1 0 0 0 .017.319c1.02 9.535 8.814 17.491 23.168 23.645 17.349 7.423 42.473 11.68 68.929 11.68 7.89.001 15.66-.387 23.143-1.12zm-109.264-121.109c3.9 4 9.659 7.658 17.185 10.878 17.329 7.413 42.453 11.665 68.929 11.665 6.6 0 13.143-.277 19.513-.793v45.22c-6.373.529-12.917.813-19.514.813-25.662 0-49.926-4.076-66.569-11.182-12.601-5.391-19.544-11.943-19.544-18.443zm235.613 77.079c-.025 4.324-5.038 8.94-13.769 12.672-12.012 5.146-29.588 8.1-48.221 8.1s-36.21-2.952-48.224-8.1c-8.75-3.739-13.768-8.369-13.768-12.7v-.021-25.941a42.783 42.783 0 0 0 11.41 6.811c12.732 5.456 31.169 8.584 50.585 8.584s37.853-3.128 50.581-8.582a42.833 42.833 0 0 0 11.409-6.809zm0-37.361c-.027 4.324-5.04 8.938-13.768 12.668-12.012 5.147-29.588 8.1-48.221 8.1s-36.21-2.951-48.224-8.1c-8.75-3.738-13.768-8.368-13.768-12.7 0-.011 0-.021 0-.032v-25.963c10.464 9.274 33.676 15.429 61.992 15.429s51.529-6.155 61.993-15.43zm-13.768 85.363c-12.012 5.146-29.588 8.1-48.221 8.1s-36.21-2.952-48.221-8.1c-8.533-3.656-13.165-7.991-13.772-12.887v-23.736a42.792 42.792 0 0 0 11.409 6.811c12.732 5.455 31.169 8.584 50.585 8.584s37.853-3.129 50.581-8.582a42.817 42.817 0 0 0 11.409-6.809v23.764c-.505 4.832-5.137 9.156-13.769 12.855zm13.768-122.774c0 9.844-25.459 20.813-61.993 20.813s-61.993-10.969-61.993-20.813 25.46-20.812 61.993-20.812 61.994 10.968 61.994 20.812zm-149.5-96.3c51.486 0 86.08 15.316 86.117 29.629v.027.055c-.094 14.3-34.671 29.593-86.114 29.593-51.406 0-85.967-15.267-86.113-29.561v-.082c0-.015 0-.028 0-.043.049-14.305 34.638-29.613 86.112-29.613zm-64.047 55.562c17.154 6.286 39.9 9.747 64.049 9.747s46.894-3.461 64.048-9.747c9.88-3.619 17.33-8.005 22.066-12.879v26.818c-38.064.273-66.6 11.7-66.6 26.8v13.422c-6.361.53-12.9.814-19.513.814-25.695 0-49.958-4.076-66.569-11.182-12.604-5.392-19.547-11.944-19.547-18.449v-38.221c4.738 4.873 12.188 9.258 22.066 12.877zm-22.066 124.849v-35.178c3.9 4 9.66 7.659 17.187 10.878 17.363 7.413 42.486 11.665 68.927 11.665 6.592 0 13.133-.277 19.514-.793v39.376a2.877 2.877 0 0 0 .017.321 15.141 15.141 0 0 0 .534 2.68c-6.519.563-13.241.863-20.067.863-25.675 0-49.938-4.081-66.567-11.195-12.121-5.199-18.696-11.462-19.545-18.617zm259.21-139.629c42.247 0 76.617-34.19 76.617-76.216s-34.368-76.215-76.615-76.215-76.612 34.19-76.612 76.215 34.366 76.216 76.612 76.216zm.002-146.431c38.938 0 70.617 31.5 70.617 70.215s-31.679 70.216-70.617 70.216-70.612-31.499-70.612-70.216 31.674-70.215 70.612-70.215zm13.827 85.415c0-3.613-3.345-6.7-6.151-8.65a20.12 20.12 0 0 0 -8.2-3.13c-9.356-1.586-19.3-8.649-19.3-18.615a19.777 19.777 0 0 1 16.827-19.484v-7.9a3 3 0 1 1 6 0v7.9a19.777 19.777 0 0 1 16.822 19.484 3 3 0 0 1 -6 0 13.826 13.826 0 0 0 -27.652 0c0 6.432 7.272 11.508 14.3 12.7a26.043 26.043 0 0 1 10.628 4.121c5.707 3.97 8.724 8.664 8.724 13.575a19.775 19.775 0 0 1 -16.827 19.479v7.9a3 3 0 1 1 -6 0v-7.9a19.772 19.772 0 0 1 -16.827-19.48 3 3 0 0 1 6 0 13.827 13.827 0 0 0 27.654 0zm181.966 141.185h-58.314v-36.236h27.67a3 3 0 0 0 2.362-4.849l-58.351-74.568a3.048 3.048 0 0 0 -2.389-1.152 3.005 3.005 0 0 0 -2.369 1.194l-57.354 76.054a3 3 0 0 0 2.395 4.807h29.15a309.454 309.454 0 0 1 -14.03 89.652h-44.275a3 3 0 0 0 -3 3v89.251a304.238 304.238 0 0 1 -45.091 48.108v-46.708a3 3 0 0 0 -3-3h-61.309a3 3 0 0 0 -3 3v90.563q-8.615 4.123-17.558 7.76c-11.667 4.725-22.734 8.633-32.943 11.864v-64.04a3 3 0 0 0 -3-3h-61.312a3 3 0 0 0 -3 3l.013 81.7a3.03 3.03 0 0 0 3 3h405.705a3 3 0 0 0 3-3v-273.4a3 3 0 0 0 -3-3zm-111.187-37.545v-.205a3 3 0 0 0 -3-3h-26.143l51.378-68.13 52.147 66.644h-24.509a3 3 0 0 0 -3 3v312.636h-46.884v-215.5a3 3 0 0 0 -3-3h-10.887a313.21 313.21 0 0 0 13.898-92.445zm-6.011 310.945h-55.307v-124.715q4.2-5.686 8.164-11.576a313.379 313.379 0 0 0 37.336-76.209h9.807zm-55.307-212.5h39.334a304.967 304.967 0 0 1 -39.334 77.989zm-6 95.664v116.836h-45.093v-70.444a311.081 311.081 0 0 0 45.093-46.39zm-51.093 116.836h-55.307v-30.525a310.406 310.406 0 0 0 55.309-35.04zm-55.307-121.847h55.309v48.735a306.317 306.317 0 0 1 -55.309 35.874zm-62.5 46.147v62.9c-27.392 8.24-47.717 11.429-55.3 12.427l-.012-75.327zm-24.821 75.7c7.338-1.7 15.68-3.848 24.818-6.554v6.554zm30.818-8.378c10.858-3.382 22.7-7.523 35.195-12.584q7.763-3.144 15.306-6.683v27.645h-50.498zm338.408 8.378h-55.314v-267.4h55.314z"/></svg>