<svg id="Icons" height="512" viewBox="0 0 60 60" width="512" xmlns="http://www.w3.org/2000/svg"><path d="m9.214 52.493a.5.5 0 0 1 -.264-.925l13.1-8.128-13.083 7.552a.5.5 0 0 1 -.514-.857l14.66-9.122-14.428 8.33a.5.5 0 0 1 -.517-.856l18.732-11.787-17.472 10.081a.5.5 0 0 1 -.518-.855l19.744-12.506-18.638 10.761a.5.5 0 0 1 -.513-.859l11.549-7.136-10.7 6.18a.5.5 0 0 1 -.518-.855l19.226-12.167-18.36 10.598a.5.5 0 0 1 -.51-.859l2.9-1.765-2.234 1.289a.5.5 0 0 1 -.509-.86l1.874-1.139-1.24.716a.5.5 0 0 1 -.511-.858l9.612-5.908-8.982 5.183a.5.5 0 0 1 -.517-.855l18.979-11.973-18.345 10.587a.5.5 0 0 1 -.516-.857l16.778-10.517-12.3 7.1a.5.5 0 0 1 -.522-.853l15.774-10.223-16.362 9.45a.5.5 0 0 1 -.52-.853l12.606-8.13-14.285 8.244a.5.5 0 0 1 -.518-.854l9.218-5.861-9.433 5.446a.5.5 0 0 1 -.651-.733l.486-.646a.5.5 0 0 1 -.359-.921l1.937-1.117a.5.5 0 0 1 .65.732l-.448.6 27.584-15.927a.5.5 0 0 1 .518.855l-9.223 5.865 11.641-6.722a.5.5 0 0 1 .521.853l-12.6 8.125 15.554-8.98a.5.5 0 0 1 .522.853l-15.776 10.224 19.192-11.079a.5.5 0 0 1 .515.857l-16.781 10.523 16.681-9.631a.5.5 0 0 1 .516.856l-18.964 11.967 18.387-10.616a.5.5 0 0 1 .512.859l-9.618 5.911 8.61-4.971a.5.5 0 0 1 .51.86l-1.88 1.142 1.039-.6a.5.5 0 0 1 .51.86l-2.917 1.775 2.113-1.22a.5.5 0 0 1 .518.856l-19.225 12.164 18.289-10.559a.5.5 0 0 1 .513.859l-11.544 7.134 10.791-6.23a.5.5 0 0 1 .517.856l-19.746 12.505 18.978-10.956a.5.5 0 0 1 .516.856l-18.725 11.792 18.05-10.423a.5.5 0 0 1 .513.857l-14.653 9.118 14.056-8.115a.5.5 0 0 1 .513.858l-13.1 8.13 12.55-7.248a.5.5 0 0 1 .514.857l-11.55 7.194 11.032-6.368a.5.5 0 0 1 .516.856l-11.762 7.411 11.228-6.483a.5.5 0 0 1 .513.858l-3.741 2.316 1.152-.665a.5.5 0 0 1 .519.854l-8.443 5.415 9.063-5.232a.5.5 0 0 1 .527.849l-10.92 7.272 11.685-6.746a.5.5 0 0 1 .528.849l-9.067 6.056 8.748-5.05a.5.5 0 0 1 .531.845l-7.55 5.144 4.759-2.747a.5.5 0 0 1 .542.839l-5.053 3.637 5.381-3.107a.5.5 0 0 1 .56.824l-4.868 3.858 6.462-3.731a.5.5 0 0 1 .571.817l-4.113 3.442 4.164-2.4a.5.5 0 0 1 .549.834l-.237.177a.5.5 0 0 1 .536.836l-.168.135a.493.493 0 0 1 .532.133.5.5 0 0 1 .044.623l-.987 1.432.063-.037a.5.5 0 1 1 .5.867l-1.989 1.136a.5.5 0 0 1 -.661-.717l.986-1.43-3.723 2.148a.5.5 0 0 1 -.561-.823l.124-.1-1.6.924a.5.5 0 0 1 -.548-.834l.227-.169-1.741 1.005a.5.5 0 0 1 -.571-.816l4.114-3.443-7.378 4.265a.5.5 0 0 1 -.561-.824l4.87-3.858-8.115 4.684a.5.5 0 0 1 -.542-.839l5.05-3.634-7.75 4.475a.5.5 0 0 1 -.531-.846l7.554-5.146-10.383 5.994a.5.5 0 0 1 -.528-.849l9.068-6.053-11.96 6.9a.5.5 0 0 1 -.527-.849l10.919-7.265-14.074 8.12a.5.5 0 0 1 -.519-.854l8.443-5.415-10.862 6.271a.5.5 0 0 1 -.513-.858l3.737-2.313-5.495 3.172a.5.5 0 0 1 -.516-.856l11.767-7.41-14.322 8.268a.5.5 0 0 1 -.515-.858l11.552-7.195-13.951 8.054a.494.494 0 0 1 -.25.067z" fill="#eaa663"/><path d="m16.967 21.146a.5.5 0 0 1 -.288-.909l8.81-6.2-8.38 4.838a.5.5 0 0 1 -.537-.842l5.553-3.891-7.354 4.245a.5.5 0 0 1 -.546-.836l6.181-4.535-7.306 4.222a.5.5 0 0 1 -.53-.847l.985-.662-1.363.786a.5.5 0 0 1 -.553-.829l4.431-3.4-6.182 3.571a.5.5 0 0 1 -.54-.839l1.829-1.3-1.607.927a.5.5 0 0 1 -.551-.831l1.781-1.351-1.558.9a.5.5 0 0 1 -.586-.8l1.936-1.752-1.8 1.038a.5.5 0 0 1 -.62-.769l.923-1.018-.188.108a.5.5 0 0 1 -.7-.659l.4-.784a.5.5 0 0 1 .094-.8l.571-.33a.5.5 0 0 1 .7.659l-.1.2 1.491-.86a.5.5 0 0 1 .62.768l-.923 1.019 3.1-1.788a.5.5 0 0 1 .586.8l-1.934 1.751 4.428-2.556a.5.5 0 0 1 .552.831l-1.783 1.35 3.775-2.18a.5.5 0 0 1 .54.84l-1.835 1.306 3.72-2.147a.5.5 0 0 1 .554.829l-4.433 3.4 7.325-4.228a.5.5 0 0 1 .53.848l-.985.661 2.616-1.51a.5.5 0 0 1 .546.836l-6.181 4.534 9.306-5.372a.5.5 0 0 1 .537.842l-5.551 3.891 8.2-4.735a.5.5 0 0 1 .538.842l-8.814 6.2 12.203-7.047a.5.5 0 0 1 .5.865l-21.883 12.633a.494.494 0 0 1 -.25.067z" fill="#eaa663"/><path d="m3.229 9.47a.5.5 0 0 1 -.39-.813l1.355-1.691-2.894 1.669a.5.5 0 0 1 -.582-.806l1.543-1.371-.981.565a.5.5 0 0 1 -.6-.789l.841-.828-.241.139a.5.5 0 0 1 -.68-.685l.39-.668a.5.5 0 0 1 -.156-.923l1.166-.669a.5.5 0 0 1 .682.684l-.266.455 2-1.157a.5.5 0 0 1 .6.789l-.844.83 1.821-1.053a.5.5 0 0 1 .582.806l-1.539 1.371.964-.556a.5.5 0 0 1 .64.745l-1.355 1.691.726-.419a.5.5 0 0 1 .731.568l-.248.882a.507.507 0 0 1 .208.2.5.5 0 0 1 -.184.682l-.5.287a.5.5 0 0 1 -.731-.568l.16-.569-1.968 1.132a.5.5 0 0 1 -.25.07z" fill="#663729"/><path d="m56.026 9.484a.5.5 0 0 1 -.362-.844l.563-.592-2.217 1.279a.5.5 0 0 1 -.608-.782l2.598-2.652-1.99 1.145a.5.5 0 0 1 -.578-.809l.376-.328a.517.517 0 0 1 -.342-.093.5.5 0 0 1 -.2-.508l.318-1.512a.5.5 0 0 1 -.079-.9l.5-.288a.506.506 0 0 1 .544.029.5.5 0 0 1 .2.508l-.27 1.276 3.142-1.813a.5.5 0 0 1 .578.809l-.2.171.641-.37a.5.5 0 0 1 .607.782l-2.588 2.652 2.061-1.19a.5.5 0 0 1 .612.777l-.567.6a.5.5 0 0 1 .455.889l-2.944 1.7a.489.489 0 0 1 -.25.064z" fill="#663729"/><path d="m7.581 11.432a.5.5 0 0 1 -.281-.914l2-1.358-2.438 1.406a.5.5 0 0 1 -.532-.845l1.349-.921-1.121.646a.5.5 0 0 1 -.536-.846l.615-.426-.253.145a.5.5 0 0 1 -.543-.838l.745-.538-.292.168a.5.5 0 0 1 -.56-.825l1.166-.916-.6.349a.5.5 0 0 1 -.607-.782l1.397-1.437-.613.353a.5.5 0 0 1 -.624-.1.5.5 0 0 1 -.027-.632l.615-.821a.5.5 0 0 1 -.065-.9l1.386-.8a.5.5 0 0 1 .65.733l-.326.435 1.665-.955a.5.5 0 0 1 .607.783l-1.4 1.431 3.442-1.985a.5.5 0 0 1 .559.825l-1.165.919 2.765-1.6a.5.5 0 0 1 .543.838l-.74.535 2.182-1.259a.5.5 0 0 1 .535.844l-.619.428 2.052-1.182a.5.5 0 0 1 .532.845l-1.344.922 2.933-1.692a.5.5 0 0 1 .531.846l-2.011 1.363 3.724-2.15a.5.5 0 0 1 .546.836l-4.43 3.24 6.981-4.029a.5.5 0 0 1 .561.824l-5.18 4.118 8.523-4.913a.5.5 0 0 1 .556.828l-4.634 3.588 7.689-4.44a.5.5 0 0 1 .547.835l-3.736 2.758 6.313-3.645a.5.5 0 0 1 .554.83l-4.348 3.32 7.369-4.253a.5.5 0 0 1 .56.824l-4.89 3.87 8.466-4.887a.5.5 0 0 1 .552.831l-4.596 3.472 7.93-4.577a.5.5 0 0 1 .531.846l-1.541 1.051 3.742-2.162a.5.5 0 0 1 .536.843l-3.1 2.154 4.522-2.611a.5.5 0 0 1 .555.829l-5.3 4.078 5.355-3.09a.5.5 0 0 1 .535.842l-.332.232a.5.5 0 0 1 .483.867l-.455.33a.5.5 0 0 1 .569.81l-2.242 2.127 1.575-.9a.5.5 0 0 1 .594.8l-.525.5a.5.5 0 0 1 .234.933l-3.146 1.808a.5.5 0 0 1 -.595-.795l.294-.279-1.557.9a.5.5 0 0 1 -.594-.794l2.234-2.133-4.676 2.7a.5.5 0 0 1 -.544-.84l.453-.329-1.825 1.056a.5.5 0 0 1 -.535-.843l.284-.2-1.646.95a.5.5 0 0 1 -.555-.829l5.3-4.078-8.282 4.783a.5.5 0 0 1 -.536-.843l3.106-2.16-5.1 2.944a.5.5 0 0 1 -.531-.846l1.542-1.05-3.23 1.865a.5.5 0 0 1 -.552-.831l4.59-3.473-7.42 4.284a.5.5 0 0 1 -.561-.825l4.892-3.87-8.168 4.715a.5.5 0 0 1 -.554-.83l4.344-3.317-7.285 4.206a.5.5 0 0 1 -.547-.835l3.739-2.76-6.392 3.69a.5.5 0 0 1 -.556-.828l4.639-3.59-7.958 4.594a.5.5 0 0 1 -.562-.824l5.181-4.118-9.108 5.257a.5.5 0 0 1 -.669-.159.5.5 0 0 1 .123-.677l4.432-3.246-7.584 4.381a.5.5 0 0 1 -.25.068z" fill="#ffbb71"/><path d="m4.425 57.47a.5.5 0 0 1 -.415-.779l.633-.944-2.743 1.584a.5.5 0 0 1 -.615-.774l2.3-2.466-2.305 1.332a.5.5 0 0 1 -.612-.777l1.4-1.474-.788.455a.5.5 0 0 1 -.68-.678l.423-.752a.5.5 0 0 1 -.185-.928l1.162-.669a.5.5 0 0 1 .686.677l-.324.576 2.2-1.272a.5.5 0 0 1 .613.777l-1.4 1.474 2.225-1.285a.5.5 0 0 1 .615.774l-2.3 2.465 1.7-.98a.5.5 0 0 1 .665.711l-.634.946a.5.5 0 0 1 .478.878l-1.849 1.059a.49.49 0 0 1 -.25.07z" fill="#663729"/><path d="m55.405 57.488a.5.5 0 0 1 -.363-.843l1.214-1.286-2.246 1.3a.5.5 0 0 1 -.565-.821l.418-.339a.509.509 0 0 1 -.507-.193.5.5 0 0 1 .067-.665l.949-.868-.362.209a.5.5 0 0 1 -.74-.531l.329-1.656a.5.5 0 0 1 -.089-.907l.5-.288a.5.5 0 0 1 .74.531l-.285 1.434 3.383-1.954a.5.5 0 0 1 .587.8l-.951.869 1.236-.713a.5.5 0 0 1 .564.822l-.418.339a.508.508 0 0 1 .5.179.5.5 0 0 1 -.029.654l-1.215 1.285.6-.347a.5.5 0 0 1 .679.689l-.373.626a.5.5 0 0 1 .14.919l-1.168.667a.5.5 0 0 1 -.68-.688l.235-.392-1.9 1.1a.489.489 0 0 1 -.25.068z" fill="#663729"/><path d="m8.088 59.459a.5.5 0 0 1 -.294-.9l4.816-3.507-5.81 3.348a.5.5 0 0 1 -.537-.842l2.252-1.575-2.015 1.164a.5.5 0 0 1 -.534-.843l.26-.18a.509.509 0 0 1 -.531-.2.5.5 0 0 1 .1-.672l2.558-2.066-2.071 1.2a.5.5 0 0 1 -.619-.77l2.087-2.283-1.3.753a.5.5 0 0 1 -.66-.719l.722-1.035a.5.5 0 0 1 -.13-.918l1.386-.8a.5.5 0 0 1 .66.719l-.534.766 2.163-1.248a.5.5 0 0 1 .619.769l-2.092 2.274 4.816-2.779a.5.5 0 0 1 .565.822l-2.56 2.063 4.716-2.723a.5.5 0 0 1 .534.844l-.06.042 1.383-.8a.5.5 0 0 1 .536.843l-2.248 1.572 4.034-2.324a.5.5 0 0 1 .544.837l-4.822 3.509 7.389-4.266a.5.5 0 0 1 .537.842l-3 2.1 5.026-2.9a.5.5 0 0 1 .551.831l-4.626 3.5 7.473-4.307a.5.5 0 0 1 .535.843l-1.938 1.346 3.8-2.2a.5.5 0 0 1 .56.825l-4.749 3.739 7.982-4.607a.5.5 0 0 1 .557.827l-4.585 3.567 7.778-4.489a.5.5 0 0 1 .537.842l-2.328 1.636 4.473-2.582a.5.5 0 0 1 .549.834l-4.143 3.085 7.124-4.113a.5.5 0 0 1 .536.843l-2.551 1.783 4.928-2.844a.5.5 0 0 1 .529.848l-.329.22 2.268-1.31a.5.5 0 0 1 .552.832l-5.422 4.093 7.131-4.118a.5.5 0 0 1 .555.829l-4.81 3.7 4.663-2.691a.5.5 0 0 1 .559.826l-2.853 2.236 2.429-1.4a.5.5 0 0 1 .551.832l-.393.3a.515.515 0 0 1 .475.172.5.5 0 0 1 0 .643l-1.681 1.982.808-.466a.5.5 0 0 1 .5.865l-3.3 1.907a.5.5 0 0 1 -.631-.756l1.68-1.981-4.253 2.455a.5.5 0 0 1 -.551-.832l.2-.154-1.491.86a.5.5 0 0 1 -.559-.826l2.851-2.23-5.036 2.907a.5.5 0 0 1 -.555-.829l4.809-3.7-7.62 4.4a.5.5 0 0 1 -.552-.832l5.423-4.094-8.384 4.83a.5.5 0 0 1 -.528-.849l.333-.222-1.805 1.042a.5.5 0 0 1 -.536-.843l2.549-1.781-4.513 2.605a.5.5 0 0 1 -.549-.834l4.139-3.084-6.79 3.922a.5.5 0 0 1 -.537-.842l2.333-1.639-4.34 2.505a.5.5 0 0 1 -.557-.828l4.584-3.567-7.744 4.471a.5.5 0 0 1 -.559-.825l4.75-3.738-8.147 4.7a.5.5 0 0 1 -.535-.843l1.94-1.347-4.03 2.326a.5.5 0 0 1 -.552-.831l4.622-3.5-7.992 4.614a.5.5 0 0 1 -.536-.838l3-2.1-5.662 3.265a.491.491 0 0 1 -.25.067z" fill="#ffbb71"/><g fill="#262626"><path d="m59.1 50.776c-1.449-.517-3.111-.1-4.636-.227a2.03 2.03 0 0 0 -2.135-1.833c-.683-1.376-.442-3.365-1.67-4.367-3.105-.974-3.787-1.781-.594-3.511.5-.555.271-1.257.189-1.93.572-3.923-3.974-2.873-2.189-5.032.968-.98 1.715-.93 1.681-2.517a64.336 64.336 0 0 1 2.4-19.836 2.589 2.589 0 0 0 2.293-2.25c4.584.312 5.824-.111 5.291-4.972.154-2.656-3.583-1.24-5.221-1.574-.36-4.53-11.472-.63-15.038-1.4a231.42 231.42 0 0 1 -28.479-.569c-2.011-.316-4.884-.773-5.317 1.799-4.741-.336-5.921.106-5.401 5.108-.188 2.8 3.572 1.5 5.293 1.778a2.176 2.176 0 0 0 2.174 2.05c.843 1.564.329 4.3 2.242 4.974.821.175 1.3-.081 2.04.533.6.5 1 1.19 1.792 1.419 1.853-.08 3.228.176 2.22 2.417-1.913 1.218-6.005.922-5.94 3.924-.243 1.98 1.52 2.408 3.059 2.825 2.324.534.175 2.084-.942 2.644-2 .889-2.189 3.012-2.105 4.947a54.75 54.75 0 0 1 -2.382 13.617 2.462 2.462 0 0 0 -1.983 1.746c-4.761-.324-6 .05-5.47 5.121-.191 2.819 3.57 1.525 5.3 1.8.194 2.024 2.191 1.978 3.728 1.64a219.586 219.586 0 0 1 27.146-.742c4.161-.845 16.429 2.986 17.858-.911 1.741-.229 5.065.859 5.423-1.621-.258-1.598.661-3.851-.627-5.05zm-2.92-47.503c3.111-.808 2.136 3.67 1.874 5.454h-3.5a21.773 21.773 0 0 0 .046-5.454zm-54.28.144c.052-.058.046-.007 0 0zm1.72 5.14c-.7-.029-1.942.266-1.89-.785.112-1.421-.233-2.978.151-4.333 1.2.011 2.395 0 3.592 0a17.954 17.954 0 0 0 -.047 5.114zm3.374.295a15.935 15.935 0 0 1 -.025-6.065c.431-1.878 2.217-1.082 3.523-.972a230.041 230.041 0 0 0 24.715.675c5.293-.09 10.585-.29 15.847-.857 1.148-.386 1.851.434 2.017 1.6.04 2.071 1.168 6.884-1.641 7.149-4.347-.473-8.717-.685-13.086-.8a229.485 229.485 0 0 0 -29.211.773 1.552 1.552 0 0 1 -2.142-1.503zm4.367 28.811c.492-2.265-.55-5.468 1.8-6.813 3.557-1.869 3.335-3.977-.668-4.712-1.076-.124-1.2-2-.713-2.66 1.592-.886 3.8-.98 5.31-2.075 1.744-2.043.347-4.453-2.337-3.91-.883-.193-1.321-1.249-2.062-1.694a2.664 2.664 0 0 0 -1.32-.306c-1.8-.013-1.5-2.832-2.1-4.109a222.331 222.331 0 0 1 41.542.094 60.117 60.117 0 0 0 -2.531 17.995c.135 1.606.435 3.743-1.4 4.439-1.919 1.576.716 2.191 1.625 3.152a25.471 25.471 0 0 1 .422 3.228c-.03 1.237-1.649 1.215-2.223 2.106-.863 1.341 1.115 1.846 1.977 2.191 1.7.609 1.443 2.832 2.111 4.266a219.266 219.266 0 0 1 -41.641-.1 52.959 52.959 0 0 0 2.205-11.092zm-7.749 18.876c-.655-.062-1.815.3-1.883-.625a33.753 33.753 0 0 1 .1-4.4s.048-.064.038-.049h3.633a16.533 16.533 0 0 0 -.07 5.078zm48.811 2.161a231.373 231.373 0 0 0 -43.1-.1c-3.551 1.322-3.023-8.04-1.629-9.3.175.318.836.3 1.176.036a219.342 219.342 0 0 0 41.993.037c3.551-.402 2.613 7.415 1.56 9.327zm5.849-6.615c-.109 1.464.228 3.059-.145 4.46h-3.579a21.882 21.882 0 0 0 .08-5.1c1.086.264 3.251-.645 3.644.644z"/><path d="m38.734 44.371c14.05-.97-18-.776-20.441-.741-4.65 1.583 18.775.396 20.441.741z"/><path d="m38.72 35.319c13.869-.831-17.917-.669-20.413-.637-4.487 1.375 18.715.331 20.413.637z"/><path d="m39.1 26.358c12.575-.937-15.546-.749-17.806-.716-4.479 1.5 16.3.402 17.806.716z"/><path d="m39.234 17.39c12.144-1.019-14.791-.816-16.946-.78-4.614 1.605 15.554.456 16.946.78z"/></g></svg>