<svg enable-background="new 0 0 512 512" viewBox="0 0 512 512" xmlns="http://www.w3.org/2000/svg"><g id="_x33_5_Scroll_with_a_message"><g><path d="m476.279 407.254h-18.203v-1.262c0-11.699-9.514-21.212-21.212-21.212h-10.194v-257.608h10.193c11.699 0 21.212-9.514 21.212-21.212v-1.214h18.203c15.048 0 27.28-12.281 27.28-27.329s-12.232-27.329-27.28-27.329h-18.203v-1.214c0-11.699-9.514-21.212-21.212-21.212h-361.678c-11.699 0-21.213 9.514-21.213 21.212v1.214h-18.203c-15.048 0-27.328 12.281-27.328 27.329s12.281 27.329 27.328 27.329h18.203v1.214c0 11.698 9.514 21.212 21.213 21.212h10.193v257.607h-10.193c-11.699 0-21.213 9.514-21.213 21.212v1.262h-18.203c-15.048 0-27.328 12.232-27.328 27.28 0 15.096 12.281 27.328 27.328 27.328h18.203v1.214c0 11.747 9.514 21.261 21.213 21.261h361.679c11.699 0 21.212-9.514 21.212-21.261v-1.214h18.203c15.048 0 27.28-12.232 27.28-27.328 0-15.047-12.232-27.279-27.28-27.279zm-401.094-289.79c-6.359 0-11.504-5.145-11.504-11.504v-57.084c0-6.359 5.145-11.504 11.504-11.504h361.679c6.359 0 11.504 5.145 11.504 11.504v57.084c0 6.359-5.145 11.504-11.504 11.504-169.7 0-92.714 0-361.679 0zm341.777 9.708v257.607h-321.876v-257.607zm31.406 335.904c0 6.359-5.145 11.553-11.504 11.553h-361.679c-6.359 0-11.504-5.194-11.504-11.553v-57.084c0-6.359 5.145-11.504 11.504-11.504h361.679c6.359 0 11.504 5.145 11.504 11.504z"/><path d="m234.749 413.899h-131.018c-11.386 0-20.649 9.263-20.649 20.649 0 2.683 2.171 4.854 4.854 4.854s4.854-2.171 4.854-4.854c0-6.034 4.906-10.941 10.941-10.941h131.018c2.683 0 4.854-2.171 4.854-4.854s-2.171-4.854-4.854-4.854z"/><path d="m374.029 165.211h-170.893c-2.683 0-4.854 2.171-4.854 4.854s2.171 4.854 4.854 4.854h170.894c2.683 0 4.854-2.171 4.854-4.854s-2.172-4.854-4.855-4.854z"/><path d="m137.999 174.919h32.244c2.683 0 4.854-2.171 4.854-4.854s-2.171-4.854-4.854-4.854h-32.244c-2.683 0-4.854 2.171-4.854 4.854s2.17 4.854 4.854 4.854z"/><path d="m137.999 232.197h170.899c2.683 0 4.854-2.171 4.854-4.854s-2.171-4.854-4.854-4.854h-170.899c-2.683 0-4.854 2.171-4.854 4.854s2.17 4.854 4.854 4.854z"/><path d="m374.029 222.489h-32.244c-2.683 0-4.854 2.171-4.854 4.854s2.171 4.854 4.854 4.854h32.244c2.683 0 4.854-2.171 4.854-4.854s-2.171-4.854-4.854-4.854z"/><path d="m374.029 279.766h-170.893c-2.683 0-4.854 2.171-4.854 4.854s2.171 4.854 4.854 4.854h170.894c2.683 0 4.854-2.171 4.854-4.854-.001-2.683-2.172-4.854-4.855-4.854z"/><path d="m170.242 279.766h-32.244c-2.683 0-4.854 2.171-4.854 4.854s2.171 4.854 4.854 4.854h32.244c2.683 0 4.854-2.171 4.854-4.854s-2.171-4.854-4.854-4.854z"/><path d="m167.692 337.044h-29.693c-2.683 0-4.854 2.171-4.854 4.854s2.171 4.854 4.854 4.854h29.693c2.683 0 4.854-2.171 4.854-4.854s-2.171-4.854-4.854-4.854z"/><path d="m308.897 337.044h-105.761c-2.683 0-4.854 2.171-4.854 4.854s2.171 4.854 4.854 4.854h105.762c2.683 0 4.854-2.171 4.854-4.854-.001-2.683-2.172-4.854-4.855-4.854z"/><path d="m374.029 337.044h-32.244c-2.683 0-4.854 2.171-4.854 4.854s2.171 4.854 4.854 4.854h32.244c2.683 0 4.854-2.171 4.854-4.854s-2.171-4.854-4.854-4.854z"/><path d="m92.79 77.416c0-6.034 4.906-10.941 10.941-10.941h131.018c2.683 0 4.854-2.171 4.854-4.854s-2.171-4.854-4.854-4.854h-131.018c-11.386 0-20.649 9.263-20.649 20.649 0 2.683 2.171 4.854 4.854 4.854s4.854-2.171 4.854-4.854z"/></g></g><g id="Layer_1"/></svg>