<svg id="Capa_1" enable-background="new 0 0 512 512" height="512" viewBox="0 0 512 512" width="512" xmlns="http://www.w3.org/2000/svg"><g><path d="m183.91 56.708c-4.142 0-7.5 3.357-7.5 7.5s3.358 7.5 7.5 7.5h173.822c4.142 0 7.5-3.357 7.5-7.5s-3.358-7.5-7.5-7.5z"/><path d="m217.41 304.208c0-4.143-3.358-7.5-7.5-7.5h-55.642c-4.142 0-7.5 3.357-7.5 7.5s3.358 7.5 7.5 7.5h55.642c4.142 0 7.5-3.357 7.5-7.5z"/><path d="m365.875 339.396-67.689-67.688h59.232c4.107 0 7.688-3.165 7.811-7.27.127-4.247-3.278-7.73-7.497-7.73h-63.432c-.591-7.573-1.789-16.019-3.69-25h66.808c4.107 0 7.688-3.165 7.811-7.27.127-4.247-3.278-7.73-7.497-7.73h-70.841c-2.315-8.145-5.188-16.55-8.679-25h79.206c4.107 0 7.688-3.165 7.811-7.27.127-4.247-3.278-7.73-7.497-7.73h-86.379c-4.109-8.158-8.83-16.238-14.219-24.046-.186-.334-.397-.653-.63-.954h100.914c4.107 0 7.688-3.165 7.811-7.27.127-4.247-3.278-7.73-7.497-7.73h-112.938c-8.024-9.258-16.818-17.454-26.782-25h139.406c4.107 0 7.688-3.165 7.811-7.27.127-4.247-3.278-7.73-7.497-7.73-170.238 0-162.73.031-162.885-.056-7.872-4.383-16.624-8.516-25.697-12.081-.223-.1-.451-.189-.685-.268-18.939-7.37-38.999-12.182-56.697-13.99v-23.249c0-17.709 14.356-32.064 32.064-32.064h269.042c-7.839 8.41-12.642 19.688-12.642 32.064v99.997c0 4.107 3.164 7.688 7.269 7.811 4.247.128 7.731-3.277 7.731-7.497v-12.084h70.272c4.891 0 8.856-3.965 8.856-8.856v-22.911c0-2.545-1.055-4.976-2.915-6.713l-17.245-16.118 17.244-16.118c1.853-1.731 2.916-4.179 2.916-6.715v-10.796c.001-25.993-21.071-47.064-47.064-47.064h-303.463c-25.993 0-47.065 21.071-47.065 47.064v22.406c-9.642-.021-19.387 1.187-23.719 5.52-8.45 8.45-5.012 37.503-3.756 46.206 3.881 26.914 13.523 55.231 27.475 79.206v94.896c0 2.544 1.055 4.975 2.914 6.712l17.246 16.119-17.252 16.126c-1.848 1.731-2.907 4.176-2.907 6.707v35.747h-70.273c-4.891 0-8.856 3.965-8.856 8.856v79.371c0 25.993 21.071 47.064 47.064 47.064h303.464c25.879 0 47.064-21.042 47.064-47.064v-210.536c0-2.545-1.055-4.976-2.915-6.713l-17.245-16.118 17.244-16.118c1.853-1.731 2.916-4.179 2.916-6.715v-26.046c0-4.107-3.164-7.688-7.269-7.811-4.247-.128-7.731 3.277-7.731 7.497v23.837l-19.946 18.643c-3.878 3.627-3.883 9.799.001 13.426l19.944 18.642v207.374c0 17.94-14.681 33.004-32.618 32.698-17.426-.297-31.51-14.564-31.51-32.06v-79.371c0-4.891-3.965-8.856-8.856-8.856h-78.25c-2.529 0-4.972 1.058-6.714 2.914l-16.119 17.246-16.125-17.253c-1.731-1.848-4.176-2.907-6.707-2.907h-42.176c-4.107 0-7.688 3.165-7.811 7.27-.127 4.247 3.278 7.73 7.497 7.73h39.967l18.642 19.945c3.627 3.879 9.796 3.882 13.426-.001l18.641-19.944h69.584v73.228c0 12.377 4.803 23.654 12.642 32.064h-269.04c-17.709 0-32.064-14.356-32.064-32.064v-73.228h92.889c4.107 0 7.688-3.165 7.811-7.27.127-4.247-3.278-7.73-7.497-7.73h-14.075v-33.225l19.942-18.64c3.875-3.617 3.895-9.789.002-13.429l-19.944-18.642v-70.231c10.865 13.831 23.204 25.502 37.862 35.771-1.752 1.381-2.874 3.526-2.862 5.933.021 4.174 3.605 7.462 7.778 7.462h17.139c32.378 16.971 68.804 25.143 94.632 24.97l40.03 40.03h-122.123c-4.107 0-7.688 3.165-7.811 7.27-.127 4.247 3.278 7.73 7.497 7.73h138.063c1.349.718 2.857 1.128 4.422 1.188h33.888c7.045 0 10.573-8.518 5.592-13.5zm81.421-324.396c17.68 0 32.064 14.384 32.064 32.064v8.273l-19.945 18.643c-3.878 3.627-3.883 9.799.001 13.426l19.944 18.642v14.244h-64.129v-73.228c.001-17.68 14.385-32.064 32.065-32.064zm-116.879 323.564s-68.268-68.269-84.891-84.892c-2.928-2.927-7.677-2.929-10.606 0-2.929 2.93-2.929 7.678 0 10.607l16.526 16.526c-36.281-4.012-75.638-19.69-104.558-44.287h15.587c4.142 0 7.5-3.357 7.5-7.5s-3.358-7.5-7.5-7.5h-30.994c-5.75-6.412-11.083-13.39-15.953-20.873h55.757l38.475 38.475c2.929 2.928 7.678 2.928 10.606 0 2.929-2.93 2.929-7.678 0-10.607l-66.766-66.766 7.206-7.206c36.673 36.673 150.031 150.032 184.022 184.022h-14.411zm-109.061-173.688c4.142 0 7.5-3.357 7.5-7.5v-15.929c5.195 5.488 9.924 11.27 14.218 17.242v38.49c0 4.143 3.358 7.5 7.5 7.5s7.5-3.357 7.5-7.5v-13.69c6.645 13.152 11.918 27.23 15.644 41.49.077.754.265 1.474.549 2.146 2.25 8.997 3.75 17.542 4.603 25.27l-80.164-80.163v-55.761c5.312 3.457 10.369 7.146 15.149 11.053v29.855c.001 4.14 3.359 7.497 7.501 7.497zm-137.552-79.133c3.823-1.327 16.804-2.304 35.941.733 12.971 2.059 26.169 5.528 38.834 10.143v18.857c0 4.143 3.358 7.5 7.5 7.5s7.5-3.357 7.5-7.5v-12.736c3.45 1.566 6.831 3.216 10.127 4.945v49.545l-16.58-16.58c-4.039-4.04-10.679-3.96-14.85.21l-13.358 13.357c-4.153 4.151-4.249 10.813-.212 14.851l16.579 16.579h-49.54c-7.151-13.631-12.958-28.729-16.996-44.05h15.518c4.142 0 7.5-3.357 7.5-7.5s-3.358-7.5-7.5-7.5h-18.884c-.304-1.64-.586-3.278-.846-4.912-3.037-19.138-2.059-32.119-.733-35.942z"/></g></svg>