<svg id="Capa_1" enable-background="new 0 0 507.552 507.552" height="512" viewBox="0 0 507.552 507.552" width="512" xmlns="http://www.w3.org/2000/svg"><g><path d="m455.759 6.164c-31.173-10.22-67.673-7.723-108.486 7.426-3.883 1.441-5.862 5.758-4.421 9.641 1.441 3.884 5.758 5.862 9.641 4.421 34.872-12.943 65.969-15.965 92.547-9.014-2.405 15.084-9.424 53.504-21.442 75.306-.14.253-.395.454-.719.565-7.223 2.488-25.599 8.985-40.181 15.548-3.58 1.611-5.872 5.189-5.84 9.117.032 3.933 2.387 7.478 5.998 9.032l17.822 7.673c.707.305 1.047 1.108.772 1.83-7.979 20.968-30.48 73.029-66.982 103.503-.167.139-.377.245-.623.314-8.669 2.423-38.51 10.612-58.528 14.249-4.449.809-7.727 4.527-7.971 9.042-.244 4.521 2.618 8.577 6.961 9.862l22.679 6.71c-16.388 13.269-51.185 37.777-86.12 39.247 18.889-44.645 54.481-103.981 121.174-175.084 5.561-5.927 6.339-14.812 1.893-21.607-2.846-4.349-7.436-7.198-12.596-7.815-5.155-.614-10.285 1.067-14.073 4.618-26.853 25.17-103.648 101.237-142.199 181.233-19.258-27.045-29.331-91.874 51.585-178.123.431-.46.926-.496 1.267-.445.344.051.813.233 1.096.808 4.746 9.649 10.311 17.495 16.539 23.321 3.199 2.992 7.811 3.679 11.745 1.753 3.941-1.928 6.23-5.996 5.831-10.363-3.132-34.204-.856-51.007 1.471-54.1.06-.048.118-.096.176-.145.263-.223 26.689-22.514 63.473-41.695 3.673-1.916 5.098-6.445 3.183-10.118-1.917-3.673-6.448-5.097-10.118-3.182-37.096 19.344-63.36 41.132-66.057 43.402-3.244 2.427-10.727 8.895-8.163 52.747-1.622-2.537-3.171-5.295-4.619-8.239-2.386-4.853-7-8.226-12.34-9.024-5.333-.799-10.727 1.079-14.422 5.018-41.126 43.837-64.141 86.898-68.404 127.988-3.112 30.001 4.694 58.246 20.887 75.689-5.725 13.793-10.147 27.611-12.837 41.221h-29.142c-7.444 0-13.5 6.056-13.5 13.5v19.678h-15.059c-7.444 0-13.5 6.056-13.5 13.5v54.996h-14.028c-7.444 0-13.5 6.056-13.5 13.5v20.382c0 7.444 6.056 13.5 13.5 13.5h20.084c4.142 0 7.5-3.358 7.5-7.5s-3.358-7.5-7.5-7.5h-18.584v-17.38h209.274v17.382h-160.69c-4.142 0-7.5 3.358-7.5 7.5s3.358 7.5 7.5 7.5h162.189c7.444 0 13.5-6.056 13.5-13.5v-20.382c0-7.444-6.056-13.5-13.5-13.5h-14.028v-54.996c0-7.444-6.056-13.5-13.5-13.5h-15.057v-19.678c0-7.444-6.056-13.5-13.5-13.5h-18.817c1.947-6.992 4.382-14.609 7.409-22.82.072.004 1.863.051 2.694.051 20.827-.001 43.643-7.129 67.855-21.208 19.552-11.369 34.343-24.065 39.795-28.996 2.427-2.195 3.482-5.54 2.757-8.73-.727-3.191-3.128-5.749-6.266-6.678l-13.294-3.933c16.554-3.891 33.261-8.485 39.43-10.209 2.306-.644 4.392-1.736 6.199-3.246 39.219-32.742 62.989-87.612 71.389-109.683 3.141-8.253-.751-17.452-8.859-20.943l-6.908-2.974c11.319-4.578 22.767-8.612 28.062-10.437 3.847-1.325 7.032-3.991 8.97-7.506 16.462-29.862 23.819-84.599 24.124-86.914.473-3.576-1.67-6.982-5.098-8.106zm-212.384 454.006h-154.218v-53.496h154.217v53.496zm-28.557-68.496h-97.104v-18.178h97.104zm-54.156-33.178c8.445-39.056 32.841-84.483 72.569-135.106 32.772-41.758 66.877-75.374 84.291-91.697.75-.704 1.599-.719 2.032-.668.439.053 1.261.27 1.826 1.135.643.982.527 2.27-.281 3.132-92.384 98.493-126.666 175.634-139.135 223.203h-21.302z"/><path d="m126.212 440.935h80.107c4.142 0 7.5-3.358 7.5-7.5s-3.358-7.5-7.5-7.5h-80.107c-4.142 0-7.5 3.358-7.5 7.5s3.358 7.5 7.5 7.5z"/></g></svg>