<svg id="Layer_1" height="512" viewBox="0 0 512 512" width="512" xmlns="http://www.w3.org/2000/svg" data-name="Layer 1"><path d="m495.73 467.015-41.58-220.29a13.386 13.386 0 0 0 -13.13-10.74h-16.29l-171.28 232.33c-.02-.01-.04-.01-.06-.02l.06 14.75h229.15a13.388 13.388 0 0 0 13.13-16.03z" fill="#b79070"/><path d="m253.39 468.3-134.94-232.315h-51.61a13.4 13.4 0 0 0 -13.23 11.25l-37.44 220.29a13.4 13.4 0 0 0 13.23 15.52h224.05z" fill="#d9aa7d"/><path d="m456.36 449.735a21.548 21.548 0 0 1 -21.91 5.87c-42.24-12.52-116.39-25.88-181.14 11.71l-.15-17.76c.09-2.87 2.65-46 67.43-50.18 94.8-6.09 115.77-34.84 129.69-48.59l11.75 81.06a21.307 21.307 0 0 1 -5.67 17.89z" fill="#f9f5de"/><path d="m450.28 350.785c-13.92 13.75-34.89 42.5-129.69 48.59-64.78 4.18-67.34 47.31-67.43 50.18l-1.71-193.57s2-45.22 69.14-46.43c47.32-.85 74.9-19.36 88.11-31.73a7.686 7.686 0 0 1 12.8 4.02l12.23 54.14 23.39 103.55a7.657 7.657 0 0 1 -2.77 7.58 48.475 48.475 0 0 0 -4.07 3.67z" fill="#e2decf"/><path d="m456.36 449.735-4.76 7.91a32.071 32.071 0 0 1 -38.52 13.64c-27.68-10.24-78.82-19.92-159.63 5.03-.02-.01-.04-.01-.06-.02l-.08-8.98c64.75-37.59 138.9-24.23 181.14-11.71a21.548 21.548 0 0 0 21.91-5.87z" fill="#e2decf"/><path d="m253.31 467.315.08 8.98c-80.79-24.93-133.68-15.25-161.34-5.01a32.063 32.063 0 0 1 -38.52-13.64l-4.75-7.89a21.538 21.538 0 0 0 21.89 5.85c42.24-12.52 117.89-25.88 182.64 11.71z" fill="#e2decf"/><path d="m253.16 449.555-1.71-193.57c-24.22-17.48-58.91-25.44-92.32-25.68l-40.55 3.59c-3.14.62-6.19 1.32-9.13 2.09-22.23 5.84-38.4 16.02-42.29 29.75l-24.06 166.11a21.591 21.591 0 0 0 27.57 23.76c42.24-12.52 117.89-25.88 182.64 11.71z" fill="#f9f5de"/><path d="m78.78 449.755a21.343 21.343 0 0 1 -5.68-17.91l24.06-166.11c3.89-13.73 20.06-23.91 42.29-29.75 2.94-.77 5.99-1.47 9.13-2.09l29.536-2.615c-6.321-.608-12.676-.929-18.986-.975l-40.55 3.59c-3.14.62-6.19 1.32-9.13 2.09-22.23 5.84-38.4 16.02-42.29 29.75l-24.06 166.11a21.591 21.591 0 0 0 27.57 23.76c3.525-1.045 7.289-2.1 11.254-3.122a21.89 21.89 0 0 1 -3.144-2.728z" fill="#d3ceb6"/><path d="m149.55 252.055a154.5 154.5 0 0 1 -82.6-87.4c-1.36-3.61 6.41-8.38 6.41-8.38s-12.23-10.57-13.07-14.62a154.078 154.078 0 0 1 9.99-93.83l7.48-16.94a156.217 156.217 0 0 1 23.46 12.82 154.094 154.094 0 0 1 20.37 16.17c2.76 2.6-3.02 21.12-.48 23.89 2.72 2.97 13.75-9.8 16.22-6.64a154.769 154.769 0 0 1 21.8 153.18q-.975 2.43-2.04 4.84l-7.47 16.94c-.02-.01-.05-.02-.07-.03z" fill="#d56c70"/><path d="m148.58 233.9a154.79 154.79 0 0 1 -51.63-69.24c-1.36-3.61 6.41-8.38 6.41-8.38s-12.23-10.57-13.07-14.62a154.078 154.078 0 0 1 9.99-93.83l1.613-3.652c-.228-.153-.445-.316-.673-.468a156.217 156.217 0 0 0 -23.46-12.82l-7.48 16.94a154.078 154.078 0 0 0 -9.99 93.83c.84 4.05 13.07 14.62 13.07 14.62s-7.77 4.77-6.41 8.38a154.5 154.5 0 0 0 82.6 87.4c.02.01.05.02.07.03l5.857-13.282q-3.529-2.376-6.897-4.908z" fill="#ad555c"/><g fill="#284268"><path d="m150.676 340.245c-21.6.013-43.494.628-65.062 1.827a6 6 0 0 0 .666 11.983c21.349-1.188 43.018-1.8 64.4-1.81 21.881-.02 44.015.595 65.84 1.81.114.006.227.008.339.008a6 6 0 0 0 .328-11.991c-21.805-1.213-43.929-1.827-65.779-1.827z"/><path d="m216.858 372.691h-28.458a6 6 0 1 0 0 12h28.459a6 6 0 0 0 0-12z"/><path d="m85.948 384.691h69.724a6 6 0 0 0 0-12h-69.724a6 6 0 1 0 0 12z"/><path d="m217.423 403.346c-22.24-2.1-44.848-3.14-67.16-3.115-21.576.036-43.4 1.083-64.881 3.115a6 6 0 0 0 1.13 11.947c21.108-2 42.564-3.026 63.77-3.062 21.94-.062 44.151 1 66.011 3.062.192.018.383.026.572.026a6 6 0 0 0 .558-11.973z"/><path d="m85.948 323.436h65.152a6 6 0 0 0 0-12h-65.152a6 6 0 1 0 0 12z"/><path d="m216.858 311.436h-28.458a6 6 0 0 0 0 12h28.459a6 6 0 0 0 0-12z"/><path d="m283.884 333.845a6 6 0 0 0 -6 6v7.309a6 6 0 0 0 12 0v-7.309a6 6 0 0 0 -6-6z"/><path d="m283 328.039h.154a6 6 0 0 0 5.846-6.151l-1.077-42.712a6 6 0 1 0 -12 .3l1.077 42.714a6 6 0 0 0 6 5.849z"/><path d=""/><path d="m61.3 263.539c.036-.247-.068.24 0 0z"/><path d="m460.035 244.572a19.452 19.452 0 0 0 -19.014-15.55h-2.5l-11.161-49.417a13.494 13.494 0 0 0 -9.228-10.2 13.749 13.749 0 0 0 -13.538 3.073c-11.627 10.889-38.014 29.282-84.107 30.111-20.455.368-48.23 5.175-64.387 25.987a53.111 53.111 0 0 0 -8.717 16.607c-20.978-12.562-49.211-20.215-79.737-21.607a160.661 160.661 0 0 0 -25.591-151.114c-.9-1.15-4.325-4.664-10.59-1.552a35.191 35.191 0 0 0 -4.386 2.731c.088-.619.175-1.2.252-1.725 1.193-8.074 2.055-13.908-1.624-17.373a160.687 160.687 0 0 0 -45.532-30.114 6 6 0 0 0 -7.908 3.071l-7.477 16.938a159.687 159.687 0 0 0 -10.373 97.472c.656 3.163 3.945 7.593 9.8 13.206-2.525 2.818-4.436 6.542-2.882 10.685a160.04 160.04 0 0 0 43.026 63.221h-37.523a19.3 19.3 0 0 0 -19.138 16.247l-37.449 220.338a19.373 19.373 0 0 0 6.734 17.987 19.978 19.978 0 0 0 12.851 4.486h452.321a19.924 19.924 0 0 0 14.1-5.614 19.309 19.309 0 0 0 5.373-17.528zm-386.886-81.46a18.787 18.787 0 0 1 3.35-2.683 6 6 0 0 0 .788-9.652c-5.09-4.4-10.218-9.733-11.182-11.6a147.769 147.769 0 0 1 9.664-89.895l5.008-11.347a148.446 148.446 0 0 1 35.591 24.306 76.535 76.535 0 0 1 -.909 7.92c-1.134 7.679-1.954 13.227 1.227 16.7 4.946 5.4 11.663.609 16.107-2.558.586-.418 1.35-.962 2.085-1.46a148.682 148.682 0 0 1 16.722 148.911l-1.276 2.891-39.512-116.932a6 6 0 1 0 -11.368 3.842l39.769 117.68a147.628 147.628 0 0 1 -66.064-76.123zm20.6 312.968c.129-.046.257-.085.385-.133 26.951-9.974 72.471-17.438 139.932.133zm-3.78-11.387a25.9 25.9 0 0 1 -23.928-3.2 28.015 28.015 0 0 0 6.34-1.1c36.343-10.772 103.609-23.581 163.7 3.81-69.935-18.003-117.667-10.038-146.117.49zm64.354-28.993c-33.843.216-65.467 7.29-85.357 13.185a15.606 15.606 0 0 1 -14.716-3.164 15.277 15.277 0 0 1 -5.212-13.981l13.528-93.418a6 6 0 1 0 -11.876-1.72l-13.528 93.422a27.4 27.4 0 0 0 6.778 22.367l4.448 7.385a38.2 38.2 0 0 0 19.932 16.3h-38.685a7.674 7.674 0 0 1 -5.658-2.363 7.255 7.255 0 0 1 -1.888-6.148l37.447-220.335a7.362 7.362 0 0 1 7.3-6.208h12.596c-9.476 6.117-15.727 13.964-18.137 22.517l-3.074 21.067a6 6 0 1 0 11.876 1.72l2.936-20.277c3.561-11.61 19.924-21.484 44.11-26.694a162.671 162.671 0 0 0 27.557 16.116l7.9 23.39c-.5 0-1 0-1.5 0-20.8.066-41.887.725-62.667 1.959a6 6 0 1 0 .711 11.979c20.558-1.221 41.415-1.873 61.994-1.938 1.837 0 3.678 0 5.518.006l9.379 27.754a6 6 0 1 0 11.368-3.842l-8.049-23.817c16.918.228 33.9.838 50.7 1.837.121.008.241.011.361.011a6 6 0 0 0 .35-11.99c-18.385-1.093-36.987-1.721-55.482-1.9l-9.273-27.439 6.567-14.877c.174-.4.33-.8.5-1.193 32.328.842 61.977 9.031 82.388 22.763l1.746 198.093c-27.02-13.642-58.739-20.567-92.888-20.567zm103.125-180.52c.219-2.964 4.138-39.527 63.255-40.59 50.109-.9 79.209-21.282 92.1-33.351a1.663 1.663 0 0 1 1.7-.393 1.576 1.576 0 0 1 1.119 1.246c.007.037.016.074.024.111l35.609 157.613a1.655 1.655 0 0 1 -.611 1.612 82.336 82.336 0 0 0 -7.848 7.435c-13.838 14.237-36.996 38.054-122.587 43.564-19.54 1.257-45.623 6.957-61.318 26.6zm1.705 193.611c.056-2.111 1.941-40.535 61.827-44.39 80.414-5.175 109.147-26.317 125.094-41.807l10.013 69.15a15.277 15.277 0 0 1 -5.211 13.981 15.612 15.612 0 0 1 -14.716 3.164c-82.907-24.569-140.9-10.765-176.941 7.441zm13.691 27.289c66.646-17.329 111.564-9.973 138.152-.133.128.048.257.087.385.133zm142.317-11.387c-48.122-17.81-102.709-11.223-145.038-.3 34.28-15.764 87.548-26.25 162.627-4a27.953 27.953 0 0 0 6.339 1.1 25.893 25.893 0 0 1 -23.928 3.2zm73.166 8.674a7.374 7.374 0 0 1 -5.729 2.713h-45.798a38.185 38.185 0 0 0 19.934-16.3l4.45-7.388a27.4 27.4 0 0 0 6.776-22.365l-11.294-77.991c.471-.419.931-.811 1.379-1.163a13.583 13.583 0 0 0 4.955-13.514l-.024-.111-21.737-96.216a7.389 7.389 0 0 1 7.019 5.84l41.592 220.365a7.35 7.35 0 0 1 -1.523 6.13z"/></g></svg>