<svg id="Books" viewBox="0 0 88 88" xmlns="http://www.w3.org/2000/svg"><path d="m83.53204346 68h2.46795654c1.10302734 0 2-.89697266 2-2v-4c0-1.10302734-.89697266-2-2-2h-18v-48c0-2.20556641-1.79443359-4-4-4h-16c-.73175049 0-1.40924072.21191406-2 .55645752v-2.55645752c0-2.20556641-1.79443359-4-4-4h-16c-2.20556641 0-4 1.79443359-4 4v2.55645752c-.59075928-.34454346-1.26824951-.55645752-2-.55645752h-16c-2.20556641 0-4 1.79443359-4 4v70c0 2.20556641 1.79443359 4 4 4h82c1.10302734 0 2-.89697266 2-2v-4c0-1.10302734-.89697266-2-2-2h-2.48150635c-.66455078-1.00079346-1.51849365-2.72772217-1.51849365-5 0-1.04882812.21990967-3.03674316 1.53204346-5zm-37.53204346-8v-6h20v6zm-44 11h12.17022705c-.10162354.65374756-.17022705 1.3182373-.17022705 2s.06860352 1.34625244.17022705 2h-12.17022705zm12.6361084-2h-12.6361084v-44h20v36.00286865c-3.47918701 1.4553833-6.19128418 4.3817749-7.3638916 7.99713135zm-12.6361084-50h20v4h-20zm44 27h20v6h-20zm20-2h-20v-16h20zm0-18h-20v-6h20zm-22-7v21h-20v-28h20zm-20 35h17c.55224609 0 1-.44775391 1-1s-.44775391-1-1-1h-17v-10h20v18h-17c-1.03399658 0-2.03509521.13415527-3 .36334229zm24-44h16c1.10302734 0 2 .89697266 2 2v6h-20v-6c0-1.10302734.89697266-2 2-2zm-22-6h16c1.10302734 0 2 .89697266 2 2v4h-20v-4c0-1.10302734.89697266-2 2-2zm-22 6h16c1.10302734 0 2 .89697266 2 2v5h-20v-5c0-1.10302734.89697266-2 2-2zm0 74c-1.10302734 0-2-.89697266-2-2v-5h12.6361084c.94885254 2.92547607 2.91052246 5.39117432 5.46734619 7zm82 0h-59c-6.06542969 0-11-4.93457031-11-11s4.93457031-11 11-11h59v4h-59c-3.85986328 0-7 3.14013672-7 7s3.14013672 7 7 7h59zm-59-6c-2.75683594 0-5-2.24316406-5-5 0-.34240723.03515625-.67675781.10107422-1h8.89892578c.55224609 0 1-.44775391 1-1s-.44775391-1-1-1h-7.97442627c.91363525-1.20697021 2.34753418-2 3.97442627-2h54.21606445c-.35058594.6895752-.60986328 1.36462402-.78894043 2h-43.42712402c-.55224609 0-1 .44775391-1 1s.44775391 1 1 1h43.05297852c-.03515625.37591553-.05297852.7208252-.05297852 1 0 .34539795.02282715.67559814.05267334 1h-25.05267334c-.55224609 0-1 .44775391-1 1s.44775391 1 1 1h25.42767334c.21746826.7590332.49255371 1.42852783.78399658 2z"/><path d="m49 74h-5c-.55224609 0-1 .44775391-1 1s.44775391 1 1 1h5c.55224609 0 1-.44775391 1-1s-.44775391-1-1-1z"/><path d="m12 34c-3.42041016 0-6 5.58886719-6 13s2.57958984 13 6 13 6-5.58886719 6-13-2.57958984-13-6-13zm0 24c-1.88818359 0-4-4.70410156-4-11s2.11181641-11 4-11 4 4.70410156 4 11-2.11181641 11-4 11z"/><path d="m27 32h14c.55224609 0 1-.44775391 1-1v-16c0-.55224609-.44775391-1-1-1h-14c-.55224609 0-1 .44775391-1 1v16c0 .55224609.44775391 1 1 1zm1-16h12v14h-12z"/><path d="m37 18h-6c-.55224609 0-1 .44775391-1 1s.44775391 1 1 1h6c.55224609 0 1-.44775391 1-1s-.44775391-1-1-1z"/><path d="m37 22h-6c-.55224609 0-1 .44775391-1 1s.44775391 1 1 1h6c.55224609 0 1-.44775391 1-1s-.44775391-1-1-1z"/><path d="m35 26h-2c-.55224609 0-1 .44775391-1 1s.44775391 1 1 1h2c.55224609 0 1-.44775391 1-1s-.44775391-1-1-1z"/></svg>