<svg id="Layer_1" height="512" viewBox="0 0 128 128" width="512" xmlns="http://www.w3.org/2000/svg" data-name="Layer 1"><path d="m119.08 88.72a1 1 0 0 0 -.67-.27h-18.16a1 1 0 0 0 -.67.27c-.34.31-8.42 7.77-8.42 15.29 0 5 7.32 11.34 8.15 12a1 1 0 0 0 .65.24h18.74a1 1 0 0 0 .65-.24c.83-.71 8.15-7.07 8.15-12 0-7.52-8.07-15.01-8.42-15.29zm-.75 25.58h-18c-2.23-2-7.17-7-7.17-10.29 0-5.91 6.11-12.21 7.49-13.56h17.35c1.38 1.35 7.49 7.65 7.49 13.56.01 3.3-4.93 8.32-7.16 10.29z"/><path d="m109.33 95.83c-5.62 0-10 2.65-10 6s4.4 6 10 6 10-2.64 10-6-4.33-6-10-6zm0 10c-4.72 0-8-2.11-8-4s3.3-4 8-4 8 2.12 8 4-3.27 4.04-8 4.04z"/><path d="m89.91 30.06c-.94.7-2 1.5-2 2.77a118.24 118.24 0 0 0 1.7 15.47 1 1 0 0 0 .39.61l4.5 3.38-2.78 4.45a1 1 0 0 0 0 1c5.28 10.5 13.2 13.51 15.28 14.13q.83 4.59 1.52 9.39h-7.22a1 1 0 0 0 0 2h16.06a1 1 0 0 0 0-2h-6.86c-.48-3.37-1-6.67-1.6-9.88 1.88-1.51 6.8-6.53 6.8-18a39.21 39.21 0 0 0 -2.44-13.38.87.87 0 0 0 -.07-.17 56.16 56.16 0 0 0 -9.78-16.42 68.83 68.83 0 0 0 -12.25-11.53 1 1 0 0 0 -.92-.11 1 1 0 0 0 -.62.68 60.9 60.9 0 0 0 -1.72 13.32c0 .95.89 1.59 2.06 2.39.34.24.87.61 1.13.84a5.41 5.41 0 0 1 -1.18 1.06zm1.19-3.54a11 11 0 0 1 -1.2-.91 61.75 61.75 0 0 1 1.31-11.2c3.68 2.85 15 12.42 20 25.83-.51 1.08-2.09 4.16-4 5.56a1 1 0 0 0 .59 1.81 1 1 0 0 0 .58-.19 14.93 14.93 0 0 0 3.76-4.57 36.48 36.48 0 0 1 1.6 10.55c0 9.06-3.32 13.73-5.23 15.66-.56-2.92-1.15-5.78-1.79-8.56 0 0 0 0 0-.06a184.8 184.8 0 0 0 -5.72-19.84 8.27 8.27 0 0 0 2.76-4.09 1 1 0 0 0 -2-.46 6.85 6.85 0 0 1 -2.56 3.37 1 1 0 0 0 -.38 1.17 178.86 178.86 0 0 1 5.4 18.4 15.79 15.79 0 0 1 -4.71-3.05 1 1 0 0 0 -1.41 1.43 19 19 0 0 0 6.67 4q.92 4 1.71 8.22c-2.64-1-8.56-4.19-12.77-12.27l3-4.75a1 1 0 0 0 -.24-1.33l-4.93-3.7a116.26 116.26 0 0 1 -1.54-14.8c0-.22.79-.8 1.16-1.08 1-.71 2-1.52 2-2.81-.02-.92-.92-1.54-2.06-2.33z"/><path d="m49.29 67.29a1 1 0 0 0 -1-1h-5a1 1 0 0 0 0 2h5a1 1 0 0 0 1-1z"/><path d="m65 71.6h-20.18a1 1 0 1 0 0 2h20.18a1 1 0 1 0 0-2z"/><path d="m58.58 63.31a1 1 0 0 0 0-2h-30.58a1 1 0 1 0 0 2h2.55v9.61a1 1 0 0 0 .56.9 1 1 0 0 0 .44.1 1 1 0 0 0 .62-.22l2.67-2.12 2.79 2.14a1 1 0 0 0 1.05.1 1 1 0 0 0 .56-.9v-9.61zm-21.32 7.59-1.81-1.38a1 1 0 0 0 -1.23 0l-1.65 1.32v-7.53h4.69z"/><path d="m52.88 67.29a1 1 0 0 0 1 1h9a1 1 0 0 0 0-2h-9a1 1 0 0 0 -1 1z"/><path d="m3.51 97.66v13.58a4.64 4.64 0 0 0 4.64 4.64h75.19a4.64 4.64 0 0 0 4.66-4.64v-13.58a4.79 4.79 0 0 0 3-4.44v-12.52a4.79 4.79 0 0 0 -4.79-4.78h-7.48a16.28 16.28 0 0 1 0-17.54l.27-.38a1 1 0 0 0 -.84-1.54h-61.09a1 1 0 0 0 -.84.45 19 19 0 0 0 -.91 19h-10a4.79 4.79 0 0 0 -4.82 4.79v12.52a4.8 4.8 0 0 0 3.01 4.44zm2 5.27h17.65v5.69h-17.65zm77.83 10.95h-75.19a2.65 2.65 0 0 1 -2.64-2.64v-.62h18.65a1 1 0 0 0 1-1v-7.69a1 1 0 0 0 -1-1h-18.65v-2.93h80.49v13.23a2.64 2.64 0 0 1 -2.66 2.65zm-6.94-38h-3.2a16.24 16.24 0 0 1 0-17.44h3.22a18.24 18.24 0 0 0 -.02 17.48zm-53.59 0a16.84 16.84 0 0 1 0-17.44h48.06a18.24 18.24 0 0 0 0 17.44zm-5.18-17.4h2.9a18.91 18.91 0 0 0 0 17.44h-2.9a16.81 16.81 0 0 1 0-17.44zm-15.13 22.22a2.79 2.79 0 0 1 2.79-2.78h80.92a2.8 2.8 0 0 1 2.79 2.78v12.52a2.8 2.8 0 0 1 -2.79 2.78h-80.92a2.79 2.79 0 0 1 -2.79-2.78z"/><path d="m7.49 93.73a1 1 0 0 0 1-1v-11.54a1 1 0 0 0 -2 0v11.54a1 1 0 0 0 1 1z"/><path d="m12.62 93.73a1 1 0 0 0 1-1v-11.54a1 1 0 0 0 -2 0v11.54a1 1 0 0 0 1 1z"/><path d="m84 93.73a1 1 0 0 0 1-1v-11.54a1 1 0 0 0 -2 0v11.54a1 1 0 0 0 1 1z"/><path d="m45.75 93.73c7.69 0 13.72-3 13.72-6.77s-6-6.77-13.72-6.77-13.75 2.97-13.75 6.81 6.06 6.73 13.75 6.73zm0-11.54c6.9 0 11.72 2.51 11.72 4.77s-4.82 4.77-11.72 4.77-11.75-2.51-11.75-4.73 4.84-4.81 11.75-4.81z"/><path d="m77.54 83.72a1 1 0 0 0 1-1v-1.53a1 1 0 0 0 -2 0v1.53a1 1 0 0 0 1 1z"/><path d="m77.54 93.73a1 1 0 0 0 1-1v-5.73a1 1 0 0 0 -2 0v5.77a1 1 0 0 0 1 .96z"/><path d="m53.71 103.28a1 1 0 0 0 -1 1v4.72a1 1 0 0 0 2 0v-4.7a1 1 0 0 0 -1-1.02z"/><path d="m48.56 100.93a1 1 0 0 0 -1 1v7a1 1 0 1 0 2 0v-7a1 1 0 0 0 -1-1z"/><path d="m44.06 103.67a1 1 0 0 0 -1 1v4.33a1 1 0 1 0 2 0v-4.31a1 1 0 0 0 -1-1.02z"/><path d="m39.56 102.5a1 1 0 0 0 -1 1v5.5a1 1 0 1 0 2 0v-5.5a1 1 0 0 0 -1-1z"/><path d="m78.82 101.57a1 1 0 0 0 -1 1v7.05a1 1 0 0 0 2 0v-7.05a1 1 0 0 0 -1-1z"/><path d="m72.39 101.57a1 1 0 0 0 -1 1v7.05a1 1 0 0 0 2 0v-7.05a1 1 0 0 0 -1-1z"/><path d="m97.71 85.86a1 1 0 0 0 1 1h21.29a1 1 0 0 0 0-2h-21.29a1 1 0 0 0 -1 1z"/></svg>