<svg id="Capa_1" enable-background="new 0 0 507.552 507.552" height="512" viewBox="0 0 507.552 507.552" width="512" xmlns="http://www.w3.org/2000/svg"><g><g><g><path d="m173.451 319.988c-25.898-13.686-64.905-91.863 37.728-201.259 4.288-4.57 11.797-3.439 14.563 2.184 3.289 6.688 8.236 14.891 14.932 21.154 1.99 1.861 5.232.265 4.984-2.448-1.463-15.987-4.049-54.474 4.26-60.645 0 0 112.419-95.547 203.505-65.683 0 0-7.289 55.306-23.257 84.273-1.05 1.905-2.788 3.328-4.844 4.036-7.153 2.464-25.24 8.858-39.546 15.297-1.915.862-1.883 3.591.045 4.421l17.823 7.673c4.398 1.893 6.518 6.911 4.815 11.387-7.766 20.408-31.041 74.748-69.186 106.593-.997.833-2.16 1.43-3.411 1.78-7.891 2.206-38.667 10.673-59.204 14.405-2.312.42-2.477 3.667-.224 4.334l33.183 9.818c1.169.346 1.51 1.836.606 2.654-12.556 11.356-81.033 69.481-136.772 40.026z" fill="#fdcd93"/></g></g><g><g><path d="m160.289 433.422 22.799-31.975s-5.898-101.767 143.482-261.023c3.17-3.38 3.624-8.492 1.087-12.37-3.416-5.222-10.712-6.1-15.265-1.832-40.526 37.987-205.134 201.657-152.103 307.2z" fill="#fba959"/></g></g><g><g><path d="m272.402 500.052h-212.273c-3.314 0-6-2.686-6-6v-20.382c0-3.314 2.686-6 6-6h212.273c3.314 0 6 2.686 6 6v20.382c0 3.313-2.686 6-6 6z" fill="#686f7c"/></g></g><g><g><path d="m244.874 399.174h-157.217c-3.314 0-6 2.686-6 6v62.496h169.217v-62.496c0-3.314-2.686-6-6-6z" fill="#c5c9d4"/></g></g><g><g><path d="m110.213 395.326v-23.33c0-3.314 2.686-6 6-6h100.105c3.314 0 6 2.686 6 6v22.475" fill="#fdcd93"/></g></g><g><g><path d="m400.266 8.326c7.815.874 15.561 2.475 23.156 4.965 0 0-7.289 55.307-23.257 84.273-1.05 1.905-2.788 3.328-4.845 4.036-7.153 2.464-25.24 8.858-39.545 15.297-1.915.862-1.883 3.591.045 4.421l17.823 7.673c4.398 1.893 6.518 6.912 4.815 11.387-7.766 20.408-31.041 74.747-69.186 106.592-.997.833-2.16 1.43-3.411 1.78-7.891 2.206-38.667 10.673-59.204 14.405-2.312.42-2.477 3.667-.224 4.334l33.183 9.818c1.17.346 1.51 1.835.606 2.653-8.947 8.092-46.285 39.919-87.176 46.899 51.128 9.842 106.061-36.847 117.176-46.899.905-.818.564-2.308-.606-2.653l-33.183-9.818c-2.254-.667-2.089-3.914.224-4.334 20.537-3.732 51.314-12.2 59.204-14.405 1.251-.35 2.414-.947 3.411-1.78 38.144-31.845 61.419-86.185 69.186-106.592 1.703-4.476-.417-9.494-4.815-11.387l-17.823-7.673c-1.928-.83-1.96-3.559-.045-4.421 14.306-6.439 32.392-12.832 39.545-15.297 2.057-.708 3.794-2.131 4.845-4.036 15.968-28.967 23.257-84.273 23.257-84.273-17.256-5.658-35.277-6.808-53.156-4.965z" fill="#fbb978"/></g></g><g><g><path d="m272.402 467.669h-30c3.314 0 6 2.686 6 6v20.382c0 3.314-2.686 6-6 6h30c3.314 0 6-2.686 6-6v-20.382c0-3.313-2.686-6-6-6z" fill="#565d68"/></g></g><g><g><path d="m244.874 399.174h-30c3.314 0 6 2.687 6 6v62.496h30v-62.496c0-3.314-2.686-6-6-6z" fill="#adb1bf"/></g></g><g><g><path d="m216.318 365.996h-30c3.314 0 6 2.686 6 6v22.475l-82.105.626v.229l112.105-.855v-22.475c0-3.313-2.686-6-6-6z" fill="#fbb978"/></g></g><g><path d="m455.759 6.164c-31.173-10.22-67.673-7.723-108.486 7.426-3.883 1.441-5.862 5.758-4.421 9.641 1.441 3.884 5.758 5.862 9.641 4.421 34.872-12.943 65.969-15.965 92.547-9.014-2.405 15.084-9.424 53.504-21.442 75.306-.14.253-.395.454-.719.565-7.223 2.488-25.599 8.985-40.181 15.548-3.58 1.611-5.872 5.189-5.84 9.117.032 3.933 2.387 7.478 5.998 9.032l17.822 7.673c.707.305 1.047 1.108.772 1.83-7.979 20.968-30.48 73.029-66.982 103.503-.167.139-.377.245-.623.314-8.669 2.423-38.51 10.612-58.528 14.249-4.449.809-7.727 4.527-7.971 9.042-.244 4.521 2.618 8.577 6.961 9.862l22.679 6.71c-16.388 13.269-51.185 37.777-86.12 39.247 18.889-44.645 54.481-103.981 121.174-175.084 5.561-5.927 6.339-14.812 1.893-21.607-2.846-4.349-7.436-7.198-12.596-7.815-5.155-.614-10.285 1.067-14.073 4.618-26.853 25.17-103.648 101.237-142.199 181.233-19.258-27.045-29.331-91.874 51.585-178.123.431-.46.926-.496 1.267-.445.344.051.813.233 1.096.808 4.746 9.649 10.311 17.495 16.539 23.321 3.199 2.992 7.811 3.679 11.745 1.753 3.941-1.928 6.23-5.996 5.831-10.363-3.132-34.204-.856-51.007 1.471-54.1.06-.048.118-.096.176-.145.263-.223 26.689-22.514 63.473-41.695 3.673-1.916 5.098-6.445 3.183-10.118-1.917-3.673-6.448-5.097-10.118-3.182-37.096 19.344-63.36 41.132-66.057 43.402-3.244 2.427-10.727 8.895-8.163 52.747-1.622-2.537-3.171-5.295-4.619-8.239-2.386-4.853-7-8.226-12.34-9.024-5.333-.799-10.727 1.079-14.422 5.018-41.126 43.837-64.141 86.898-68.404 127.988-3.112 30.001 4.694 58.246 20.887 75.689-5.725 13.793-10.147 27.611-12.837 41.221h-29.142c-7.444 0-13.5 6.056-13.5 13.5v19.678h-15.059c-7.444 0-13.5 6.056-13.5 13.5v54.996h-14.028c-7.444 0-13.5 6.056-13.5 13.5v20.382c0 7.444 6.056 13.5 13.5 13.5h20.084c4.142 0 7.5-3.358 7.5-7.5s-3.358-7.5-7.5-7.5h-18.584v-17.38h209.274v17.382h-160.69c-4.142 0-7.5 3.358-7.5 7.5s3.358 7.5 7.5 7.5h162.189c7.444 0 13.5-6.056 13.5-13.5v-20.382c0-7.444-6.056-13.5-13.5-13.5h-14.028v-54.996c0-7.444-6.056-13.5-13.5-13.5h-15.057v-19.678c0-7.444-6.056-13.5-13.5-13.5h-18.817c1.947-6.992 4.382-14.609 7.409-22.82.072.004 1.863.051 2.694.051 20.827-.001 43.643-7.129 67.855-21.208 19.552-11.369 34.343-24.065 39.795-28.996 2.427-2.195 3.482-5.54 2.757-8.73-.727-3.191-3.128-5.749-6.266-6.678l-13.294-3.933c16.554-3.891 33.261-8.485 39.43-10.209 2.306-.644 4.392-1.736 6.199-3.246 39.219-32.742 62.989-87.612 71.389-109.683 3.141-8.253-.751-17.452-8.859-20.943l-6.908-2.974c11.319-4.578 22.767-8.612 28.062-10.437 3.847-1.325 7.032-3.991 8.97-7.506 16.462-29.862 23.819-84.599 24.124-86.914.473-3.576-1.67-6.982-5.098-8.106zm-212.384 454.006h-154.218v-53.496h154.217v53.496zm-28.557-68.496h-97.104v-18.178h97.104zm-54.156-33.178c8.445-39.056 32.841-84.483 72.569-135.106 32.772-41.758 66.877-75.374 84.291-91.697.75-.704 1.599-.719 2.032-.668.439.053 1.261.27 1.826 1.135.643.982.527 2.27-.281 3.132-92.384 98.493-126.666 175.634-139.135 223.203h-21.302z"/><path d="m126.212 440.935h80.107c4.142 0 7.5-3.358 7.5-7.5s-3.358-7.5-7.5-7.5h-80.107c-4.142 0-7.5 3.358-7.5 7.5s3.358 7.5 7.5 7.5z"/></g></g></svg>