<?xml version="1.0" encoding="iso-8859-1"?>
<!-- Generator: Adobe Illustrator 19.0.0, SVG Export Plug-In . SVG Version: 6.00 Build 0)  -->
<svg version="1.1" id="Layer_1" xmlns="http://www.w3.org/2000/svg" xmlns:xlink="http://www.w3.org/1999/xlink" x="0px" y="0px"
	 viewBox="0 0 512.001 512.001" style="enable-background:new 0 0 512.001 512.001;" xml:space="preserve">
<g>
	<g>
		<path d="M511.995,274.253c0.001-0.045,0.001-0.091,0.002-0.136c0-0.059,0.004-0.116,0.004-0.175V78.316H512
			c0-10.68-5.264-20.652-14.083-26.675c-7.036-4.805-15.589-6.579-23.814-5.13l-45.357-34.017c-0.134-0.1-0.274-0.185-0.411-0.278
			c-0.092-0.062-0.182-0.128-0.276-0.187c-0.25-0.154-0.507-0.294-0.767-0.421c-0.023-0.011-0.043-0.025-0.066-0.036
			c-0.299-0.144-0.604-0.268-0.913-0.376c-0.024-0.008-0.048-0.013-0.071-0.021c-0.276-0.095-0.556-0.173-0.839-0.239
			c-0.084-0.019-0.167-0.032-0.251-0.049c-0.224-0.045-0.446-0.085-0.671-0.112c-0.11-0.014-0.221-0.023-0.333-0.032
			c-0.2-0.017-0.4-0.029-0.599-0.034c-0.124-0.002-0.249-0.004-0.373,0c-0.194,0.005-0.386,0.017-0.58,0.034
			c-0.123,0.011-0.245,0.019-0.367,0.035c-0.224,0.029-0.446,0.069-0.667,0.115c-0.072,0.014-0.144,0.02-0.215,0.037l-96.078,22.165
			c-19.433,4.486-37.053,14.422-50.95,28.736c-7.507,7.731-13.706,16.511-18.434,26.031c-13.584-27.271-38.834-47.723-69.357-54.768
			L90.45,10.928c-0.072-0.017-0.145-0.023-0.216-0.037c-0.221-0.045-0.443-0.086-0.666-0.115c-0.123-0.016-0.245-0.024-0.368-0.035
			c-0.193-0.017-0.384-0.029-0.577-0.034c-0.126-0.002-0.251-0.002-0.377,0c-0.197,0.004-0.395,0.016-0.592,0.032
			c-0.114,0.01-0.226,0.019-0.34,0.034c-0.221,0.027-0.441,0.067-0.66,0.111c-0.087,0.018-0.175,0.031-0.262,0.051
			c-0.276,0.065-0.549,0.142-0.819,0.234c-0.03,0.01-0.06,0.017-0.089,0.026c-0.307,0.108-0.61,0.231-0.908,0.373
			c-0.031,0.014-0.06,0.034-0.091,0.049c-0.251,0.124-0.5,0.258-0.743,0.408c-0.097,0.06-0.188,0.127-0.282,0.19
			c-0.136,0.091-0.274,0.175-0.407,0.274L38.384,45.993c-8.386-1.659-17.175,0.077-24.366,4.989C5.24,56.979,0,66.904,0,77.534
			v195.847c0,26.361,15.861,49.606,40.407,59.217l143.397,56.154L17.943,453.325v-28.572c0-8.837,5.78-16.47,14.383-18.992
			c18.311-5.366,35.085-14.276,49.859-26.482c3.819-3.156,4.359-8.811,1.203-12.63c-3.158-3.821-8.811-4.358-12.632-1.202
			c-12.886,10.647-27.515,18.418-43.478,23.097C11.218,393.251,0,408.141,0,424.753v41.692c0,11.341,5.59,21.934,14.951,28.336
			c9.361,6.401,21.259,7.767,31.829,3.653l209.205-81.444l209.244,81.942c4.044,1.584,8.282,2.364,12.501,2.364
			c6.794,0,13.536-2.023,19.314-5.965c9.365-6.39,14.956-16.974,14.956-28.311c0-0.077-0.016-0.151-0.018-0.227
			c0.005-0.116,0.018-0.23,0.018-0.347v-41.632c0-16.633-11.243-31.53-27.341-36.229c-22.687-6.62-43.103-19.877-58.549-37.795
			l45.442-17.692C496.026,323.569,511.871,300.493,511.995,274.253z M474.473,257.012c0.026-0.011,0.051-0.024,0.078-0.035
			c0.188-0.075,0.37-0.16,0.55-0.248c0.093-0.044,0.188-0.086,0.279-0.134c0.153-0.081,0.301-0.17,0.449-0.26
			c0.111-0.067,0.224-0.13,0.331-0.201c0.114-0.075,0.223-0.159,0.333-0.239c0.129-0.094,0.261-0.187,0.384-0.287
			c0.084-0.068,0.161-0.143,0.243-0.214c0.138-0.121,0.276-0.24,0.405-0.368c0.074-0.073,0.141-0.152,0.212-0.227
			c0.124-0.133,0.251-0.264,0.367-0.403c0.085-0.102,0.161-0.211,0.242-0.316c0.091-0.12,0.185-0.237,0.269-0.36
			c0.101-0.146,0.19-0.3,0.281-0.452c0.054-0.09,0.112-0.177,0.163-0.269c0.099-0.179,0.187-0.365,0.274-0.551
			c0.034-0.073,0.073-0.144,0.104-0.216c0.079-0.183,0.147-0.371,0.214-0.559c0.031-0.086,0.066-0.17,0.094-0.257
			c0.053-0.163,0.095-0.331,0.138-0.498c0.031-0.121,0.067-0.24,0.093-0.362c0.029-0.134,0.049-0.27,0.072-0.406
			c0.028-0.164,0.056-0.327,0.075-0.492c0.012-0.105,0.017-0.213,0.025-0.321c0.016-0.197,0.028-0.395,0.03-0.593
			c0-0.029,0.005-0.057,0.005-0.086V63.964c2.671,0.084,5.293,0.909,7.615,2.494c3.979,2.718,6.26,7.04,6.26,11.858v189.491
			l-229.188,89.202v-14.836c9.592-1.901,19.599-6.897,31.302-15.538L474.473,257.012z M255.899,315.726
			c6.52,0,12.854,1.227,18.776,3.587c-7.067,3.965-13.11,5.815-18.776,5.815s-11.708-1.849-18.776-5.815
			C243.045,316.953,249.379,315.726,255.899,315.726z M218.839,308.626L58.474,246.01L90.6,220.767l91.893,21.199
			c16.062,3.708,30.625,11.921,42.112,23.753c9.123,9.396,15.896,20.665,19.92,33.001
			C235.393,300.234,226.705,303.581,218.839,308.626z M433.039,230.071c1.644,1.292,3.597,1.917,5.537,1.917
			c2.658,0,5.291-1.177,7.06-3.429c3.061-3.896,2.384-9.536-1.512-12.597l-11.79-9.264V37.614l29.905,22.428v182.486h0.001
			l-169.282,66.099c-7.866-5.045-16.554-8.391-25.684-9.907c4.099-12.568,11.044-24.013,20.419-33.511
			c11.404-11.554,25.793-19.591,41.61-23.243l91.894-21.2L433.039,230.071z M49.558,60.042l29.905-22.428v17.943
			c0,4.955,4.016,8.971,8.971,8.971c4.956,0,8.971-4.017,8.971-8.971V30.947l85.089,19.629c32.403,7.48,57.607,33.244,64.433,65.754
			v22.958c0,4.955,4.016,8.971,8.971,8.971s8.971-4.017,8.971-8.971v-22.963c3.323-15.852,11.023-30.36,22.322-41.996
			c11.488-11.831,26.049-20.046,42.11-23.753l85.09-19.63v172.975l-89.124,20.561c-19.139,4.418-36.548,14.141-50.347,28.121
			c-3.666,3.714-7.016,7.683-10.052,11.857v-41.439c0-4.955-4.016-8.971-8.971-8.971c-4.956,0-8.971,4.017-8.971,8.971v41.443
			c-2.871-3.945-6.016-7.709-9.449-11.245c-13.897-14.313-31.517-24.25-50.951-28.737l-89.123-20.56V103.404
			c0-4.955-4.016-8.971-8.971-8.971c-4.956,0-8.971,4.017-8.971,8.971V206.7l-29.905,23.498V60.042z M17.943,267.26V77.534
			c0-4.768,2.258-9.046,6.196-11.736c2.28-1.557,4.853-2.372,7.476-2.467v185.323c0,0.023,0.005,0.045,0.005,0.068
			c0.004,0.389,0.029,0.774,0.083,1.156c0.008,0.057,0.022,0.114,0.03,0.171c0.05,0.319,0.12,0.634,0.203,0.945
			c0.024,0.089,0.047,0.177,0.073,0.266c0.108,0.352,0.231,0.697,0.379,1.034c0.019,0.042,0.042,0.083,0.062,0.124
			c0.138,0.298,0.293,0.585,0.462,0.866c0.049,0.081,0.098,0.161,0.149,0.24c0.197,0.305,0.408,0.603,0.641,0.883
			c0.002,0.004,0.006,0.007,0.008,0.011c0.243,0.291,0.511,0.562,0.792,0.822c0.059,0.055,0.12,0.107,0.181,0.159
			c0.245,0.214,0.502,0.417,0.773,0.605c0.051,0.036,0.099,0.074,0.152,0.109c0.315,0.209,0.645,0.401,0.99,0.572
			c0.023,0.012,0.043,0.028,0.066,0.038c0.084,0.041,0.172,0.069,0.257,0.106c0.134,0.06,0.263,0.127,0.402,0.181l178.303,69.621
			c11.702,8.64,21.709,13.636,31.302,15.538v14.805L17.943,267.26z M408.352,338.449c-0.002,0.001-0.006,0.001-0.008,0.002
			l-70.974,27.585c-4.618,1.794-6.907,6.994-5.111,11.613c1.379,3.55,4.77,5.724,8.364,5.724c1.08,0,2.179-0.197,3.248-0.611
			l64.639-25.122c18.097,22.995,43.1,39.992,71.124,48.17c8.628,2.518,14.426,10.156,14.426,19.004v29.058l-187.255-73.34
			c-4.612-1.807-9.819,0.469-11.626,5.081c-1.807,4.614,0.469,9.818,5.081,11.626l192.788,75.509
			c-1.148,3.108-3.244,5.803-6.116,7.762c-4.529,3.091-10.057,3.715-15.158,1.717l-212.46-83.202
			c-0.84-0.329-1.731-0.525-2.632-0.587c-1.355-0.112-2.716,0.085-3.989,0.58L40.272,481.714
			c-5.122,1.994-10.657,1.358-15.193-1.744c-2.876-1.966-4.975-4.669-6.124-7.785l192.769-75.048
			c3.444-1.341,5.713-4.657,5.717-8.352c0.004-3.695-2.26-7.014-5.701-8.362L46.949,315.891
			c-13.096-5.128-22.736-15.666-26.829-28.506l232.506,91.096c0.075,0.03,0.154,0.05,0.231,0.078c0.166,0.06,0.331,0.12,0.501,0.17
			c0.114,0.034,0.228,0.059,0.343,0.089c0.16,0.041,0.319,0.083,0.483,0.115c0.148,0.029,0.297,0.047,0.445,0.068
			c0.134,0.019,0.266,0.043,0.402,0.056c0.289,0.028,0.579,0.044,0.868,0.044s0.579-0.016,0.867-0.044
			c0.133-0.012,0.261-0.036,0.392-0.055c0.151-0.021,0.303-0.039,0.452-0.069c0.159-0.031,0.313-0.072,0.469-0.11
			c0.12-0.03,0.238-0.056,0.356-0.092c0.163-0.048,0.322-0.105,0.481-0.161c0.079-0.028,0.159-0.049,0.237-0.08l232.738-90.583
			c-4.091,12.841-13.741,23.369-26.852,28.474L408.352,338.449z"/>
	</g>
</g>
<g>
	<g>
		<path d="M238.502,157.423c-14.065-14.912-32.039-25.224-51.979-29.824l-60.187-13.889c-4.828-1.115-9.645,1.895-10.76,6.724
			c-1.114,4.829,1.897,9.646,6.725,10.76l60.187,13.889c16.479,3.803,31.333,12.327,42.96,24.653
			c1.766,1.871,4.144,2.816,6.529,2.816c2.208,0,4.421-0.811,6.154-2.445C241.735,166.707,241.901,161.028,238.502,157.423z"/>
	</g>
</g>
<g>
	<g>
		<path d="M238.502,103.594c-14.065-14.912-32.039-25.224-51.979-29.824l-60.187-13.888c-4.828-1.112-9.645,1.895-10.76,6.724
			c-1.114,4.828,1.897,9.646,6.725,10.758l60.187,13.889c16.479,3.803,31.333,12.327,42.96,24.653
			c1.766,1.871,4.144,2.816,6.529,2.816c2.208,0,4.421-0.811,6.154-2.445C241.735,112.877,241.901,107.199,238.502,103.594z"/>
	</g>
</g>
<g>
	<g>
		<path d="M238.502,211.25c-14.065-14.912-32.039-25.224-51.979-29.824l-60.187-13.889c-4.828-1.111-9.645,1.895-10.76,6.724
			c-1.114,4.829,1.897,9.647,6.725,10.76l60.187,13.889c16.479,3.803,31.333,12.327,42.96,24.653
			c1.766,1.871,4.144,2.816,6.529,2.816c2.208,0,4.421-0.811,6.154-2.445C241.735,220.534,241.901,214.855,238.502,211.25z"/>
	</g>
</g>
<g>
	<g>
		<path d="M396.221,66.607c-1.115-4.828-5.934-7.842-10.76-6.724l-60.187,13.889c-19.939,4.602-37.914,14.914-51.978,29.824
			c-3.4,3.605-3.234,9.282,0.37,12.683c1.733,1.633,3.946,2.444,6.154,2.444c2.384,0,4.763-0.944,6.528-2.816
			c11.627-12.327,26.482-20.851,42.961-24.653l60.187-13.889C394.323,76.251,397.334,71.434,396.221,66.607z"/>
	</g>
</g>
<g>
	<g>
		<path d="M396.221,120.435c-1.115-4.828-5.934-7.839-10.76-6.724L325.274,127.6c-19.939,4.602-37.914,14.914-51.978,29.824
			c-3.4,3.605-3.234,9.282,0.37,12.683c1.733,1.633,3.946,2.444,6.154,2.444c2.384,0,4.763-0.944,6.528-2.816
			c11.627-12.327,26.482-20.851,42.961-24.653l60.187-13.889C394.323,130.08,397.334,125.263,396.221,120.435z"/>
	</g>
</g>
<g>
	<g>
		<path d="M396.221,174.263c-1.115-4.829-5.934-7.839-10.76-6.724l-60.187,13.889c-19.939,4.602-37.914,14.914-51.978,29.824
			c-3.4,3.605-3.234,9.282,0.37,12.683c1.733,1.633,3.946,2.444,6.154,2.444c2.384,0,4.763-0.944,6.528-2.816
			c11.627-12.327,26.482-20.851,42.961-24.653l60.187-13.889C394.323,183.908,397.334,179.091,396.221,174.263z"/>
	</g>
</g>
<g>
</g>
<g>
</g>
<g>
</g>
<g>
</g>
<g>
</g>
<g>
</g>
<g>
</g>
<g>
</g>
<g>
</g>
<g>
</g>
<g>
</g>
<g>
</g>
<g>
</g>
<g>
</g>
<g>
</g>
</svg>
