<?xml version="1.0" encoding="iso-8859-1"?>
<!-- Generator: Adobe Illustrator 19.0.0, SVG Export Plug-In . SVG Version: 6.00 Build 0)  -->
<svg version="1.1" id="Layer_1" xmlns="http://www.w3.org/2000/svg" xmlns:xlink="http://www.w3.org/1999/xlink" x="0px" y="0px"
	 viewBox="0 0 512 512" style="enable-background:new 0 0 512 512;" xml:space="preserve">
<path style="fill:#7A5436;" d="M490.357,402.316C503.132,406.043,512,417.627,512,430.935v43.144l-0.198,0.521l-255.907-80.898
	l161.349-43.597C434.811,374.904,460.463,393.592,490.357,402.316z"/>
<g>
	<path style="fill:#C9AD80;" d="M255.895,393.59L0,474.078v-43.206c0-13.286,8.838-24.866,21.589-28.603
		c29.968-8.784,55.658-27.58,73.192-52.525L255.895,393.59z"/>
	<path style="fill:#C9AD80;" d="M479.026,49.335L255.895,336.927v58.436L512,274.586V71.632c0-16.913-17.011-28.532-32.766-22.379
		L479.026,49.335z"/>
</g>
<path style="fill:#A57D48;" d="M32.763,48.665L32.763,48.665C17.009,42.514,0,54.132,0,71.045v202.959l255.895,121.359v-58.436
	L32.763,48.665z"/>
<path style="fill:#8D663D;" d="M512,474.673L512,474.673c0,18.469-18.584,31.15-35.782,24.416l-220.175-86.223l-0.05,0.012
	l-0.05-0.012l-220.211,85.73C18.543,505.287,0,492.607,0,474.16v-0.083l206.744-80.488L94.781,349.743l-58.889-23.059
	C14.243,318.207,0,297.333,0,274.084v-0.081l255.895,100.26L512,274.586l0,0c0,23.289-14.293,44.191-35.995,52.64l-58.762,22.877
	l-111.987,43.597l206.545,80.898L512,474.673z"/>
<path style="fill:#658577;" d="M472.839,32.252l-216.945,90.394L38.95,32.252c-11.103-4.626-23.927,2.741-24.739,14.743
	c-0.029,0.42-0.043,0.845-0.043,1.273v200.111c0,7.66,4.697,14.536,11.831,17.321l183.648,71.711
	c16.546,12.013,31.397,18.02,46.246,18.02c14.849,0,29.699-6.007,46.246-18.02L485.788,265.7
	c7.134-2.785,11.831-9.662,11.831-17.321V48.269c0-0.428-0.015-0.853-0.043-1.273C496.766,34.994,483.942,27.626,472.839,32.252z"/>
<path style="fill:#47423F;" d="M255.895,234.212l37.189,86.773c-14.169,10.624-25.685,15.941-37.189,15.941
	c-11.504,0-23.02-5.318-37.189-15.941L255.895,234.212z"/>
<path style="fill:#FEFBE1;" d="M429.441,11.081l-99.566,22.97c-18.743,4.326-35.354,13.946-48.221,27.197
	s-21.991,30.135-25.759,49.002L82.348,11.081L32.763,48.269v0.397v199.715l223.132,60.208l223.131-60.208L429.441,11.081z"/>
<g>
	<path style="fill:#D5D2BD;" d="M181.914,34.049L82.348,11.081V209.42l173.547,99.17V110.25
		C248.345,72.516,219.4,42.702,181.914,34.049z"/>
	<polygon style="fill:#D5D2BD;" points="479.026,49.335 479.026,246.608 429.441,246.608 429.441,11.081 479.026,48.269 	"/>
</g>
<g>
	<path style="fill:#B0A18D;" d="M230.135,259.587c12.867,13.252,21.991,30.135,25.759,49.002c-13.09,0-26.168,4.14-37.189,12.396
		L32.763,248.381l49.585-38.961l99.566,22.97C200.657,236.716,217.268,246.335,230.135,259.587z"/>
	<path style="fill:#B0A18D;" d="M479.026,248.381l-185.943,72.604c-11.02-8.256-24.098-12.396-37.189-12.396
		c7.549-37.734,36.494-67.547,73.98-76.199l99.566-22.97L479.026,248.381z"/>
</g>
<g>
	<path style="fill:#ADA999;" d="M231.103,169.513c-2.471,0-4.936-0.978-6.766-2.918c-12.049-12.776-27.443-21.609-44.52-25.549
		l-62.373-14.394c-5.003-1.154-8.123-6.146-6.969-11.149c1.155-5.004,6.147-8.123,11.15-6.968l62.373,14.393
		c20.663,4.768,39.291,15.454,53.866,30.907c3.523,3.736,3.351,9.621-0.384,13.144C235.685,168.672,233.392,169.513,231.103,169.513
		z"/>
	<path style="fill:#ADA999;" d="M231.103,113.728c-2.471,0-4.936-0.978-6.766-2.918c-12.049-12.776-27.443-21.609-44.52-25.549
		l-62.373-14.393c-5.003-1.154-8.123-6.146-6.969-11.149c1.155-5.004,6.147-8.121,11.15-6.968l62.373,14.393
		c20.663,4.768,39.291,15.454,53.866,30.907c3.523,3.736,3.351,9.621-0.384,13.144C235.685,112.889,233.392,113.728,231.103,113.728
		z"/>
	<path style="fill:#ADA999;" d="M231.103,225.294c-2.471,0-4.936-0.978-6.766-2.918c-12.049-12.776-27.443-21.609-44.52-25.549
		l-62.373-14.393c-5.003-1.154-8.123-6.146-6.969-11.149c1.155-5.004,6.147-8.12,11.15-6.968l62.373,14.393
		c20.663,4.768,39.291,15.454,53.866,30.907c3.523,3.736,3.351,9.621-0.384,13.144C235.685,224.455,233.392,225.294,231.103,225.294
		z"/>
	<path style="fill:#ADA999;" d="M280.686,113.728c-2.288,0-4.582-0.84-6.378-2.534c-3.735-3.524-3.906-9.407-0.383-13.144
		c14.574-15.452,33.202-26.139,53.865-30.907l62.373-14.393c5.001-1.159,9.995,1.965,11.15,6.968
		c1.154,5.003-1.965,9.995-6.969,11.149l-62.373,14.393c-17.077,3.942-32.472,12.776-44.521,25.549
		C285.621,112.75,283.156,113.728,280.686,113.728z"/>
	<path style="fill:#ADA999;" d="M280.686,169.513c-2.288,0-4.582-0.84-6.378-2.534c-3.735-3.524-3.906-9.407-0.383-13.144
		c14.574-15.452,33.202-26.139,53.865-30.907l62.373-14.393c5.001-1.155,9.995,1.965,11.15,6.968
		c1.154,5.003-1.965,9.995-6.969,11.149l-62.373,14.393c-17.077,3.942-32.472,12.776-44.521,25.549
		C285.621,168.535,283.156,169.513,280.686,169.513z"/>
	<path style="fill:#ADA999;" d="M280.686,225.294c-2.288,0-4.582-0.84-6.378-2.534c-3.735-3.524-3.906-9.407-0.383-13.144
		c14.574-15.452,33.202-26.139,53.865-30.907l62.373-14.393c5.001-1.155,9.995,1.964,11.15,6.968
		c1.154,5.003-1.965,9.995-6.969,11.149l-62.373,14.393c-17.077,3.942-32.472,12.776-44.521,25.549
		C285.621,224.316,283.156,225.294,280.686,225.294z"/>
</g>
<g>
</g>
<g>
</g>
<g>
</g>
<g>
</g>
<g>
</g>
<g>
</g>
<g>
</g>
<g>
</g>
<g>
</g>
<g>
</g>
<g>
</g>
<g>
</g>
<g>
</g>
<g>
</g>
<g>
</g>
</svg>
