<?xml version="1.0" encoding="iso-8859-1"?>
<!-- Generator: Adobe Illustrator 19.0.0, SVG Export Plug-In . SVG Version: 6.00 Build 0)  -->
<svg version="1.1" id="Capa_1" xmlns="http://www.w3.org/2000/svg" xmlns:xlink="http://www.w3.org/1999/xlink" x="0px" y="0px"
	 viewBox="0 0 511.999 511.999" style="enable-background:new 0 0 511.999 511.999;" xml:space="preserve">
<g>
	<g>
		<path d="M255.987,200.403c-30.656,0-55.597,24.94-55.597,55.597s24.94,55.597,55.597,55.597s55.597-24.94,55.597-55.597
			C311.584,225.343,286.643,200.403,255.987,200.403z M255.987,296.597c-22.385,0-40.597-18.212-40.597-40.597
			c0-22.385,18.211-40.597,40.597-40.597s40.597,18.212,40.597,40.597C296.584,278.385,278.372,296.597,255.987,296.597z"/>
	</g>
</g>
<g>
	<g>
		<path d="M417.288,255.979c3.734-3.521,7.34-7.041,10.806-10.557c4.268,2.158,9.084,3.382,14.184,3.382
			c17.396,0,31.548-14.152,31.548-31.548c0-7.498-2.634-14.39-7.019-19.809c17.164-28.067,20.941-52.022,10.882-69.446
			c-13.485-23.356-49.732-30.896-102.065-21.23c-12.444,2.298-25.493,5.494-38.975,9.52c-3.255-13.689-7.011-26.588-11.243-38.514
			C307.609,27.621,282.955,0,255.987,0c-26.968,0-51.623,27.621-69.419,77.776c-4.235,11.936-7.995,24.846-11.251,38.548
			c-5.703-1.708-11.319-3.271-16.824-4.669c-0.688-16.792-14.557-30.241-31.515-30.241c-13.787,0-25.528,8.893-29.81,21.24
			c-31.421-0.297-53.11,8.42-62.883,25.346c-13.484,23.355-1.89,58.517,32.646,99.007c8.212,9.627,17.504,19.33,27.732,28.993
			c-10.228,9.663-19.52,19.366-27.732,28.993C32.394,325.483,20.8,360.645,34.284,384c9.653,16.72,30.97,25.334,61.505,25.334
			c12.119,0,25.691-1.357,40.56-4.104c12.448-2.299,25.502-5.496,38.989-9.524c1.135,4.763,2.344,9.421,3.601,14.006
			c-8.969,5.569-14.957,15.505-14.957,26.817c0,17.396,14.152,31.548,31.548,31.548c1.912,0,3.782-0.18,5.601-0.508
			c15.758,29.084,34.663,44.43,54.854,44.43c26.969,0,51.623-27.621,69.419-77.776c4.236-11.938,7.996-24.852,11.253-38.557
			c20.229,6.053,39.337,10.217,56.573,12.245c8.601,1.012,16.375,1.472,23.409,1.472c37.686-0.001,54.014-13.199,61.049-25.384
			c13.484-23.355,1.89-58.517-32.646-99.007C436.824,275.358,427.524,265.648,417.288,255.979z M442.278,233.804
			c-9.125,0-16.548-7.424-16.548-16.548s7.423-16.548,16.548-16.548s16.548,7.424,16.548,16.548S451.403,233.804,442.278,233.804z
			 M200.704,82.792C215.991,39.709,236.141,15,255.987,15s39.995,24.709,55.283,67.792c4.168,11.746,7.856,24.492,11.044,38.041
			c-21.425,7.159-43.753,16.271-66.344,27.08c-22.49-10.749-44.899-19.877-66.317-27.044
			C192.841,107.306,196.532,94.548,200.704,82.792z M186.446,135.606c16.956,5.737,34.564,12.74,52.343,20.832
			c-10.214,5.247-20.447,10.817-30.641,16.703c-10.202,5.89-20.149,11.971-29.806,18.197
			C180.213,171.852,182.931,153.154,186.446,135.606z M126.977,96.414c9.125,0,16.548,7.423,16.548,16.548
			s-7.423,16.549-16.548,16.549s-16.548-7.424-16.548-16.549C110.428,103.837,117.852,96.414,126.977,96.414z M78.343,217.272
			c-29.667-34.781-40.991-64.586-31.069-81.772c8.369-14.496,29.948-17.894,48.503-17.861c2.267,15.186,15.393,26.872,31.2,26.872
			c12.602,0,23.497-7.43,28.548-18.137c5.414,1.386,10.944,2.942,16.56,4.639c-4.508,22.118-7.777,45.992-9.711,70.94
			c-20.651,14.156-39.701,28.934-56.608,43.904C95.625,236.322,86.431,226.755,78.343,217.272z M161.166,290.912
			c-15.951-11.373-30.797-23.084-44.245-34.912c13.448-11.828,28.293-23.54,44.245-34.912c-0.564,11.477-0.856,23.132-0.856,34.912
			C160.309,267.8,160.607,279.447,161.166,290.912z M133.625,390.48c-44.954,8.301-76.428,3.206-86.351-13.98
			c-9.922-17.187,1.401-46.991,31.069-81.772c8.088-9.482,17.282-19.049,27.422-28.584c16.904,14.967,35.948,29.741,56.593,43.894
			c1.925,24.931,5.203,48.762,9.747,70.982C158.773,385.036,145.886,388.216,133.625,390.48z M195.531,453.078
			c-9.125,0-16.548-7.423-16.548-16.548s7.423-16.548,16.548-16.548s16.548,7.424,16.548,16.548
			C212.079,445.655,204.656,453.078,195.531,453.078z M311.269,429.208C295.982,472.291,275.832,497,255.987,497
			c-13.955,0-28.446-12.581-41.121-35.567c7.424-5.777,12.214-14.789,12.214-24.903c0-17.396-14.152-31.548-31.548-31.548
			c-0.784,0-1.559,0.039-2.329,0.095c-1.23-4.527-2.399-9.173-3.51-13.92c21.413-7.156,43.728-16.264,66.305-27.066
			c22.574,10.79,44.955,19.891,66.325,27.034C319.133,404.689,315.442,417.45,311.269,429.208z M325.53,376.386
			c-16.915-5.72-34.505-12.704-52.344-20.824c10.213-5.247,20.446-10.817,30.641-16.703c10.154-5.863,20.11-11.957,29.807-18.221
			C331.763,340.129,329.045,358.833,325.53,376.386z M335.165,301.676c-12.485,8.374-25.484,16.482-38.84,24.193
			c-37.167,21.458-74.77,38.702-109.822,50.549c-3.501-17.557-6.221-36.291-8.104-55.719c9.639,6.213,19.567,12.282,29.748,18.16
			c3.109,1.795,6.27,3.588,9.393,5.33c1.156,0.645,2.409,0.951,3.645,0.951c2.631,0,5.185-1.388,6.558-3.849
			c2.017-3.618,0.719-8.186-2.899-10.203c-3.058-1.705-6.152-3.46-9.196-5.218c-13.425-7.751-26.395-15.829-38.806-24.134
			c-1.011-15.009-1.533-30.323-1.533-45.735c0-15.515,0.512-30.8,1.5-45.713c12.421-8.313,25.402-16.398,38.838-24.156
			c37.184-21.468,74.805-38.719,109.872-50.566c3.519,17.56,6.239,36.272,8.112,55.773c-9.657-6.226-19.604-12.307-29.805-18.197
			c-3.312-1.913-6.692-3.829-10.049-5.695c-3.621-2.013-8.187-0.711-10.2,2.909c-2.014,3.62-0.711,8.187,2.909,10.2
			c3.287,1.828,6.597,3.704,9.839,5.576c13.436,7.758,26.417,15.843,38.838,24.156c0.989,14.913,1.5,30.198,1.5,45.713
			C336.663,271.503,336.152,286.775,335.165,301.676z M378.348,121.52c44.954-8.302,76.428-3.206,86.351,13.98
			c6.912,11.973,3.387,30.604-9.89,52.809c-3.844-1.67-8.08-2.602-12.531-2.602c-17.396,0-31.548,14.152-31.548,31.548
			c0,6.858,2.206,13.207,5.937,18.388c-3.365,3.394-6.86,6.793-10.483,10.192c-16.902-14.964-35.943-29.734-56.584-43.883
			c-1.934-24.962-5.207-48.848-9.718-70.976C353.209,126.962,366.092,123.783,378.348,121.52z M350.807,221.088
			c15.937,11.362,30.77,23.063,44.208,34.88c-13.455,11.813-28.319,23.535-44.205,34.879c0.562-11.456,0.853-23.09,0.853-34.848
			C351.664,244.22,351.371,232.565,350.807,221.088z M464.699,376.5c-8.617,14.924-33.375,20.789-69.715,16.515
			c-16.718-1.967-35.331-6.056-55.096-12.025c4.51-22.131,7.781-46.021,9.714-70.986c20.552-14.116,39.65-28.929,56.575-43.888
			c10.152,9.544,19.356,19.121,27.452,28.612C463.298,329.509,474.621,359.313,464.699,376.5z"/>
	</g>
</g>
<g>
</g>
<g>
</g>
<g>
</g>
<g>
</g>
<g>
</g>
<g>
</g>
<g>
</g>
<g>
</g>
<g>
</g>
<g>
</g>
<g>
</g>
<g>
</g>
<g>
</g>
<g>
</g>
<g>
</g>
</svg>
