<svg id="Layer_1" enable-background="new 0 0 512 512" viewBox="0 0 512 512" xmlns="http://www.w3.org/2000/svg"><path d="m311.116 172.343c0-30.392-24.725-55.117-55.116-55.117s-55.117 24.726-55.117 55.117 24.726 55.116 55.117 55.116 55.116-24.724 55.116-55.116zm-55.116 39.116c-21.569 0-39.117-17.548-39.117-39.116 0-21.569 17.548-39.117 39.117-39.117 21.568 0 39.116 17.548 39.116 39.117s-17.548 39.116-39.116 39.116zm43.542 54.796c4.418 0 8 3.582 8 8v16.556c0 4.418-3.582 8-8 8s-8-3.582-8-8v-16.556c0-4.418 3.582-8 8-8zm7.9 60.755.271 32.656c.036 4.418-3.516 8.029-7.934 8.066-.022 0-.045 0-.067 0-4.388 0-7.962-3.538-7.999-7.934l-.271-32.656c-.036-4.418 3.516-8.029 7.934-8.066h.067c4.388.001 7.962 3.539 7.999 7.934zm-58.194 19.161v24.656c0 4.418-3.582 8-8 8s-8-3.582-8-8v-24.656c0-4.418 3.582-8 8-8s8 3.582 8 8zm28.26-16.692v23.012c0 4.418-3.582 8-8 8s-8-3.582-8-8v-23.012c0-4.418 3.582-8 8-8s8 3.582 8 8zm-249.414-188.007h64.324c4.418 0 8-3.582 8-8v-32h25.997c4.418 0 8-3.582 8-8v-67.912c0-4.418-3.582-8-8-8h-64.324c-4.418 0-8 3.582-8 8v32h-25.997c-4.418 0-8 3.582-8 8v67.912c0 4.418 3.582 8 8 8zm41.997-107.912h48.324v51.912h-17.997v-19.912c0-4.418-3.582-8-8-8h-22.327zm-33.997 40h48.324v51.912h-48.324zm334.007 73.516h22v22.001c0 4.418 3.582 8 8 8h76.104c4.418 0 8-3.582 8-8v-69.024c0-4.418-3.582-8-8-8h-22v-22c0-4.418-3.582-8-8-8h-76.104c-4.418 0-8 3.582-8 8v69.023c0 4.418 3.582 8 8 8zm98.104 14.001h-60.104v-53.024h60.104zm-90.104-83.025h60.104v14h-38.104c-4.418 0-8 3.582-8 8v31.023h-14zm-285.146 117.256h-43.13c-4.418 0-8 3.582-8 8v37.057c0 4.418 3.582 8 8 8h43.13c4.418 0 8-3.582 8-8v-37.057c0-4.418-3.582-8-8-8zm-8 37.057h-27.13v-21.057h27.13zm312.822-11.074c-4.418 0-8 3.582-8 8v50.124c0 4.418 3.582 8 8 8h50.258c4.418 0 8-3.582 8-8v-50.124c0-4.418-3.582-8-8-8zm42.258 50.124h-34.258v-34.124h34.258zm62.586 210.535-120-176.961c-1.488-2.195-3.969-3.51-6.621-3.51h-98.491v-27.834l4.36-11.327c6.77-1.943 13.284-4.645 19.453-8.065l12.459 5.534c3.024 1.344 6.562.687 8.904-1.654l19.104-19.104c2.34-2.341 2.997-5.88 1.654-8.904l-5.536-12.464c3.42-6.169 6.12-12.683 8.062-19.447l12.718-4.896c3.089-1.188 5.127-4.156 5.127-7.466v-27.017c0-3.31-2.038-6.277-5.126-7.466l-12.715-4.895c-1.942-6.77-4.644-13.285-8.064-19.453l5.534-12.46c1.343-3.024.686-6.563-1.655-8.904l-19.104-19.104c-2.339-2.34-5.877-2.995-8.903-1.654l-12.465 5.536c-6.167-3.42-12.681-6.12-19.446-8.062l-4.896-12.72c-1.188-3.088-4.156-5.126-7.466-5.126h-27.016c-3.31 0-6.277 2.038-7.466 5.126l-4.896 12.72c-6.766 1.942-13.278 4.643-19.446 8.062l-12.465-5.536c-3.023-1.344-6.563-.687-8.903 1.654l-19.104 19.104c-2.341 2.34-2.998 5.88-1.655 8.904l5.535 12.464c-3.42 6.168-6.12 12.681-8.062 19.448l-12.718 4.896c-3.088 1.188-5.126 4.156-5.126 7.466v27.017c0 3.31 2.038 6.277 5.126 7.466l12.715 4.895c1.943 6.771 4.645 13.286 8.064 19.453l-5.534 12.46c-1.343 3.024-.686 6.563 1.655 8.904l19.104 19.104c2.34 2.339 5.879 2.996 8.903 1.654l4.976-2.21.163 28.412c.025 4.402 3.602 7.954 7.999 7.954h.047c4.418-.025 7.979-3.628 7.954-8.046l-.158-27.485c3.558 1.523 7.204 2.831 10.93 3.901l4.896 12.72c1.188 3.088 4.156 5.126 7.466 5.126h19.017v21.32h-12.261v-9.96c0-4.418-3.582-8-8-8s-8 3.582-8 8v9.96h-217.248c-2.962 0-5.681 1.637-7.068 4.253-1.387 2.617-1.215 5.786.447 8.237l119.999 176.96c1.488 2.195 3.969 3.51 6.621 3.51h360c2.962 0 5.681-1.637 7.068-4.253 1.388-2.617 1.216-5.786-.446-8.237zm-259.031-229.207c-.947-2.462-3.048-4.298-5.614-4.909-7.984-1.898-15.589-5.051-22.602-9.369-2.248-1.384-5.032-1.569-7.441-.499l-11.189 4.969-11.336-11.335 4.968-11.185c1.07-2.411.884-5.195-.5-7.442-4.316-7.009-7.47-14.615-9.372-22.608-.61-2.565-2.446-4.666-4.908-5.613l-11.411-4.393v-16.03l11.413-4.394c2.462-.947 4.298-3.048 4.908-5.613 1.901-7.988 5.055-15.593 9.372-22.604 1.383-2.246 1.569-5.03.499-7.441l-4.969-11.188 11.336-11.336 11.189 4.97c2.409 1.07 5.195.885 7.441-.499 7.012-4.318 14.616-7.471 22.603-9.372 2.565-.61 4.666-2.446 5.613-4.908l4.395-11.415h16.029l4.395 11.415c.947 2.461 3.048 4.298 5.613 4.908 7.986 1.901 15.591 5.055 22.603 9.372 2.246 1.384 5.033 1.569 7.441.499l11.189-4.97 11.336 11.335-4.968 11.185c-1.071 2.411-.884 5.196.5 7.442 4.318 7.011 7.471 14.616 9.371 22.607.61 2.566 2.447 4.667 4.909 5.614l11.411 4.393v16.03l-11.414 4.394c-2.463.947-4.299 3.048-4.91 5.614-1.899 7.984-5.052 15.589-9.37 22.603-1.383 2.247-1.569 5.03-.499 7.441l4.97 11.188-11.336 11.336-11.184-4.968c-2.409-1.07-5.194-.886-7.442.5-7.011 4.317-14.617 7.472-22.607 9.373-2.566.61-4.667 2.446-5.614 4.908l-4.393 11.411h-16.03zm-103.349 225.697-109.15-160.961h172.266l.006 46.714c.001 4.418 3.583 8 8.001 7.999s8-3.583 7.999-8.001l-.006-46.712h13.89v8.692c0 4.418 3.582 8 8 8s8-3.582 8-8v-8.692h122.511l109.15 160.961zm2.38-47.269c2.479 3.657 1.525 8.632-2.131 11.111-1.376.933-2.938 1.38-4.483 1.38-2.563 0-5.081-1.229-6.628-3.511l-51.133-75.404c-2.479-3.657-1.525-8.632 2.131-11.111 3.657-2.479 8.633-1.526 11.111 2.131zm228.889-77.535c3.658-2.479 8.632-1.526 11.111 2.131l51.133 75.404c2.479 3.657 1.525 8.632-2.131 11.111-1.376.933-2.938 1.38-4.483 1.38-2.563 0-5.081-1.229-6.628-3.511l-51.133-75.404c-2.479-3.657-1.525-8.631 2.131-11.111z"/></svg>