<svg enable-background="new 0 0 512 512" height="512" viewBox="0 0 512 512" width="512" xmlns="http://www.w3.org/2000/svg"><g id="_x31_3_Green_Technology"><g><g><ellipse cx="186.133" cy="348.362" fill="#7cc558" rx="57.431" ry="57.431" transform="matrix(.421 -.907 .907 .421 -208.212 370.574)"/></g><g><ellipse cx="375.171" cy="147.22" fill="#7cc558" rx="39.044" ry="39.044" transform="matrix(.421 -.907 .907 .421 83.714 425.573)"/></g><g><g><path d="m177.398 49.725c-11.57 33.771 12.497 72.609 12.497 72.609s42.861-15.908 54.431-49.679c8.643-25.226-2.588-53.264-8.843-65.866-1.974-3.978-6.742-5.61-10.74-3.677-12.66 6.123-38.703 21.389-47.345 46.613z" fill="#7cc558"/></g><g><path d="m89.472 131.38c44.812 15.352 96.345-16.587 96.345-16.587s-21.108-56.873-65.92-72.225c-33.473-11.467-70.676 3.437-87.398 11.738-5.278 2.62-7.444 8.947-4.879 14.252 8.126 16.8 28.382 51.356 61.852 62.822z" fill="#7cc558"/></g><g><g><path d="m346.757 317.114-5.083-19.579c-2.565-9.879-11.341-16.804-21.684-16.661l-31.888.201c-2.842-4.309-5.967-8.444-9.33-12.354l8.933-30.615c2.852-9.796-1.295-20.248-10.094-25.415l-17.437-10.252c-8.788-5.174-19.943-3.712-27.113 3.549l-22.405 22.692c-5.057-1.037-10.19-1.756-15.335-2.143l-15.333-27.959c-4.904-8.943-15.242-13.407-25.104-10.84l-19.577 5.083c-9.875 2.565-16.727 11.48-16.663 21.684l.203 31.883c-4.309 2.842-8.444 5.967-12.356 9.332l-30.612-8.929c-9.793-2.862-20.248 1.29-25.417 10.085l-10.25 17.439c-5.171 8.797-3.712 19.945 3.549 27.113l22.689 22.405c-1.037 5.059-1.756 10.192-2.143 15.337l-27.957 15.336c-8.948 4.906-13.403 15.23-10.837 25.104l5.081 19.577c2.553 9.829 11.398 16.663 21.541 16.663h.143l31.883-.203c2.842 4.307 5.964 8.441 9.335 12.356l-8.931 30.612c-2.857 9.796 1.29 20.246 10.087 25.417l17.437 10.25c8.79 5.169 19.943 3.71 27.116-3.549l22.405-22.692c5.054 1.039 10.187 1.758 15.335 2.145l15.33 27.956c4.948 9.023 15.315 13.384 25.107 10.842l19.582-5.083c9.875-2.565 16.725-11.482 16.658-21.684l-.203-31.883c4.307-2.84 8.444-5.964 12.356-9.335l30.612 8.931c9.784 2.862 20.246-1.292 25.42-10.09l10.247-17.432c5.174-8.8 3.717-19.95-3.549-27.118l-22.692-22.405c1.041-5.057 1.758-10.187 2.145-15.335l27.961-15.333c8.943-4.906 13.4-15.23 10.84-25.102-.002-.001-.002-.001-.002-.001zm-17.9 12.237-31.52 17.284c-2.255 1.237-3.698 3.566-3.803 6.139-.282 6.98-1.256 13.961-2.9 20.755-.607 2.503.143 5.138 1.978 6.946l25.582 25.262c2.475 2.439 2.971 6.237 1.209 9.234l-10.247 17.432c-1.763 3-5.312 4.414-8.661 3.44l-34.511-10.068c-2.47-.719-5.14-.093-7.027 1.651-5.145 4.744-10.773 8.993-16.727 12.631-2.198 1.342-3.53 3.736-3.514 6.311l.229 35.946c.024 3.475-2.31 6.511-5.673 7.383l-19.579 5.083c-3.38.874-6.879-.643-8.549-3.693l-17.284-31.518c-1.237-2.257-3.566-3.7-6.139-3.803-6.982-.284-13.964-1.261-20.752-2.905-2.488-.601-5.129.134-6.948 1.978l-25.26 25.584c-2.436 2.472-6.239 2.976-9.234 1.209l-17.437-10.25c-2.998-1.763-4.409-5.322-3.437-8.656l10.068-34.515c.721-2.47.096-5.138-1.651-7.03-4.741-5.14-8.993-10.768-12.633-16.725-1.333-2.181-3.705-3.511-6.261-3.511-.014 0-.031 0-.048 0l-35.944.229c-3.416-.043-6.514-2.315-7.388-5.675l-5.081-19.577c-.872-3.363.645-6.879 3.69-8.549l31.52-17.284c2.257-1.237 3.7-3.566 3.803-6.139.284-6.977 1.259-13.961 2.902-20.757.604-2.503-.146-5.138-1.978-6.946l-25.582-25.26c-2.472-2.441-2.969-6.237-1.209-9.232l10.25-17.439c1.76-2.998 5.317-4.407 8.656-3.435l34.515 10.066c2.472.721 5.138.093 7.03-1.651 5.133-4.737 10.761-8.986 16.725-12.633 2.195-1.342 3.528-3.736 3.511-6.308l-.229-35.941c-.021-3.475 2.312-6.514 5.675-7.388l19.575-5.081c3.354-.874 6.882.645 8.551 3.69l17.284 31.52c1.237 2.257 3.566 3.7 6.139 3.803 6.977.284 13.961 1.259 20.755 2.902 2.501.614 5.138-.146 6.946-1.978l25.26-25.582c2.439-2.472 6.244-2.967 9.234-1.211l17.439 10.254c2.995 1.76 4.409 5.319 3.435 8.654l-10.07 34.515c-.717 2.47-.091 5.14 1.653 7.032 4.739 5.128 8.986 10.754 12.631 16.72 1.333 2.181 3.707 3.511 6.263 3.511h.048l35.949-.227h.053c3.449 0 6.459 2.327 7.328 5.673l5.083 19.577c.874 3.367-.645 6.883-3.693 8.553z" fill="#3f3f3f"/></g><g><path d="m478.131 145.103c7.023-3.853 10.524-11.96 8.513-19.713v-.002l-3.454-13.309c-2.016-7.758-9-13.118-17.031-13.09l-20.413.131c-1.553-2.276-3.22-4.479-4.987-6.597l5.723-19.601c2.241-7.694-1.018-15.901-7.93-19.962l-11.852-6.968c-6.903-4.07-15.669-2.909-21.297 2.788l-14.341 14.528c-2.709-.514-5.446-.896-8.188-1.144l-9.817-17.898c-3.855-7.034-11.967-10.524-19.716-8.518l-13.314 3.456c-7.753 2.014-13.133 9.017-13.085 17.031l.134 20.413c-2.284 1.555-4.486 3.217-6.602 4.983l-19.601-5.716c-7.706-2.245-15.903 1.013-19.959 7.921l-6.97 11.852c-4.065 6.91-2.919 15.667 2.79 21.299l14.523 14.346c-.511 2.704-.893 5.439-1.142 8.186l-17.896 9.817c-7.037 3.855-10.534 11.965-8.518 19.718l3.454 13.309c2.016 7.758 8.953 13.082 17.031 13.087l20.413-.129c1.553 2.274 3.22 4.479 4.983 6.597l-5.718 19.601c-2.241 7.694 1.018 15.903 7.925 19.964l11.857 6.965c6.908 4.068 15.669 2.912 21.292-2.788l14.346-14.528c2.709.514 5.446.896 8.188 1.144l9.817 17.9c3.843 7.007 11.934 10.528 19.716 8.513l13.309-3.454c7.753-2.011 13.137-9.015 13.09-17.031l-.134-20.413c2.279-1.553 4.481-3.217 6.597-4.983l19.606 5.716c7.672 2.241 15.894-1.013 19.959-7.921l6.975-11.862c4.056-6.91 2.905-15.667-2.795-21.29l-14.528-14.344c.516-2.704.898-5.441 1.147-8.191zm-32.223 25.62 17.394 17.177c.917.901 1.099 2.305.449 3.411l-6.97 11.855c-.654 1.106-1.973 1.639-3.201 1.273l-23.466-6.843c-2.465-.721-5.131-.1-7.027 1.648-3.387 3.122-7.089 5.919-11.007 8.312-2.198 1.342-3.526 3.736-3.511 6.308l.158 24.436c.01 1.285-.855 2.408-2.102 2.733l-13.309 3.454c-1.237.33-2.541-.241-3.158-1.364l-11.752-21.428c-1.237-2.257-3.569-3.7-6.139-3.803-4.591-.186-9.187-.829-13.653-1.911-2.491-.602-5.13.137-6.946 1.978l-17.174 17.391c-.903.912-2.307 1.094-3.416.447l-11.857-6.965c-1.108-.652-1.629-1.968-1.266-3.203l6.846-23.466c.717-2.47.091-5.138-1.653-7.03-3.12-3.382-5.919-7.085-8.308-11-1.333-2.183-3.707-3.514-6.263-3.514-.014 0-.029 0-.048 0l-24.44.155c-.01 0-.014 0-.019 0-1.276 0-2.389-.86-2.709-2.097l-3.459-13.317c-.32-1.24.239-2.537 1.371-3.158l21.426-11.752c2.255-1.235 3.698-3.561 3.803-6.132.186-4.603.831-9.199 1.906-13.658.607-2.501-.143-5.136-1.978-6.944l-17.389-17.174c-.917-.905-1.099-2.307-.449-3.416l6.975-11.859c.65-1.106 1.959-1.627 3.196-1.266l23.466 6.843c2.475.726 5.136.093 7.032-1.651 3.373-3.112 7.075-5.907 11.002-8.31 2.198-1.342 3.526-3.736 3.511-6.308l-.158-24.436c-.01-1.287.855-2.41 2.097-2.733l13.319-3.456c1.242-.311 2.532.239 3.153 1.366l11.752 21.428c1.237 2.257 3.569 3.7 6.139 3.803 4.591.186 9.187.829 13.653 1.911 2.489.607 5.14-.143 6.946-1.978l17.169-17.394c.903-.917 2.307-1.099 3.421-.447l11.852 6.968c1.108.652 1.634 1.971 1.271 3.203l-6.846 23.463c-.717 2.47-.091 5.136 1.653 7.027 3.124 3.387 5.919 7.089 8.308 11.004 1.342 2.195 3.683 3.516 6.311 3.514l24.436-.158h.019c1.28 0 2.393.86 2.713 2.1l3.454 13.312c.325 1.242-.239 2.544-1.366 3.16l-21.426 11.75c-2.255 1.237-3.698 3.564-3.803 6.134-.186 4.61-.831 9.203-1.911 13.653-.606 2.507.144 5.144 1.978 6.954z" fill="#3f3f3f"/></g><g><path d="m102.342 92.527c2.931-.454 71.811-10.431 96.462 66.972 2.957 9.292 16.932 4.802 13.983-4.452-3.809-11.96-8.627-22.048-14.081-30.641-3.752-37.89 21.547-71.549 21.853-71.953 2.467-3.21 1.868-7.811-1.342-10.283-3.203-2.467-7.816-1.88-10.29 1.338-1.024 1.329-21.18 28.029-24.741 62.742-35.607-35.239-83.503-28.311-84.137-28.217-4.003.633-6.734 4.39-6.101 8.394.634 4.003 4.412 6.726 8.394 6.1z" fill="#3f3f3f"/></g></g></g></g></g></svg>