<svg enable-background="new 0 0 512 512" viewBox="0 0 512 512" xmlns="http://www.w3.org/2000/svg"><g id="_x30_6_Technology"><g><ellipse cx="365.281" cy="477.978" fill="#61e4e7" rx="23.067" ry="23.067" transform="matrix(.898 -.44 .44 .898 -172.932 209.24)"/><ellipse cx="146.721" cy="477.977" fill="#61e4e7" rx="23.067" ry="23.067" transform="matrix(.109 -.994 .994 .109 -344.44 571.517)"/><ellipse cx="256.001" cy="450.517" fill="#f6afba" rx="23.067" ry="23.067" transform="matrix(.898 -.44 .44 .898 -171.985 158.404)"/><ellipse cx="146.721" cy="34.021" fill="#61e4e7" rx="23.067" ry="23.067" transform="matrix(.852 -.524 .524 .852 3.934 81.939)"/><ellipse cx="365.28" cy="34.021" fill="#61e4e7" rx="23.067" ry="23.067" transform="matrix(.113 -.994 .994 .113 290.207 393.119)"/><ellipse cx="256.001" cy="61.481" fill="#f6afba" rx="23.067" ry="23.067" transform="matrix(.852 -.524 .524 .852 5.751 143.283)"/><ellipse cx="34.022" cy="365.279" fill="#61e4e7" rx="23.067" ry="23.067" transform="matrix(.912 -.41 .41 .912 -146.916 46.143)"/><ellipse cx="34.022" cy="146.72" fill="#61e4e7" rx="23.067" ry="23.067" transform="matrix(.146 -.989 .989 .146 -116.09 158.983)"/><ellipse cx="61.483" cy="255.999" fill="#f6afba" rx="23.067" ry="23.067" transform="matrix(.912 -.41 .41 .912 -99.648 47.786)"/><ellipse cx="477.979" cy="146.719" fill="#61e4e7" rx="23.067" ry="23.067" transform="matrix(.875 -.484 .484 .875 -11.295 249.684)"/><ellipse cx="477.979" cy="365.279" fill="#61e4e7" rx="23.067" ry="23.067" transform="matrix(.145 -.989 .989 .145 47.265 785.253)"/><ellipse cx="450.519" cy="255.999" fill="#f6afba" rx="23.067" ry="23.067" transform="matrix(.875 -.484 .484 .875 -67.619 250.046)"/><path d="m370.144 338.4c3.613 2.661 4.133 12.863 3.736 17.555l-17.924 17.924c-4.691.396-14.894-.124-17.555-3.736l-24.75 14.29c1.798 4.111-2.853 13.206-5.542 17.071l-24.485 6.561c-4.261-2.003-12.836-7.554-13.335-12.013h-28.579c-.498 4.459-9.074 10.011-13.335 12.013l-24.485-6.561c-2.689-3.865-7.34-12.96-5.542-17.071l-24.75-14.29c-2.661 3.613-12.863 4.133-17.555 3.736l-17.924-17.924c-.396-4.691.124-14.894 3.736-17.555l-14.29-24.75c-4.111 1.798-13.206-2.853-17.071-5.542l-6.561-24.485c2.003-4.261 7.554-12.836 12.013-13.335v-28.578c-4.459-.498-10.011-9.074-12.013-13.335l6.561-24.485c3.865-2.689 12.96-7.34 17.071-5.542l14.29-24.75c-3.613-2.661-4.133-12.863-3.736-17.555l17.924-17.924c4.691-.396 14.894.124 17.555 3.736l24.75-14.29c-1.798-4.111 2.853-13.206 5.542-17.071l24.485-6.561c4.261 2.003 12.836 7.554 13.335 12.013h28.579c.498-4.459 9.074-10.011 13.335-12.013l24.485 6.561c2.689 3.865 7.34 12.96 5.542 17.071l24.75 14.29c2.661-3.613 12.863-4.133 17.555-3.736l17.924 17.924c.396 4.691-.124 14.894-3.736 17.555l14.29 24.75c4.111-1.798 13.206 2.853 17.071 5.542l6.561 24.485c-2.003 4.261-7.554 12.836-12.013 13.335v28.579c4.459.498 10.011 9.074 12.013 13.335l-6.561 24.485c-3.865 2.689-12.96 7.34-17.071 5.542z" fill="#cdaddc"/><path d="m396.069 270.31v-28.621c4.46-.49 9.998-9.067 12.007-13.33l-6.567-24.455c-3.872-2.695-12.987-7.351-17.055-5.538l-14.311-24.75c3.627-2.695 4.117-12.889 3.724-17.594l-17.888-17.888c-4.705-.392-14.899.098-17.594 3.724l-8.135-4.705c18.133 35.678 28.327 76.111 28.327 118.896 0 42.736-10.194 83.119-28.278 118.798l8.086-4.705c2.695 3.627 12.889 4.117 17.594 3.725l17.888-17.888c.392-4.705-.098-14.899-3.724-17.594l14.311-24.75c4.068 1.813 13.183-2.843 17.055-5.538l6.567-24.455c-2.01-4.266-7.548-12.842-12.007-13.332z" fill="#c993dd"/><circle cx="256.001" cy="255.999" fill="#fefeff" r="85.083"/><g fill="#2e2e6d"><path d="m395.973 183.501 28.197-31.88h26.3c2.327 13.088 13.763 23.066 27.51 23.066 15.421 0 27.967-12.547 27.967-27.97 0-15.421-12.547-27.967-27.967-27.967-13.746 0-25.183 9.979-27.51 23.069h-28.509c-1.405 0-2.74.603-3.671 1.654l-28.197 31.88h-13.277l-.792-1.371c3.664-6.751 2.788-17.79 2.74-18.352-.098-1.153-.601-2.233-1.419-3.051l-17.924-17.924c-.818-.818-1.898-1.321-3.051-1.419-.57-.043-11.601-.926-18.352 2.74l-1.371-.792v-13.277l31.88-28.197c1.051-.931 1.654-2.266 1.654-3.671v-28.508c13.09-2.327 23.069-13.763 23.069-27.51 0-15.421-12.547-27.967-27.97-27.967-15.421 0-27.967 12.547-27.967 27.967 0 13.746 9.978 25.182 23.066 27.51v26.3l-31.88 28.197c-1.051.931-1.654 2.266-1.654 3.671v9.827l-7.911-4.567c-.203-7.674-6.478-16.799-6.801-17.261-.66-.95-1.637-1.637-2.754-1.936l-24.485-6.559c-1.12-.302-2.307-.199-3.35.297-.512.239-10.513 4.999-14.526 11.549h-6.117v-22.058c13.09-2.327 23.069-13.763 23.069-27.51 0-15.421-12.547-27.967-27.97-27.967-15.421 0-27.967 12.547-27.967 27.967 0 13.746 9.978 25.182 23.066 27.51v22.057h-6.114c-4.015-6.547-14.014-11.309-14.523-11.549-1.051-.493-2.237-.596-3.353-.297l-24.485 6.559c-1.118.299-2.094.984-2.754 1.934-.323.464-6.6 9.586-6.803 17.263l-7.909 4.566v-9.826c0-1.405-.603-2.74-1.654-3.671l-31.882-28.197v-26.3c13.088-2.327 23.066-13.763 23.066-27.51 0-15.421-12.547-27.967-27.967-27.967s-27.968 12.547-27.968 27.968c0 13.746 9.978 25.182 23.066 27.51v28.509c0 1.405.603 2.74 1.654 3.671l31.882 28.197v13.277l-1.371.792c-6.746-3.664-17.785-2.785-18.352-2.74-1.153.098-2.233.601-3.051 1.419l-17.924 17.924c-.818.818-1.321 1.898-1.419 3.051-.048.562-.924 11.604 2.738 18.354l-.79 1.369h-13.278l-28.195-31.88c-.931-1.051-2.266-1.654-3.671-1.654h-28.509c-2.327-13.088-13.763-23.066-27.51-23.066-15.423 0-27.97 12.547-27.97 27.967s12.547 27.967 27.97 27.967c13.746 0 25.182-9.978 27.51-23.066h26.3l28.195 31.88c.931 1.051 2.266 1.654 3.671 1.654h9.828l-4.566 7.909c-7.674.208-16.799 6.48-17.261 6.803-.95.66-1.637 1.637-1.936 2.754l-6.562 24.485c-.299 1.118-.194 2.304.297 3.353.242.51 5.004 10.508 11.549 14.523v6.117h-22.055c-2.327-13.088-13.763-23.066-27.51-23.066-15.421 0-27.967 12.547-27.967 27.967s12.547 27.967 27.967 27.967c13.746 0 25.182-9.978 27.51-23.066h22.055v6.117c-6.543 4.016-11.307 14.009-11.546 14.521-.493 1.046-.598 2.235-.299 3.353l6.562 24.485c.299 1.118.984 2.094 1.934 2.754.464.323 9.586 6.6 17.263 6.803l4.566 7.909h-9.828c-1.405 0-2.74.603-3.671 1.654l-28.195 31.882h-26.3c-2.327-13.088-13.763-23.066-27.51-23.066-15.423 0-27.97 12.547-27.97 27.967s12.547 27.967 27.967 27.967c13.748 0 25.185-9.978 27.512-23.066h28.509c1.405 0 2.74-.603 3.671-1.654l28.195-31.882h13.278l.79 1.369c-3.661 6.751-2.785 17.792-2.738 18.354.098 1.153.601 2.233 1.419 3.051l17.924 17.924c.818.818 1.898 1.321 3.051 1.419.558.041 11.599.921 18.354-2.738l1.369.79v13.276l-31.882 28.197c-1.051.931-1.654 2.266-1.654 3.671v28.509c-13.088 2.327-23.066 13.763-23.066 27.51 0 15.423 12.547 27.97 27.967 27.97 15.423 0 27.97-12.547 27.97-27.97 0-13.746-9.979-25.183-23.069-27.51v-26.3l31.882-28.197c1.051-.931 1.654-2.266 1.654-3.671v-9.826l7.909 4.566c.203 7.677 6.48 16.799 6.803 17.263.66.95 1.637 1.634 2.754 1.934l24.485 6.562c1.11.302 2.307.189 3.353-.299.512-.239 10.505-5.004 14.521-11.546h6.117v22.055c-13.088 2.327-23.066 13.763-23.066 27.51 0 15.421 12.547 27.967 27.967 27.967 15.423 0 27.97-12.547 27.97-27.967 0-13.746-9.979-25.183-23.069-27.51v-22.055h6.117c4.016 6.545 14.014 11.307 14.523 11.549 1.046.492 2.244.596 3.353.297l24.485-6.562c1.118-.299 2.094-.986 2.754-1.936.323-.462 6.598-9.586 6.801-17.261l7.911-4.567v9.829c0 1.405.603 2.74 1.654 3.671l31.88 28.195v26.3c-13.088 2.327-23.066 13.763-23.066 27.51 0 15.423 12.547 27.97 27.967 27.97 15.423 0 27.97-12.547 27.97-27.97 0-13.746-9.979-25.183-23.069-27.51v-28.509c0-1.405-.603-2.74-1.654-3.671l-31.88-28.195v-13.278l1.369-.79c6.751 3.659 17.79 2.778 18.354 2.738 1.153-.098 2.233-.601 3.051-1.419l17.924-17.924c.818-.818 1.321-1.898 1.419-3.051.048-.562.924-11.601-2.74-18.352l.792-1.371h13.277l28.197 31.882c.931 1.051 2.266 1.654 3.671 1.654h28.509c2.327 13.088 13.763 23.066 27.51 23.066 15.421 0 27.967-12.547 27.967-27.967 0-15.423-12.547-27.97-27.967-27.97-13.746 0-25.183 9.979-27.51 23.069h-26.3l-28.197-31.882c-.931-1.051-2.266-1.654-3.671-1.654h-9.826l4.566-7.909c7.677-.203 16.799-6.48 17.263-6.803.95-.66 1.634-1.637 1.934-2.754l6.559-24.485c.299-1.118.194-2.307-.299-3.353-.239-.512-5.004-10.505-11.546-14.521v-6.117h22.057c2.327 13.088 13.763 23.066 27.51 23.066 15.421 0 27.967-12.547 27.967-27.967 0-15.423-12.547-27.97-27.967-27.97-13.746 0-25.183 9.979-27.51 23.069h-22.057v-6.117c6.545-4.015 11.307-14.014 11.549-14.523.491-1.048.596-2.235.297-3.353l-6.559-24.485c-.299-1.118-.986-2.094-1.936-2.754-.462-.323-9.586-6.595-17.261-6.803l-4.566-7.909h9.826c1.403-.002 2.739-.605 3.67-1.656zm82.006-54.948c10.017 0 18.165 8.148 18.165 18.165s-8.148 18.168-18.165 18.168-18.165-8.148-18.165-18.165 8.148-18.168 18.165-18.168zm-130.865-94.532c0-10.017 8.148-18.165 18.165-18.165s18.168 8.148 18.168 18.165-8.151 18.165-18.168 18.165-18.165-8.148-18.165-18.165zm-109.279 27.46c0-10.017 8.148-18.165 18.165-18.165s18.168 8.148 18.168 18.165-8.151 18.165-18.168 18.165-18.165-8.148-18.165-18.165zm-109.28-27.46c0-10.017 8.148-18.165 18.165-18.165s18.165 8.148 18.165 18.165-8.148 18.165-18.165 18.165-18.165-8.148-18.165-18.165zm-94.532 130.865c-10.017 0-18.168-8.148-18.168-18.165s8.151-18.165 18.168-18.165 18.165 8.148 18.165 18.165-8.147 18.165-18.165 18.165zm27.46 109.279c-10.017 0-18.165-8.148-18.165-18.165s8.148-18.165 18.165-18.165 18.166 8.148 18.166 18.165-8.148 18.165-18.166 18.165zm-27.462 109.28c-10.017 0-18.165-8.148-18.165-18.165s8.151-18.165 18.168-18.165 18.165 8.148 18.165 18.165-8.151 18.165-18.168 18.165zm130.867 94.532c0 10.017-8.151 18.168-18.168 18.168s-18.165-8.151-18.165-18.168 8.148-18.165 18.165-18.165 18.168 8.147 18.168 18.165zm109.28-27.46c0 10.017-8.151 18.165-18.168 18.165s-18.165-8.148-18.165-18.165 8.148-18.165 18.165-18.165 18.168 8.147 18.168 18.165zm109.279 27.46c0 10.017-8.151 18.168-18.168 18.168s-18.165-8.151-18.165-18.168 8.148-18.165 18.165-18.165 18.168 8.147 18.168 18.165zm94.532-130.865c10.017 0 18.165 8.151 18.165 18.168s-8.148 18.165-18.165 18.165-18.165-8.148-18.165-18.165 8.148-18.168 18.165-18.168zm-27.46-109.28c10.017 0 18.165 8.151 18.165 18.168s-8.148 18.165-18.165 18.165-18.165-8.148-18.165-18.165 8.148-18.168 18.165-18.168zm-64.219-34.959c1.515-.357 6.703 1.493 10.955 4.097l5.59 20.865c-2.381 4.382-5.956 8.596-7.337 9.005-2.482.275-4.358 2.374-4.358 4.87v28.58c0 2.496 1.776 4.575 4.257 4.853 1.472.424 5.054 4.64 7.438 9.022l-5.59 20.867c-4.245 2.601-9.44 4.492-10.86 4.128-2.288-.995-4.956-.122-6.207 2.041l-14.289 24.749c-1.247 2.161-.749 4.851 1.259 6.33 1.065 1.106 2.06 6.552 1.931 11.534l-15.275 15.275c-4.932.189-10.419-.857-11.467-1.85-1.484-2.015-4.233-2.582-6.397-1.34l-24.75 14.287c-2.161 1.249-3.075 3.829-2.075 6.114.369 1.486-1.491 6.7-4.094 10.955l-20.865 5.59c-4.379-2.381-8.596-5.956-9.005-7.337-.275-2.482-2.374-4.358-4.87-4.358h-28.58c-2.496 0-4.575 1.776-4.853 4.257-.426 1.472-4.642 5.054-9.022 7.438l-20.867-5.592c-2.604-4.25-4.465-9.455-4.128-10.86.998-2.285.12-4.958-2.041-6.208l-24.749-14.289c-2.161-1.247-4.853-.744-6.332 1.261-1.103 1.062-6.593 2.084-11.532 1.929l-15.275-15.275c-.132-4.982.857-10.422 1.85-11.467 2.01-1.481 2.587-4.236 1.34-6.397l-14.288-24.747c-1.249-2.159-3.819-3.075-6.114-2.075-1.476.383-6.703-1.491-10.953-4.094l-5.592-20.867c2.381-4.379 5.956-8.596 7.337-9.005 2.482-.275 4.358-2.374 4.358-4.87v-28.58c0-2.496-1.776-4.575-4.257-4.853-1.472-.426-5.056-4.642-7.438-9.022l5.59-20.865c4.26-2.604 9.493-4.465 10.862-4.13 2.281.995 4.958.122 6.207-2.041l14.289-24.749c1.247-2.161.749-4.851-1.261-6.332-1.062-1.103-2.058-6.547-1.929-11.532l15.275-15.275c4.992-.158 10.422.861 11.467 1.852 1.484 2.013 4.238 2.58 6.397 1.338l24.749-14.289c2.161-1.249 3.075-3.826 2.075-6.114-.369-1.486 1.491-6.7 4.094-10.953l20.867-5.59c4.382 2.379 8.596 5.954 9.005 7.337.275 2.482 2.374 4.358 4.87 4.358h28.58c2.496 0 4.578-1.776 4.853-4.257.426-1.474 4.64-5.059 9.022-7.438l20.865 5.59c2.604 4.252 4.468 9.457 4.13 10.857-1.003 2.288-.122 4.961 2.039 6.21l24.751 14.289c2.166 1.252 4.853.747 6.332-1.259 1.103-1.065 6.612-2.077 11.532-1.931l15.275 15.275c.129 4.982-.859 10.422-1.852 11.467-2.01 1.481-2.584 4.236-1.338 6.397l14.289 24.749c1.247 2.158 3.825 3.077 6.11 2.075z"/><path d="m256 166.015c-49.617 0-89.982 40.368-89.982 89.985s40.365 89.982 89.982 89.982 89.985-40.365 89.985-89.982-40.368-89.985-89.985-89.985zm0 170.166c-44.211 0-80.181-35.969-80.181-80.181 0-44.213 35.969-80.183 80.181-80.183 44.213 0 80.183 35.969 80.183 80.183 0 44.211-35.97 80.181-80.183 80.181z"/><path d="m290.525 256.017c10.506-16.46 13.004-31.837 5.149-39.691-7.859-7.855-23.234-5.359-39.693 5.147-11.762-7.496-29.837-14.963-39.653-5.147-7.855 7.855-5.359 23.233 5.148 39.692-7.5 11.769-14.963 29.842-5.148 39.653 9.824 9.832 27.96 2.304 39.648-5.144 11.851 7.566 30.035 14.806 39.698 5.144 9.82-9.815 2.358-27.876-5.149-39.654zm-7.434-34.541c2.541 0 4.482.61 5.652 1.78 3.258 3.259 2.156 12.513-4.421 24.092-5.67-7.158-12.051-13.63-19.647-19.652 7.406-4.2 13.883-6.22 18.416-6.22zm-27.088 57.17c-8.393-6.236-16.406-14.246-22.648-22.647 6.016-8.096 13.929-16.164 22.646-22.64 8.717 6.476 16.629 14.541 22.646 22.639-6.225 8.379-14.228 16.392-22.644 22.648zm-32.744-55.39c4.782-4.782 17.828.903 24.055 4.432-7.419 5.905-13.838 12.344-19.635 19.661-6.578-11.579-7.679-20.834-4.42-24.093zm0 65.485c-3.258-3.258-2.159-12.507 4.412-24.08 6.143 7.724 12.462 13.907 19.694 19.657-11.582 6.585-20.84 7.689-24.106 4.423zm65.485 0c-3.259 3.262-12.514 2.16-24.094-4.42 7.352-5.824 13.788-12.252 19.681-19.661 6.571 11.573 7.67 20.823 4.413 24.081z"/></g></g></g><g id="Layer_1"/></svg>